G04 #@! TF.GenerationSoftware,KiCad,Pcbnew,(7.0.0)*
G04 #@! TF.CreationDate,2023-09-25T14:47:28+02:00*
G04 #@! TF.ProjectId,vootington,766f6f74-696e-4677-946f-6e2e6b696361,rev?*
G04 #@! TF.SameCoordinates,Original*
G04 #@! TF.FileFunction,Paste,Bot*
G04 #@! TF.FilePolarity,Positive*
%FSLAX46Y46*%
G04 Gerber Fmt 4.6, Leading zero omitted, Abs format (unit mm)*
G04 Created by KiCad (PCBNEW (7.0.0)) date 2023-09-25 14:47:28*
%MOMM*%
%LPD*%
G01*
G04 APERTURE LIST*
G04 Aperture macros list*
%AMRoundRect*
0 Rectangle with rounded corners*
0 $1 Rounding radius*
0 $2 $3 $4 $5 $6 $7 $8 $9 X,Y pos of 4 corners*
0 Add a 4 corners polygon primitive as box body*
4,1,4,$2,$3,$4,$5,$6,$7,$8,$9,$2,$3,0*
0 Add four circle primitives for the rounded corners*
1,1,$1+$1,$2,$3*
1,1,$1+$1,$4,$5*
1,1,$1+$1,$6,$7*
1,1,$1+$1,$8,$9*
0 Add four rect primitives between the rounded corners*
20,1,$1+$1,$2,$3,$4,$5,0*
20,1,$1+$1,$4,$5,$6,$7,0*
20,1,$1+$1,$6,$7,$8,$9,0*
20,1,$1+$1,$8,$9,$2,$3,0*%
%AMFreePoly0*
4,1,18,-0.410000,0.593000,-0.403758,0.624380,-0.385983,0.650983,-0.359380,0.668758,-0.328000,0.675000,0.328000,0.675000,0.359380,0.668758,0.385983,0.650983,0.403758,0.624380,0.410000,0.593000,0.410000,-0.593000,0.403758,-0.624380,0.385983,-0.650983,0.359380,-0.668758,0.328000,-0.675000,0.000000,-0.675000,-0.410000,-0.265000,-0.410000,0.593000,-0.410000,0.593000,$1*%
G04 Aperture macros list end*
%ADD10RoundRect,0.082000X-0.328000X-0.593000X0.328000X-0.593000X0.328000X0.593000X-0.328000X0.593000X0*%
%ADD11FreePoly0,0.000000*%
%ADD12RoundRect,0.150000X0.150000X-0.512500X0.150000X0.512500X-0.150000X0.512500X-0.150000X-0.512500X0*%
%ADD13RoundRect,0.150000X0.587500X0.150000X-0.587500X0.150000X-0.587500X-0.150000X0.587500X-0.150000X0*%
%ADD14R,1.778000X0.419100*%
%ADD15RoundRect,0.082000X-0.593000X0.328000X-0.593000X-0.328000X0.593000X-0.328000X0.593000X0.328000X0*%
%ADD16FreePoly0,270.000000*%
%ADD17RoundRect,0.082000X0.593000X-0.328000X0.593000X0.328000X-0.593000X0.328000X-0.593000X-0.328000X0*%
%ADD18FreePoly0,90.000000*%
%ADD19R,1.800000X1.100000*%
%ADD20RoundRect,0.075000X0.521491X-0.415425X-0.415425X0.521491X-0.521491X0.415425X0.415425X-0.521491X0*%
%ADD21RoundRect,0.075000X0.521491X0.415425X0.415425X0.521491X-0.521491X-0.415425X-0.415425X-0.521491X0*%
%ADD22RoundRect,0.140000X0.140000X0.170000X-0.140000X0.170000X-0.140000X-0.170000X0.140000X-0.170000X0*%
%ADD23RoundRect,0.135000X0.185000X-0.135000X0.185000X0.135000X-0.185000X0.135000X-0.185000X-0.135000X0*%
%ADD24RoundRect,0.140000X-0.170000X0.140000X-0.170000X-0.140000X0.170000X-0.140000X0.170000X0.140000X0*%
%ADD25R,0.700000X1.000000*%
%ADD26R,0.700000X0.600000*%
%ADD27RoundRect,0.140000X-0.140000X-0.170000X0.140000X-0.170000X0.140000X0.170000X-0.140000X0.170000X0*%
%ADD28R,0.600000X1.450000*%
%ADD29R,0.300000X1.450000*%
%ADD30RoundRect,0.140000X0.170000X-0.140000X0.170000X0.140000X-0.170000X0.140000X-0.170000X-0.140000X0*%
%ADD31RoundRect,0.250000X-0.275000X-0.700000X0.275000X-0.700000X0.275000X0.700000X-0.275000X0.700000X0*%
%ADD32RoundRect,0.225000X-0.225000X-0.250000X0.225000X-0.250000X0.225000X0.250000X-0.225000X0.250000X0*%
%ADD33RoundRect,0.150000X0.150000X-0.587500X0.150000X0.587500X-0.150000X0.587500X-0.150000X-0.587500X0*%
%ADD34RoundRect,0.250000X-0.375000X-0.625000X0.375000X-0.625000X0.375000X0.625000X-0.375000X0.625000X0*%
G04 APERTURE END LIST*
D10*
X152212750Y-101395000D03*
X150712750Y-101395000D03*
X152212750Y-106845000D03*
D11*
X150712749Y-106844999D03*
D12*
X260982500Y-47492500D03*
X260032500Y-47492500D03*
X259082500Y-47492500D03*
X259082500Y-45217500D03*
X260982500Y-45217500D03*
D13*
X258906250Y-68900000D03*
X258906250Y-70800000D03*
X257031250Y-69850000D03*
D14*
X210569635Y-71563904D03*
X210569635Y-72214144D03*
X210569635Y-72864384D03*
X210569635Y-73514624D03*
X210569635Y-74159784D03*
X210569635Y-74810024D03*
X210569635Y-75460264D03*
X210569635Y-76110504D03*
X204620955Y-76110504D03*
X204620955Y-75460264D03*
X204620955Y-74810024D03*
X204620955Y-74159784D03*
X204620955Y-73514624D03*
X204620955Y-72864384D03*
X204620955Y-72214144D03*
X204620955Y-71563904D03*
D15*
X41618750Y-104279000D03*
X41618750Y-102779000D03*
X36168750Y-104279000D03*
D16*
X36168749Y-102778999D03*
D13*
X201756250Y-97475000D03*
X201756250Y-99375000D03*
X199881250Y-98425000D03*
D17*
X109987500Y-45629000D03*
X109987500Y-47129000D03*
X115437500Y-45629000D03*
D18*
X115437499Y-47128999D03*
D13*
X39831250Y-97475000D03*
X39831250Y-99375000D03*
X37956250Y-98425000D03*
D17*
X38550000Y-83729000D03*
X38550000Y-85229000D03*
X44000000Y-83729000D03*
D18*
X43999999Y-85228999D03*
D13*
X151750000Y-40325000D03*
X151750000Y-42225000D03*
X149875000Y-41275000D03*
D17*
X214762500Y-83729000D03*
X214762500Y-85229000D03*
X220212500Y-83729000D03*
D18*
X220212499Y-85228999D03*
D15*
X263075000Y-104279000D03*
X263075000Y-102779000D03*
X257625000Y-104279000D03*
D16*
X257624999Y-102778999D03*
D13*
X85075000Y-78425000D03*
X85075000Y-80325000D03*
X83200000Y-79375000D03*
X120793750Y-97475000D03*
X120793750Y-99375000D03*
X118918750Y-98425000D03*
D19*
X265831249Y-50537499D03*
X259631249Y-50537499D03*
X265831249Y-54237499D03*
X259631249Y-54237499D03*
D20*
X247775376Y-54973788D03*
X247421822Y-55327342D03*
X247068269Y-55680895D03*
X246714715Y-56034449D03*
X246361162Y-56388002D03*
X246007609Y-56741555D03*
X245654055Y-57095109D03*
X245300502Y-57448662D03*
X244946949Y-57802215D03*
X244593395Y-58155769D03*
X244239842Y-58509322D03*
X243886288Y-58862876D03*
D21*
X241888712Y-58862876D03*
X241535158Y-58509322D03*
X241181605Y-58155769D03*
X240828051Y-57802215D03*
X240474498Y-57448662D03*
X240120945Y-57095109D03*
X239767391Y-56741555D03*
X239413838Y-56388002D03*
X239060285Y-56034449D03*
X238706731Y-55680895D03*
X238353178Y-55327342D03*
X237999624Y-54973788D03*
D20*
X237999624Y-52976212D03*
X238353178Y-52622658D03*
X238706731Y-52269105D03*
X239060285Y-51915551D03*
X239413838Y-51561998D03*
X239767391Y-51208445D03*
X240120945Y-50854891D03*
X240474498Y-50501338D03*
X240828051Y-50147785D03*
X241181605Y-49794231D03*
X241535158Y-49440678D03*
X241888712Y-49087124D03*
D21*
X243886288Y-49087124D03*
X244239842Y-49440678D03*
X244593395Y-49794231D03*
X244946949Y-50147785D03*
X245300502Y-50501338D03*
X245654055Y-50854891D03*
X246007609Y-51208445D03*
X246361162Y-51561998D03*
X246714715Y-51915551D03*
X247068269Y-52269105D03*
X247421822Y-52622658D03*
X247775376Y-52976212D03*
D17*
X186187500Y-45629000D03*
X186187500Y-47129000D03*
X191637500Y-45629000D03*
D18*
X191637499Y-47128999D03*
D22*
X245774634Y-42346718D03*
X244814634Y-42346718D03*
D15*
X84481250Y-104279000D03*
X84481250Y-102779000D03*
X79031250Y-104279000D03*
D16*
X79031249Y-102778999D03*
D23*
X238918750Y-40991250D03*
X238918750Y-39971250D03*
D24*
X246345055Y-60165152D03*
X246345055Y-61125152D03*
D15*
X63050000Y-66179000D03*
X63050000Y-64679000D03*
X57600000Y-66179000D03*
D16*
X57599999Y-64678999D03*
D15*
X101150000Y-66179000D03*
X101150000Y-64679000D03*
X95700000Y-66179000D03*
D16*
X95699999Y-64678999D03*
D13*
X199375000Y-78425000D03*
X199375000Y-80325000D03*
X197500000Y-79375000D03*
X137462500Y-59375000D03*
X137462500Y-61275000D03*
X135587500Y-60325000D03*
D25*
X239506249Y-44406249D03*
D26*
X239506249Y-42706249D03*
X241506249Y-42706249D03*
X241506249Y-44606249D03*
D13*
X227950000Y-40325000D03*
X227950000Y-42225000D03*
X226075000Y-41275000D03*
X256525000Y-59375000D03*
X256525000Y-61275000D03*
X254650000Y-60325000D03*
X156512500Y-59375000D03*
X156512500Y-61275000D03*
X154637500Y-60325000D03*
D27*
X244819051Y-43317532D03*
X245779051Y-43317532D03*
D17*
X71887500Y-45629000D03*
X71887500Y-47129000D03*
X77337500Y-45629000D03*
D18*
X77337499Y-47128999D03*
D15*
X120200000Y-66179000D03*
X120200000Y-64679000D03*
X114750000Y-66179000D03*
D16*
X114749999Y-64678999D03*
D15*
X215450000Y-66179000D03*
X215450000Y-64679000D03*
X210000000Y-66179000D03*
D16*
X209999999Y-64678999D03*
D17*
X255243750Y-74204000D03*
X255243750Y-75704000D03*
X260693750Y-74204000D03*
D18*
X260693749Y-75703999D03*
D13*
X142225000Y-78425000D03*
X142225000Y-80325000D03*
X140350000Y-79375000D03*
D17*
X33787500Y-45629000D03*
X33787500Y-47129000D03*
X39237500Y-45629000D03*
D18*
X39237499Y-47128999D03*
D13*
X132700000Y-40325000D03*
X132700000Y-42225000D03*
X130825000Y-41275000D03*
D24*
X245268750Y-60158750D03*
X245268750Y-61118750D03*
D13*
X154131250Y-97475000D03*
X154131250Y-99375000D03*
X152256250Y-98425000D03*
D23*
X241553411Y-40991249D03*
X241553411Y-39971249D03*
D15*
X41618750Y-66179000D03*
X41618750Y-64679000D03*
X36168750Y-66179000D03*
D16*
X36168749Y-64678999D03*
D17*
X195712500Y-83729000D03*
X195712500Y-85229000D03*
X201162500Y-83729000D03*
D18*
X201162499Y-85228999D03*
D13*
X123175000Y-78425000D03*
X123175000Y-80325000D03*
X121300000Y-79375000D03*
D17*
X224287500Y-45629000D03*
X224287500Y-47129000D03*
X229737500Y-45629000D03*
D18*
X229737499Y-47128999D03*
D13*
X82693750Y-97475000D03*
X82693750Y-99375000D03*
X80818750Y-98425000D03*
D22*
X236541368Y-54558187D03*
X235581368Y-54558187D03*
D10*
X199825749Y-101338000D03*
X198325749Y-101338000D03*
X199825749Y-106788000D03*
D11*
X198325748Y-106787999D03*
D13*
X180325000Y-78425000D03*
X180325000Y-80325000D03*
X178450000Y-79375000D03*
X66025000Y-78425000D03*
X66025000Y-80325000D03*
X64150000Y-79375000D03*
D14*
X55361839Y-71545449D03*
X55361839Y-72195689D03*
X55361839Y-72845929D03*
X55361839Y-73496169D03*
X55361839Y-74141329D03*
X55361839Y-74791569D03*
X55361839Y-75441809D03*
X55361839Y-76092049D03*
X49413159Y-76092049D03*
X49413159Y-75441809D03*
X49413159Y-74791569D03*
X49413159Y-74141329D03*
X49413159Y-73496169D03*
X49413159Y-72845929D03*
X49413159Y-72195689D03*
X49413159Y-71545449D03*
D13*
X37450000Y-40325000D03*
X37450000Y-42225000D03*
X35575000Y-41275000D03*
X237475000Y-78425000D03*
X237475000Y-80325000D03*
X235600000Y-79375000D03*
X261287500Y-97475000D03*
X261287500Y-99375000D03*
X259412500Y-98425000D03*
X61262500Y-97475000D03*
X61262500Y-99375000D03*
X59387500Y-98425000D03*
X113650000Y-40325000D03*
X113650000Y-42225000D03*
X111775000Y-41275000D03*
X104125000Y-78425000D03*
X104125000Y-80325000D03*
X102250000Y-79375000D03*
X56500000Y-40325000D03*
X56500000Y-42225000D03*
X54625000Y-41275000D03*
D28*
X236843499Y-38176249D03*
X237643499Y-38176249D03*
D29*
X238843499Y-38176249D03*
X239843499Y-38176249D03*
X240343499Y-38176249D03*
X241343499Y-38176249D03*
D28*
X242543499Y-38176249D03*
X243343499Y-38176249D03*
X243343499Y-38176249D03*
X242543499Y-38176249D03*
D29*
X241843499Y-38176249D03*
X240843499Y-38176249D03*
X239343499Y-38176249D03*
X238343499Y-38176249D03*
D28*
X237643499Y-38176249D03*
X236843499Y-38176249D03*
D13*
X170800000Y-40325000D03*
X170800000Y-42225000D03*
X168925000Y-41275000D03*
X223187500Y-97475000D03*
X223187500Y-99375000D03*
X221312500Y-98425000D03*
D15*
X224975000Y-104279000D03*
X224975000Y-102779000D03*
X219525000Y-104279000D03*
D16*
X219524999Y-102778999D03*
D14*
X174850885Y-71543434D03*
X174850885Y-72193674D03*
X174850885Y-72843914D03*
X174850885Y-73494154D03*
X174850885Y-74139314D03*
X174850885Y-74789554D03*
X174850885Y-75439794D03*
X174850885Y-76090034D03*
X168902205Y-76090034D03*
X168902205Y-75439794D03*
X168902205Y-74789554D03*
X168902205Y-74139314D03*
X168902205Y-73494154D03*
X168902205Y-72843914D03*
X168902205Y-72193674D03*
X168902205Y-71543434D03*
D17*
X250481250Y-45629000D03*
X250481250Y-47129000D03*
X255931250Y-45629000D03*
D18*
X255931249Y-47128999D03*
D15*
X82100000Y-66179000D03*
X82100000Y-64679000D03*
X76650000Y-66179000D03*
D16*
X76649999Y-64678999D03*
D13*
X61262500Y-59375000D03*
X61262500Y-61275000D03*
X59387500Y-60325000D03*
X80312500Y-59375000D03*
X80312500Y-61275000D03*
X78437500Y-60325000D03*
D30*
X242093750Y-46807472D03*
X242093750Y-45847472D03*
D15*
X234500000Y-66179000D03*
X234500000Y-64679000D03*
X229050000Y-66179000D03*
D16*
X229049999Y-64678999D03*
D13*
X118412500Y-59375000D03*
X118412500Y-61275000D03*
X116537500Y-60325000D03*
D27*
X249071250Y-51593750D03*
X250031250Y-51593750D03*
D13*
X175562500Y-59375000D03*
X175562500Y-61275000D03*
X173687500Y-60325000D03*
D24*
X243424261Y-45847472D03*
X243424261Y-46807472D03*
D17*
X205237500Y-45629000D03*
X205237500Y-47129000D03*
X210687500Y-45629000D03*
D18*
X210687499Y-47128999D03*
D23*
X257250000Y-54237500D03*
X257250000Y-53217500D03*
D17*
X129037500Y-45629000D03*
X129037500Y-47129000D03*
X134487500Y-45629000D03*
D18*
X134487499Y-47128999D03*
D15*
X158300000Y-66179000D03*
X158300000Y-64679000D03*
X152850000Y-66179000D03*
D16*
X152849999Y-64678999D03*
D17*
X100462500Y-83729000D03*
X100462500Y-85229000D03*
X105912500Y-83729000D03*
D18*
X105912499Y-85228999D03*
D17*
X233812500Y-83729000D03*
X233812500Y-85229000D03*
X239262500Y-83729000D03*
D18*
X239262499Y-85228999D03*
D17*
X90937500Y-45629000D03*
X90937500Y-47129000D03*
X96387500Y-45629000D03*
D18*
X96387499Y-47128999D03*
D14*
X249463385Y-71563904D03*
X249463385Y-72214144D03*
X249463385Y-72864384D03*
X249463385Y-73514624D03*
X249463385Y-74159784D03*
X249463385Y-74810024D03*
X249463385Y-75460264D03*
X249463385Y-76110504D03*
X243514705Y-76110504D03*
X243514705Y-75460264D03*
X243514705Y-74810024D03*
X243514705Y-74159784D03*
X243514705Y-73514624D03*
X243514705Y-72864384D03*
X243514705Y-72214144D03*
X243514705Y-71563904D03*
D31*
X234168750Y-40640000D03*
X237318750Y-40640000D03*
D15*
X244025000Y-104279000D03*
X244025000Y-102779000D03*
X238575000Y-104279000D03*
D16*
X238574999Y-102778999D03*
D17*
X81412500Y-83729000D03*
X81412500Y-85229000D03*
X86862500Y-83729000D03*
D18*
X86862499Y-85228999D03*
D15*
X260693750Y-85229000D03*
X260693750Y-83729000D03*
X255243750Y-85229000D03*
D16*
X255243749Y-83728999D03*
D17*
X157612500Y-83729000D03*
X157612500Y-85229000D03*
X163062500Y-83729000D03*
D18*
X163062499Y-85228999D03*
D27*
X249071250Y-53975000D03*
X250031250Y-53975000D03*
D17*
X138562500Y-83729000D03*
X138562500Y-85229000D03*
X144012500Y-83729000D03*
D18*
X144012499Y-85228999D03*
D13*
X39831250Y-59375000D03*
X39831250Y-61275000D03*
X37956250Y-60325000D03*
X94600000Y-40325000D03*
X94600000Y-42225000D03*
X92725000Y-41275000D03*
X189850000Y-40325000D03*
X189850000Y-42225000D03*
X187975000Y-41275000D03*
X242237500Y-97475000D03*
X242237500Y-99375000D03*
X240362500Y-98425000D03*
D17*
X167137500Y-45629000D03*
X167137500Y-47129000D03*
X172587500Y-45629000D03*
D18*
X172587499Y-47128999D03*
D13*
X232712500Y-59375000D03*
X232712500Y-61275000D03*
X230837500Y-60325000D03*
X99362500Y-59375000D03*
X99362500Y-61275000D03*
X97487500Y-60325000D03*
X168418750Y-97475000D03*
X168418750Y-99375000D03*
X166543750Y-98425000D03*
D15*
X139250000Y-66179000D03*
X139250000Y-64679000D03*
X133800000Y-66179000D03*
D16*
X133799999Y-64678999D03*
D13*
X218425000Y-78425000D03*
X218425000Y-80325000D03*
X216550000Y-79375000D03*
X254143750Y-40325000D03*
X254143750Y-42225000D03*
X252268750Y-41275000D03*
D17*
X148087500Y-45629000D03*
X148087500Y-47129000D03*
X153537500Y-45629000D03*
D18*
X153537499Y-47128999D03*
D13*
X213662500Y-59375000D03*
X213662500Y-61275000D03*
X211787500Y-60325000D03*
D15*
X258312500Y-66179000D03*
X258312500Y-64679000D03*
X252862500Y-66179000D03*
D16*
X252862499Y-64678999D03*
D15*
X177350000Y-66179000D03*
X177350000Y-64679000D03*
X171900000Y-66179000D03*
D16*
X171899999Y-64678999D03*
D32*
X251634461Y-52925494D03*
X253184461Y-52925494D03*
D17*
X119512500Y-83729000D03*
X119512500Y-85229000D03*
X124962500Y-83729000D03*
D18*
X124962499Y-85228999D03*
D13*
X194612500Y-59375000D03*
X194612500Y-61275000D03*
X192737500Y-60325000D03*
X161275000Y-78425000D03*
X161275000Y-80325000D03*
X159400000Y-79375000D03*
X42212500Y-78425000D03*
X42212500Y-80325000D03*
X40337500Y-79375000D03*
D14*
X94682135Y-71545449D03*
X94682135Y-72195689D03*
X94682135Y-72845929D03*
X94682135Y-73496169D03*
X94682135Y-74141329D03*
X94682135Y-74791569D03*
X94682135Y-75441809D03*
X94682135Y-76092049D03*
X88733455Y-76092049D03*
X88733455Y-75441809D03*
X88733455Y-74791569D03*
X88733455Y-74141329D03*
X88733455Y-73496169D03*
X88733455Y-72845929D03*
X88733455Y-72195689D03*
X88733455Y-71545449D03*
D13*
X258906250Y-78425000D03*
X258906250Y-80325000D03*
X257031250Y-79375000D03*
D14*
X131988385Y-71543434D03*
X131988385Y-72193674D03*
X131988385Y-72843914D03*
X131988385Y-73494154D03*
X131988385Y-74139314D03*
X131988385Y-74789554D03*
X131988385Y-75439794D03*
X131988385Y-76090034D03*
X126039705Y-76090034D03*
X126039705Y-75439794D03*
X126039705Y-74789554D03*
X126039705Y-74139314D03*
X126039705Y-73494154D03*
X126039705Y-72843914D03*
X126039705Y-72193674D03*
X126039705Y-71543434D03*
D27*
X260060500Y-43561000D03*
X261020500Y-43561000D03*
D13*
X208900000Y-40325000D03*
X208900000Y-42225000D03*
X207025000Y-41275000D03*
D33*
X246755511Y-46807472D03*
X244855511Y-46807472D03*
X245805511Y-44932472D03*
D15*
X170206250Y-104279000D03*
X170206250Y-102779000D03*
X164756250Y-104279000D03*
D16*
X164756249Y-102778999D03*
D34*
X243075000Y-40640000D03*
X245875000Y-40640000D03*
D17*
X52837500Y-45629000D03*
X52837500Y-47129000D03*
X58287500Y-45629000D03*
D18*
X58287499Y-47128999D03*
D13*
X75550000Y-40325000D03*
X75550000Y-42225000D03*
X73675000Y-41275000D03*
D17*
X176662500Y-83729000D03*
X176662500Y-85229000D03*
X182112500Y-83729000D03*
D18*
X182112499Y-85228999D03*
D17*
X62362500Y-83729000D03*
X62362500Y-85229000D03*
X67812500Y-83729000D03*
D18*
X67812499Y-85228999D03*
D15*
X63050000Y-104279000D03*
X63050000Y-102779000D03*
X57600000Y-104279000D03*
D16*
X57599999Y-102778999D03*
D15*
X196400000Y-66179000D03*
X196400000Y-64679000D03*
X190950000Y-66179000D03*
D16*
X190949999Y-64678999D03*
D15*
X122581250Y-104279000D03*
X122581250Y-102779000D03*
X117131250Y-104279000D03*
D16*
X117131249Y-102778999D03*
M02*
