G04 #@! TF.GenerationSoftware,KiCad,Pcbnew,8.0.8*
G04 #@! TF.CreationDate,2025-02-11T15:39:55+01:00*
G04 #@! TF.ProjectId,vootington V4N STM32G0B1CBT6,766f6f74-696e-4677-946f-6e2056344e20,rev?*
G04 #@! TF.SameCoordinates,Original*
G04 #@! TF.FileFunction,Soldermask,Top*
G04 #@! TF.FilePolarity,Negative*
%FSLAX46Y46*%
G04 Gerber Fmt 4.6, Leading zero omitted, Abs format (unit mm)*
G04 Created by KiCad (PCBNEW 8.0.8) date 2025-02-11 15:39:55*
%MOMM*%
%LPD*%
G01*
G04 APERTURE LIST*
%ADD10C,2.200000*%
%ADD11C,1.700000*%
%ADD12C,3.048000*%
%ADD13C,3.987800*%
%ADD14R,1.700000X1.700000*%
%ADD15O,1.700000X1.700000*%
%ADD16C,0.650000*%
%ADD17O,1.000000X1.600000*%
%ADD18O,1.000000X2.100000*%
G04 APERTURE END LIST*
D10*
X142875000Y-98425000D03*
X106744954Y-69850000D03*
D11*
X83820000Y-79375000D03*
X93980000Y-79375000D03*
X150495000Y-60325000D03*
X160655000Y-60325000D03*
X64770000Y-79375000D03*
X74930000Y-79375000D03*
X76676250Y-98425000D03*
X86836250Y-98425000D03*
X250507500Y-60325000D03*
X260667500Y-60325000D03*
X88582500Y-41275000D03*
X98742500Y-41275000D03*
X55245000Y-60325000D03*
X65405000Y-60325000D03*
D10*
X240506250Y-41275000D03*
D11*
X207645000Y-60325000D03*
X217805000Y-60325000D03*
X202882500Y-41275000D03*
X213042500Y-41275000D03*
X55245000Y-98425000D03*
X65405000Y-98425000D03*
D10*
X131762500Y-22225000D03*
D11*
X179070000Y-79375000D03*
X189230000Y-79375000D03*
X183832500Y-41275000D03*
X193992500Y-41275000D03*
X169545000Y-60325000D03*
X179705000Y-60325000D03*
D10*
X94456250Y-98425000D03*
D11*
X102870000Y-79375000D03*
X113030000Y-79375000D03*
X221932500Y-41275000D03*
X232092500Y-41275000D03*
X112395000Y-60325000D03*
X122555000Y-60325000D03*
D10*
X250825000Y-98425000D03*
D11*
X79057500Y-22225000D03*
X89217500Y-22225000D03*
X38576250Y-79375000D03*
X48736250Y-79375000D03*
D10*
X223837500Y-69850000D03*
D11*
X140970000Y-79375000D03*
X151130000Y-79375000D03*
X126682500Y-41275000D03*
X136842500Y-41275000D03*
X98107500Y-22225000D03*
X108267500Y-22225000D03*
X188595000Y-60325000D03*
X198755000Y-60325000D03*
X50482500Y-41275000D03*
X60642500Y-41275000D03*
D10*
X211137500Y-98425000D03*
D11*
X40957500Y-22225000D03*
X51117500Y-22225000D03*
D12*
X131762500Y-105410000D03*
D13*
X131762500Y-90170000D03*
D12*
X107950000Y-105410000D03*
D13*
X107950000Y-90170000D03*
D11*
X198120000Y-79375000D03*
X208280000Y-79375000D03*
X69532500Y-41275000D03*
X79692500Y-41275000D03*
D10*
X84137500Y-41275000D03*
X69850000Y-60325000D03*
D11*
X107632500Y-41275000D03*
X117792500Y-41275000D03*
X248126250Y-41275000D03*
X258286250Y-41275000D03*
X217170000Y-79375000D03*
X227330000Y-79375000D03*
X145732500Y-41275000D03*
X155892500Y-41275000D03*
X117157500Y-22225000D03*
X127317500Y-22225000D03*
D10*
X141287500Y-41275000D03*
X266700000Y-69850000D03*
X184150000Y-60325000D03*
D11*
X121920000Y-79375000D03*
X132080000Y-79375000D03*
X236220000Y-98425000D03*
X246380000Y-98425000D03*
D12*
X203193650Y-105410000D03*
D13*
X203193650Y-90170000D03*
D12*
X103181150Y-105410000D03*
D13*
X103181150Y-90170000D03*
D11*
X136207500Y-22225000D03*
X146367500Y-22225000D03*
X236220000Y-79375000D03*
X246380000Y-79375000D03*
X217170000Y-98425000D03*
X227330000Y-98425000D03*
X162401250Y-98425000D03*
X172561250Y-98425000D03*
X226695000Y-60325000D03*
X236855000Y-60325000D03*
X114776250Y-98425000D03*
X124936250Y-98425000D03*
X93345000Y-60325000D03*
X103505000Y-60325000D03*
X195738750Y-98425000D03*
X205898750Y-98425000D03*
X74295000Y-60325000D03*
X84455000Y-60325000D03*
X164782500Y-41275000D03*
X174942500Y-41275000D03*
X33813750Y-98425000D03*
X43973750Y-98425000D03*
D10*
X49212500Y-98425000D03*
D11*
X131445000Y-60325000D03*
X141605000Y-60325000D03*
X33813750Y-60325000D03*
X43973750Y-60325000D03*
X148107400Y-98425000D03*
X158267400Y-98425000D03*
X255270000Y-79375000D03*
X265430000Y-79375000D03*
D10*
X36512500Y-22225000D03*
D11*
X31432500Y-41275000D03*
X41592500Y-41275000D03*
X160020000Y-79375000D03*
X170180000Y-79375000D03*
X255270000Y-98425000D03*
X265430000Y-98425000D03*
X60007500Y-22225000D03*
X70167500Y-22225000D03*
D10*
X155575000Y-79375000D03*
D12*
X179387500Y-105410000D03*
D13*
X179387500Y-90170000D03*
D12*
X155575000Y-105410000D03*
D13*
X155575000Y-90170000D03*
D14*
X41375000Y-56356250D03*
D15*
X41375000Y-53816250D03*
X41375000Y-51276250D03*
X41375000Y-48736250D03*
D16*
X52609000Y-16890625D03*
X58389000Y-16890625D03*
D17*
X51179000Y-13240625D03*
D18*
X51179000Y-17420625D03*
D17*
X59819000Y-13240625D03*
D18*
X59819000Y-17420625D03*
M02*
