G04 #@! TF.GenerationSoftware,KiCad,Pcbnew,(7.0.0)*
G04 #@! TF.CreationDate,2023-09-24T22:26:46+02:00*
G04 #@! TF.ProjectId,vootington,766f6f74-696e-4677-946f-6e2e6b696361,rev?*
G04 #@! TF.SameCoordinates,Original*
G04 #@! TF.FileFunction,Legend,Top*
G04 #@! TF.FilePolarity,Positive*
%FSLAX46Y46*%
G04 Gerber Fmt 4.6, Leading zero omitted, Abs format (unit mm)*
G04 Created by KiCad (PCBNEW (7.0.0)) date 2023-09-24 22:26:46*
%MOMM*%
%LPD*%
G01*
G04 APERTURE LIST*
%ADD10C,0.120000*%
%ADD11C,0.125000*%
%ADD12C,0.300000*%
G04 APERTURE END LIST*
D10*
X241300000Y-50800000D02*
X269684500Y-50800000D01*
X93662500Y-88900000D02*
X212788500Y-88900000D01*
X241300000Y-69850000D02*
X246062500Y-69850000D01*
X246062500Y-69850000D02*
X246062500Y-88900000D01*
X212788500Y-107696000D02*
X93662500Y-107696000D01*
X269684500Y-88900000D02*
X269684500Y-50800000D01*
X246062500Y-88900000D02*
X269684500Y-88900000D01*
X93662500Y-88900000D02*
X93662500Y-107696000D01*
X241300000Y-50800000D02*
X241300000Y-69850000D01*
X212788500Y-107696000D02*
X212788500Y-88900000D01*
D11*
X100246796Y-97244840D02*
X100246796Y-96744840D01*
X100246796Y-96982935D02*
X100532510Y-96982935D01*
X100532510Y-97244840D02*
X100532510Y-96744840D01*
X100984892Y-96744840D02*
X100889654Y-96744840D01*
X100889654Y-96744840D02*
X100842035Y-96768650D01*
X100842035Y-96768650D02*
X100818225Y-96792459D01*
X100818225Y-96792459D02*
X100770606Y-96863888D01*
X100770606Y-96863888D02*
X100746797Y-96959126D01*
X100746797Y-96959126D02*
X100746797Y-97149602D01*
X100746797Y-97149602D02*
X100770606Y-97197221D01*
X100770606Y-97197221D02*
X100794416Y-97221030D01*
X100794416Y-97221030D02*
X100842035Y-97244840D01*
X100842035Y-97244840D02*
X100937273Y-97244840D01*
X100937273Y-97244840D02*
X100984892Y-97221030D01*
X100984892Y-97221030D02*
X101008701Y-97197221D01*
X101008701Y-97197221D02*
X101032511Y-97149602D01*
X101032511Y-97149602D02*
X101032511Y-97030554D01*
X101032511Y-97030554D02*
X101008701Y-96982935D01*
X101008701Y-96982935D02*
X100984892Y-96959126D01*
X100984892Y-96959126D02*
X100937273Y-96935316D01*
X100937273Y-96935316D02*
X100842035Y-96935316D01*
X100842035Y-96935316D02*
X100794416Y-96959126D01*
X100794416Y-96959126D02*
X100770606Y-96982935D01*
X100770606Y-96982935D02*
X100746797Y-97030554D01*
X159539881Y-79558690D02*
X159539881Y-79058690D01*
X159825595Y-79558690D02*
X159611310Y-79272976D01*
X159825595Y-79058690D02*
X159539881Y-79344404D01*
X159920834Y-79606309D02*
X160301786Y-79606309D01*
X160373214Y-79058690D02*
X160682738Y-79058690D01*
X160682738Y-79058690D02*
X160516071Y-79249166D01*
X160516071Y-79249166D02*
X160587500Y-79249166D01*
X160587500Y-79249166D02*
X160635119Y-79272976D01*
X160635119Y-79272976D02*
X160658928Y-79296785D01*
X160658928Y-79296785D02*
X160682738Y-79344404D01*
X160682738Y-79344404D02*
X160682738Y-79463452D01*
X160682738Y-79463452D02*
X160658928Y-79511071D01*
X160658928Y-79511071D02*
X160635119Y-79534880D01*
X160635119Y-79534880D02*
X160587500Y-79558690D01*
X160587500Y-79558690D02*
X160444643Y-79558690D01*
X160444643Y-79558690D02*
X160397024Y-79534880D01*
X160397024Y-79534880D02*
X160373214Y-79511071D01*
X161158928Y-79558690D02*
X160873214Y-79558690D01*
X161016071Y-79558690D02*
X161016071Y-79058690D01*
X161016071Y-79058690D02*
X160968452Y-79130119D01*
X160968452Y-79130119D02*
X160920833Y-79177738D01*
X160920833Y-79177738D02*
X160873214Y-79201547D01*
X216689881Y-79558690D02*
X216689881Y-79058690D01*
X216975595Y-79558690D02*
X216761310Y-79272976D01*
X216975595Y-79058690D02*
X216689881Y-79344404D01*
X217070834Y-79606309D02*
X217451786Y-79606309D01*
X217523214Y-79058690D02*
X217832738Y-79058690D01*
X217832738Y-79058690D02*
X217666071Y-79249166D01*
X217666071Y-79249166D02*
X217737500Y-79249166D01*
X217737500Y-79249166D02*
X217785119Y-79272976D01*
X217785119Y-79272976D02*
X217808928Y-79296785D01*
X217808928Y-79296785D02*
X217832738Y-79344404D01*
X217832738Y-79344404D02*
X217832738Y-79463452D01*
X217832738Y-79463452D02*
X217808928Y-79511071D01*
X217808928Y-79511071D02*
X217785119Y-79534880D01*
X217785119Y-79534880D02*
X217737500Y-79558690D01*
X217737500Y-79558690D02*
X217594643Y-79558690D01*
X217594643Y-79558690D02*
X217547024Y-79534880D01*
X217547024Y-79534880D02*
X217523214Y-79511071D01*
X218261309Y-79225357D02*
X218261309Y-79558690D01*
X218142261Y-79034880D02*
X218023214Y-79392023D01*
X218023214Y-79392023D02*
X218332737Y-79392023D01*
X40477381Y-79558690D02*
X40477381Y-79058690D01*
X40763095Y-79558690D02*
X40548810Y-79272976D01*
X40763095Y-79058690D02*
X40477381Y-79344404D01*
X40858334Y-79606309D02*
X41239286Y-79606309D01*
X41334524Y-79106309D02*
X41358333Y-79082500D01*
X41358333Y-79082500D02*
X41405952Y-79058690D01*
X41405952Y-79058690D02*
X41525000Y-79058690D01*
X41525000Y-79058690D02*
X41572619Y-79082500D01*
X41572619Y-79082500D02*
X41596428Y-79106309D01*
X41596428Y-79106309D02*
X41620238Y-79153928D01*
X41620238Y-79153928D02*
X41620238Y-79201547D01*
X41620238Y-79201547D02*
X41596428Y-79272976D01*
X41596428Y-79272976D02*
X41310714Y-79558690D01*
X41310714Y-79558690D02*
X41620238Y-79558690D01*
X42072618Y-79058690D02*
X41834523Y-79058690D01*
X41834523Y-79058690D02*
X41810714Y-79296785D01*
X41810714Y-79296785D02*
X41834523Y-79272976D01*
X41834523Y-79272976D02*
X41882142Y-79249166D01*
X41882142Y-79249166D02*
X42001190Y-79249166D01*
X42001190Y-79249166D02*
X42048809Y-79272976D01*
X42048809Y-79272976D02*
X42072618Y-79296785D01*
X42072618Y-79296785D02*
X42096428Y-79344404D01*
X42096428Y-79344404D02*
X42096428Y-79463452D01*
X42096428Y-79463452D02*
X42072618Y-79511071D01*
X42072618Y-79511071D02*
X42048809Y-79534880D01*
X42048809Y-79534880D02*
X42001190Y-79558690D01*
X42001190Y-79558690D02*
X41882142Y-79558690D01*
X41882142Y-79558690D02*
X41834523Y-79534880D01*
X41834523Y-79534880D02*
X41810714Y-79511071D01*
X197639881Y-79558690D02*
X197639881Y-79058690D01*
X197925595Y-79558690D02*
X197711310Y-79272976D01*
X197925595Y-79058690D02*
X197639881Y-79344404D01*
X198020834Y-79606309D02*
X198401786Y-79606309D01*
X198473214Y-79058690D02*
X198782738Y-79058690D01*
X198782738Y-79058690D02*
X198616071Y-79249166D01*
X198616071Y-79249166D02*
X198687500Y-79249166D01*
X198687500Y-79249166D02*
X198735119Y-79272976D01*
X198735119Y-79272976D02*
X198758928Y-79296785D01*
X198758928Y-79296785D02*
X198782738Y-79344404D01*
X198782738Y-79344404D02*
X198782738Y-79463452D01*
X198782738Y-79463452D02*
X198758928Y-79511071D01*
X198758928Y-79511071D02*
X198735119Y-79534880D01*
X198735119Y-79534880D02*
X198687500Y-79558690D01*
X198687500Y-79558690D02*
X198544643Y-79558690D01*
X198544643Y-79558690D02*
X198497024Y-79534880D01*
X198497024Y-79534880D02*
X198473214Y-79511071D01*
X198949404Y-79058690D02*
X199258928Y-79058690D01*
X199258928Y-79058690D02*
X199092261Y-79249166D01*
X199092261Y-79249166D02*
X199163690Y-79249166D01*
X199163690Y-79249166D02*
X199211309Y-79272976D01*
X199211309Y-79272976D02*
X199235118Y-79296785D01*
X199235118Y-79296785D02*
X199258928Y-79344404D01*
X199258928Y-79344404D02*
X199258928Y-79463452D01*
X199258928Y-79463452D02*
X199235118Y-79511071D01*
X199235118Y-79511071D02*
X199211309Y-79534880D01*
X199211309Y-79534880D02*
X199163690Y-79558690D01*
X199163690Y-79558690D02*
X199020833Y-79558690D01*
X199020833Y-79558690D02*
X198973214Y-79534880D01*
X198973214Y-79534880D02*
X198949404Y-79511071D01*
X259552381Y-98608690D02*
X259552381Y-98108690D01*
X259838095Y-98608690D02*
X259623810Y-98322976D01*
X259838095Y-98108690D02*
X259552381Y-98394404D01*
X259933334Y-98656309D02*
X260314286Y-98656309D01*
X260647619Y-98275357D02*
X260647619Y-98608690D01*
X260528571Y-98084880D02*
X260409524Y-98442023D01*
X260409524Y-98442023D02*
X260719047Y-98442023D01*
X261123809Y-98108690D02*
X261028571Y-98108690D01*
X261028571Y-98108690D02*
X260980952Y-98132500D01*
X260980952Y-98132500D02*
X260957142Y-98156309D01*
X260957142Y-98156309D02*
X260909523Y-98227738D01*
X260909523Y-98227738D02*
X260885714Y-98322976D01*
X260885714Y-98322976D02*
X260885714Y-98513452D01*
X260885714Y-98513452D02*
X260909523Y-98561071D01*
X260909523Y-98561071D02*
X260933333Y-98584880D01*
X260933333Y-98584880D02*
X260980952Y-98608690D01*
X260980952Y-98608690D02*
X261076190Y-98608690D01*
X261076190Y-98608690D02*
X261123809Y-98584880D01*
X261123809Y-98584880D02*
X261147618Y-98561071D01*
X261147618Y-98561071D02*
X261171428Y-98513452D01*
X261171428Y-98513452D02*
X261171428Y-98394404D01*
X261171428Y-98394404D02*
X261147618Y-98346785D01*
X261147618Y-98346785D02*
X261123809Y-98322976D01*
X261123809Y-98322976D02*
X261076190Y-98299166D01*
X261076190Y-98299166D02*
X260980952Y-98299166D01*
X260980952Y-98299166D02*
X260933333Y-98322976D01*
X260933333Y-98322976D02*
X260909523Y-98346785D01*
X260909523Y-98346785D02*
X260885714Y-98394404D01*
X140489881Y-79558690D02*
X140489881Y-79058690D01*
X140775595Y-79558690D02*
X140561310Y-79272976D01*
X140775595Y-79058690D02*
X140489881Y-79344404D01*
X140870834Y-79606309D02*
X141251786Y-79606309D01*
X141323214Y-79058690D02*
X141632738Y-79058690D01*
X141632738Y-79058690D02*
X141466071Y-79249166D01*
X141466071Y-79249166D02*
X141537500Y-79249166D01*
X141537500Y-79249166D02*
X141585119Y-79272976D01*
X141585119Y-79272976D02*
X141608928Y-79296785D01*
X141608928Y-79296785D02*
X141632738Y-79344404D01*
X141632738Y-79344404D02*
X141632738Y-79463452D01*
X141632738Y-79463452D02*
X141608928Y-79511071D01*
X141608928Y-79511071D02*
X141585119Y-79534880D01*
X141585119Y-79534880D02*
X141537500Y-79558690D01*
X141537500Y-79558690D02*
X141394643Y-79558690D01*
X141394643Y-79558690D02*
X141347024Y-79534880D01*
X141347024Y-79534880D02*
X141323214Y-79511071D01*
X141942261Y-79058690D02*
X141989880Y-79058690D01*
X141989880Y-79058690D02*
X142037499Y-79082500D01*
X142037499Y-79082500D02*
X142061309Y-79106309D01*
X142061309Y-79106309D02*
X142085118Y-79153928D01*
X142085118Y-79153928D02*
X142108928Y-79249166D01*
X142108928Y-79249166D02*
X142108928Y-79368214D01*
X142108928Y-79368214D02*
X142085118Y-79463452D01*
X142085118Y-79463452D02*
X142061309Y-79511071D01*
X142061309Y-79511071D02*
X142037499Y-79534880D01*
X142037499Y-79534880D02*
X141989880Y-79558690D01*
X141989880Y-79558690D02*
X141942261Y-79558690D01*
X141942261Y-79558690D02*
X141894642Y-79534880D01*
X141894642Y-79534880D02*
X141870833Y-79511071D01*
X141870833Y-79511071D02*
X141847023Y-79463452D01*
X141847023Y-79463452D02*
X141823214Y-79368214D01*
X141823214Y-79368214D02*
X141823214Y-79249166D01*
X141823214Y-79249166D02*
X141847023Y-79153928D01*
X141847023Y-79153928D02*
X141870833Y-79106309D01*
X141870833Y-79106309D02*
X141894642Y-79082500D01*
X141894642Y-79082500D02*
X141942261Y-79058690D01*
X207164881Y-41458690D02*
X207164881Y-40958690D01*
X207450595Y-41458690D02*
X207236310Y-41172976D01*
X207450595Y-40958690D02*
X207164881Y-41244404D01*
X207545834Y-41506309D02*
X207926786Y-41506309D01*
X208307738Y-41458690D02*
X208022024Y-41458690D01*
X208164881Y-41458690D02*
X208164881Y-40958690D01*
X208164881Y-40958690D02*
X208117262Y-41030119D01*
X208117262Y-41030119D02*
X208069643Y-41077738D01*
X208069643Y-41077738D02*
X208022024Y-41101547D01*
X208617261Y-40958690D02*
X208664880Y-40958690D01*
X208664880Y-40958690D02*
X208712499Y-40982500D01*
X208712499Y-40982500D02*
X208736309Y-41006309D01*
X208736309Y-41006309D02*
X208760118Y-41053928D01*
X208760118Y-41053928D02*
X208783928Y-41149166D01*
X208783928Y-41149166D02*
X208783928Y-41268214D01*
X208783928Y-41268214D02*
X208760118Y-41363452D01*
X208760118Y-41363452D02*
X208736309Y-41411071D01*
X208736309Y-41411071D02*
X208712499Y-41434880D01*
X208712499Y-41434880D02*
X208664880Y-41458690D01*
X208664880Y-41458690D02*
X208617261Y-41458690D01*
X208617261Y-41458690D02*
X208569642Y-41434880D01*
X208569642Y-41434880D02*
X208545833Y-41411071D01*
X208545833Y-41411071D02*
X208522023Y-41363452D01*
X208522023Y-41363452D02*
X208498214Y-41268214D01*
X208498214Y-41268214D02*
X208498214Y-41149166D01*
X208498214Y-41149166D02*
X208522023Y-41053928D01*
X208522023Y-41053928D02*
X208545833Y-41006309D01*
X208545833Y-41006309D02*
X208569642Y-40982500D01*
X208569642Y-40982500D02*
X208617261Y-40958690D01*
X173827381Y-60508690D02*
X173827381Y-60008690D01*
X174113095Y-60508690D02*
X173898810Y-60222976D01*
X174113095Y-60008690D02*
X173827381Y-60294404D01*
X174208334Y-60556309D02*
X174589286Y-60556309D01*
X174684524Y-60056309D02*
X174708333Y-60032500D01*
X174708333Y-60032500D02*
X174755952Y-60008690D01*
X174755952Y-60008690D02*
X174875000Y-60008690D01*
X174875000Y-60008690D02*
X174922619Y-60032500D01*
X174922619Y-60032500D02*
X174946428Y-60056309D01*
X174946428Y-60056309D02*
X174970238Y-60103928D01*
X174970238Y-60103928D02*
X174970238Y-60151547D01*
X174970238Y-60151547D02*
X174946428Y-60222976D01*
X174946428Y-60222976D02*
X174660714Y-60508690D01*
X174660714Y-60508690D02*
X174970238Y-60508690D01*
X175279761Y-60008690D02*
X175327380Y-60008690D01*
X175327380Y-60008690D02*
X175374999Y-60032500D01*
X175374999Y-60032500D02*
X175398809Y-60056309D01*
X175398809Y-60056309D02*
X175422618Y-60103928D01*
X175422618Y-60103928D02*
X175446428Y-60199166D01*
X175446428Y-60199166D02*
X175446428Y-60318214D01*
X175446428Y-60318214D02*
X175422618Y-60413452D01*
X175422618Y-60413452D02*
X175398809Y-60461071D01*
X175398809Y-60461071D02*
X175374999Y-60484880D01*
X175374999Y-60484880D02*
X175327380Y-60508690D01*
X175327380Y-60508690D02*
X175279761Y-60508690D01*
X175279761Y-60508690D02*
X175232142Y-60484880D01*
X175232142Y-60484880D02*
X175208333Y-60461071D01*
X175208333Y-60461071D02*
X175184523Y-60413452D01*
X175184523Y-60413452D02*
X175160714Y-60318214D01*
X175160714Y-60318214D02*
X175160714Y-60199166D01*
X175160714Y-60199166D02*
X175184523Y-60103928D01*
X175184523Y-60103928D02*
X175208333Y-60056309D01*
X175208333Y-60056309D02*
X175232142Y-60032500D01*
X175232142Y-60032500D02*
X175279761Y-60008690D01*
X102389881Y-79558690D02*
X102389881Y-79058690D01*
X102675595Y-79558690D02*
X102461310Y-79272976D01*
X102675595Y-79058690D02*
X102389881Y-79344404D01*
X102770834Y-79606309D02*
X103151786Y-79606309D01*
X103247024Y-79106309D02*
X103270833Y-79082500D01*
X103270833Y-79082500D02*
X103318452Y-79058690D01*
X103318452Y-79058690D02*
X103437500Y-79058690D01*
X103437500Y-79058690D02*
X103485119Y-79082500D01*
X103485119Y-79082500D02*
X103508928Y-79106309D01*
X103508928Y-79106309D02*
X103532738Y-79153928D01*
X103532738Y-79153928D02*
X103532738Y-79201547D01*
X103532738Y-79201547D02*
X103508928Y-79272976D01*
X103508928Y-79272976D02*
X103223214Y-79558690D01*
X103223214Y-79558690D02*
X103532738Y-79558690D01*
X103818452Y-79272976D02*
X103770833Y-79249166D01*
X103770833Y-79249166D02*
X103747023Y-79225357D01*
X103747023Y-79225357D02*
X103723214Y-79177738D01*
X103723214Y-79177738D02*
X103723214Y-79153928D01*
X103723214Y-79153928D02*
X103747023Y-79106309D01*
X103747023Y-79106309D02*
X103770833Y-79082500D01*
X103770833Y-79082500D02*
X103818452Y-79058690D01*
X103818452Y-79058690D02*
X103913690Y-79058690D01*
X103913690Y-79058690D02*
X103961309Y-79082500D01*
X103961309Y-79082500D02*
X103985118Y-79106309D01*
X103985118Y-79106309D02*
X104008928Y-79153928D01*
X104008928Y-79153928D02*
X104008928Y-79177738D01*
X104008928Y-79177738D02*
X103985118Y-79225357D01*
X103985118Y-79225357D02*
X103961309Y-79249166D01*
X103961309Y-79249166D02*
X103913690Y-79272976D01*
X103913690Y-79272976D02*
X103818452Y-79272976D01*
X103818452Y-79272976D02*
X103770833Y-79296785D01*
X103770833Y-79296785D02*
X103747023Y-79320595D01*
X103747023Y-79320595D02*
X103723214Y-79368214D01*
X103723214Y-79368214D02*
X103723214Y-79463452D01*
X103723214Y-79463452D02*
X103747023Y-79511071D01*
X103747023Y-79511071D02*
X103770833Y-79534880D01*
X103770833Y-79534880D02*
X103818452Y-79558690D01*
X103818452Y-79558690D02*
X103913690Y-79558690D01*
X103913690Y-79558690D02*
X103961309Y-79534880D01*
X103961309Y-79534880D02*
X103985118Y-79511071D01*
X103985118Y-79511071D02*
X104008928Y-79463452D01*
X104008928Y-79463452D02*
X104008928Y-79368214D01*
X104008928Y-79368214D02*
X103985118Y-79320595D01*
X103985118Y-79320595D02*
X103961309Y-79296785D01*
X103961309Y-79296785D02*
X103913690Y-79272976D01*
X97627381Y-60508690D02*
X97627381Y-60008690D01*
X97913095Y-60508690D02*
X97698810Y-60222976D01*
X97913095Y-60008690D02*
X97627381Y-60294404D01*
X98008334Y-60556309D02*
X98389286Y-60556309D01*
X98770238Y-60508690D02*
X98484524Y-60508690D01*
X98627381Y-60508690D02*
X98627381Y-60008690D01*
X98627381Y-60008690D02*
X98579762Y-60080119D01*
X98579762Y-60080119D02*
X98532143Y-60127738D01*
X98532143Y-60127738D02*
X98484524Y-60151547D01*
X99198809Y-60008690D02*
X99103571Y-60008690D01*
X99103571Y-60008690D02*
X99055952Y-60032500D01*
X99055952Y-60032500D02*
X99032142Y-60056309D01*
X99032142Y-60056309D02*
X98984523Y-60127738D01*
X98984523Y-60127738D02*
X98960714Y-60222976D01*
X98960714Y-60222976D02*
X98960714Y-60413452D01*
X98960714Y-60413452D02*
X98984523Y-60461071D01*
X98984523Y-60461071D02*
X99008333Y-60484880D01*
X99008333Y-60484880D02*
X99055952Y-60508690D01*
X99055952Y-60508690D02*
X99151190Y-60508690D01*
X99151190Y-60508690D02*
X99198809Y-60484880D01*
X99198809Y-60484880D02*
X99222618Y-60461071D01*
X99222618Y-60461071D02*
X99246428Y-60413452D01*
X99246428Y-60413452D02*
X99246428Y-60294404D01*
X99246428Y-60294404D02*
X99222618Y-60246785D01*
X99222618Y-60246785D02*
X99198809Y-60222976D01*
X99198809Y-60222976D02*
X99151190Y-60199166D01*
X99151190Y-60199166D02*
X99055952Y-60199166D01*
X99055952Y-60199166D02*
X99008333Y-60222976D01*
X99008333Y-60222976D02*
X98984523Y-60246785D01*
X98984523Y-60246785D02*
X98960714Y-60294404D01*
X240502381Y-98608690D02*
X240502381Y-98108690D01*
X240788095Y-98608690D02*
X240573810Y-98322976D01*
X240788095Y-98108690D02*
X240502381Y-98394404D01*
X240883334Y-98656309D02*
X241264286Y-98656309D01*
X241597619Y-98275357D02*
X241597619Y-98608690D01*
X241478571Y-98084880D02*
X241359524Y-98442023D01*
X241359524Y-98442023D02*
X241669047Y-98442023D01*
X242097618Y-98108690D02*
X241859523Y-98108690D01*
X241859523Y-98108690D02*
X241835714Y-98346785D01*
X241835714Y-98346785D02*
X241859523Y-98322976D01*
X241859523Y-98322976D02*
X241907142Y-98299166D01*
X241907142Y-98299166D02*
X242026190Y-98299166D01*
X242026190Y-98299166D02*
X242073809Y-98322976D01*
X242073809Y-98322976D02*
X242097618Y-98346785D01*
X242097618Y-98346785D02*
X242121428Y-98394404D01*
X242121428Y-98394404D02*
X242121428Y-98513452D01*
X242121428Y-98513452D02*
X242097618Y-98561071D01*
X242097618Y-98561071D02*
X242073809Y-98584880D01*
X242073809Y-98584880D02*
X242026190Y-98608690D01*
X242026190Y-98608690D02*
X241907142Y-98608690D01*
X241907142Y-98608690D02*
X241859523Y-98584880D01*
X241859523Y-98584880D02*
X241835714Y-98561071D01*
X80958631Y-98608690D02*
X80958631Y-98108690D01*
X81244345Y-98608690D02*
X81030060Y-98322976D01*
X81244345Y-98108690D02*
X80958631Y-98394404D01*
X81339584Y-98656309D02*
X81720536Y-98656309D01*
X81791964Y-98108690D02*
X82101488Y-98108690D01*
X82101488Y-98108690D02*
X81934821Y-98299166D01*
X81934821Y-98299166D02*
X82006250Y-98299166D01*
X82006250Y-98299166D02*
X82053869Y-98322976D01*
X82053869Y-98322976D02*
X82077678Y-98346785D01*
X82077678Y-98346785D02*
X82101488Y-98394404D01*
X82101488Y-98394404D02*
X82101488Y-98513452D01*
X82101488Y-98513452D02*
X82077678Y-98561071D01*
X82077678Y-98561071D02*
X82053869Y-98584880D01*
X82053869Y-98584880D02*
X82006250Y-98608690D01*
X82006250Y-98608690D02*
X81863393Y-98608690D01*
X81863393Y-98608690D02*
X81815774Y-98584880D01*
X81815774Y-98584880D02*
X81791964Y-98561071D01*
X82339583Y-98608690D02*
X82434821Y-98608690D01*
X82434821Y-98608690D02*
X82482440Y-98584880D01*
X82482440Y-98584880D02*
X82506249Y-98561071D01*
X82506249Y-98561071D02*
X82553868Y-98489642D01*
X82553868Y-98489642D02*
X82577678Y-98394404D01*
X82577678Y-98394404D02*
X82577678Y-98203928D01*
X82577678Y-98203928D02*
X82553868Y-98156309D01*
X82553868Y-98156309D02*
X82530059Y-98132500D01*
X82530059Y-98132500D02*
X82482440Y-98108690D01*
X82482440Y-98108690D02*
X82387202Y-98108690D01*
X82387202Y-98108690D02*
X82339583Y-98132500D01*
X82339583Y-98132500D02*
X82315773Y-98156309D01*
X82315773Y-98156309D02*
X82291964Y-98203928D01*
X82291964Y-98203928D02*
X82291964Y-98322976D01*
X82291964Y-98322976D02*
X82315773Y-98370595D01*
X82315773Y-98370595D02*
X82339583Y-98394404D01*
X82339583Y-98394404D02*
X82387202Y-98418214D01*
X82387202Y-98418214D02*
X82482440Y-98418214D01*
X82482440Y-98418214D02*
X82530059Y-98394404D01*
X82530059Y-98394404D02*
X82553868Y-98370595D01*
X82553868Y-98370595D02*
X82577678Y-98322976D01*
X78577381Y-60508690D02*
X78577381Y-60008690D01*
X78863095Y-60508690D02*
X78648810Y-60222976D01*
X78863095Y-60008690D02*
X78577381Y-60294404D01*
X78958334Y-60556309D02*
X79339286Y-60556309D01*
X79720238Y-60508690D02*
X79434524Y-60508690D01*
X79577381Y-60508690D02*
X79577381Y-60008690D01*
X79577381Y-60008690D02*
X79529762Y-60080119D01*
X79529762Y-60080119D02*
X79482143Y-60127738D01*
X79482143Y-60127738D02*
X79434524Y-60151547D01*
X80172618Y-60008690D02*
X79934523Y-60008690D01*
X79934523Y-60008690D02*
X79910714Y-60246785D01*
X79910714Y-60246785D02*
X79934523Y-60222976D01*
X79934523Y-60222976D02*
X79982142Y-60199166D01*
X79982142Y-60199166D02*
X80101190Y-60199166D01*
X80101190Y-60199166D02*
X80148809Y-60222976D01*
X80148809Y-60222976D02*
X80172618Y-60246785D01*
X80172618Y-60246785D02*
X80196428Y-60294404D01*
X80196428Y-60294404D02*
X80196428Y-60413452D01*
X80196428Y-60413452D02*
X80172618Y-60461071D01*
X80172618Y-60461071D02*
X80148809Y-60484880D01*
X80148809Y-60484880D02*
X80101190Y-60508690D01*
X80101190Y-60508690D02*
X79982142Y-60508690D01*
X79982142Y-60508690D02*
X79934523Y-60484880D01*
X79934523Y-60484880D02*
X79910714Y-60461071D01*
X54263738Y-85764367D02*
X54263738Y-85264367D01*
X54263738Y-85502462D02*
X54549452Y-85502462D01*
X54549452Y-85764367D02*
X54549452Y-85264367D01*
X55001834Y-85431034D02*
X55001834Y-85764367D01*
X54882786Y-85240557D02*
X54763739Y-85597700D01*
X54763739Y-85597700D02*
X55073262Y-85597700D01*
X64289881Y-79558690D02*
X64289881Y-79058690D01*
X64575595Y-79558690D02*
X64361310Y-79272976D01*
X64575595Y-79058690D02*
X64289881Y-79344404D01*
X64670834Y-79606309D02*
X65051786Y-79606309D01*
X65147024Y-79106309D02*
X65170833Y-79082500D01*
X65170833Y-79082500D02*
X65218452Y-79058690D01*
X65218452Y-79058690D02*
X65337500Y-79058690D01*
X65337500Y-79058690D02*
X65385119Y-79082500D01*
X65385119Y-79082500D02*
X65408928Y-79106309D01*
X65408928Y-79106309D02*
X65432738Y-79153928D01*
X65432738Y-79153928D02*
X65432738Y-79201547D01*
X65432738Y-79201547D02*
X65408928Y-79272976D01*
X65408928Y-79272976D02*
X65123214Y-79558690D01*
X65123214Y-79558690D02*
X65432738Y-79558690D01*
X65861309Y-79058690D02*
X65766071Y-79058690D01*
X65766071Y-79058690D02*
X65718452Y-79082500D01*
X65718452Y-79082500D02*
X65694642Y-79106309D01*
X65694642Y-79106309D02*
X65647023Y-79177738D01*
X65647023Y-79177738D02*
X65623214Y-79272976D01*
X65623214Y-79272976D02*
X65623214Y-79463452D01*
X65623214Y-79463452D02*
X65647023Y-79511071D01*
X65647023Y-79511071D02*
X65670833Y-79534880D01*
X65670833Y-79534880D02*
X65718452Y-79558690D01*
X65718452Y-79558690D02*
X65813690Y-79558690D01*
X65813690Y-79558690D02*
X65861309Y-79534880D01*
X65861309Y-79534880D02*
X65885118Y-79511071D01*
X65885118Y-79511071D02*
X65908928Y-79463452D01*
X65908928Y-79463452D02*
X65908928Y-79344404D01*
X65908928Y-79344404D02*
X65885118Y-79296785D01*
X65885118Y-79296785D02*
X65861309Y-79272976D01*
X65861309Y-79272976D02*
X65813690Y-79249166D01*
X65813690Y-79249166D02*
X65718452Y-79249166D01*
X65718452Y-79249166D02*
X65670833Y-79272976D01*
X65670833Y-79272976D02*
X65647023Y-79296785D01*
X65647023Y-79296785D02*
X65623214Y-79344404D01*
X235739881Y-79558690D02*
X235739881Y-79058690D01*
X236025595Y-79558690D02*
X235811310Y-79272976D01*
X236025595Y-79058690D02*
X235739881Y-79344404D01*
X236120834Y-79606309D02*
X236501786Y-79606309D01*
X236573214Y-79058690D02*
X236882738Y-79058690D01*
X236882738Y-79058690D02*
X236716071Y-79249166D01*
X236716071Y-79249166D02*
X236787500Y-79249166D01*
X236787500Y-79249166D02*
X236835119Y-79272976D01*
X236835119Y-79272976D02*
X236858928Y-79296785D01*
X236858928Y-79296785D02*
X236882738Y-79344404D01*
X236882738Y-79344404D02*
X236882738Y-79463452D01*
X236882738Y-79463452D02*
X236858928Y-79511071D01*
X236858928Y-79511071D02*
X236835119Y-79534880D01*
X236835119Y-79534880D02*
X236787500Y-79558690D01*
X236787500Y-79558690D02*
X236644643Y-79558690D01*
X236644643Y-79558690D02*
X236597024Y-79534880D01*
X236597024Y-79534880D02*
X236573214Y-79511071D01*
X237335118Y-79058690D02*
X237097023Y-79058690D01*
X237097023Y-79058690D02*
X237073214Y-79296785D01*
X237073214Y-79296785D02*
X237097023Y-79272976D01*
X237097023Y-79272976D02*
X237144642Y-79249166D01*
X237144642Y-79249166D02*
X237263690Y-79249166D01*
X237263690Y-79249166D02*
X237311309Y-79272976D01*
X237311309Y-79272976D02*
X237335118Y-79296785D01*
X237335118Y-79296785D02*
X237358928Y-79344404D01*
X237358928Y-79344404D02*
X237358928Y-79463452D01*
X237358928Y-79463452D02*
X237335118Y-79511071D01*
X237335118Y-79511071D02*
X237311309Y-79534880D01*
X237311309Y-79534880D02*
X237263690Y-79558690D01*
X237263690Y-79558690D02*
X237144642Y-79558690D01*
X237144642Y-79558690D02*
X237097023Y-79534880D01*
X237097023Y-79534880D02*
X237073214Y-79511071D01*
X116677381Y-60508690D02*
X116677381Y-60008690D01*
X116963095Y-60508690D02*
X116748810Y-60222976D01*
X116963095Y-60008690D02*
X116677381Y-60294404D01*
X117058334Y-60556309D02*
X117439286Y-60556309D01*
X117820238Y-60508690D02*
X117534524Y-60508690D01*
X117677381Y-60508690D02*
X117677381Y-60008690D01*
X117677381Y-60008690D02*
X117629762Y-60080119D01*
X117629762Y-60080119D02*
X117582143Y-60127738D01*
X117582143Y-60127738D02*
X117534524Y-60151547D01*
X117986904Y-60008690D02*
X118320237Y-60008690D01*
X118320237Y-60008690D02*
X118105952Y-60508690D01*
X230977381Y-60508690D02*
X230977381Y-60008690D01*
X231263095Y-60508690D02*
X231048810Y-60222976D01*
X231263095Y-60008690D02*
X230977381Y-60294404D01*
X231358334Y-60556309D02*
X231739286Y-60556309D01*
X231834524Y-60056309D02*
X231858333Y-60032500D01*
X231858333Y-60032500D02*
X231905952Y-60008690D01*
X231905952Y-60008690D02*
X232025000Y-60008690D01*
X232025000Y-60008690D02*
X232072619Y-60032500D01*
X232072619Y-60032500D02*
X232096428Y-60056309D01*
X232096428Y-60056309D02*
X232120238Y-60103928D01*
X232120238Y-60103928D02*
X232120238Y-60151547D01*
X232120238Y-60151547D02*
X232096428Y-60222976D01*
X232096428Y-60222976D02*
X231810714Y-60508690D01*
X231810714Y-60508690D02*
X232120238Y-60508690D01*
X232286904Y-60008690D02*
X232596428Y-60008690D01*
X232596428Y-60008690D02*
X232429761Y-60199166D01*
X232429761Y-60199166D02*
X232501190Y-60199166D01*
X232501190Y-60199166D02*
X232548809Y-60222976D01*
X232548809Y-60222976D02*
X232572618Y-60246785D01*
X232572618Y-60246785D02*
X232596428Y-60294404D01*
X232596428Y-60294404D02*
X232596428Y-60413452D01*
X232596428Y-60413452D02*
X232572618Y-60461071D01*
X232572618Y-60461071D02*
X232548809Y-60484880D01*
X232548809Y-60484880D02*
X232501190Y-60508690D01*
X232501190Y-60508690D02*
X232358333Y-60508690D01*
X232358333Y-60508690D02*
X232310714Y-60484880D01*
X232310714Y-60484880D02*
X232286904Y-60461071D01*
X74052976Y-41458690D02*
X74052976Y-40958690D01*
X74338690Y-41458690D02*
X74124405Y-41172976D01*
X74338690Y-40958690D02*
X74052976Y-41244404D01*
X74433929Y-41506309D02*
X74814881Y-41506309D01*
X74886309Y-40958690D02*
X75195833Y-40958690D01*
X75195833Y-40958690D02*
X75029166Y-41149166D01*
X75029166Y-41149166D02*
X75100595Y-41149166D01*
X75100595Y-41149166D02*
X75148214Y-41172976D01*
X75148214Y-41172976D02*
X75172023Y-41196785D01*
X75172023Y-41196785D02*
X75195833Y-41244404D01*
X75195833Y-41244404D02*
X75195833Y-41363452D01*
X75195833Y-41363452D02*
X75172023Y-41411071D01*
X75172023Y-41411071D02*
X75148214Y-41434880D01*
X75148214Y-41434880D02*
X75100595Y-41458690D01*
X75100595Y-41458690D02*
X74957738Y-41458690D01*
X74957738Y-41458690D02*
X74910119Y-41434880D01*
X74910119Y-41434880D02*
X74886309Y-41411071D01*
X178589881Y-79558690D02*
X178589881Y-79058690D01*
X178875595Y-79558690D02*
X178661310Y-79272976D01*
X178875595Y-79058690D02*
X178589881Y-79344404D01*
X178970834Y-79606309D02*
X179351786Y-79606309D01*
X179423214Y-79058690D02*
X179732738Y-79058690D01*
X179732738Y-79058690D02*
X179566071Y-79249166D01*
X179566071Y-79249166D02*
X179637500Y-79249166D01*
X179637500Y-79249166D02*
X179685119Y-79272976D01*
X179685119Y-79272976D02*
X179708928Y-79296785D01*
X179708928Y-79296785D02*
X179732738Y-79344404D01*
X179732738Y-79344404D02*
X179732738Y-79463452D01*
X179732738Y-79463452D02*
X179708928Y-79511071D01*
X179708928Y-79511071D02*
X179685119Y-79534880D01*
X179685119Y-79534880D02*
X179637500Y-79558690D01*
X179637500Y-79558690D02*
X179494643Y-79558690D01*
X179494643Y-79558690D02*
X179447024Y-79534880D01*
X179447024Y-79534880D02*
X179423214Y-79511071D01*
X179923214Y-79106309D02*
X179947023Y-79082500D01*
X179947023Y-79082500D02*
X179994642Y-79058690D01*
X179994642Y-79058690D02*
X180113690Y-79058690D01*
X180113690Y-79058690D02*
X180161309Y-79082500D01*
X180161309Y-79082500D02*
X180185118Y-79106309D01*
X180185118Y-79106309D02*
X180208928Y-79153928D01*
X180208928Y-79153928D02*
X180208928Y-79201547D01*
X180208928Y-79201547D02*
X180185118Y-79272976D01*
X180185118Y-79272976D02*
X179899404Y-79558690D01*
X179899404Y-79558690D02*
X180208928Y-79558690D01*
X38096131Y-98608690D02*
X38096131Y-98108690D01*
X38381845Y-98608690D02*
X38167560Y-98322976D01*
X38381845Y-98108690D02*
X38096131Y-98394404D01*
X38477084Y-98656309D02*
X38858036Y-98656309D01*
X38929464Y-98108690D02*
X39238988Y-98108690D01*
X39238988Y-98108690D02*
X39072321Y-98299166D01*
X39072321Y-98299166D02*
X39143750Y-98299166D01*
X39143750Y-98299166D02*
X39191369Y-98322976D01*
X39191369Y-98322976D02*
X39215178Y-98346785D01*
X39215178Y-98346785D02*
X39238988Y-98394404D01*
X39238988Y-98394404D02*
X39238988Y-98513452D01*
X39238988Y-98513452D02*
X39215178Y-98561071D01*
X39215178Y-98561071D02*
X39191369Y-98584880D01*
X39191369Y-98584880D02*
X39143750Y-98608690D01*
X39143750Y-98608690D02*
X39000893Y-98608690D01*
X39000893Y-98608690D02*
X38953274Y-98584880D01*
X38953274Y-98584880D02*
X38929464Y-98561071D01*
X39405654Y-98108690D02*
X39738987Y-98108690D01*
X39738987Y-98108690D02*
X39524702Y-98608690D01*
X252408631Y-41458690D02*
X252408631Y-40958690D01*
X252694345Y-41458690D02*
X252480060Y-41172976D01*
X252694345Y-40958690D02*
X252408631Y-41244404D01*
X252789584Y-41506309D02*
X253170536Y-41506309D01*
X253551488Y-41458690D02*
X253265774Y-41458690D01*
X253408631Y-41458690D02*
X253408631Y-40958690D01*
X253408631Y-40958690D02*
X253361012Y-41030119D01*
X253361012Y-41030119D02*
X253313393Y-41077738D01*
X253313393Y-41077738D02*
X253265774Y-41101547D01*
X253741964Y-41006309D02*
X253765773Y-40982500D01*
X253765773Y-40982500D02*
X253813392Y-40958690D01*
X253813392Y-40958690D02*
X253932440Y-40958690D01*
X253932440Y-40958690D02*
X253980059Y-40982500D01*
X253980059Y-40982500D02*
X254003868Y-41006309D01*
X254003868Y-41006309D02*
X254027678Y-41053928D01*
X254027678Y-41053928D02*
X254027678Y-41101547D01*
X254027678Y-41101547D02*
X254003868Y-41172976D01*
X254003868Y-41172976D02*
X253718154Y-41458690D01*
X253718154Y-41458690D02*
X254027678Y-41458690D01*
X93102976Y-41458690D02*
X93102976Y-40958690D01*
X93388690Y-41458690D02*
X93174405Y-41172976D01*
X93388690Y-40958690D02*
X93102976Y-41244404D01*
X93483929Y-41506309D02*
X93864881Y-41506309D01*
X94198214Y-41125357D02*
X94198214Y-41458690D01*
X94079166Y-40934880D02*
X93960119Y-41292023D01*
X93960119Y-41292023D02*
X94269642Y-41292023D01*
X83339881Y-79558690D02*
X83339881Y-79058690D01*
X83625595Y-79558690D02*
X83411310Y-79272976D01*
X83625595Y-79058690D02*
X83339881Y-79344404D01*
X83720834Y-79606309D02*
X84101786Y-79606309D01*
X84197024Y-79106309D02*
X84220833Y-79082500D01*
X84220833Y-79082500D02*
X84268452Y-79058690D01*
X84268452Y-79058690D02*
X84387500Y-79058690D01*
X84387500Y-79058690D02*
X84435119Y-79082500D01*
X84435119Y-79082500D02*
X84458928Y-79106309D01*
X84458928Y-79106309D02*
X84482738Y-79153928D01*
X84482738Y-79153928D02*
X84482738Y-79201547D01*
X84482738Y-79201547D02*
X84458928Y-79272976D01*
X84458928Y-79272976D02*
X84173214Y-79558690D01*
X84173214Y-79558690D02*
X84482738Y-79558690D01*
X84649404Y-79058690D02*
X84982737Y-79058690D01*
X84982737Y-79058690D02*
X84768452Y-79558690D01*
X169302976Y-41458690D02*
X169302976Y-40958690D01*
X169588690Y-41458690D02*
X169374405Y-41172976D01*
X169588690Y-40958690D02*
X169302976Y-41244404D01*
X169683929Y-41506309D02*
X170064881Y-41506309D01*
X170255357Y-41172976D02*
X170207738Y-41149166D01*
X170207738Y-41149166D02*
X170183928Y-41125357D01*
X170183928Y-41125357D02*
X170160119Y-41077738D01*
X170160119Y-41077738D02*
X170160119Y-41053928D01*
X170160119Y-41053928D02*
X170183928Y-41006309D01*
X170183928Y-41006309D02*
X170207738Y-40982500D01*
X170207738Y-40982500D02*
X170255357Y-40958690D01*
X170255357Y-40958690D02*
X170350595Y-40958690D01*
X170350595Y-40958690D02*
X170398214Y-40982500D01*
X170398214Y-40982500D02*
X170422023Y-41006309D01*
X170422023Y-41006309D02*
X170445833Y-41053928D01*
X170445833Y-41053928D02*
X170445833Y-41077738D01*
X170445833Y-41077738D02*
X170422023Y-41125357D01*
X170422023Y-41125357D02*
X170398214Y-41149166D01*
X170398214Y-41149166D02*
X170350595Y-41172976D01*
X170350595Y-41172976D02*
X170255357Y-41172976D01*
X170255357Y-41172976D02*
X170207738Y-41196785D01*
X170207738Y-41196785D02*
X170183928Y-41220595D01*
X170183928Y-41220595D02*
X170160119Y-41268214D01*
X170160119Y-41268214D02*
X170160119Y-41363452D01*
X170160119Y-41363452D02*
X170183928Y-41411071D01*
X170183928Y-41411071D02*
X170207738Y-41434880D01*
X170207738Y-41434880D02*
X170255357Y-41458690D01*
X170255357Y-41458690D02*
X170350595Y-41458690D01*
X170350595Y-41458690D02*
X170398214Y-41434880D01*
X170398214Y-41434880D02*
X170422023Y-41411071D01*
X170422023Y-41411071D02*
X170445833Y-41363452D01*
X170445833Y-41363452D02*
X170445833Y-41268214D01*
X170445833Y-41268214D02*
X170422023Y-41220595D01*
X170422023Y-41220595D02*
X170398214Y-41196785D01*
X170398214Y-41196785D02*
X170350595Y-41172976D01*
X35952976Y-41458690D02*
X35952976Y-40958690D01*
X36238690Y-41458690D02*
X36024405Y-41172976D01*
X36238690Y-40958690D02*
X35952976Y-41244404D01*
X36333929Y-41506309D02*
X36714881Y-41506309D01*
X37095833Y-41458690D02*
X36810119Y-41458690D01*
X36952976Y-41458690D02*
X36952976Y-40958690D01*
X36952976Y-40958690D02*
X36905357Y-41030119D01*
X36905357Y-41030119D02*
X36857738Y-41077738D01*
X36857738Y-41077738D02*
X36810119Y-41101547D01*
X210860917Y-97486918D02*
X210860917Y-96986918D01*
X210860917Y-97225013D02*
X211146631Y-97225013D01*
X211146631Y-97486918D02*
X211146631Y-96986918D01*
X211337108Y-96986918D02*
X211670441Y-96986918D01*
X211670441Y-96986918D02*
X211456156Y-97486918D01*
X119058631Y-98608690D02*
X119058631Y-98108690D01*
X119344345Y-98608690D02*
X119130060Y-98322976D01*
X119344345Y-98108690D02*
X119058631Y-98394404D01*
X119439584Y-98656309D02*
X119820536Y-98656309D01*
X120153869Y-98275357D02*
X120153869Y-98608690D01*
X120034821Y-98084880D02*
X119915774Y-98442023D01*
X119915774Y-98442023D02*
X120225297Y-98442023D01*
X120511011Y-98108690D02*
X120558630Y-98108690D01*
X120558630Y-98108690D02*
X120606249Y-98132500D01*
X120606249Y-98132500D02*
X120630059Y-98156309D01*
X120630059Y-98156309D02*
X120653868Y-98203928D01*
X120653868Y-98203928D02*
X120677678Y-98299166D01*
X120677678Y-98299166D02*
X120677678Y-98418214D01*
X120677678Y-98418214D02*
X120653868Y-98513452D01*
X120653868Y-98513452D02*
X120630059Y-98561071D01*
X120630059Y-98561071D02*
X120606249Y-98584880D01*
X120606249Y-98584880D02*
X120558630Y-98608690D01*
X120558630Y-98608690D02*
X120511011Y-98608690D01*
X120511011Y-98608690D02*
X120463392Y-98584880D01*
X120463392Y-98584880D02*
X120439583Y-98561071D01*
X120439583Y-98561071D02*
X120415773Y-98513452D01*
X120415773Y-98513452D02*
X120391964Y-98418214D01*
X120391964Y-98418214D02*
X120391964Y-98299166D01*
X120391964Y-98299166D02*
X120415773Y-98203928D01*
X120415773Y-98203928D02*
X120439583Y-98156309D01*
X120439583Y-98156309D02*
X120463392Y-98132500D01*
X120463392Y-98132500D02*
X120511011Y-98108690D01*
X188352976Y-41458690D02*
X188352976Y-40958690D01*
X188638690Y-41458690D02*
X188424405Y-41172976D01*
X188638690Y-40958690D02*
X188352976Y-41244404D01*
X188733929Y-41506309D02*
X189114881Y-41506309D01*
X189257738Y-41458690D02*
X189352976Y-41458690D01*
X189352976Y-41458690D02*
X189400595Y-41434880D01*
X189400595Y-41434880D02*
X189424404Y-41411071D01*
X189424404Y-41411071D02*
X189472023Y-41339642D01*
X189472023Y-41339642D02*
X189495833Y-41244404D01*
X189495833Y-41244404D02*
X189495833Y-41053928D01*
X189495833Y-41053928D02*
X189472023Y-41006309D01*
X189472023Y-41006309D02*
X189448214Y-40982500D01*
X189448214Y-40982500D02*
X189400595Y-40958690D01*
X189400595Y-40958690D02*
X189305357Y-40958690D01*
X189305357Y-40958690D02*
X189257738Y-40982500D01*
X189257738Y-40982500D02*
X189233928Y-41006309D01*
X189233928Y-41006309D02*
X189210119Y-41053928D01*
X189210119Y-41053928D02*
X189210119Y-41172976D01*
X189210119Y-41172976D02*
X189233928Y-41220595D01*
X189233928Y-41220595D02*
X189257738Y-41244404D01*
X189257738Y-41244404D02*
X189305357Y-41268214D01*
X189305357Y-41268214D02*
X189400595Y-41268214D01*
X189400595Y-41268214D02*
X189448214Y-41244404D01*
X189448214Y-41244404D02*
X189472023Y-41220595D01*
X189472023Y-41220595D02*
X189495833Y-41172976D01*
X226214881Y-41458690D02*
X226214881Y-40958690D01*
X226500595Y-41458690D02*
X226286310Y-41172976D01*
X226500595Y-40958690D02*
X226214881Y-41244404D01*
X226595834Y-41506309D02*
X226976786Y-41506309D01*
X227357738Y-41458690D02*
X227072024Y-41458690D01*
X227214881Y-41458690D02*
X227214881Y-40958690D01*
X227214881Y-40958690D02*
X227167262Y-41030119D01*
X227167262Y-41030119D02*
X227119643Y-41077738D01*
X227119643Y-41077738D02*
X227072024Y-41101547D01*
X227833928Y-41458690D02*
X227548214Y-41458690D01*
X227691071Y-41458690D02*
X227691071Y-40958690D01*
X227691071Y-40958690D02*
X227643452Y-41030119D01*
X227643452Y-41030119D02*
X227595833Y-41077738D01*
X227595833Y-41077738D02*
X227548214Y-41101547D01*
X135727381Y-60508690D02*
X135727381Y-60008690D01*
X136013095Y-60508690D02*
X135798810Y-60222976D01*
X136013095Y-60008690D02*
X135727381Y-60294404D01*
X136108334Y-60556309D02*
X136489286Y-60556309D01*
X136870238Y-60508690D02*
X136584524Y-60508690D01*
X136727381Y-60508690D02*
X136727381Y-60008690D01*
X136727381Y-60008690D02*
X136679762Y-60080119D01*
X136679762Y-60080119D02*
X136632143Y-60127738D01*
X136632143Y-60127738D02*
X136584524Y-60151547D01*
X137155952Y-60222976D02*
X137108333Y-60199166D01*
X137108333Y-60199166D02*
X137084523Y-60175357D01*
X137084523Y-60175357D02*
X137060714Y-60127738D01*
X137060714Y-60127738D02*
X137060714Y-60103928D01*
X137060714Y-60103928D02*
X137084523Y-60056309D01*
X137084523Y-60056309D02*
X137108333Y-60032500D01*
X137108333Y-60032500D02*
X137155952Y-60008690D01*
X137155952Y-60008690D02*
X137251190Y-60008690D01*
X137251190Y-60008690D02*
X137298809Y-60032500D01*
X137298809Y-60032500D02*
X137322618Y-60056309D01*
X137322618Y-60056309D02*
X137346428Y-60103928D01*
X137346428Y-60103928D02*
X137346428Y-60127738D01*
X137346428Y-60127738D02*
X137322618Y-60175357D01*
X137322618Y-60175357D02*
X137298809Y-60199166D01*
X137298809Y-60199166D02*
X137251190Y-60222976D01*
X137251190Y-60222976D02*
X137155952Y-60222976D01*
X137155952Y-60222976D02*
X137108333Y-60246785D01*
X137108333Y-60246785D02*
X137084523Y-60270595D01*
X137084523Y-60270595D02*
X137060714Y-60318214D01*
X137060714Y-60318214D02*
X137060714Y-60413452D01*
X137060714Y-60413452D02*
X137084523Y-60461071D01*
X137084523Y-60461071D02*
X137108333Y-60484880D01*
X137108333Y-60484880D02*
X137155952Y-60508690D01*
X137155952Y-60508690D02*
X137251190Y-60508690D01*
X137251190Y-60508690D02*
X137298809Y-60484880D01*
X137298809Y-60484880D02*
X137322618Y-60461071D01*
X137322618Y-60461071D02*
X137346428Y-60413452D01*
X137346428Y-60413452D02*
X137346428Y-60318214D01*
X137346428Y-60318214D02*
X137322618Y-60270595D01*
X137322618Y-60270595D02*
X137298809Y-60246785D01*
X137298809Y-60246785D02*
X137251190Y-60222976D01*
X152389781Y-98608690D02*
X152389781Y-98108690D01*
X152675495Y-98608690D02*
X152461210Y-98322976D01*
X152675495Y-98108690D02*
X152389781Y-98394404D01*
X152770734Y-98656309D02*
X153151686Y-98656309D01*
X153485019Y-98275357D02*
X153485019Y-98608690D01*
X153365971Y-98084880D02*
X153246924Y-98442023D01*
X153246924Y-98442023D02*
X153556447Y-98442023D01*
X154008828Y-98608690D02*
X153723114Y-98608690D01*
X153865971Y-98608690D02*
X153865971Y-98108690D01*
X153865971Y-98108690D02*
X153818352Y-98180119D01*
X153818352Y-98180119D02*
X153770733Y-98227738D01*
X153770733Y-98227738D02*
X153723114Y-98251547D01*
X38096131Y-60508690D02*
X38096131Y-60008690D01*
X38381845Y-60508690D02*
X38167560Y-60222976D01*
X38381845Y-60008690D02*
X38096131Y-60294404D01*
X38477084Y-60556309D02*
X38858036Y-60556309D01*
X39238988Y-60508690D02*
X38953274Y-60508690D01*
X39096131Y-60508690D02*
X39096131Y-60008690D01*
X39096131Y-60008690D02*
X39048512Y-60080119D01*
X39048512Y-60080119D02*
X39000893Y-60127738D01*
X39000893Y-60127738D02*
X38953274Y-60151547D01*
X39405654Y-60008690D02*
X39715178Y-60008690D01*
X39715178Y-60008690D02*
X39548511Y-60199166D01*
X39548511Y-60199166D02*
X39619940Y-60199166D01*
X39619940Y-60199166D02*
X39667559Y-60222976D01*
X39667559Y-60222976D02*
X39691368Y-60246785D01*
X39691368Y-60246785D02*
X39715178Y-60294404D01*
X39715178Y-60294404D02*
X39715178Y-60413452D01*
X39715178Y-60413452D02*
X39691368Y-60461071D01*
X39691368Y-60461071D02*
X39667559Y-60484880D01*
X39667559Y-60484880D02*
X39619940Y-60508690D01*
X39619940Y-60508690D02*
X39477083Y-60508690D01*
X39477083Y-60508690D02*
X39429464Y-60484880D01*
X39429464Y-60484880D02*
X39405654Y-60461071D01*
X112152976Y-41458690D02*
X112152976Y-40958690D01*
X112438690Y-41458690D02*
X112224405Y-41172976D01*
X112438690Y-40958690D02*
X112152976Y-41244404D01*
X112533929Y-41506309D02*
X112914881Y-41506309D01*
X113272023Y-40958690D02*
X113033928Y-40958690D01*
X113033928Y-40958690D02*
X113010119Y-41196785D01*
X113010119Y-41196785D02*
X113033928Y-41172976D01*
X113033928Y-41172976D02*
X113081547Y-41149166D01*
X113081547Y-41149166D02*
X113200595Y-41149166D01*
X113200595Y-41149166D02*
X113248214Y-41172976D01*
X113248214Y-41172976D02*
X113272023Y-41196785D01*
X113272023Y-41196785D02*
X113295833Y-41244404D01*
X113295833Y-41244404D02*
X113295833Y-41363452D01*
X113295833Y-41363452D02*
X113272023Y-41411071D01*
X113272023Y-41411071D02*
X113248214Y-41434880D01*
X113248214Y-41434880D02*
X113200595Y-41458690D01*
X113200595Y-41458690D02*
X113081547Y-41458690D01*
X113081547Y-41458690D02*
X113033928Y-41434880D01*
X113033928Y-41434880D02*
X113010119Y-41411071D01*
X257171131Y-79558690D02*
X257171131Y-79058690D01*
X257456845Y-79558690D02*
X257242560Y-79272976D01*
X257456845Y-79058690D02*
X257171131Y-79344404D01*
X257552084Y-79606309D02*
X257933036Y-79606309D01*
X258004464Y-79058690D02*
X258313988Y-79058690D01*
X258313988Y-79058690D02*
X258147321Y-79249166D01*
X258147321Y-79249166D02*
X258218750Y-79249166D01*
X258218750Y-79249166D02*
X258266369Y-79272976D01*
X258266369Y-79272976D02*
X258290178Y-79296785D01*
X258290178Y-79296785D02*
X258313988Y-79344404D01*
X258313988Y-79344404D02*
X258313988Y-79463452D01*
X258313988Y-79463452D02*
X258290178Y-79511071D01*
X258290178Y-79511071D02*
X258266369Y-79534880D01*
X258266369Y-79534880D02*
X258218750Y-79558690D01*
X258218750Y-79558690D02*
X258075893Y-79558690D01*
X258075893Y-79558690D02*
X258028274Y-79534880D01*
X258028274Y-79534880D02*
X258004464Y-79511071D01*
X258742559Y-79058690D02*
X258647321Y-79058690D01*
X258647321Y-79058690D02*
X258599702Y-79082500D01*
X258599702Y-79082500D02*
X258575892Y-79106309D01*
X258575892Y-79106309D02*
X258528273Y-79177738D01*
X258528273Y-79177738D02*
X258504464Y-79272976D01*
X258504464Y-79272976D02*
X258504464Y-79463452D01*
X258504464Y-79463452D02*
X258528273Y-79511071D01*
X258528273Y-79511071D02*
X258552083Y-79534880D01*
X258552083Y-79534880D02*
X258599702Y-79558690D01*
X258599702Y-79558690D02*
X258694940Y-79558690D01*
X258694940Y-79558690D02*
X258742559Y-79534880D01*
X258742559Y-79534880D02*
X258766368Y-79511071D01*
X258766368Y-79511071D02*
X258790178Y-79463452D01*
X258790178Y-79463452D02*
X258790178Y-79344404D01*
X258790178Y-79344404D02*
X258766368Y-79296785D01*
X258766368Y-79296785D02*
X258742559Y-79272976D01*
X258742559Y-79272976D02*
X258694940Y-79249166D01*
X258694940Y-79249166D02*
X258599702Y-79249166D01*
X258599702Y-79249166D02*
X258552083Y-79272976D01*
X258552083Y-79272976D02*
X258528273Y-79296785D01*
X258528273Y-79296785D02*
X258504464Y-79344404D01*
X235273336Y-48859428D02*
X235273336Y-48359428D01*
X235273336Y-48597523D02*
X235559050Y-48597523D01*
X235559050Y-48859428D02*
X235559050Y-48359428D01*
X235749527Y-48359428D02*
X236059051Y-48359428D01*
X236059051Y-48359428D02*
X235892384Y-48549904D01*
X235892384Y-48549904D02*
X235963813Y-48549904D01*
X235963813Y-48549904D02*
X236011432Y-48573714D01*
X236011432Y-48573714D02*
X236035241Y-48597523D01*
X236035241Y-48597523D02*
X236059051Y-48645142D01*
X236059051Y-48645142D02*
X236059051Y-48764190D01*
X236059051Y-48764190D02*
X236035241Y-48811809D01*
X236035241Y-48811809D02*
X236011432Y-48835618D01*
X236011432Y-48835618D02*
X235963813Y-48859428D01*
X235963813Y-48859428D02*
X235820956Y-48859428D01*
X235820956Y-48859428D02*
X235773337Y-48835618D01*
X235773337Y-48835618D02*
X235749527Y-48811809D01*
X131202976Y-41458690D02*
X131202976Y-40958690D01*
X131488690Y-41458690D02*
X131274405Y-41172976D01*
X131488690Y-40958690D02*
X131202976Y-41244404D01*
X131583929Y-41506309D02*
X131964881Y-41506309D01*
X132298214Y-40958690D02*
X132202976Y-40958690D01*
X132202976Y-40958690D02*
X132155357Y-40982500D01*
X132155357Y-40982500D02*
X132131547Y-41006309D01*
X132131547Y-41006309D02*
X132083928Y-41077738D01*
X132083928Y-41077738D02*
X132060119Y-41172976D01*
X132060119Y-41172976D02*
X132060119Y-41363452D01*
X132060119Y-41363452D02*
X132083928Y-41411071D01*
X132083928Y-41411071D02*
X132107738Y-41434880D01*
X132107738Y-41434880D02*
X132155357Y-41458690D01*
X132155357Y-41458690D02*
X132250595Y-41458690D01*
X132250595Y-41458690D02*
X132298214Y-41434880D01*
X132298214Y-41434880D02*
X132322023Y-41411071D01*
X132322023Y-41411071D02*
X132345833Y-41363452D01*
X132345833Y-41363452D02*
X132345833Y-41244404D01*
X132345833Y-41244404D02*
X132322023Y-41196785D01*
X132322023Y-41196785D02*
X132298214Y-41172976D01*
X132298214Y-41172976D02*
X132250595Y-41149166D01*
X132250595Y-41149166D02*
X132155357Y-41149166D01*
X132155357Y-41149166D02*
X132107738Y-41172976D01*
X132107738Y-41172976D02*
X132083928Y-41196785D01*
X132083928Y-41196785D02*
X132060119Y-41244404D01*
X166683631Y-98608690D02*
X166683631Y-98108690D01*
X166969345Y-98608690D02*
X166755060Y-98322976D01*
X166969345Y-98108690D02*
X166683631Y-98394404D01*
X167064584Y-98656309D02*
X167445536Y-98656309D01*
X167778869Y-98275357D02*
X167778869Y-98608690D01*
X167659821Y-98084880D02*
X167540774Y-98442023D01*
X167540774Y-98442023D02*
X167850297Y-98442023D01*
X168016964Y-98156309D02*
X168040773Y-98132500D01*
X168040773Y-98132500D02*
X168088392Y-98108690D01*
X168088392Y-98108690D02*
X168207440Y-98108690D01*
X168207440Y-98108690D02*
X168255059Y-98132500D01*
X168255059Y-98132500D02*
X168278868Y-98156309D01*
X168278868Y-98156309D02*
X168302678Y-98203928D01*
X168302678Y-98203928D02*
X168302678Y-98251547D01*
X168302678Y-98251547D02*
X168278868Y-98322976D01*
X168278868Y-98322976D02*
X167993154Y-98608690D01*
X167993154Y-98608690D02*
X168302678Y-98608690D01*
X121439881Y-79558690D02*
X121439881Y-79058690D01*
X121725595Y-79558690D02*
X121511310Y-79272976D01*
X121725595Y-79058690D02*
X121439881Y-79344404D01*
X121820834Y-79606309D02*
X122201786Y-79606309D01*
X122297024Y-79106309D02*
X122320833Y-79082500D01*
X122320833Y-79082500D02*
X122368452Y-79058690D01*
X122368452Y-79058690D02*
X122487500Y-79058690D01*
X122487500Y-79058690D02*
X122535119Y-79082500D01*
X122535119Y-79082500D02*
X122558928Y-79106309D01*
X122558928Y-79106309D02*
X122582738Y-79153928D01*
X122582738Y-79153928D02*
X122582738Y-79201547D01*
X122582738Y-79201547D02*
X122558928Y-79272976D01*
X122558928Y-79272976D02*
X122273214Y-79558690D01*
X122273214Y-79558690D02*
X122582738Y-79558690D01*
X122820833Y-79558690D02*
X122916071Y-79558690D01*
X122916071Y-79558690D02*
X122963690Y-79534880D01*
X122963690Y-79534880D02*
X122987499Y-79511071D01*
X122987499Y-79511071D02*
X123035118Y-79439642D01*
X123035118Y-79439642D02*
X123058928Y-79344404D01*
X123058928Y-79344404D02*
X123058928Y-79153928D01*
X123058928Y-79153928D02*
X123035118Y-79106309D01*
X123035118Y-79106309D02*
X123011309Y-79082500D01*
X123011309Y-79082500D02*
X122963690Y-79058690D01*
X122963690Y-79058690D02*
X122868452Y-79058690D01*
X122868452Y-79058690D02*
X122820833Y-79082500D01*
X122820833Y-79082500D02*
X122797023Y-79106309D01*
X122797023Y-79106309D02*
X122773214Y-79153928D01*
X122773214Y-79153928D02*
X122773214Y-79272976D01*
X122773214Y-79272976D02*
X122797023Y-79320595D01*
X122797023Y-79320595D02*
X122820833Y-79344404D01*
X122820833Y-79344404D02*
X122868452Y-79368214D01*
X122868452Y-79368214D02*
X122963690Y-79368214D01*
X122963690Y-79368214D02*
X123011309Y-79344404D01*
X123011309Y-79344404D02*
X123035118Y-79320595D01*
X123035118Y-79320595D02*
X123058928Y-79272976D01*
X257171131Y-70033690D02*
X257171131Y-69533690D01*
X257456845Y-70033690D02*
X257242560Y-69747976D01*
X257456845Y-69533690D02*
X257171131Y-69819404D01*
X257552084Y-70081309D02*
X257933036Y-70081309D01*
X258266369Y-69700357D02*
X258266369Y-70033690D01*
X258147321Y-69509880D02*
X258028274Y-69867023D01*
X258028274Y-69867023D02*
X258337797Y-69867023D01*
X258480654Y-69533690D02*
X258813987Y-69533690D01*
X258813987Y-69533690D02*
X258599702Y-70033690D01*
X211927381Y-60508690D02*
X211927381Y-60008690D01*
X212213095Y-60508690D02*
X211998810Y-60222976D01*
X212213095Y-60008690D02*
X211927381Y-60294404D01*
X212308334Y-60556309D02*
X212689286Y-60556309D01*
X212784524Y-60056309D02*
X212808333Y-60032500D01*
X212808333Y-60032500D02*
X212855952Y-60008690D01*
X212855952Y-60008690D02*
X212975000Y-60008690D01*
X212975000Y-60008690D02*
X213022619Y-60032500D01*
X213022619Y-60032500D02*
X213046428Y-60056309D01*
X213046428Y-60056309D02*
X213070238Y-60103928D01*
X213070238Y-60103928D02*
X213070238Y-60151547D01*
X213070238Y-60151547D02*
X213046428Y-60222976D01*
X213046428Y-60222976D02*
X212760714Y-60508690D01*
X212760714Y-60508690D02*
X213070238Y-60508690D01*
X213260714Y-60056309D02*
X213284523Y-60032500D01*
X213284523Y-60032500D02*
X213332142Y-60008690D01*
X213332142Y-60008690D02*
X213451190Y-60008690D01*
X213451190Y-60008690D02*
X213498809Y-60032500D01*
X213498809Y-60032500D02*
X213522618Y-60056309D01*
X213522618Y-60056309D02*
X213546428Y-60103928D01*
X213546428Y-60103928D02*
X213546428Y-60151547D01*
X213546428Y-60151547D02*
X213522618Y-60222976D01*
X213522618Y-60222976D02*
X213236904Y-60508690D01*
X213236904Y-60508690D02*
X213546428Y-60508690D01*
X192877381Y-60508690D02*
X192877381Y-60008690D01*
X193163095Y-60508690D02*
X192948810Y-60222976D01*
X193163095Y-60008690D02*
X192877381Y-60294404D01*
X193258334Y-60556309D02*
X193639286Y-60556309D01*
X193734524Y-60056309D02*
X193758333Y-60032500D01*
X193758333Y-60032500D02*
X193805952Y-60008690D01*
X193805952Y-60008690D02*
X193925000Y-60008690D01*
X193925000Y-60008690D02*
X193972619Y-60032500D01*
X193972619Y-60032500D02*
X193996428Y-60056309D01*
X193996428Y-60056309D02*
X194020238Y-60103928D01*
X194020238Y-60103928D02*
X194020238Y-60151547D01*
X194020238Y-60151547D02*
X193996428Y-60222976D01*
X193996428Y-60222976D02*
X193710714Y-60508690D01*
X193710714Y-60508690D02*
X194020238Y-60508690D01*
X194496428Y-60508690D02*
X194210714Y-60508690D01*
X194353571Y-60508690D02*
X194353571Y-60008690D01*
X194353571Y-60008690D02*
X194305952Y-60080119D01*
X194305952Y-60080119D02*
X194258333Y-60127738D01*
X194258333Y-60127738D02*
X194210714Y-60151547D01*
X59527381Y-60508690D02*
X59527381Y-60008690D01*
X59813095Y-60508690D02*
X59598810Y-60222976D01*
X59813095Y-60008690D02*
X59527381Y-60294404D01*
X59908334Y-60556309D02*
X60289286Y-60556309D01*
X60670238Y-60508690D02*
X60384524Y-60508690D01*
X60527381Y-60508690D02*
X60527381Y-60008690D01*
X60527381Y-60008690D02*
X60479762Y-60080119D01*
X60479762Y-60080119D02*
X60432143Y-60127738D01*
X60432143Y-60127738D02*
X60384524Y-60151547D01*
X61098809Y-60175357D02*
X61098809Y-60508690D01*
X60979761Y-59984880D02*
X60860714Y-60342023D01*
X60860714Y-60342023D02*
X61170237Y-60342023D01*
X221452381Y-98608690D02*
X221452381Y-98108690D01*
X221738095Y-98608690D02*
X221523810Y-98322976D01*
X221738095Y-98108690D02*
X221452381Y-98394404D01*
X221833334Y-98656309D02*
X222214286Y-98656309D01*
X222547619Y-98275357D02*
X222547619Y-98608690D01*
X222428571Y-98084880D02*
X222309524Y-98442023D01*
X222309524Y-98442023D02*
X222619047Y-98442023D01*
X223023809Y-98275357D02*
X223023809Y-98608690D01*
X222904761Y-98084880D02*
X222785714Y-98442023D01*
X222785714Y-98442023D02*
X223095237Y-98442023D01*
X254789881Y-60508690D02*
X254789881Y-60008690D01*
X255075595Y-60508690D02*
X254861310Y-60222976D01*
X255075595Y-60008690D02*
X254789881Y-60294404D01*
X255170834Y-60556309D02*
X255551786Y-60556309D01*
X255647024Y-60056309D02*
X255670833Y-60032500D01*
X255670833Y-60032500D02*
X255718452Y-60008690D01*
X255718452Y-60008690D02*
X255837500Y-60008690D01*
X255837500Y-60008690D02*
X255885119Y-60032500D01*
X255885119Y-60032500D02*
X255908928Y-60056309D01*
X255908928Y-60056309D02*
X255932738Y-60103928D01*
X255932738Y-60103928D02*
X255932738Y-60151547D01*
X255932738Y-60151547D02*
X255908928Y-60222976D01*
X255908928Y-60222976D02*
X255623214Y-60508690D01*
X255623214Y-60508690D02*
X255932738Y-60508690D01*
X256361309Y-60175357D02*
X256361309Y-60508690D01*
X256242261Y-59984880D02*
X256123214Y-60342023D01*
X256123214Y-60342023D02*
X256432737Y-60342023D01*
X154777381Y-60508690D02*
X154777381Y-60008690D01*
X155063095Y-60508690D02*
X154848810Y-60222976D01*
X155063095Y-60008690D02*
X154777381Y-60294404D01*
X155158334Y-60556309D02*
X155539286Y-60556309D01*
X155920238Y-60508690D02*
X155634524Y-60508690D01*
X155777381Y-60508690D02*
X155777381Y-60008690D01*
X155777381Y-60008690D02*
X155729762Y-60080119D01*
X155729762Y-60080119D02*
X155682143Y-60127738D01*
X155682143Y-60127738D02*
X155634524Y-60151547D01*
X156158333Y-60508690D02*
X156253571Y-60508690D01*
X156253571Y-60508690D02*
X156301190Y-60484880D01*
X156301190Y-60484880D02*
X156324999Y-60461071D01*
X156324999Y-60461071D02*
X156372618Y-60389642D01*
X156372618Y-60389642D02*
X156396428Y-60294404D01*
X156396428Y-60294404D02*
X156396428Y-60103928D01*
X156396428Y-60103928D02*
X156372618Y-60056309D01*
X156372618Y-60056309D02*
X156348809Y-60032500D01*
X156348809Y-60032500D02*
X156301190Y-60008690D01*
X156301190Y-60008690D02*
X156205952Y-60008690D01*
X156205952Y-60008690D02*
X156158333Y-60032500D01*
X156158333Y-60032500D02*
X156134523Y-60056309D01*
X156134523Y-60056309D02*
X156110714Y-60103928D01*
X156110714Y-60103928D02*
X156110714Y-60222976D01*
X156110714Y-60222976D02*
X156134523Y-60270595D01*
X156134523Y-60270595D02*
X156158333Y-60294404D01*
X156158333Y-60294404D02*
X156205952Y-60318214D01*
X156205952Y-60318214D02*
X156301190Y-60318214D01*
X156301190Y-60318214D02*
X156348809Y-60294404D01*
X156348809Y-60294404D02*
X156372618Y-60270595D01*
X156372618Y-60270595D02*
X156396428Y-60222976D01*
X200021131Y-98608690D02*
X200021131Y-98108690D01*
X200306845Y-98608690D02*
X200092560Y-98322976D01*
X200306845Y-98108690D02*
X200021131Y-98394404D01*
X200402084Y-98656309D02*
X200783036Y-98656309D01*
X201116369Y-98275357D02*
X201116369Y-98608690D01*
X200997321Y-98084880D02*
X200878274Y-98442023D01*
X200878274Y-98442023D02*
X201187797Y-98442023D01*
X201330654Y-98108690D02*
X201640178Y-98108690D01*
X201640178Y-98108690D02*
X201473511Y-98299166D01*
X201473511Y-98299166D02*
X201544940Y-98299166D01*
X201544940Y-98299166D02*
X201592559Y-98322976D01*
X201592559Y-98322976D02*
X201616368Y-98346785D01*
X201616368Y-98346785D02*
X201640178Y-98394404D01*
X201640178Y-98394404D02*
X201640178Y-98513452D01*
X201640178Y-98513452D02*
X201616368Y-98561071D01*
X201616368Y-98561071D02*
X201592559Y-98584880D01*
X201592559Y-98584880D02*
X201544940Y-98608690D01*
X201544940Y-98608690D02*
X201402083Y-98608690D01*
X201402083Y-98608690D02*
X201354464Y-98584880D01*
X201354464Y-98584880D02*
X201330654Y-98561071D01*
X150252976Y-41458690D02*
X150252976Y-40958690D01*
X150538690Y-41458690D02*
X150324405Y-41172976D01*
X150538690Y-40958690D02*
X150252976Y-41244404D01*
X150633929Y-41506309D02*
X151014881Y-41506309D01*
X151086309Y-40958690D02*
X151419642Y-40958690D01*
X151419642Y-40958690D02*
X151205357Y-41458690D01*
X162582131Y-70056475D02*
X162582131Y-69556475D01*
X162582131Y-69794570D02*
X162867845Y-69794570D01*
X162867845Y-70056475D02*
X162867845Y-69556475D01*
X163344036Y-69556475D02*
X163105941Y-69556475D01*
X163105941Y-69556475D02*
X163082132Y-69794570D01*
X163082132Y-69794570D02*
X163105941Y-69770761D01*
X163105941Y-69770761D02*
X163153560Y-69746951D01*
X163153560Y-69746951D02*
X163272608Y-69746951D01*
X163272608Y-69746951D02*
X163320227Y-69770761D01*
X163320227Y-69770761D02*
X163344036Y-69794570D01*
X163344036Y-69794570D02*
X163367846Y-69842189D01*
X163367846Y-69842189D02*
X163367846Y-69961237D01*
X163367846Y-69961237D02*
X163344036Y-70008856D01*
X163344036Y-70008856D02*
X163320227Y-70032665D01*
X163320227Y-70032665D02*
X163272608Y-70056475D01*
X163272608Y-70056475D02*
X163153560Y-70056475D01*
X163153560Y-70056475D02*
X163105941Y-70032665D01*
X163105941Y-70032665D02*
X163082132Y-70008856D01*
X59527381Y-98608690D02*
X59527381Y-98108690D01*
X59813095Y-98608690D02*
X59598810Y-98322976D01*
X59813095Y-98108690D02*
X59527381Y-98394404D01*
X59908334Y-98656309D02*
X60289286Y-98656309D01*
X60360714Y-98108690D02*
X60670238Y-98108690D01*
X60670238Y-98108690D02*
X60503571Y-98299166D01*
X60503571Y-98299166D02*
X60575000Y-98299166D01*
X60575000Y-98299166D02*
X60622619Y-98322976D01*
X60622619Y-98322976D02*
X60646428Y-98346785D01*
X60646428Y-98346785D02*
X60670238Y-98394404D01*
X60670238Y-98394404D02*
X60670238Y-98513452D01*
X60670238Y-98513452D02*
X60646428Y-98561071D01*
X60646428Y-98561071D02*
X60622619Y-98584880D01*
X60622619Y-98584880D02*
X60575000Y-98608690D01*
X60575000Y-98608690D02*
X60432143Y-98608690D01*
X60432143Y-98608690D02*
X60384524Y-98584880D01*
X60384524Y-98584880D02*
X60360714Y-98561071D01*
X60955952Y-98322976D02*
X60908333Y-98299166D01*
X60908333Y-98299166D02*
X60884523Y-98275357D01*
X60884523Y-98275357D02*
X60860714Y-98227738D01*
X60860714Y-98227738D02*
X60860714Y-98203928D01*
X60860714Y-98203928D02*
X60884523Y-98156309D01*
X60884523Y-98156309D02*
X60908333Y-98132500D01*
X60908333Y-98132500D02*
X60955952Y-98108690D01*
X60955952Y-98108690D02*
X61051190Y-98108690D01*
X61051190Y-98108690D02*
X61098809Y-98132500D01*
X61098809Y-98132500D02*
X61122618Y-98156309D01*
X61122618Y-98156309D02*
X61146428Y-98203928D01*
X61146428Y-98203928D02*
X61146428Y-98227738D01*
X61146428Y-98227738D02*
X61122618Y-98275357D01*
X61122618Y-98275357D02*
X61098809Y-98299166D01*
X61098809Y-98299166D02*
X61051190Y-98322976D01*
X61051190Y-98322976D02*
X60955952Y-98322976D01*
X60955952Y-98322976D02*
X60908333Y-98346785D01*
X60908333Y-98346785D02*
X60884523Y-98370595D01*
X60884523Y-98370595D02*
X60860714Y-98418214D01*
X60860714Y-98418214D02*
X60860714Y-98513452D01*
X60860714Y-98513452D02*
X60884523Y-98561071D01*
X60884523Y-98561071D02*
X60908333Y-98584880D01*
X60908333Y-98584880D02*
X60955952Y-98608690D01*
X60955952Y-98608690D02*
X61051190Y-98608690D01*
X61051190Y-98608690D02*
X61098809Y-98584880D01*
X61098809Y-98584880D02*
X61122618Y-98561071D01*
X61122618Y-98561071D02*
X61146428Y-98513452D01*
X61146428Y-98513452D02*
X61146428Y-98418214D01*
X61146428Y-98418214D02*
X61122618Y-98370595D01*
X61122618Y-98370595D02*
X61098809Y-98346785D01*
X61098809Y-98346785D02*
X61051190Y-98322976D01*
X55002976Y-41458690D02*
X55002976Y-40958690D01*
X55288690Y-41458690D02*
X55074405Y-41172976D01*
X55288690Y-40958690D02*
X55002976Y-41244404D01*
X55383929Y-41506309D02*
X55764881Y-41506309D01*
X55860119Y-41006309D02*
X55883928Y-40982500D01*
X55883928Y-40982500D02*
X55931547Y-40958690D01*
X55931547Y-40958690D02*
X56050595Y-40958690D01*
X56050595Y-40958690D02*
X56098214Y-40982500D01*
X56098214Y-40982500D02*
X56122023Y-41006309D01*
X56122023Y-41006309D02*
X56145833Y-41053928D01*
X56145833Y-41053928D02*
X56145833Y-41101547D01*
X56145833Y-41101547D02*
X56122023Y-41172976D01*
X56122023Y-41172976D02*
X55836309Y-41458690D01*
X55836309Y-41458690D02*
X56145833Y-41458690D01*
X55975297Y-50983690D02*
X55975297Y-50483690D01*
X55975297Y-50721785D02*
X56261011Y-50721785D01*
X56261011Y-50983690D02*
X56261011Y-50483690D01*
X56761012Y-50983690D02*
X56475298Y-50983690D01*
X56618155Y-50983690D02*
X56618155Y-50483690D01*
X56618155Y-50483690D02*
X56570536Y-50555119D01*
X56570536Y-50555119D02*
X56522917Y-50602738D01*
X56522917Y-50602738D02*
X56475298Y-50626547D01*
X132175297Y-50983690D02*
X132175297Y-50483690D01*
X132175297Y-50721785D02*
X132461011Y-50721785D01*
X132461011Y-50983690D02*
X132461011Y-50483690D01*
X132675298Y-50531309D02*
X132699107Y-50507500D01*
X132699107Y-50507500D02*
X132746726Y-50483690D01*
X132746726Y-50483690D02*
X132865774Y-50483690D01*
X132865774Y-50483690D02*
X132913393Y-50507500D01*
X132913393Y-50507500D02*
X132937202Y-50531309D01*
X132937202Y-50531309D02*
X132961012Y-50578928D01*
X132961012Y-50578928D02*
X132961012Y-50626547D01*
X132961012Y-50626547D02*
X132937202Y-50697976D01*
X132937202Y-50697976D02*
X132651488Y-50983690D01*
X132651488Y-50983690D02*
X132961012Y-50983690D01*
D10*
X153352500Y-72390000D02*
X167322500Y-72390000D01*
X153352500Y-86360000D02*
X153352500Y-72390000D01*
X167322500Y-72390000D02*
X167322500Y-86360000D01*
X167322500Y-86360000D02*
X153352500Y-86360000D01*
X210502500Y-72390000D02*
X224472500Y-72390000D01*
X210502500Y-86360000D02*
X210502500Y-72390000D01*
X224472500Y-72390000D02*
X224472500Y-86360000D01*
X224472500Y-86360000D02*
X210502500Y-86360000D01*
X34290000Y-72390000D02*
X48260000Y-72390000D01*
X34290000Y-86360000D02*
X34290000Y-72390000D01*
X48260000Y-72390000D02*
X48260000Y-86360000D01*
X48260000Y-86360000D02*
X34290000Y-86360000D01*
X191452500Y-72390000D02*
X205422500Y-72390000D01*
X191452500Y-86360000D02*
X191452500Y-72390000D01*
X205422500Y-72390000D02*
X205422500Y-86360000D01*
X205422500Y-86360000D02*
X191452500Y-86360000D01*
X253365000Y-91440000D02*
X267335000Y-91440000D01*
X253365000Y-105410000D02*
X253365000Y-91440000D01*
X267335000Y-91440000D02*
X267335000Y-105410000D01*
X267335000Y-105410000D02*
X253365000Y-105410000D01*
X134302500Y-72390000D02*
X148272500Y-72390000D01*
X134302500Y-86360000D02*
X134302500Y-72390000D01*
X148272500Y-72390000D02*
X148272500Y-86360000D01*
X148272500Y-86360000D02*
X134302500Y-86360000D01*
X200977500Y-34290000D02*
X214947500Y-34290000D01*
X200977500Y-48260000D02*
X200977500Y-34290000D01*
X214947500Y-34290000D02*
X214947500Y-48260000D01*
X214947500Y-48260000D02*
X200977500Y-48260000D01*
X167640000Y-53340000D02*
X181610000Y-53340000D01*
X167640000Y-67310000D02*
X167640000Y-53340000D01*
X181610000Y-53340000D02*
X181610000Y-67310000D01*
X181610000Y-67310000D02*
X167640000Y-67310000D01*
X96202500Y-72390000D02*
X110172500Y-72390000D01*
X96202500Y-86360000D02*
X96202500Y-72390000D01*
X110172500Y-72390000D02*
X110172500Y-86360000D01*
X110172500Y-86360000D02*
X96202500Y-86360000D01*
X91440000Y-53340000D02*
X105410000Y-53340000D01*
X91440000Y-67310000D02*
X91440000Y-53340000D01*
X105410000Y-53340000D02*
X105410000Y-67310000D01*
X105410000Y-67310000D02*
X91440000Y-67310000D01*
X234315000Y-91440000D02*
X248285000Y-91440000D01*
X234315000Y-105410000D02*
X234315000Y-91440000D01*
X248285000Y-91440000D02*
X248285000Y-105410000D01*
X248285000Y-105410000D02*
X234315000Y-105410000D01*
X74771250Y-91440000D02*
X88741250Y-91440000D01*
X74771250Y-105410000D02*
X74771250Y-91440000D01*
X88741250Y-91440000D02*
X88741250Y-105410000D01*
X88741250Y-105410000D02*
X74771250Y-105410000D01*
X72390000Y-53340000D02*
X86360000Y-53340000D01*
X72390000Y-67310000D02*
X72390000Y-53340000D01*
X86360000Y-53340000D02*
X86360000Y-67310000D01*
X86360000Y-67310000D02*
X72390000Y-67310000D01*
X58102500Y-72390000D02*
X72072500Y-72390000D01*
X58102500Y-86360000D02*
X58102500Y-72390000D01*
X72072500Y-72390000D02*
X72072500Y-86360000D01*
X72072500Y-86360000D02*
X58102500Y-86360000D01*
G36*
X138195374Y-102344025D02*
G01*
X138165907Y-102373492D01*
X138136441Y-102344025D01*
X138165907Y-102314559D01*
X138195374Y-102344025D01*
G37*
G36*
X141004500Y-100860885D02*
G01*
X140996410Y-100895921D01*
X140965211Y-100900174D01*
X140916703Y-100878611D01*
X140925923Y-100860885D01*
X140995862Y-100853832D01*
X141004500Y-100860885D01*
G37*
G36*
X137891604Y-101513340D02*
G01*
X137954871Y-101572679D01*
X137941893Y-101606793D01*
X137933654Y-101607366D01*
X137883808Y-101565508D01*
X137865616Y-101539328D01*
X137858670Y-101499001D01*
X137891604Y-101513340D01*
G37*
G36*
X138605504Y-103005599D02*
G01*
X138607903Y-103021752D01*
X138587796Y-103079152D01*
X138581914Y-103080684D01*
X138531599Y-103039388D01*
X138519504Y-103021752D01*
X138524176Y-102967446D01*
X138545492Y-102962819D01*
X138605504Y-103005599D01*
G37*
G36*
X139079364Y-103522680D02*
G01*
X139135585Y-103575637D01*
X139138297Y-103585090D01*
X139092701Y-103610403D01*
X139079364Y-103611079D01*
X139022696Y-103565774D01*
X139020432Y-103548668D01*
X139056536Y-103513471D01*
X139079364Y-103522680D01*
G37*
G36*
X139534104Y-98439733D02*
G01*
X139543969Y-98630092D01*
X139534104Y-98763863D01*
X139521257Y-98800424D01*
X139512370Y-98733494D01*
X139509553Y-98601798D01*
X139513208Y-98456305D01*
X139522721Y-98401776D01*
X139534104Y-98439733D01*
G37*
G36*
X139727624Y-103994141D02*
G01*
X139783845Y-104047099D01*
X139786557Y-104056552D01*
X139740961Y-104081865D01*
X139727624Y-104082540D01*
X139670956Y-104037236D01*
X139668692Y-104020130D01*
X139704796Y-103984933D01*
X139727624Y-103994141D01*
G37*
G36*
X139062966Y-98468845D02*
G01*
X139063142Y-98470255D01*
X139072766Y-98662444D01*
X139062541Y-98823851D01*
X139050261Y-98856403D01*
X139041687Y-98786283D01*
X139038693Y-98631264D01*
X139042235Y-98480027D01*
X139050952Y-98421768D01*
X139062966Y-98468845D01*
G37*
G36*
X140061277Y-98762125D02*
G01*
X140065218Y-98793329D01*
X140074754Y-99014618D01*
X140065218Y-99235325D01*
X140054677Y-99287158D01*
X140046656Y-99233431D01*
X140042440Y-99086442D01*
X140042101Y-99014327D01*
X140044661Y-98837254D01*
X140051482Y-98749087D01*
X140061277Y-98762125D01*
G37*
G36*
X142111296Y-101401102D02*
G01*
X142040878Y-101675139D01*
X141912431Y-101989384D01*
X141748506Y-102298025D01*
X141571653Y-102555250D01*
X141507068Y-102628621D01*
X141347435Y-102784161D01*
X141230858Y-102880301D01*
X141167834Y-102913732D01*
X141168860Y-102881146D01*
X141244433Y-102779234D01*
X141328582Y-102684878D01*
X141635676Y-102284623D01*
X141901702Y-101786139D01*
X142034983Y-101460035D01*
X142144767Y-101165371D01*
X142111296Y-101401102D01*
G37*
G36*
X142620321Y-102334203D02*
G01*
X142693904Y-102334203D01*
X142701994Y-102369239D01*
X142733193Y-102373492D01*
X142781701Y-102351929D01*
X142772481Y-102334203D01*
X142702542Y-102327150D01*
X142693904Y-102334203D01*
X142620321Y-102334203D01*
X142615327Y-102314559D01*
X142656999Y-102216064D01*
X142733193Y-102196694D01*
X142831687Y-102238365D01*
X142851058Y-102314559D01*
X142809386Y-102413054D01*
X142733193Y-102432424D01*
X142634698Y-102390753D01*
X142620321Y-102334203D01*
G37*
G36*
X141083077Y-104023608D02*
G01*
X141171476Y-104023608D01*
X141176148Y-104077913D01*
X141197464Y-104082540D01*
X141257477Y-104039761D01*
X141259875Y-104023608D01*
X141239768Y-103966207D01*
X141233887Y-103964675D01*
X141183572Y-104005971D01*
X141171476Y-104023608D01*
X141083077Y-104023608D01*
X141124748Y-103925113D01*
X141200942Y-103905742D01*
X141299437Y-103947414D01*
X141318808Y-104023608D01*
X141277136Y-104122102D01*
X141200942Y-104141473D01*
X141102447Y-104099801D01*
X141083077Y-104023608D01*
G37*
G36*
X140780810Y-97110872D02*
G01*
X140918054Y-97152501D01*
X141116099Y-97218049D01*
X141215675Y-97252330D01*
X141458368Y-97330377D01*
X141677656Y-97389598D01*
X141836020Y-97420204D01*
X141867413Y-97422355D01*
X141976545Y-97440155D01*
X141996534Y-97482076D01*
X141903977Y-97530449D01*
X141717219Y-97523194D01*
X141433759Y-97460744D01*
X141276068Y-97406308D01*
X141094213Y-97326788D01*
X140920830Y-97238855D01*
X140788554Y-97159180D01*
X140730021Y-97104436D01*
X140729480Y-97100980D01*
X140780810Y-97110872D01*
G37*
G36*
X141696459Y-103552146D02*
G01*
X141819736Y-103552146D01*
X141824408Y-103606452D01*
X141845724Y-103611079D01*
X141905736Y-103568299D01*
X141908135Y-103552146D01*
X141888028Y-103494745D01*
X141882146Y-103493213D01*
X141831831Y-103534510D01*
X141819736Y-103552146D01*
X141696459Y-103552146D01*
X141692900Y-103513379D01*
X141774935Y-103446521D01*
X141852680Y-103434281D01*
X141948697Y-103477637D01*
X141967067Y-103552146D01*
X141921695Y-103641494D01*
X141822087Y-103673826D01*
X141723011Y-103636973D01*
X141701870Y-103611079D01*
X141696459Y-103552146D01*
G37*
G36*
X142247920Y-102025818D02*
G01*
X142195215Y-102160976D01*
X142114334Y-102338766D01*
X141953650Y-102597935D01*
X141719983Y-102874996D01*
X141446528Y-103136677D01*
X141166482Y-103349702D01*
X141021516Y-103434151D01*
X140878629Y-103503394D01*
X140796651Y-103537442D01*
X140788413Y-103535491D01*
X140847130Y-103487779D01*
X140975229Y-103390294D01*
X141146838Y-103262679D01*
X141176013Y-103241211D01*
X141644608Y-102827218D01*
X142023681Y-102337781D01*
X142108787Y-102196607D01*
X142204521Y-102038875D01*
X142250960Y-101983532D01*
X142247920Y-102025818D01*
G37*
G36*
X142871077Y-101548434D02*
G01*
X142968924Y-101548434D01*
X142989031Y-101605834D01*
X142994912Y-101607366D01*
X143045227Y-101566070D01*
X143057323Y-101548434D01*
X143052650Y-101494128D01*
X143031334Y-101489501D01*
X142971322Y-101532281D01*
X142968924Y-101548434D01*
X142871077Y-101548434D01*
X142874431Y-101468732D01*
X142949674Y-101414623D01*
X143051448Y-101434141D01*
X143079029Y-101456511D01*
X143128229Y-101552014D01*
X143119750Y-101601711D01*
X143027595Y-101662618D01*
X142921577Y-101638030D01*
X142870087Y-101571952D01*
X142871077Y-101548434D01*
G37*
G36*
X142224085Y-103021752D02*
G01*
X142320664Y-103021752D01*
X142340771Y-103079152D01*
X142346652Y-103080684D01*
X142396967Y-103039388D01*
X142409063Y-103021752D01*
X142404390Y-102967446D01*
X142383074Y-102962819D01*
X142323062Y-103005599D01*
X142320664Y-103021752D01*
X142224085Y-103021752D01*
X142223582Y-102936455D01*
X142249944Y-102892100D01*
X142350247Y-102854280D01*
X142446955Y-102894113D01*
X142488558Y-102986754D01*
X142486407Y-103006163D01*
X142425586Y-103100170D01*
X142325717Y-103127522D01*
X142238870Y-103079192D01*
X142224261Y-103051612D01*
X142224085Y-103021752D01*
G37*
G36*
X141010827Y-95800145D02*
G01*
X141165042Y-95862134D01*
X141340961Y-95941561D01*
X141510766Y-96026497D01*
X141646639Y-96105008D01*
X141649163Y-96106656D01*
X141812321Y-96253197D01*
X141970976Y-96462076D01*
X142108166Y-96701201D01*
X142206931Y-96938480D01*
X142250306Y-97141823D01*
X142243514Y-97231136D01*
X142221092Y-97303201D01*
X142211733Y-97260037D01*
X142209635Y-97229653D01*
X142148723Y-97005971D01*
X142005744Y-96749767D01*
X141801478Y-96486089D01*
X141556710Y-96239983D01*
X141292220Y-96036495D01*
X141151867Y-95954855D01*
X141000176Y-95869325D01*
X140897370Y-95796373D01*
X140878783Y-95776216D01*
X140906135Y-95767529D01*
X141010827Y-95800145D01*
G37*
G36*
X141800608Y-98631264D02*
G01*
X141867463Y-98631264D01*
X141870538Y-98787817D01*
X141879173Y-98856677D01*
X141891311Y-98823851D01*
X141901567Y-98644660D01*
X141891912Y-98470255D01*
X141879866Y-98421675D01*
X141871093Y-98478596D01*
X141867468Y-98628663D01*
X141867463Y-98631264D01*
X141800608Y-98631264D01*
X141800768Y-98615315D01*
X141802352Y-98567762D01*
X141814745Y-98330905D01*
X141834471Y-98187446D01*
X141868018Y-98112920D01*
X141921879Y-98082862D01*
X141931549Y-98080783D01*
X141984717Y-98078522D01*
X142015336Y-98111321D01*
X142026942Y-98200929D01*
X142023071Y-98369101D01*
X142011386Y-98571954D01*
X141985036Y-98850410D01*
X141947617Y-99052162D01*
X141902965Y-99166244D01*
X141854914Y-99181685D01*
X141819017Y-99122105D01*
X141804923Y-99023421D01*
X141798484Y-98842632D01*
X141800608Y-98631264D01*
G37*
G36*
X141277940Y-98953342D02*
G01*
X141352177Y-98953342D01*
X141354765Y-99072641D01*
X141369257Y-99093341D01*
X141377509Y-99073260D01*
X141404761Y-98932891D01*
X141424527Y-98728158D01*
X141430799Y-98577243D01*
X141430895Y-98367392D01*
X141423314Y-98270688D01*
X141409791Y-98282787D01*
X141392060Y-98399346D01*
X141371857Y-98616021D01*
X141362142Y-98749130D01*
X141352177Y-98953342D01*
X141277940Y-98953342D01*
X141278405Y-98932934D01*
X141290808Y-98686765D01*
X141314297Y-98374413D01*
X141340207Y-98166727D01*
X141370887Y-98050506D01*
X141408685Y-98012551D01*
X141410795Y-98012471D01*
X141467249Y-98021183D01*
X141503921Y-98059717D01*
X141523117Y-98146668D01*
X141527144Y-98300631D01*
X141518307Y-98540202D01*
X141505347Y-98774887D01*
X141477556Y-99120968D01*
X141440743Y-99352312D01*
X141393964Y-99471767D01*
X141336273Y-99482184D01*
X141289143Y-99426535D01*
X141276536Y-99344417D01*
X141272977Y-99171109D01*
X141277940Y-98953342D01*
G37*
G36*
X140782186Y-99312074D02*
G01*
X140851550Y-99312074D01*
X140858726Y-99409250D01*
X140868728Y-99421945D01*
X140880820Y-99356218D01*
X140895745Y-99199817D01*
X140911166Y-98979819D01*
X140919219Y-98837529D01*
X140927362Y-98620634D01*
X140926286Y-98478642D01*
X140916583Y-98427322D01*
X140904809Y-98454466D01*
X140886077Y-98573532D01*
X140870243Y-98749431D01*
X140858450Y-98951558D01*
X140851838Y-99149308D01*
X140851550Y-99312074D01*
X140782186Y-99312074D01*
X140785406Y-99184462D01*
X140795570Y-98910127D01*
X140808586Y-98642347D01*
X140823446Y-98412177D01*
X140826179Y-98377865D01*
X140849329Y-98152277D01*
X140876826Y-98023247D01*
X140915416Y-97969490D01*
X140956778Y-97965970D01*
X141004552Y-97993418D01*
X141031290Y-98068352D01*
X141040806Y-98214068D01*
X141036917Y-98453865D01*
X141036878Y-98455100D01*
X141017122Y-98936595D01*
X140991687Y-99305078D01*
X140959974Y-99565295D01*
X140921386Y-99721990D01*
X140875326Y-99779908D01*
X140869888Y-99780452D01*
X140791844Y-99754322D01*
X140782103Y-99736253D01*
X140777665Y-99628580D01*
X140779102Y-99434299D01*
X140782186Y-99312074D01*
G37*
G36*
X137132626Y-92764730D02*
G01*
X137283604Y-92764730D01*
X137314589Y-92775947D01*
X137426352Y-92750785D01*
X137466352Y-92737993D01*
X139256163Y-92737993D01*
X139285629Y-92767459D01*
X139315095Y-92737993D01*
X139285629Y-92708527D01*
X139256163Y-92737993D01*
X137466352Y-92737993D01*
X137503447Y-92726130D01*
X137707600Y-92675669D01*
X137958863Y-92639985D01*
X138106514Y-92630233D01*
X138371063Y-92631980D01*
X138669488Y-92647331D01*
X138843634Y-92662995D01*
X139038416Y-92681922D01*
X139127078Y-92681849D01*
X139119969Y-92661865D01*
X139079364Y-92642221D01*
X138873866Y-92586435D01*
X138593132Y-92552877D01*
X138277810Y-92542250D01*
X137968550Y-92555253D01*
X137705997Y-92592589D01*
X137615574Y-92616963D01*
X137441401Y-92681256D01*
X137318626Y-92738581D01*
X137283604Y-92764730D01*
X137132626Y-92764730D01*
X137345827Y-92628959D01*
X137501172Y-92543880D01*
X137559239Y-92497139D01*
X137529934Y-92478035D01*
X137487792Y-92475540D01*
X137326470Y-92490250D01*
X137142215Y-92529549D01*
X137138099Y-92530721D01*
X136976198Y-92568944D01*
X136918628Y-92562882D01*
X136962198Y-92516533D01*
X137103715Y-92433894D01*
X137287850Y-92343147D01*
X137726314Y-92192473D01*
X138164948Y-92145739D01*
X138583546Y-92203772D01*
X138799434Y-92281328D01*
X138979891Y-92349532D01*
X139064985Y-92350271D01*
X139060567Y-92325464D01*
X139522821Y-92325464D01*
X139766323Y-92620127D01*
X139975992Y-92908089D01*
X140159841Y-93223683D01*
X140294733Y-93524503D01*
X140340855Y-93673137D01*
X140378537Y-93782100D01*
X140412964Y-93810763D01*
X140413671Y-93810106D01*
X140416089Y-93740619D01*
X140388751Y-93594893D01*
X140353513Y-93460870D01*
X140179022Y-93044917D01*
X139920551Y-92679620D01*
X139728355Y-92494282D01*
X139522821Y-92325464D01*
X139060567Y-92325464D01*
X139053354Y-92284959D01*
X138943642Y-92155010D01*
X138932043Y-92143318D01*
X138784721Y-91995997D01*
X139005709Y-92035600D01*
X139407470Y-92158842D01*
X139770783Y-92368187D01*
X140075084Y-92645712D01*
X140299809Y-92973496D01*
X140407914Y-93257622D01*
X140451193Y-93372824D01*
X140492922Y-93415719D01*
X140576815Y-93365202D01*
X140654021Y-93242250D01*
X140684479Y-93150522D01*
X140709680Y-93100502D01*
X140752418Y-93137043D01*
X140824110Y-93271182D01*
X140836858Y-93297854D01*
X140928884Y-93581595D01*
X140962698Y-93892459D01*
X140934470Y-94178113D01*
X140907737Y-94266407D01*
X140876490Y-94383563D01*
X140909824Y-94407815D01*
X141011580Y-94339590D01*
X141073982Y-94284977D01*
X141168199Y-94205481D01*
X141195639Y-94206260D01*
X141180913Y-94260330D01*
X141147267Y-94395357D01*
X141142009Y-94451692D01*
X141104829Y-94541004D01*
X141010027Y-94676070D01*
X140940773Y-94757846D01*
X140822145Y-94901943D01*
X140778404Y-95000590D01*
X140796146Y-95086416D01*
X140801490Y-95096879D01*
X140979694Y-95338596D01*
X141246534Y-95548639D01*
X141436673Y-95656035D01*
X141834882Y-95922401D01*
X142168996Y-96272362D01*
X142409697Y-96670233D01*
X142503260Y-96936941D01*
X142578166Y-97267566D01*
X142629727Y-97623983D01*
X142653255Y-97968070D01*
X142644064Y-98261705D01*
X142621720Y-98394559D01*
X142564315Y-98566945D01*
X142464651Y-98812768D01*
X142336672Y-99101860D01*
X142194320Y-99404052D01*
X142051537Y-99689177D01*
X141922266Y-99927067D01*
X141882496Y-99994071D01*
X141733456Y-100237156D01*
X141903560Y-100471977D01*
X142101181Y-100692961D01*
X142352107Y-100871094D01*
X142681885Y-101022466D01*
X142895772Y-101096829D01*
X143111899Y-101175527D01*
X143246966Y-101260814D01*
X143311017Y-101376757D01*
X143314093Y-101547424D01*
X143266238Y-101796886D01*
X143237296Y-101915326D01*
X143023963Y-102527060D01*
X142703930Y-103090832D01*
X142279292Y-103604021D01*
X141752143Y-104064007D01*
X141257285Y-104392363D01*
X141014352Y-104530689D01*
X140795117Y-104647149D01*
X140627422Y-104727421D01*
X140551460Y-104755439D01*
X140427113Y-104750785D01*
X140240267Y-104688072D01*
X140051131Y-104597891D01*
X140450747Y-104597891D01*
X140485132Y-104611143D01*
X140573370Y-104585879D01*
X140732409Y-104517560D01*
X140929937Y-104420227D01*
X140956593Y-104406261D01*
X141544625Y-104048217D01*
X142053922Y-103639565D01*
X142472792Y-103191538D01*
X142789542Y-102715370D01*
X142857766Y-102579756D01*
X142967672Y-102319940D01*
X143062042Y-102050432D01*
X143135577Y-101793426D01*
X143182978Y-101571115D01*
X143198947Y-101405693D01*
X143178186Y-101319353D01*
X143160455Y-101311898D01*
X143072784Y-101297337D01*
X142992000Y-101277740D01*
X142923833Y-101271783D01*
X142873598Y-101312567D01*
X142827713Y-101422319D01*
X142772594Y-101623263D01*
X142766798Y-101646257D01*
X142558473Y-102241043D01*
X142248104Y-102778684D01*
X141838860Y-103255162D01*
X141333913Y-103666456D01*
X141019897Y-103861539D01*
X140799972Y-103984783D01*
X140616632Y-104086220D01*
X140495554Y-104151710D01*
X140464283Y-104167516D01*
X140457527Y-104213041D01*
X140508483Y-104258846D01*
X140593553Y-104348717D01*
X140611615Y-104406670D01*
X140565856Y-104501818D01*
X140508483Y-104549282D01*
X140450747Y-104597891D01*
X140051131Y-104597891D01*
X139975853Y-104561998D01*
X139923005Y-104534358D01*
X139718808Y-104410732D01*
X140267217Y-104410732D01*
X140277810Y-104461642D01*
X140325001Y-104546589D01*
X140352404Y-104519038D01*
X140354309Y-104436137D01*
X140434817Y-104436137D01*
X140454924Y-104493537D01*
X140460805Y-104495069D01*
X140511120Y-104453773D01*
X140523216Y-104436137D01*
X140518543Y-104381831D01*
X140497228Y-104377204D01*
X140437215Y-104419984D01*
X140434817Y-104436137D01*
X140354309Y-104436137D01*
X140354917Y-104409677D01*
X140331920Y-104317908D01*
X140294393Y-104317317D01*
X140267217Y-104410732D01*
X139718808Y-104410732D01*
X139286509Y-104149007D01*
X139131545Y-104023608D01*
X139609759Y-104023608D01*
X139651431Y-104122102D01*
X139727624Y-104141473D01*
X139826119Y-104099801D01*
X139845490Y-104023608D01*
X139803818Y-103925113D01*
X139727624Y-103905742D01*
X139629130Y-103947414D01*
X139609759Y-104023608D01*
X139131545Y-104023608D01*
X138876649Y-103817343D01*
X140140153Y-103817343D01*
X140169620Y-103846810D01*
X140199086Y-103817343D01*
X140169620Y-103787877D01*
X140140153Y-103817343D01*
X138876649Y-103817343D01*
X138756297Y-103719953D01*
X138605586Y-103552146D01*
X138961499Y-103552146D01*
X138988417Y-103646657D01*
X139088545Y-103660136D01*
X139094098Y-103659377D01*
X139197769Y-103611210D01*
X139226696Y-103552146D01*
X139176531Y-103475907D01*
X139094098Y-103444915D01*
X138990665Y-103455817D01*
X138961530Y-103546871D01*
X138961499Y-103552146D01*
X138605586Y-103552146D01*
X138327392Y-103242396D01*
X138170776Y-102992402D01*
X138440431Y-102992402D01*
X138480265Y-103089110D01*
X138572905Y-103130713D01*
X138592315Y-103128563D01*
X138690669Y-103060604D01*
X138714714Y-103006163D01*
X138687754Y-102906955D01*
X138596844Y-102856287D01*
X138493496Y-102879007D01*
X138478251Y-102892100D01*
X138440431Y-102992402D01*
X138170776Y-102992402D01*
X137994816Y-102711530D01*
X137958560Y-102638689D01*
X137840170Y-102362026D01*
X137837198Y-102353326D01*
X138039072Y-102353326D01*
X138121106Y-102420184D01*
X138198852Y-102432424D01*
X138294868Y-102389068D01*
X138313239Y-102314559D01*
X138267866Y-102225211D01*
X138168259Y-102192879D01*
X138069183Y-102229732D01*
X138048042Y-102255626D01*
X138039072Y-102353326D01*
X137837198Y-102353326D01*
X137739131Y-102066225D01*
X137662548Y-101779702D01*
X137621351Y-101552014D01*
X137800338Y-101552014D01*
X137808816Y-101601711D01*
X137900971Y-101662618D01*
X138006990Y-101638030D01*
X138058479Y-101571952D01*
X138057721Y-101553941D01*
X138258612Y-101553941D01*
X138278733Y-101686155D01*
X138338175Y-101888122D01*
X138423811Y-102124044D01*
X138522514Y-102358122D01*
X138621157Y-102554556D01*
X138633047Y-102575047D01*
X138824791Y-102836785D01*
X139092564Y-103117924D01*
X139405386Y-103388450D01*
X139667348Y-103577117D01*
X139829079Y-103675958D01*
X139963960Y-103747130D01*
X140055203Y-103784745D01*
X140086021Y-103782915D01*
X140039626Y-103735755D01*
X139965428Y-103681653D01*
X139505412Y-103343022D01*
X139277580Y-103141547D01*
X140444270Y-103141547D01*
X140444702Y-103465427D01*
X140450297Y-103696909D01*
X140461677Y-103848693D01*
X140479466Y-103933480D01*
X140504287Y-103963972D01*
X140509774Y-103964675D01*
X140591349Y-103935245D01*
X140745556Y-103856357D01*
X140945770Y-103742111D01*
X141056074Y-103675356D01*
X141580159Y-103300714D01*
X141998187Y-102885696D01*
X142317829Y-102420894D01*
X142546752Y-101896898D01*
X142573428Y-101813631D01*
X142652839Y-101548615D01*
X142695863Y-101373065D01*
X142701708Y-101264085D01*
X142669581Y-101198777D01*
X142598687Y-101154246D01*
X142549853Y-101133195D01*
X142373957Y-101046532D01*
X142188844Y-100936208D01*
X142172653Y-100925374D01*
X141977576Y-100792992D01*
X141839723Y-100940815D01*
X141614098Y-101121169D01*
X141314082Y-101275813D01*
X140983010Y-101384834D01*
X140800196Y-101418535D01*
X140464283Y-101460459D01*
X140448378Y-102712567D01*
X140444270Y-103141547D01*
X139277580Y-103141547D01*
X139139826Y-103019729D01*
X138908961Y-102756554D01*
X139983558Y-102756554D01*
X139985797Y-102943023D01*
X139992117Y-103043177D01*
X140001362Y-103044152D01*
X140006193Y-103008576D01*
X140015732Y-102799358D01*
X140012013Y-102668155D01*
X140221372Y-102668155D01*
X140222933Y-102897434D01*
X140227198Y-103040170D01*
X140233545Y-103086430D01*
X140241350Y-103026283D01*
X140242637Y-103007018D01*
X140251098Y-102737242D01*
X140247993Y-102445414D01*
X140242637Y-102329292D01*
X140234663Y-102251948D01*
X140228052Y-102282536D01*
X140223427Y-102411121D01*
X140221411Y-102627773D01*
X140221372Y-102668155D01*
X140012013Y-102668155D01*
X140009246Y-102570546D01*
X140006582Y-102537114D01*
X139996548Y-102474590D01*
X139988703Y-102518955D01*
X139984196Y-102659239D01*
X139983558Y-102756554D01*
X138908961Y-102756554D01*
X138851052Y-102690541D01*
X138684740Y-102432424D01*
X139688505Y-102432424D01*
X139691065Y-102609498D01*
X139697885Y-102697664D01*
X139707681Y-102684626D01*
X139711622Y-102653422D01*
X139721158Y-102432134D01*
X139711622Y-102211427D01*
X139701081Y-102159593D01*
X139693060Y-102213320D01*
X139688844Y-102360310D01*
X139688505Y-102432424D01*
X138684740Y-102432424D01*
X138621469Y-102334227D01*
X138433459Y-101929554D01*
X138368908Y-101757720D01*
X138311012Y-101611993D01*
X138270754Y-101542602D01*
X138258612Y-101553941D01*
X138057721Y-101553941D01*
X138054136Y-101468732D01*
X137978892Y-101414623D01*
X137877118Y-101434141D01*
X137849537Y-101456511D01*
X137800338Y-101552014D01*
X137621351Y-101552014D01*
X137617526Y-101530874D01*
X137611169Y-101348157D01*
X137622697Y-101295382D01*
X137694394Y-101232095D01*
X137845065Y-101159830D01*
X137999954Y-101107114D01*
X138415921Y-100952260D01*
X138450045Y-100932073D01*
X139054082Y-100932073D01*
X139059651Y-100953567D01*
X139129886Y-101034208D01*
X139138297Y-101043495D01*
X139391951Y-101253361D01*
X139701765Y-101405741D01*
X140019599Y-101478286D01*
X140081221Y-101481266D01*
X140114013Y-101467839D01*
X140044476Y-101429587D01*
X139899056Y-101377742D01*
X139779578Y-101330034D01*
X140426669Y-101330034D01*
X140746781Y-101296995D01*
X140999062Y-101247171D01*
X141261469Y-101160102D01*
X141354915Y-101117901D01*
X141543004Y-101009137D01*
X141702583Y-100894086D01*
X141760803Y-100839642D01*
X141808470Y-100778029D01*
X141780398Y-100780795D01*
X141668516Y-100850567D01*
X141613471Y-100887628D01*
X141433949Y-100997848D01*
X141269190Y-101079786D01*
X141200942Y-101103738D01*
X141136001Y-101111695D01*
X141173035Y-101077135D01*
X141270789Y-101020467D01*
X141416636Y-100930690D01*
X141514680Y-100852601D01*
X141528509Y-100835679D01*
X141517008Y-100815102D01*
X141433269Y-100855901D01*
X141429196Y-100858458D01*
X141264862Y-100941420D01*
X141142009Y-100984313D01*
X141078720Y-100992269D01*
X141119164Y-100956214D01*
X141211857Y-100902601D01*
X141354697Y-100814833D01*
X141445251Y-100742730D01*
X141472518Y-100700910D01*
X141425497Y-100703990D01*
X141328221Y-100747974D01*
X141176476Y-100818873D01*
X141104573Y-100837738D01*
X141122064Y-100806227D01*
X141230408Y-100730996D01*
X141397820Y-100606055D01*
X141553527Y-100458883D01*
X141554538Y-100457764D01*
X141621492Y-100379132D01*
X141618352Y-100365510D01*
X141537012Y-100419869D01*
X141419563Y-100507225D01*
X141126081Y-100689885D01*
X140801647Y-100806593D01*
X140582149Y-100851991D01*
X140498060Y-100897098D01*
X140455483Y-101015437D01*
X140445476Y-101100861D01*
X140426669Y-101330034D01*
X139779578Y-101330034D01*
X139650486Y-101278487D01*
X139391345Y-101145461D01*
X139280262Y-101076638D01*
X139124010Y-100972254D01*
X139054082Y-100932073D01*
X138450045Y-100932073D01*
X138753176Y-100752747D01*
X138988968Y-100524968D01*
X139035893Y-100451814D01*
X139341528Y-100451814D01*
X139353413Y-100491612D01*
X139462855Y-100584642D01*
X139482322Y-100598695D01*
X139755467Y-100758738D01*
X140009537Y-100828145D01*
X140110687Y-100833563D01*
X140207254Y-100830123D01*
X140209533Y-100814462D01*
X140109639Y-100778074D01*
X140038366Y-100755514D01*
X139820080Y-100672363D01*
X139605183Y-100568453D01*
X139574210Y-100550797D01*
X139501552Y-100513167D01*
X140434817Y-100513167D01*
X140452421Y-100636583D01*
X140478076Y-100688058D01*
X140574902Y-100712002D01*
X140741671Y-100688160D01*
X140944697Y-100624903D01*
X141150293Y-100530599D01*
X141180639Y-100513501D01*
X141376397Y-100371811D01*
X141559425Y-100195819D01*
X141598012Y-100149562D01*
X141743822Y-99956640D01*
X141815077Y-99846416D01*
X141814195Y-99812327D01*
X141743597Y-99847814D01*
X141697778Y-99879032D01*
X141237514Y-100139825D01*
X140744214Y-100308724D01*
X140560756Y-100359795D01*
X140467042Y-100413224D01*
X140435978Y-100486915D01*
X140434817Y-100513167D01*
X139501552Y-100513167D01*
X139418145Y-100469970D01*
X139341528Y-100451814D01*
X139035893Y-100451814D01*
X139100209Y-100351547D01*
X139128574Y-100203859D01*
X139075025Y-100038997D01*
X139002675Y-99911880D01*
X138919258Y-99764499D01*
X139070037Y-99764499D01*
X139090558Y-99795759D01*
X139186868Y-99892714D01*
X139212402Y-99917117D01*
X139524736Y-100156487D01*
X139856894Y-100309134D01*
X140169620Y-100361958D01*
X140246481Y-100356177D01*
X140228729Y-100333119D01*
X140108484Y-100287269D01*
X140022288Y-100258844D01*
X139655271Y-100122309D01*
X139356756Y-99965606D01*
X139130629Y-99806156D01*
X139070037Y-99764499D01*
X138919258Y-99764499D01*
X138875981Y-99688038D01*
X138732771Y-99406266D01*
X138588772Y-99100771D01*
X138459709Y-98805759D01*
X138361309Y-98555436D01*
X138318991Y-98424742D01*
X138288184Y-98208467D01*
X138901849Y-98208467D01*
X138904875Y-98383373D01*
X138913115Y-98553998D01*
X138930480Y-98790946D01*
X138953854Y-98986550D01*
X138978983Y-99107668D01*
X138986395Y-99124797D01*
X139047871Y-99178785D01*
X139093454Y-99123401D01*
X139121113Y-98966319D01*
X139128816Y-98715213D01*
X139126097Y-98596970D01*
X139117111Y-98409424D01*
X139417302Y-98409424D01*
X139424209Y-98696103D01*
X139424997Y-98721123D01*
X139435688Y-98993062D01*
X139448484Y-99220891D01*
X139461708Y-99379257D01*
X139472674Y-99441589D01*
X139549161Y-99483957D01*
X139634194Y-99433741D01*
X139642484Y-99421584D01*
X139654761Y-99340020D01*
X139658060Y-99167171D01*
X139652471Y-98929265D01*
X139639950Y-98681761D01*
X139619560Y-98388575D01*
X139599395Y-98194763D01*
X139575546Y-98081908D01*
X139569953Y-98072958D01*
X139877962Y-98072958D01*
X139879192Y-98239619D01*
X139887462Y-98471744D01*
X139901171Y-98743354D01*
X139918718Y-99028471D01*
X139938505Y-99301117D01*
X139958929Y-99535314D01*
X139978392Y-99705083D01*
X139995294Y-99784447D01*
X139995443Y-99784694D01*
X140062657Y-99809998D01*
X140111144Y-99780073D01*
X140152857Y-99704249D01*
X140170331Y-99554248D01*
X140165501Y-99310646D01*
X140162780Y-99261550D01*
X140136320Y-98830282D01*
X140133617Y-98791935D01*
X140434817Y-98791935D01*
X140436232Y-99183758D01*
X140440204Y-99535366D01*
X140446320Y-99829914D01*
X140454170Y-100050558D01*
X140463342Y-100180453D01*
X140469407Y-100207927D01*
X140544811Y-100212974D01*
X140697309Y-100181734D01*
X140895376Y-100123674D01*
X141107486Y-100048265D01*
X141302112Y-99964977D01*
X141339152Y-99946689D01*
X141672790Y-99717419D01*
X141976598Y-99394538D01*
X142233287Y-99001630D01*
X142425570Y-98562282D01*
X142476166Y-98395533D01*
X142529792Y-98190073D01*
X142548389Y-98053308D01*
X142515518Y-97968344D01*
X142414740Y-97918287D01*
X142229619Y-97886240D01*
X141951309Y-97856109D01*
X141636298Y-97815448D01*
X141360188Y-97759134D01*
X141084477Y-97676144D01*
X140770664Y-97555452D01*
X140508483Y-97442974D01*
X140484206Y-97456377D01*
X140465550Y-97528046D01*
X140451906Y-97669116D01*
X140442666Y-97890725D01*
X140437222Y-98204008D01*
X140434966Y-98620102D01*
X140434817Y-98791935D01*
X140133617Y-98791935D01*
X140113258Y-98503164D01*
X140091810Y-98266594D01*
X140070194Y-98106969D01*
X140046625Y-98010688D01*
X140019320Y-97964149D01*
X139991271Y-97953538D01*
X139900572Y-97981477D01*
X139885371Y-97997738D01*
X139877962Y-98072958D01*
X139569953Y-98072958D01*
X139544102Y-98031591D01*
X139501153Y-98025394D01*
X139500615Y-98025500D01*
X139458803Y-98047018D01*
X139432428Y-98104860D01*
X139419318Y-98219002D01*
X139417302Y-98409424D01*
X139117111Y-98409424D01*
X139114341Y-98351604D01*
X139096109Y-98200389D01*
X139065516Y-98119610D01*
X139016673Y-98085556D01*
X138998004Y-98080985D01*
X138944453Y-98079345D01*
X138913722Y-98114481D01*
X138901849Y-98208467D01*
X138288184Y-98208467D01*
X138280923Y-98157489D01*
X138282407Y-97819348D01*
X138292663Y-97715622D01*
X138696302Y-97715622D01*
X139133510Y-97682699D01*
X139403598Y-97649223D01*
X139676254Y-97594414D01*
X139873695Y-97536420D01*
X140058712Y-97467252D01*
X140195014Y-97406137D01*
X140290180Y-97334806D01*
X140351790Y-97234993D01*
X140387422Y-97088430D01*
X140404657Y-96876850D01*
X140411073Y-96581985D01*
X140413825Y-96234624D01*
X140415205Y-95869596D01*
X140412220Y-95619781D01*
X140404730Y-95482601D01*
X140392592Y-95455480D01*
X140375665Y-95535840D01*
X140375454Y-95537297D01*
X140349640Y-95774302D01*
X140330317Y-96059536D01*
X140322780Y-96280464D01*
X140313936Y-96542864D01*
X140296788Y-96804338D01*
X140278474Y-96980223D01*
X140246412Y-97153869D01*
X140189129Y-97256734D01*
X140072972Y-97332985D01*
X139975386Y-97377995D01*
X139790414Y-97446263D01*
X139537571Y-97522174D01*
X139264822Y-97591599D01*
X139203538Y-97605333D01*
X138696302Y-97715622D01*
X138292663Y-97715622D01*
X138318669Y-97452610D01*
X138551423Y-97452610D01*
X138608258Y-97231372D01*
X138670756Y-97043755D01*
X138763401Y-96823937D01*
X138808861Y-96730444D01*
X139084705Y-96317320D01*
X139458976Y-95963964D01*
X139462427Y-95961323D01*
X139639225Y-95826249D01*
X139448489Y-95918606D01*
X139117872Y-96138697D01*
X138849586Y-96437004D01*
X138661861Y-96787292D01*
X138572926Y-97163326D01*
X138571519Y-97180708D01*
X138551423Y-97452610D01*
X138318669Y-97452610D01*
X138319046Y-97448793D01*
X138386442Y-97084300D01*
X138480197Y-96764346D01*
X138519939Y-96666619D01*
X138714431Y-96335248D01*
X138977483Y-96029280D01*
X139276620Y-95782288D01*
X139492077Y-95661587D01*
X139782447Y-95487020D01*
X140022420Y-95253886D01*
X140127101Y-95097122D01*
X140139456Y-95038393D01*
X140552682Y-95038393D01*
X140552682Y-96160984D01*
X140552682Y-97283574D01*
X140780041Y-97411357D01*
X141164201Y-97574908D01*
X141613042Y-97679198D01*
X142036762Y-97713929D01*
X142253714Y-97711078D01*
X142380362Y-97692807D01*
X142443935Y-97652551D01*
X142464555Y-97610783D01*
X142475093Y-97460247D01*
X142446868Y-97241591D01*
X142388376Y-96994671D01*
X142308112Y-96759344D01*
X142260898Y-96655385D01*
X142009713Y-96279896D01*
X141681933Y-95970133D01*
X141399348Y-95796068D01*
X141136236Y-95631173D01*
X140882714Y-95411064D01*
X140815293Y-95338596D01*
X140552682Y-95038393D01*
X140139456Y-95038393D01*
X140155659Y-94961370D01*
X140108535Y-94825943D01*
X139937818Y-94614604D01*
X139700691Y-94484312D01*
X139422818Y-94442532D01*
X139129863Y-94496729D01*
X139065365Y-94522527D01*
X138809130Y-94688176D01*
X138632314Y-94928106D01*
X138528829Y-95252220D01*
X138503865Y-95435647D01*
X138484452Y-95632515D01*
X138467355Y-95725855D01*
X138444574Y-95729555D01*
X138408109Y-95657500D01*
X138394381Y-95625696D01*
X138335181Y-95395415D01*
X138318833Y-95117334D01*
X138344542Y-94844771D01*
X138367514Y-94770399D01*
X138532646Y-94770399D01*
X138595776Y-94721703D01*
X138676376Y-94640907D01*
X138831038Y-94498608D01*
X138985565Y-94389650D01*
X139043758Y-94360977D01*
X139358365Y-94302372D01*
X139692925Y-94350151D01*
X139928765Y-94447326D01*
X140074028Y-94518005D01*
X140159275Y-94546397D01*
X140169275Y-94534883D01*
X140153921Y-94521737D01*
X140679855Y-94521737D01*
X140709255Y-94494573D01*
X140722359Y-94476508D01*
X140770588Y-94368998D01*
X140822423Y-94195081D01*
X140845780Y-94093445D01*
X140874355Y-93860556D01*
X140865360Y-93660219D01*
X140856908Y-93621984D01*
X140830976Y-93549547D01*
X140811494Y-93557875D01*
X140794777Y-93658966D01*
X140777145Y-93864818D01*
X140775512Y-93887181D01*
X140754339Y-94119437D01*
X140728564Y-94317348D01*
X140703467Y-94441009D01*
X140701454Y-94447042D01*
X140679855Y-94521737D01*
X140153921Y-94521737D01*
X140097565Y-94473486D01*
X139959950Y-94388642D01*
X139890320Y-94351448D01*
X139603374Y-94257164D01*
X139299086Y-94243522D01*
X139014277Y-94307231D01*
X138785767Y-94444996D01*
X138779569Y-94450806D01*
X138648060Y-94589343D01*
X138548890Y-94716918D01*
X138533948Y-94741705D01*
X138532646Y-94770399D01*
X138367514Y-94770399D01*
X138409136Y-94635646D01*
X138505033Y-94447042D01*
X138342690Y-94594373D01*
X138207193Y-94747355D01*
X138104037Y-94913483D01*
X138101768Y-94918503D01*
X138048306Y-95032640D01*
X138026554Y-95044146D01*
X138021391Y-94958554D01*
X138021245Y-94947970D01*
X138047503Y-94787920D01*
X138107338Y-94631836D01*
X138168276Y-94505752D01*
X138195296Y-94431567D01*
X138195374Y-94430032D01*
X138165051Y-94426398D01*
X138089435Y-94492679D01*
X137991553Y-94602750D01*
X137894432Y-94730481D01*
X137821101Y-94849745D01*
X137815631Y-94860897D01*
X137752616Y-95081515D01*
X137727510Y-95367058D01*
X137740557Y-95670765D01*
X137792000Y-95945877D01*
X137809697Y-96001349D01*
X137856393Y-96147709D01*
X137874487Y-96234352D01*
X137871114Y-96244489D01*
X137830401Y-96198178D01*
X137751795Y-96079142D01*
X137687679Y-95973063D01*
X137572702Y-95696935D01*
X137506546Y-95369523D01*
X137493201Y-95035542D01*
X137509519Y-94924452D01*
X137570330Y-94924452D01*
X137611219Y-94876766D01*
X137696084Y-94721876D01*
X137914386Y-94405118D01*
X138129518Y-94207770D01*
X138352198Y-94067381D01*
X138608667Y-93937520D01*
X138725768Y-93889429D01*
X138884130Y-93828105D01*
X138933079Y-93799521D01*
X138875764Y-93801466D01*
X138843634Y-93806736D01*
X138624260Y-93871644D01*
X138366567Y-93985452D01*
X138123494Y-94122470D01*
X137983873Y-94223947D01*
X137801649Y-94421993D01*
X137652011Y-94660227D01*
X137574326Y-94863165D01*
X137570330Y-94924452D01*
X137509519Y-94924452D01*
X137536654Y-94739713D01*
X137569279Y-94645687D01*
X137778370Y-94298453D01*
X138083253Y-93995446D01*
X138249953Y-93877274D01*
X138407835Y-93771246D01*
X138462896Y-93720279D01*
X138417159Y-93725580D01*
X138272646Y-93788357D01*
X138178293Y-93834496D01*
X137871462Y-94032632D01*
X137591917Y-94293858D01*
X137380654Y-94578822D01*
X137356006Y-94623840D01*
X137247965Y-94934407D01*
X137202583Y-95299989D01*
X137221593Y-95674706D01*
X137303856Y-96005246D01*
X137366017Y-96180799D01*
X137401206Y-96306473D01*
X137403579Y-96348736D01*
X137363968Y-96317337D01*
X137289777Y-96210129D01*
X137198552Y-96057016D01*
X137107837Y-95887903D01*
X137035176Y-95732695D01*
X137020352Y-95695525D01*
X136956123Y-95386423D01*
X136964008Y-95029177D01*
X137037273Y-94663254D01*
X137169184Y-94328119D01*
X137285318Y-94142680D01*
X137359185Y-94031973D01*
X137373359Y-93978382D01*
X137357828Y-93979035D01*
X137256233Y-94060096D01*
X137125835Y-94217534D01*
X136987525Y-94420852D01*
X136862196Y-94639551D01*
X136776523Y-94827587D01*
X136688387Y-95181415D01*
X136658801Y-95596395D01*
X136686982Y-96031836D01*
X136772143Y-96447049D01*
X136810022Y-96565384D01*
X136877734Y-96765132D01*
X136923584Y-96915784D01*
X136938927Y-96988612D01*
X136938104Y-96991009D01*
X136893468Y-96965813D01*
X136819188Y-96854961D01*
X136727160Y-96683097D01*
X136629279Y-96474866D01*
X136537442Y-96254915D01*
X136463543Y-96047889D01*
X136434815Y-95948303D01*
X136322746Y-95507830D01*
X136301403Y-95920359D01*
X136280060Y-96332888D01*
X136199733Y-95982064D01*
X136159310Y-95562060D01*
X136212385Y-95109477D01*
X136325149Y-94725949D01*
X136494734Y-94725949D01*
X136503627Y-94740375D01*
X136564096Y-94652371D01*
X136673905Y-94459166D01*
X136679427Y-94448962D01*
X136827425Y-94214860D01*
X137018213Y-93965165D01*
X137174034Y-93792000D01*
X137582447Y-93462074D01*
X137873875Y-93312226D01*
X138637369Y-93312226D01*
X138970966Y-93361196D01*
X139412997Y-93473472D01*
X139792520Y-93666797D01*
X140024168Y-93859654D01*
X140164409Y-93999650D01*
X140233704Y-94054674D01*
X140238940Y-94028263D01*
X140201558Y-93950733D01*
X140032158Y-93740597D01*
X139778086Y-93554974D01*
X139472259Y-93410281D01*
X139147591Y-93322931D01*
X138906801Y-93305040D01*
X138637369Y-93312226D01*
X137873875Y-93312226D01*
X138051395Y-93220948D01*
X138553667Y-93082047D01*
X138637369Y-93069946D01*
X138845829Y-93043082D01*
X138944035Y-93026967D01*
X138938730Y-93018088D01*
X138836660Y-93012932D01*
X138751198Y-93010645D01*
X138284464Y-93056187D01*
X137835037Y-93209742D01*
X137417839Y-93461482D01*
X137047790Y-93801578D01*
X136739810Y-94220203D01*
X136640620Y-94400883D01*
X136539653Y-94611862D01*
X136494734Y-94725949D01*
X136325149Y-94725949D01*
X136348356Y-94647019D01*
X136556623Y-94197387D01*
X136826585Y-93783283D01*
X137147643Y-93427411D01*
X137509194Y-93152473D01*
X137525492Y-93142809D01*
X137672091Y-93053086D01*
X137765292Y-92988719D01*
X137782845Y-92970738D01*
X137733631Y-92975071D01*
X137609990Y-93011191D01*
X137550079Y-93031610D01*
X137141394Y-93218202D01*
X136811850Y-93467953D01*
X136549242Y-93794592D01*
X136341365Y-94211850D01*
X136239484Y-94505974D01*
X136131874Y-94859571D01*
X136152947Y-94447042D01*
X136233158Y-93987939D01*
X136417143Y-93550025D01*
X136690810Y-93154778D01*
X137040066Y-92823674D01*
X137132626Y-92764730D01*
G37*
X229552500Y-72390000D02*
X243522500Y-72390000D01*
X229552500Y-86360000D02*
X229552500Y-72390000D01*
X243522500Y-72390000D02*
X243522500Y-86360000D01*
X243522500Y-86360000D02*
X229552500Y-86360000D01*
X110490000Y-53340000D02*
X124460000Y-53340000D01*
X110490000Y-67310000D02*
X110490000Y-53340000D01*
X124460000Y-53340000D02*
X124460000Y-67310000D01*
X124460000Y-67310000D02*
X110490000Y-67310000D01*
X224790000Y-53340000D02*
X238760000Y-53340000D01*
X224790000Y-67310000D02*
X224790000Y-53340000D01*
X238760000Y-53340000D02*
X238760000Y-67310000D01*
X238760000Y-67310000D02*
X224790000Y-67310000D01*
X67627500Y-34290000D02*
X81597500Y-34290000D01*
X67627500Y-48260000D02*
X67627500Y-34290000D01*
X81597500Y-34290000D02*
X81597500Y-48260000D01*
X81597500Y-48260000D02*
X67627500Y-48260000D01*
X172402500Y-72390000D02*
X186372500Y-72390000D01*
X172402500Y-86360000D02*
X172402500Y-72390000D01*
X186372500Y-72390000D02*
X186372500Y-86360000D01*
X186372500Y-86360000D02*
X172402500Y-86360000D01*
X31908750Y-91440000D02*
X45878750Y-91440000D01*
X31908750Y-105410000D02*
X31908750Y-91440000D01*
X45878750Y-91440000D02*
X45878750Y-105410000D01*
X45878750Y-105410000D02*
X31908750Y-105410000D01*
X246221250Y-34290000D02*
X260191250Y-34290000D01*
X246221250Y-48260000D02*
X246221250Y-34290000D01*
X260191250Y-34290000D02*
X260191250Y-48260000D01*
X260191250Y-48260000D02*
X246221250Y-48260000D01*
X86677500Y-34290000D02*
X100647500Y-34290000D01*
X86677500Y-48260000D02*
X86677500Y-34290000D01*
X100647500Y-34290000D02*
X100647500Y-48260000D01*
X100647500Y-48260000D02*
X86677500Y-48260000D01*
X77152500Y-72390000D02*
X91122500Y-72390000D01*
X77152500Y-86360000D02*
X77152500Y-72390000D01*
X91122500Y-72390000D02*
X91122500Y-86360000D01*
X91122500Y-86360000D02*
X77152500Y-86360000D01*
X162877500Y-34290000D02*
X176847500Y-34290000D01*
X162877500Y-48260000D02*
X162877500Y-34290000D01*
X176847500Y-34290000D02*
X176847500Y-48260000D01*
X176847500Y-48260000D02*
X162877500Y-48260000D01*
X29527500Y-34290000D02*
X43497500Y-34290000D01*
X29527500Y-48260000D02*
X29527500Y-34290000D01*
X43497500Y-34290000D02*
X43497500Y-48260000D01*
X43497500Y-48260000D02*
X29527500Y-48260000D01*
D12*
X112871250Y-91440000D02*
X112871250Y-91440000D01*
X112871250Y-92640000D02*
X112871250Y-92640000D01*
X112871250Y-93840000D02*
X112871250Y-93840000D01*
X112871250Y-95040000D02*
X112871250Y-95040000D01*
X112871250Y-96240000D02*
X112871250Y-96240000D01*
X112871250Y-97440000D02*
X112871250Y-97440000D01*
X112871250Y-98640000D02*
X112871250Y-98640000D01*
X112871250Y-99840000D02*
X112871250Y-99840000D01*
X112871250Y-101040000D02*
X112871250Y-101040000D01*
X112871250Y-102240000D02*
X112871250Y-102240000D01*
X112871250Y-103440000D02*
X112871250Y-103440000D01*
X112871250Y-104640000D02*
X112871250Y-104640000D01*
X112871250Y-105410000D02*
X112871250Y-105410000D01*
X114071250Y-105410000D02*
X114071250Y-105410000D01*
X115271250Y-105410000D02*
X115271250Y-105410000D01*
X116471250Y-105410000D02*
X116471250Y-105410000D01*
X117671250Y-105410000D02*
X117671250Y-105410000D01*
X118871250Y-105410000D02*
X118871250Y-105410000D01*
X120071250Y-105410000D02*
X120071250Y-105410000D01*
X121271250Y-105410000D02*
X121271250Y-105410000D01*
X122471250Y-105410000D02*
X122471250Y-105410000D01*
X123671250Y-105410000D02*
X123671250Y-105410000D01*
X124871250Y-105410000D02*
X124871250Y-105410000D01*
X126071250Y-105410000D02*
X126071250Y-105410000D01*
X126841250Y-91440000D02*
X126841250Y-91440000D01*
X125641250Y-91440000D02*
X125641250Y-91440000D01*
X124441250Y-91440000D02*
X124441250Y-91440000D01*
X123241250Y-91440000D02*
X123241250Y-91440000D01*
X122041250Y-91440000D02*
X122041250Y-91440000D01*
X120841250Y-91440000D02*
X120841250Y-91440000D01*
X119641250Y-91440000D02*
X119641250Y-91440000D01*
X118441250Y-91440000D02*
X118441250Y-91440000D01*
X117241250Y-91440000D02*
X117241250Y-91440000D01*
X116041250Y-91440000D02*
X116041250Y-91440000D01*
X114841250Y-91440000D02*
X114841250Y-91440000D01*
X113641250Y-91440000D02*
X113641250Y-91440000D01*
X126841250Y-105410000D02*
X126841250Y-105410000D01*
X126841250Y-104210000D02*
X126841250Y-104210000D01*
X126841250Y-103010000D02*
X126841250Y-103010000D01*
X126841250Y-101810000D02*
X126841250Y-101810000D01*
X126841250Y-100610000D02*
X126841250Y-100610000D01*
X126841250Y-99410000D02*
X126841250Y-99410000D01*
X126841250Y-98210000D02*
X126841250Y-98210000D01*
X126841250Y-97010000D02*
X126841250Y-97010000D01*
X126841250Y-95810000D02*
X126841250Y-95810000D01*
X126841250Y-94610000D02*
X126841250Y-94610000D01*
X126841250Y-93410000D02*
X126841250Y-93410000D01*
X126841250Y-92210000D02*
X126841250Y-92210000D01*
D10*
X181927500Y-34290000D02*
X195897500Y-34290000D01*
X181927500Y-48260000D02*
X181927500Y-34290000D01*
X195897500Y-34290000D02*
X195897500Y-48260000D01*
X195897500Y-48260000D02*
X181927500Y-48260000D01*
X220027500Y-34290000D02*
X233997500Y-34290000D01*
X220027500Y-48260000D02*
X220027500Y-34290000D01*
X233997500Y-34290000D02*
X233997500Y-48260000D01*
X233997500Y-48260000D02*
X220027500Y-48260000D01*
X129540000Y-53340000D02*
X143510000Y-53340000D01*
X129540000Y-67310000D02*
X129540000Y-53340000D01*
X143510000Y-53340000D02*
X143510000Y-67310000D01*
X143510000Y-67310000D02*
X129540000Y-67310000D01*
X146202400Y-91440000D02*
X146202400Y-105410000D01*
X146202400Y-105410000D02*
X160172400Y-105410000D01*
X160172400Y-91440000D02*
X146202400Y-91440000D01*
X160172400Y-105410000D02*
X160172400Y-91440000D01*
X31908750Y-53340000D02*
X45878750Y-53340000D01*
X31908750Y-67310000D02*
X31908750Y-53340000D01*
X45878750Y-53340000D02*
X45878750Y-67310000D01*
X45878750Y-67310000D02*
X31908750Y-67310000D01*
X105727500Y-34290000D02*
X119697500Y-34290000D01*
X105727500Y-48260000D02*
X105727500Y-34290000D01*
X119697500Y-34290000D02*
X119697500Y-48260000D01*
X119697500Y-48260000D02*
X105727500Y-48260000D01*
D12*
X250983750Y-86360000D02*
X250983750Y-86360000D01*
X250983750Y-85160000D02*
X250983750Y-85160000D01*
X250983750Y-83960000D02*
X250983750Y-83960000D01*
X250983750Y-82760000D02*
X250983750Y-82760000D01*
X250983750Y-81560000D02*
X250983750Y-81560000D01*
X250983750Y-80360000D02*
X250983750Y-80360000D01*
X250983750Y-79160000D02*
X250983750Y-79160000D01*
X250983750Y-77960000D02*
X250983750Y-77960000D01*
X251467750Y-72390000D02*
X251467750Y-72390000D01*
X252667750Y-72390000D02*
X252667750Y-72390000D01*
X253867750Y-72390000D02*
X253867750Y-72390000D01*
X255067750Y-72390000D02*
X255067750Y-72390000D01*
X256267750Y-72390000D02*
X256267750Y-72390000D01*
X257467750Y-72390000D02*
X257467750Y-72390000D01*
X258667750Y-72390000D02*
X258667750Y-72390000D01*
X259867750Y-72390000D02*
X259867750Y-72390000D01*
X261067750Y-72390000D02*
X261067750Y-72390000D01*
X262267750Y-72390000D02*
X262267750Y-72390000D01*
X263467750Y-72390000D02*
X263467750Y-72390000D01*
X264667750Y-72390000D02*
X264667750Y-72390000D01*
X264953750Y-77602000D02*
X264953750Y-77602000D01*
X264953750Y-78802000D02*
X264953750Y-78802000D01*
X264953750Y-80002000D02*
X264953750Y-80002000D01*
X264953750Y-81202000D02*
X264953750Y-81202000D01*
X264953750Y-82402000D02*
X264953750Y-82402000D01*
X264953750Y-83602000D02*
X264953750Y-83602000D01*
X264953750Y-84802000D02*
X264953750Y-84802000D01*
X264953750Y-86002000D02*
X264953750Y-86002000D01*
X264953750Y-86360000D02*
X264953750Y-86360000D01*
X263753750Y-86360000D02*
X263753750Y-86360000D01*
X262553750Y-86360000D02*
X262553750Y-86360000D01*
X261353750Y-86360000D02*
X261353750Y-86360000D01*
X260153750Y-86360000D02*
X260153750Y-86360000D01*
X258953750Y-86360000D02*
X258953750Y-86360000D01*
X257753750Y-86360000D02*
X257753750Y-86360000D01*
X256553750Y-86360000D02*
X256553750Y-86360000D01*
X255353750Y-86360000D02*
X255353750Y-86360000D01*
X254153750Y-86360000D02*
X254153750Y-86360000D01*
X252953750Y-86360000D02*
X252953750Y-86360000D01*
X251753750Y-86360000D02*
X251753750Y-86360000D01*
D10*
X124777500Y-34290000D02*
X138747500Y-34290000D01*
X124777500Y-48260000D02*
X124777500Y-34290000D01*
X138747500Y-34290000D02*
X138747500Y-48260000D01*
X138747500Y-48260000D02*
X124777500Y-48260000D01*
D12*
X160496250Y-91440000D02*
X160496250Y-91440000D01*
X161696250Y-91440000D02*
X161696250Y-91440000D01*
X162896250Y-91440000D02*
X162896250Y-91440000D01*
X164096250Y-91440000D02*
X164096250Y-91440000D01*
X165296250Y-91440000D02*
X165296250Y-91440000D01*
X166496250Y-91440000D02*
X166496250Y-91440000D01*
X167696250Y-91440000D02*
X167696250Y-91440000D01*
X168896250Y-91440000D02*
X168896250Y-91440000D01*
X170096250Y-91440000D02*
X170096250Y-91440000D01*
X171296250Y-91440000D02*
X171296250Y-91440000D01*
X172496250Y-91440000D02*
X172496250Y-91440000D01*
X173696250Y-91440000D02*
X173696250Y-91440000D01*
X160496250Y-105410000D02*
X160496250Y-105410000D01*
X160496250Y-104210000D02*
X160496250Y-104210000D01*
X160496250Y-103010000D02*
X160496250Y-103010000D01*
X160496250Y-101810000D02*
X160496250Y-101810000D01*
X160496250Y-100610000D02*
X160496250Y-100610000D01*
X160496250Y-99410000D02*
X160496250Y-99410000D01*
X160496250Y-98210000D02*
X160496250Y-98210000D01*
X160496250Y-97010000D02*
X160496250Y-97010000D01*
X160496250Y-95810000D02*
X160496250Y-95810000D01*
X160496250Y-94610000D02*
X160496250Y-94610000D01*
X160496250Y-93410000D02*
X160496250Y-93410000D01*
X160496250Y-92210000D02*
X160496250Y-92210000D01*
X174466250Y-91440000D02*
X174466250Y-91440000D01*
X174466250Y-92640000D02*
X174466250Y-92640000D01*
X174466250Y-93840000D02*
X174466250Y-93840000D01*
X174466250Y-95040000D02*
X174466250Y-95040000D01*
X174466250Y-96240000D02*
X174466250Y-96240000D01*
X174466250Y-97440000D02*
X174466250Y-97440000D01*
X174466250Y-98640000D02*
X174466250Y-98640000D01*
X174466250Y-99840000D02*
X174466250Y-99840000D01*
X174466250Y-101040000D02*
X174466250Y-101040000D01*
X174466250Y-102240000D02*
X174466250Y-102240000D01*
X174466250Y-103440000D02*
X174466250Y-103440000D01*
X174466250Y-104640000D02*
X174466250Y-104640000D01*
X174466250Y-105410000D02*
X174466250Y-105410000D01*
X173266250Y-105410000D02*
X173266250Y-105410000D01*
X172066250Y-105410000D02*
X172066250Y-105410000D01*
X170866250Y-105410000D02*
X170866250Y-105410000D01*
X169666250Y-105410000D02*
X169666250Y-105410000D01*
X168466250Y-105410000D02*
X168466250Y-105410000D01*
X167266250Y-105410000D02*
X167266250Y-105410000D01*
X166066250Y-105410000D02*
X166066250Y-105410000D01*
X164866250Y-105410000D02*
X164866250Y-105410000D01*
X163666250Y-105410000D02*
X163666250Y-105410000D01*
X162466250Y-105410000D02*
X162466250Y-105410000D01*
X161266250Y-105410000D02*
X161266250Y-105410000D01*
D10*
X115252500Y-72390000D02*
X129222500Y-72390000D01*
X115252500Y-86360000D02*
X115252500Y-72390000D01*
X129222500Y-72390000D02*
X129222500Y-86360000D01*
X129222500Y-86360000D02*
X115252500Y-86360000D01*
X250983750Y-62865000D02*
X264953750Y-62865000D01*
X250983750Y-76835000D02*
X250983750Y-62865000D01*
X264953750Y-62865000D02*
X264953750Y-76835000D01*
X264953750Y-76835000D02*
X250983750Y-76835000D01*
X205740000Y-53340000D02*
X219710000Y-53340000D01*
X205740000Y-67310000D02*
X205740000Y-53340000D01*
X219710000Y-53340000D02*
X219710000Y-67310000D01*
X219710000Y-67310000D02*
X205740000Y-67310000D01*
X186690000Y-53340000D02*
X200660000Y-53340000D01*
X186690000Y-67310000D02*
X186690000Y-53340000D01*
X200660000Y-53340000D02*
X200660000Y-67310000D01*
X200660000Y-67310000D02*
X186690000Y-67310000D01*
X53340000Y-53340000D02*
X67310000Y-53340000D01*
X53340000Y-67310000D02*
X53340000Y-53340000D01*
X67310000Y-53340000D02*
X67310000Y-67310000D01*
X67310000Y-67310000D02*
X53340000Y-67310000D01*
X215265000Y-91440000D02*
X229235000Y-91440000D01*
X215265000Y-105410000D02*
X215265000Y-91440000D01*
X229235000Y-91440000D02*
X229235000Y-105410000D01*
X229235000Y-105410000D02*
X215265000Y-105410000D01*
D12*
X248602500Y-53340000D02*
X248602500Y-53340000D01*
X249802500Y-53340000D02*
X249802500Y-53340000D01*
X251002500Y-53340000D02*
X251002500Y-53340000D01*
X252202500Y-53340000D02*
X252202500Y-53340000D01*
X253402500Y-53340000D02*
X253402500Y-53340000D01*
X254602500Y-53340000D02*
X254602500Y-53340000D01*
X255802500Y-53340000D02*
X255802500Y-53340000D01*
X257002500Y-53340000D02*
X257002500Y-53340000D01*
X258202500Y-53340000D02*
X258202500Y-53340000D01*
X259402500Y-53340000D02*
X259402500Y-53340000D01*
X260602500Y-53340000D02*
X260602500Y-53340000D01*
X261802500Y-53340000D02*
X261802500Y-53340000D01*
X248602500Y-67310000D02*
X248602500Y-67310000D01*
X248602500Y-66110000D02*
X248602500Y-66110000D01*
X248602500Y-64910000D02*
X248602500Y-64910000D01*
X248602500Y-63710000D02*
X248602500Y-63710000D01*
X248602500Y-62510000D02*
X248602500Y-62510000D01*
X248602500Y-61310000D02*
X248602500Y-61310000D01*
X248602500Y-60110000D02*
X248602500Y-60110000D01*
X248602500Y-58910000D02*
X248602500Y-58910000D01*
X248602500Y-57710000D02*
X248602500Y-57710000D01*
X248602500Y-56510000D02*
X248602500Y-56510000D01*
X248602500Y-55310000D02*
X248602500Y-55310000D01*
X248602500Y-54110000D02*
X248602500Y-54110000D01*
X262572500Y-53340000D02*
X262572500Y-53340000D01*
X262572500Y-54540000D02*
X262572500Y-54540000D01*
X262572500Y-55740000D02*
X262572500Y-55740000D01*
X262572500Y-56940000D02*
X262572500Y-56940000D01*
X262572500Y-58140000D02*
X262572500Y-58140000D01*
X262572500Y-59340000D02*
X262572500Y-59340000D01*
X262572500Y-60540000D02*
X262572500Y-60540000D01*
X262572500Y-61740000D02*
X262572500Y-61740000D01*
X262572500Y-63871000D02*
X262572500Y-63871000D01*
X262572500Y-65071000D02*
X262572500Y-65071000D01*
X262572500Y-66271000D02*
X262572500Y-66271000D01*
X262572500Y-67310000D02*
X262572500Y-67310000D01*
X261372500Y-67310000D02*
X261372500Y-67310000D01*
X260172500Y-67310000D02*
X260172500Y-67310000D01*
X258972500Y-67310000D02*
X258972500Y-67310000D01*
X257772500Y-67310000D02*
X257772500Y-67310000D01*
X256572500Y-67310000D02*
X256572500Y-67310000D01*
X255372500Y-67310000D02*
X255372500Y-67310000D01*
X254172500Y-67310000D02*
X254172500Y-67310000D01*
X252972500Y-67310000D02*
X252972500Y-67310000D01*
X251772500Y-67310000D02*
X251772500Y-67310000D01*
X250572500Y-67310000D02*
X250572500Y-67310000D01*
X249372500Y-67310000D02*
X249372500Y-67310000D01*
D10*
X148590000Y-53340000D02*
X162560000Y-53340000D01*
X148590000Y-67310000D02*
X148590000Y-53340000D01*
X162560000Y-53340000D02*
X162560000Y-67310000D01*
X162560000Y-67310000D02*
X148590000Y-67310000D01*
D12*
X193833750Y-91440000D02*
X193833750Y-91440000D01*
X195033750Y-91440000D02*
X195033750Y-91440000D01*
X196233750Y-91440000D02*
X196233750Y-91440000D01*
X197433750Y-91440000D02*
X197433750Y-91440000D01*
X198633750Y-91440000D02*
X198633750Y-91440000D01*
X199833750Y-91440000D02*
X199833750Y-91440000D01*
X201033750Y-91440000D02*
X201033750Y-91440000D01*
X202233750Y-91440000D02*
X202233750Y-91440000D01*
X203433750Y-91440000D02*
X203433750Y-91440000D01*
X204633750Y-91440000D02*
X204633750Y-91440000D01*
X205833750Y-91440000D02*
X205833750Y-91440000D01*
X207033750Y-91440000D02*
X207033750Y-91440000D01*
X193833750Y-105410000D02*
X193833750Y-105410000D01*
X193833750Y-104210000D02*
X193833750Y-104210000D01*
X193833750Y-103010000D02*
X193833750Y-103010000D01*
X193833750Y-101810000D02*
X193833750Y-101810000D01*
X193833750Y-100610000D02*
X193833750Y-100610000D01*
X193833750Y-99410000D02*
X193833750Y-99410000D01*
X193833750Y-98210000D02*
X193833750Y-98210000D01*
X193833750Y-97010000D02*
X193833750Y-97010000D01*
X193833750Y-95810000D02*
X193833750Y-95810000D01*
X193833750Y-94610000D02*
X193833750Y-94610000D01*
X193833750Y-93410000D02*
X193833750Y-93410000D01*
X193833750Y-92210000D02*
X193833750Y-92210000D01*
X207803750Y-91440000D02*
X207803750Y-91440000D01*
X207803750Y-92640000D02*
X207803750Y-92640000D01*
X207803750Y-93840000D02*
X207803750Y-93840000D01*
X207803750Y-95040000D02*
X207803750Y-95040000D01*
X207803750Y-96240000D02*
X207803750Y-96240000D01*
X207803750Y-97440000D02*
X207803750Y-97440000D01*
X207803750Y-98640000D02*
X207803750Y-98640000D01*
X207803750Y-99840000D02*
X207803750Y-99840000D01*
X207803750Y-101040000D02*
X207803750Y-101040000D01*
X207803750Y-102240000D02*
X207803750Y-102240000D01*
X207803750Y-103440000D02*
X207803750Y-103440000D01*
X207803750Y-104640000D02*
X207803750Y-104640000D01*
X207803750Y-105410000D02*
X207803750Y-105410000D01*
X206603750Y-105410000D02*
X206603750Y-105410000D01*
X205403750Y-105410000D02*
X205403750Y-105410000D01*
X204203750Y-105410000D02*
X204203750Y-105410000D01*
X203003750Y-105410000D02*
X203003750Y-105410000D01*
X201803750Y-105410000D02*
X201803750Y-105410000D01*
X200603750Y-105410000D02*
X200603750Y-105410000D01*
X199403750Y-105410000D02*
X199403750Y-105410000D01*
X198203750Y-105410000D02*
X198203750Y-105410000D01*
X197003750Y-105410000D02*
X197003750Y-105410000D01*
X195803750Y-105410000D02*
X195803750Y-105410000D01*
X194603750Y-105410000D02*
X194603750Y-105410000D01*
D10*
X143827500Y-34290000D02*
X157797500Y-34290000D01*
X143827500Y-48260000D02*
X143827500Y-34290000D01*
X157797500Y-34290000D02*
X157797500Y-48260000D01*
X157797500Y-48260000D02*
X143827500Y-48260000D01*
X53340000Y-91440000D02*
X67310000Y-91440000D01*
X53340000Y-105410000D02*
X53340000Y-91440000D01*
X67310000Y-91440000D02*
X67310000Y-105410000D01*
X67310000Y-105410000D02*
X53340000Y-105410000D01*
X48577500Y-34290000D02*
X62547500Y-34290000D01*
X48577500Y-48260000D02*
X48577500Y-34290000D01*
X62547500Y-34290000D02*
X62547500Y-48260000D01*
X62547500Y-48260000D02*
X48577500Y-48260000D01*
M02*
