G04 #@! TF.GenerationSoftware,KiCad,Pcbnew,8.0.8*
G04 #@! TF.CreationDate,2025-02-11T15:38:51+01:00*
G04 #@! TF.ProjectId,vootington V4N STM32G0B1CBT6 plate,766f6f74-696e-4677-946f-6e2056344e20,rev?*
G04 #@! TF.SameCoordinates,Original*
G04 #@! TF.FileFunction,Copper,L2,Bot*
G04 #@! TF.FilePolarity,Positive*
%FSLAX46Y46*%
G04 Gerber Fmt 4.6, Leading zero omitted, Abs format (unit mm)*
G04 Created by KiCad (PCBNEW 8.0.8) date 2025-02-11 15:38:51*
%MOMM*%
%LPD*%
G01*
G04 APERTURE LIST*
G04 APERTURE END LIST*
G04 #@! TA.AperFunction,Conductor*
G36*
X148137820Y-12800517D02*
G01*
X148425115Y-12816652D01*
X148426376Y-12816793D01*
X148709748Y-12864940D01*
X148710993Y-12865224D01*
X148987189Y-12944795D01*
X148988395Y-12945217D01*
X149218750Y-13040633D01*
X149253940Y-13055210D01*
X149255102Y-13055770D01*
X149506650Y-13194796D01*
X149507742Y-13195482D01*
X149598227Y-13259684D01*
X149742156Y-13361808D01*
X149743148Y-13362598D01*
X149957464Y-13554123D01*
X149958374Y-13555033D01*
X150149899Y-13769349D01*
X150150698Y-13770351D01*
X150317017Y-14004757D01*
X150317703Y-14005849D01*
X150456729Y-14257397D01*
X150457289Y-14258559D01*
X150567280Y-14524099D01*
X150567706Y-14525316D01*
X150647273Y-14801500D01*
X150647560Y-14802758D01*
X150695704Y-15086113D01*
X150695848Y-15087394D01*
X150711982Y-15374679D01*
X150712000Y-15375324D01*
X150712000Y-28048071D01*
X150712000Y-28075000D01*
X150712000Y-28260478D01*
X150728240Y-28425362D01*
X150748360Y-28629651D01*
X150820729Y-28993475D01*
X150820731Y-28993484D01*
X150928414Y-29348461D01*
X151070370Y-29691176D01*
X151070373Y-29691182D01*
X151245235Y-30018328D01*
X151245240Y-30018336D01*
X151451333Y-30326775D01*
X151686665Y-30613528D01*
X151948972Y-30875835D01*
X152235725Y-31111167D01*
X152544164Y-31317260D01*
X152544167Y-31317262D01*
X152544171Y-31317264D01*
X152871317Y-31492126D01*
X152871323Y-31492129D01*
X152958879Y-31528395D01*
X153214038Y-31634086D01*
X153569022Y-31741770D01*
X153932851Y-31814140D01*
X154302022Y-31850500D01*
X154467509Y-31850500D01*
X272173071Y-31850500D01*
X272199675Y-31850500D01*
X272200308Y-31850517D01*
X272482477Y-31866078D01*
X272483725Y-31866217D01*
X272762153Y-31912660D01*
X272763363Y-31912932D01*
X273034925Y-31989692D01*
X273034992Y-31989711D01*
X273036191Y-31990122D01*
X273297718Y-32096301D01*
X273298859Y-32096839D01*
X273547098Y-32231120D01*
X273547132Y-32231138D01*
X273548211Y-32231801D01*
X273779858Y-32392344D01*
X273781590Y-32393819D01*
X273858449Y-32473625D01*
X273860361Y-32476281D01*
X273911445Y-32574163D01*
X273912531Y-32577251D01*
X273933971Y-32685557D01*
X273934143Y-32688825D01*
X273924203Y-32798782D01*
X273923448Y-32801967D01*
X273882932Y-32904674D01*
X273881310Y-32907517D01*
X273813501Y-32994652D01*
X273811143Y-32996922D01*
X273721540Y-33061421D01*
X273718639Y-33062936D01*
X273613442Y-33099950D01*
X273611860Y-33100383D01*
X273586521Y-33105403D01*
X273586520Y-33105403D01*
X273566517Y-33109365D01*
X273505546Y-33121443D01*
X273300330Y-33197991D01*
X273300319Y-33197996D01*
X273110133Y-33306602D01*
X273110121Y-33306610D01*
X272939915Y-33444446D01*
X272939909Y-33444452D01*
X272794139Y-33607910D01*
X272794132Y-33607919D01*
X272676601Y-33792734D01*
X272590379Y-33994083D01*
X272537730Y-34206692D01*
X272520027Y-34424995D01*
X272520027Y-34425004D01*
X272537730Y-34643307D01*
X272590379Y-34855916D01*
X272590380Y-34855918D01*
X272676599Y-35057262D01*
X272676601Y-35057265D01*
X272794132Y-35242080D01*
X272794139Y-35242089D01*
X272939909Y-35405547D01*
X272939915Y-35405553D01*
X273110121Y-35543389D01*
X273110133Y-35543397D01*
X273300296Y-35651990D01*
X273300328Y-35652008D01*
X273505544Y-35728556D01*
X273575603Y-35742433D01*
X273585017Y-35744298D01*
X273585105Y-35744327D01*
X273586553Y-35744613D01*
X273586554Y-35744614D01*
X273612162Y-35749677D01*
X273613740Y-35750108D01*
X273718705Y-35787004D01*
X273721598Y-35788513D01*
X273811235Y-35853007D01*
X273813589Y-35855275D01*
X273881413Y-35942410D01*
X273883036Y-35945254D01*
X273923555Y-36047971D01*
X273924310Y-36051157D01*
X273934242Y-36161123D01*
X273934070Y-36164392D01*
X273912607Y-36272705D01*
X273911520Y-36275794D01*
X273860404Y-36373670D01*
X273858490Y-36376327D01*
X273781315Y-36456398D01*
X273779586Y-36457869D01*
X273548223Y-36618218D01*
X273547144Y-36618881D01*
X273298873Y-36753180D01*
X273297727Y-36753720D01*
X273036200Y-36859897D01*
X273035002Y-36860308D01*
X272763384Y-36937080D01*
X272762148Y-36937357D01*
X272483737Y-36983791D01*
X272482478Y-36983931D01*
X272200330Y-36999482D01*
X272199697Y-36999499D01*
X272171740Y-36999499D01*
X272171732Y-36999500D01*
X271403631Y-36999500D01*
X271403616Y-36999498D01*
X271401922Y-36999498D01*
X271374993Y-36999500D01*
X271354090Y-36999500D01*
X271354076Y-36999501D01*
X271260528Y-36999506D01*
X271033923Y-37032100D01*
X271033912Y-37032102D01*
X270814349Y-37096582D01*
X270814264Y-37096607D01*
X270606020Y-37191717D01*
X270606018Y-37191718D01*
X270606014Y-37191720D01*
X270413429Y-37315492D01*
X270413424Y-37315496D01*
X270240418Y-37465410D01*
X270240410Y-37465418D01*
X270090496Y-37638424D01*
X270090492Y-37638429D01*
X269966720Y-37831014D01*
X269966716Y-37831023D01*
X269871606Y-38039267D01*
X269807102Y-38258912D01*
X269807100Y-38258923D01*
X269774506Y-38485528D01*
X269774501Y-38579076D01*
X269774500Y-38579090D01*
X269774500Y-38599994D01*
X269774498Y-38628617D01*
X269774500Y-38628630D01*
X269774500Y-101073071D01*
X269774500Y-101100000D01*
X269774500Y-101214470D01*
X269807082Y-101441080D01*
X269807083Y-101441086D01*
X269871582Y-101660745D01*
X269871582Y-101660746D01*
X269966683Y-101868989D01*
X269966694Y-101869009D01*
X270090457Y-102061589D01*
X270090458Y-102061590D01*
X270090461Y-102061594D01*
X270240385Y-102234615D01*
X270413406Y-102384539D01*
X270413408Y-102384540D01*
X270413409Y-102384541D01*
X270413410Y-102384542D01*
X270605990Y-102508305D01*
X270605993Y-102508307D01*
X270606003Y-102508313D01*
X270814254Y-102603418D01*
X271033920Y-102667918D01*
X271260530Y-102700500D01*
X271355009Y-102700500D01*
X272173071Y-102700500D01*
X272199675Y-102700500D01*
X272200308Y-102700517D01*
X272482477Y-102716078D01*
X272483725Y-102716217D01*
X272762153Y-102762660D01*
X272763363Y-102762932D01*
X273034925Y-102839692D01*
X273034992Y-102839711D01*
X273036191Y-102840122D01*
X273297718Y-102946301D01*
X273298859Y-102946839D01*
X273547098Y-103081120D01*
X273547132Y-103081138D01*
X273548211Y-103081801D01*
X273779858Y-103242344D01*
X273781590Y-103243819D01*
X273858449Y-103323625D01*
X273860361Y-103326281D01*
X273911445Y-103424163D01*
X273912531Y-103427251D01*
X273933971Y-103535557D01*
X273934143Y-103538825D01*
X273924203Y-103648782D01*
X273923448Y-103651967D01*
X273882932Y-103754674D01*
X273881310Y-103757517D01*
X273813501Y-103844652D01*
X273811143Y-103846922D01*
X273721540Y-103911421D01*
X273718639Y-103912936D01*
X273613442Y-103949950D01*
X273611860Y-103950383D01*
X273586521Y-103955403D01*
X273586520Y-103955403D01*
X273566517Y-103959365D01*
X273505546Y-103971443D01*
X273300330Y-104047991D01*
X273300319Y-104047996D01*
X273110133Y-104156602D01*
X273110121Y-104156610D01*
X272939915Y-104294446D01*
X272939909Y-104294452D01*
X272794139Y-104457910D01*
X272794132Y-104457919D01*
X272676601Y-104642734D01*
X272590379Y-104844083D01*
X272537730Y-105056692D01*
X272520027Y-105274995D01*
X272520027Y-105275004D01*
X272537730Y-105493307D01*
X272590379Y-105705916D01*
X272590380Y-105705918D01*
X272676599Y-105907262D01*
X272676601Y-105907265D01*
X272794132Y-106092080D01*
X272794139Y-106092089D01*
X272939909Y-106255547D01*
X272939915Y-106255553D01*
X273110121Y-106393389D01*
X273110133Y-106393397D01*
X273300296Y-106501990D01*
X273300328Y-106502008D01*
X273505544Y-106578556D01*
X273575603Y-106592433D01*
X273585017Y-106594298D01*
X273585105Y-106594327D01*
X273586553Y-106594613D01*
X273586554Y-106594614D01*
X273612162Y-106599677D01*
X273613740Y-106600108D01*
X273718705Y-106637004D01*
X273721598Y-106638513D01*
X273811235Y-106703007D01*
X273813589Y-106705275D01*
X273881413Y-106792410D01*
X273883036Y-106795254D01*
X273923555Y-106897971D01*
X273924310Y-106901157D01*
X273934242Y-107011123D01*
X273934070Y-107014392D01*
X273912607Y-107122705D01*
X273911520Y-107125794D01*
X273860404Y-107223670D01*
X273858490Y-107226327D01*
X273781315Y-107306398D01*
X273779586Y-107307869D01*
X273548223Y-107468218D01*
X273547144Y-107468881D01*
X273298873Y-107603180D01*
X273297727Y-107603720D01*
X273036200Y-107709897D01*
X273035002Y-107710308D01*
X272763384Y-107787080D01*
X272762148Y-107787357D01*
X272483737Y-107833791D01*
X272482478Y-107833931D01*
X272200330Y-107849482D01*
X272199697Y-107849499D01*
X272171740Y-107849499D01*
X272171732Y-107849500D01*
X24662825Y-107849500D01*
X24662192Y-107849483D01*
X24380024Y-107833922D01*
X24378765Y-107833782D01*
X24100354Y-107787345D01*
X24099118Y-107787068D01*
X23827497Y-107710296D01*
X23826299Y-107709885D01*
X23564765Y-107603711D01*
X23563620Y-107603171D01*
X23315346Y-107468883D01*
X23314267Y-107468220D01*
X23082775Y-107307800D01*
X23081044Y-107306328D01*
X23003987Y-107226364D01*
X23002074Y-107223707D01*
X22985739Y-107192425D01*
X22950961Y-107125823D01*
X22949877Y-107122742D01*
X22928418Y-107014417D01*
X22928246Y-107011147D01*
X22938181Y-106901176D01*
X22938936Y-106897991D01*
X22938944Y-106897971D01*
X22979463Y-106795262D01*
X22981077Y-106792433D01*
X23048911Y-106705285D01*
X23051260Y-106703023D01*
X23140903Y-106638521D01*
X23143796Y-106637012D01*
X23248798Y-106600099D01*
X23250360Y-106599672D01*
X23275950Y-106594612D01*
X23275951Y-106594610D01*
X23277490Y-106594306D01*
X23277561Y-106594280D01*
X23356958Y-106578549D01*
X23562160Y-106501990D01*
X23752346Y-106393368D01*
X23922547Y-106255523D01*
X24068313Y-106092056D01*
X24185837Y-105907239D01*
X24272048Y-105705901D01*
X24324692Y-105493302D01*
X24325614Y-105481930D01*
X24328610Y-105444989D01*
X31793249Y-105444989D01*
X31793250Y-105444991D01*
X31808550Y-105481929D01*
X31836821Y-105510200D01*
X31873759Y-105525500D01*
X31873760Y-105525500D01*
X45913739Y-105525500D01*
X45913741Y-105525500D01*
X45950679Y-105510200D01*
X45978950Y-105481929D01*
X45994250Y-105444991D01*
X45994250Y-105444989D01*
X53224499Y-105444989D01*
X53224500Y-105444991D01*
X53239800Y-105481929D01*
X53268071Y-105510200D01*
X53305009Y-105525500D01*
X53305010Y-105525500D01*
X67344989Y-105525500D01*
X67344991Y-105525500D01*
X67381929Y-105510200D01*
X67410200Y-105481929D01*
X67425500Y-105444991D01*
X67425500Y-105444989D01*
X74655749Y-105444989D01*
X74655750Y-105444991D01*
X74671050Y-105481929D01*
X74699321Y-105510200D01*
X74736259Y-105525500D01*
X74736260Y-105525500D01*
X88776239Y-105525500D01*
X88776241Y-105525500D01*
X88813179Y-105510200D01*
X88841450Y-105481929D01*
X88856750Y-105444991D01*
X88856750Y-105444989D01*
X99593249Y-105444989D01*
X99593250Y-105444991D01*
X99608550Y-105481929D01*
X99636821Y-105510200D01*
X99673759Y-105525500D01*
X99673760Y-105525500D01*
X111438239Y-105525500D01*
X111438241Y-105525500D01*
X111475179Y-105510200D01*
X111503450Y-105481929D01*
X111518750Y-105444991D01*
X111518750Y-105444989D01*
X112755749Y-105444989D01*
X112755750Y-105444991D01*
X112771050Y-105481929D01*
X112799321Y-105510200D01*
X112836259Y-105525500D01*
X112836260Y-105525500D01*
X126876239Y-105525500D01*
X126876241Y-105525500D01*
X126913179Y-105510200D01*
X126941450Y-105481929D01*
X126956750Y-105444991D01*
X126956750Y-105444989D01*
X128193749Y-105444989D01*
X128193750Y-105444991D01*
X128209050Y-105481929D01*
X128237321Y-105510200D01*
X128274259Y-105525500D01*
X128274260Y-105525500D01*
X135314239Y-105525500D01*
X135314241Y-105525500D01*
X135351179Y-105510200D01*
X135379450Y-105481929D01*
X135394750Y-105444991D01*
X135394750Y-105444989D01*
X146093249Y-105444989D01*
X146093250Y-105444991D01*
X146108550Y-105481929D01*
X146136821Y-105510200D01*
X146173759Y-105525500D01*
X146173760Y-105525500D01*
X174501239Y-105525500D01*
X174501241Y-105525500D01*
X174538179Y-105510200D01*
X174566450Y-105481929D01*
X174581750Y-105444991D01*
X174581750Y-105444989D01*
X175818749Y-105444989D01*
X175818750Y-105444991D01*
X175834050Y-105481929D01*
X175862321Y-105510200D01*
X175899259Y-105525500D01*
X175899260Y-105525500D01*
X182939239Y-105525500D01*
X182939241Y-105525500D01*
X182976179Y-105510200D01*
X183004450Y-105481929D01*
X183019750Y-105444991D01*
X183019750Y-105444989D01*
X193718249Y-105444989D01*
X193718250Y-105444991D01*
X193733550Y-105481929D01*
X193761821Y-105510200D01*
X193798759Y-105525500D01*
X193798760Y-105525500D01*
X207838739Y-105525500D01*
X207838741Y-105525500D01*
X207875679Y-105510200D01*
X207903950Y-105481929D01*
X207919250Y-105444991D01*
X207919250Y-105444989D01*
X215149499Y-105444989D01*
X215149500Y-105444991D01*
X215164800Y-105481929D01*
X215193071Y-105510200D01*
X215230009Y-105525500D01*
X215230010Y-105525500D01*
X229269989Y-105525500D01*
X229269991Y-105525500D01*
X229306929Y-105510200D01*
X229335200Y-105481929D01*
X229350500Y-105444991D01*
X229350500Y-105444989D01*
X234199499Y-105444989D01*
X234199500Y-105444991D01*
X234214800Y-105481929D01*
X234243071Y-105510200D01*
X234280009Y-105525500D01*
X234280010Y-105525500D01*
X248319989Y-105525500D01*
X248319991Y-105525500D01*
X248356929Y-105510200D01*
X248385200Y-105481929D01*
X248400500Y-105444991D01*
X248400500Y-105444989D01*
X253249499Y-105444989D01*
X253249500Y-105444991D01*
X253264800Y-105481929D01*
X253293071Y-105510200D01*
X253330009Y-105525500D01*
X253330010Y-105525500D01*
X267369989Y-105525500D01*
X267369991Y-105525500D01*
X267406929Y-105510200D01*
X267435200Y-105481929D01*
X267450500Y-105444991D01*
X267450500Y-91405009D01*
X267435200Y-91368071D01*
X267406929Y-91339800D01*
X267369991Y-91324500D01*
X253369991Y-91324500D01*
X253330009Y-91324500D01*
X253293071Y-91339800D01*
X253293069Y-91339801D01*
X253264801Y-91368069D01*
X253249500Y-91405010D01*
X253249500Y-105444989D01*
X253249499Y-105444989D01*
X248400500Y-105444989D01*
X248400500Y-98425000D01*
X248969773Y-98425000D01*
X248988657Y-98689025D01*
X248988658Y-98689032D01*
X249044920Y-98947667D01*
X249044922Y-98947674D01*
X249044923Y-98947678D01*
X249137426Y-99195689D01*
X249264284Y-99428011D01*
X249422913Y-99639915D01*
X249610085Y-99827087D01*
X249821989Y-99985716D01*
X250054311Y-100112574D01*
X250302322Y-100205077D01*
X250560974Y-100261343D01*
X250825000Y-100280227D01*
X251089026Y-100261343D01*
X251347678Y-100205077D01*
X251595689Y-100112574D01*
X251828011Y-99985716D01*
X252039915Y-99827087D01*
X252227087Y-99639915D01*
X252385716Y-99428011D01*
X252512574Y-99195689D01*
X252605077Y-98947678D01*
X252661343Y-98689026D01*
X252680227Y-98425000D01*
X252661343Y-98160974D01*
X252605077Y-97902322D01*
X252512574Y-97654311D01*
X252385716Y-97421989D01*
X252227087Y-97210085D01*
X252039915Y-97022913D01*
X251828011Y-96864284D01*
X251595689Y-96737426D01*
X251347678Y-96644923D01*
X251347674Y-96644922D01*
X251347667Y-96644920D01*
X251089032Y-96588658D01*
X251089027Y-96588657D01*
X251089026Y-96588657D01*
X250825000Y-96569773D01*
X250560974Y-96588657D01*
X250560967Y-96588658D01*
X250302332Y-96644920D01*
X250302325Y-96644922D01*
X250054315Y-96737424D01*
X250054297Y-96737433D01*
X249821997Y-96864279D01*
X249821985Y-96864287D01*
X249610087Y-97022911D01*
X249422911Y-97210087D01*
X249264287Y-97421985D01*
X249264279Y-97421997D01*
X249137433Y-97654297D01*
X249137424Y-97654315D01*
X249044922Y-97902325D01*
X249044920Y-97902332D01*
X248988658Y-98160967D01*
X248988657Y-98160974D01*
X248969773Y-98425000D01*
X248400500Y-98425000D01*
X248400500Y-91405009D01*
X248385200Y-91368071D01*
X248356929Y-91339800D01*
X248319991Y-91324500D01*
X234319991Y-91324500D01*
X234280009Y-91324500D01*
X234243071Y-91339800D01*
X234243069Y-91339801D01*
X234214801Y-91368069D01*
X234199500Y-91405010D01*
X234199500Y-105444989D01*
X234199499Y-105444989D01*
X229350500Y-105444989D01*
X229350500Y-91405009D01*
X229335200Y-91368071D01*
X229306929Y-91339800D01*
X229269991Y-91324500D01*
X215269991Y-91324500D01*
X215230009Y-91324500D01*
X215193071Y-91339800D01*
X215193069Y-91339801D01*
X215164801Y-91368069D01*
X215149500Y-91405010D01*
X215149500Y-105444989D01*
X215149499Y-105444989D01*
X207919250Y-105444989D01*
X207919250Y-98425000D01*
X209282273Y-98425000D01*
X209301157Y-98689025D01*
X209301158Y-98689032D01*
X209357420Y-98947667D01*
X209357422Y-98947674D01*
X209357423Y-98947678D01*
X209449926Y-99195689D01*
X209576784Y-99428011D01*
X209735413Y-99639915D01*
X209922585Y-99827087D01*
X210134489Y-99985716D01*
X210366811Y-100112574D01*
X210614822Y-100205077D01*
X210873474Y-100261343D01*
X211137500Y-100280227D01*
X211401526Y-100261343D01*
X211660178Y-100205077D01*
X211908189Y-100112574D01*
X212140511Y-99985716D01*
X212352415Y-99827087D01*
X212539587Y-99639915D01*
X212698216Y-99428011D01*
X212825074Y-99195689D01*
X212917577Y-98947678D01*
X212973843Y-98689026D01*
X212992727Y-98425000D01*
X212973843Y-98160974D01*
X212917577Y-97902322D01*
X212825074Y-97654311D01*
X212698216Y-97421989D01*
X212539587Y-97210085D01*
X212352415Y-97022913D01*
X212140511Y-96864284D01*
X211908189Y-96737426D01*
X211660178Y-96644923D01*
X211660174Y-96644922D01*
X211660167Y-96644920D01*
X211401532Y-96588658D01*
X211401527Y-96588657D01*
X211401526Y-96588657D01*
X211137500Y-96569773D01*
X210873474Y-96588657D01*
X210873467Y-96588658D01*
X210614832Y-96644920D01*
X210614825Y-96644922D01*
X210366815Y-96737424D01*
X210366797Y-96737433D01*
X210134497Y-96864279D01*
X210134485Y-96864287D01*
X209922587Y-97022911D01*
X209735411Y-97210087D01*
X209576787Y-97421985D01*
X209576779Y-97421997D01*
X209449933Y-97654297D01*
X209449924Y-97654315D01*
X209357422Y-97902325D01*
X209357420Y-97902332D01*
X209301158Y-98160967D01*
X209301157Y-98160974D01*
X209282273Y-98425000D01*
X207919250Y-98425000D01*
X207919250Y-91405009D01*
X207903950Y-91368071D01*
X207875679Y-91339800D01*
X207838741Y-91324500D01*
X207838739Y-91324500D01*
X206805750Y-91324500D01*
X206797618Y-91321132D01*
X206794250Y-91313000D01*
X206794250Y-90405010D01*
X206794250Y-90405009D01*
X206778950Y-90368071D01*
X206750679Y-90339800D01*
X206713741Y-90324500D01*
X199713741Y-90324500D01*
X199673759Y-90324500D01*
X199636821Y-90339800D01*
X199636819Y-90339801D01*
X199608551Y-90368069D01*
X199593250Y-90405010D01*
X199593250Y-91313000D01*
X199589882Y-91321132D01*
X199581750Y-91324500D01*
X193838741Y-91324500D01*
X193798759Y-91324500D01*
X193761821Y-91339800D01*
X193761819Y-91339801D01*
X193733551Y-91368069D01*
X193718250Y-91405010D01*
X193718250Y-105444989D01*
X193718249Y-105444989D01*
X183019750Y-105444989D01*
X183019750Y-90405009D01*
X183004450Y-90368071D01*
X182976179Y-90339800D01*
X182939241Y-90324500D01*
X175939241Y-90324500D01*
X175899259Y-90324500D01*
X175862321Y-90339800D01*
X175862319Y-90339801D01*
X175834051Y-90368069D01*
X175818750Y-90405010D01*
X175818750Y-105444989D01*
X175818749Y-105444989D01*
X174581750Y-105444989D01*
X174581750Y-91405009D01*
X174566450Y-91368071D01*
X174538179Y-91339800D01*
X174501241Y-91324500D01*
X174501239Y-91324500D01*
X159155250Y-91324500D01*
X159147118Y-91321132D01*
X159143750Y-91313000D01*
X159143750Y-90405010D01*
X159143750Y-90405009D01*
X159128450Y-90368071D01*
X159100179Y-90339800D01*
X159063241Y-90324500D01*
X152063241Y-90324500D01*
X152023259Y-90324500D01*
X151986321Y-90339800D01*
X151986319Y-90339801D01*
X151958051Y-90368069D01*
X151942750Y-90405010D01*
X151942750Y-91313000D01*
X151939382Y-91321132D01*
X151931250Y-91324500D01*
X146213741Y-91324500D01*
X146173759Y-91324500D01*
X146136821Y-91339800D01*
X146136819Y-91339801D01*
X146108551Y-91368069D01*
X146093250Y-91405010D01*
X146093250Y-105444989D01*
X146093249Y-105444989D01*
X135394750Y-105444989D01*
X135394750Y-98425000D01*
X141019773Y-98425000D01*
X141038657Y-98689025D01*
X141038658Y-98689032D01*
X141094920Y-98947667D01*
X141094922Y-98947674D01*
X141094923Y-98947678D01*
X141187426Y-99195689D01*
X141314284Y-99428011D01*
X141472913Y-99639915D01*
X141660085Y-99827087D01*
X141871989Y-99985716D01*
X142104311Y-100112574D01*
X142352322Y-100205077D01*
X142610974Y-100261343D01*
X142875000Y-100280227D01*
X143139026Y-100261343D01*
X143397678Y-100205077D01*
X143645689Y-100112574D01*
X143878011Y-99985716D01*
X144089915Y-99827087D01*
X144277087Y-99639915D01*
X144435716Y-99428011D01*
X144562574Y-99195689D01*
X144655077Y-98947678D01*
X144711343Y-98689026D01*
X144730227Y-98425000D01*
X144711343Y-98160974D01*
X144655077Y-97902322D01*
X144562574Y-97654311D01*
X144435716Y-97421989D01*
X144277087Y-97210085D01*
X144089915Y-97022913D01*
X143878011Y-96864284D01*
X143645689Y-96737426D01*
X143397678Y-96644923D01*
X143397674Y-96644922D01*
X143397667Y-96644920D01*
X143139032Y-96588658D01*
X143139027Y-96588657D01*
X143139026Y-96588657D01*
X142875000Y-96569773D01*
X142610974Y-96588657D01*
X142610967Y-96588658D01*
X142352332Y-96644920D01*
X142352325Y-96644922D01*
X142104315Y-96737424D01*
X142104297Y-96737433D01*
X141871997Y-96864279D01*
X141871985Y-96864287D01*
X141660087Y-97022911D01*
X141472911Y-97210087D01*
X141314287Y-97421985D01*
X141314279Y-97421997D01*
X141187433Y-97654297D01*
X141187424Y-97654315D01*
X141094922Y-97902325D01*
X141094920Y-97902332D01*
X141038658Y-98160967D01*
X141038657Y-98160974D01*
X141019773Y-98425000D01*
X135394750Y-98425000D01*
X135394750Y-90405009D01*
X135379450Y-90368071D01*
X135351179Y-90339800D01*
X135314241Y-90324500D01*
X128314241Y-90324500D01*
X128274259Y-90324500D01*
X128237321Y-90339800D01*
X128237319Y-90339801D01*
X128209051Y-90368069D01*
X128193750Y-90405010D01*
X128193750Y-105444989D01*
X128193749Y-105444989D01*
X126956750Y-105444989D01*
X126956750Y-91405009D01*
X126941450Y-91368071D01*
X126913179Y-91339800D01*
X126876241Y-91324500D01*
X112876241Y-91324500D01*
X112836259Y-91324500D01*
X112799321Y-91339800D01*
X112799319Y-91339801D01*
X112771051Y-91368069D01*
X112755750Y-91405010D01*
X112755750Y-105444989D01*
X112755749Y-105444989D01*
X111518750Y-105444989D01*
X111518750Y-90405009D01*
X111503450Y-90368071D01*
X111475179Y-90339800D01*
X111438241Y-90324500D01*
X99713741Y-90324500D01*
X99673759Y-90324500D01*
X99636821Y-90339800D01*
X99636819Y-90339801D01*
X99608551Y-90368069D01*
X99593250Y-90405010D01*
X99593250Y-105444989D01*
X99593249Y-105444989D01*
X88856750Y-105444989D01*
X88856750Y-98425000D01*
X92601023Y-98425000D01*
X92619907Y-98689025D01*
X92619908Y-98689032D01*
X92676170Y-98947667D01*
X92676172Y-98947674D01*
X92676173Y-98947678D01*
X92768676Y-99195689D01*
X92895534Y-99428011D01*
X93054163Y-99639915D01*
X93241335Y-99827087D01*
X93453239Y-99985716D01*
X93685561Y-100112574D01*
X93933572Y-100205077D01*
X94192224Y-100261343D01*
X94456250Y-100280227D01*
X94720276Y-100261343D01*
X94978928Y-100205077D01*
X95226939Y-100112574D01*
X95459261Y-99985716D01*
X95671165Y-99827087D01*
X95858337Y-99639915D01*
X96016966Y-99428011D01*
X96143824Y-99195689D01*
X96236327Y-98947678D01*
X96292593Y-98689026D01*
X96311477Y-98425000D01*
X96292593Y-98160974D01*
X96236327Y-97902322D01*
X96143824Y-97654311D01*
X96016966Y-97421989D01*
X95858337Y-97210085D01*
X95671165Y-97022913D01*
X95459261Y-96864284D01*
X95226939Y-96737426D01*
X94978928Y-96644923D01*
X94978924Y-96644922D01*
X94978917Y-96644920D01*
X94720282Y-96588658D01*
X94720277Y-96588657D01*
X94720276Y-96588657D01*
X94456250Y-96569773D01*
X94192224Y-96588657D01*
X94192217Y-96588658D01*
X93933582Y-96644920D01*
X93933575Y-96644922D01*
X93685565Y-96737424D01*
X93685547Y-96737433D01*
X93453247Y-96864279D01*
X93453235Y-96864287D01*
X93241337Y-97022911D01*
X93054161Y-97210087D01*
X92895537Y-97421985D01*
X92895529Y-97421997D01*
X92768683Y-97654297D01*
X92768674Y-97654315D01*
X92676172Y-97902325D01*
X92676170Y-97902332D01*
X92619908Y-98160967D01*
X92619907Y-98160974D01*
X92601023Y-98425000D01*
X88856750Y-98425000D01*
X88856750Y-91405009D01*
X88841450Y-91368071D01*
X88813179Y-91339800D01*
X88776241Y-91324500D01*
X74776241Y-91324500D01*
X74736259Y-91324500D01*
X74699321Y-91339800D01*
X74699319Y-91339801D01*
X74671051Y-91368069D01*
X74655750Y-91405010D01*
X74655750Y-105444989D01*
X74655749Y-105444989D01*
X67425500Y-105444989D01*
X67425500Y-91405009D01*
X67410200Y-91368071D01*
X67381929Y-91339800D01*
X67344991Y-91324500D01*
X53344991Y-91324500D01*
X53305009Y-91324500D01*
X53268071Y-91339800D01*
X53268069Y-91339801D01*
X53239801Y-91368069D01*
X53224500Y-91405010D01*
X53224500Y-105444989D01*
X53224499Y-105444989D01*
X45994250Y-105444989D01*
X45994250Y-98425000D01*
X47357273Y-98425000D01*
X47376157Y-98689025D01*
X47376158Y-98689032D01*
X47432420Y-98947667D01*
X47432422Y-98947674D01*
X47432423Y-98947678D01*
X47524926Y-99195689D01*
X47651784Y-99428011D01*
X47810413Y-99639915D01*
X47997585Y-99827087D01*
X48209489Y-99985716D01*
X48441811Y-100112574D01*
X48689822Y-100205077D01*
X48948474Y-100261343D01*
X49212500Y-100280227D01*
X49476526Y-100261343D01*
X49735178Y-100205077D01*
X49983189Y-100112574D01*
X50215511Y-99985716D01*
X50427415Y-99827087D01*
X50614587Y-99639915D01*
X50773216Y-99428011D01*
X50900074Y-99195689D01*
X50992577Y-98947678D01*
X51048843Y-98689026D01*
X51067727Y-98425000D01*
X51048843Y-98160974D01*
X50992577Y-97902322D01*
X50900074Y-97654311D01*
X50773216Y-97421989D01*
X50614587Y-97210085D01*
X50427415Y-97022913D01*
X50215511Y-96864284D01*
X49983189Y-96737426D01*
X49735178Y-96644923D01*
X49735174Y-96644922D01*
X49735167Y-96644920D01*
X49476532Y-96588658D01*
X49476527Y-96588657D01*
X49476526Y-96588657D01*
X49212500Y-96569773D01*
X48948474Y-96588657D01*
X48948467Y-96588658D01*
X48689832Y-96644920D01*
X48689825Y-96644922D01*
X48441815Y-96737424D01*
X48441797Y-96737433D01*
X48209497Y-96864279D01*
X48209485Y-96864287D01*
X47997587Y-97022911D01*
X47810411Y-97210087D01*
X47651787Y-97421985D01*
X47651779Y-97421997D01*
X47524933Y-97654297D01*
X47524924Y-97654315D01*
X47432422Y-97902325D01*
X47432420Y-97902332D01*
X47376158Y-98160967D01*
X47376157Y-98160974D01*
X47357273Y-98425000D01*
X45994250Y-98425000D01*
X45994250Y-91405009D01*
X45978950Y-91368071D01*
X45950679Y-91339800D01*
X45913741Y-91324500D01*
X31913741Y-91324500D01*
X31873759Y-91324500D01*
X31836821Y-91339800D01*
X31836819Y-91339801D01*
X31808551Y-91368069D01*
X31793250Y-91405010D01*
X31793250Y-105444989D01*
X31793249Y-105444989D01*
X24328610Y-105444989D01*
X24342394Y-105275005D01*
X24342394Y-105274994D01*
X24324693Y-105056706D01*
X24324692Y-105056703D01*
X24324692Y-105056698D01*
X24272048Y-104844099D01*
X24185837Y-104642761D01*
X24068313Y-104457944D01*
X23922547Y-104294477D01*
X23922545Y-104294476D01*
X23922544Y-104294474D01*
X23752345Y-104156631D01*
X23752342Y-104156629D01*
X23562164Y-104048012D01*
X23562161Y-104048010D01*
X23356961Y-103971452D01*
X23356960Y-103971451D01*
X23356958Y-103971451D01*
X23322918Y-103964705D01*
X23277524Y-103955710D01*
X23277461Y-103955689D01*
X23250354Y-103950326D01*
X23248771Y-103949894D01*
X23143806Y-103912981D01*
X23140904Y-103911466D01*
X23086912Y-103872612D01*
X23051269Y-103846963D01*
X23048917Y-103844699D01*
X22981081Y-103757546D01*
X22979463Y-103754710D01*
X22938932Y-103651974D01*
X22938179Y-103648798D01*
X22928237Y-103538808D01*
X22928408Y-103535553D01*
X22949859Y-103427214D01*
X22950942Y-103424135D01*
X23002051Y-103326226D01*
X23003958Y-103323579D01*
X23080641Y-103243976D01*
X23082358Y-103242514D01*
X23314286Y-103081776D01*
X23315346Y-103081125D01*
X23563638Y-102946816D01*
X23564765Y-102946285D01*
X23826307Y-102840101D01*
X23827495Y-102839693D01*
X24099134Y-102762911D01*
X24100338Y-102762641D01*
X24378773Y-102716196D01*
X24380017Y-102716057D01*
X24661811Y-102700517D01*
X24662444Y-102700500D01*
X25601966Y-102700500D01*
X25601970Y-102700500D01*
X25828580Y-102667918D01*
X26048246Y-102603418D01*
X26256497Y-102508313D01*
X26449094Y-102384539D01*
X26622115Y-102234615D01*
X26772039Y-102061594D01*
X26895813Y-101868997D01*
X26990918Y-101660746D01*
X27055418Y-101441080D01*
X27088000Y-101214470D01*
X27088000Y-101100000D01*
X27088000Y-101073071D01*
X27088000Y-86394989D01*
X36555749Y-86394989D01*
X36555750Y-86394991D01*
X36571050Y-86431929D01*
X36599321Y-86460200D01*
X36636259Y-86475500D01*
X36636260Y-86475500D01*
X50676239Y-86475500D01*
X50676241Y-86475500D01*
X50713179Y-86460200D01*
X50741450Y-86431929D01*
X50756750Y-86394991D01*
X50756750Y-86394989D01*
X62749499Y-86394989D01*
X62749500Y-86394991D01*
X62764800Y-86431929D01*
X62793071Y-86460200D01*
X62830009Y-86475500D01*
X62830010Y-86475500D01*
X76869989Y-86475500D01*
X76869991Y-86475500D01*
X76906929Y-86460200D01*
X76935200Y-86431929D01*
X76950500Y-86394991D01*
X76950500Y-86394989D01*
X81799499Y-86394989D01*
X81799500Y-86394991D01*
X81814800Y-86431929D01*
X81843071Y-86460200D01*
X81880009Y-86475500D01*
X81880010Y-86475500D01*
X95919989Y-86475500D01*
X95919991Y-86475500D01*
X95956929Y-86460200D01*
X95985200Y-86431929D01*
X96000500Y-86394991D01*
X96000500Y-86394989D01*
X100849499Y-86394989D01*
X100849500Y-86394991D01*
X100864800Y-86431929D01*
X100893071Y-86460200D01*
X100930009Y-86475500D01*
X100930010Y-86475500D01*
X114969989Y-86475500D01*
X114969991Y-86475500D01*
X115006929Y-86460200D01*
X115035200Y-86431929D01*
X115050500Y-86394991D01*
X115050500Y-86394989D01*
X119899499Y-86394989D01*
X119899500Y-86394991D01*
X119914800Y-86431929D01*
X119943071Y-86460200D01*
X119980009Y-86475500D01*
X119980010Y-86475500D01*
X134019989Y-86475500D01*
X134019991Y-86475500D01*
X134056929Y-86460200D01*
X134085200Y-86431929D01*
X134100500Y-86394991D01*
X134100500Y-86394989D01*
X138949499Y-86394989D01*
X138949500Y-86394991D01*
X138964800Y-86431929D01*
X138993071Y-86460200D01*
X139030009Y-86475500D01*
X139030010Y-86475500D01*
X153069989Y-86475500D01*
X153069991Y-86475500D01*
X153106929Y-86460200D01*
X153135200Y-86431929D01*
X153150500Y-86394991D01*
X153150500Y-86394989D01*
X157999499Y-86394989D01*
X157999500Y-86394991D01*
X158014800Y-86431929D01*
X158043071Y-86460200D01*
X158080009Y-86475500D01*
X158080010Y-86475500D01*
X172119989Y-86475500D01*
X172119991Y-86475500D01*
X172156929Y-86460200D01*
X172185200Y-86431929D01*
X172200500Y-86394991D01*
X172200500Y-86394989D01*
X177049499Y-86394989D01*
X177049500Y-86394991D01*
X177064800Y-86431929D01*
X177093071Y-86460200D01*
X177130009Y-86475500D01*
X177130010Y-86475500D01*
X191169989Y-86475500D01*
X191169991Y-86475500D01*
X191206929Y-86460200D01*
X191235200Y-86431929D01*
X191250500Y-86394991D01*
X191250500Y-86394989D01*
X196099499Y-86394989D01*
X196099500Y-86394991D01*
X196114800Y-86431929D01*
X196143071Y-86460200D01*
X196180009Y-86475500D01*
X196180010Y-86475500D01*
X210219989Y-86475500D01*
X210219991Y-86475500D01*
X210256929Y-86460200D01*
X210285200Y-86431929D01*
X210300500Y-86394991D01*
X210300500Y-86394989D01*
X215149499Y-86394989D01*
X215149500Y-86394991D01*
X215164800Y-86431929D01*
X215193071Y-86460200D01*
X215230009Y-86475500D01*
X215230010Y-86475500D01*
X229269989Y-86475500D01*
X229269991Y-86475500D01*
X229306929Y-86460200D01*
X229335200Y-86431929D01*
X229350500Y-86394991D01*
X229350500Y-86394989D01*
X234199499Y-86394989D01*
X234199500Y-86394991D01*
X234214800Y-86431929D01*
X234243071Y-86460200D01*
X234280009Y-86475500D01*
X234280010Y-86475500D01*
X248319989Y-86475500D01*
X248319991Y-86475500D01*
X248356929Y-86460200D01*
X248385200Y-86431929D01*
X248400500Y-86394991D01*
X248400500Y-86394989D01*
X253249499Y-86394989D01*
X253249500Y-86394991D01*
X253264800Y-86431929D01*
X253293071Y-86460200D01*
X253330009Y-86475500D01*
X253330010Y-86475500D01*
X267369989Y-86475500D01*
X267369991Y-86475500D01*
X267406929Y-86460200D01*
X267435200Y-86431929D01*
X267450500Y-86394991D01*
X267450500Y-72355009D01*
X267435200Y-72318071D01*
X267406929Y-72289800D01*
X267369991Y-72274500D01*
X253369991Y-72274500D01*
X253330009Y-72274500D01*
X253293071Y-72289800D01*
X253293069Y-72289801D01*
X253264801Y-72318069D01*
X253249500Y-72355010D01*
X253249500Y-86394989D01*
X253249499Y-86394989D01*
X248400500Y-86394989D01*
X248400500Y-72355009D01*
X248385200Y-72318071D01*
X248356929Y-72289800D01*
X248319991Y-72274500D01*
X234319991Y-72274500D01*
X234280009Y-72274500D01*
X234243071Y-72289800D01*
X234243069Y-72289801D01*
X234214801Y-72318069D01*
X234199500Y-72355010D01*
X234199500Y-86394989D01*
X234199499Y-86394989D01*
X229350500Y-86394989D01*
X229350500Y-72355009D01*
X229335200Y-72318071D01*
X229306929Y-72289800D01*
X229269991Y-72274500D01*
X215269991Y-72274500D01*
X215230009Y-72274500D01*
X215193071Y-72289800D01*
X215193069Y-72289801D01*
X215164801Y-72318069D01*
X215149500Y-72355010D01*
X215149500Y-86394989D01*
X215149499Y-86394989D01*
X210300500Y-86394989D01*
X210300500Y-72355009D01*
X210285200Y-72318071D01*
X210256929Y-72289800D01*
X210219991Y-72274500D01*
X196219991Y-72274500D01*
X196180009Y-72274500D01*
X196143071Y-72289800D01*
X196143069Y-72289801D01*
X196114801Y-72318069D01*
X196099500Y-72355010D01*
X196099500Y-86394989D01*
X196099499Y-86394989D01*
X191250500Y-86394989D01*
X191250500Y-72355009D01*
X191235200Y-72318071D01*
X191206929Y-72289800D01*
X191169991Y-72274500D01*
X177169991Y-72274500D01*
X177130009Y-72274500D01*
X177093071Y-72289800D01*
X177093069Y-72289801D01*
X177064801Y-72318069D01*
X177049500Y-72355010D01*
X177049500Y-86394989D01*
X177049499Y-86394989D01*
X172200500Y-86394989D01*
X172200500Y-72355009D01*
X172185200Y-72318071D01*
X172156929Y-72289800D01*
X172119991Y-72274500D01*
X158119991Y-72274500D01*
X158080009Y-72274500D01*
X158043071Y-72289800D01*
X158043069Y-72289801D01*
X158014801Y-72318069D01*
X157999500Y-72355010D01*
X157999500Y-86394989D01*
X157999499Y-86394989D01*
X153150500Y-86394989D01*
X153150500Y-79375000D01*
X153719773Y-79375000D01*
X153738657Y-79639025D01*
X153738658Y-79639032D01*
X153794920Y-79897667D01*
X153794922Y-79897674D01*
X153794923Y-79897678D01*
X153887426Y-80145689D01*
X154014284Y-80378011D01*
X154172913Y-80589915D01*
X154360085Y-80777087D01*
X154571989Y-80935716D01*
X154804311Y-81062574D01*
X155052322Y-81155077D01*
X155310974Y-81211343D01*
X155575000Y-81230227D01*
X155839026Y-81211343D01*
X156097678Y-81155077D01*
X156345689Y-81062574D01*
X156578011Y-80935716D01*
X156789915Y-80777087D01*
X156977087Y-80589915D01*
X157135716Y-80378011D01*
X157262574Y-80145689D01*
X157355077Y-79897678D01*
X157411343Y-79639026D01*
X157430227Y-79375000D01*
X157411343Y-79110974D01*
X157355077Y-78852322D01*
X157262574Y-78604311D01*
X157135716Y-78371989D01*
X156977087Y-78160085D01*
X156789915Y-77972913D01*
X156578011Y-77814284D01*
X156345689Y-77687426D01*
X156097678Y-77594923D01*
X156097674Y-77594922D01*
X156097667Y-77594920D01*
X155839032Y-77538658D01*
X155839027Y-77538657D01*
X155839026Y-77538657D01*
X155575000Y-77519773D01*
X155310974Y-77538657D01*
X155310967Y-77538658D01*
X155052332Y-77594920D01*
X155052325Y-77594922D01*
X154804315Y-77687424D01*
X154804297Y-77687433D01*
X154571997Y-77814279D01*
X154571985Y-77814287D01*
X154360087Y-77972911D01*
X154172911Y-78160087D01*
X154014287Y-78371985D01*
X154014279Y-78371997D01*
X153887433Y-78604297D01*
X153887424Y-78604315D01*
X153794922Y-78852325D01*
X153794920Y-78852332D01*
X153738658Y-79110967D01*
X153738657Y-79110974D01*
X153719773Y-79375000D01*
X153150500Y-79375000D01*
X153150500Y-72355009D01*
X153135200Y-72318071D01*
X153106929Y-72289800D01*
X153069991Y-72274500D01*
X139069991Y-72274500D01*
X139030009Y-72274500D01*
X138993071Y-72289800D01*
X138993069Y-72289801D01*
X138964801Y-72318069D01*
X138949500Y-72355010D01*
X138949500Y-86394989D01*
X138949499Y-86394989D01*
X134100500Y-86394989D01*
X134100500Y-72355009D01*
X134085200Y-72318071D01*
X134056929Y-72289800D01*
X134019991Y-72274500D01*
X120019991Y-72274500D01*
X119980009Y-72274500D01*
X119943071Y-72289800D01*
X119943069Y-72289801D01*
X119914801Y-72318069D01*
X119899500Y-72355010D01*
X119899500Y-86394989D01*
X119899499Y-86394989D01*
X115050500Y-86394989D01*
X115050500Y-72355009D01*
X115035200Y-72318071D01*
X115006929Y-72289800D01*
X114969991Y-72274500D01*
X100969991Y-72274500D01*
X100930009Y-72274500D01*
X100893071Y-72289800D01*
X100893069Y-72289801D01*
X100864801Y-72318069D01*
X100849500Y-72355010D01*
X100849500Y-86394989D01*
X100849499Y-86394989D01*
X96000500Y-86394989D01*
X96000500Y-72355009D01*
X95985200Y-72318071D01*
X95956929Y-72289800D01*
X95919991Y-72274500D01*
X81919991Y-72274500D01*
X81880009Y-72274500D01*
X81843071Y-72289800D01*
X81843069Y-72289801D01*
X81814801Y-72318069D01*
X81799500Y-72355010D01*
X81799500Y-86394989D01*
X81799499Y-86394989D01*
X76950500Y-86394989D01*
X76950500Y-72355009D01*
X76935200Y-72318071D01*
X76906929Y-72289800D01*
X76869991Y-72274500D01*
X62869991Y-72274500D01*
X62830009Y-72274500D01*
X62793071Y-72289800D01*
X62793069Y-72289801D01*
X62764801Y-72318069D01*
X62749500Y-72355010D01*
X62749500Y-86394989D01*
X62749499Y-86394989D01*
X50756750Y-86394989D01*
X50756750Y-72355009D01*
X50741450Y-72318071D01*
X50713179Y-72289800D01*
X50676241Y-72274500D01*
X36676241Y-72274500D01*
X36636259Y-72274500D01*
X36599321Y-72289800D01*
X36599319Y-72289801D01*
X36571051Y-72318069D01*
X36555750Y-72355010D01*
X36555750Y-86394989D01*
X36555749Y-86394989D01*
X27088000Y-86394989D01*
X27088000Y-69850000D01*
X104889727Y-69850000D01*
X104908611Y-70114025D01*
X104908612Y-70114032D01*
X104964874Y-70372667D01*
X104964876Y-70372674D01*
X104964877Y-70372678D01*
X105057380Y-70620689D01*
X105184238Y-70853011D01*
X105342867Y-71064915D01*
X105530039Y-71252087D01*
X105741943Y-71410716D01*
X105974265Y-71537574D01*
X106222276Y-71630077D01*
X106480928Y-71686343D01*
X106744954Y-71705227D01*
X107008980Y-71686343D01*
X107267632Y-71630077D01*
X107515643Y-71537574D01*
X107747965Y-71410716D01*
X107959869Y-71252087D01*
X108147041Y-71064915D01*
X108305670Y-70853011D01*
X108432528Y-70620689D01*
X108525031Y-70372678D01*
X108581297Y-70114026D01*
X108600181Y-69850000D01*
X221982273Y-69850000D01*
X222001157Y-70114025D01*
X222001158Y-70114032D01*
X222057420Y-70372667D01*
X222057422Y-70372674D01*
X222057423Y-70372678D01*
X222149926Y-70620689D01*
X222276784Y-70853011D01*
X222435413Y-71064915D01*
X222622585Y-71252087D01*
X222834489Y-71410716D01*
X223066811Y-71537574D01*
X223314822Y-71630077D01*
X223573474Y-71686343D01*
X223837500Y-71705227D01*
X224101526Y-71686343D01*
X224360178Y-71630077D01*
X224608189Y-71537574D01*
X224840511Y-71410716D01*
X225052415Y-71252087D01*
X225239587Y-71064915D01*
X225398216Y-70853011D01*
X225525074Y-70620689D01*
X225617577Y-70372678D01*
X225673843Y-70114026D01*
X225692727Y-69850000D01*
X264844773Y-69850000D01*
X264863657Y-70114025D01*
X264863658Y-70114032D01*
X264919920Y-70372667D01*
X264919922Y-70372674D01*
X264919923Y-70372678D01*
X265012426Y-70620689D01*
X265139284Y-70853011D01*
X265297913Y-71064915D01*
X265485085Y-71252087D01*
X265696989Y-71410716D01*
X265929311Y-71537574D01*
X266177322Y-71630077D01*
X266435974Y-71686343D01*
X266700000Y-71705227D01*
X266964026Y-71686343D01*
X267222678Y-71630077D01*
X267470689Y-71537574D01*
X267703011Y-71410716D01*
X267914915Y-71252087D01*
X268102087Y-71064915D01*
X268260716Y-70853011D01*
X268387574Y-70620689D01*
X268480077Y-70372678D01*
X268536343Y-70114026D01*
X268555227Y-69850000D01*
X268536343Y-69585974D01*
X268480077Y-69327322D01*
X268387574Y-69079311D01*
X268260716Y-68846989D01*
X268102087Y-68635085D01*
X267914915Y-68447913D01*
X267703011Y-68289284D01*
X267470689Y-68162426D01*
X267222678Y-68069923D01*
X267222674Y-68069922D01*
X267222667Y-68069920D01*
X266964032Y-68013658D01*
X266964027Y-68013657D01*
X266964026Y-68013657D01*
X266700000Y-67994773D01*
X266435974Y-68013657D01*
X266435967Y-68013658D01*
X266177332Y-68069920D01*
X266177325Y-68069922D01*
X265929315Y-68162424D01*
X265929297Y-68162433D01*
X265696997Y-68289279D01*
X265696985Y-68289287D01*
X265485087Y-68447911D01*
X265297911Y-68635087D01*
X265139287Y-68846985D01*
X265139279Y-68846997D01*
X265012433Y-69079297D01*
X265012424Y-69079315D01*
X264919922Y-69327325D01*
X264919920Y-69327332D01*
X264863658Y-69585967D01*
X264863657Y-69585974D01*
X264844773Y-69850000D01*
X225692727Y-69850000D01*
X225673843Y-69585974D01*
X225617577Y-69327322D01*
X225525074Y-69079311D01*
X225398216Y-68846989D01*
X225239587Y-68635085D01*
X225052415Y-68447913D01*
X224840511Y-68289284D01*
X224608189Y-68162426D01*
X224360178Y-68069923D01*
X224360174Y-68069922D01*
X224360167Y-68069920D01*
X224101532Y-68013658D01*
X224101527Y-68013657D01*
X224101526Y-68013657D01*
X223837500Y-67994773D01*
X223573474Y-68013657D01*
X223573467Y-68013658D01*
X223314832Y-68069920D01*
X223314825Y-68069922D01*
X223066815Y-68162424D01*
X223066797Y-68162433D01*
X222834497Y-68289279D01*
X222834485Y-68289287D01*
X222622587Y-68447911D01*
X222435411Y-68635087D01*
X222276787Y-68846985D01*
X222276779Y-68846997D01*
X222149933Y-69079297D01*
X222149924Y-69079315D01*
X222057422Y-69327325D01*
X222057420Y-69327332D01*
X222001158Y-69585967D01*
X222001157Y-69585974D01*
X221982273Y-69850000D01*
X108600181Y-69850000D01*
X108581297Y-69585974D01*
X108525031Y-69327322D01*
X108432528Y-69079311D01*
X108305670Y-68846989D01*
X108147041Y-68635085D01*
X107959869Y-68447913D01*
X107747965Y-68289284D01*
X107515643Y-68162426D01*
X107267632Y-68069923D01*
X107267628Y-68069922D01*
X107267621Y-68069920D01*
X107008986Y-68013658D01*
X107008981Y-68013657D01*
X107008980Y-68013657D01*
X106744954Y-67994773D01*
X106480928Y-68013657D01*
X106480921Y-68013658D01*
X106222286Y-68069920D01*
X106222279Y-68069922D01*
X105974269Y-68162424D01*
X105974251Y-68162433D01*
X105741951Y-68289279D01*
X105741939Y-68289287D01*
X105530041Y-68447911D01*
X105342865Y-68635087D01*
X105184241Y-68846985D01*
X105184233Y-68846997D01*
X105057387Y-69079297D01*
X105057378Y-69079315D01*
X104964876Y-69327325D01*
X104964874Y-69327332D01*
X104908612Y-69585967D01*
X104908611Y-69585974D01*
X104889727Y-69850000D01*
X27088000Y-69850000D01*
X27088000Y-67344989D01*
X31793249Y-67344989D01*
X31793250Y-67344991D01*
X31808550Y-67381929D01*
X31836821Y-67410200D01*
X31873759Y-67425500D01*
X31873760Y-67425500D01*
X45913739Y-67425500D01*
X45913741Y-67425500D01*
X45950679Y-67410200D01*
X45978950Y-67381929D01*
X45994250Y-67344991D01*
X45994250Y-67344989D01*
X53224499Y-67344989D01*
X53224500Y-67344991D01*
X53239800Y-67381929D01*
X53268071Y-67410200D01*
X53305009Y-67425500D01*
X53305010Y-67425500D01*
X67344989Y-67425500D01*
X67344991Y-67425500D01*
X67381929Y-67410200D01*
X67410200Y-67381929D01*
X67425500Y-67344991D01*
X67425500Y-67344989D01*
X72274499Y-67344989D01*
X72274500Y-67344991D01*
X72289800Y-67381929D01*
X72318071Y-67410200D01*
X72355009Y-67425500D01*
X72355010Y-67425500D01*
X86394989Y-67425500D01*
X86394991Y-67425500D01*
X86431929Y-67410200D01*
X86460200Y-67381929D01*
X86475500Y-67344991D01*
X86475500Y-67344989D01*
X91324499Y-67344989D01*
X91324500Y-67344991D01*
X91339800Y-67381929D01*
X91368071Y-67410200D01*
X91405009Y-67425500D01*
X91405010Y-67425500D01*
X105444989Y-67425500D01*
X105444991Y-67425500D01*
X105481929Y-67410200D01*
X105510200Y-67381929D01*
X105525500Y-67344991D01*
X105525500Y-67344989D01*
X110374499Y-67344989D01*
X110374500Y-67344991D01*
X110389800Y-67381929D01*
X110418071Y-67410200D01*
X110455009Y-67425500D01*
X110455010Y-67425500D01*
X124494989Y-67425500D01*
X124494991Y-67425500D01*
X124531929Y-67410200D01*
X124560200Y-67381929D01*
X124575500Y-67344991D01*
X124575500Y-67344989D01*
X129424499Y-67344989D01*
X129424500Y-67344991D01*
X129439800Y-67381929D01*
X129468071Y-67410200D01*
X129505009Y-67425500D01*
X129505010Y-67425500D01*
X143544989Y-67425500D01*
X143544991Y-67425500D01*
X143581929Y-67410200D01*
X143610200Y-67381929D01*
X143625500Y-67344991D01*
X143625500Y-67344989D01*
X148474499Y-67344989D01*
X148474500Y-67344991D01*
X148489800Y-67381929D01*
X148518071Y-67410200D01*
X148555009Y-67425500D01*
X148555010Y-67425500D01*
X162594989Y-67425500D01*
X162594991Y-67425500D01*
X162631929Y-67410200D01*
X162660200Y-67381929D01*
X162675500Y-67344991D01*
X162675500Y-67344989D01*
X167524499Y-67344989D01*
X167524500Y-67344991D01*
X167539800Y-67381929D01*
X167568071Y-67410200D01*
X167605009Y-67425500D01*
X167605010Y-67425500D01*
X181644989Y-67425500D01*
X181644991Y-67425500D01*
X181681929Y-67410200D01*
X181710200Y-67381929D01*
X181725500Y-67344991D01*
X181725500Y-67344989D01*
X186574499Y-67344989D01*
X186574500Y-67344991D01*
X186589800Y-67381929D01*
X186618071Y-67410200D01*
X186655009Y-67425500D01*
X186655010Y-67425500D01*
X200694989Y-67425500D01*
X200694991Y-67425500D01*
X200731929Y-67410200D01*
X200760200Y-67381929D01*
X200775500Y-67344991D01*
X200775500Y-67344989D01*
X205624499Y-67344989D01*
X205624500Y-67344991D01*
X205639800Y-67381929D01*
X205668071Y-67410200D01*
X205705009Y-67425500D01*
X205705010Y-67425500D01*
X219744989Y-67425500D01*
X219744991Y-67425500D01*
X219781929Y-67410200D01*
X219810200Y-67381929D01*
X219825500Y-67344991D01*
X219825500Y-67344989D01*
X224674499Y-67344989D01*
X224674500Y-67344991D01*
X224689800Y-67381929D01*
X224718071Y-67410200D01*
X224755009Y-67425500D01*
X224755010Y-67425500D01*
X238794989Y-67425500D01*
X238794991Y-67425500D01*
X238831929Y-67410200D01*
X238860200Y-67381929D01*
X238875500Y-67344991D01*
X238875500Y-67344989D01*
X248486999Y-67344989D01*
X248487000Y-67344991D01*
X248502300Y-67381929D01*
X248530571Y-67410200D01*
X248567509Y-67425500D01*
X248567510Y-67425500D01*
X262607489Y-67425500D01*
X262607491Y-67425500D01*
X262644429Y-67410200D01*
X262672700Y-67381929D01*
X262688000Y-67344991D01*
X262688000Y-53305009D01*
X262672700Y-53268071D01*
X262644429Y-53239800D01*
X262607491Y-53224500D01*
X248607491Y-53224500D01*
X248567509Y-53224500D01*
X248530571Y-53239800D01*
X248530569Y-53239801D01*
X248502301Y-53268069D01*
X248487000Y-53305010D01*
X248487000Y-67344989D01*
X248486999Y-67344989D01*
X238875500Y-67344989D01*
X238875500Y-53305009D01*
X238860200Y-53268071D01*
X238831929Y-53239800D01*
X238794991Y-53224500D01*
X224794991Y-53224500D01*
X224755009Y-53224500D01*
X224718071Y-53239800D01*
X224718069Y-53239801D01*
X224689801Y-53268069D01*
X224674500Y-53305010D01*
X224674500Y-67344989D01*
X224674499Y-67344989D01*
X219825500Y-67344989D01*
X219825500Y-53305009D01*
X219810200Y-53268071D01*
X219781929Y-53239800D01*
X219744991Y-53224500D01*
X205744991Y-53224500D01*
X205705009Y-53224500D01*
X205668071Y-53239800D01*
X205668069Y-53239801D01*
X205639801Y-53268069D01*
X205624500Y-53305010D01*
X205624500Y-67344989D01*
X205624499Y-67344989D01*
X200775500Y-67344989D01*
X200775500Y-53305009D01*
X200760200Y-53268071D01*
X200731929Y-53239800D01*
X200694991Y-53224500D01*
X186694991Y-53224500D01*
X186655009Y-53224500D01*
X186618071Y-53239800D01*
X186618069Y-53239801D01*
X186589801Y-53268069D01*
X186574500Y-53305010D01*
X186574500Y-67344989D01*
X186574499Y-67344989D01*
X181725500Y-67344989D01*
X181725500Y-60325000D01*
X182294773Y-60325000D01*
X182313657Y-60589025D01*
X182313658Y-60589032D01*
X182369920Y-60847667D01*
X182369922Y-60847674D01*
X182369923Y-60847678D01*
X182462426Y-61095689D01*
X182589284Y-61328011D01*
X182747913Y-61539915D01*
X182935085Y-61727087D01*
X183146989Y-61885716D01*
X183379311Y-62012574D01*
X183627322Y-62105077D01*
X183885974Y-62161343D01*
X184150000Y-62180227D01*
X184414026Y-62161343D01*
X184672678Y-62105077D01*
X184920689Y-62012574D01*
X185153011Y-61885716D01*
X185364915Y-61727087D01*
X185552087Y-61539915D01*
X185710716Y-61328011D01*
X185837574Y-61095689D01*
X185930077Y-60847678D01*
X185986343Y-60589026D01*
X186005227Y-60325000D01*
X185986343Y-60060974D01*
X185930077Y-59802322D01*
X185837574Y-59554311D01*
X185710716Y-59321989D01*
X185552087Y-59110085D01*
X185364915Y-58922913D01*
X185153011Y-58764284D01*
X184920689Y-58637426D01*
X184672678Y-58544923D01*
X184672674Y-58544922D01*
X184672667Y-58544920D01*
X184414032Y-58488658D01*
X184414027Y-58488657D01*
X184414026Y-58488657D01*
X184150000Y-58469773D01*
X183885974Y-58488657D01*
X183885967Y-58488658D01*
X183627332Y-58544920D01*
X183627325Y-58544922D01*
X183379315Y-58637424D01*
X183379297Y-58637433D01*
X183146997Y-58764279D01*
X183146985Y-58764287D01*
X182935087Y-58922911D01*
X182747911Y-59110087D01*
X182589287Y-59321985D01*
X182589279Y-59321997D01*
X182462433Y-59554297D01*
X182462424Y-59554315D01*
X182369922Y-59802325D01*
X182369920Y-59802332D01*
X182313658Y-60060967D01*
X182313657Y-60060974D01*
X182294773Y-60325000D01*
X181725500Y-60325000D01*
X181725500Y-53305009D01*
X181710200Y-53268071D01*
X181681929Y-53239800D01*
X181644991Y-53224500D01*
X167644991Y-53224500D01*
X167605009Y-53224500D01*
X167568071Y-53239800D01*
X167568069Y-53239801D01*
X167539801Y-53268069D01*
X167524500Y-53305010D01*
X167524500Y-67344989D01*
X167524499Y-67344989D01*
X162675500Y-67344989D01*
X162675500Y-53305009D01*
X162660200Y-53268071D01*
X162631929Y-53239800D01*
X162594991Y-53224500D01*
X148594991Y-53224500D01*
X148555009Y-53224500D01*
X148518071Y-53239800D01*
X148518069Y-53239801D01*
X148489801Y-53268069D01*
X148474500Y-53305010D01*
X148474500Y-67344989D01*
X148474499Y-67344989D01*
X143625500Y-67344989D01*
X143625500Y-53305009D01*
X143610200Y-53268071D01*
X143581929Y-53239800D01*
X143544991Y-53224500D01*
X129544991Y-53224500D01*
X129505009Y-53224500D01*
X129468071Y-53239800D01*
X129468069Y-53239801D01*
X129439801Y-53268069D01*
X129424500Y-53305010D01*
X129424500Y-67344989D01*
X129424499Y-67344989D01*
X124575500Y-67344989D01*
X124575500Y-53305009D01*
X124560200Y-53268071D01*
X124531929Y-53239800D01*
X124494991Y-53224500D01*
X110494991Y-53224500D01*
X110455009Y-53224500D01*
X110418071Y-53239800D01*
X110418069Y-53239801D01*
X110389801Y-53268069D01*
X110374500Y-53305010D01*
X110374500Y-67344989D01*
X110374499Y-67344989D01*
X105525500Y-67344989D01*
X105525500Y-53305009D01*
X105510200Y-53268071D01*
X105481929Y-53239800D01*
X105444991Y-53224500D01*
X91444991Y-53224500D01*
X91405009Y-53224500D01*
X91368071Y-53239800D01*
X91368069Y-53239801D01*
X91339801Y-53268069D01*
X91324500Y-53305010D01*
X91324500Y-67344989D01*
X91324499Y-67344989D01*
X86475500Y-67344989D01*
X86475500Y-53305009D01*
X86460200Y-53268071D01*
X86431929Y-53239800D01*
X86394991Y-53224500D01*
X72394991Y-53224500D01*
X72355009Y-53224500D01*
X72318071Y-53239800D01*
X72318069Y-53239801D01*
X72289801Y-53268069D01*
X72274500Y-53305010D01*
X72274500Y-67344989D01*
X72274499Y-67344989D01*
X67425500Y-67344989D01*
X67425500Y-60325000D01*
X67994773Y-60325000D01*
X68013657Y-60589025D01*
X68013658Y-60589032D01*
X68069920Y-60847667D01*
X68069922Y-60847674D01*
X68069923Y-60847678D01*
X68162426Y-61095689D01*
X68289284Y-61328011D01*
X68447913Y-61539915D01*
X68635085Y-61727087D01*
X68846989Y-61885716D01*
X69079311Y-62012574D01*
X69327322Y-62105077D01*
X69585974Y-62161343D01*
X69850000Y-62180227D01*
X70114026Y-62161343D01*
X70372678Y-62105077D01*
X70620689Y-62012574D01*
X70853011Y-61885716D01*
X71064915Y-61727087D01*
X71252087Y-61539915D01*
X71410716Y-61328011D01*
X71537574Y-61095689D01*
X71630077Y-60847678D01*
X71686343Y-60589026D01*
X71705227Y-60325000D01*
X71686343Y-60060974D01*
X71630077Y-59802322D01*
X71537574Y-59554311D01*
X71410716Y-59321989D01*
X71252087Y-59110085D01*
X71064915Y-58922913D01*
X70853011Y-58764284D01*
X70620689Y-58637426D01*
X70372678Y-58544923D01*
X70372674Y-58544922D01*
X70372667Y-58544920D01*
X70114032Y-58488658D01*
X70114027Y-58488657D01*
X70114026Y-58488657D01*
X69850000Y-58469773D01*
X69585974Y-58488657D01*
X69585967Y-58488658D01*
X69327332Y-58544920D01*
X69327325Y-58544922D01*
X69079315Y-58637424D01*
X69079297Y-58637433D01*
X68846997Y-58764279D01*
X68846985Y-58764287D01*
X68635087Y-58922911D01*
X68447911Y-59110087D01*
X68289287Y-59321985D01*
X68289279Y-59321997D01*
X68162433Y-59554297D01*
X68162424Y-59554315D01*
X68069922Y-59802325D01*
X68069920Y-59802332D01*
X68013658Y-60060967D01*
X68013657Y-60060974D01*
X67994773Y-60325000D01*
X67425500Y-60325000D01*
X67425500Y-53305009D01*
X67410200Y-53268071D01*
X67381929Y-53239800D01*
X67344991Y-53224500D01*
X53344991Y-53224500D01*
X53305009Y-53224500D01*
X53268071Y-53239800D01*
X53268069Y-53239801D01*
X53239801Y-53268069D01*
X53224500Y-53305010D01*
X53224500Y-67344989D01*
X53224499Y-67344989D01*
X45994250Y-67344989D01*
X45994250Y-53305009D01*
X45978950Y-53268071D01*
X45950679Y-53239800D01*
X45913741Y-53224500D01*
X31913741Y-53224500D01*
X31873759Y-53224500D01*
X31836821Y-53239800D01*
X31836819Y-53239801D01*
X31808551Y-53268069D01*
X31793250Y-53305010D01*
X31793250Y-67344989D01*
X31793249Y-67344989D01*
X27088000Y-67344989D01*
X27088000Y-48294989D01*
X29411999Y-48294989D01*
X29412000Y-48294991D01*
X29427300Y-48331929D01*
X29455571Y-48360200D01*
X29492509Y-48375500D01*
X29492510Y-48375500D01*
X43532489Y-48375500D01*
X43532491Y-48375500D01*
X43569429Y-48360200D01*
X43597700Y-48331929D01*
X43613000Y-48294991D01*
X43613000Y-48294989D01*
X48461999Y-48294989D01*
X48462000Y-48294991D01*
X48477300Y-48331929D01*
X48505571Y-48360200D01*
X48542509Y-48375500D01*
X48542510Y-48375500D01*
X62582489Y-48375500D01*
X62582491Y-48375500D01*
X62619429Y-48360200D01*
X62647700Y-48331929D01*
X62663000Y-48294991D01*
X62663000Y-48294989D01*
X67511999Y-48294989D01*
X67512000Y-48294991D01*
X67527300Y-48331929D01*
X67555571Y-48360200D01*
X67592509Y-48375500D01*
X67592510Y-48375500D01*
X81632489Y-48375500D01*
X81632491Y-48375500D01*
X81669429Y-48360200D01*
X81697700Y-48331929D01*
X81713000Y-48294991D01*
X81713000Y-48294989D01*
X86561999Y-48294989D01*
X86562000Y-48294991D01*
X86577300Y-48331929D01*
X86605571Y-48360200D01*
X86642509Y-48375500D01*
X86642510Y-48375500D01*
X100682489Y-48375500D01*
X100682491Y-48375500D01*
X100719429Y-48360200D01*
X100747700Y-48331929D01*
X100763000Y-48294991D01*
X100763000Y-48294989D01*
X105611999Y-48294989D01*
X105612000Y-48294991D01*
X105627300Y-48331929D01*
X105655571Y-48360200D01*
X105692509Y-48375500D01*
X105692510Y-48375500D01*
X119732489Y-48375500D01*
X119732491Y-48375500D01*
X119769429Y-48360200D01*
X119797700Y-48331929D01*
X119813000Y-48294991D01*
X119813000Y-48294989D01*
X124661999Y-48294989D01*
X124662000Y-48294991D01*
X124677300Y-48331929D01*
X124705571Y-48360200D01*
X124742509Y-48375500D01*
X124742510Y-48375500D01*
X138782489Y-48375500D01*
X138782491Y-48375500D01*
X138819429Y-48360200D01*
X138847700Y-48331929D01*
X138863000Y-48294991D01*
X138863000Y-48294989D01*
X143711999Y-48294989D01*
X143712000Y-48294991D01*
X143727300Y-48331929D01*
X143755571Y-48360200D01*
X143792509Y-48375500D01*
X143792510Y-48375500D01*
X157832489Y-48375500D01*
X157832491Y-48375500D01*
X157869429Y-48360200D01*
X157897700Y-48331929D01*
X157913000Y-48294991D01*
X157913000Y-48294989D01*
X162761999Y-48294989D01*
X162762000Y-48294991D01*
X162777300Y-48331929D01*
X162805571Y-48360200D01*
X162842509Y-48375500D01*
X162842510Y-48375500D01*
X176882489Y-48375500D01*
X176882491Y-48375500D01*
X176919429Y-48360200D01*
X176947700Y-48331929D01*
X176963000Y-48294991D01*
X176963000Y-48294989D01*
X181811999Y-48294989D01*
X181812000Y-48294991D01*
X181827300Y-48331929D01*
X181855571Y-48360200D01*
X181892509Y-48375500D01*
X181892510Y-48375500D01*
X195932489Y-48375500D01*
X195932491Y-48375500D01*
X195969429Y-48360200D01*
X195997700Y-48331929D01*
X196013000Y-48294991D01*
X196013000Y-48294989D01*
X200861999Y-48294989D01*
X200862000Y-48294991D01*
X200877300Y-48331929D01*
X200905571Y-48360200D01*
X200942509Y-48375500D01*
X200942510Y-48375500D01*
X214982489Y-48375500D01*
X214982491Y-48375500D01*
X215019429Y-48360200D01*
X215047700Y-48331929D01*
X215063000Y-48294991D01*
X215063000Y-48294989D01*
X219911999Y-48294989D01*
X219912000Y-48294991D01*
X219927300Y-48331929D01*
X219955571Y-48360200D01*
X219992509Y-48375500D01*
X219992510Y-48375500D01*
X234032489Y-48375500D01*
X234032491Y-48375500D01*
X234069429Y-48360200D01*
X234097700Y-48331929D01*
X234113000Y-48294991D01*
X234113000Y-48294989D01*
X246105749Y-48294989D01*
X246105750Y-48294991D01*
X246121050Y-48331929D01*
X246149321Y-48360200D01*
X246186259Y-48375500D01*
X246186260Y-48375500D01*
X260226239Y-48375500D01*
X260226241Y-48375500D01*
X260263179Y-48360200D01*
X260291450Y-48331929D01*
X260306750Y-48294991D01*
X260306750Y-34255009D01*
X260291450Y-34218071D01*
X260263179Y-34189800D01*
X260226241Y-34174500D01*
X246226241Y-34174500D01*
X246186259Y-34174500D01*
X246149321Y-34189800D01*
X246149319Y-34189801D01*
X246121051Y-34218069D01*
X246121050Y-34218070D01*
X246121050Y-34218071D01*
X246116803Y-34228326D01*
X246105750Y-34255010D01*
X246105750Y-48294989D01*
X246105749Y-48294989D01*
X234113000Y-48294989D01*
X234113000Y-41275000D01*
X238651023Y-41275000D01*
X238669907Y-41539025D01*
X238669908Y-41539032D01*
X238726170Y-41797667D01*
X238726172Y-41797674D01*
X238726173Y-41797678D01*
X238818676Y-42045689D01*
X238945534Y-42278011D01*
X239104163Y-42489915D01*
X239291335Y-42677087D01*
X239503239Y-42835716D01*
X239735561Y-42962574D01*
X239983572Y-43055077D01*
X240242224Y-43111343D01*
X240506250Y-43130227D01*
X240770276Y-43111343D01*
X241028928Y-43055077D01*
X241276939Y-42962574D01*
X241509261Y-42835716D01*
X241721165Y-42677087D01*
X241908337Y-42489915D01*
X242066966Y-42278011D01*
X242193824Y-42045689D01*
X242286327Y-41797678D01*
X242342593Y-41539026D01*
X242361477Y-41275000D01*
X242342593Y-41010974D01*
X242286327Y-40752322D01*
X242193824Y-40504311D01*
X242066966Y-40271989D01*
X241908337Y-40060085D01*
X241721165Y-39872913D01*
X241509261Y-39714284D01*
X241276939Y-39587426D01*
X241028928Y-39494923D01*
X241028924Y-39494922D01*
X241028917Y-39494920D01*
X240770282Y-39438658D01*
X240770277Y-39438657D01*
X240770276Y-39438657D01*
X240506250Y-39419773D01*
X240242224Y-39438657D01*
X240242217Y-39438658D01*
X239983582Y-39494920D01*
X239983575Y-39494922D01*
X239735565Y-39587424D01*
X239735547Y-39587433D01*
X239503247Y-39714279D01*
X239503235Y-39714287D01*
X239291337Y-39872911D01*
X239104161Y-40060087D01*
X238945537Y-40271985D01*
X238945529Y-40271997D01*
X238818683Y-40504297D01*
X238818674Y-40504315D01*
X238726172Y-40752325D01*
X238726170Y-40752332D01*
X238669908Y-41010967D01*
X238669907Y-41010974D01*
X238651023Y-41275000D01*
X234113000Y-41275000D01*
X234113000Y-34255009D01*
X234097700Y-34218071D01*
X234069429Y-34189800D01*
X234032491Y-34174500D01*
X220032491Y-34174500D01*
X219992509Y-34174500D01*
X219955571Y-34189800D01*
X219955569Y-34189801D01*
X219927301Y-34218069D01*
X219927300Y-34218070D01*
X219927300Y-34218071D01*
X219923053Y-34228326D01*
X219912000Y-34255010D01*
X219912000Y-48294989D01*
X219911999Y-48294989D01*
X215063000Y-48294989D01*
X215063000Y-34255009D01*
X215047700Y-34218071D01*
X215019429Y-34189800D01*
X214982491Y-34174500D01*
X200982491Y-34174500D01*
X200942509Y-34174500D01*
X200905571Y-34189800D01*
X200905569Y-34189801D01*
X200877301Y-34218069D01*
X200877300Y-34218070D01*
X200877300Y-34218071D01*
X200873053Y-34228326D01*
X200862000Y-34255010D01*
X200862000Y-48294989D01*
X200861999Y-48294989D01*
X196013000Y-48294989D01*
X196013000Y-34255009D01*
X195997700Y-34218071D01*
X195969429Y-34189800D01*
X195932491Y-34174500D01*
X181932491Y-34174500D01*
X181892509Y-34174500D01*
X181855571Y-34189800D01*
X181855569Y-34189801D01*
X181827301Y-34218069D01*
X181827300Y-34218070D01*
X181827300Y-34218071D01*
X181823053Y-34228326D01*
X181812000Y-34255010D01*
X181812000Y-48294989D01*
X181811999Y-48294989D01*
X176963000Y-48294989D01*
X176963000Y-34255009D01*
X176947700Y-34218071D01*
X176919429Y-34189800D01*
X176882491Y-34174500D01*
X162882491Y-34174500D01*
X162842509Y-34174500D01*
X162805571Y-34189800D01*
X162805569Y-34189801D01*
X162777301Y-34218069D01*
X162777300Y-34218070D01*
X162777300Y-34218071D01*
X162773053Y-34228326D01*
X162762000Y-34255010D01*
X162762000Y-48294989D01*
X162761999Y-48294989D01*
X157913000Y-48294989D01*
X157913000Y-34255009D01*
X157897700Y-34218071D01*
X157869429Y-34189800D01*
X157832491Y-34174500D01*
X143832491Y-34174500D01*
X143792509Y-34174500D01*
X143755571Y-34189800D01*
X143755569Y-34189801D01*
X143727301Y-34218069D01*
X143727300Y-34218070D01*
X143727300Y-34218071D01*
X143723053Y-34228326D01*
X143712000Y-34255010D01*
X143712000Y-48294989D01*
X143711999Y-48294989D01*
X138863000Y-48294989D01*
X138863000Y-41275000D01*
X139432273Y-41275000D01*
X139451157Y-41539025D01*
X139451158Y-41539032D01*
X139507420Y-41797667D01*
X139507422Y-41797674D01*
X139507423Y-41797678D01*
X139599926Y-42045689D01*
X139726784Y-42278011D01*
X139885413Y-42489915D01*
X140072585Y-42677087D01*
X140284489Y-42835716D01*
X140516811Y-42962574D01*
X140764822Y-43055077D01*
X141023474Y-43111343D01*
X141287500Y-43130227D01*
X141551526Y-43111343D01*
X141810178Y-43055077D01*
X142058189Y-42962574D01*
X142290511Y-42835716D01*
X142502415Y-42677087D01*
X142689587Y-42489915D01*
X142848216Y-42278011D01*
X142975074Y-42045689D01*
X143067577Y-41797678D01*
X143123843Y-41539026D01*
X143142727Y-41275000D01*
X143123843Y-41010974D01*
X143067577Y-40752322D01*
X142975074Y-40504311D01*
X142848216Y-40271989D01*
X142689587Y-40060085D01*
X142502415Y-39872913D01*
X142290511Y-39714284D01*
X142058189Y-39587426D01*
X141810178Y-39494923D01*
X141810174Y-39494922D01*
X141810167Y-39494920D01*
X141551532Y-39438658D01*
X141551527Y-39438657D01*
X141551526Y-39438657D01*
X141287500Y-39419773D01*
X141023474Y-39438657D01*
X141023467Y-39438658D01*
X140764832Y-39494920D01*
X140764825Y-39494922D01*
X140516815Y-39587424D01*
X140516797Y-39587433D01*
X140284497Y-39714279D01*
X140284485Y-39714287D01*
X140072587Y-39872911D01*
X139885411Y-40060087D01*
X139726787Y-40271985D01*
X139726779Y-40271997D01*
X139599933Y-40504297D01*
X139599924Y-40504315D01*
X139507422Y-40752325D01*
X139507420Y-40752332D01*
X139451158Y-41010967D01*
X139451157Y-41010974D01*
X139432273Y-41275000D01*
X138863000Y-41275000D01*
X138863000Y-34255009D01*
X138847700Y-34218071D01*
X138819429Y-34189800D01*
X138782491Y-34174500D01*
X124782491Y-34174500D01*
X124742509Y-34174500D01*
X124705571Y-34189800D01*
X124705569Y-34189801D01*
X124677301Y-34218069D01*
X124677300Y-34218070D01*
X124677300Y-34218071D01*
X124673053Y-34228326D01*
X124662000Y-34255010D01*
X124662000Y-48294989D01*
X124661999Y-48294989D01*
X119813000Y-48294989D01*
X119813000Y-34255009D01*
X119797700Y-34218071D01*
X119769429Y-34189800D01*
X119732491Y-34174500D01*
X105732491Y-34174500D01*
X105692509Y-34174500D01*
X105655571Y-34189800D01*
X105655569Y-34189801D01*
X105627301Y-34218069D01*
X105627300Y-34218070D01*
X105627300Y-34218071D01*
X105623053Y-34228326D01*
X105612000Y-34255010D01*
X105612000Y-48294989D01*
X105611999Y-48294989D01*
X100763000Y-48294989D01*
X100763000Y-34255009D01*
X100747700Y-34218071D01*
X100719429Y-34189800D01*
X100682491Y-34174500D01*
X86682491Y-34174500D01*
X86642509Y-34174500D01*
X86605571Y-34189800D01*
X86605569Y-34189801D01*
X86577301Y-34218069D01*
X86577300Y-34218070D01*
X86577300Y-34218071D01*
X86573053Y-34228326D01*
X86562000Y-34255010D01*
X86562000Y-48294989D01*
X86561999Y-48294989D01*
X81713000Y-48294989D01*
X81713000Y-41275000D01*
X82282273Y-41275000D01*
X82301157Y-41539025D01*
X82301158Y-41539032D01*
X82357420Y-41797667D01*
X82357422Y-41797674D01*
X82357423Y-41797678D01*
X82449926Y-42045689D01*
X82576784Y-42278011D01*
X82735413Y-42489915D01*
X82922585Y-42677087D01*
X83134489Y-42835716D01*
X83366811Y-42962574D01*
X83614822Y-43055077D01*
X83873474Y-43111343D01*
X84137500Y-43130227D01*
X84401526Y-43111343D01*
X84660178Y-43055077D01*
X84908189Y-42962574D01*
X85140511Y-42835716D01*
X85352415Y-42677087D01*
X85539587Y-42489915D01*
X85698216Y-42278011D01*
X85825074Y-42045689D01*
X85917577Y-41797678D01*
X85973843Y-41539026D01*
X85992727Y-41275000D01*
X85973843Y-41010974D01*
X85917577Y-40752322D01*
X85825074Y-40504311D01*
X85698216Y-40271989D01*
X85539587Y-40060085D01*
X85352415Y-39872913D01*
X85140511Y-39714284D01*
X84908189Y-39587426D01*
X84660178Y-39494923D01*
X84660174Y-39494922D01*
X84660167Y-39494920D01*
X84401532Y-39438658D01*
X84401527Y-39438657D01*
X84401526Y-39438657D01*
X84137500Y-39419773D01*
X83873474Y-39438657D01*
X83873467Y-39438658D01*
X83614832Y-39494920D01*
X83614825Y-39494922D01*
X83366815Y-39587424D01*
X83366797Y-39587433D01*
X83134497Y-39714279D01*
X83134485Y-39714287D01*
X82922587Y-39872911D01*
X82735411Y-40060087D01*
X82576787Y-40271985D01*
X82576779Y-40271997D01*
X82449933Y-40504297D01*
X82449924Y-40504315D01*
X82357422Y-40752325D01*
X82357420Y-40752332D01*
X82301158Y-41010967D01*
X82301157Y-41010974D01*
X82282273Y-41275000D01*
X81713000Y-41275000D01*
X81713000Y-34255009D01*
X81697700Y-34218071D01*
X81669429Y-34189800D01*
X81632491Y-34174500D01*
X67632491Y-34174500D01*
X67592509Y-34174500D01*
X67555571Y-34189800D01*
X67555569Y-34189801D01*
X67527301Y-34218069D01*
X67527300Y-34218070D01*
X67527300Y-34218071D01*
X67523053Y-34228326D01*
X67512000Y-34255010D01*
X67512000Y-48294989D01*
X67511999Y-48294989D01*
X62663000Y-48294989D01*
X62663000Y-34255009D01*
X62647700Y-34218071D01*
X62619429Y-34189800D01*
X62582491Y-34174500D01*
X48582491Y-34174500D01*
X48542509Y-34174500D01*
X48505571Y-34189800D01*
X48505569Y-34189801D01*
X48477301Y-34218069D01*
X48477300Y-34218070D01*
X48477300Y-34218071D01*
X48473053Y-34228326D01*
X48462000Y-34255010D01*
X48462000Y-48294989D01*
X48461999Y-48294989D01*
X43613000Y-48294989D01*
X43613000Y-34255009D01*
X43597700Y-34218071D01*
X43569429Y-34189800D01*
X43532491Y-34174500D01*
X29532491Y-34174500D01*
X29492509Y-34174500D01*
X29455571Y-34189800D01*
X29455569Y-34189801D01*
X29427301Y-34218069D01*
X29427300Y-34218070D01*
X29427300Y-34218071D01*
X29423053Y-34228326D01*
X29412000Y-34255010D01*
X29412000Y-48294989D01*
X29411999Y-48294989D01*
X27088000Y-48294989D01*
X27088000Y-38580009D01*
X27088000Y-38485530D01*
X27055418Y-38258920D01*
X26990918Y-38039254D01*
X26895813Y-37831003D01*
X26861378Y-37777421D01*
X26772042Y-37638410D01*
X26772041Y-37638409D01*
X26772040Y-37638408D01*
X26772039Y-37638406D01*
X26622115Y-37465385D01*
X26449094Y-37315461D01*
X26449091Y-37315459D01*
X26449090Y-37315458D01*
X26449089Y-37315457D01*
X26256509Y-37191694D01*
X26256501Y-37191689D01*
X26256497Y-37191687D01*
X26256492Y-37191685D01*
X26256489Y-37191683D01*
X26113678Y-37126464D01*
X26048246Y-37096582D01*
X25987132Y-37078637D01*
X25828586Y-37032083D01*
X25828580Y-37032082D01*
X25601970Y-36999500D01*
X25601966Y-36999500D01*
X24662825Y-36999500D01*
X24662192Y-36999483D01*
X24380024Y-36983922D01*
X24378765Y-36983782D01*
X24100354Y-36937345D01*
X24099118Y-36937068D01*
X23827497Y-36860296D01*
X23826299Y-36859885D01*
X23564765Y-36753711D01*
X23563620Y-36753171D01*
X23315346Y-36618883D01*
X23314267Y-36618220D01*
X23082775Y-36457800D01*
X23081044Y-36456328D01*
X23003987Y-36376364D01*
X23002074Y-36373707D01*
X22985739Y-36342425D01*
X22950961Y-36275823D01*
X22949877Y-36272742D01*
X22928418Y-36164417D01*
X22928246Y-36161147D01*
X22938181Y-36051176D01*
X22938936Y-36047991D01*
X22938944Y-36047971D01*
X22979463Y-35945262D01*
X22981077Y-35942433D01*
X23048911Y-35855285D01*
X23051260Y-35853023D01*
X23140903Y-35788521D01*
X23143796Y-35787012D01*
X23248798Y-35750099D01*
X23250360Y-35749672D01*
X23275950Y-35744612D01*
X23275951Y-35744610D01*
X23277490Y-35744306D01*
X23277561Y-35744280D01*
X23356958Y-35728549D01*
X23562160Y-35651990D01*
X23752346Y-35543368D01*
X23922547Y-35405523D01*
X24068313Y-35242056D01*
X24185837Y-35057239D01*
X24272048Y-34855901D01*
X24324692Y-34643302D01*
X24324693Y-34643293D01*
X24342394Y-34425005D01*
X24342394Y-34424994D01*
X24324693Y-34206706D01*
X24324692Y-34206703D01*
X24324692Y-34206698D01*
X24272048Y-33994099D01*
X24185837Y-33792761D01*
X24068313Y-33607944D01*
X23922547Y-33444477D01*
X23922545Y-33444476D01*
X23922544Y-33444474D01*
X23752345Y-33306631D01*
X23752342Y-33306629D01*
X23562164Y-33198012D01*
X23562161Y-33198010D01*
X23356961Y-33121452D01*
X23356960Y-33121451D01*
X23356958Y-33121451D01*
X23322918Y-33114705D01*
X23277524Y-33105710D01*
X23277461Y-33105689D01*
X23250354Y-33100326D01*
X23248771Y-33099894D01*
X23143806Y-33062981D01*
X23140904Y-33061466D01*
X23086912Y-33022612D01*
X23051269Y-32996963D01*
X23048917Y-32994699D01*
X22981081Y-32907546D01*
X22979463Y-32904710D01*
X22938932Y-32801974D01*
X22938179Y-32798798D01*
X22928237Y-32688808D01*
X22928408Y-32685553D01*
X22949859Y-32577214D01*
X22950942Y-32574135D01*
X23002051Y-32476226D01*
X23003958Y-32473579D01*
X23080641Y-32393976D01*
X23082358Y-32392514D01*
X23314286Y-32231776D01*
X23315346Y-32231125D01*
X23563638Y-32096816D01*
X23564765Y-32096285D01*
X23826307Y-31990101D01*
X23827495Y-31989693D01*
X24099134Y-31912911D01*
X24100338Y-31912641D01*
X24378773Y-31866196D01*
X24380017Y-31866057D01*
X24661811Y-31850517D01*
X24662444Y-31850500D01*
X25601966Y-31850500D01*
X25601970Y-31850500D01*
X25828580Y-31817918D01*
X26048246Y-31753418D01*
X26256497Y-31658313D01*
X26449094Y-31534539D01*
X26622115Y-31384615D01*
X26772039Y-31211594D01*
X26895813Y-31018997D01*
X26990918Y-30810746D01*
X27055418Y-30591080D01*
X27088000Y-30364470D01*
X27088000Y-30250000D01*
X27088000Y-30223071D01*
X27088000Y-29244989D01*
X38936999Y-29244989D01*
X38937000Y-29244991D01*
X38952300Y-29281929D01*
X38980571Y-29310200D01*
X39017509Y-29325500D01*
X39017510Y-29325500D01*
X53057489Y-29325500D01*
X53057491Y-29325500D01*
X53094429Y-29310200D01*
X53122700Y-29281929D01*
X53138000Y-29244991D01*
X53138000Y-29244989D01*
X57986999Y-29244989D01*
X57987000Y-29244991D01*
X58002300Y-29281929D01*
X58030571Y-29310200D01*
X58067509Y-29325500D01*
X58067510Y-29325500D01*
X72107489Y-29325500D01*
X72107491Y-29325500D01*
X72144429Y-29310200D01*
X72172700Y-29281929D01*
X72188000Y-29244991D01*
X72188000Y-29244989D01*
X77036999Y-29244989D01*
X77037000Y-29244991D01*
X77052300Y-29281929D01*
X77080571Y-29310200D01*
X77117509Y-29325500D01*
X77117510Y-29325500D01*
X91157489Y-29325500D01*
X91157491Y-29325500D01*
X91194429Y-29310200D01*
X91222700Y-29281929D01*
X91238000Y-29244991D01*
X91238000Y-29244989D01*
X96086999Y-29244989D01*
X96087000Y-29244991D01*
X96102300Y-29281929D01*
X96130571Y-29310200D01*
X96167509Y-29325500D01*
X96167510Y-29325500D01*
X110207489Y-29325500D01*
X110207491Y-29325500D01*
X110244429Y-29310200D01*
X110272700Y-29281929D01*
X110288000Y-29244991D01*
X110288000Y-29244989D01*
X115136999Y-29244989D01*
X115137000Y-29244991D01*
X115152300Y-29281929D01*
X115180571Y-29310200D01*
X115217509Y-29325500D01*
X115217510Y-29325500D01*
X129257489Y-29325500D01*
X129257491Y-29325500D01*
X129294429Y-29310200D01*
X129322700Y-29281929D01*
X129338000Y-29244991D01*
X129338000Y-29244989D01*
X134186999Y-29244989D01*
X134187000Y-29244991D01*
X134202300Y-29281929D01*
X134230571Y-29310200D01*
X134267509Y-29325500D01*
X134267510Y-29325500D01*
X148307489Y-29325500D01*
X148307491Y-29325500D01*
X148344429Y-29310200D01*
X148372700Y-29281929D01*
X148388000Y-29244991D01*
X148388000Y-15205009D01*
X148372700Y-15168071D01*
X148344429Y-15139800D01*
X148307491Y-15124500D01*
X134307491Y-15124500D01*
X134267509Y-15124500D01*
X134230571Y-15139800D01*
X134230569Y-15139801D01*
X134202301Y-15168069D01*
X134187000Y-15205010D01*
X134187000Y-29244989D01*
X134186999Y-29244989D01*
X129338000Y-29244989D01*
X129338000Y-22218750D01*
X129907273Y-22218750D01*
X129926157Y-22482775D01*
X129926158Y-22482782D01*
X129982420Y-22741417D01*
X129982422Y-22741424D01*
X129982423Y-22741428D01*
X130074926Y-22989439D01*
X130201784Y-23221761D01*
X130360413Y-23433665D01*
X130547585Y-23620837D01*
X130759489Y-23779466D01*
X130991811Y-23906324D01*
X131239822Y-23998827D01*
X131498474Y-24055093D01*
X131762500Y-24073977D01*
X132026526Y-24055093D01*
X132285178Y-23998827D01*
X132533189Y-23906324D01*
X132765511Y-23779466D01*
X132977415Y-23620837D01*
X133164587Y-23433665D01*
X133323216Y-23221761D01*
X133450074Y-22989439D01*
X133542577Y-22741428D01*
X133598843Y-22482776D01*
X133617727Y-22218750D01*
X133598843Y-21954724D01*
X133542577Y-21696072D01*
X133450074Y-21448061D01*
X133323216Y-21215739D01*
X133164587Y-21003835D01*
X132977415Y-20816663D01*
X132765511Y-20658034D01*
X132533189Y-20531176D01*
X132285178Y-20438673D01*
X132285174Y-20438672D01*
X132285167Y-20438670D01*
X132026532Y-20382408D01*
X132026527Y-20382407D01*
X132026526Y-20382407D01*
X131762500Y-20363523D01*
X131498474Y-20382407D01*
X131498467Y-20382408D01*
X131239832Y-20438670D01*
X131239825Y-20438672D01*
X130991815Y-20531174D01*
X130991797Y-20531183D01*
X130759497Y-20658029D01*
X130759485Y-20658037D01*
X130547587Y-20816661D01*
X130360411Y-21003837D01*
X130201787Y-21215735D01*
X130201779Y-21215747D01*
X130074933Y-21448047D01*
X130074924Y-21448065D01*
X129982422Y-21696075D01*
X129982420Y-21696082D01*
X129926158Y-21954717D01*
X129926157Y-21954724D01*
X129907273Y-22218750D01*
X129338000Y-22218750D01*
X129338000Y-15205009D01*
X129322700Y-15168071D01*
X129294429Y-15139800D01*
X129257491Y-15124500D01*
X115257491Y-15124500D01*
X115217509Y-15124500D01*
X115180571Y-15139800D01*
X115180569Y-15139801D01*
X115152301Y-15168069D01*
X115137000Y-15205010D01*
X115137000Y-29244989D01*
X115136999Y-29244989D01*
X110288000Y-29244989D01*
X110288000Y-15205009D01*
X110272700Y-15168071D01*
X110244429Y-15139800D01*
X110207491Y-15124500D01*
X96207491Y-15124500D01*
X96167509Y-15124500D01*
X96130571Y-15139800D01*
X96130569Y-15139801D01*
X96102301Y-15168069D01*
X96087000Y-15205010D01*
X96087000Y-29244989D01*
X96086999Y-29244989D01*
X91238000Y-29244989D01*
X91238000Y-15205009D01*
X91222700Y-15168071D01*
X91194429Y-15139800D01*
X91157491Y-15124500D01*
X77157491Y-15124500D01*
X77117509Y-15124500D01*
X77080571Y-15139800D01*
X77080569Y-15139801D01*
X77052301Y-15168069D01*
X77037000Y-15205010D01*
X77037000Y-29244989D01*
X77036999Y-29244989D01*
X72188000Y-29244989D01*
X72188000Y-15205009D01*
X72172700Y-15168071D01*
X72144429Y-15139800D01*
X72107491Y-15124500D01*
X58107491Y-15124500D01*
X58067509Y-15124500D01*
X58030571Y-15139800D01*
X58030569Y-15139801D01*
X58002301Y-15168069D01*
X57987000Y-15205010D01*
X57987000Y-29244989D01*
X57986999Y-29244989D01*
X53138000Y-29244989D01*
X53138000Y-15205009D01*
X53122700Y-15168071D01*
X53094429Y-15139800D01*
X53057491Y-15124500D01*
X39057491Y-15124500D01*
X39017509Y-15124500D01*
X38980571Y-15139800D01*
X38980569Y-15139801D01*
X38952301Y-15168069D01*
X38937000Y-15205010D01*
X38937000Y-29244989D01*
X38936999Y-29244989D01*
X27088000Y-29244989D01*
X27088000Y-28822775D01*
X29273927Y-28822775D01*
X29273928Y-28822777D01*
X29289228Y-28859715D01*
X29317499Y-28887986D01*
X29354437Y-28903286D01*
X29354438Y-28903286D01*
X32670561Y-28903286D01*
X32670563Y-28903286D01*
X32707501Y-28887986D01*
X32735772Y-28859715D01*
X32751072Y-28822777D01*
X32751072Y-25774725D01*
X32735772Y-25737787D01*
X32707501Y-25709516D01*
X32670563Y-25694216D01*
X29394419Y-25694216D01*
X29354437Y-25694216D01*
X29317499Y-25709516D01*
X29317497Y-25709517D01*
X29289229Y-25737785D01*
X29273928Y-25774726D01*
X29273928Y-28822775D01*
X29273927Y-28822775D01*
X27088000Y-28822775D01*
X27088000Y-23190275D01*
X29268248Y-23190275D01*
X29268249Y-23190277D01*
X29283549Y-23227215D01*
X29311820Y-23255486D01*
X29348758Y-23270786D01*
X29348759Y-23270786D01*
X32670560Y-23270786D01*
X32670562Y-23270786D01*
X32707500Y-23255486D01*
X32735771Y-23227215D01*
X32751071Y-23190277D01*
X32751071Y-22225000D01*
X34657273Y-22225000D01*
X34676157Y-22489025D01*
X34676158Y-22489032D01*
X34732420Y-22747667D01*
X34732422Y-22747674D01*
X34732423Y-22747678D01*
X34824926Y-22995689D01*
X34824931Y-22995699D01*
X34824933Y-22995702D01*
X34933514Y-23194552D01*
X34951784Y-23228011D01*
X35110413Y-23439915D01*
X35297585Y-23627087D01*
X35509489Y-23785716D01*
X35741811Y-23912574D01*
X35989822Y-24005077D01*
X36248474Y-24061343D01*
X36512500Y-24080227D01*
X36776526Y-24061343D01*
X37035178Y-24005077D01*
X37283189Y-23912574D01*
X37515511Y-23785716D01*
X37727415Y-23627087D01*
X37914587Y-23439915D01*
X38073216Y-23228011D01*
X38200074Y-22995689D01*
X38292577Y-22747678D01*
X38348843Y-22489026D01*
X38367727Y-22225000D01*
X38348843Y-21960974D01*
X38292577Y-21702322D01*
X38200074Y-21454311D01*
X38073216Y-21221989D01*
X37914587Y-21010085D01*
X37727415Y-20822913D01*
X37515511Y-20664284D01*
X37283189Y-20537426D01*
X37035178Y-20444923D01*
X37035174Y-20444922D01*
X37035167Y-20444920D01*
X36776532Y-20388658D01*
X36776527Y-20388657D01*
X36776526Y-20388657D01*
X36512500Y-20369773D01*
X36248474Y-20388657D01*
X36248467Y-20388658D01*
X35989832Y-20444920D01*
X35989825Y-20444922D01*
X35741815Y-20537424D01*
X35741797Y-20537433D01*
X35509497Y-20664279D01*
X35509485Y-20664287D01*
X35297587Y-20822911D01*
X35110411Y-21010087D01*
X34951787Y-21221985D01*
X34951779Y-21221997D01*
X34824933Y-21454297D01*
X34824924Y-21454315D01*
X34732422Y-21702325D01*
X34732420Y-21702332D01*
X34676158Y-21960967D01*
X34676157Y-21960974D01*
X34657273Y-22225000D01*
X32751071Y-22225000D01*
X32751071Y-20142225D01*
X32735771Y-20105287D01*
X32707500Y-20077016D01*
X32670562Y-20061716D01*
X29388740Y-20061716D01*
X29348758Y-20061716D01*
X29311820Y-20077016D01*
X29311818Y-20077017D01*
X29283550Y-20105285D01*
X29268249Y-20142226D01*
X29268249Y-23190275D01*
X29268248Y-23190275D01*
X27088000Y-23190275D01*
X27088000Y-17557775D01*
X29273927Y-17557775D01*
X29273928Y-17557777D01*
X29289228Y-17594715D01*
X29317499Y-17622986D01*
X29354437Y-17638286D01*
X29354438Y-17638286D01*
X32670558Y-17638286D01*
X32670560Y-17638286D01*
X32707498Y-17622986D01*
X32735769Y-17594715D01*
X32751069Y-17557777D01*
X32751069Y-14509725D01*
X32735769Y-14472787D01*
X32707498Y-14444516D01*
X32670560Y-14429216D01*
X29394419Y-14429216D01*
X29354437Y-14429216D01*
X29317499Y-14444516D01*
X29317497Y-14444517D01*
X29289229Y-14472785D01*
X29273928Y-14509726D01*
X29273928Y-17557775D01*
X29273927Y-17557775D01*
X27088000Y-17557775D01*
X27088000Y-15375324D01*
X27088018Y-15374679D01*
X27097546Y-15205010D01*
X27104152Y-15087382D01*
X27104293Y-15086125D01*
X27152441Y-14802747D01*
X27152723Y-14801510D01*
X27232296Y-14525305D01*
X27232715Y-14524109D01*
X27342712Y-14258553D01*
X27343270Y-14257397D01*
X27482296Y-14005849D01*
X27482982Y-14004757D01*
X27649314Y-13770334D01*
X27650091Y-13769360D01*
X27841633Y-13555024D01*
X27842524Y-13554133D01*
X28056860Y-13362591D01*
X28057834Y-13361814D01*
X28292259Y-13195480D01*
X28293349Y-13194796D01*
X28544903Y-13055766D01*
X28546053Y-13055212D01*
X28811609Y-12945215D01*
X28812805Y-12944796D01*
X29089010Y-12865223D01*
X29090247Y-12864941D01*
X29373625Y-12816793D01*
X29374882Y-12816652D01*
X29662179Y-12800517D01*
X29662824Y-12800500D01*
X29689429Y-12800500D01*
X148110571Y-12800500D01*
X148137176Y-12800500D01*
X148137820Y-12800517D01*
G37*
G04 #@! TD.AperFunction*
M02*
