G04 #@! TF.GenerationSoftware,KiCad,Pcbnew,8.0.8*
G04 #@! TF.CreationDate,2025-02-11T15:39:55+01:00*
G04 #@! TF.ProjectId,vootington V4N STM32G0B1CBT6,766f6f74-696e-4677-946f-6e2056344e20,rev?*
G04 #@! TF.SameCoordinates,Original*
G04 #@! TF.FileFunction,Legend,Top*
G04 #@! TF.FilePolarity,Positive*
%FSLAX46Y46*%
G04 Gerber Fmt 4.6, Leading zero omitted, Abs format (unit mm)*
G04 Created by KiCad (PCBNEW 8.0.8) date 2025-02-11 15:39:55*
%MOMM*%
%LPD*%
G01*
G04 APERTURE LIST*
%ADD10C,0.120000*%
%ADD11C,0.500000*%
%ADD12C,0.200000*%
%ADD13C,0.150000*%
%ADD14C,0.125000*%
%ADD15C,0.000000*%
%ADD16C,0.300000*%
%ADD17C,2.200000*%
G04 APERTURE END LIST*
D10*
X93662500Y-88900000D02*
X212788500Y-88900000D01*
X212788500Y-107156250D02*
X93662500Y-107156250D01*
X93662500Y-88900000D02*
X93662500Y-107156250D01*
X212788500Y-107156250D02*
X212788500Y-88900000D01*
D11*
G36*
X176850314Y-97940813D02*
G01*
X176760982Y-97965665D01*
X176707921Y-97991188D01*
X176677696Y-98024100D01*
X176656202Y-98069102D01*
X176121555Y-99398333D01*
X176069165Y-99474231D01*
X175988564Y-99535353D01*
X175892516Y-99579683D01*
X175796467Y-99609236D01*
X175129501Y-98069102D01*
X175067708Y-97989845D01*
X174941090Y-97942122D01*
X174935389Y-97940813D01*
X174935389Y-97803793D01*
X175791094Y-97803793D01*
X175791094Y-97940813D01*
X175674224Y-97960963D01*
X175611759Y-97985143D01*
X175592280Y-98019398D01*
X175605714Y-98069102D01*
X176012073Y-99014810D01*
X176393580Y-98069102D01*
X176405670Y-98021413D01*
X176391565Y-97987158D01*
X176340518Y-97962978D01*
X176240440Y-97940813D01*
X176240440Y-97803793D01*
X176850314Y-97803793D01*
X176850314Y-97940813D01*
G37*
G36*
X178057837Y-97770252D02*
G01*
X178197740Y-97801802D01*
X178268205Y-97827973D01*
X178388914Y-97891082D01*
X178502048Y-97978136D01*
X178538215Y-98014025D01*
X178626923Y-98125947D01*
X178691336Y-98245070D01*
X178711506Y-98294782D01*
X178750645Y-98431394D01*
X178769063Y-98565565D01*
X178771956Y-98647408D01*
X178761117Y-98786797D01*
X178737701Y-98892567D01*
X178690994Y-99022487D01*
X178642324Y-99118247D01*
X178565911Y-99232748D01*
X178495900Y-99315046D01*
X178394741Y-99409192D01*
X178307833Y-99471544D01*
X178187335Y-99535702D01*
X178086855Y-99572966D01*
X177952282Y-99602294D01*
X177844383Y-99609236D01*
X177703395Y-99599791D01*
X177562171Y-99568241D01*
X177491085Y-99542069D01*
X177370053Y-99479183D01*
X177257065Y-99392863D01*
X177221075Y-99357361D01*
X177133029Y-99245898D01*
X177068308Y-99126972D01*
X177047785Y-99077275D01*
X177008211Y-98940553D01*
X176989588Y-98806083D01*
X176986663Y-98723978D01*
X176988931Y-98691738D01*
X177464219Y-98691738D01*
X177472950Y-98833628D01*
X177499145Y-98966450D01*
X177543079Y-99093468D01*
X177593179Y-99190116D01*
X177679737Y-99297350D01*
X177731542Y-99339897D01*
X177859251Y-99391699D01*
X177896773Y-99394303D01*
X178034756Y-99374302D01*
X178085511Y-99351987D01*
X178186475Y-99261043D01*
X178208427Y-99227057D01*
X178260664Y-99096924D01*
X178275593Y-99026229D01*
X178291316Y-98889866D01*
X178295743Y-98752860D01*
X178288807Y-98618539D01*
X178266117Y-98481771D01*
X178264175Y-98473446D01*
X178223954Y-98341053D01*
X178176186Y-98239034D01*
X178096216Y-98128786D01*
X178039166Y-98078505D01*
X177915941Y-98023455D01*
X177863189Y-98018727D01*
X177726271Y-98040711D01*
X177668406Y-98069774D01*
X177570300Y-98168635D01*
X177545490Y-98211495D01*
X177497404Y-98344088D01*
X177481682Y-98425086D01*
X177468056Y-98561894D01*
X177464219Y-98691738D01*
X176988931Y-98691738D01*
X176996297Y-98587052D01*
X177025200Y-98453338D01*
X177055173Y-98365979D01*
X177114710Y-98241080D01*
X177189548Y-98127327D01*
X177247942Y-98057684D01*
X177347653Y-97964395D01*
X177460398Y-97886030D01*
X177542804Y-97842078D01*
X177675888Y-97792553D01*
X177818230Y-97765886D01*
X177918266Y-97760806D01*
X178057837Y-97770252D01*
G37*
G36*
X180078213Y-97770252D02*
G01*
X180218116Y-97801802D01*
X180288582Y-97827973D01*
X180409290Y-97891082D01*
X180522425Y-97978136D01*
X180558592Y-98014025D01*
X180647300Y-98125947D01*
X180711713Y-98245070D01*
X180731883Y-98294782D01*
X180771022Y-98431394D01*
X180789440Y-98565565D01*
X180792333Y-98647408D01*
X180781494Y-98786797D01*
X180758078Y-98892567D01*
X180711370Y-99022487D01*
X180662701Y-99118247D01*
X180586288Y-99232748D01*
X180516277Y-99315046D01*
X180415118Y-99409192D01*
X180328210Y-99471544D01*
X180207711Y-99535702D01*
X180107231Y-99572966D01*
X179972659Y-99602294D01*
X179864759Y-99609236D01*
X179723772Y-99599791D01*
X179582547Y-99568241D01*
X179511462Y-99542069D01*
X179390429Y-99479183D01*
X179277442Y-99392863D01*
X179241452Y-99357361D01*
X179153405Y-99245898D01*
X179088685Y-99126972D01*
X179068161Y-99077275D01*
X179028587Y-98940553D01*
X179009964Y-98806083D01*
X179007040Y-98723978D01*
X179009308Y-98691738D01*
X179484595Y-98691738D01*
X179493327Y-98833628D01*
X179519522Y-98966450D01*
X179563456Y-99093468D01*
X179613556Y-99190116D01*
X179700114Y-99297350D01*
X179751919Y-99339897D01*
X179879628Y-99391699D01*
X179917150Y-99394303D01*
X180055133Y-99374302D01*
X180105888Y-99351987D01*
X180206852Y-99261043D01*
X180228803Y-99227057D01*
X180281041Y-99096924D01*
X180295970Y-99026229D01*
X180311693Y-98889866D01*
X180316120Y-98752860D01*
X180309184Y-98618539D01*
X180286494Y-98481771D01*
X180284552Y-98473446D01*
X180244331Y-98341053D01*
X180196563Y-98239034D01*
X180116593Y-98128786D01*
X180059543Y-98078505D01*
X179936318Y-98023455D01*
X179883566Y-98018727D01*
X179746648Y-98040711D01*
X179688782Y-98069774D01*
X179590677Y-98168635D01*
X179565867Y-98211495D01*
X179517781Y-98344088D01*
X179502059Y-98425086D01*
X179488433Y-98561894D01*
X179484595Y-98691738D01*
X179009308Y-98691738D01*
X179016674Y-98587052D01*
X179045577Y-98453338D01*
X179075550Y-98365979D01*
X179135087Y-98241080D01*
X179209925Y-98127327D01*
X179268318Y-98057684D01*
X179368030Y-97964395D01*
X179480775Y-97886030D01*
X179563181Y-97842078D01*
X179696265Y-97792553D01*
X179838606Y-97765886D01*
X179938643Y-97760806D01*
X180078213Y-97770252D01*
G37*
G36*
X182294854Y-99261312D02*
G01*
X182174079Y-99345607D01*
X182049749Y-99425986D01*
X181925937Y-99497351D01*
X181869688Y-99525949D01*
X181740537Y-99579874D01*
X181608446Y-99608911D01*
X181595647Y-99609236D01*
X181460254Y-99585581D01*
X181441835Y-99578340D01*
X181329289Y-99500248D01*
X181315562Y-99484978D01*
X181244722Y-99366649D01*
X181229588Y-99326464D01*
X181201882Y-99193862D01*
X181197348Y-99101455D01*
X181197348Y-98061714D01*
X180968981Y-98061714D01*
X180913905Y-97987158D01*
X181061000Y-97803793D01*
X181197348Y-97803793D01*
X181197348Y-97402136D01*
X181578856Y-97116005D01*
X181650724Y-97179142D01*
X181650724Y-97803793D01*
X182227015Y-97803793D01*
X182294854Y-97878348D01*
X182252539Y-97951560D01*
X182200148Y-98025443D01*
X182148430Y-98088580D01*
X182104100Y-98127537D01*
X182046337Y-98105372D01*
X181967751Y-98083879D01*
X181876405Y-98067759D01*
X181776998Y-98061714D01*
X181650724Y-98061714D01*
X181650724Y-98925478D01*
X181658262Y-99059660D01*
X181662143Y-99085335D01*
X181695054Y-99190787D01*
X181746101Y-99247879D01*
X181811253Y-99265342D01*
X181881778Y-99258626D01*
X181965736Y-99237132D01*
X182072532Y-99194146D01*
X182196877Y-99131545D01*
X182211567Y-99123620D01*
X182294854Y-99261312D01*
G37*
G36*
X182447322Y-99566250D02*
G01*
X182447322Y-99429229D01*
X182581184Y-99394072D01*
X182636061Y-99371466D01*
X182696511Y-99314374D01*
X182696511Y-98347844D01*
X182695076Y-98212062D01*
X182694496Y-98192689D01*
X182670988Y-98099999D01*
X182598447Y-98052310D01*
X182465656Y-98029941D01*
X182447322Y-98028130D01*
X182447322Y-97896483D01*
X182586205Y-97874573D01*
X182718403Y-97848805D01*
X182754946Y-97840735D01*
X182887751Y-97806781D01*
X183020951Y-97763731D01*
X183028987Y-97760806D01*
X183149887Y-97760806D01*
X183149887Y-99314374D01*
X183206307Y-99369451D01*
X183337660Y-99415418D01*
X183401762Y-99429229D01*
X183401762Y-99566250D01*
X182447322Y-99566250D01*
G37*
G36*
X183221755Y-97203322D02*
G01*
X183196904Y-97325566D01*
X183130408Y-97420271D01*
X183030330Y-97481393D01*
X182904728Y-97502886D01*
X182804650Y-97490124D01*
X182722706Y-97449824D01*
X182666958Y-97381986D01*
X182646136Y-97284594D01*
X182670316Y-97162350D01*
X182737483Y-97068989D01*
X182837561Y-97008538D01*
X182961148Y-96987045D01*
X183059212Y-96999807D01*
X183142498Y-97039435D01*
X183199590Y-97105930D01*
X183221755Y-97203322D01*
G37*
G36*
X184736366Y-99566250D02*
G01*
X184736366Y-99429229D01*
X184869541Y-99390271D01*
X184928463Y-99367436D01*
X184985555Y-99314374D01*
X184985555Y-98461356D01*
X184979510Y-98326477D01*
X184974808Y-98290081D01*
X184941897Y-98179927D01*
X184881446Y-98121492D01*
X184787413Y-98104700D01*
X184690693Y-98116790D01*
X184577853Y-98158434D01*
X184460605Y-98225947D01*
X184442176Y-98238362D01*
X184332043Y-98320327D01*
X184276945Y-98365979D01*
X184276945Y-99314374D01*
X184341425Y-99372809D01*
X184470638Y-99415880D01*
X184528149Y-99429229D01*
X184528149Y-99566250D01*
X183574381Y-99566250D01*
X183574381Y-99429229D01*
X183705881Y-99391553D01*
X183761104Y-99371466D01*
X183823570Y-99314374D01*
X183823570Y-98270602D01*
X183820883Y-98154404D01*
X183795360Y-98086565D01*
X183721476Y-98050295D01*
X183586211Y-98029476D01*
X183574381Y-98028130D01*
X183574381Y-97896483D01*
X183708272Y-97879331D01*
X183742969Y-97873647D01*
X183875351Y-97848595D01*
X183893423Y-97844765D01*
X184024634Y-97810407D01*
X184033130Y-97807823D01*
X184160996Y-97764060D01*
X184169479Y-97760806D01*
X184248735Y-97840063D01*
X184269557Y-98110745D01*
X184378199Y-98023428D01*
X184496006Y-97941254D01*
X184621419Y-97869889D01*
X184681961Y-97842078D01*
X184808710Y-97795807D01*
X184944793Y-97765886D01*
X185021153Y-97760806D01*
X185158751Y-97780348D01*
X185177652Y-97786330D01*
X185296590Y-97855165D01*
X185311314Y-97868945D01*
X185387631Y-97979878D01*
X185404004Y-98018727D01*
X185434804Y-98156568D01*
X185438931Y-98242392D01*
X185438931Y-99314374D01*
X185450349Y-99339897D01*
X185489977Y-99365421D01*
X185567219Y-99394303D01*
X185690134Y-99429229D01*
X185690134Y-99566250D01*
X184736366Y-99566250D01*
G37*
G36*
X187715885Y-97830660D02*
G01*
X187697750Y-97880363D01*
X187671555Y-97938127D01*
X187641330Y-97997233D01*
X187608418Y-98048952D01*
X187477443Y-98067759D01*
X187342217Y-98078660D01*
X187332362Y-98079177D01*
X187389295Y-98201678D01*
X187393484Y-98214854D01*
X187415563Y-98351732D01*
X187415649Y-98361277D01*
X187399529Y-98498801D01*
X187351169Y-98623900D01*
X187270527Y-98740213D01*
X187179222Y-98827415D01*
X187063191Y-98902810D01*
X186938857Y-98956717D01*
X186930033Y-98959733D01*
X186793775Y-98993963D01*
X186650727Y-99007236D01*
X186631141Y-99007422D01*
X186612334Y-99007422D01*
X186523037Y-99110258D01*
X186520316Y-99115560D01*
X186500838Y-99167950D01*
X186512256Y-99201534D01*
X186565989Y-99233774D01*
X186694950Y-99267357D01*
X186834113Y-99290553D01*
X186928018Y-99303627D01*
X187070973Y-99324530D01*
X187206466Y-99350772D01*
X187294077Y-99372809D01*
X187424885Y-99417979D01*
X187525803Y-99471544D01*
X187625293Y-99567005D01*
X187645360Y-99603191D01*
X187678410Y-99736759D01*
X187679615Y-99771108D01*
X187656568Y-99905736D01*
X187638643Y-99950443D01*
X187568309Y-100070706D01*
X187526474Y-100123062D01*
X187426931Y-100222186D01*
X187357886Y-100276874D01*
X187244731Y-100351020D01*
X187149669Y-100400461D01*
X187020291Y-100452174D01*
X186915257Y-100482404D01*
X186778701Y-100506301D01*
X186672785Y-100511958D01*
X186533820Y-100505926D01*
X186467926Y-100499196D01*
X186329203Y-100476964D01*
X186257694Y-100460239D01*
X186127153Y-100419495D01*
X186062238Y-100393073D01*
X185941412Y-100326120D01*
X185900367Y-100295009D01*
X185808439Y-100194915D01*
X185788870Y-100163362D01*
X185748690Y-100032216D01*
X185747226Y-99998804D01*
X185759265Y-99939025D01*
X186200602Y-99939025D01*
X186246947Y-100058582D01*
X186350019Y-100145538D01*
X186374564Y-100159332D01*
X186499964Y-100210791D01*
X186565989Y-100228514D01*
X186703751Y-100249825D01*
X186805103Y-100254037D01*
X186944125Y-100241021D01*
X186997872Y-100226499D01*
X187119013Y-100163541D01*
X187132877Y-100151944D01*
X187212805Y-100044477D01*
X187239672Y-99918203D01*
X187222209Y-99845663D01*
X187154370Y-99777825D01*
X187027647Y-99723917D01*
X187010633Y-99718718D01*
X186873309Y-99687706D01*
X186769505Y-99672373D01*
X186634384Y-99652072D01*
X186598901Y-99645506D01*
X186462971Y-99618724D01*
X186449791Y-99615953D01*
X186340225Y-99699072D01*
X186312771Y-99723420D01*
X186238215Y-99809393D01*
X186207319Y-99879247D01*
X186200602Y-99939025D01*
X185759265Y-99939025D01*
X185766705Y-99902083D01*
X185839916Y-99797303D01*
X185941044Y-99708013D01*
X185984325Y-99675731D01*
X186104304Y-99597973D01*
X186221424Y-99531323D01*
X186099054Y-99468940D01*
X186009848Y-99366911D01*
X186006490Y-99341912D01*
X186023953Y-99285492D01*
X186082389Y-99202206D01*
X186181053Y-99103935D01*
X186189184Y-99096754D01*
X186298997Y-99009555D01*
X186349712Y-98973167D01*
X186219117Y-98926595D01*
X186156944Y-98894582D01*
X186045230Y-98811833D01*
X186008505Y-98774353D01*
X185931935Y-98660505D01*
X185913128Y-98618526D01*
X185882201Y-98487381D01*
X185879545Y-98432474D01*
X185895757Y-98304857D01*
X186314114Y-98304857D01*
X186325911Y-98442821D01*
X186336951Y-98493596D01*
X186387801Y-98618599D01*
X186407476Y-98648751D01*
X186506776Y-98740702D01*
X186529048Y-98753531D01*
X186661709Y-98790624D01*
X186705025Y-98792488D01*
X186809805Y-98769651D01*
X186897793Y-98701141D01*
X186958243Y-98585614D01*
X186980523Y-98451178D01*
X186981080Y-98422399D01*
X186969016Y-98288370D01*
X186955557Y-98231646D01*
X186901328Y-98107052D01*
X186881002Y-98077162D01*
X186781046Y-97984556D01*
X186758758Y-97971710D01*
X186625361Y-97934123D01*
X186590169Y-97932753D01*
X186493449Y-97955590D01*
X186404789Y-98024772D01*
X186339637Y-98140970D01*
X186314737Y-98276062D01*
X186314114Y-98304857D01*
X185895757Y-98304857D01*
X185896504Y-98298980D01*
X185947383Y-98172539D01*
X186026976Y-98057684D01*
X186128734Y-97958948D01*
X186243120Y-97881723D01*
X186373446Y-97821322D01*
X186392027Y-97814540D01*
X186526374Y-97777808D01*
X186666120Y-97761646D01*
X186707040Y-97760806D01*
X186848318Y-97772282D01*
X186950855Y-97797076D01*
X187077600Y-97848111D01*
X187155042Y-97893125D01*
X187292529Y-97870921D01*
X187426712Y-97838285D01*
X187451919Y-97830660D01*
X187584437Y-97788061D01*
X187662823Y-97760806D01*
X187715885Y-97830660D01*
G37*
G36*
X189100192Y-99261312D02*
G01*
X188979418Y-99345607D01*
X188855088Y-99425986D01*
X188731275Y-99497351D01*
X188675026Y-99525949D01*
X188545876Y-99579874D01*
X188413784Y-99608911D01*
X188400986Y-99609236D01*
X188265592Y-99585581D01*
X188247174Y-99578340D01*
X188134628Y-99500248D01*
X188120900Y-99484978D01*
X188050060Y-99366649D01*
X188034927Y-99326464D01*
X188007221Y-99193862D01*
X188002687Y-99101455D01*
X188002687Y-98061714D01*
X187774320Y-98061714D01*
X187719243Y-97987158D01*
X187866338Y-97803793D01*
X188002687Y-97803793D01*
X188002687Y-97402136D01*
X188384194Y-97116005D01*
X188456063Y-97179142D01*
X188456063Y-97803793D01*
X189032354Y-97803793D01*
X189100192Y-97878348D01*
X189057877Y-97951560D01*
X189005487Y-98025443D01*
X188953768Y-98088580D01*
X188909438Y-98127537D01*
X188851675Y-98105372D01*
X188773090Y-98083879D01*
X188681743Y-98067759D01*
X188582336Y-98061714D01*
X188456063Y-98061714D01*
X188456063Y-98925478D01*
X188463601Y-99059660D01*
X188467481Y-99085335D01*
X188500393Y-99190787D01*
X188551439Y-99247879D01*
X188616591Y-99265342D01*
X188687116Y-99258626D01*
X188771075Y-99237132D01*
X188877870Y-99194146D01*
X189002216Y-99131545D01*
X189016905Y-99123620D01*
X189100192Y-99261312D01*
G37*
G36*
X190327864Y-97770252D02*
G01*
X190467767Y-97801802D01*
X190538233Y-97827973D01*
X190658942Y-97891082D01*
X190772076Y-97978136D01*
X190808243Y-98014025D01*
X190896951Y-98125947D01*
X190961364Y-98245070D01*
X190981534Y-98294782D01*
X191020673Y-98431394D01*
X191039091Y-98565565D01*
X191041984Y-98647408D01*
X191031145Y-98786797D01*
X191007729Y-98892567D01*
X190961022Y-99022487D01*
X190912352Y-99118247D01*
X190835939Y-99232748D01*
X190765928Y-99315046D01*
X190664769Y-99409192D01*
X190577861Y-99471544D01*
X190457363Y-99535702D01*
X190356883Y-99572966D01*
X190222310Y-99602294D01*
X190114410Y-99609236D01*
X189973423Y-99599791D01*
X189832198Y-99568241D01*
X189761113Y-99542069D01*
X189640081Y-99479183D01*
X189527093Y-99392863D01*
X189491103Y-99357361D01*
X189403057Y-99245898D01*
X189338336Y-99126972D01*
X189317812Y-99077275D01*
X189278238Y-98940553D01*
X189259615Y-98806083D01*
X189256691Y-98723978D01*
X189258959Y-98691738D01*
X189734247Y-98691738D01*
X189742978Y-98833628D01*
X189769173Y-98966450D01*
X189813107Y-99093468D01*
X189863207Y-99190116D01*
X189949765Y-99297350D01*
X190001570Y-99339897D01*
X190129279Y-99391699D01*
X190166801Y-99394303D01*
X190304784Y-99374302D01*
X190355539Y-99351987D01*
X190456503Y-99261043D01*
X190478454Y-99227057D01*
X190530692Y-99096924D01*
X190545621Y-99026229D01*
X190561344Y-98889866D01*
X190565771Y-98752860D01*
X190558835Y-98618539D01*
X190536145Y-98481771D01*
X190534203Y-98473446D01*
X190493982Y-98341053D01*
X190446214Y-98239034D01*
X190366244Y-98128786D01*
X190309194Y-98078505D01*
X190185969Y-98023455D01*
X190133217Y-98018727D01*
X189996299Y-98040711D01*
X189938434Y-98069774D01*
X189840328Y-98168635D01*
X189815518Y-98211495D01*
X189767432Y-98344088D01*
X189751710Y-98425086D01*
X189738084Y-98561894D01*
X189734247Y-98691738D01*
X189258959Y-98691738D01*
X189266325Y-98587052D01*
X189295228Y-98453338D01*
X189325201Y-98365979D01*
X189384738Y-98241080D01*
X189459576Y-98127327D01*
X189517969Y-98057684D01*
X189617681Y-97964395D01*
X189730426Y-97886030D01*
X189812832Y-97842078D01*
X189945916Y-97792553D01*
X190088257Y-97765886D01*
X190188294Y-97760806D01*
X190327864Y-97770252D01*
G37*
G36*
X192406813Y-99566250D02*
G01*
X192406813Y-99429229D01*
X192539988Y-99390271D01*
X192598910Y-99367436D01*
X192656002Y-99314374D01*
X192656002Y-98461356D01*
X192649957Y-98326477D01*
X192645255Y-98290081D01*
X192612343Y-98179927D01*
X192551893Y-98121492D01*
X192457860Y-98104700D01*
X192361139Y-98116790D01*
X192248299Y-98158434D01*
X192131051Y-98225947D01*
X192112622Y-98238362D01*
X192002490Y-98320327D01*
X191947392Y-98365979D01*
X191947392Y-99314374D01*
X192011872Y-99372809D01*
X192141084Y-99415880D01*
X192198596Y-99429229D01*
X192198596Y-99566250D01*
X191244827Y-99566250D01*
X191244827Y-99429229D01*
X191376327Y-99391553D01*
X191431551Y-99371466D01*
X191494016Y-99314374D01*
X191494016Y-98270602D01*
X191491330Y-98154404D01*
X191465806Y-98086565D01*
X191391923Y-98050295D01*
X191256658Y-98029476D01*
X191244827Y-98028130D01*
X191244827Y-97896483D01*
X191378718Y-97879331D01*
X191413416Y-97873647D01*
X191545798Y-97848595D01*
X191563870Y-97844765D01*
X191695081Y-97810407D01*
X191703577Y-97807823D01*
X191831443Y-97764060D01*
X191839925Y-97760806D01*
X191919182Y-97840063D01*
X191940004Y-98110745D01*
X192048646Y-98023428D01*
X192166453Y-97941254D01*
X192291866Y-97869889D01*
X192352408Y-97842078D01*
X192479157Y-97795807D01*
X192615240Y-97765886D01*
X192691600Y-97760806D01*
X192829197Y-97780348D01*
X192848099Y-97786330D01*
X192967036Y-97855165D01*
X192981760Y-97868945D01*
X193058077Y-97979878D01*
X193074451Y-98018727D01*
X193105250Y-98156568D01*
X193109377Y-98242392D01*
X193109377Y-99314374D01*
X193120796Y-99339897D01*
X193160424Y-99365421D01*
X193237666Y-99394303D01*
X193360581Y-99429229D01*
X193360581Y-99566250D01*
X192406813Y-99566250D01*
G37*
D12*
G36*
X185771537Y-102454801D02*
G01*
X185713432Y-102421051D01*
X185659674Y-102383339D01*
X185610263Y-102341667D01*
X185584691Y-102316804D01*
X185542117Y-102269285D01*
X185503697Y-102218433D01*
X185469431Y-102164249D01*
X185452189Y-102132706D01*
X185424433Y-102073383D01*
X185400927Y-102011162D01*
X185381671Y-101946043D01*
X185372810Y-101908613D01*
X185361323Y-101846942D01*
X185353118Y-101783439D01*
X185348195Y-101718104D01*
X185346554Y-101650937D01*
X185348405Y-101581442D01*
X185353958Y-101513703D01*
X185363212Y-101447720D01*
X185376168Y-101383491D01*
X185392559Y-101321248D01*
X185412118Y-101261523D01*
X185434844Y-101204316D01*
X185460737Y-101149629D01*
X185493557Y-101091089D01*
X185530193Y-101036027D01*
X185570644Y-100984443D01*
X185594766Y-100957288D01*
X185640718Y-100911352D01*
X185689616Y-100869714D01*
X185741461Y-100832376D01*
X185771537Y-100813490D01*
X185817943Y-100877909D01*
X185774023Y-100926762D01*
X185735438Y-100979242D01*
X185721161Y-101001251D01*
X185689090Y-101058252D01*
X185662483Y-101115708D01*
X185642698Y-101166420D01*
X185623211Y-101226634D01*
X185606348Y-101291261D01*
X185593415Y-101353198D01*
X185589576Y-101374637D01*
X185579983Y-101441120D01*
X185574091Y-101503135D01*
X185570680Y-101567897D01*
X185569731Y-101626818D01*
X185570723Y-101688623D01*
X185574211Y-101756283D01*
X185580211Y-101821963D01*
X185585607Y-101864650D01*
X185595768Y-101926812D01*
X185608394Y-101986559D01*
X185625310Y-102050112D01*
X185632929Y-102074699D01*
X185654044Y-102133839D01*
X185680645Y-102194899D01*
X185710781Y-102251775D01*
X185744381Y-102304104D01*
X185784903Y-102355596D01*
X185817943Y-102390382D01*
X185771537Y-102454801D01*
G37*
G36*
X186467629Y-102042642D02*
G01*
X186412731Y-102080957D01*
X186356218Y-102117494D01*
X186299939Y-102149932D01*
X186274371Y-102162931D01*
X186215667Y-102187443D01*
X186155625Y-102200641D01*
X186149808Y-102200789D01*
X186088265Y-102190037D01*
X186079893Y-102186745D01*
X186028736Y-102151249D01*
X186022496Y-102144308D01*
X185990296Y-102090522D01*
X185983417Y-102072256D01*
X185970823Y-102011983D01*
X185968763Y-101969979D01*
X185968763Y-101497370D01*
X185864959Y-101497370D01*
X185839925Y-101463481D01*
X185906786Y-101380133D01*
X185968763Y-101380133D01*
X185968763Y-101197561D01*
X186142175Y-101067502D01*
X186174843Y-101096201D01*
X186174843Y-101380133D01*
X186436793Y-101380133D01*
X186467629Y-101414022D01*
X186448395Y-101447300D01*
X186424581Y-101480883D01*
X186401072Y-101509582D01*
X186380922Y-101527289D01*
X186354666Y-101517214D01*
X186318946Y-101507445D01*
X186277425Y-101500117D01*
X186232240Y-101497370D01*
X186174843Y-101497370D01*
X186174843Y-101889990D01*
X186178269Y-101950981D01*
X186180033Y-101962652D01*
X186194993Y-102010585D01*
X186218196Y-102036536D01*
X186247810Y-102044474D01*
X186279867Y-102041420D01*
X186318030Y-102031651D01*
X186366573Y-102012111D01*
X186423094Y-101983656D01*
X186429771Y-101980054D01*
X186467629Y-102042642D01*
G37*
G36*
X187052285Y-102181250D02*
G01*
X187052285Y-102118968D01*
X187112819Y-102101259D01*
X187139602Y-102090880D01*
X187165553Y-102066761D01*
X187165553Y-101691848D01*
X187162811Y-101629141D01*
X187159752Y-101606363D01*
X187142655Y-101552935D01*
X187112430Y-101525152D01*
X187068466Y-101516909D01*
X187008294Y-101527780D01*
X186965884Y-101547745D01*
X186912678Y-101582270D01*
X186860597Y-101621743D01*
X186843457Y-101635672D01*
X186843457Y-102066761D01*
X186872766Y-102093322D01*
X186931499Y-102112900D01*
X186957641Y-102118968D01*
X186957641Y-102181250D01*
X186524110Y-102181250D01*
X186524110Y-102118662D01*
X186583882Y-102101537D01*
X186608984Y-102092406D01*
X186637377Y-102066455D01*
X186637377Y-101094369D01*
X186635240Y-101038193D01*
X186622418Y-101007052D01*
X186588529Y-100991176D01*
X186526668Y-100981425D01*
X186524110Y-100981101D01*
X186524110Y-100921262D01*
X186585399Y-100911751D01*
X186610205Y-100907523D01*
X186670774Y-100895021D01*
X186681036Y-100892563D01*
X186739872Y-100876034D01*
X186743623Y-100874856D01*
X186801637Y-100854158D01*
X186805600Y-100852568D01*
X186843457Y-100887984D01*
X186843457Y-101513551D01*
X186892001Y-101475903D01*
X186944787Y-101440255D01*
X187001173Y-101408973D01*
X187028471Y-101396619D01*
X187090524Y-101374666D01*
X187151547Y-101362317D01*
X187181734Y-101360594D01*
X187244278Y-101369476D01*
X187252869Y-101372195D01*
X187306932Y-101403484D01*
X187313625Y-101409747D01*
X187348314Y-101460172D01*
X187355757Y-101477830D01*
X187369757Y-101540485D01*
X187371632Y-101579496D01*
X187371632Y-102066761D01*
X187376823Y-102078362D01*
X187394836Y-102089964D01*
X187429945Y-102103092D01*
X187485816Y-102118968D01*
X187485816Y-102181250D01*
X187052285Y-102181250D01*
G37*
G36*
X188033186Y-101365280D02*
G01*
X188094395Y-101380807D01*
X188114131Y-101388987D01*
X188170078Y-101422036D01*
X188215186Y-101464397D01*
X188249991Y-101515153D01*
X188274415Y-101573390D01*
X188289070Y-101636512D01*
X188293935Y-101698322D01*
X188293955Y-101702534D01*
X188271667Y-101720852D01*
X188239916Y-101740086D01*
X188205111Y-101757793D01*
X188173665Y-101770922D01*
X187767611Y-101770922D01*
X187772725Y-101832211D01*
X187784403Y-101888463D01*
X187806581Y-101947106D01*
X187826840Y-101981276D01*
X187870105Y-102026928D01*
X187893396Y-102042336D01*
X187952613Y-102061896D01*
X187983155Y-102064013D01*
X188035362Y-102060960D01*
X188090317Y-102046916D01*
X188147752Y-102020369D01*
X188156873Y-102015470D01*
X188211276Y-101982580D01*
X188244495Y-101960210D01*
X188256707Y-101970590D01*
X188270446Y-101987382D01*
X188282048Y-102003868D01*
X188289070Y-102015164D01*
X188242911Y-102059606D01*
X188194535Y-102101117D01*
X188182519Y-102110419D01*
X188130537Y-102145678D01*
X188091844Y-102166290D01*
X188032377Y-102187660D01*
X188005443Y-102193462D01*
X187942487Y-102200073D01*
X187911104Y-102200789D01*
X187848835Y-102195296D01*
X187789722Y-102178817D01*
X187773412Y-102172090D01*
X187719875Y-102142212D01*
X187672533Y-102103335D01*
X187660144Y-102090574D01*
X187621526Y-102040385D01*
X187590621Y-101982249D01*
X187583208Y-101964179D01*
X187564824Y-101901478D01*
X187556173Y-101838860D01*
X187554815Y-101800231D01*
X187558316Y-101737296D01*
X187566573Y-101692764D01*
X187770359Y-101692764D01*
X188056123Y-101692764D01*
X188082379Y-101686047D01*
X188088791Y-101660402D01*
X188081769Y-101598730D01*
X188061599Y-101540627D01*
X188057344Y-101532785D01*
X188017774Y-101485534D01*
X188010633Y-101479967D01*
X187951039Y-101458820D01*
X187937665Y-101458291D01*
X187877483Y-101469810D01*
X187868056Y-101474472D01*
X187822758Y-101515836D01*
X187818902Y-101521489D01*
X187792635Y-101577019D01*
X187787151Y-101595372D01*
X187774685Y-101656875D01*
X187770359Y-101692764D01*
X187566573Y-101692764D01*
X187570421Y-101672013D01*
X187591172Y-101611620D01*
X187599084Y-101594456D01*
X187631045Y-101540569D01*
X187671593Y-101491869D01*
X187720728Y-101448358D01*
X187731585Y-101440278D01*
X187781655Y-101409442D01*
X187838368Y-101384755D01*
X187840273Y-101384102D01*
X187899128Y-101367823D01*
X187903166Y-101367005D01*
X187964417Y-101360619D01*
X187968501Y-101360594D01*
X188033186Y-101365280D01*
G37*
G36*
X189920307Y-101168558D02*
G01*
X189859886Y-101181502D01*
X189828716Y-101190234D01*
X189787194Y-101224428D01*
X189464488Y-102105840D01*
X189438232Y-102139728D01*
X189394269Y-102167511D01*
X189343588Y-102187661D01*
X189296877Y-102200789D01*
X188906088Y-101224428D01*
X188870978Y-101189013D01*
X188810560Y-101171323D01*
X188791294Y-101168558D01*
X188791294Y-101106581D01*
X189229099Y-101106581D01*
X189229099Y-101168558D01*
X189166503Y-101176468D01*
X189138119Y-101185960D01*
X189125296Y-101222902D01*
X189404344Y-101932732D01*
X189659272Y-101224428D01*
X189660493Y-101203362D01*
X189644617Y-101188402D01*
X189608592Y-101177411D01*
X189550279Y-101168558D01*
X189550279Y-101106581D01*
X189920307Y-101106581D01*
X189920307Y-101168558D01*
G37*
G36*
X190629527Y-101142912D02*
G01*
X190629527Y-101770922D01*
X190741878Y-101770922D01*
X190764471Y-101795956D01*
X190726055Y-101843649D01*
X190721423Y-101848469D01*
X190676849Y-101888158D01*
X190629527Y-101888158D01*
X190629527Y-102064013D01*
X190634717Y-102076836D01*
X190653646Y-102089048D01*
X190690587Y-102102481D01*
X190748900Y-102117441D01*
X190748900Y-102181250D01*
X190251866Y-102181250D01*
X190251866Y-102117441D01*
X190313332Y-102105825D01*
X190342541Y-102099428D01*
X190397496Y-102083858D01*
X190424668Y-102069203D01*
X190431995Y-102054243D01*
X190431995Y-101888158D01*
X190025026Y-101888158D01*
X189989916Y-101853048D01*
X190039834Y-101770922D01*
X190158138Y-101770922D01*
X190431995Y-101770922D01*
X190431995Y-101335253D01*
X190158138Y-101770922D01*
X190039834Y-101770922D01*
X190402992Y-101173442D01*
X190448176Y-101158177D01*
X190498857Y-101140775D01*
X190548621Y-101122762D01*
X190591669Y-101106581D01*
X190629527Y-101142912D01*
G37*
G36*
X190864916Y-102181250D02*
G01*
X190864916Y-102118968D01*
X190926861Y-102106890D01*
X190954980Y-102095154D01*
X190982458Y-102067066D01*
X190982458Y-101231145D01*
X190932461Y-101193528D01*
X190872602Y-101170287D01*
X190864916Y-101168863D01*
X190864916Y-101106581D01*
X191104579Y-101106581D01*
X191125645Y-101108718D01*
X191142437Y-101117572D01*
X191160755Y-101137417D01*
X191187011Y-101172832D01*
X191712438Y-101892127D01*
X191712438Y-101221070D01*
X191706638Y-101208858D01*
X191687709Y-101194508D01*
X191651683Y-101180464D01*
X191594897Y-101168558D01*
X191594897Y-101106581D01*
X191959734Y-101106581D01*
X191959734Y-101168558D01*
X191897977Y-101181400D01*
X191869364Y-101193287D01*
X191841277Y-101221070D01*
X191841277Y-102200789D01*
X191779692Y-102192308D01*
X191718698Y-102173570D01*
X191709080Y-102169037D01*
X191657250Y-102135239D01*
X191636113Y-102112556D01*
X191111296Y-101395093D01*
X191111296Y-102066761D01*
X191117402Y-102079278D01*
X191137552Y-102093627D01*
X191173883Y-102107977D01*
X191229754Y-102118968D01*
X191229754Y-102181250D01*
X190864916Y-102181250D01*
G37*
G36*
X192483025Y-101616438D02*
G01*
X192481174Y-101685952D01*
X192475621Y-101753748D01*
X192466367Y-101819827D01*
X192453410Y-101884189D01*
X192437019Y-101946337D01*
X192417461Y-102006082D01*
X192394735Y-102063421D01*
X192368841Y-102118357D01*
X192336021Y-102177044D01*
X192299386Y-102232205D01*
X192258935Y-102283841D01*
X192234813Y-102311004D01*
X192188984Y-102356939D01*
X192140113Y-102398577D01*
X192088198Y-102435915D01*
X192058042Y-102454801D01*
X192011636Y-102390382D01*
X192055497Y-102341529D01*
X192093923Y-102289049D01*
X192108112Y-102267040D01*
X192140369Y-102209996D01*
X192167072Y-102152425D01*
X192186880Y-102101565D01*
X192206498Y-102041089D01*
X192223374Y-101976439D01*
X192236216Y-101914684D01*
X192240003Y-101893348D01*
X192249596Y-101826941D01*
X192255487Y-101764831D01*
X192258898Y-101699820D01*
X192259848Y-101640557D01*
X192258856Y-101579134D01*
X192255367Y-101511720D01*
X192249367Y-101446094D01*
X192243972Y-101403336D01*
X192233810Y-101340903D01*
X192221185Y-101281030D01*
X192204268Y-101217506D01*
X192196650Y-101192982D01*
X192175696Y-101133841D01*
X192149203Y-101072781D01*
X192119103Y-101015906D01*
X192085467Y-100963510D01*
X192044823Y-100912277D01*
X192011636Y-100877909D01*
X192058042Y-100813490D01*
X192115852Y-100847241D01*
X192169411Y-100884952D01*
X192218720Y-100926624D01*
X192244277Y-100951487D01*
X192287146Y-100999006D01*
X192325765Y-101049858D01*
X192360133Y-101104042D01*
X192377390Y-101135585D01*
X192405146Y-101194613D01*
X192428652Y-101256635D01*
X192447908Y-101321652D01*
X192456769Y-101359067D01*
X192468256Y-101420605D01*
X192476461Y-101484012D01*
X192481384Y-101549290D01*
X192483025Y-101616438D01*
G37*
D13*
X87304762Y-79829819D02*
X87304762Y-78829819D01*
X87876190Y-79829819D02*
X87447619Y-79258390D01*
X87876190Y-78829819D02*
X87304762Y-79401247D01*
X88066667Y-79925057D02*
X88828571Y-79925057D01*
X88971429Y-78829819D02*
X89590476Y-78829819D01*
X89590476Y-78829819D02*
X89257143Y-79210771D01*
X89257143Y-79210771D02*
X89400000Y-79210771D01*
X89400000Y-79210771D02*
X89495238Y-79258390D01*
X89495238Y-79258390D02*
X89542857Y-79306009D01*
X89542857Y-79306009D02*
X89590476Y-79401247D01*
X89590476Y-79401247D02*
X89590476Y-79639342D01*
X89590476Y-79639342D02*
X89542857Y-79734580D01*
X89542857Y-79734580D02*
X89495238Y-79782200D01*
X89495238Y-79782200D02*
X89400000Y-79829819D01*
X89400000Y-79829819D02*
X89114286Y-79829819D01*
X89114286Y-79829819D02*
X89019048Y-79782200D01*
X89019048Y-79782200D02*
X88971429Y-79734580D01*
X89923810Y-78829819D02*
X90542857Y-78829819D01*
X90542857Y-78829819D02*
X90209524Y-79210771D01*
X90209524Y-79210771D02*
X90352381Y-79210771D01*
X90352381Y-79210771D02*
X90447619Y-79258390D01*
X90447619Y-79258390D02*
X90495238Y-79306009D01*
X90495238Y-79306009D02*
X90542857Y-79401247D01*
X90542857Y-79401247D02*
X90542857Y-79639342D01*
X90542857Y-79639342D02*
X90495238Y-79734580D01*
X90495238Y-79734580D02*
X90447619Y-79782200D01*
X90447619Y-79782200D02*
X90352381Y-79829819D01*
X90352381Y-79829819D02*
X90066667Y-79829819D01*
X90066667Y-79829819D02*
X89971429Y-79782200D01*
X89971429Y-79782200D02*
X89923810Y-79734580D01*
X153979762Y-60779819D02*
X153979762Y-59779819D01*
X154551190Y-60779819D02*
X154122619Y-60208390D01*
X154551190Y-59779819D02*
X153979762Y-60351247D01*
X154741667Y-60875057D02*
X155503571Y-60875057D01*
X155694048Y-59875057D02*
X155741667Y-59827438D01*
X155741667Y-59827438D02*
X155836905Y-59779819D01*
X155836905Y-59779819D02*
X156075000Y-59779819D01*
X156075000Y-59779819D02*
X156170238Y-59827438D01*
X156170238Y-59827438D02*
X156217857Y-59875057D01*
X156217857Y-59875057D02*
X156265476Y-59970295D01*
X156265476Y-59970295D02*
X156265476Y-60065533D01*
X156265476Y-60065533D02*
X156217857Y-60208390D01*
X156217857Y-60208390D02*
X155646429Y-60779819D01*
X155646429Y-60779819D02*
X156265476Y-60779819D01*
X157170238Y-59779819D02*
X156694048Y-59779819D01*
X156694048Y-59779819D02*
X156646429Y-60256009D01*
X156646429Y-60256009D02*
X156694048Y-60208390D01*
X156694048Y-60208390D02*
X156789286Y-60160771D01*
X156789286Y-60160771D02*
X157027381Y-60160771D01*
X157027381Y-60160771D02*
X157122619Y-60208390D01*
X157122619Y-60208390D02*
X157170238Y-60256009D01*
X157170238Y-60256009D02*
X157217857Y-60351247D01*
X157217857Y-60351247D02*
X157217857Y-60589342D01*
X157217857Y-60589342D02*
X157170238Y-60684580D01*
X157170238Y-60684580D02*
X157122619Y-60732200D01*
X157122619Y-60732200D02*
X157027381Y-60779819D01*
X157027381Y-60779819D02*
X156789286Y-60779819D01*
X156789286Y-60779819D02*
X156694048Y-60732200D01*
X156694048Y-60732200D02*
X156646429Y-60684580D01*
X68254762Y-79829819D02*
X68254762Y-78829819D01*
X68826190Y-79829819D02*
X68397619Y-79258390D01*
X68826190Y-78829819D02*
X68254762Y-79401247D01*
X69016667Y-79925057D02*
X69778571Y-79925057D01*
X69921429Y-78829819D02*
X70540476Y-78829819D01*
X70540476Y-78829819D02*
X70207143Y-79210771D01*
X70207143Y-79210771D02*
X70350000Y-79210771D01*
X70350000Y-79210771D02*
X70445238Y-79258390D01*
X70445238Y-79258390D02*
X70492857Y-79306009D01*
X70492857Y-79306009D02*
X70540476Y-79401247D01*
X70540476Y-79401247D02*
X70540476Y-79639342D01*
X70540476Y-79639342D02*
X70492857Y-79734580D01*
X70492857Y-79734580D02*
X70445238Y-79782200D01*
X70445238Y-79782200D02*
X70350000Y-79829819D01*
X70350000Y-79829819D02*
X70064286Y-79829819D01*
X70064286Y-79829819D02*
X69969048Y-79782200D01*
X69969048Y-79782200D02*
X69921429Y-79734580D01*
X70921429Y-78925057D02*
X70969048Y-78877438D01*
X70969048Y-78877438D02*
X71064286Y-78829819D01*
X71064286Y-78829819D02*
X71302381Y-78829819D01*
X71302381Y-78829819D02*
X71397619Y-78877438D01*
X71397619Y-78877438D02*
X71445238Y-78925057D01*
X71445238Y-78925057D02*
X71492857Y-79020295D01*
X71492857Y-79020295D02*
X71492857Y-79115533D01*
X71492857Y-79115533D02*
X71445238Y-79258390D01*
X71445238Y-79258390D02*
X70873810Y-79829819D01*
X70873810Y-79829819D02*
X71492857Y-79829819D01*
X80161012Y-98879819D02*
X80161012Y-97879819D01*
X80732440Y-98879819D02*
X80303869Y-98308390D01*
X80732440Y-97879819D02*
X80161012Y-98451247D01*
X80922917Y-98975057D02*
X81684821Y-98975057D01*
X82351488Y-98213152D02*
X82351488Y-98879819D01*
X82113393Y-97832200D02*
X81875298Y-98546485D01*
X81875298Y-98546485D02*
X82494345Y-98546485D01*
X83351488Y-97879819D02*
X82875298Y-97879819D01*
X82875298Y-97879819D02*
X82827679Y-98356009D01*
X82827679Y-98356009D02*
X82875298Y-98308390D01*
X82875298Y-98308390D02*
X82970536Y-98260771D01*
X82970536Y-98260771D02*
X83208631Y-98260771D01*
X83208631Y-98260771D02*
X83303869Y-98308390D01*
X83303869Y-98308390D02*
X83351488Y-98356009D01*
X83351488Y-98356009D02*
X83399107Y-98451247D01*
X83399107Y-98451247D02*
X83399107Y-98689342D01*
X83399107Y-98689342D02*
X83351488Y-98784580D01*
X83351488Y-98784580D02*
X83303869Y-98832200D01*
X83303869Y-98832200D02*
X83208631Y-98879819D01*
X83208631Y-98879819D02*
X82970536Y-98879819D01*
X82970536Y-98879819D02*
X82875298Y-98832200D01*
X82875298Y-98832200D02*
X82827679Y-98784580D01*
X253992262Y-60779819D02*
X253992262Y-59779819D01*
X254563690Y-60779819D02*
X254135119Y-60208390D01*
X254563690Y-59779819D02*
X253992262Y-60351247D01*
X254754167Y-60875057D02*
X255516071Y-60875057D01*
X255658929Y-59779819D02*
X256277976Y-59779819D01*
X256277976Y-59779819D02*
X255944643Y-60160771D01*
X255944643Y-60160771D02*
X256087500Y-60160771D01*
X256087500Y-60160771D02*
X256182738Y-60208390D01*
X256182738Y-60208390D02*
X256230357Y-60256009D01*
X256230357Y-60256009D02*
X256277976Y-60351247D01*
X256277976Y-60351247D02*
X256277976Y-60589342D01*
X256277976Y-60589342D02*
X256230357Y-60684580D01*
X256230357Y-60684580D02*
X256182738Y-60732200D01*
X256182738Y-60732200D02*
X256087500Y-60779819D01*
X256087500Y-60779819D02*
X255801786Y-60779819D01*
X255801786Y-60779819D02*
X255706548Y-60732200D01*
X255706548Y-60732200D02*
X255658929Y-60684580D01*
X256897024Y-59779819D02*
X256992262Y-59779819D01*
X256992262Y-59779819D02*
X257087500Y-59827438D01*
X257087500Y-59827438D02*
X257135119Y-59875057D01*
X257135119Y-59875057D02*
X257182738Y-59970295D01*
X257182738Y-59970295D02*
X257230357Y-60160771D01*
X257230357Y-60160771D02*
X257230357Y-60398866D01*
X257230357Y-60398866D02*
X257182738Y-60589342D01*
X257182738Y-60589342D02*
X257135119Y-60684580D01*
X257135119Y-60684580D02*
X257087500Y-60732200D01*
X257087500Y-60732200D02*
X256992262Y-60779819D01*
X256992262Y-60779819D02*
X256897024Y-60779819D01*
X256897024Y-60779819D02*
X256801786Y-60732200D01*
X256801786Y-60732200D02*
X256754167Y-60684580D01*
X256754167Y-60684580D02*
X256706548Y-60589342D01*
X256706548Y-60589342D02*
X256658929Y-60398866D01*
X256658929Y-60398866D02*
X256658929Y-60160771D01*
X256658929Y-60160771D02*
X256706548Y-59970295D01*
X256706548Y-59970295D02*
X256754167Y-59875057D01*
X256754167Y-59875057D02*
X256801786Y-59827438D01*
X256801786Y-59827438D02*
X256897024Y-59779819D01*
X92067262Y-41729819D02*
X92067262Y-40729819D01*
X92638690Y-41729819D02*
X92210119Y-41158390D01*
X92638690Y-40729819D02*
X92067262Y-41301247D01*
X92829167Y-41825057D02*
X93591071Y-41825057D01*
X94352976Y-41729819D02*
X93781548Y-41729819D01*
X94067262Y-41729819D02*
X94067262Y-40729819D01*
X94067262Y-40729819D02*
X93972024Y-40872676D01*
X93972024Y-40872676D02*
X93876786Y-40967914D01*
X93876786Y-40967914D02*
X93781548Y-41015533D01*
X94972024Y-40729819D02*
X95067262Y-40729819D01*
X95067262Y-40729819D02*
X95162500Y-40777438D01*
X95162500Y-40777438D02*
X95210119Y-40825057D01*
X95210119Y-40825057D02*
X95257738Y-40920295D01*
X95257738Y-40920295D02*
X95305357Y-41110771D01*
X95305357Y-41110771D02*
X95305357Y-41348866D01*
X95305357Y-41348866D02*
X95257738Y-41539342D01*
X95257738Y-41539342D02*
X95210119Y-41634580D01*
X95210119Y-41634580D02*
X95162500Y-41682200D01*
X95162500Y-41682200D02*
X95067262Y-41729819D01*
X95067262Y-41729819D02*
X94972024Y-41729819D01*
X94972024Y-41729819D02*
X94876786Y-41682200D01*
X94876786Y-41682200D02*
X94829167Y-41634580D01*
X94829167Y-41634580D02*
X94781548Y-41539342D01*
X94781548Y-41539342D02*
X94733929Y-41348866D01*
X94733929Y-41348866D02*
X94733929Y-41110771D01*
X94733929Y-41110771D02*
X94781548Y-40920295D01*
X94781548Y-40920295D02*
X94829167Y-40825057D01*
X94829167Y-40825057D02*
X94876786Y-40777438D01*
X94876786Y-40777438D02*
X94972024Y-40729819D01*
X58729762Y-60779819D02*
X58729762Y-59779819D01*
X59301190Y-60779819D02*
X58872619Y-60208390D01*
X59301190Y-59779819D02*
X58729762Y-60351247D01*
X59491667Y-60875057D02*
X60253571Y-60875057D01*
X60444048Y-59875057D02*
X60491667Y-59827438D01*
X60491667Y-59827438D02*
X60586905Y-59779819D01*
X60586905Y-59779819D02*
X60825000Y-59779819D01*
X60825000Y-59779819D02*
X60920238Y-59827438D01*
X60920238Y-59827438D02*
X60967857Y-59875057D01*
X60967857Y-59875057D02*
X61015476Y-59970295D01*
X61015476Y-59970295D02*
X61015476Y-60065533D01*
X61015476Y-60065533D02*
X60967857Y-60208390D01*
X60967857Y-60208390D02*
X60396429Y-60779819D01*
X60396429Y-60779819D02*
X61015476Y-60779819D01*
X61634524Y-59779819D02*
X61729762Y-59779819D01*
X61729762Y-59779819D02*
X61825000Y-59827438D01*
X61825000Y-59827438D02*
X61872619Y-59875057D01*
X61872619Y-59875057D02*
X61920238Y-59970295D01*
X61920238Y-59970295D02*
X61967857Y-60160771D01*
X61967857Y-60160771D02*
X61967857Y-60398866D01*
X61967857Y-60398866D02*
X61920238Y-60589342D01*
X61920238Y-60589342D02*
X61872619Y-60684580D01*
X61872619Y-60684580D02*
X61825000Y-60732200D01*
X61825000Y-60732200D02*
X61729762Y-60779819D01*
X61729762Y-60779819D02*
X61634524Y-60779819D01*
X61634524Y-60779819D02*
X61539286Y-60732200D01*
X61539286Y-60732200D02*
X61491667Y-60684580D01*
X61491667Y-60684580D02*
X61444048Y-60589342D01*
X61444048Y-60589342D02*
X61396429Y-60398866D01*
X61396429Y-60398866D02*
X61396429Y-60160771D01*
X61396429Y-60160771D02*
X61444048Y-59970295D01*
X61444048Y-59970295D02*
X61491667Y-59875057D01*
X61491667Y-59875057D02*
X61539286Y-59827438D01*
X61539286Y-59827438D02*
X61634524Y-59779819D01*
X211129762Y-60779819D02*
X211129762Y-59779819D01*
X211701190Y-60779819D02*
X211272619Y-60208390D01*
X211701190Y-59779819D02*
X211129762Y-60351247D01*
X211891667Y-60875057D02*
X212653571Y-60875057D01*
X212844048Y-59875057D02*
X212891667Y-59827438D01*
X212891667Y-59827438D02*
X212986905Y-59779819D01*
X212986905Y-59779819D02*
X213225000Y-59779819D01*
X213225000Y-59779819D02*
X213320238Y-59827438D01*
X213320238Y-59827438D02*
X213367857Y-59875057D01*
X213367857Y-59875057D02*
X213415476Y-59970295D01*
X213415476Y-59970295D02*
X213415476Y-60065533D01*
X213415476Y-60065533D02*
X213367857Y-60208390D01*
X213367857Y-60208390D02*
X212796429Y-60779819D01*
X212796429Y-60779819D02*
X213415476Y-60779819D01*
X213986905Y-60208390D02*
X213891667Y-60160771D01*
X213891667Y-60160771D02*
X213844048Y-60113152D01*
X213844048Y-60113152D02*
X213796429Y-60017914D01*
X213796429Y-60017914D02*
X213796429Y-59970295D01*
X213796429Y-59970295D02*
X213844048Y-59875057D01*
X213844048Y-59875057D02*
X213891667Y-59827438D01*
X213891667Y-59827438D02*
X213986905Y-59779819D01*
X213986905Y-59779819D02*
X214177381Y-59779819D01*
X214177381Y-59779819D02*
X214272619Y-59827438D01*
X214272619Y-59827438D02*
X214320238Y-59875057D01*
X214320238Y-59875057D02*
X214367857Y-59970295D01*
X214367857Y-59970295D02*
X214367857Y-60017914D01*
X214367857Y-60017914D02*
X214320238Y-60113152D01*
X214320238Y-60113152D02*
X214272619Y-60160771D01*
X214272619Y-60160771D02*
X214177381Y-60208390D01*
X214177381Y-60208390D02*
X213986905Y-60208390D01*
X213986905Y-60208390D02*
X213891667Y-60256009D01*
X213891667Y-60256009D02*
X213844048Y-60303628D01*
X213844048Y-60303628D02*
X213796429Y-60398866D01*
X213796429Y-60398866D02*
X213796429Y-60589342D01*
X213796429Y-60589342D02*
X213844048Y-60684580D01*
X213844048Y-60684580D02*
X213891667Y-60732200D01*
X213891667Y-60732200D02*
X213986905Y-60779819D01*
X213986905Y-60779819D02*
X214177381Y-60779819D01*
X214177381Y-60779819D02*
X214272619Y-60732200D01*
X214272619Y-60732200D02*
X214320238Y-60684580D01*
X214320238Y-60684580D02*
X214367857Y-60589342D01*
X214367857Y-60589342D02*
X214367857Y-60398866D01*
X214367857Y-60398866D02*
X214320238Y-60303628D01*
X214320238Y-60303628D02*
X214272619Y-60256009D01*
X214272619Y-60256009D02*
X214177381Y-60208390D01*
X206367262Y-41729819D02*
X206367262Y-40729819D01*
X206938690Y-41729819D02*
X206510119Y-41158390D01*
X206938690Y-40729819D02*
X206367262Y-41301247D01*
X207129167Y-41825057D02*
X207891071Y-41825057D01*
X208652976Y-41729819D02*
X208081548Y-41729819D01*
X208367262Y-41729819D02*
X208367262Y-40729819D01*
X208367262Y-40729819D02*
X208272024Y-40872676D01*
X208272024Y-40872676D02*
X208176786Y-40967914D01*
X208176786Y-40967914D02*
X208081548Y-41015533D01*
X209510119Y-40729819D02*
X209319643Y-40729819D01*
X209319643Y-40729819D02*
X209224405Y-40777438D01*
X209224405Y-40777438D02*
X209176786Y-40825057D01*
X209176786Y-40825057D02*
X209081548Y-40967914D01*
X209081548Y-40967914D02*
X209033929Y-41158390D01*
X209033929Y-41158390D02*
X209033929Y-41539342D01*
X209033929Y-41539342D02*
X209081548Y-41634580D01*
X209081548Y-41634580D02*
X209129167Y-41682200D01*
X209129167Y-41682200D02*
X209224405Y-41729819D01*
X209224405Y-41729819D02*
X209414881Y-41729819D01*
X209414881Y-41729819D02*
X209510119Y-41682200D01*
X209510119Y-41682200D02*
X209557738Y-41634580D01*
X209557738Y-41634580D02*
X209605357Y-41539342D01*
X209605357Y-41539342D02*
X209605357Y-41301247D01*
X209605357Y-41301247D02*
X209557738Y-41206009D01*
X209557738Y-41206009D02*
X209510119Y-41158390D01*
X209510119Y-41158390D02*
X209414881Y-41110771D01*
X209414881Y-41110771D02*
X209224405Y-41110771D01*
X209224405Y-41110771D02*
X209129167Y-41158390D01*
X209129167Y-41158390D02*
X209081548Y-41206009D01*
X209081548Y-41206009D02*
X209033929Y-41301247D01*
X58729762Y-98879819D02*
X58729762Y-97879819D01*
X59301190Y-98879819D02*
X58872619Y-98308390D01*
X59301190Y-97879819D02*
X58729762Y-98451247D01*
X59491667Y-98975057D02*
X60253571Y-98975057D01*
X60920238Y-98213152D02*
X60920238Y-98879819D01*
X60682143Y-97832200D02*
X60444048Y-98546485D01*
X60444048Y-98546485D02*
X61063095Y-98546485D01*
X61872619Y-98213152D02*
X61872619Y-98879819D01*
X61634524Y-97832200D02*
X61396429Y-98546485D01*
X61396429Y-98546485D02*
X62015476Y-98546485D01*
X182554762Y-79829819D02*
X182554762Y-78829819D01*
X183126190Y-79829819D02*
X182697619Y-79258390D01*
X183126190Y-78829819D02*
X182554762Y-79401247D01*
X183316667Y-79925057D02*
X184078571Y-79925057D01*
X184221429Y-78829819D02*
X184840476Y-78829819D01*
X184840476Y-78829819D02*
X184507143Y-79210771D01*
X184507143Y-79210771D02*
X184650000Y-79210771D01*
X184650000Y-79210771D02*
X184745238Y-79258390D01*
X184745238Y-79258390D02*
X184792857Y-79306009D01*
X184792857Y-79306009D02*
X184840476Y-79401247D01*
X184840476Y-79401247D02*
X184840476Y-79639342D01*
X184840476Y-79639342D02*
X184792857Y-79734580D01*
X184792857Y-79734580D02*
X184745238Y-79782200D01*
X184745238Y-79782200D02*
X184650000Y-79829819D01*
X184650000Y-79829819D02*
X184364286Y-79829819D01*
X184364286Y-79829819D02*
X184269048Y-79782200D01*
X184269048Y-79782200D02*
X184221429Y-79734580D01*
X185411905Y-79258390D02*
X185316667Y-79210771D01*
X185316667Y-79210771D02*
X185269048Y-79163152D01*
X185269048Y-79163152D02*
X185221429Y-79067914D01*
X185221429Y-79067914D02*
X185221429Y-79020295D01*
X185221429Y-79020295D02*
X185269048Y-78925057D01*
X185269048Y-78925057D02*
X185316667Y-78877438D01*
X185316667Y-78877438D02*
X185411905Y-78829819D01*
X185411905Y-78829819D02*
X185602381Y-78829819D01*
X185602381Y-78829819D02*
X185697619Y-78877438D01*
X185697619Y-78877438D02*
X185745238Y-78925057D01*
X185745238Y-78925057D02*
X185792857Y-79020295D01*
X185792857Y-79020295D02*
X185792857Y-79067914D01*
X185792857Y-79067914D02*
X185745238Y-79163152D01*
X185745238Y-79163152D02*
X185697619Y-79210771D01*
X185697619Y-79210771D02*
X185602381Y-79258390D01*
X185602381Y-79258390D02*
X185411905Y-79258390D01*
X185411905Y-79258390D02*
X185316667Y-79306009D01*
X185316667Y-79306009D02*
X185269048Y-79353628D01*
X185269048Y-79353628D02*
X185221429Y-79448866D01*
X185221429Y-79448866D02*
X185221429Y-79639342D01*
X185221429Y-79639342D02*
X185269048Y-79734580D01*
X185269048Y-79734580D02*
X185316667Y-79782200D01*
X185316667Y-79782200D02*
X185411905Y-79829819D01*
X185411905Y-79829819D02*
X185602381Y-79829819D01*
X185602381Y-79829819D02*
X185697619Y-79782200D01*
X185697619Y-79782200D02*
X185745238Y-79734580D01*
X185745238Y-79734580D02*
X185792857Y-79639342D01*
X185792857Y-79639342D02*
X185792857Y-79448866D01*
X185792857Y-79448866D02*
X185745238Y-79353628D01*
X185745238Y-79353628D02*
X185697619Y-79306009D01*
X185697619Y-79306009D02*
X185602381Y-79258390D01*
X187317262Y-41729819D02*
X187317262Y-40729819D01*
X187888690Y-41729819D02*
X187460119Y-41158390D01*
X187888690Y-40729819D02*
X187317262Y-41301247D01*
X188079167Y-41825057D02*
X188841071Y-41825057D01*
X189602976Y-41729819D02*
X189031548Y-41729819D01*
X189317262Y-41729819D02*
X189317262Y-40729819D01*
X189317262Y-40729819D02*
X189222024Y-40872676D01*
X189222024Y-40872676D02*
X189126786Y-40967914D01*
X189126786Y-40967914D02*
X189031548Y-41015533D01*
X190507738Y-40729819D02*
X190031548Y-40729819D01*
X190031548Y-40729819D02*
X189983929Y-41206009D01*
X189983929Y-41206009D02*
X190031548Y-41158390D01*
X190031548Y-41158390D02*
X190126786Y-41110771D01*
X190126786Y-41110771D02*
X190364881Y-41110771D01*
X190364881Y-41110771D02*
X190460119Y-41158390D01*
X190460119Y-41158390D02*
X190507738Y-41206009D01*
X190507738Y-41206009D02*
X190555357Y-41301247D01*
X190555357Y-41301247D02*
X190555357Y-41539342D01*
X190555357Y-41539342D02*
X190507738Y-41634580D01*
X190507738Y-41634580D02*
X190460119Y-41682200D01*
X190460119Y-41682200D02*
X190364881Y-41729819D01*
X190364881Y-41729819D02*
X190126786Y-41729819D01*
X190126786Y-41729819D02*
X190031548Y-41682200D01*
X190031548Y-41682200D02*
X189983929Y-41634580D01*
X173029762Y-60779819D02*
X173029762Y-59779819D01*
X173601190Y-60779819D02*
X173172619Y-60208390D01*
X173601190Y-59779819D02*
X173029762Y-60351247D01*
X173791667Y-60875057D02*
X174553571Y-60875057D01*
X174744048Y-59875057D02*
X174791667Y-59827438D01*
X174791667Y-59827438D02*
X174886905Y-59779819D01*
X174886905Y-59779819D02*
X175125000Y-59779819D01*
X175125000Y-59779819D02*
X175220238Y-59827438D01*
X175220238Y-59827438D02*
X175267857Y-59875057D01*
X175267857Y-59875057D02*
X175315476Y-59970295D01*
X175315476Y-59970295D02*
X175315476Y-60065533D01*
X175315476Y-60065533D02*
X175267857Y-60208390D01*
X175267857Y-60208390D02*
X174696429Y-60779819D01*
X174696429Y-60779819D02*
X175315476Y-60779819D01*
X176172619Y-59779819D02*
X175982143Y-59779819D01*
X175982143Y-59779819D02*
X175886905Y-59827438D01*
X175886905Y-59827438D02*
X175839286Y-59875057D01*
X175839286Y-59875057D02*
X175744048Y-60017914D01*
X175744048Y-60017914D02*
X175696429Y-60208390D01*
X175696429Y-60208390D02*
X175696429Y-60589342D01*
X175696429Y-60589342D02*
X175744048Y-60684580D01*
X175744048Y-60684580D02*
X175791667Y-60732200D01*
X175791667Y-60732200D02*
X175886905Y-60779819D01*
X175886905Y-60779819D02*
X176077381Y-60779819D01*
X176077381Y-60779819D02*
X176172619Y-60732200D01*
X176172619Y-60732200D02*
X176220238Y-60684580D01*
X176220238Y-60684580D02*
X176267857Y-60589342D01*
X176267857Y-60589342D02*
X176267857Y-60351247D01*
X176267857Y-60351247D02*
X176220238Y-60256009D01*
X176220238Y-60256009D02*
X176172619Y-60208390D01*
X176172619Y-60208390D02*
X176077381Y-60160771D01*
X176077381Y-60160771D02*
X175886905Y-60160771D01*
X175886905Y-60160771D02*
X175791667Y-60208390D01*
X175791667Y-60208390D02*
X175744048Y-60256009D01*
X175744048Y-60256009D02*
X175696429Y-60351247D01*
X106354762Y-79829819D02*
X106354762Y-78829819D01*
X106926190Y-79829819D02*
X106497619Y-79258390D01*
X106926190Y-78829819D02*
X106354762Y-79401247D01*
X107116667Y-79925057D02*
X107878571Y-79925057D01*
X108021429Y-78829819D02*
X108640476Y-78829819D01*
X108640476Y-78829819D02*
X108307143Y-79210771D01*
X108307143Y-79210771D02*
X108450000Y-79210771D01*
X108450000Y-79210771D02*
X108545238Y-79258390D01*
X108545238Y-79258390D02*
X108592857Y-79306009D01*
X108592857Y-79306009D02*
X108640476Y-79401247D01*
X108640476Y-79401247D02*
X108640476Y-79639342D01*
X108640476Y-79639342D02*
X108592857Y-79734580D01*
X108592857Y-79734580D02*
X108545238Y-79782200D01*
X108545238Y-79782200D02*
X108450000Y-79829819D01*
X108450000Y-79829819D02*
X108164286Y-79829819D01*
X108164286Y-79829819D02*
X108069048Y-79782200D01*
X108069048Y-79782200D02*
X108021429Y-79734580D01*
X109497619Y-79163152D02*
X109497619Y-79829819D01*
X109259524Y-78782200D02*
X109021429Y-79496485D01*
X109021429Y-79496485D02*
X109640476Y-79496485D01*
X225417262Y-41729819D02*
X225417262Y-40729819D01*
X225988690Y-41729819D02*
X225560119Y-41158390D01*
X225988690Y-40729819D02*
X225417262Y-41301247D01*
X226179167Y-41825057D02*
X226941071Y-41825057D01*
X227702976Y-41729819D02*
X227131548Y-41729819D01*
X227417262Y-41729819D02*
X227417262Y-40729819D01*
X227417262Y-40729819D02*
X227322024Y-40872676D01*
X227322024Y-40872676D02*
X227226786Y-40967914D01*
X227226786Y-40967914D02*
X227131548Y-41015533D01*
X228036310Y-40729819D02*
X228702976Y-40729819D01*
X228702976Y-40729819D02*
X228274405Y-41729819D01*
X115879762Y-60779819D02*
X115879762Y-59779819D01*
X116451190Y-60779819D02*
X116022619Y-60208390D01*
X116451190Y-59779819D02*
X115879762Y-60351247D01*
X116641667Y-60875057D02*
X117403571Y-60875057D01*
X117594048Y-59875057D02*
X117641667Y-59827438D01*
X117641667Y-59827438D02*
X117736905Y-59779819D01*
X117736905Y-59779819D02*
X117975000Y-59779819D01*
X117975000Y-59779819D02*
X118070238Y-59827438D01*
X118070238Y-59827438D02*
X118117857Y-59875057D01*
X118117857Y-59875057D02*
X118165476Y-59970295D01*
X118165476Y-59970295D02*
X118165476Y-60065533D01*
X118165476Y-60065533D02*
X118117857Y-60208390D01*
X118117857Y-60208390D02*
X117546429Y-60779819D01*
X117546429Y-60779819D02*
X118165476Y-60779819D01*
X118498810Y-59779819D02*
X119117857Y-59779819D01*
X119117857Y-59779819D02*
X118784524Y-60160771D01*
X118784524Y-60160771D02*
X118927381Y-60160771D01*
X118927381Y-60160771D02*
X119022619Y-60208390D01*
X119022619Y-60208390D02*
X119070238Y-60256009D01*
X119070238Y-60256009D02*
X119117857Y-60351247D01*
X119117857Y-60351247D02*
X119117857Y-60589342D01*
X119117857Y-60589342D02*
X119070238Y-60684580D01*
X119070238Y-60684580D02*
X119022619Y-60732200D01*
X119022619Y-60732200D02*
X118927381Y-60779819D01*
X118927381Y-60779819D02*
X118641667Y-60779819D01*
X118641667Y-60779819D02*
X118546429Y-60732200D01*
X118546429Y-60732200D02*
X118498810Y-60684580D01*
X83018452Y-22679819D02*
X83018452Y-21679819D01*
X83589880Y-22679819D02*
X83161309Y-22108390D01*
X83589880Y-21679819D02*
X83018452Y-22251247D01*
X83780357Y-22775057D02*
X84542261Y-22775057D01*
X84685119Y-21679819D02*
X85304166Y-21679819D01*
X85304166Y-21679819D02*
X84970833Y-22060771D01*
X84970833Y-22060771D02*
X85113690Y-22060771D01*
X85113690Y-22060771D02*
X85208928Y-22108390D01*
X85208928Y-22108390D02*
X85256547Y-22156009D01*
X85256547Y-22156009D02*
X85304166Y-22251247D01*
X85304166Y-22251247D02*
X85304166Y-22489342D01*
X85304166Y-22489342D02*
X85256547Y-22584580D01*
X85256547Y-22584580D02*
X85208928Y-22632200D01*
X85208928Y-22632200D02*
X85113690Y-22679819D01*
X85113690Y-22679819D02*
X84827976Y-22679819D01*
X84827976Y-22679819D02*
X84732738Y-22632200D01*
X84732738Y-22632200D02*
X84685119Y-22584580D01*
X42061012Y-79829819D02*
X42061012Y-78829819D01*
X42632440Y-79829819D02*
X42203869Y-79258390D01*
X42632440Y-78829819D02*
X42061012Y-79401247D01*
X42822917Y-79925057D02*
X43584821Y-79925057D01*
X43727679Y-78829819D02*
X44346726Y-78829819D01*
X44346726Y-78829819D02*
X44013393Y-79210771D01*
X44013393Y-79210771D02*
X44156250Y-79210771D01*
X44156250Y-79210771D02*
X44251488Y-79258390D01*
X44251488Y-79258390D02*
X44299107Y-79306009D01*
X44299107Y-79306009D02*
X44346726Y-79401247D01*
X44346726Y-79401247D02*
X44346726Y-79639342D01*
X44346726Y-79639342D02*
X44299107Y-79734580D01*
X44299107Y-79734580D02*
X44251488Y-79782200D01*
X44251488Y-79782200D02*
X44156250Y-79829819D01*
X44156250Y-79829819D02*
X43870536Y-79829819D01*
X43870536Y-79829819D02*
X43775298Y-79782200D01*
X43775298Y-79782200D02*
X43727679Y-79734580D01*
X45299107Y-79829819D02*
X44727679Y-79829819D01*
X45013393Y-79829819D02*
X45013393Y-78829819D01*
X45013393Y-78829819D02*
X44918155Y-78972676D01*
X44918155Y-78972676D02*
X44822917Y-79067914D01*
X44822917Y-79067914D02*
X44727679Y-79115533D01*
X144454762Y-79829819D02*
X144454762Y-78829819D01*
X145026190Y-79829819D02*
X144597619Y-79258390D01*
X145026190Y-78829819D02*
X144454762Y-79401247D01*
X145216667Y-79925057D02*
X145978571Y-79925057D01*
X146121429Y-78829819D02*
X146740476Y-78829819D01*
X146740476Y-78829819D02*
X146407143Y-79210771D01*
X146407143Y-79210771D02*
X146550000Y-79210771D01*
X146550000Y-79210771D02*
X146645238Y-79258390D01*
X146645238Y-79258390D02*
X146692857Y-79306009D01*
X146692857Y-79306009D02*
X146740476Y-79401247D01*
X146740476Y-79401247D02*
X146740476Y-79639342D01*
X146740476Y-79639342D02*
X146692857Y-79734580D01*
X146692857Y-79734580D02*
X146645238Y-79782200D01*
X146645238Y-79782200D02*
X146550000Y-79829819D01*
X146550000Y-79829819D02*
X146264286Y-79829819D01*
X146264286Y-79829819D02*
X146169048Y-79782200D01*
X146169048Y-79782200D02*
X146121429Y-79734580D01*
X147597619Y-78829819D02*
X147407143Y-78829819D01*
X147407143Y-78829819D02*
X147311905Y-78877438D01*
X147311905Y-78877438D02*
X147264286Y-78925057D01*
X147264286Y-78925057D02*
X147169048Y-79067914D01*
X147169048Y-79067914D02*
X147121429Y-79258390D01*
X147121429Y-79258390D02*
X147121429Y-79639342D01*
X147121429Y-79639342D02*
X147169048Y-79734580D01*
X147169048Y-79734580D02*
X147216667Y-79782200D01*
X147216667Y-79782200D02*
X147311905Y-79829819D01*
X147311905Y-79829819D02*
X147502381Y-79829819D01*
X147502381Y-79829819D02*
X147597619Y-79782200D01*
X147597619Y-79782200D02*
X147645238Y-79734580D01*
X147645238Y-79734580D02*
X147692857Y-79639342D01*
X147692857Y-79639342D02*
X147692857Y-79401247D01*
X147692857Y-79401247D02*
X147645238Y-79306009D01*
X147645238Y-79306009D02*
X147597619Y-79258390D01*
X147597619Y-79258390D02*
X147502381Y-79210771D01*
X147502381Y-79210771D02*
X147311905Y-79210771D01*
X147311905Y-79210771D02*
X147216667Y-79258390D01*
X147216667Y-79258390D02*
X147169048Y-79306009D01*
X147169048Y-79306009D02*
X147121429Y-79401247D01*
X130167262Y-41729819D02*
X130167262Y-40729819D01*
X130738690Y-41729819D02*
X130310119Y-41158390D01*
X130738690Y-40729819D02*
X130167262Y-41301247D01*
X130929167Y-41825057D02*
X131691071Y-41825057D01*
X132452976Y-41729819D02*
X131881548Y-41729819D01*
X132167262Y-41729819D02*
X132167262Y-40729819D01*
X132167262Y-40729819D02*
X132072024Y-40872676D01*
X132072024Y-40872676D02*
X131976786Y-40967914D01*
X131976786Y-40967914D02*
X131881548Y-41015533D01*
X132833929Y-40825057D02*
X132881548Y-40777438D01*
X132881548Y-40777438D02*
X132976786Y-40729819D01*
X132976786Y-40729819D02*
X133214881Y-40729819D01*
X133214881Y-40729819D02*
X133310119Y-40777438D01*
X133310119Y-40777438D02*
X133357738Y-40825057D01*
X133357738Y-40825057D02*
X133405357Y-40920295D01*
X133405357Y-40920295D02*
X133405357Y-41015533D01*
X133405357Y-41015533D02*
X133357738Y-41158390D01*
X133357738Y-41158390D02*
X132786310Y-41729819D01*
X132786310Y-41729819D02*
X133405357Y-41729819D01*
X102068452Y-22679819D02*
X102068452Y-21679819D01*
X102639880Y-22679819D02*
X102211309Y-22108390D01*
X102639880Y-21679819D02*
X102068452Y-22251247D01*
X102830357Y-22775057D02*
X103592261Y-22775057D01*
X104258928Y-22013152D02*
X104258928Y-22679819D01*
X104020833Y-21632200D02*
X103782738Y-22346485D01*
X103782738Y-22346485D02*
X104401785Y-22346485D01*
X192079762Y-60779819D02*
X192079762Y-59779819D01*
X192651190Y-60779819D02*
X192222619Y-60208390D01*
X192651190Y-59779819D02*
X192079762Y-60351247D01*
X192841667Y-60875057D02*
X193603571Y-60875057D01*
X193794048Y-59875057D02*
X193841667Y-59827438D01*
X193841667Y-59827438D02*
X193936905Y-59779819D01*
X193936905Y-59779819D02*
X194175000Y-59779819D01*
X194175000Y-59779819D02*
X194270238Y-59827438D01*
X194270238Y-59827438D02*
X194317857Y-59875057D01*
X194317857Y-59875057D02*
X194365476Y-59970295D01*
X194365476Y-59970295D02*
X194365476Y-60065533D01*
X194365476Y-60065533D02*
X194317857Y-60208390D01*
X194317857Y-60208390D02*
X193746429Y-60779819D01*
X193746429Y-60779819D02*
X194365476Y-60779819D01*
X194698810Y-59779819D02*
X195365476Y-59779819D01*
X195365476Y-59779819D02*
X194936905Y-60779819D01*
X54443452Y-41729819D02*
X54443452Y-40729819D01*
X55014880Y-41729819D02*
X54586309Y-41158390D01*
X55014880Y-40729819D02*
X54443452Y-41301247D01*
X55205357Y-41825057D02*
X55967261Y-41825057D01*
X56348214Y-41158390D02*
X56252976Y-41110771D01*
X56252976Y-41110771D02*
X56205357Y-41063152D01*
X56205357Y-41063152D02*
X56157738Y-40967914D01*
X56157738Y-40967914D02*
X56157738Y-40920295D01*
X56157738Y-40920295D02*
X56205357Y-40825057D01*
X56205357Y-40825057D02*
X56252976Y-40777438D01*
X56252976Y-40777438D02*
X56348214Y-40729819D01*
X56348214Y-40729819D02*
X56538690Y-40729819D01*
X56538690Y-40729819D02*
X56633928Y-40777438D01*
X56633928Y-40777438D02*
X56681547Y-40825057D01*
X56681547Y-40825057D02*
X56729166Y-40920295D01*
X56729166Y-40920295D02*
X56729166Y-40967914D01*
X56729166Y-40967914D02*
X56681547Y-41063152D01*
X56681547Y-41063152D02*
X56633928Y-41110771D01*
X56633928Y-41110771D02*
X56538690Y-41158390D01*
X56538690Y-41158390D02*
X56348214Y-41158390D01*
X56348214Y-41158390D02*
X56252976Y-41206009D01*
X56252976Y-41206009D02*
X56205357Y-41253628D01*
X56205357Y-41253628D02*
X56157738Y-41348866D01*
X56157738Y-41348866D02*
X56157738Y-41539342D01*
X56157738Y-41539342D02*
X56205357Y-41634580D01*
X56205357Y-41634580D02*
X56252976Y-41682200D01*
X56252976Y-41682200D02*
X56348214Y-41729819D01*
X56348214Y-41729819D02*
X56538690Y-41729819D01*
X56538690Y-41729819D02*
X56633928Y-41682200D01*
X56633928Y-41682200D02*
X56681547Y-41634580D01*
X56681547Y-41634580D02*
X56729166Y-41539342D01*
X56729166Y-41539342D02*
X56729166Y-41348866D01*
X56729166Y-41348866D02*
X56681547Y-41253628D01*
X56681547Y-41253628D02*
X56633928Y-41206009D01*
X56633928Y-41206009D02*
X56538690Y-41158390D01*
X44918452Y-22679819D02*
X44918452Y-21679819D01*
X45489880Y-22679819D02*
X45061309Y-22108390D01*
X45489880Y-21679819D02*
X44918452Y-22251247D01*
X45680357Y-22775057D02*
X46442261Y-22775057D01*
X47204166Y-22679819D02*
X46632738Y-22679819D01*
X46918452Y-22679819D02*
X46918452Y-21679819D01*
X46918452Y-21679819D02*
X46823214Y-21822676D01*
X46823214Y-21822676D02*
X46727976Y-21917914D01*
X46727976Y-21917914D02*
X46632738Y-21965533D01*
X201604762Y-79829819D02*
X201604762Y-78829819D01*
X202176190Y-79829819D02*
X201747619Y-79258390D01*
X202176190Y-78829819D02*
X201604762Y-79401247D01*
X202366667Y-79925057D02*
X203128571Y-79925057D01*
X203271429Y-78829819D02*
X203890476Y-78829819D01*
X203890476Y-78829819D02*
X203557143Y-79210771D01*
X203557143Y-79210771D02*
X203700000Y-79210771D01*
X203700000Y-79210771D02*
X203795238Y-79258390D01*
X203795238Y-79258390D02*
X203842857Y-79306009D01*
X203842857Y-79306009D02*
X203890476Y-79401247D01*
X203890476Y-79401247D02*
X203890476Y-79639342D01*
X203890476Y-79639342D02*
X203842857Y-79734580D01*
X203842857Y-79734580D02*
X203795238Y-79782200D01*
X203795238Y-79782200D02*
X203700000Y-79829819D01*
X203700000Y-79829819D02*
X203414286Y-79829819D01*
X203414286Y-79829819D02*
X203319048Y-79782200D01*
X203319048Y-79782200D02*
X203271429Y-79734580D01*
X204366667Y-79829819D02*
X204557143Y-79829819D01*
X204557143Y-79829819D02*
X204652381Y-79782200D01*
X204652381Y-79782200D02*
X204700000Y-79734580D01*
X204700000Y-79734580D02*
X204795238Y-79591723D01*
X204795238Y-79591723D02*
X204842857Y-79401247D01*
X204842857Y-79401247D02*
X204842857Y-79020295D01*
X204842857Y-79020295D02*
X204795238Y-78925057D01*
X204795238Y-78925057D02*
X204747619Y-78877438D01*
X204747619Y-78877438D02*
X204652381Y-78829819D01*
X204652381Y-78829819D02*
X204461905Y-78829819D01*
X204461905Y-78829819D02*
X204366667Y-78877438D01*
X204366667Y-78877438D02*
X204319048Y-78925057D01*
X204319048Y-78925057D02*
X204271429Y-79020295D01*
X204271429Y-79020295D02*
X204271429Y-79258390D01*
X204271429Y-79258390D02*
X204319048Y-79353628D01*
X204319048Y-79353628D02*
X204366667Y-79401247D01*
X204366667Y-79401247D02*
X204461905Y-79448866D01*
X204461905Y-79448866D02*
X204652381Y-79448866D01*
X204652381Y-79448866D02*
X204747619Y-79401247D01*
X204747619Y-79401247D02*
X204795238Y-79353628D01*
X204795238Y-79353628D02*
X204842857Y-79258390D01*
X73493452Y-41729819D02*
X73493452Y-40729819D01*
X74064880Y-41729819D02*
X73636309Y-41158390D01*
X74064880Y-40729819D02*
X73493452Y-41301247D01*
X74255357Y-41825057D02*
X75017261Y-41825057D01*
X75302976Y-41729819D02*
X75493452Y-41729819D01*
X75493452Y-41729819D02*
X75588690Y-41682200D01*
X75588690Y-41682200D02*
X75636309Y-41634580D01*
X75636309Y-41634580D02*
X75731547Y-41491723D01*
X75731547Y-41491723D02*
X75779166Y-41301247D01*
X75779166Y-41301247D02*
X75779166Y-40920295D01*
X75779166Y-40920295D02*
X75731547Y-40825057D01*
X75731547Y-40825057D02*
X75683928Y-40777438D01*
X75683928Y-40777438D02*
X75588690Y-40729819D01*
X75588690Y-40729819D02*
X75398214Y-40729819D01*
X75398214Y-40729819D02*
X75302976Y-40777438D01*
X75302976Y-40777438D02*
X75255357Y-40825057D01*
X75255357Y-40825057D02*
X75207738Y-40920295D01*
X75207738Y-40920295D02*
X75207738Y-41158390D01*
X75207738Y-41158390D02*
X75255357Y-41253628D01*
X75255357Y-41253628D02*
X75302976Y-41301247D01*
X75302976Y-41301247D02*
X75398214Y-41348866D01*
X75398214Y-41348866D02*
X75588690Y-41348866D01*
X75588690Y-41348866D02*
X75683928Y-41301247D01*
X75683928Y-41301247D02*
X75731547Y-41253628D01*
X75731547Y-41253628D02*
X75779166Y-41158390D01*
X111117262Y-41729819D02*
X111117262Y-40729819D01*
X111688690Y-41729819D02*
X111260119Y-41158390D01*
X111688690Y-40729819D02*
X111117262Y-41301247D01*
X111879167Y-41825057D02*
X112641071Y-41825057D01*
X113402976Y-41729819D02*
X112831548Y-41729819D01*
X113117262Y-41729819D02*
X113117262Y-40729819D01*
X113117262Y-40729819D02*
X113022024Y-40872676D01*
X113022024Y-40872676D02*
X112926786Y-40967914D01*
X112926786Y-40967914D02*
X112831548Y-41015533D01*
X114355357Y-41729819D02*
X113783929Y-41729819D01*
X114069643Y-41729819D02*
X114069643Y-40729819D01*
X114069643Y-40729819D02*
X113974405Y-40872676D01*
X113974405Y-40872676D02*
X113879167Y-40967914D01*
X113879167Y-40967914D02*
X113783929Y-41015533D01*
X251611012Y-41729819D02*
X251611012Y-40729819D01*
X252182440Y-41729819D02*
X251753869Y-41158390D01*
X252182440Y-40729819D02*
X251611012Y-41301247D01*
X252372917Y-41825057D02*
X253134821Y-41825057D01*
X253896726Y-41729819D02*
X253325298Y-41729819D01*
X253611012Y-41729819D02*
X253611012Y-40729819D01*
X253611012Y-40729819D02*
X253515774Y-40872676D01*
X253515774Y-40872676D02*
X253420536Y-40967914D01*
X253420536Y-40967914D02*
X253325298Y-41015533D01*
X254468155Y-41158390D02*
X254372917Y-41110771D01*
X254372917Y-41110771D02*
X254325298Y-41063152D01*
X254325298Y-41063152D02*
X254277679Y-40967914D01*
X254277679Y-40967914D02*
X254277679Y-40920295D01*
X254277679Y-40920295D02*
X254325298Y-40825057D01*
X254325298Y-40825057D02*
X254372917Y-40777438D01*
X254372917Y-40777438D02*
X254468155Y-40729819D01*
X254468155Y-40729819D02*
X254658631Y-40729819D01*
X254658631Y-40729819D02*
X254753869Y-40777438D01*
X254753869Y-40777438D02*
X254801488Y-40825057D01*
X254801488Y-40825057D02*
X254849107Y-40920295D01*
X254849107Y-40920295D02*
X254849107Y-40967914D01*
X254849107Y-40967914D02*
X254801488Y-41063152D01*
X254801488Y-41063152D02*
X254753869Y-41110771D01*
X254753869Y-41110771D02*
X254658631Y-41158390D01*
X254658631Y-41158390D02*
X254468155Y-41158390D01*
X254468155Y-41158390D02*
X254372917Y-41206009D01*
X254372917Y-41206009D02*
X254325298Y-41253628D01*
X254325298Y-41253628D02*
X254277679Y-41348866D01*
X254277679Y-41348866D02*
X254277679Y-41539342D01*
X254277679Y-41539342D02*
X254325298Y-41634580D01*
X254325298Y-41634580D02*
X254372917Y-41682200D01*
X254372917Y-41682200D02*
X254468155Y-41729819D01*
X254468155Y-41729819D02*
X254658631Y-41729819D01*
X254658631Y-41729819D02*
X254753869Y-41682200D01*
X254753869Y-41682200D02*
X254801488Y-41634580D01*
X254801488Y-41634580D02*
X254849107Y-41539342D01*
X254849107Y-41539342D02*
X254849107Y-41348866D01*
X254849107Y-41348866D02*
X254801488Y-41253628D01*
X254801488Y-41253628D02*
X254753869Y-41206009D01*
X254753869Y-41206009D02*
X254658631Y-41158390D01*
X220654762Y-79829819D02*
X220654762Y-78829819D01*
X221226190Y-79829819D02*
X220797619Y-79258390D01*
X221226190Y-78829819D02*
X220654762Y-79401247D01*
X221416667Y-79925057D02*
X222178571Y-79925057D01*
X222845238Y-79163152D02*
X222845238Y-79829819D01*
X222607143Y-78782200D02*
X222369048Y-79496485D01*
X222369048Y-79496485D02*
X222988095Y-79496485D01*
X223559524Y-78829819D02*
X223654762Y-78829819D01*
X223654762Y-78829819D02*
X223750000Y-78877438D01*
X223750000Y-78877438D02*
X223797619Y-78925057D01*
X223797619Y-78925057D02*
X223845238Y-79020295D01*
X223845238Y-79020295D02*
X223892857Y-79210771D01*
X223892857Y-79210771D02*
X223892857Y-79448866D01*
X223892857Y-79448866D02*
X223845238Y-79639342D01*
X223845238Y-79639342D02*
X223797619Y-79734580D01*
X223797619Y-79734580D02*
X223750000Y-79782200D01*
X223750000Y-79782200D02*
X223654762Y-79829819D01*
X223654762Y-79829819D02*
X223559524Y-79829819D01*
X223559524Y-79829819D02*
X223464286Y-79782200D01*
X223464286Y-79782200D02*
X223416667Y-79734580D01*
X223416667Y-79734580D02*
X223369048Y-79639342D01*
X223369048Y-79639342D02*
X223321429Y-79448866D01*
X223321429Y-79448866D02*
X223321429Y-79210771D01*
X223321429Y-79210771D02*
X223369048Y-79020295D01*
X223369048Y-79020295D02*
X223416667Y-78925057D01*
X223416667Y-78925057D02*
X223464286Y-78877438D01*
X223464286Y-78877438D02*
X223559524Y-78829819D01*
X149217262Y-41729819D02*
X149217262Y-40729819D01*
X149788690Y-41729819D02*
X149360119Y-41158390D01*
X149788690Y-40729819D02*
X149217262Y-41301247D01*
X149979167Y-41825057D02*
X150741071Y-41825057D01*
X151502976Y-41729819D02*
X150931548Y-41729819D01*
X151217262Y-41729819D02*
X151217262Y-40729819D01*
X151217262Y-40729819D02*
X151122024Y-40872676D01*
X151122024Y-40872676D02*
X151026786Y-40967914D01*
X151026786Y-40967914D02*
X150931548Y-41015533D01*
X151836310Y-40729819D02*
X152455357Y-40729819D01*
X152455357Y-40729819D02*
X152122024Y-41110771D01*
X152122024Y-41110771D02*
X152264881Y-41110771D01*
X152264881Y-41110771D02*
X152360119Y-41158390D01*
X152360119Y-41158390D02*
X152407738Y-41206009D01*
X152407738Y-41206009D02*
X152455357Y-41301247D01*
X152455357Y-41301247D02*
X152455357Y-41539342D01*
X152455357Y-41539342D02*
X152407738Y-41634580D01*
X152407738Y-41634580D02*
X152360119Y-41682200D01*
X152360119Y-41682200D02*
X152264881Y-41729819D01*
X152264881Y-41729819D02*
X151979167Y-41729819D01*
X151979167Y-41729819D02*
X151883929Y-41682200D01*
X151883929Y-41682200D02*
X151836310Y-41634580D01*
X121118452Y-22679819D02*
X121118452Y-21679819D01*
X121689880Y-22679819D02*
X121261309Y-22108390D01*
X121689880Y-21679819D02*
X121118452Y-22251247D01*
X121880357Y-22775057D02*
X122642261Y-22775057D01*
X123356547Y-21679819D02*
X122880357Y-21679819D01*
X122880357Y-21679819D02*
X122832738Y-22156009D01*
X122832738Y-22156009D02*
X122880357Y-22108390D01*
X122880357Y-22108390D02*
X122975595Y-22060771D01*
X122975595Y-22060771D02*
X123213690Y-22060771D01*
X123213690Y-22060771D02*
X123308928Y-22108390D01*
X123308928Y-22108390D02*
X123356547Y-22156009D01*
X123356547Y-22156009D02*
X123404166Y-22251247D01*
X123404166Y-22251247D02*
X123404166Y-22489342D01*
X123404166Y-22489342D02*
X123356547Y-22584580D01*
X123356547Y-22584580D02*
X123308928Y-22632200D01*
X123308928Y-22632200D02*
X123213690Y-22679819D01*
X123213690Y-22679819D02*
X122975595Y-22679819D01*
X122975595Y-22679819D02*
X122880357Y-22632200D01*
X122880357Y-22632200D02*
X122832738Y-22584580D01*
X125404762Y-79829819D02*
X125404762Y-78829819D01*
X125976190Y-79829819D02*
X125547619Y-79258390D01*
X125976190Y-78829819D02*
X125404762Y-79401247D01*
X126166667Y-79925057D02*
X126928571Y-79925057D01*
X127071429Y-78829819D02*
X127690476Y-78829819D01*
X127690476Y-78829819D02*
X127357143Y-79210771D01*
X127357143Y-79210771D02*
X127500000Y-79210771D01*
X127500000Y-79210771D02*
X127595238Y-79258390D01*
X127595238Y-79258390D02*
X127642857Y-79306009D01*
X127642857Y-79306009D02*
X127690476Y-79401247D01*
X127690476Y-79401247D02*
X127690476Y-79639342D01*
X127690476Y-79639342D02*
X127642857Y-79734580D01*
X127642857Y-79734580D02*
X127595238Y-79782200D01*
X127595238Y-79782200D02*
X127500000Y-79829819D01*
X127500000Y-79829819D02*
X127214286Y-79829819D01*
X127214286Y-79829819D02*
X127119048Y-79782200D01*
X127119048Y-79782200D02*
X127071429Y-79734580D01*
X128595238Y-78829819D02*
X128119048Y-78829819D01*
X128119048Y-78829819D02*
X128071429Y-79306009D01*
X128071429Y-79306009D02*
X128119048Y-79258390D01*
X128119048Y-79258390D02*
X128214286Y-79210771D01*
X128214286Y-79210771D02*
X128452381Y-79210771D01*
X128452381Y-79210771D02*
X128547619Y-79258390D01*
X128547619Y-79258390D02*
X128595238Y-79306009D01*
X128595238Y-79306009D02*
X128642857Y-79401247D01*
X128642857Y-79401247D02*
X128642857Y-79639342D01*
X128642857Y-79639342D02*
X128595238Y-79734580D01*
X128595238Y-79734580D02*
X128547619Y-79782200D01*
X128547619Y-79782200D02*
X128452381Y-79829819D01*
X128452381Y-79829819D02*
X128214286Y-79829819D01*
X128214286Y-79829819D02*
X128119048Y-79782200D01*
X128119048Y-79782200D02*
X128071429Y-79734580D01*
X239704762Y-98879819D02*
X239704762Y-97879819D01*
X240276190Y-98879819D02*
X239847619Y-98308390D01*
X240276190Y-97879819D02*
X239704762Y-98451247D01*
X240466667Y-98975057D02*
X241228571Y-98975057D01*
X241942857Y-97879819D02*
X241466667Y-97879819D01*
X241466667Y-97879819D02*
X241419048Y-98356009D01*
X241419048Y-98356009D02*
X241466667Y-98308390D01*
X241466667Y-98308390D02*
X241561905Y-98260771D01*
X241561905Y-98260771D02*
X241800000Y-98260771D01*
X241800000Y-98260771D02*
X241895238Y-98308390D01*
X241895238Y-98308390D02*
X241942857Y-98356009D01*
X241942857Y-98356009D02*
X241990476Y-98451247D01*
X241990476Y-98451247D02*
X241990476Y-98689342D01*
X241990476Y-98689342D02*
X241942857Y-98784580D01*
X241942857Y-98784580D02*
X241895238Y-98832200D01*
X241895238Y-98832200D02*
X241800000Y-98879819D01*
X241800000Y-98879819D02*
X241561905Y-98879819D01*
X241561905Y-98879819D02*
X241466667Y-98832200D01*
X241466667Y-98832200D02*
X241419048Y-98784580D01*
X242942857Y-98879819D02*
X242371429Y-98879819D01*
X242657143Y-98879819D02*
X242657143Y-97879819D01*
X242657143Y-97879819D02*
X242561905Y-98022676D01*
X242561905Y-98022676D02*
X242466667Y-98117914D01*
X242466667Y-98117914D02*
X242371429Y-98165533D01*
X140168452Y-22679819D02*
X140168452Y-21679819D01*
X140739880Y-22679819D02*
X140311309Y-22108390D01*
X140739880Y-21679819D02*
X140168452Y-22251247D01*
X140930357Y-22775057D02*
X141692261Y-22775057D01*
X142358928Y-21679819D02*
X142168452Y-21679819D01*
X142168452Y-21679819D02*
X142073214Y-21727438D01*
X142073214Y-21727438D02*
X142025595Y-21775057D01*
X142025595Y-21775057D02*
X141930357Y-21917914D01*
X141930357Y-21917914D02*
X141882738Y-22108390D01*
X141882738Y-22108390D02*
X141882738Y-22489342D01*
X141882738Y-22489342D02*
X141930357Y-22584580D01*
X141930357Y-22584580D02*
X141977976Y-22632200D01*
X141977976Y-22632200D02*
X142073214Y-22679819D01*
X142073214Y-22679819D02*
X142263690Y-22679819D01*
X142263690Y-22679819D02*
X142358928Y-22632200D01*
X142358928Y-22632200D02*
X142406547Y-22584580D01*
X142406547Y-22584580D02*
X142454166Y-22489342D01*
X142454166Y-22489342D02*
X142454166Y-22251247D01*
X142454166Y-22251247D02*
X142406547Y-22156009D01*
X142406547Y-22156009D02*
X142358928Y-22108390D01*
X142358928Y-22108390D02*
X142263690Y-22060771D01*
X142263690Y-22060771D02*
X142073214Y-22060771D01*
X142073214Y-22060771D02*
X141977976Y-22108390D01*
X141977976Y-22108390D02*
X141930357Y-22156009D01*
X141930357Y-22156009D02*
X141882738Y-22251247D01*
X239704762Y-79829819D02*
X239704762Y-78829819D01*
X240276190Y-79829819D02*
X239847619Y-79258390D01*
X240276190Y-78829819D02*
X239704762Y-79401247D01*
X240466667Y-79925057D02*
X241228571Y-79925057D01*
X241895238Y-79163152D02*
X241895238Y-79829819D01*
X241657143Y-78782200D02*
X241419048Y-79496485D01*
X241419048Y-79496485D02*
X242038095Y-79496485D01*
X242942857Y-79829819D02*
X242371429Y-79829819D01*
X242657143Y-79829819D02*
X242657143Y-78829819D01*
X242657143Y-78829819D02*
X242561905Y-78972676D01*
X242561905Y-78972676D02*
X242466667Y-79067914D01*
X242466667Y-79067914D02*
X242371429Y-79115533D01*
X220654762Y-98879819D02*
X220654762Y-97879819D01*
X221226190Y-98879819D02*
X220797619Y-98308390D01*
X221226190Y-97879819D02*
X220654762Y-98451247D01*
X221416667Y-98975057D02*
X222178571Y-98975057D01*
X222892857Y-97879819D02*
X222416667Y-97879819D01*
X222416667Y-97879819D02*
X222369048Y-98356009D01*
X222369048Y-98356009D02*
X222416667Y-98308390D01*
X222416667Y-98308390D02*
X222511905Y-98260771D01*
X222511905Y-98260771D02*
X222750000Y-98260771D01*
X222750000Y-98260771D02*
X222845238Y-98308390D01*
X222845238Y-98308390D02*
X222892857Y-98356009D01*
X222892857Y-98356009D02*
X222940476Y-98451247D01*
X222940476Y-98451247D02*
X222940476Y-98689342D01*
X222940476Y-98689342D02*
X222892857Y-98784580D01*
X222892857Y-98784580D02*
X222845238Y-98832200D01*
X222845238Y-98832200D02*
X222750000Y-98879819D01*
X222750000Y-98879819D02*
X222511905Y-98879819D01*
X222511905Y-98879819D02*
X222416667Y-98832200D01*
X222416667Y-98832200D02*
X222369048Y-98784580D01*
X223559524Y-97879819D02*
X223654762Y-97879819D01*
X223654762Y-97879819D02*
X223750000Y-97927438D01*
X223750000Y-97927438D02*
X223797619Y-97975057D01*
X223797619Y-97975057D02*
X223845238Y-98070295D01*
X223845238Y-98070295D02*
X223892857Y-98260771D01*
X223892857Y-98260771D02*
X223892857Y-98498866D01*
X223892857Y-98498866D02*
X223845238Y-98689342D01*
X223845238Y-98689342D02*
X223797619Y-98784580D01*
X223797619Y-98784580D02*
X223750000Y-98832200D01*
X223750000Y-98832200D02*
X223654762Y-98879819D01*
X223654762Y-98879819D02*
X223559524Y-98879819D01*
X223559524Y-98879819D02*
X223464286Y-98832200D01*
X223464286Y-98832200D02*
X223416667Y-98784580D01*
X223416667Y-98784580D02*
X223369048Y-98689342D01*
X223369048Y-98689342D02*
X223321429Y-98498866D01*
X223321429Y-98498866D02*
X223321429Y-98260771D01*
X223321429Y-98260771D02*
X223369048Y-98070295D01*
X223369048Y-98070295D02*
X223416667Y-97975057D01*
X223416667Y-97975057D02*
X223464286Y-97927438D01*
X223464286Y-97927438D02*
X223559524Y-97879819D01*
X165886012Y-98879819D02*
X165886012Y-97879819D01*
X166457440Y-98879819D02*
X166028869Y-98308390D01*
X166457440Y-97879819D02*
X165886012Y-98451247D01*
X166647917Y-98975057D02*
X167409821Y-98975057D01*
X168076488Y-98213152D02*
X168076488Y-98879819D01*
X167838393Y-97832200D02*
X167600298Y-98546485D01*
X167600298Y-98546485D02*
X168219345Y-98546485D01*
X168743155Y-98308390D02*
X168647917Y-98260771D01*
X168647917Y-98260771D02*
X168600298Y-98213152D01*
X168600298Y-98213152D02*
X168552679Y-98117914D01*
X168552679Y-98117914D02*
X168552679Y-98070295D01*
X168552679Y-98070295D02*
X168600298Y-97975057D01*
X168600298Y-97975057D02*
X168647917Y-97927438D01*
X168647917Y-97927438D02*
X168743155Y-97879819D01*
X168743155Y-97879819D02*
X168933631Y-97879819D01*
X168933631Y-97879819D02*
X169028869Y-97927438D01*
X169028869Y-97927438D02*
X169076488Y-97975057D01*
X169076488Y-97975057D02*
X169124107Y-98070295D01*
X169124107Y-98070295D02*
X169124107Y-98117914D01*
X169124107Y-98117914D02*
X169076488Y-98213152D01*
X169076488Y-98213152D02*
X169028869Y-98260771D01*
X169028869Y-98260771D02*
X168933631Y-98308390D01*
X168933631Y-98308390D02*
X168743155Y-98308390D01*
X168743155Y-98308390D02*
X168647917Y-98356009D01*
X168647917Y-98356009D02*
X168600298Y-98403628D01*
X168600298Y-98403628D02*
X168552679Y-98498866D01*
X168552679Y-98498866D02*
X168552679Y-98689342D01*
X168552679Y-98689342D02*
X168600298Y-98784580D01*
X168600298Y-98784580D02*
X168647917Y-98832200D01*
X168647917Y-98832200D02*
X168743155Y-98879819D01*
X168743155Y-98879819D02*
X168933631Y-98879819D01*
X168933631Y-98879819D02*
X169028869Y-98832200D01*
X169028869Y-98832200D02*
X169076488Y-98784580D01*
X169076488Y-98784580D02*
X169124107Y-98689342D01*
X169124107Y-98689342D02*
X169124107Y-98498866D01*
X169124107Y-98498866D02*
X169076488Y-98403628D01*
X169076488Y-98403628D02*
X169028869Y-98356009D01*
X169028869Y-98356009D02*
X168933631Y-98308390D01*
X230179762Y-60779819D02*
X230179762Y-59779819D01*
X230751190Y-60779819D02*
X230322619Y-60208390D01*
X230751190Y-59779819D02*
X230179762Y-60351247D01*
X230941667Y-60875057D02*
X231703571Y-60875057D01*
X231894048Y-59875057D02*
X231941667Y-59827438D01*
X231941667Y-59827438D02*
X232036905Y-59779819D01*
X232036905Y-59779819D02*
X232275000Y-59779819D01*
X232275000Y-59779819D02*
X232370238Y-59827438D01*
X232370238Y-59827438D02*
X232417857Y-59875057D01*
X232417857Y-59875057D02*
X232465476Y-59970295D01*
X232465476Y-59970295D02*
X232465476Y-60065533D01*
X232465476Y-60065533D02*
X232417857Y-60208390D01*
X232417857Y-60208390D02*
X231846429Y-60779819D01*
X231846429Y-60779819D02*
X232465476Y-60779819D01*
X232941667Y-60779819D02*
X233132143Y-60779819D01*
X233132143Y-60779819D02*
X233227381Y-60732200D01*
X233227381Y-60732200D02*
X233275000Y-60684580D01*
X233275000Y-60684580D02*
X233370238Y-60541723D01*
X233370238Y-60541723D02*
X233417857Y-60351247D01*
X233417857Y-60351247D02*
X233417857Y-59970295D01*
X233417857Y-59970295D02*
X233370238Y-59875057D01*
X233370238Y-59875057D02*
X233322619Y-59827438D01*
X233322619Y-59827438D02*
X233227381Y-59779819D01*
X233227381Y-59779819D02*
X233036905Y-59779819D01*
X233036905Y-59779819D02*
X232941667Y-59827438D01*
X232941667Y-59827438D02*
X232894048Y-59875057D01*
X232894048Y-59875057D02*
X232846429Y-59970295D01*
X232846429Y-59970295D02*
X232846429Y-60208390D01*
X232846429Y-60208390D02*
X232894048Y-60303628D01*
X232894048Y-60303628D02*
X232941667Y-60351247D01*
X232941667Y-60351247D02*
X233036905Y-60398866D01*
X233036905Y-60398866D02*
X233227381Y-60398866D01*
X233227381Y-60398866D02*
X233322619Y-60351247D01*
X233322619Y-60351247D02*
X233370238Y-60303628D01*
X233370238Y-60303628D02*
X233417857Y-60208390D01*
X118261012Y-98879819D02*
X118261012Y-97879819D01*
X118832440Y-98879819D02*
X118403869Y-98308390D01*
X118832440Y-97879819D02*
X118261012Y-98451247D01*
X119022917Y-98975057D02*
X119784821Y-98975057D01*
X120451488Y-98213152D02*
X120451488Y-98879819D01*
X120213393Y-97832200D02*
X119975298Y-98546485D01*
X119975298Y-98546485D02*
X120594345Y-98546485D01*
X121403869Y-97879819D02*
X121213393Y-97879819D01*
X121213393Y-97879819D02*
X121118155Y-97927438D01*
X121118155Y-97927438D02*
X121070536Y-97975057D01*
X121070536Y-97975057D02*
X120975298Y-98117914D01*
X120975298Y-98117914D02*
X120927679Y-98308390D01*
X120927679Y-98308390D02*
X120927679Y-98689342D01*
X120927679Y-98689342D02*
X120975298Y-98784580D01*
X120975298Y-98784580D02*
X121022917Y-98832200D01*
X121022917Y-98832200D02*
X121118155Y-98879819D01*
X121118155Y-98879819D02*
X121308631Y-98879819D01*
X121308631Y-98879819D02*
X121403869Y-98832200D01*
X121403869Y-98832200D02*
X121451488Y-98784580D01*
X121451488Y-98784580D02*
X121499107Y-98689342D01*
X121499107Y-98689342D02*
X121499107Y-98451247D01*
X121499107Y-98451247D02*
X121451488Y-98356009D01*
X121451488Y-98356009D02*
X121403869Y-98308390D01*
X121403869Y-98308390D02*
X121308631Y-98260771D01*
X121308631Y-98260771D02*
X121118155Y-98260771D01*
X121118155Y-98260771D02*
X121022917Y-98308390D01*
X121022917Y-98308390D02*
X120975298Y-98356009D01*
X120975298Y-98356009D02*
X120927679Y-98451247D01*
X96829762Y-60779819D02*
X96829762Y-59779819D01*
X97401190Y-60779819D02*
X96972619Y-60208390D01*
X97401190Y-59779819D02*
X96829762Y-60351247D01*
X97591667Y-60875057D02*
X98353571Y-60875057D01*
X98544048Y-59875057D02*
X98591667Y-59827438D01*
X98591667Y-59827438D02*
X98686905Y-59779819D01*
X98686905Y-59779819D02*
X98925000Y-59779819D01*
X98925000Y-59779819D02*
X99020238Y-59827438D01*
X99020238Y-59827438D02*
X99067857Y-59875057D01*
X99067857Y-59875057D02*
X99115476Y-59970295D01*
X99115476Y-59970295D02*
X99115476Y-60065533D01*
X99115476Y-60065533D02*
X99067857Y-60208390D01*
X99067857Y-60208390D02*
X98496429Y-60779819D01*
X98496429Y-60779819D02*
X99115476Y-60779819D01*
X99496429Y-59875057D02*
X99544048Y-59827438D01*
X99544048Y-59827438D02*
X99639286Y-59779819D01*
X99639286Y-59779819D02*
X99877381Y-59779819D01*
X99877381Y-59779819D02*
X99972619Y-59827438D01*
X99972619Y-59827438D02*
X100020238Y-59875057D01*
X100020238Y-59875057D02*
X100067857Y-59970295D01*
X100067857Y-59970295D02*
X100067857Y-60065533D01*
X100067857Y-60065533D02*
X100020238Y-60208390D01*
X100020238Y-60208390D02*
X99448810Y-60779819D01*
X99448810Y-60779819D02*
X100067857Y-60779819D01*
X199223512Y-98879819D02*
X199223512Y-97879819D01*
X199794940Y-98879819D02*
X199366369Y-98308390D01*
X199794940Y-97879819D02*
X199223512Y-98451247D01*
X199985417Y-98975057D02*
X200747321Y-98975057D01*
X201413988Y-98213152D02*
X201413988Y-98879819D01*
X201175893Y-97832200D02*
X200937798Y-98546485D01*
X200937798Y-98546485D02*
X201556845Y-98546485D01*
X201985417Y-98879819D02*
X202175893Y-98879819D01*
X202175893Y-98879819D02*
X202271131Y-98832200D01*
X202271131Y-98832200D02*
X202318750Y-98784580D01*
X202318750Y-98784580D02*
X202413988Y-98641723D01*
X202413988Y-98641723D02*
X202461607Y-98451247D01*
X202461607Y-98451247D02*
X202461607Y-98070295D01*
X202461607Y-98070295D02*
X202413988Y-97975057D01*
X202413988Y-97975057D02*
X202366369Y-97927438D01*
X202366369Y-97927438D02*
X202271131Y-97879819D01*
X202271131Y-97879819D02*
X202080655Y-97879819D01*
X202080655Y-97879819D02*
X201985417Y-97927438D01*
X201985417Y-97927438D02*
X201937798Y-97975057D01*
X201937798Y-97975057D02*
X201890179Y-98070295D01*
X201890179Y-98070295D02*
X201890179Y-98308390D01*
X201890179Y-98308390D02*
X201937798Y-98403628D01*
X201937798Y-98403628D02*
X201985417Y-98451247D01*
X201985417Y-98451247D02*
X202080655Y-98498866D01*
X202080655Y-98498866D02*
X202271131Y-98498866D01*
X202271131Y-98498866D02*
X202366369Y-98451247D01*
X202366369Y-98451247D02*
X202413988Y-98403628D01*
X202413988Y-98403628D02*
X202461607Y-98308390D01*
X77779762Y-60779819D02*
X77779762Y-59779819D01*
X78351190Y-60779819D02*
X77922619Y-60208390D01*
X78351190Y-59779819D02*
X77779762Y-60351247D01*
X78541667Y-60875057D02*
X79303571Y-60875057D01*
X79494048Y-59875057D02*
X79541667Y-59827438D01*
X79541667Y-59827438D02*
X79636905Y-59779819D01*
X79636905Y-59779819D02*
X79875000Y-59779819D01*
X79875000Y-59779819D02*
X79970238Y-59827438D01*
X79970238Y-59827438D02*
X80017857Y-59875057D01*
X80017857Y-59875057D02*
X80065476Y-59970295D01*
X80065476Y-59970295D02*
X80065476Y-60065533D01*
X80065476Y-60065533D02*
X80017857Y-60208390D01*
X80017857Y-60208390D02*
X79446429Y-60779819D01*
X79446429Y-60779819D02*
X80065476Y-60779819D01*
X81017857Y-60779819D02*
X80446429Y-60779819D01*
X80732143Y-60779819D02*
X80732143Y-59779819D01*
X80732143Y-59779819D02*
X80636905Y-59922676D01*
X80636905Y-59922676D02*
X80541667Y-60017914D01*
X80541667Y-60017914D02*
X80446429Y-60065533D01*
X168267262Y-41729819D02*
X168267262Y-40729819D01*
X168838690Y-41729819D02*
X168410119Y-41158390D01*
X168838690Y-40729819D02*
X168267262Y-41301247D01*
X169029167Y-41825057D02*
X169791071Y-41825057D01*
X170552976Y-41729819D02*
X169981548Y-41729819D01*
X170267262Y-41729819D02*
X170267262Y-40729819D01*
X170267262Y-40729819D02*
X170172024Y-40872676D01*
X170172024Y-40872676D02*
X170076786Y-40967914D01*
X170076786Y-40967914D02*
X169981548Y-41015533D01*
X171410119Y-41063152D02*
X171410119Y-41729819D01*
X171172024Y-40682200D02*
X170933929Y-41396485D01*
X170933929Y-41396485D02*
X171552976Y-41396485D01*
X37298512Y-98879819D02*
X37298512Y-97879819D01*
X37869940Y-98879819D02*
X37441369Y-98308390D01*
X37869940Y-97879819D02*
X37298512Y-98451247D01*
X38060417Y-98975057D02*
X38822321Y-98975057D01*
X39488988Y-98213152D02*
X39488988Y-98879819D01*
X39250893Y-97832200D02*
X39012798Y-98546485D01*
X39012798Y-98546485D02*
X39631845Y-98546485D01*
X39917560Y-97879819D02*
X40536607Y-97879819D01*
X40536607Y-97879819D02*
X40203274Y-98260771D01*
X40203274Y-98260771D02*
X40346131Y-98260771D01*
X40346131Y-98260771D02*
X40441369Y-98308390D01*
X40441369Y-98308390D02*
X40488988Y-98356009D01*
X40488988Y-98356009D02*
X40536607Y-98451247D01*
X40536607Y-98451247D02*
X40536607Y-98689342D01*
X40536607Y-98689342D02*
X40488988Y-98784580D01*
X40488988Y-98784580D02*
X40441369Y-98832200D01*
X40441369Y-98832200D02*
X40346131Y-98879819D01*
X40346131Y-98879819D02*
X40060417Y-98879819D01*
X40060417Y-98879819D02*
X39965179Y-98832200D01*
X39965179Y-98832200D02*
X39917560Y-98784580D01*
D14*
X134929762Y-60781119D02*
X134929762Y-59781119D01*
X135501190Y-60781119D02*
X135072619Y-60209690D01*
X135501190Y-59781119D02*
X134929762Y-60352547D01*
X135691667Y-60876357D02*
X136453571Y-60876357D01*
X136644048Y-59876357D02*
X136691667Y-59828738D01*
X136691667Y-59828738D02*
X136786905Y-59781119D01*
X136786905Y-59781119D02*
X137025000Y-59781119D01*
X137025000Y-59781119D02*
X137120238Y-59828738D01*
X137120238Y-59828738D02*
X137167857Y-59876357D01*
X137167857Y-59876357D02*
X137215476Y-59971595D01*
X137215476Y-59971595D02*
X137215476Y-60066833D01*
X137215476Y-60066833D02*
X137167857Y-60209690D01*
X137167857Y-60209690D02*
X136596429Y-60781119D01*
X136596429Y-60781119D02*
X137215476Y-60781119D01*
X138072619Y-60114452D02*
X138072619Y-60781119D01*
X137834524Y-59733500D02*
X137596429Y-60447785D01*
X137596429Y-60447785D02*
X138215476Y-60447785D01*
D13*
X37298512Y-60779819D02*
X37298512Y-59779819D01*
X37869940Y-60779819D02*
X37441369Y-60208390D01*
X37869940Y-59779819D02*
X37298512Y-60351247D01*
X38060417Y-60875057D02*
X38822321Y-60875057D01*
X39584226Y-60779819D02*
X39012798Y-60779819D01*
X39298512Y-60779819D02*
X39298512Y-59779819D01*
X39298512Y-59779819D02*
X39203274Y-59922676D01*
X39203274Y-59922676D02*
X39108036Y-60017914D01*
X39108036Y-60017914D02*
X39012798Y-60065533D01*
X40060417Y-60779819D02*
X40250893Y-60779819D01*
X40250893Y-60779819D02*
X40346131Y-60732200D01*
X40346131Y-60732200D02*
X40393750Y-60684580D01*
X40393750Y-60684580D02*
X40488988Y-60541723D01*
X40488988Y-60541723D02*
X40536607Y-60351247D01*
X40536607Y-60351247D02*
X40536607Y-59970295D01*
X40536607Y-59970295D02*
X40488988Y-59875057D01*
X40488988Y-59875057D02*
X40441369Y-59827438D01*
X40441369Y-59827438D02*
X40346131Y-59779819D01*
X40346131Y-59779819D02*
X40155655Y-59779819D01*
X40155655Y-59779819D02*
X40060417Y-59827438D01*
X40060417Y-59827438D02*
X40012798Y-59875057D01*
X40012798Y-59875057D02*
X39965179Y-59970295D01*
X39965179Y-59970295D02*
X39965179Y-60208390D01*
X39965179Y-60208390D02*
X40012798Y-60303628D01*
X40012798Y-60303628D02*
X40060417Y-60351247D01*
X40060417Y-60351247D02*
X40155655Y-60398866D01*
X40155655Y-60398866D02*
X40346131Y-60398866D01*
X40346131Y-60398866D02*
X40441369Y-60351247D01*
X40441369Y-60351247D02*
X40488988Y-60303628D01*
X40488988Y-60303628D02*
X40536607Y-60208390D01*
X151592162Y-98879819D02*
X151592162Y-97879819D01*
X152163590Y-98879819D02*
X151735019Y-98308390D01*
X152163590Y-97879819D02*
X151592162Y-98451247D01*
X152354067Y-98975057D02*
X153115971Y-98975057D01*
X153782638Y-98213152D02*
X153782638Y-98879819D01*
X153544543Y-97832200D02*
X153306448Y-98546485D01*
X153306448Y-98546485D02*
X153925495Y-98546485D01*
X154211210Y-97879819D02*
X154877876Y-97879819D01*
X154877876Y-97879819D02*
X154449305Y-98879819D01*
X258754762Y-79829819D02*
X258754762Y-78829819D01*
X259326190Y-79829819D02*
X258897619Y-79258390D01*
X259326190Y-78829819D02*
X258754762Y-79401247D01*
X259516667Y-79925057D02*
X260278571Y-79925057D01*
X260945238Y-79163152D02*
X260945238Y-79829819D01*
X260707143Y-78782200D02*
X260469048Y-79496485D01*
X260469048Y-79496485D02*
X261088095Y-79496485D01*
X261421429Y-78925057D02*
X261469048Y-78877438D01*
X261469048Y-78877438D02*
X261564286Y-78829819D01*
X261564286Y-78829819D02*
X261802381Y-78829819D01*
X261802381Y-78829819D02*
X261897619Y-78877438D01*
X261897619Y-78877438D02*
X261945238Y-78925057D01*
X261945238Y-78925057D02*
X261992857Y-79020295D01*
X261992857Y-79020295D02*
X261992857Y-79115533D01*
X261992857Y-79115533D02*
X261945238Y-79258390D01*
X261945238Y-79258390D02*
X261373810Y-79829819D01*
X261373810Y-79829819D02*
X261992857Y-79829819D01*
X35393452Y-41729819D02*
X35393452Y-40729819D01*
X35964880Y-41729819D02*
X35536309Y-41158390D01*
X35964880Y-40729819D02*
X35393452Y-41301247D01*
X36155357Y-41825057D02*
X36917261Y-41825057D01*
X37060119Y-40729819D02*
X37726785Y-40729819D01*
X37726785Y-40729819D02*
X37298214Y-41729819D01*
X163504762Y-79829819D02*
X163504762Y-78829819D01*
X164076190Y-79829819D02*
X163647619Y-79258390D01*
X164076190Y-78829819D02*
X163504762Y-79401247D01*
X164266667Y-79925057D02*
X165028571Y-79925057D01*
X165171429Y-78829819D02*
X165790476Y-78829819D01*
X165790476Y-78829819D02*
X165457143Y-79210771D01*
X165457143Y-79210771D02*
X165600000Y-79210771D01*
X165600000Y-79210771D02*
X165695238Y-79258390D01*
X165695238Y-79258390D02*
X165742857Y-79306009D01*
X165742857Y-79306009D02*
X165790476Y-79401247D01*
X165790476Y-79401247D02*
X165790476Y-79639342D01*
X165790476Y-79639342D02*
X165742857Y-79734580D01*
X165742857Y-79734580D02*
X165695238Y-79782200D01*
X165695238Y-79782200D02*
X165600000Y-79829819D01*
X165600000Y-79829819D02*
X165314286Y-79829819D01*
X165314286Y-79829819D02*
X165219048Y-79782200D01*
X165219048Y-79782200D02*
X165171429Y-79734580D01*
X166123810Y-78829819D02*
X166790476Y-78829819D01*
X166790476Y-78829819D02*
X166361905Y-79829819D01*
X258754762Y-98879819D02*
X258754762Y-97879819D01*
X259326190Y-98879819D02*
X258897619Y-98308390D01*
X259326190Y-97879819D02*
X258754762Y-98451247D01*
X259516667Y-98975057D02*
X260278571Y-98975057D01*
X260992857Y-97879819D02*
X260516667Y-97879819D01*
X260516667Y-97879819D02*
X260469048Y-98356009D01*
X260469048Y-98356009D02*
X260516667Y-98308390D01*
X260516667Y-98308390D02*
X260611905Y-98260771D01*
X260611905Y-98260771D02*
X260850000Y-98260771D01*
X260850000Y-98260771D02*
X260945238Y-98308390D01*
X260945238Y-98308390D02*
X260992857Y-98356009D01*
X260992857Y-98356009D02*
X261040476Y-98451247D01*
X261040476Y-98451247D02*
X261040476Y-98689342D01*
X261040476Y-98689342D02*
X260992857Y-98784580D01*
X260992857Y-98784580D02*
X260945238Y-98832200D01*
X260945238Y-98832200D02*
X260850000Y-98879819D01*
X260850000Y-98879819D02*
X260611905Y-98879819D01*
X260611905Y-98879819D02*
X260516667Y-98832200D01*
X260516667Y-98832200D02*
X260469048Y-98784580D01*
X261421429Y-97975057D02*
X261469048Y-97927438D01*
X261469048Y-97927438D02*
X261564286Y-97879819D01*
X261564286Y-97879819D02*
X261802381Y-97879819D01*
X261802381Y-97879819D02*
X261897619Y-97927438D01*
X261897619Y-97927438D02*
X261945238Y-97975057D01*
X261945238Y-97975057D02*
X261992857Y-98070295D01*
X261992857Y-98070295D02*
X261992857Y-98165533D01*
X261992857Y-98165533D02*
X261945238Y-98308390D01*
X261945238Y-98308390D02*
X261373810Y-98879819D01*
X261373810Y-98879819D02*
X261992857Y-98879819D01*
X63968452Y-22679819D02*
X63968452Y-21679819D01*
X64539880Y-22679819D02*
X64111309Y-22108390D01*
X64539880Y-21679819D02*
X63968452Y-22251247D01*
X64730357Y-22775057D02*
X65492261Y-22775057D01*
X65682738Y-21775057D02*
X65730357Y-21727438D01*
X65730357Y-21727438D02*
X65825595Y-21679819D01*
X65825595Y-21679819D02*
X66063690Y-21679819D01*
X66063690Y-21679819D02*
X66158928Y-21727438D01*
X66158928Y-21727438D02*
X66206547Y-21775057D01*
X66206547Y-21775057D02*
X66254166Y-21870295D01*
X66254166Y-21870295D02*
X66254166Y-21965533D01*
X66254166Y-21965533D02*
X66206547Y-22108390D01*
X66206547Y-22108390D02*
X65635119Y-22679819D01*
X65635119Y-22679819D02*
X66254166Y-22679819D01*
D10*
X81915000Y-72390000D02*
X95885000Y-72390000D01*
X81915000Y-86360000D02*
X81915000Y-72390000D01*
X95885000Y-72390000D02*
X95885000Y-86360000D01*
X95885000Y-86360000D02*
X81915000Y-86360000D01*
X148590000Y-53340000D02*
X162560000Y-53340000D01*
X148590000Y-67310000D02*
X148590000Y-53340000D01*
X162560000Y-53340000D02*
X162560000Y-67310000D01*
X162560000Y-67310000D02*
X148590000Y-67310000D01*
X62865000Y-72390000D02*
X76835000Y-72390000D01*
X62865000Y-86360000D02*
X62865000Y-72390000D01*
X76835000Y-72390000D02*
X76835000Y-86360000D01*
X76835000Y-86360000D02*
X62865000Y-86360000D01*
X74771250Y-91440000D02*
X88741250Y-91440000D01*
X74771250Y-105410000D02*
X74771250Y-91440000D01*
X88741250Y-91440000D02*
X88741250Y-105410000D01*
X88741250Y-105410000D02*
X74771250Y-105410000D01*
X248602500Y-53340000D02*
X262572500Y-53340000D01*
X248602500Y-67310000D02*
X248602500Y-53340000D01*
X262572500Y-53340000D02*
X262572500Y-67310000D01*
X262572500Y-67310000D02*
X248602500Y-67310000D01*
X86677500Y-34290000D02*
X100647500Y-34290000D01*
X86677500Y-48260000D02*
X86677500Y-34290000D01*
X100647500Y-34290000D02*
X100647500Y-48260000D01*
X100647500Y-48260000D02*
X86677500Y-48260000D01*
X53340000Y-53340000D02*
X67310000Y-53340000D01*
X53340000Y-67310000D02*
X53340000Y-53340000D01*
X67310000Y-53340000D02*
X67310000Y-67310000D01*
X67310000Y-67310000D02*
X53340000Y-67310000D01*
X205740000Y-53340000D02*
X219710000Y-53340000D01*
X205740000Y-67310000D02*
X205740000Y-53340000D01*
X219710000Y-53340000D02*
X219710000Y-67310000D01*
X219710000Y-67310000D02*
X205740000Y-67310000D01*
X200977500Y-34290000D02*
X214947500Y-34290000D01*
X200977500Y-48260000D02*
X200977500Y-34290000D01*
X214947500Y-34290000D02*
X214947500Y-48260000D01*
X214947500Y-48260000D02*
X200977500Y-48260000D01*
X53340000Y-91440000D02*
X67310000Y-91440000D01*
X53340000Y-105410000D02*
X53340000Y-91440000D01*
X67310000Y-91440000D02*
X67310000Y-105410000D01*
X67310000Y-105410000D02*
X53340000Y-105410000D01*
X177165000Y-72390000D02*
X191135000Y-72390000D01*
X177165000Y-86360000D02*
X177165000Y-72390000D01*
X191135000Y-72390000D02*
X191135000Y-86360000D01*
X191135000Y-86360000D02*
X177165000Y-86360000D01*
X181927500Y-34290000D02*
X195897500Y-34290000D01*
X181927500Y-48260000D02*
X181927500Y-34290000D01*
X195897500Y-34290000D02*
X195897500Y-48260000D01*
X195897500Y-48260000D02*
X181927500Y-48260000D01*
X167640000Y-53340000D02*
X181610000Y-53340000D01*
X167640000Y-67310000D02*
X167640000Y-53340000D01*
X181610000Y-53340000D02*
X181610000Y-67310000D01*
X181610000Y-67310000D02*
X167640000Y-67310000D01*
D15*
G36*
X135020374Y-102344025D02*
G01*
X134990907Y-102373492D01*
X134961441Y-102344025D01*
X134990907Y-102314559D01*
X135020374Y-102344025D01*
G37*
G36*
X137829500Y-100860885D02*
G01*
X137821410Y-100895921D01*
X137790211Y-100900174D01*
X137741703Y-100878611D01*
X137750923Y-100860885D01*
X137820862Y-100853832D01*
X137829500Y-100860885D01*
G37*
G36*
X134716604Y-101513340D02*
G01*
X134779871Y-101572679D01*
X134766893Y-101606793D01*
X134758654Y-101607366D01*
X134708808Y-101565508D01*
X134690616Y-101539328D01*
X134683670Y-101499001D01*
X134716604Y-101513340D01*
G37*
G36*
X135430504Y-103005599D02*
G01*
X135432903Y-103021752D01*
X135412796Y-103079152D01*
X135406914Y-103080684D01*
X135356599Y-103039388D01*
X135344504Y-103021752D01*
X135349176Y-102967446D01*
X135370492Y-102962819D01*
X135430504Y-103005599D01*
G37*
G36*
X135904364Y-103522680D02*
G01*
X135960585Y-103575637D01*
X135963297Y-103585090D01*
X135917701Y-103610403D01*
X135904364Y-103611079D01*
X135847696Y-103565774D01*
X135845432Y-103548668D01*
X135881536Y-103513471D01*
X135904364Y-103522680D01*
G37*
G36*
X136359104Y-98439733D02*
G01*
X136368969Y-98630092D01*
X136359104Y-98763863D01*
X136346257Y-98800424D01*
X136337370Y-98733494D01*
X136334553Y-98601798D01*
X136338208Y-98456305D01*
X136347721Y-98401776D01*
X136359104Y-98439733D01*
G37*
G36*
X136552624Y-103994141D02*
G01*
X136608845Y-104047099D01*
X136611557Y-104056552D01*
X136565961Y-104081865D01*
X136552624Y-104082540D01*
X136495956Y-104037236D01*
X136493692Y-104020130D01*
X136529796Y-103984933D01*
X136552624Y-103994141D01*
G37*
G36*
X135887966Y-98468845D02*
G01*
X135888142Y-98470255D01*
X135897766Y-98662444D01*
X135887541Y-98823851D01*
X135875261Y-98856403D01*
X135866687Y-98786283D01*
X135863693Y-98631264D01*
X135867235Y-98480027D01*
X135875952Y-98421768D01*
X135887966Y-98468845D01*
G37*
G36*
X136886277Y-98762125D02*
G01*
X136890218Y-98793329D01*
X136899754Y-99014618D01*
X136890218Y-99235325D01*
X136879677Y-99287158D01*
X136871656Y-99233431D01*
X136867440Y-99086442D01*
X136867101Y-99014327D01*
X136869661Y-98837254D01*
X136876482Y-98749087D01*
X136886277Y-98762125D01*
G37*
G36*
X138936296Y-101401102D02*
G01*
X138865878Y-101675139D01*
X138737431Y-101989384D01*
X138573506Y-102298025D01*
X138396653Y-102555250D01*
X138332068Y-102628621D01*
X138172435Y-102784161D01*
X138055858Y-102880301D01*
X137992834Y-102913732D01*
X137993860Y-102881146D01*
X138069433Y-102779234D01*
X138153582Y-102684878D01*
X138460676Y-102284623D01*
X138726702Y-101786139D01*
X138859983Y-101460035D01*
X138969767Y-101165371D01*
X138936296Y-101401102D01*
G37*
G36*
X139656687Y-102238365D02*
G01*
X139676058Y-102314559D01*
X139634386Y-102413054D01*
X139558193Y-102432424D01*
X139459698Y-102390753D01*
X139445321Y-102334203D01*
X139518904Y-102334203D01*
X139526994Y-102369239D01*
X139558193Y-102373492D01*
X139606701Y-102351929D01*
X139597481Y-102334203D01*
X139527542Y-102327150D01*
X139518904Y-102334203D01*
X139445321Y-102334203D01*
X139440327Y-102314559D01*
X139481999Y-102216064D01*
X139558193Y-102196694D01*
X139656687Y-102238365D01*
G37*
G36*
X138124437Y-103947414D02*
G01*
X138143808Y-104023608D01*
X138102136Y-104122102D01*
X138025942Y-104141473D01*
X137927447Y-104099801D01*
X137908077Y-104023608D01*
X137996476Y-104023608D01*
X138001148Y-104077913D01*
X138022464Y-104082540D01*
X138082477Y-104039761D01*
X138084875Y-104023608D01*
X138064768Y-103966207D01*
X138058887Y-103964675D01*
X138008572Y-104005971D01*
X137996476Y-104023608D01*
X137908077Y-104023608D01*
X137949748Y-103925113D01*
X138025942Y-103905742D01*
X138124437Y-103947414D01*
G37*
G36*
X137605810Y-97110872D02*
G01*
X137743054Y-97152501D01*
X137941099Y-97218049D01*
X138040675Y-97252330D01*
X138283368Y-97330377D01*
X138502656Y-97389598D01*
X138661020Y-97420204D01*
X138692413Y-97422355D01*
X138801545Y-97440155D01*
X138821534Y-97482076D01*
X138728977Y-97530449D01*
X138542219Y-97523194D01*
X138258759Y-97460744D01*
X138101068Y-97406308D01*
X137919213Y-97326788D01*
X137745830Y-97238855D01*
X137613554Y-97159180D01*
X137555021Y-97104436D01*
X137554480Y-97100980D01*
X137605810Y-97110872D01*
G37*
G36*
X138773697Y-103477637D02*
G01*
X138792067Y-103552146D01*
X138746695Y-103641494D01*
X138647087Y-103673826D01*
X138548011Y-103636973D01*
X138526870Y-103611079D01*
X138521459Y-103552146D01*
X138644736Y-103552146D01*
X138649408Y-103606452D01*
X138670724Y-103611079D01*
X138730736Y-103568299D01*
X138733135Y-103552146D01*
X138713028Y-103494745D01*
X138707146Y-103493213D01*
X138656831Y-103534510D01*
X138644736Y-103552146D01*
X138521459Y-103552146D01*
X138517900Y-103513379D01*
X138599935Y-103446521D01*
X138677680Y-103434281D01*
X138773697Y-103477637D01*
G37*
G36*
X139072920Y-102025818D02*
G01*
X139020215Y-102160976D01*
X138939334Y-102338766D01*
X138778650Y-102597935D01*
X138544983Y-102874996D01*
X138271528Y-103136677D01*
X137991482Y-103349702D01*
X137846516Y-103434151D01*
X137703629Y-103503394D01*
X137621651Y-103537442D01*
X137613413Y-103535491D01*
X137672130Y-103487779D01*
X137800229Y-103390294D01*
X137971838Y-103262679D01*
X138001013Y-103241211D01*
X138469608Y-102827218D01*
X138848681Y-102337781D01*
X138933787Y-102196607D01*
X139029521Y-102038875D01*
X139075960Y-101983532D01*
X139072920Y-102025818D01*
G37*
G36*
X139876448Y-101434141D02*
G01*
X139904029Y-101456511D01*
X139953229Y-101552014D01*
X139944750Y-101601711D01*
X139852595Y-101662618D01*
X139746577Y-101638030D01*
X139695087Y-101571952D01*
X139696077Y-101548434D01*
X139793924Y-101548434D01*
X139814031Y-101605834D01*
X139819912Y-101607366D01*
X139870227Y-101566070D01*
X139882323Y-101548434D01*
X139877650Y-101494128D01*
X139856334Y-101489501D01*
X139796322Y-101532281D01*
X139793924Y-101548434D01*
X139696077Y-101548434D01*
X139699431Y-101468732D01*
X139774674Y-101414623D01*
X139876448Y-101434141D01*
G37*
G36*
X139271955Y-102894113D02*
G01*
X139313558Y-102986754D01*
X139311407Y-103006163D01*
X139250586Y-103100170D01*
X139150717Y-103127522D01*
X139063870Y-103079192D01*
X139049261Y-103051612D01*
X139049085Y-103021752D01*
X139145664Y-103021752D01*
X139165771Y-103079152D01*
X139171652Y-103080684D01*
X139221967Y-103039388D01*
X139234063Y-103021752D01*
X139229390Y-102967446D01*
X139208074Y-102962819D01*
X139148062Y-103005599D01*
X139145664Y-103021752D01*
X139049085Y-103021752D01*
X139048582Y-102936455D01*
X139074944Y-102892100D01*
X139175247Y-102854280D01*
X139271955Y-102894113D01*
G37*
G36*
X137835827Y-95800145D02*
G01*
X137990042Y-95862134D01*
X138165961Y-95941561D01*
X138335766Y-96026497D01*
X138471639Y-96105008D01*
X138474163Y-96106656D01*
X138637321Y-96253197D01*
X138795976Y-96462076D01*
X138933166Y-96701201D01*
X139031931Y-96938480D01*
X139075306Y-97141823D01*
X139068514Y-97231136D01*
X139046092Y-97303201D01*
X139036733Y-97260037D01*
X139034635Y-97229653D01*
X138973723Y-97005971D01*
X138830744Y-96749767D01*
X138626478Y-96486089D01*
X138381710Y-96239983D01*
X138117220Y-96036495D01*
X137976867Y-95954855D01*
X137825176Y-95869325D01*
X137722370Y-95796373D01*
X137703783Y-95776216D01*
X137731135Y-95767529D01*
X137835827Y-95800145D01*
G37*
G36*
X138840336Y-98111321D02*
G01*
X138851942Y-98200929D01*
X138848071Y-98369101D01*
X138836386Y-98571954D01*
X138810036Y-98850410D01*
X138772617Y-99052162D01*
X138727965Y-99166244D01*
X138679914Y-99181685D01*
X138644017Y-99122105D01*
X138629923Y-99023421D01*
X138623484Y-98842632D01*
X138625608Y-98631264D01*
X138692463Y-98631264D01*
X138695538Y-98787817D01*
X138704173Y-98856677D01*
X138716311Y-98823851D01*
X138726567Y-98644660D01*
X138716912Y-98470255D01*
X138704866Y-98421675D01*
X138696093Y-98478596D01*
X138692468Y-98628663D01*
X138692463Y-98631264D01*
X138625608Y-98631264D01*
X138625768Y-98615315D01*
X138627352Y-98567762D01*
X138639745Y-98330905D01*
X138659471Y-98187446D01*
X138693018Y-98112920D01*
X138746879Y-98082862D01*
X138756549Y-98080783D01*
X138809717Y-98078522D01*
X138840336Y-98111321D01*
G37*
G36*
X138292249Y-98021183D02*
G01*
X138328921Y-98059717D01*
X138348117Y-98146668D01*
X138352144Y-98300631D01*
X138343307Y-98540202D01*
X138330347Y-98774887D01*
X138302556Y-99120968D01*
X138265743Y-99352312D01*
X138218964Y-99471767D01*
X138161273Y-99482184D01*
X138114143Y-99426535D01*
X138101536Y-99344417D01*
X138097977Y-99171109D01*
X138102940Y-98953342D01*
X138177177Y-98953342D01*
X138179765Y-99072641D01*
X138194257Y-99093341D01*
X138202509Y-99073260D01*
X138229761Y-98932891D01*
X138249527Y-98728158D01*
X138255799Y-98577243D01*
X138255895Y-98367392D01*
X138248314Y-98270688D01*
X138234791Y-98282787D01*
X138217060Y-98399346D01*
X138196857Y-98616021D01*
X138187142Y-98749130D01*
X138177177Y-98953342D01*
X138102940Y-98953342D01*
X138103405Y-98932934D01*
X138115808Y-98686765D01*
X138139297Y-98374413D01*
X138165207Y-98166727D01*
X138195887Y-98050506D01*
X138233685Y-98012551D01*
X138235795Y-98012471D01*
X138292249Y-98021183D01*
G37*
G36*
X137829552Y-97993418D02*
G01*
X137856290Y-98068352D01*
X137865806Y-98214068D01*
X137861917Y-98453865D01*
X137861878Y-98455100D01*
X137842122Y-98936595D01*
X137816687Y-99305078D01*
X137784974Y-99565295D01*
X137746386Y-99721990D01*
X137700326Y-99779908D01*
X137694888Y-99780452D01*
X137616844Y-99754322D01*
X137607103Y-99736253D01*
X137602665Y-99628580D01*
X137604102Y-99434299D01*
X137607186Y-99312074D01*
X137676550Y-99312074D01*
X137683726Y-99409250D01*
X137693728Y-99421945D01*
X137705820Y-99356218D01*
X137720745Y-99199817D01*
X137736166Y-98979819D01*
X137744219Y-98837529D01*
X137752362Y-98620634D01*
X137751286Y-98478642D01*
X137741583Y-98427322D01*
X137729809Y-98454466D01*
X137711077Y-98573532D01*
X137695243Y-98749431D01*
X137683450Y-98951558D01*
X137676838Y-99149308D01*
X137676550Y-99312074D01*
X137607186Y-99312074D01*
X137610406Y-99184462D01*
X137620570Y-98910127D01*
X137633586Y-98642347D01*
X137648446Y-98412177D01*
X137651179Y-98377865D01*
X137674329Y-98152277D01*
X137701826Y-98023247D01*
X137740416Y-97969490D01*
X137781778Y-97965970D01*
X137829552Y-97993418D01*
G37*
G36*
X135830709Y-92035600D02*
G01*
X136232470Y-92158842D01*
X136595783Y-92368187D01*
X136900084Y-92645712D01*
X137124809Y-92973496D01*
X137232914Y-93257622D01*
X137276193Y-93372824D01*
X137317922Y-93415719D01*
X137401815Y-93365202D01*
X137479021Y-93242250D01*
X137509479Y-93150522D01*
X137534680Y-93100502D01*
X137577418Y-93137043D01*
X137649110Y-93271182D01*
X137661858Y-93297854D01*
X137753884Y-93581595D01*
X137787698Y-93892459D01*
X137759470Y-94178113D01*
X137732737Y-94266407D01*
X137701490Y-94383563D01*
X137734824Y-94407815D01*
X137836580Y-94339590D01*
X137898982Y-94284977D01*
X137993199Y-94205481D01*
X138020639Y-94206260D01*
X138005913Y-94260330D01*
X137972267Y-94395357D01*
X137967009Y-94451692D01*
X137929829Y-94541004D01*
X137835027Y-94676070D01*
X137765773Y-94757846D01*
X137647145Y-94901943D01*
X137603404Y-95000590D01*
X137621146Y-95086416D01*
X137626490Y-95096879D01*
X137804694Y-95338596D01*
X138071534Y-95548639D01*
X138261673Y-95656035D01*
X138659882Y-95922401D01*
X138993996Y-96272362D01*
X139234697Y-96670233D01*
X139328260Y-96936941D01*
X139403166Y-97267566D01*
X139454727Y-97623983D01*
X139478255Y-97968070D01*
X139469064Y-98261705D01*
X139446720Y-98394559D01*
X139389315Y-98566945D01*
X139289651Y-98812768D01*
X139161672Y-99101860D01*
X139019320Y-99404052D01*
X138876537Y-99689177D01*
X138747266Y-99927067D01*
X138707496Y-99994071D01*
X138558456Y-100237156D01*
X138728560Y-100471977D01*
X138926181Y-100692961D01*
X139177107Y-100871094D01*
X139506885Y-101022466D01*
X139720772Y-101096829D01*
X139936899Y-101175527D01*
X140071966Y-101260814D01*
X140136017Y-101376757D01*
X140139093Y-101547424D01*
X140091238Y-101796886D01*
X140062296Y-101915326D01*
X139848963Y-102527060D01*
X139528930Y-103090832D01*
X139104292Y-103604021D01*
X138577143Y-104064007D01*
X138082285Y-104392363D01*
X137839352Y-104530689D01*
X137620117Y-104647149D01*
X137452422Y-104727421D01*
X137376460Y-104755439D01*
X137252113Y-104750785D01*
X137065267Y-104688072D01*
X136876131Y-104597891D01*
X137275747Y-104597891D01*
X137310132Y-104611143D01*
X137398370Y-104585879D01*
X137557409Y-104517560D01*
X137754937Y-104420227D01*
X137781593Y-104406261D01*
X138369625Y-104048217D01*
X138878922Y-103639565D01*
X139297792Y-103191538D01*
X139614542Y-102715370D01*
X139682766Y-102579756D01*
X139792672Y-102319940D01*
X139887042Y-102050432D01*
X139960577Y-101793426D01*
X140007978Y-101571115D01*
X140023947Y-101405693D01*
X140003186Y-101319353D01*
X139985455Y-101311898D01*
X139897784Y-101297337D01*
X139817000Y-101277740D01*
X139748833Y-101271783D01*
X139698598Y-101312567D01*
X139652713Y-101422319D01*
X139597594Y-101623263D01*
X139591798Y-101646257D01*
X139383473Y-102241043D01*
X139073104Y-102778684D01*
X138663860Y-103255162D01*
X138158913Y-103666456D01*
X137844897Y-103861539D01*
X137624972Y-103984783D01*
X137441632Y-104086220D01*
X137320554Y-104151710D01*
X137289283Y-104167516D01*
X137282527Y-104213041D01*
X137333483Y-104258846D01*
X137418553Y-104348717D01*
X137436615Y-104406670D01*
X137390856Y-104501818D01*
X137333483Y-104549282D01*
X137275747Y-104597891D01*
X136876131Y-104597891D01*
X136800853Y-104561998D01*
X136748005Y-104534358D01*
X136543808Y-104410732D01*
X137092217Y-104410732D01*
X137102810Y-104461642D01*
X137150001Y-104546589D01*
X137177404Y-104519038D01*
X137179309Y-104436137D01*
X137259817Y-104436137D01*
X137279924Y-104493537D01*
X137285805Y-104495069D01*
X137336120Y-104453773D01*
X137348216Y-104436137D01*
X137343543Y-104381831D01*
X137322228Y-104377204D01*
X137262215Y-104419984D01*
X137259817Y-104436137D01*
X137179309Y-104436137D01*
X137179917Y-104409677D01*
X137156920Y-104317908D01*
X137119393Y-104317317D01*
X137092217Y-104410732D01*
X136543808Y-104410732D01*
X136111509Y-104149007D01*
X135956545Y-104023608D01*
X136434759Y-104023608D01*
X136476431Y-104122102D01*
X136552624Y-104141473D01*
X136651119Y-104099801D01*
X136670490Y-104023608D01*
X136628818Y-103925113D01*
X136552624Y-103905742D01*
X136454130Y-103947414D01*
X136434759Y-104023608D01*
X135956545Y-104023608D01*
X135701649Y-103817343D01*
X136965153Y-103817343D01*
X136994620Y-103846810D01*
X137024086Y-103817343D01*
X136994620Y-103787877D01*
X136965153Y-103817343D01*
X135701649Y-103817343D01*
X135581297Y-103719953D01*
X135430586Y-103552146D01*
X135786499Y-103552146D01*
X135813417Y-103646657D01*
X135913545Y-103660136D01*
X135919098Y-103659377D01*
X136022769Y-103611210D01*
X136051696Y-103552146D01*
X136001531Y-103475907D01*
X135919098Y-103444915D01*
X135815665Y-103455817D01*
X135786530Y-103546871D01*
X135786499Y-103552146D01*
X135430586Y-103552146D01*
X135152392Y-103242396D01*
X134995776Y-102992402D01*
X135265431Y-102992402D01*
X135305265Y-103089110D01*
X135397905Y-103130713D01*
X135417315Y-103128563D01*
X135515669Y-103060604D01*
X135539714Y-103006163D01*
X135512754Y-102906955D01*
X135421844Y-102856287D01*
X135318496Y-102879007D01*
X135303251Y-102892100D01*
X135265431Y-102992402D01*
X134995776Y-102992402D01*
X134819816Y-102711530D01*
X134783560Y-102638689D01*
X134665170Y-102362026D01*
X134662198Y-102353326D01*
X134864072Y-102353326D01*
X134946106Y-102420184D01*
X135023852Y-102432424D01*
X135119868Y-102389068D01*
X135138239Y-102314559D01*
X135092866Y-102225211D01*
X134993259Y-102192879D01*
X134894183Y-102229732D01*
X134873042Y-102255626D01*
X134864072Y-102353326D01*
X134662198Y-102353326D01*
X134564131Y-102066225D01*
X134487548Y-101779702D01*
X134446351Y-101552014D01*
X134625338Y-101552014D01*
X134633816Y-101601711D01*
X134725971Y-101662618D01*
X134831990Y-101638030D01*
X134883479Y-101571952D01*
X134882721Y-101553941D01*
X135083612Y-101553941D01*
X135103733Y-101686155D01*
X135163175Y-101888122D01*
X135248811Y-102124044D01*
X135347514Y-102358122D01*
X135446157Y-102554556D01*
X135458047Y-102575047D01*
X135649791Y-102836785D01*
X135917564Y-103117924D01*
X136230386Y-103388450D01*
X136492348Y-103577117D01*
X136654079Y-103675958D01*
X136788960Y-103747130D01*
X136880203Y-103784745D01*
X136911021Y-103782915D01*
X136864626Y-103735755D01*
X136790428Y-103681653D01*
X136330412Y-103343022D01*
X136102580Y-103141547D01*
X137269270Y-103141547D01*
X137269702Y-103465427D01*
X137275297Y-103696909D01*
X137286677Y-103848693D01*
X137304466Y-103933480D01*
X137329287Y-103963972D01*
X137334774Y-103964675D01*
X137416349Y-103935245D01*
X137570556Y-103856357D01*
X137770770Y-103742111D01*
X137881074Y-103675356D01*
X138405159Y-103300714D01*
X138823187Y-102885696D01*
X139142829Y-102420894D01*
X139371752Y-101896898D01*
X139398428Y-101813631D01*
X139477839Y-101548615D01*
X139520863Y-101373065D01*
X139526708Y-101264085D01*
X139494581Y-101198777D01*
X139423687Y-101154246D01*
X139374853Y-101133195D01*
X139198957Y-101046532D01*
X139013844Y-100936208D01*
X138997653Y-100925374D01*
X138802576Y-100792992D01*
X138664723Y-100940815D01*
X138439098Y-101121169D01*
X138139082Y-101275813D01*
X137808010Y-101384834D01*
X137625196Y-101418535D01*
X137289283Y-101460459D01*
X137273378Y-102712567D01*
X137269270Y-103141547D01*
X136102580Y-103141547D01*
X135964826Y-103019729D01*
X135733961Y-102756554D01*
X136808558Y-102756554D01*
X136810797Y-102943023D01*
X136817117Y-103043177D01*
X136826362Y-103044152D01*
X136831193Y-103008576D01*
X136840732Y-102799358D01*
X136837013Y-102668155D01*
X137046372Y-102668155D01*
X137047933Y-102897434D01*
X137052198Y-103040170D01*
X137058545Y-103086430D01*
X137066350Y-103026283D01*
X137067637Y-103007018D01*
X137076098Y-102737242D01*
X137072993Y-102445414D01*
X137067637Y-102329292D01*
X137059663Y-102251948D01*
X137053052Y-102282536D01*
X137048427Y-102411121D01*
X137046411Y-102627773D01*
X137046372Y-102668155D01*
X136837013Y-102668155D01*
X136834246Y-102570546D01*
X136831582Y-102537114D01*
X136821548Y-102474590D01*
X136813703Y-102518955D01*
X136809196Y-102659239D01*
X136808558Y-102756554D01*
X135733961Y-102756554D01*
X135676052Y-102690541D01*
X135509740Y-102432424D01*
X136513505Y-102432424D01*
X136516065Y-102609498D01*
X136522885Y-102697664D01*
X136532681Y-102684626D01*
X136536622Y-102653422D01*
X136546158Y-102432134D01*
X136536622Y-102211427D01*
X136526081Y-102159593D01*
X136518060Y-102213320D01*
X136513844Y-102360310D01*
X136513505Y-102432424D01*
X135509740Y-102432424D01*
X135446469Y-102334227D01*
X135258459Y-101929554D01*
X135193908Y-101757720D01*
X135136012Y-101611993D01*
X135095754Y-101542602D01*
X135083612Y-101553941D01*
X134882721Y-101553941D01*
X134879136Y-101468732D01*
X134803892Y-101414623D01*
X134702118Y-101434141D01*
X134674537Y-101456511D01*
X134625338Y-101552014D01*
X134446351Y-101552014D01*
X134442526Y-101530874D01*
X134436169Y-101348157D01*
X134447697Y-101295382D01*
X134519394Y-101232095D01*
X134670065Y-101159830D01*
X134824954Y-101107114D01*
X135240921Y-100952260D01*
X135275045Y-100932073D01*
X135879082Y-100932073D01*
X135884651Y-100953567D01*
X135954886Y-101034208D01*
X135963297Y-101043495D01*
X136216951Y-101253361D01*
X136526765Y-101405741D01*
X136844599Y-101478286D01*
X136906221Y-101481266D01*
X136939013Y-101467839D01*
X136869476Y-101429587D01*
X136724056Y-101377742D01*
X136604578Y-101330034D01*
X137251669Y-101330034D01*
X137571781Y-101296995D01*
X137824062Y-101247171D01*
X138086469Y-101160102D01*
X138179915Y-101117901D01*
X138368004Y-101009137D01*
X138527583Y-100894086D01*
X138585803Y-100839642D01*
X138633470Y-100778029D01*
X138605398Y-100780795D01*
X138493516Y-100850567D01*
X138438471Y-100887628D01*
X138258949Y-100997848D01*
X138094190Y-101079786D01*
X138025942Y-101103738D01*
X137961001Y-101111695D01*
X137998035Y-101077135D01*
X138095789Y-101020467D01*
X138241636Y-100930690D01*
X138339680Y-100852601D01*
X138353509Y-100835679D01*
X138342008Y-100815102D01*
X138258269Y-100855901D01*
X138254196Y-100858458D01*
X138089862Y-100941420D01*
X137967009Y-100984313D01*
X137903720Y-100992269D01*
X137944164Y-100956214D01*
X138036857Y-100902601D01*
X138179697Y-100814833D01*
X138270251Y-100742730D01*
X138297518Y-100700910D01*
X138250497Y-100703990D01*
X138153221Y-100747974D01*
X138001476Y-100818873D01*
X137929573Y-100837738D01*
X137947064Y-100806227D01*
X138055408Y-100730996D01*
X138222820Y-100606055D01*
X138378527Y-100458883D01*
X138379538Y-100457764D01*
X138446492Y-100379132D01*
X138443352Y-100365510D01*
X138362012Y-100419869D01*
X138244563Y-100507225D01*
X137951081Y-100689885D01*
X137626647Y-100806593D01*
X137407149Y-100851991D01*
X137323060Y-100897098D01*
X137280483Y-101015437D01*
X137270476Y-101100861D01*
X137251669Y-101330034D01*
X136604578Y-101330034D01*
X136475486Y-101278487D01*
X136216345Y-101145461D01*
X136105262Y-101076638D01*
X135949010Y-100972254D01*
X135879082Y-100932073D01*
X135275045Y-100932073D01*
X135578176Y-100752747D01*
X135813968Y-100524968D01*
X135860893Y-100451814D01*
X136166528Y-100451814D01*
X136178413Y-100491612D01*
X136287855Y-100584642D01*
X136307322Y-100598695D01*
X136580467Y-100758738D01*
X136834537Y-100828145D01*
X136935687Y-100833563D01*
X137032254Y-100830123D01*
X137034533Y-100814462D01*
X136934639Y-100778074D01*
X136863366Y-100755514D01*
X136645080Y-100672363D01*
X136430183Y-100568453D01*
X136399210Y-100550797D01*
X136326552Y-100513167D01*
X137259817Y-100513167D01*
X137277421Y-100636583D01*
X137303076Y-100688058D01*
X137399902Y-100712002D01*
X137566671Y-100688160D01*
X137769697Y-100624903D01*
X137975293Y-100530599D01*
X138005639Y-100513501D01*
X138201397Y-100371811D01*
X138384425Y-100195819D01*
X138423012Y-100149562D01*
X138568822Y-99956640D01*
X138640077Y-99846416D01*
X138639195Y-99812327D01*
X138568597Y-99847814D01*
X138522778Y-99879032D01*
X138062514Y-100139825D01*
X137569214Y-100308724D01*
X137385756Y-100359795D01*
X137292042Y-100413224D01*
X137260978Y-100486915D01*
X137259817Y-100513167D01*
X136326552Y-100513167D01*
X136243145Y-100469970D01*
X136166528Y-100451814D01*
X135860893Y-100451814D01*
X135925209Y-100351547D01*
X135953574Y-100203859D01*
X135900025Y-100038997D01*
X135827675Y-99911880D01*
X135744258Y-99764499D01*
X135895037Y-99764499D01*
X135915558Y-99795759D01*
X136011868Y-99892714D01*
X136037402Y-99917117D01*
X136349736Y-100156487D01*
X136681894Y-100309134D01*
X136994620Y-100361958D01*
X137071481Y-100356177D01*
X137053729Y-100333119D01*
X136933484Y-100287269D01*
X136847288Y-100258844D01*
X136480271Y-100122309D01*
X136181756Y-99965606D01*
X135955629Y-99806156D01*
X135895037Y-99764499D01*
X135744258Y-99764499D01*
X135700981Y-99688038D01*
X135557771Y-99406266D01*
X135413772Y-99100771D01*
X135284709Y-98805759D01*
X135186309Y-98555436D01*
X135143991Y-98424742D01*
X135113184Y-98208467D01*
X135726849Y-98208467D01*
X135729875Y-98383373D01*
X135738115Y-98553998D01*
X135755480Y-98790946D01*
X135778854Y-98986550D01*
X135803983Y-99107668D01*
X135811395Y-99124797D01*
X135872871Y-99178785D01*
X135918454Y-99123401D01*
X135946113Y-98966319D01*
X135953816Y-98715213D01*
X135951097Y-98596970D01*
X135942111Y-98409424D01*
X136242302Y-98409424D01*
X136249209Y-98696103D01*
X136249997Y-98721123D01*
X136260688Y-98993062D01*
X136273484Y-99220891D01*
X136286708Y-99379257D01*
X136297674Y-99441589D01*
X136374161Y-99483957D01*
X136459194Y-99433741D01*
X136467484Y-99421584D01*
X136479761Y-99340020D01*
X136483060Y-99167171D01*
X136477471Y-98929265D01*
X136464950Y-98681761D01*
X136444560Y-98388575D01*
X136424395Y-98194763D01*
X136400546Y-98081908D01*
X136394953Y-98072958D01*
X136702962Y-98072958D01*
X136704192Y-98239619D01*
X136712462Y-98471744D01*
X136726171Y-98743354D01*
X136743718Y-99028471D01*
X136763505Y-99301117D01*
X136783929Y-99535314D01*
X136803392Y-99705083D01*
X136820294Y-99784447D01*
X136820443Y-99784694D01*
X136887657Y-99809998D01*
X136936144Y-99780073D01*
X136977857Y-99704249D01*
X136995331Y-99554248D01*
X136990501Y-99310646D01*
X136987780Y-99261550D01*
X136961320Y-98830282D01*
X136958617Y-98791935D01*
X137259817Y-98791935D01*
X137261232Y-99183758D01*
X137265204Y-99535366D01*
X137271320Y-99829914D01*
X137279170Y-100050558D01*
X137288342Y-100180453D01*
X137294407Y-100207927D01*
X137369811Y-100212974D01*
X137522309Y-100181734D01*
X137720376Y-100123674D01*
X137932486Y-100048265D01*
X138127112Y-99964977D01*
X138164152Y-99946689D01*
X138497790Y-99717419D01*
X138801598Y-99394538D01*
X139058287Y-99001630D01*
X139250570Y-98562282D01*
X139301166Y-98395533D01*
X139354792Y-98190073D01*
X139373389Y-98053308D01*
X139340518Y-97968344D01*
X139239740Y-97918287D01*
X139054619Y-97886240D01*
X138776309Y-97856109D01*
X138461298Y-97815448D01*
X138185188Y-97759134D01*
X137909477Y-97676144D01*
X137595664Y-97555452D01*
X137333483Y-97442974D01*
X137309206Y-97456377D01*
X137290550Y-97528046D01*
X137276906Y-97669116D01*
X137267666Y-97890725D01*
X137262222Y-98204008D01*
X137259966Y-98620102D01*
X137259817Y-98791935D01*
X136958617Y-98791935D01*
X136938258Y-98503164D01*
X136916810Y-98266594D01*
X136895194Y-98106969D01*
X136871625Y-98010688D01*
X136844320Y-97964149D01*
X136816271Y-97953538D01*
X136725572Y-97981477D01*
X136710371Y-97997738D01*
X136702962Y-98072958D01*
X136394953Y-98072958D01*
X136369102Y-98031591D01*
X136326153Y-98025394D01*
X136325615Y-98025500D01*
X136283803Y-98047018D01*
X136257428Y-98104860D01*
X136244318Y-98219002D01*
X136242302Y-98409424D01*
X135942111Y-98409424D01*
X135939341Y-98351604D01*
X135921109Y-98200389D01*
X135890516Y-98119610D01*
X135841673Y-98085556D01*
X135823004Y-98080985D01*
X135769453Y-98079345D01*
X135738722Y-98114481D01*
X135726849Y-98208467D01*
X135113184Y-98208467D01*
X135105923Y-98157489D01*
X135107407Y-97819348D01*
X135117663Y-97715622D01*
X135521302Y-97715622D01*
X135958510Y-97682699D01*
X136228598Y-97649223D01*
X136501254Y-97594414D01*
X136698695Y-97536420D01*
X136883712Y-97467252D01*
X137020014Y-97406137D01*
X137115180Y-97334806D01*
X137176790Y-97234993D01*
X137212422Y-97088430D01*
X137229657Y-96876850D01*
X137236073Y-96581985D01*
X137238825Y-96234624D01*
X137239103Y-96160984D01*
X137377682Y-96160984D01*
X137377682Y-97283574D01*
X137605041Y-97411357D01*
X137989201Y-97574908D01*
X138438042Y-97679198D01*
X138861762Y-97713929D01*
X139078714Y-97711078D01*
X139205362Y-97692807D01*
X139268935Y-97652551D01*
X139289555Y-97610783D01*
X139300093Y-97460247D01*
X139271868Y-97241591D01*
X139213376Y-96994671D01*
X139133112Y-96759344D01*
X139085898Y-96655385D01*
X138834713Y-96279896D01*
X138506933Y-95970133D01*
X138224348Y-95796068D01*
X137961236Y-95631173D01*
X137707714Y-95411064D01*
X137640293Y-95338596D01*
X137377682Y-95038393D01*
X137377682Y-96160984D01*
X137239103Y-96160984D01*
X137240205Y-95869596D01*
X137237220Y-95619781D01*
X137229730Y-95482601D01*
X137217592Y-95455480D01*
X137200665Y-95535840D01*
X137200454Y-95537297D01*
X137174640Y-95774302D01*
X137155317Y-96059536D01*
X137147780Y-96280464D01*
X137138936Y-96542864D01*
X137121788Y-96804338D01*
X137103474Y-96980223D01*
X137071412Y-97153869D01*
X137014129Y-97256734D01*
X136897972Y-97332985D01*
X136800386Y-97377995D01*
X136615414Y-97446263D01*
X136362571Y-97522174D01*
X136089822Y-97591599D01*
X136028538Y-97605333D01*
X135521302Y-97715622D01*
X135117663Y-97715622D01*
X135143669Y-97452610D01*
X135376423Y-97452610D01*
X135433258Y-97231372D01*
X135495756Y-97043755D01*
X135588401Y-96823937D01*
X135633861Y-96730444D01*
X135909705Y-96317320D01*
X136283976Y-95963964D01*
X136287427Y-95961323D01*
X136464225Y-95826249D01*
X136273489Y-95918606D01*
X135942872Y-96138697D01*
X135674586Y-96437004D01*
X135486861Y-96787292D01*
X135397926Y-97163326D01*
X135396519Y-97180708D01*
X135376423Y-97452610D01*
X135143669Y-97452610D01*
X135144046Y-97448793D01*
X135211442Y-97084300D01*
X135305197Y-96764346D01*
X135344939Y-96666619D01*
X135539431Y-96335248D01*
X135802483Y-96029280D01*
X136101620Y-95782288D01*
X136317077Y-95661587D01*
X136607447Y-95487020D01*
X136847420Y-95253886D01*
X136952101Y-95097122D01*
X136964456Y-95038393D01*
X136980659Y-94961370D01*
X136933535Y-94825943D01*
X136762818Y-94614604D01*
X136525691Y-94484312D01*
X136247818Y-94442532D01*
X135954863Y-94496729D01*
X135890365Y-94522527D01*
X135634130Y-94688176D01*
X135457314Y-94928106D01*
X135353829Y-95252220D01*
X135328865Y-95435647D01*
X135309452Y-95632515D01*
X135292355Y-95725855D01*
X135269574Y-95729555D01*
X135233109Y-95657500D01*
X135219381Y-95625696D01*
X135160181Y-95395415D01*
X135143833Y-95117334D01*
X135169542Y-94844771D01*
X135192514Y-94770399D01*
X135357646Y-94770399D01*
X135420776Y-94721703D01*
X135501376Y-94640907D01*
X135656038Y-94498608D01*
X135810565Y-94389650D01*
X135868758Y-94360977D01*
X136183365Y-94302372D01*
X136517925Y-94350151D01*
X136753765Y-94447326D01*
X136899028Y-94518005D01*
X136984275Y-94546397D01*
X136994275Y-94534883D01*
X136978921Y-94521737D01*
X137504855Y-94521737D01*
X137534255Y-94494573D01*
X137547359Y-94476508D01*
X137595588Y-94368998D01*
X137647423Y-94195081D01*
X137670780Y-94093445D01*
X137699355Y-93860556D01*
X137690360Y-93660219D01*
X137681908Y-93621984D01*
X137655976Y-93549547D01*
X137636494Y-93557875D01*
X137619777Y-93658966D01*
X137602145Y-93864818D01*
X137600512Y-93887181D01*
X137579339Y-94119437D01*
X137553564Y-94317348D01*
X137528467Y-94441009D01*
X137526454Y-94447042D01*
X137504855Y-94521737D01*
X136978921Y-94521737D01*
X136922565Y-94473486D01*
X136784950Y-94388642D01*
X136715320Y-94351448D01*
X136428374Y-94257164D01*
X136124086Y-94243522D01*
X135839277Y-94307231D01*
X135610767Y-94444996D01*
X135604569Y-94450806D01*
X135473060Y-94589343D01*
X135373890Y-94716918D01*
X135358948Y-94741705D01*
X135357646Y-94770399D01*
X135192514Y-94770399D01*
X135234136Y-94635646D01*
X135330033Y-94447042D01*
X135167690Y-94594373D01*
X135032193Y-94747355D01*
X134929037Y-94913483D01*
X134926768Y-94918503D01*
X134873306Y-95032640D01*
X134851554Y-95044146D01*
X134846391Y-94958554D01*
X134846245Y-94947970D01*
X134872503Y-94787920D01*
X134932338Y-94631836D01*
X134993276Y-94505752D01*
X135020296Y-94431567D01*
X135020374Y-94430032D01*
X134990051Y-94426398D01*
X134914435Y-94492679D01*
X134816553Y-94602750D01*
X134719432Y-94730481D01*
X134646101Y-94849745D01*
X134640631Y-94860897D01*
X134577616Y-95081515D01*
X134552510Y-95367058D01*
X134565557Y-95670765D01*
X134617000Y-95945877D01*
X134634697Y-96001349D01*
X134681393Y-96147709D01*
X134699487Y-96234352D01*
X134696114Y-96244489D01*
X134655401Y-96198178D01*
X134576795Y-96079142D01*
X134512679Y-95973063D01*
X134397702Y-95696935D01*
X134331546Y-95369523D01*
X134318201Y-95035542D01*
X134334519Y-94924452D01*
X134395330Y-94924452D01*
X134436219Y-94876766D01*
X134521084Y-94721876D01*
X134739386Y-94405118D01*
X134954518Y-94207770D01*
X135177198Y-94067381D01*
X135433667Y-93937520D01*
X135550768Y-93889429D01*
X135709130Y-93828105D01*
X135758079Y-93799521D01*
X135700764Y-93801466D01*
X135668634Y-93806736D01*
X135449260Y-93871644D01*
X135191567Y-93985452D01*
X134948494Y-94122470D01*
X134808873Y-94223947D01*
X134626649Y-94421993D01*
X134477011Y-94660227D01*
X134399326Y-94863165D01*
X134395330Y-94924452D01*
X134334519Y-94924452D01*
X134361654Y-94739713D01*
X134394279Y-94645687D01*
X134603370Y-94298453D01*
X134908253Y-93995446D01*
X135074953Y-93877274D01*
X135232835Y-93771246D01*
X135287896Y-93720279D01*
X135242159Y-93725580D01*
X135097646Y-93788357D01*
X135003293Y-93834496D01*
X134696462Y-94032632D01*
X134416917Y-94293858D01*
X134205654Y-94578822D01*
X134181006Y-94623840D01*
X134072965Y-94934407D01*
X134027583Y-95299989D01*
X134046593Y-95674706D01*
X134128856Y-96005246D01*
X134191017Y-96180799D01*
X134226206Y-96306473D01*
X134228579Y-96348736D01*
X134188968Y-96317337D01*
X134114777Y-96210129D01*
X134023552Y-96057016D01*
X133932837Y-95887903D01*
X133860176Y-95732695D01*
X133845352Y-95695525D01*
X133781123Y-95386423D01*
X133789008Y-95029177D01*
X133862273Y-94663254D01*
X133994184Y-94328119D01*
X134110318Y-94142680D01*
X134184185Y-94031973D01*
X134198359Y-93978382D01*
X134182828Y-93979035D01*
X134081233Y-94060096D01*
X133950835Y-94217534D01*
X133812525Y-94420852D01*
X133687196Y-94639551D01*
X133601523Y-94827587D01*
X133513387Y-95181415D01*
X133483801Y-95596395D01*
X133511982Y-96031836D01*
X133597143Y-96447049D01*
X133635022Y-96565384D01*
X133702734Y-96765132D01*
X133748584Y-96915784D01*
X133763927Y-96988612D01*
X133763104Y-96991009D01*
X133718468Y-96965813D01*
X133644188Y-96854961D01*
X133552160Y-96683097D01*
X133454279Y-96474866D01*
X133362442Y-96254915D01*
X133288543Y-96047889D01*
X133259815Y-95948303D01*
X133147746Y-95507830D01*
X133126403Y-95920359D01*
X133105060Y-96332888D01*
X133024733Y-95982064D01*
X132984310Y-95562060D01*
X133037385Y-95109477D01*
X133150149Y-94725949D01*
X133319734Y-94725949D01*
X133328627Y-94740375D01*
X133389096Y-94652371D01*
X133498905Y-94459166D01*
X133504427Y-94448962D01*
X133652425Y-94214860D01*
X133843213Y-93965165D01*
X133999034Y-93792000D01*
X134407447Y-93462074D01*
X134698875Y-93312226D01*
X135462369Y-93312226D01*
X135795966Y-93361196D01*
X136237997Y-93473472D01*
X136617520Y-93666797D01*
X136849168Y-93859654D01*
X136989409Y-93999650D01*
X137058704Y-94054674D01*
X137063940Y-94028263D01*
X137026558Y-93950733D01*
X136857158Y-93740597D01*
X136603086Y-93554974D01*
X136297259Y-93410281D01*
X135972591Y-93322931D01*
X135731801Y-93305040D01*
X135462369Y-93312226D01*
X134698875Y-93312226D01*
X134876395Y-93220948D01*
X135378667Y-93082047D01*
X135462369Y-93069946D01*
X135670829Y-93043082D01*
X135769035Y-93026967D01*
X135763730Y-93018088D01*
X135661660Y-93012932D01*
X135576198Y-93010645D01*
X135109464Y-93056187D01*
X134660037Y-93209742D01*
X134242839Y-93461482D01*
X133872790Y-93801578D01*
X133564810Y-94220203D01*
X133465620Y-94400883D01*
X133364653Y-94611862D01*
X133319734Y-94725949D01*
X133150149Y-94725949D01*
X133173356Y-94647019D01*
X133381623Y-94197387D01*
X133651585Y-93783283D01*
X133972643Y-93427411D01*
X134334194Y-93152473D01*
X134350492Y-93142809D01*
X134497091Y-93053086D01*
X134590292Y-92988719D01*
X134607845Y-92970738D01*
X134558631Y-92975071D01*
X134434990Y-93011191D01*
X134375079Y-93031610D01*
X133966394Y-93218202D01*
X133636850Y-93467953D01*
X133374242Y-93794592D01*
X133166365Y-94211850D01*
X133064484Y-94505974D01*
X132956874Y-94859571D01*
X132977947Y-94447042D01*
X133058158Y-93987939D01*
X133242143Y-93550025D01*
X133515810Y-93154778D01*
X133865066Y-92823674D01*
X133957626Y-92764730D01*
X134108604Y-92764730D01*
X134139589Y-92775947D01*
X134251352Y-92750785D01*
X134291352Y-92737993D01*
X136081163Y-92737993D01*
X136110629Y-92767459D01*
X136140095Y-92737993D01*
X136110629Y-92708527D01*
X136081163Y-92737993D01*
X134291352Y-92737993D01*
X134328447Y-92726130D01*
X134532600Y-92675669D01*
X134783863Y-92639985D01*
X134931514Y-92630233D01*
X135196063Y-92631980D01*
X135494488Y-92647331D01*
X135668634Y-92662995D01*
X135863416Y-92681922D01*
X135952078Y-92681849D01*
X135944969Y-92661865D01*
X135904364Y-92642221D01*
X135698866Y-92586435D01*
X135418132Y-92552877D01*
X135102810Y-92542250D01*
X134793550Y-92555253D01*
X134530997Y-92592589D01*
X134440574Y-92616963D01*
X134266401Y-92681256D01*
X134143626Y-92738581D01*
X134108604Y-92764730D01*
X133957626Y-92764730D01*
X134170827Y-92628959D01*
X134326172Y-92543880D01*
X134384239Y-92497139D01*
X134354934Y-92478035D01*
X134312792Y-92475540D01*
X134151470Y-92490250D01*
X133967215Y-92529549D01*
X133963099Y-92530721D01*
X133801198Y-92568944D01*
X133743628Y-92562882D01*
X133787198Y-92516533D01*
X133928715Y-92433894D01*
X134112850Y-92343147D01*
X134551314Y-92192473D01*
X134989948Y-92145739D01*
X135408546Y-92203772D01*
X135624434Y-92281328D01*
X135804891Y-92349532D01*
X135889985Y-92350271D01*
X135885567Y-92325464D01*
X136347821Y-92325464D01*
X136591323Y-92620127D01*
X136800992Y-92908089D01*
X136984841Y-93223683D01*
X137119733Y-93524503D01*
X137165855Y-93673137D01*
X137203537Y-93782100D01*
X137237964Y-93810763D01*
X137238671Y-93810106D01*
X137241089Y-93740619D01*
X137213751Y-93594893D01*
X137178513Y-93460870D01*
X137004022Y-93044917D01*
X136745551Y-92679620D01*
X136553355Y-92494282D01*
X136347821Y-92325464D01*
X135885567Y-92325464D01*
X135878354Y-92284959D01*
X135768642Y-92155010D01*
X135757043Y-92143318D01*
X135609721Y-91995997D01*
X135830709Y-92035600D01*
G37*
D10*
X100965000Y-72390000D02*
X114935000Y-72390000D01*
X100965000Y-86360000D02*
X100965000Y-72390000D01*
X114935000Y-72390000D02*
X114935000Y-86360000D01*
X114935000Y-86360000D02*
X100965000Y-86360000D01*
X220027500Y-34290000D02*
X233997500Y-34290000D01*
X220027500Y-48260000D02*
X220027500Y-34290000D01*
X233997500Y-34290000D02*
X233997500Y-48260000D01*
X233997500Y-48260000D02*
X220027500Y-48260000D01*
X110490000Y-53340000D02*
X124460000Y-53340000D01*
X110490000Y-67310000D02*
X110490000Y-53340000D01*
X124460000Y-53340000D02*
X124460000Y-67310000D01*
X124460000Y-67310000D02*
X110490000Y-67310000D01*
X77152500Y-15240000D02*
X91122500Y-15240000D01*
X77152500Y-29210000D02*
X77152500Y-15240000D01*
X91122500Y-15240000D02*
X91122500Y-29210000D01*
X91122500Y-29210000D02*
X77152500Y-29210000D01*
X36671250Y-72390000D02*
X50641250Y-72390000D01*
X36671250Y-86360000D02*
X36671250Y-72390000D01*
X50641250Y-72390000D02*
X50641250Y-86360000D01*
X50641250Y-86360000D02*
X36671250Y-86360000D01*
X139065000Y-72390000D02*
X153035000Y-72390000D01*
X139065000Y-86360000D02*
X139065000Y-72390000D01*
X153035000Y-72390000D02*
X153035000Y-86360000D01*
X153035000Y-86360000D02*
X139065000Y-86360000D01*
X124777500Y-34290000D02*
X138747500Y-34290000D01*
X124777500Y-48260000D02*
X124777500Y-34290000D01*
X138747500Y-34290000D02*
X138747500Y-48260000D01*
X138747500Y-48260000D02*
X124777500Y-48260000D01*
X96202500Y-15240000D02*
X110172500Y-15240000D01*
X96202500Y-29210000D02*
X96202500Y-15240000D01*
X110172500Y-15240000D02*
X110172500Y-29210000D01*
X110172500Y-29210000D02*
X96202500Y-29210000D01*
X186690000Y-53340000D02*
X200660000Y-53340000D01*
X186690000Y-67310000D02*
X186690000Y-53340000D01*
X200660000Y-53340000D02*
X200660000Y-67310000D01*
X200660000Y-67310000D02*
X186690000Y-67310000D01*
X48577500Y-34290000D02*
X62547500Y-34290000D01*
X48577500Y-48260000D02*
X48577500Y-34290000D01*
X62547500Y-34290000D02*
X62547500Y-48260000D01*
X62547500Y-48260000D02*
X48577500Y-48260000D01*
X39052500Y-15240000D02*
X53022500Y-15240000D01*
X39052500Y-29210000D02*
X39052500Y-15240000D01*
X53022500Y-15240000D02*
X53022500Y-29210000D01*
X53022500Y-29210000D02*
X39052500Y-29210000D01*
X196215000Y-72390000D02*
X196215000Y-86360000D01*
X196215000Y-86360000D02*
X210185000Y-86360000D01*
X210185000Y-72390000D02*
X196215000Y-72390000D01*
X210185000Y-86360000D02*
X210185000Y-72390000D01*
X67627500Y-34290000D02*
X81597500Y-34290000D01*
X67627500Y-48260000D02*
X67627500Y-34290000D01*
X81597500Y-34290000D02*
X81597500Y-48260000D01*
X81597500Y-48260000D02*
X67627500Y-48260000D01*
X105727500Y-34290000D02*
X119697500Y-34290000D01*
X105727500Y-48260000D02*
X105727500Y-34290000D01*
X119697500Y-34290000D02*
X119697500Y-48260000D01*
X119697500Y-48260000D02*
X105727500Y-48260000D01*
X246221250Y-34290000D02*
X260191250Y-34290000D01*
X246221250Y-48260000D02*
X246221250Y-34290000D01*
X260191250Y-34290000D02*
X260191250Y-48260000D01*
X260191250Y-48260000D02*
X246221250Y-48260000D01*
X215265000Y-72390000D02*
X215265000Y-86360000D01*
X215265000Y-86360000D02*
X229235000Y-86360000D01*
X229235000Y-72390000D02*
X215265000Y-72390000D01*
X229235000Y-86360000D02*
X229235000Y-72390000D01*
X143827500Y-34290000D02*
X157797500Y-34290000D01*
X143827500Y-48260000D02*
X143827500Y-34290000D01*
X157797500Y-34290000D02*
X157797500Y-48260000D01*
X157797500Y-48260000D02*
X143827500Y-48260000D01*
X115252500Y-15240000D02*
X129222500Y-15240000D01*
X115252500Y-29210000D02*
X115252500Y-15240000D01*
X129222500Y-15240000D02*
X129222500Y-29210000D01*
X129222500Y-29210000D02*
X115252500Y-29210000D01*
X120015000Y-86360000D02*
X120015000Y-72390000D01*
X133985000Y-72390000D02*
X120015000Y-72390000D01*
X133985000Y-72390000D02*
X133985000Y-86360000D01*
X133985000Y-86360000D02*
X120015000Y-86360000D01*
X234315000Y-91440000D02*
X248285000Y-91440000D01*
X234315000Y-105410000D02*
X234315000Y-91440000D01*
X248285000Y-91440000D02*
X248285000Y-105410000D01*
X248285000Y-105410000D02*
X234315000Y-105410000D01*
X134302500Y-15240000D02*
X148272500Y-15240000D01*
X134302500Y-29210000D02*
X134302500Y-15240000D01*
X148272500Y-15240000D02*
X148272500Y-29210000D01*
X148272500Y-29210000D02*
X134302500Y-29210000D01*
X234315000Y-72390000D02*
X248285000Y-72390000D01*
X234315000Y-86360000D02*
X234315000Y-72390000D01*
X248285000Y-72390000D02*
X248285000Y-86360000D01*
X248285000Y-86360000D02*
X234315000Y-86360000D01*
X215265000Y-91440000D02*
X229235000Y-91440000D01*
X215265000Y-105410000D02*
X215265000Y-91440000D01*
X229235000Y-91440000D02*
X229235000Y-105410000D01*
X229235000Y-105410000D02*
X215265000Y-105410000D01*
D16*
X160496250Y-91440000D02*
X160556250Y-91440000D01*
X161756250Y-91440000D02*
X161816250Y-91440000D01*
X163016250Y-91440000D02*
X163076250Y-91440000D01*
X164276250Y-91440000D02*
X164336250Y-91440000D01*
X165536250Y-91440000D02*
X165596250Y-91440000D01*
X166796250Y-91440000D02*
X166856250Y-91440000D01*
X168056250Y-91440000D02*
X168116250Y-91440000D01*
X169316250Y-91440000D02*
X169376250Y-91440000D01*
X170576250Y-91440000D02*
X170636250Y-91440000D01*
X171836250Y-91440000D02*
X171896250Y-91440000D01*
X173096250Y-91440000D02*
X173156250Y-91440000D01*
X174356250Y-91440000D02*
X174416250Y-91440000D01*
X160496250Y-105410000D02*
X160496250Y-105350000D01*
X160496250Y-104150000D02*
X160496250Y-104090000D01*
X160496250Y-102890000D02*
X160496250Y-102830000D01*
X160496250Y-101630000D02*
X160496250Y-101570000D01*
X160496250Y-100370000D02*
X160496250Y-100310000D01*
X160496250Y-99110000D02*
X160496250Y-99050000D01*
X160496250Y-97850000D02*
X160496250Y-97790000D01*
X160496250Y-96590000D02*
X160496250Y-96530000D01*
X160496250Y-95330000D02*
X160496250Y-95270000D01*
X160496250Y-94070000D02*
X160496250Y-94010000D01*
X160496250Y-92810000D02*
X160496250Y-92750000D01*
X160496250Y-91550000D02*
X160496250Y-91490000D01*
X174466250Y-91440000D02*
X174466250Y-91500000D01*
X174466250Y-92700000D02*
X174466250Y-92760000D01*
X174466250Y-93960000D02*
X174466250Y-94020000D01*
X174466250Y-95220000D02*
X174466250Y-95280000D01*
X174466250Y-96480000D02*
X174466250Y-96540000D01*
X174466250Y-97740000D02*
X174466250Y-97800000D01*
X174466250Y-99000000D02*
X174466250Y-99060000D01*
X174466250Y-100260000D02*
X174466250Y-100320000D01*
X174466250Y-101520000D02*
X174466250Y-101580000D01*
X174466250Y-102780000D02*
X174466250Y-102840000D01*
X174466250Y-104040000D02*
X174466250Y-104100000D01*
X174466250Y-105300000D02*
X174466250Y-105360000D01*
X174466250Y-105410000D02*
X174406250Y-105410000D01*
X173206250Y-105410000D02*
X173146250Y-105410000D01*
X171946250Y-105410000D02*
X171886250Y-105410000D01*
X170686250Y-105410000D02*
X170626250Y-105410000D01*
X169426250Y-105410000D02*
X169366250Y-105410000D01*
X168166250Y-105410000D02*
X168106250Y-105410000D01*
X166906250Y-105410000D02*
X166846250Y-105410000D01*
X165646250Y-105410000D02*
X165586250Y-105410000D01*
X164386250Y-105410000D02*
X164326250Y-105410000D01*
X163126250Y-105410000D02*
X163066250Y-105410000D01*
X161866250Y-105410000D02*
X161806250Y-105410000D01*
X160606250Y-105410000D02*
X160546250Y-105410000D01*
D10*
X224790000Y-53340000D02*
X238760000Y-53340000D01*
X224790000Y-67310000D02*
X224790000Y-53340000D01*
X238760000Y-53340000D02*
X238760000Y-67310000D01*
X238760000Y-67310000D02*
X224790000Y-67310000D01*
D16*
X112871250Y-91440000D02*
X112931250Y-91440000D01*
X114131250Y-91440000D02*
X114191250Y-91440000D01*
X115391250Y-91440000D02*
X115451250Y-91440000D01*
X116651250Y-91440000D02*
X116711250Y-91440000D01*
X117911250Y-91440000D02*
X117971250Y-91440000D01*
X119171250Y-91440000D02*
X119231250Y-91440000D01*
X120431250Y-91440000D02*
X120491250Y-91440000D01*
X121691250Y-91440000D02*
X121751250Y-91440000D01*
X122951250Y-91440000D02*
X123011250Y-91440000D01*
X124211250Y-91440000D02*
X124271250Y-91440000D01*
X125471250Y-91440000D02*
X125531250Y-91440000D01*
X126731250Y-91440000D02*
X126791250Y-91440000D01*
X112871250Y-105410000D02*
X112871250Y-105350000D01*
X112871250Y-104150000D02*
X112871250Y-104090000D01*
X112871250Y-102890000D02*
X112871250Y-102830000D01*
X112871250Y-101630000D02*
X112871250Y-101570000D01*
X112871250Y-100370000D02*
X112871250Y-100310000D01*
X112871250Y-99110000D02*
X112871250Y-99050000D01*
X112871250Y-97850000D02*
X112871250Y-97790000D01*
X112871250Y-96590000D02*
X112871250Y-96530000D01*
X112871250Y-95330000D02*
X112871250Y-95270000D01*
X112871250Y-94070000D02*
X112871250Y-94010000D01*
X112871250Y-92810000D02*
X112871250Y-92750000D01*
X112871250Y-91550000D02*
X112871250Y-91490000D01*
X126841250Y-91440000D02*
X126841250Y-91500000D01*
X126841250Y-92700000D02*
X126841250Y-92760000D01*
X126841250Y-93960000D02*
X126841250Y-94020000D01*
X126841250Y-95220000D02*
X126841250Y-95280000D01*
X126841250Y-96480000D02*
X126841250Y-96540000D01*
X126841250Y-97740000D02*
X126841250Y-97800000D01*
X126841250Y-99000000D02*
X126841250Y-99060000D01*
X126841250Y-100260000D02*
X126841250Y-100320000D01*
X126841250Y-101520000D02*
X126841250Y-101580000D01*
X126841250Y-102780000D02*
X126841250Y-102840000D01*
X126841250Y-104040000D02*
X126841250Y-104100000D01*
X126841250Y-105300000D02*
X126841250Y-105360000D01*
X126841250Y-105410000D02*
X126781250Y-105410000D01*
X125581250Y-105410000D02*
X125521250Y-105410000D01*
X124321250Y-105410000D02*
X124261250Y-105410000D01*
X123061250Y-105410000D02*
X123001250Y-105410000D01*
X121801250Y-105410000D02*
X121741250Y-105410000D01*
X120541250Y-105410000D02*
X120481250Y-105410000D01*
X119281250Y-105410000D02*
X119221250Y-105410000D01*
X118021250Y-105410000D02*
X117961250Y-105410000D01*
X116761250Y-105410000D02*
X116701250Y-105410000D01*
X115501250Y-105410000D02*
X115441250Y-105410000D01*
X114241250Y-105410000D02*
X114181250Y-105410000D01*
X112981250Y-105410000D02*
X112921250Y-105410000D01*
D10*
X91440000Y-53340000D02*
X105410000Y-53340000D01*
X91440000Y-67310000D02*
X91440000Y-53340000D01*
X105410000Y-53340000D02*
X105410000Y-67310000D01*
X105410000Y-67310000D02*
X91440000Y-67310000D01*
D16*
X193833750Y-91440000D02*
X193893750Y-91440000D01*
X195093750Y-91440000D02*
X195153750Y-91440000D01*
X196353750Y-91440000D02*
X196413750Y-91440000D01*
X197613750Y-91440000D02*
X197673750Y-91440000D01*
X198873750Y-91440000D02*
X198933750Y-91440000D01*
X200133750Y-91440000D02*
X200193750Y-91440000D01*
X201393750Y-91440000D02*
X201453750Y-91440000D01*
X202653750Y-91440000D02*
X202713750Y-91440000D01*
X203913750Y-91440000D02*
X203973750Y-91440000D01*
X205173750Y-91440000D02*
X205233750Y-91440000D01*
X206433750Y-91440000D02*
X206493750Y-91440000D01*
X207693750Y-91440000D02*
X207753750Y-91440000D01*
X193833750Y-105410000D02*
X193833750Y-105350000D01*
X193833750Y-104150000D02*
X193833750Y-104090000D01*
X193833750Y-102890000D02*
X193833750Y-102830000D01*
X193833750Y-101630000D02*
X193833750Y-101570000D01*
X193833750Y-100370000D02*
X193833750Y-100310000D01*
X193833750Y-99110000D02*
X193833750Y-99050000D01*
X193833750Y-97850000D02*
X193833750Y-97790000D01*
X193833750Y-96590000D02*
X193833750Y-96530000D01*
X193833750Y-95330000D02*
X193833750Y-95270000D01*
X193833750Y-94070000D02*
X193833750Y-94010000D01*
X193833750Y-92810000D02*
X193833750Y-92750000D01*
X193833750Y-91550000D02*
X193833750Y-91490000D01*
X207803750Y-91440000D02*
X207803750Y-91500000D01*
X207803750Y-92700000D02*
X207803750Y-92760000D01*
X207803750Y-93960000D02*
X207803750Y-94020000D01*
X207803750Y-95220000D02*
X207803750Y-95280000D01*
X207803750Y-96480000D02*
X207803750Y-96540000D01*
X207803750Y-97740000D02*
X207803750Y-97800000D01*
X207803750Y-99000000D02*
X207803750Y-99060000D01*
X207803750Y-100260000D02*
X207803750Y-100320000D01*
X207803750Y-101520000D02*
X207803750Y-101580000D01*
X207803750Y-102780000D02*
X207803750Y-102840000D01*
X207803750Y-104040000D02*
X207803750Y-104100000D01*
X207803750Y-105300000D02*
X207803750Y-105360000D01*
X207803750Y-105410000D02*
X207743750Y-105410000D01*
X206543750Y-105410000D02*
X206483750Y-105410000D01*
X205283750Y-105410000D02*
X205223750Y-105410000D01*
X204023750Y-105410000D02*
X203963750Y-105410000D01*
X202763750Y-105410000D02*
X202703750Y-105410000D01*
X201503750Y-105410000D02*
X201443750Y-105410000D01*
X200243750Y-105410000D02*
X200183750Y-105410000D01*
X198983750Y-105410000D02*
X198923750Y-105410000D01*
X197723750Y-105410000D02*
X197663750Y-105410000D01*
X196463750Y-105410000D02*
X196403750Y-105410000D01*
X195203750Y-105410000D02*
X195143750Y-105410000D01*
X193943750Y-105410000D02*
X193883750Y-105410000D01*
D10*
X72390000Y-53340000D02*
X86360000Y-53340000D01*
X72390000Y-67310000D02*
X72390000Y-53340000D01*
X86360000Y-53340000D02*
X86360000Y-67310000D01*
X86360000Y-67310000D02*
X72390000Y-67310000D01*
X162877500Y-34290000D02*
X176847500Y-34290000D01*
X162877500Y-48260000D02*
X162877500Y-34290000D01*
X176847500Y-34290000D02*
X176847500Y-48260000D01*
X176847500Y-48260000D02*
X162877500Y-48260000D01*
X31908750Y-91440000D02*
X45878750Y-91440000D01*
X31908750Y-105410000D02*
X31908750Y-91440000D01*
X45878750Y-91440000D02*
X45878750Y-105410000D01*
X45878750Y-105410000D02*
X31908750Y-105410000D01*
X129540000Y-53340000D02*
X143510000Y-53340000D01*
X129540000Y-67310000D02*
X129540000Y-53340000D01*
X143510000Y-53340000D02*
X143510000Y-67310000D01*
X143510000Y-67310000D02*
X129540000Y-67310000D01*
X31908750Y-53340000D02*
X45878750Y-53340000D01*
X31908750Y-67310000D02*
X31908750Y-53340000D01*
X45878750Y-53340000D02*
X45878750Y-67310000D01*
X45878750Y-67310000D02*
X31908750Y-67310000D01*
X146202400Y-91440000D02*
X160172400Y-91440000D01*
X146202400Y-105410000D02*
X146202400Y-91440000D01*
X160172400Y-91440000D02*
X160172400Y-105410000D01*
X160172400Y-105410000D02*
X146202400Y-105410000D01*
X253365000Y-72390000D02*
X267335000Y-72390000D01*
X253365000Y-86360000D02*
X253365000Y-72390000D01*
X267335000Y-72390000D02*
X267335000Y-86360000D01*
X267335000Y-86360000D02*
X253365000Y-86360000D01*
X29527500Y-34290000D02*
X43497500Y-34290000D01*
X29527500Y-48260000D02*
X29527500Y-34290000D01*
X43497500Y-34290000D02*
X43497500Y-48260000D01*
X43497500Y-48260000D02*
X29527500Y-48260000D01*
X158115000Y-72390000D02*
X172085000Y-72390000D01*
X158115000Y-86360000D02*
X158115000Y-72390000D01*
X172085000Y-72390000D02*
X172085000Y-86360000D01*
X172085000Y-86360000D02*
X158115000Y-86360000D01*
X253365000Y-91440000D02*
X267335000Y-91440000D01*
X253365000Y-105410000D02*
X253365000Y-91440000D01*
X267335000Y-91440000D02*
X267335000Y-105410000D01*
X267335000Y-105410000D02*
X253365000Y-105410000D01*
X58102500Y-15240000D02*
X72072500Y-15240000D01*
X58102500Y-29210000D02*
X58102500Y-15240000D01*
X72072500Y-15240000D02*
X72072500Y-29210000D01*
X72072500Y-29210000D02*
X58102500Y-29210000D01*
D17*
X142875000Y-98425000D03*
X106744954Y-69850000D03*
X240506250Y-41275000D03*
X131762500Y-22225000D03*
X94456250Y-98425000D03*
X250825000Y-98425000D03*
X223837500Y-69850000D03*
X211137500Y-98425000D03*
X84137500Y-41275000D03*
X69850000Y-60325000D03*
X141287500Y-41275000D03*
X266700000Y-69850000D03*
X184150000Y-60325000D03*
X49212500Y-98425000D03*
X36512500Y-22225000D03*
X155575000Y-79375000D03*
M02*
