G04 #@! TF.GenerationSoftware,KiCad,Pcbnew,8.0.8*
G04 #@! TF.CreationDate,2025-03-19T09:54:17+01:00*
G04 #@! TF.ProjectId,vootington V4N plate,766f6f74-696e-4677-946f-6e2056344e20,rev?*
G04 #@! TF.SameCoordinates,Original*
G04 #@! TF.FileFunction,Profile,NP*
%FSLAX46Y46*%
G04 Gerber Fmt 4.6, Leading zero omitted, Abs format (unit mm)*
G04 Created by KiCad (PCBNEW 8.0.8) date 2025-03-19 09:54:17*
%MOMM*%
%LPD*%
G01*
G04 APERTURE LIST*
G04 #@! TA.AperFunction,Profile*
%ADD10C,0.200000*%
G04 #@! TD*
G04 #@! TA.AperFunction,Profile*
%ADD11C,0.100000*%
G04 #@! TD*
G04 APERTURE END LIST*
D10*
X67612500Y-48275000D02*
X81612500Y-48275000D01*
X91425000Y-67325000D02*
X105425000Y-67325000D01*
X273842447Y-36536396D02*
G75*
G02*
X272200000Y-37100002I-1642347J2111096D01*
G01*
X246206250Y-34275000D02*
X246206250Y-48275000D01*
X260206250Y-48275000D02*
X260206250Y-34275000D01*
X105425000Y-67325000D02*
X105425000Y-53325000D01*
X273842447Y-32313604D02*
G75*
G02*
X273632455Y-33198716I-307147J-394596D01*
G01*
X53037500Y-15225000D02*
X53037500Y-29225000D01*
X88756250Y-91425000D02*
X74756250Y-91425000D01*
X273842447Y-107386396D02*
G75*
G02*
X272200000Y-107950002I-1642347J2111096D01*
G01*
X246206250Y-48275000D02*
X260206250Y-48275000D01*
X100950000Y-86375000D02*
X114950000Y-86375000D01*
X152043250Y-91425000D02*
X146193750Y-91425000D01*
X126856250Y-105425000D02*
X126856250Y-91425000D01*
X100662500Y-34275000D02*
X86662500Y-34275000D01*
X31893750Y-67325000D02*
X45893750Y-67325000D01*
X148137500Y-12700000D02*
G75*
G02*
X150812500Y-15375000I0J-2675000D01*
G01*
X105712500Y-34275000D02*
X105712500Y-48275000D01*
X159043250Y-91425000D02*
X159043250Y-90425000D01*
X134287500Y-15225000D02*
X148287500Y-15225000D01*
X215250000Y-72375000D02*
X215250000Y-86375000D01*
X148287500Y-29225000D02*
X134287500Y-29225000D01*
X23020053Y-103163604D02*
G75*
G02*
X24662500Y-102599979I1642447J-2111296D01*
G01*
X23230037Y-33198755D02*
G75*
G02*
X23230037Y-35651245I-242537J-1226245D01*
G01*
X31893750Y-53325000D02*
X31893750Y-67325000D01*
X58087500Y-15225000D02*
X72087500Y-15225000D01*
X105425000Y-53325000D02*
X91425000Y-53325000D01*
X181625000Y-53325000D02*
X167625000Y-53325000D01*
X111418250Y-105425000D02*
X99693750Y-105425000D01*
X271375000Y-37100000D02*
X272200000Y-37100000D01*
X43512500Y-34275000D02*
X29512500Y-34275000D01*
X176862500Y-48275000D02*
X176862500Y-34275000D01*
X88756250Y-105425000D02*
X88756250Y-91425000D01*
X23230037Y-104048755D02*
G75*
G02*
X23020003Y-103163540I97063J490555D01*
G01*
D11*
X29374428Y-25794716D02*
X32650572Y-25794716D01*
X32650572Y-28802786D01*
X29374428Y-28802786D01*
X29374428Y-25794716D01*
D10*
X114950000Y-86375000D02*
X114950000Y-72375000D01*
X267350000Y-105425000D02*
X267350000Y-91425000D01*
X271375000Y-102600000D02*
G75*
G02*
X269875000Y-101100000I0J1500000D01*
G01*
X248300000Y-72375000D02*
X234300000Y-72375000D01*
X273632463Y-35651245D02*
G75*
G02*
X273842414Y-36536354I-96963J-490455D01*
G01*
X72375000Y-53325000D02*
X72375000Y-67325000D01*
X86662500Y-34275000D02*
X86662500Y-48275000D01*
X200675000Y-53325000D02*
X186675000Y-53325000D01*
X159043250Y-90425000D02*
X152043250Y-90425000D01*
X268450000Y-69850000D02*
G75*
G02*
X264950000Y-69850000I-1750000J0D01*
G01*
X264950000Y-69850000D02*
G75*
G02*
X268450000Y-69850000I1750000J0D01*
G01*
X53325000Y-53325000D02*
X53325000Y-67325000D01*
X174481250Y-105425000D02*
X174481250Y-91425000D01*
X273632463Y-106501245D02*
G75*
G02*
X273842414Y-107386354I-96963J-490455D01*
G01*
X124475000Y-53325000D02*
X110475000Y-53325000D01*
X26987500Y-38600000D02*
X26987500Y-101100000D01*
X128294250Y-90425000D02*
X128294250Y-105425000D01*
X95900000Y-72375000D02*
X81900000Y-72375000D01*
X167625000Y-67325000D02*
X181625000Y-67325000D01*
X110187500Y-29225000D02*
X96187500Y-29225000D01*
X74756250Y-91425000D02*
X74756250Y-105425000D01*
X67325000Y-105425000D02*
X53325000Y-105425000D01*
X267350000Y-105425000D02*
X253350000Y-105425000D01*
X154487500Y-31750000D02*
G75*
G02*
X150812500Y-28075000I0J3675000D01*
G01*
X100662500Y-48275000D02*
X100662500Y-34275000D01*
X272200000Y-31750000D02*
X154487500Y-31750000D01*
X248587500Y-67325000D02*
X262587500Y-67325000D01*
X224775000Y-67325000D02*
X238775000Y-67325000D01*
X200962500Y-48275000D02*
X214962500Y-48275000D01*
X207818750Y-105425000D02*
X193818750Y-105425000D01*
X108494954Y-69850000D02*
G75*
G02*
X104994954Y-69850000I-1750000J0D01*
G01*
X104994954Y-69850000D02*
G75*
G02*
X108494954Y-69850000I1750000J0D01*
G01*
X62562500Y-48275000D02*
X62562500Y-34275000D01*
X67325000Y-91425000D02*
X53325000Y-91425000D01*
X86375000Y-53325000D02*
X72375000Y-53325000D01*
X143812500Y-48275000D02*
X157812500Y-48275000D01*
X71600000Y-60325000D02*
G75*
G02*
X68100000Y-60325000I-1750000J0D01*
G01*
X68100000Y-60325000D02*
G75*
G02*
X71600000Y-60325000I1750000J0D01*
G01*
X48562500Y-34275000D02*
X48562500Y-48275000D01*
X100950000Y-72375000D02*
X114950000Y-72375000D01*
X242256250Y-41275000D02*
G75*
G02*
X238756250Y-41275000I-1750000J0D01*
G01*
X238756250Y-41275000D02*
G75*
G02*
X242256250Y-41275000I1750000J0D01*
G01*
X229250000Y-72375000D02*
X215250000Y-72375000D01*
X210200000Y-72375000D02*
X196200000Y-72375000D01*
X39037500Y-29225000D02*
X39037500Y-15225000D01*
X86375000Y-67325000D02*
X86375000Y-53325000D01*
X220012500Y-34275000D02*
X220012500Y-48275000D01*
X115237500Y-15225000D02*
X129237500Y-15225000D01*
X262587500Y-53325000D02*
X248587500Y-53325000D01*
X272200000Y-102600000D02*
G75*
G02*
X273842434Y-103163621I0J-2674900D01*
G01*
X219725000Y-53325000D02*
X205725000Y-53325000D01*
X248300000Y-105425000D02*
X234300000Y-105425000D01*
X182919250Y-90425000D02*
X175919250Y-90425000D01*
X158100000Y-72375000D02*
X158100000Y-86375000D01*
X110187500Y-15225000D02*
X110187500Y-29225000D01*
X81612500Y-34275000D02*
X67612500Y-34275000D01*
X138762500Y-48275000D02*
X138762500Y-34275000D01*
X214962500Y-48275000D02*
X214962500Y-34275000D01*
X186675000Y-67325000D02*
X200675000Y-67325000D01*
X67325000Y-105425000D02*
X67325000Y-91425000D01*
X100950000Y-72375000D02*
X100950000Y-86375000D01*
X111418250Y-90425000D02*
X99693750Y-90425000D01*
X53325000Y-67325000D02*
X67325000Y-67325000D01*
X238775000Y-67325000D02*
X238775000Y-53325000D01*
X77137500Y-15225000D02*
X91137500Y-15225000D01*
X234012500Y-34275000D02*
X220012500Y-34275000D01*
X129525000Y-67325000D02*
X143525000Y-67325000D01*
X77137500Y-29225000D02*
X77137500Y-15225000D01*
X229250000Y-105425000D02*
X215250000Y-105425000D01*
X177150000Y-86375000D02*
X191150000Y-86375000D01*
X191150000Y-86375000D02*
X191150000Y-72375000D01*
X36656250Y-86375000D02*
X50656250Y-86375000D01*
X26987500Y-15375000D02*
G75*
G02*
X29662500Y-12700000I2675000J0D01*
G01*
X205725000Y-67325000D02*
X219725000Y-67325000D01*
X219725000Y-67325000D02*
X219725000Y-53325000D01*
X124762500Y-48275000D02*
X138762500Y-48275000D01*
X199693750Y-90425000D02*
X199693750Y-91425000D01*
X119712500Y-48275000D02*
X119712500Y-34275000D01*
X76850000Y-72375000D02*
X62850000Y-72375000D01*
X269875000Y-38600000D02*
G75*
G02*
X271375000Y-37100000I1500100J-100D01*
G01*
X162862500Y-48275000D02*
X176862500Y-48275000D01*
X26987500Y-15375000D02*
X26987500Y-30250000D01*
X253350000Y-72375000D02*
X253350000Y-86375000D01*
X234300000Y-72375000D02*
X234300000Y-86375000D01*
X88756250Y-105425000D02*
X74756250Y-105425000D01*
X50656250Y-72375000D02*
X36656250Y-72375000D01*
X185900000Y-60325000D02*
G75*
G02*
X182400000Y-60325000I-1750000J0D01*
G01*
X182400000Y-60325000D02*
G75*
G02*
X185900000Y-60325000I1750000J0D01*
G01*
X110475000Y-67325000D02*
X124475000Y-67325000D01*
X248587500Y-53325000D02*
X248587500Y-67325000D01*
X81612500Y-48275000D02*
X81612500Y-34275000D01*
X72087500Y-29225000D02*
X58087500Y-29225000D01*
X138762500Y-34275000D02*
X124762500Y-34275000D01*
X162575000Y-53325000D02*
X148575000Y-53325000D01*
X196200000Y-86375000D02*
X210200000Y-86375000D01*
X176862500Y-34275000D02*
X162862500Y-34275000D01*
X234300000Y-86375000D02*
X248300000Y-86375000D01*
X205725000Y-53325000D02*
X205725000Y-67325000D01*
X269875000Y-101100000D02*
X269875000Y-38600000D01*
X225587500Y-69850000D02*
G75*
G02*
X222087500Y-69850000I-1750000J0D01*
G01*
X222087500Y-69850000D02*
G75*
G02*
X225587500Y-69850000I1750000J0D01*
G01*
D11*
X29374428Y-14529716D02*
X32650569Y-14529716D01*
X32650569Y-17537786D01*
X29374428Y-17537786D01*
X29374428Y-14529716D01*
D10*
X58087500Y-29225000D02*
X58087500Y-15225000D01*
X62850000Y-72375000D02*
X62850000Y-86375000D01*
X248300000Y-86375000D02*
X248300000Y-72375000D01*
X25487500Y-31750000D02*
X24662500Y-31750000D01*
X193818750Y-91425000D02*
X193818750Y-105425000D01*
X273632463Y-35651245D02*
G75*
G02*
X273632463Y-33198755I242437J1226245D01*
G01*
X134000000Y-86375000D02*
X134000000Y-72375000D01*
X124475000Y-67325000D02*
X124475000Y-53325000D01*
X26987500Y-30250000D02*
G75*
G02*
X25487500Y-31750000I-1500000J0D01*
G01*
X25487500Y-37100000D02*
G75*
G02*
X26987500Y-38600000I0J-1500000D01*
G01*
D11*
X29368749Y-20162216D02*
X32650571Y-20162216D01*
X32650571Y-23170286D01*
X29368749Y-23170286D01*
X29368749Y-20162216D01*
D10*
X96206250Y-98425000D02*
G75*
G02*
X92706250Y-98425000I-1750000J0D01*
G01*
X92706250Y-98425000D02*
G75*
G02*
X96206250Y-98425000I1750000J0D01*
G01*
X253350000Y-86375000D02*
X267350000Y-86375000D01*
X129525000Y-53325000D02*
X129525000Y-67325000D01*
X53037500Y-29225000D02*
X39037500Y-29225000D01*
X96187500Y-15225000D02*
X110187500Y-15225000D01*
X167625000Y-53325000D02*
X167625000Y-67325000D01*
X53325000Y-91425000D02*
X53325000Y-105425000D01*
X210200000Y-86375000D02*
X210200000Y-72375000D01*
X182919250Y-105425000D02*
X182919250Y-90425000D01*
X148575000Y-67325000D02*
X162575000Y-67325000D01*
X72375000Y-67325000D02*
X86375000Y-67325000D01*
X175919250Y-90425000D02*
X175919250Y-105425000D01*
X174481250Y-91425000D02*
X159043250Y-91425000D01*
X214962500Y-34275000D02*
X200962500Y-34275000D01*
X267350000Y-72375000D02*
X253350000Y-72375000D01*
X23020053Y-36536396D02*
G75*
G02*
X23230038Y-35651250I306977J394656D01*
G01*
X23020053Y-107386396D02*
G75*
G02*
X23230038Y-106501250I306977J394656D01*
G01*
X91425000Y-53325000D02*
X91425000Y-67325000D01*
X45893750Y-105425000D02*
X45893750Y-91425000D01*
X224775000Y-53325000D02*
X224775000Y-67325000D01*
X272200000Y-102600000D02*
X271375000Y-102600000D01*
X248300000Y-91425000D02*
X234300000Y-91425000D01*
X148137500Y-12700000D02*
X29662500Y-12700000D01*
X191150000Y-72375000D02*
X177150000Y-72375000D01*
X143037500Y-41275000D02*
G75*
G02*
X139537500Y-41275000I-1750000J0D01*
G01*
X139537500Y-41275000D02*
G75*
G02*
X143037500Y-41275000I1750000J0D01*
G01*
X200675000Y-67325000D02*
X200675000Y-53325000D01*
X112856250Y-91425000D02*
X112856250Y-105425000D01*
X150812500Y-28075000D02*
X150812500Y-15375000D01*
X23230037Y-104048755D02*
G75*
G02*
X23230037Y-106501245I-242537J-1226245D01*
G01*
X229250000Y-91425000D02*
X215250000Y-91425000D01*
X24662500Y-107950000D02*
X272200000Y-107950000D01*
X24662500Y-107950000D02*
G75*
G02*
X23020040Y-107386413I0J2675100D01*
G01*
X262587500Y-67325000D02*
X262587500Y-53325000D01*
X172100000Y-86375000D02*
X172100000Y-72375000D01*
X220012500Y-48275000D02*
X234012500Y-48275000D01*
X206693750Y-91425000D02*
X206693750Y-90425000D01*
X38262500Y-22225000D02*
G75*
G02*
X34762500Y-22225000I-1750000J0D01*
G01*
X34762500Y-22225000D02*
G75*
G02*
X38262500Y-22225000I1750000J0D01*
G01*
X111418250Y-105425000D02*
X111418250Y-90425000D01*
X126856250Y-105425000D02*
X112856250Y-105425000D01*
X76850000Y-86375000D02*
X76850000Y-72375000D01*
X181625000Y-67325000D02*
X181625000Y-53325000D01*
X260206250Y-34275000D02*
X246206250Y-34275000D01*
X172100000Y-72375000D02*
X158100000Y-72375000D01*
X143525000Y-67325000D02*
X143525000Y-53325000D01*
X43512500Y-48275000D02*
X43512500Y-34275000D01*
X45893750Y-91425000D02*
X31893750Y-91425000D01*
X238775000Y-53325000D02*
X224775000Y-53325000D01*
X206693750Y-90425000D02*
X199693750Y-90425000D01*
X215250000Y-91425000D02*
X215250000Y-105425000D01*
X81900000Y-72375000D02*
X81900000Y-86375000D01*
X86662500Y-48275000D02*
X100662500Y-48275000D01*
X174481250Y-105425000D02*
X146193750Y-105425000D01*
X143812500Y-34275000D02*
X143812500Y-48275000D01*
X91137500Y-29225000D02*
X91137500Y-15225000D01*
X148575000Y-53325000D02*
X148575000Y-67325000D01*
X50656250Y-86375000D02*
X50656250Y-72375000D01*
X215250000Y-86375000D02*
X229250000Y-86375000D01*
X120000000Y-72375000D02*
X120000000Y-86375000D01*
X45893750Y-67325000D02*
X45893750Y-53325000D01*
X267350000Y-86375000D02*
X267350000Y-72375000D01*
X24662500Y-37100000D02*
G75*
G02*
X23020040Y-36536413I0J2675100D01*
G01*
X157325000Y-79375000D02*
G75*
G02*
X153825000Y-79375000I-1750000J0D01*
G01*
X153825000Y-79375000D02*
G75*
G02*
X157325000Y-79375000I1750000J0D01*
G01*
X196200000Y-72375000D02*
X196200000Y-86375000D01*
X25487500Y-102600000D02*
X24662500Y-102600000D01*
X234012500Y-48275000D02*
X234012500Y-34275000D01*
X139050000Y-86375000D02*
X153050000Y-86375000D01*
X72087500Y-15225000D02*
X72087500Y-29225000D01*
X252575000Y-98425000D02*
G75*
G02*
X249075000Y-98425000I-1750000J0D01*
G01*
X249075000Y-98425000D02*
G75*
G02*
X252575000Y-98425000I1750000J0D01*
G01*
X229250000Y-105425000D02*
X229250000Y-91425000D01*
X200962500Y-34275000D02*
X200962500Y-48275000D01*
X181912500Y-48275000D02*
X195912500Y-48275000D01*
X129237500Y-15225000D02*
X129237500Y-29225000D01*
X95900000Y-86375000D02*
X95900000Y-72375000D01*
X181912500Y-34275000D02*
X181912500Y-48275000D01*
X23230037Y-33198755D02*
G75*
G02*
X23020003Y-32313540I97063J490555D01*
G01*
X105712500Y-48275000D02*
X119712500Y-48275000D01*
X182919250Y-105425000D02*
X175919250Y-105425000D01*
X158100000Y-86375000D02*
X172100000Y-86375000D01*
X207818750Y-91425000D02*
X206693750Y-91425000D01*
X135294250Y-105425000D02*
X128294250Y-105425000D01*
X162862500Y-34275000D02*
X162862500Y-48275000D01*
X50962500Y-98425000D02*
G75*
G02*
X47462500Y-98425000I-1750000J0D01*
G01*
X47462500Y-98425000D02*
G75*
G02*
X50962500Y-98425000I1750000J0D01*
G01*
X273632463Y-106501245D02*
G75*
G02*
X273632463Y-104048755I242437J1226245D01*
G01*
X148287500Y-15225000D02*
X148287500Y-29225000D01*
X119712500Y-34275000D02*
X105712500Y-34275000D01*
X62562500Y-34275000D02*
X48562500Y-34275000D01*
X267350000Y-91425000D02*
X253350000Y-91425000D01*
X67325000Y-53325000D02*
X53325000Y-53325000D01*
X273842447Y-103163604D02*
G75*
G02*
X273632455Y-104048716I-307147J-394596D01*
G01*
X99693750Y-90425000D02*
X99693750Y-105425000D01*
X195912500Y-34275000D02*
X181912500Y-34275000D01*
X48562500Y-48275000D02*
X62562500Y-48275000D01*
X272200000Y-31750000D02*
G75*
G02*
X273842434Y-32313621I0J-2674900D01*
G01*
X39037500Y-15225000D02*
X53037500Y-15225000D01*
X62850000Y-86375000D02*
X76850000Y-86375000D01*
X153050000Y-72375000D02*
X139050000Y-72375000D01*
X45893750Y-105425000D02*
X31893750Y-105425000D01*
X195912500Y-48275000D02*
X195912500Y-34275000D01*
X24662500Y-37100000D02*
X25487500Y-37100000D01*
X85887500Y-41275000D02*
G75*
G02*
X82387500Y-41275000I-1750000J0D01*
G01*
X82387500Y-41275000D02*
G75*
G02*
X85887500Y-41275000I1750000J0D01*
G01*
X133512500Y-22218750D02*
G75*
G02*
X130012500Y-22218750I-1750000J0D01*
G01*
X130012500Y-22218750D02*
G75*
G02*
X133512500Y-22218750I1750000J0D01*
G01*
X134000000Y-72375000D02*
X120000000Y-72375000D01*
X135294250Y-105425000D02*
X135294250Y-90425000D01*
X81900000Y-86375000D02*
X95900000Y-86375000D01*
X248300000Y-105425000D02*
X248300000Y-91425000D01*
X253350000Y-91425000D02*
X253350000Y-105425000D01*
X129237500Y-29225000D02*
X115237500Y-29225000D01*
X152043250Y-90425000D02*
X152043250Y-91425000D01*
X31893750Y-91425000D02*
X31893750Y-105425000D01*
X143525000Y-53325000D02*
X129525000Y-53325000D01*
X207818750Y-105425000D02*
X207818750Y-91425000D01*
X45893750Y-53325000D02*
X31893750Y-53325000D01*
X120000000Y-86375000D02*
X134000000Y-86375000D01*
X67325000Y-67325000D02*
X67325000Y-53325000D01*
X26987500Y-101100000D02*
G75*
G02*
X25487500Y-102600000I-1500000J0D01*
G01*
X29512500Y-48275000D02*
X43512500Y-48275000D01*
X144625000Y-98425000D02*
G75*
G02*
X141125000Y-98425000I-1750000J0D01*
G01*
X141125000Y-98425000D02*
G75*
G02*
X144625000Y-98425000I1750000J0D01*
G01*
X135294250Y-90425000D02*
X128294250Y-90425000D01*
X199693750Y-91425000D02*
X193818750Y-91425000D01*
X115237500Y-29225000D02*
X115237500Y-15225000D01*
X110475000Y-53325000D02*
X110475000Y-67325000D01*
X139050000Y-72375000D02*
X139050000Y-86375000D01*
X162575000Y-67325000D02*
X162575000Y-53325000D01*
X23020053Y-32313604D02*
G75*
G02*
X24662500Y-31749979I1642447J-2111296D01*
G01*
X36656250Y-72375000D02*
X36656250Y-86375000D01*
X157812500Y-48275000D02*
X157812500Y-34275000D01*
X212887500Y-98425000D02*
G75*
G02*
X209387500Y-98425000I-1750000J0D01*
G01*
X209387500Y-98425000D02*
G75*
G02*
X212887500Y-98425000I1750000J0D01*
G01*
X146193750Y-91425000D02*
X146193750Y-105425000D01*
X67612500Y-34275000D02*
X67612500Y-48275000D01*
X153050000Y-86375000D02*
X153050000Y-72375000D01*
X229250000Y-86375000D02*
X229250000Y-72375000D01*
X157812500Y-34275000D02*
X143812500Y-34275000D01*
X186675000Y-53325000D02*
X186675000Y-67325000D01*
X234300000Y-91425000D02*
X234300000Y-105425000D01*
X126856250Y-91425000D02*
X112856250Y-91425000D01*
X91137500Y-29225000D02*
X77137500Y-29225000D01*
X124762500Y-34275000D02*
X124762500Y-48275000D01*
X96187500Y-29225000D02*
X96187500Y-15225000D01*
X134287500Y-29225000D02*
X134287500Y-15225000D01*
X177150000Y-72375000D02*
X177150000Y-86375000D01*
X29512500Y-48275000D02*
X29512500Y-34275000D01*
M02*
