G04 #@! TF.GenerationSoftware,KiCad,Pcbnew,8.0.8*
G04 #@! TF.CreationDate,2025-02-11T15:39:55+01:00*
G04 #@! TF.ProjectId,vootington V4N STM32G0B1CBT6,766f6f74-696e-4677-946f-6e2056344e20,rev?*
G04 #@! TF.SameCoordinates,Original*
G04 #@! TF.FileFunction,Legend,Bot*
G04 #@! TF.FilePolarity,Positive*
%FSLAX46Y46*%
G04 Gerber Fmt 4.6, Leading zero omitted, Abs format (unit mm)*
G04 Created by KiCad (PCBNEW 8.0.8) date 2025-02-11 15:39:55*
%MOMM*%
%LPD*%
G01*
G04 APERTURE LIST*
%ADD10C,0.150000*%
%ADD11C,0.200000*%
%ADD12C,0.500000*%
%ADD13C,0.120000*%
%ADD14C,0.100000*%
%ADD15C,0.002540*%
%ADD16C,0.170180*%
%ADD17C,0.000000*%
G04 APERTURE END LIST*
D10*
X39369940Y-55223569D02*
X39369940Y-54223569D01*
X39369940Y-55175950D02*
X39465178Y-55223569D01*
X39465178Y-55223569D02*
X39655654Y-55223569D01*
X39655654Y-55223569D02*
X39750892Y-55175950D01*
X39750892Y-55175950D02*
X39798511Y-55128330D01*
X39798511Y-55128330D02*
X39846130Y-55033092D01*
X39846130Y-55033092D02*
X39846130Y-54747378D01*
X39846130Y-54747378D02*
X39798511Y-54652140D01*
X39798511Y-54652140D02*
X39750892Y-54604521D01*
X39750892Y-54604521D02*
X39655654Y-54556902D01*
X39655654Y-54556902D02*
X39465178Y-54556902D01*
X39465178Y-54556902D02*
X39369940Y-54604521D01*
X38893749Y-55223569D02*
X38893749Y-54556902D01*
X38893749Y-54223569D02*
X38941368Y-54271188D01*
X38941368Y-54271188D02*
X38893749Y-54318807D01*
X38893749Y-54318807D02*
X38846130Y-54271188D01*
X38846130Y-54271188D02*
X38893749Y-54223569D01*
X38893749Y-54223569D02*
X38893749Y-54318807D01*
X38274702Y-55223569D02*
X38369940Y-55175950D01*
X38369940Y-55175950D02*
X38417559Y-55128330D01*
X38417559Y-55128330D02*
X38465178Y-55033092D01*
X38465178Y-55033092D02*
X38465178Y-54747378D01*
X38465178Y-54747378D02*
X38417559Y-54652140D01*
X38417559Y-54652140D02*
X38369940Y-54604521D01*
X38369940Y-54604521D02*
X38274702Y-54556902D01*
X38274702Y-54556902D02*
X38131845Y-54556902D01*
X38131845Y-54556902D02*
X38036607Y-54604521D01*
X38036607Y-54604521D02*
X37988988Y-54652140D01*
X37988988Y-54652140D02*
X37941369Y-54747378D01*
X37941369Y-54747378D02*
X37941369Y-55033092D01*
X37941369Y-55033092D02*
X37988988Y-55128330D01*
X37988988Y-55128330D02*
X38036607Y-55175950D01*
X38036607Y-55175950D02*
X38131845Y-55223569D01*
X38131845Y-55223569D02*
X38274702Y-55223569D01*
G36*
X265516646Y-36057929D02*
G01*
X265569692Y-36005256D01*
X265621432Y-35946732D01*
X265633517Y-35931534D01*
X265677862Y-35868832D01*
X265707889Y-35815396D01*
X265735767Y-35746045D01*
X265746723Y-35705121D01*
X265757302Y-35630912D01*
X265758447Y-35597410D01*
X265751312Y-35520024D01*
X265729908Y-35443849D01*
X265715216Y-35409098D01*
X265677435Y-35342758D01*
X265628937Y-35281672D01*
X265590652Y-35243868D01*
X265530198Y-35197035D01*
X265461172Y-35156782D01*
X265390983Y-35125899D01*
X265314212Y-35102328D01*
X265239917Y-35088579D01*
X265160695Y-35081901D01*
X265123904Y-35081202D01*
X265043418Y-35084316D01*
X264966825Y-35093659D01*
X264894125Y-35109229D01*
X264825317Y-35131028D01*
X264752993Y-35162043D01*
X264686870Y-35198622D01*
X264620674Y-35245791D01*
X264596339Y-35266583D01*
X264541292Y-35322847D01*
X264494759Y-35384477D01*
X264456742Y-35451475D01*
X264450160Y-35465518D01*
X264422919Y-35537596D01*
X264405767Y-35612322D01*
X264398704Y-35689695D01*
X264398503Y-35705487D01*
X264401446Y-35778810D01*
X264412516Y-35857093D01*
X264423415Y-35900759D01*
X264448923Y-35972812D01*
X264483866Y-36038512D01*
X264503283Y-36035215D01*
X264537721Y-36009936D01*
X264576922Y-35975864D01*
X264608796Y-35945822D01*
X264602568Y-35909552D01*
X264556148Y-35848304D01*
X264523433Y-35784988D01*
X264501081Y-35712576D01*
X264492566Y-35636421D01*
X264492292Y-35619025D01*
X264504670Y-35544692D01*
X264505481Y-35542089D01*
X264537071Y-35474089D01*
X264547247Y-35458191D01*
X264594520Y-35401645D01*
X264621618Y-35376858D01*
X264682846Y-35333407D01*
X264732627Y-35307249D01*
X264803060Y-35279955D01*
X264878575Y-35260023D01*
X264883935Y-35258889D01*
X264957581Y-35247266D01*
X265032646Y-35241796D01*
X265079574Y-35240937D01*
X265155572Y-35244067D01*
X265233625Y-35254886D01*
X265304952Y-35273433D01*
X265325038Y-35280504D01*
X265393379Y-35310391D01*
X265458354Y-35349117D01*
X265500526Y-35382354D01*
X265551698Y-35435553D01*
X265594093Y-35497984D01*
X265606039Y-35521572D01*
X265631284Y-35592815D01*
X265641176Y-35666855D01*
X265641210Y-35671415D01*
X265629155Y-35744844D01*
X265603108Y-35816862D01*
X265566546Y-35887478D01*
X265523878Y-35951363D01*
X265475993Y-36012775D01*
X265470118Y-36019828D01*
X265478911Y-36030452D01*
X265492833Y-36041443D01*
X265506755Y-36050602D01*
X265516646Y-36057929D01*
G37*
G36*
X265565190Y-36218214D02*
G01*
X265638279Y-36237448D01*
X265648572Y-36242749D01*
X265707156Y-36289472D01*
X265710442Y-36293440D01*
X265745990Y-36360180D01*
X265746757Y-36362628D01*
X265758447Y-36436384D01*
X265748189Y-36508924D01*
X265743955Y-36524041D01*
X265716681Y-36592821D01*
X265702184Y-36620706D01*
X265661727Y-36683313D01*
X265632346Y-36721117D01*
X265582226Y-36776370D01*
X265639052Y-36780852D01*
X265711552Y-36800916D01*
X265758447Y-36857703D01*
X265756661Y-36873937D01*
X265729870Y-36943798D01*
X265719976Y-36962401D01*
X265680096Y-37027117D01*
X265637180Y-37088512D01*
X265589919Y-37073125D01*
X265612634Y-37009377D01*
X265617763Y-36972375D01*
X265599811Y-36942333D01*
X265538995Y-36930975D01*
X264970031Y-36930975D01*
X264944826Y-36930014D01*
X264872794Y-36913605D01*
X264808464Y-36869426D01*
X264788668Y-36844654D01*
X264758404Y-36772626D01*
X264750212Y-36695037D01*
X264754559Y-36633197D01*
X264769996Y-36560581D01*
X264791522Y-36496933D01*
X264823119Y-36428690D01*
X264855025Y-36376788D01*
X264904085Y-36317682D01*
X264940098Y-36284915D01*
X265002637Y-36245874D01*
X265042937Y-36260162D01*
X265040739Y-36301928D01*
X265026451Y-36361645D01*
X265005568Y-36414035D01*
X264984319Y-36435285D01*
X264928265Y-36445543D01*
X264884302Y-36482546D01*
X264855359Y-36538233D01*
X264844002Y-36603446D01*
X264843911Y-36612774D01*
X264854993Y-36687343D01*
X264888698Y-36740100D01*
X264941088Y-36767943D01*
X265006301Y-36776370D01*
X265151381Y-36776370D01*
X265219891Y-36776370D01*
X265486971Y-36776370D01*
X265503349Y-36756907D01*
X265548748Y-36695549D01*
X265586256Y-36628359D01*
X265606655Y-36573308D01*
X265617763Y-36497200D01*
X265612634Y-36464594D01*
X265592484Y-36427957D01*
X265551817Y-36398282D01*
X265484773Y-36385825D01*
X265472883Y-36386083D01*
X265400875Y-36402312D01*
X265398662Y-36403352D01*
X265337494Y-36445543D01*
X265304521Y-36483645D01*
X265275212Y-36541164D01*
X265268274Y-36560535D01*
X265247735Y-36633488D01*
X265233126Y-36701913D01*
X265219891Y-36776370D01*
X265151381Y-36776370D01*
X265157890Y-36733398D01*
X265171216Y-36655877D01*
X265187285Y-36579632D01*
X265202531Y-36520284D01*
X265226120Y-36449206D01*
X265233878Y-36430419D01*
X265268984Y-36365675D01*
X265315512Y-36309622D01*
X265343396Y-36284682D01*
X265406004Y-36244042D01*
X265460755Y-36224583D01*
X265536430Y-36216932D01*
X265565190Y-36218214D01*
G37*
G36*
X265735000Y-37159220D02*
G01*
X265690669Y-37159220D01*
X265676495Y-37231357D01*
X265676015Y-37233226D01*
X265660261Y-37280487D01*
X265644508Y-37305766D01*
X265628021Y-37313826D01*
X264401800Y-37313826D01*
X264329993Y-37307598D01*
X264291158Y-37284883D01*
X264273939Y-37240553D01*
X264264047Y-37169479D01*
X264223014Y-37169479D01*
X264206720Y-37244697D01*
X264191140Y-37305400D01*
X264166488Y-37375750D01*
X264140582Y-37431429D01*
X264175387Y-37468432D01*
X265628021Y-37468432D01*
X265659895Y-37503236D01*
X265681525Y-37574801D01*
X265690669Y-37622671D01*
X265735000Y-37622671D01*
X265735000Y-37159220D01*
G37*
G36*
X264817623Y-38685128D02*
G01*
X264831179Y-38634203D01*
X264845101Y-38602329D01*
X264862686Y-38583278D01*
X264887599Y-38571555D01*
X265667222Y-38279929D01*
X265705690Y-38253184D01*
X265732435Y-38215082D01*
X265749288Y-38174416D01*
X265758447Y-38141077D01*
X264887599Y-37800724D01*
X264844002Y-37764821D01*
X264819057Y-37692778D01*
X264817623Y-37686419D01*
X264773660Y-37686419D01*
X264773660Y-38084290D01*
X264817623Y-38084290D01*
X264827882Y-38018711D01*
X264840704Y-37979510D01*
X264859755Y-37963390D01*
X264887599Y-37967786D01*
X265545223Y-38221310D01*
X264887599Y-38459447D01*
X264861587Y-38462744D01*
X264842903Y-38448823D01*
X264829713Y-38413285D01*
X264817623Y-38352102D01*
X264773660Y-38352102D01*
X264773660Y-38685128D01*
X264817623Y-38685128D01*
G37*
G36*
X265735000Y-38772689D02*
G01*
X265691036Y-38772689D01*
X265672859Y-38844160D01*
X265659528Y-38879667D01*
X265628387Y-38917036D01*
X265047700Y-38917036D01*
X264973637Y-38915471D01*
X264963070Y-38914838D01*
X264912878Y-38899084D01*
X264886866Y-38856586D01*
X264874301Y-38782702D01*
X264873311Y-38772689D01*
X264832278Y-38772689D01*
X264817623Y-38840100D01*
X264798206Y-38910808D01*
X264775125Y-38977853D01*
X264750212Y-39036471D01*
X264750212Y-39071642D01*
X265628387Y-39071642D01*
X265658429Y-39106080D01*
X265682532Y-39176593D01*
X265691036Y-39215623D01*
X265735000Y-39215623D01*
X265735000Y-38772689D01*
G37*
G36*
X264447595Y-39102416D02*
G01*
X264501085Y-39092891D01*
X264545048Y-39067612D01*
X264575090Y-39030243D01*
X264586081Y-38982982D01*
X264560802Y-38916303D01*
X264488995Y-38896153D01*
X264435505Y-38905313D01*
X264391542Y-38931324D01*
X264362233Y-38968694D01*
X264351608Y-39014855D01*
X264378698Y-39083177D01*
X264447595Y-39102416D01*
G37*
G36*
X265735000Y-39959343D02*
G01*
X265691402Y-39959343D01*
X265671181Y-40030492D01*
X265657697Y-40068519D01*
X265629120Y-40103690D01*
X265091297Y-40103690D01*
X265017246Y-40100227D01*
X264990914Y-40096363D01*
X264929731Y-40073648D01*
X264898956Y-40032982D01*
X264890896Y-39971799D01*
X264906284Y-39900724D01*
X264941158Y-39835895D01*
X264955010Y-39816460D01*
X265004984Y-39758873D01*
X265042937Y-39722671D01*
X265103662Y-39673762D01*
X265166864Y-39630665D01*
X265176660Y-39624486D01*
X265629120Y-39624486D01*
X265660994Y-39662954D01*
X265683220Y-39733352D01*
X265691402Y-39768833D01*
X265735000Y-39768833D01*
X265735000Y-39325899D01*
X265691769Y-39325899D01*
X265671676Y-39399028D01*
X265660994Y-39431778D01*
X265630586Y-39469880D01*
X265020589Y-39469880D01*
X264958307Y-39466949D01*
X264922037Y-39450096D01*
X264902986Y-39407232D01*
X264891630Y-39332356D01*
X264890896Y-39325899D01*
X264844002Y-39325899D01*
X264827275Y-39397353D01*
X264807365Y-39455592D01*
X264775552Y-39525860D01*
X264750212Y-39573195D01*
X264786116Y-39609098D01*
X265041472Y-39620456D01*
X264980281Y-39665058D01*
X264922464Y-39717070D01*
X264919106Y-39720473D01*
X264869372Y-39775336D01*
X264827882Y-39830749D01*
X264789399Y-39895586D01*
X264770362Y-39938460D01*
X264751472Y-40009695D01*
X264750212Y-40030417D01*
X264760591Y-40105470D01*
X264763768Y-40115780D01*
X264798069Y-40180655D01*
X264804801Y-40188687D01*
X264864386Y-40234287D01*
X264874776Y-40239245D01*
X264946973Y-40257105D01*
X264974794Y-40258296D01*
X265628387Y-40258296D01*
X265656598Y-40289803D01*
X265680017Y-40360835D01*
X265691036Y-40402643D01*
X265735000Y-40402643D01*
X265735000Y-39959343D01*
G37*
G36*
X265141846Y-40505324D02*
G01*
X265220721Y-40508780D01*
X265296806Y-40517174D01*
X265370101Y-40530504D01*
X265432520Y-40546666D01*
X265502593Y-40571692D01*
X265571235Y-40605609D01*
X265597272Y-40621875D01*
X265656848Y-40669610D01*
X265707889Y-40729807D01*
X265722454Y-40753620D01*
X265750103Y-40826389D01*
X265758447Y-40901998D01*
X265756669Y-40938075D01*
X265740623Y-41012088D01*
X265707889Y-41080417D01*
X265684069Y-41114701D01*
X265630809Y-41172323D01*
X265571235Y-41218537D01*
X265514598Y-41251753D01*
X265445770Y-41282505D01*
X265370101Y-41307197D01*
X265355665Y-41311012D01*
X265281813Y-41326396D01*
X265205170Y-41335627D01*
X265125736Y-41338704D01*
X265109536Y-41338605D01*
X265030252Y-41335149D01*
X264953831Y-41326756D01*
X264880272Y-41313425D01*
X264817498Y-41297235D01*
X264747150Y-41272094D01*
X264678405Y-41237954D01*
X264652386Y-41221784D01*
X264593023Y-41174133D01*
X264542484Y-41113756D01*
X264528024Y-41090048D01*
X264500576Y-41017479D01*
X264492292Y-40941932D01*
X264494069Y-40905855D01*
X264494905Y-40901998D01*
X264586081Y-40901998D01*
X264589695Y-40934348D01*
X264623084Y-41002748D01*
X264668971Y-41048544D01*
X264732627Y-41088477D01*
X264765938Y-41103947D01*
X264837012Y-41128863D01*
X264913244Y-41147462D01*
X264933880Y-41151456D01*
X265007039Y-41161931D01*
X265086923Y-41168042D01*
X265164570Y-41169810D01*
X265235980Y-41168593D01*
X265315152Y-41163799D01*
X265391350Y-41154423D01*
X265402990Y-41152444D01*
X265477262Y-41135463D01*
X265546688Y-41109360D01*
X265581550Y-41089790D01*
X265636081Y-41037919D01*
X265648583Y-41016120D01*
X265664658Y-40941932D01*
X265660242Y-40903383D01*
X265627288Y-40835319D01*
X265580669Y-40789890D01*
X265516280Y-40751056D01*
X265482362Y-40736209D01*
X265410349Y-40712358D01*
X265333464Y-40694636D01*
X265312632Y-40690969D01*
X265238958Y-40681352D01*
X265158773Y-40675742D01*
X265081039Y-40674119D01*
X265010750Y-40675365D01*
X264932633Y-40680273D01*
X264857191Y-40689873D01*
X264845599Y-40691939D01*
X264771828Y-40709290D01*
X264703318Y-40735302D01*
X264668842Y-40755066D01*
X264614658Y-40807109D01*
X264602155Y-40828839D01*
X264586081Y-40901998D01*
X264494905Y-40901998D01*
X264510116Y-40831842D01*
X264542850Y-40763512D01*
X264566705Y-40729514D01*
X264620216Y-40672236D01*
X264680237Y-40626125D01*
X264737066Y-40592874D01*
X264806025Y-40561999D01*
X264881737Y-40537099D01*
X264896171Y-40533239D01*
X264969974Y-40517676D01*
X265046495Y-40508338D01*
X265125736Y-40505225D01*
X265141846Y-40505324D01*
G37*
G36*
X265312581Y-42272933D02*
G01*
X265388366Y-42267674D01*
X265461205Y-42251896D01*
X265481475Y-42245456D01*
X265552933Y-42214565D01*
X265616179Y-42172727D01*
X265623991Y-42166321D01*
X265676220Y-42112236D01*
X265717500Y-42047524D01*
X265722177Y-42038093D01*
X265746971Y-41967488D01*
X265757561Y-41894894D01*
X265758447Y-41865169D01*
X265753186Y-41787542D01*
X265737405Y-41710641D01*
X265726573Y-41675393D01*
X265695816Y-41605618D01*
X265655583Y-41542653D01*
X265614099Y-41491844D01*
X265545223Y-41528114D01*
X265586983Y-41592486D01*
X265606406Y-41627399D01*
X265637382Y-41696031D01*
X265642676Y-41710564D01*
X265660261Y-41780539D01*
X265664658Y-41842455D01*
X265655358Y-41915694D01*
X265638279Y-41958959D01*
X265593871Y-42019834D01*
X265568304Y-42042123D01*
X265501966Y-42079669D01*
X265467920Y-42091583D01*
X265395964Y-42105751D01*
X265351416Y-42108069D01*
X265274690Y-42102621D01*
X265220624Y-42090850D01*
X265150457Y-42061157D01*
X265119874Y-42039559D01*
X265071278Y-41983375D01*
X265055027Y-41951998D01*
X265034877Y-41878152D01*
X265031580Y-41826701D01*
X265036709Y-41777242D01*
X265052096Y-41719356D01*
X265077742Y-41658540D01*
X265114012Y-41601387D01*
X265079940Y-41552661D01*
X265006770Y-41564963D01*
X264994944Y-41566949D01*
X264919862Y-41579795D01*
X264893461Y-41584168D01*
X264818874Y-41596258D01*
X264784284Y-41601754D01*
X264708769Y-41612978D01*
X264675474Y-41617507D01*
X264602138Y-41626905D01*
X264575090Y-41629964D01*
X264501279Y-41636696D01*
X264492292Y-41637291D01*
X264492292Y-42086453D01*
X264492292Y-42138844D01*
X264492292Y-42178045D01*
X264468845Y-42211017D01*
X264501085Y-42241059D01*
X264538087Y-42214681D01*
X264575457Y-42184273D01*
X264608063Y-42153865D01*
X264632976Y-42126754D01*
X264632976Y-41727783D01*
X264706288Y-41721139D01*
X264709180Y-41720822D01*
X264782649Y-41711690D01*
X264803702Y-41708732D01*
X264878659Y-41697532D01*
X264894926Y-41694810D01*
X264960139Y-41683819D01*
X264946794Y-41756877D01*
X264944019Y-41780539D01*
X264938399Y-41855551D01*
X264937791Y-41888617D01*
X264943751Y-41966405D01*
X264963367Y-42040255D01*
X264968932Y-42053847D01*
X265004927Y-42119793D01*
X265051364Y-42174015D01*
X265110799Y-42218883D01*
X265170799Y-42247654D01*
X265244570Y-42267378D01*
X265312581Y-42272933D01*
G37*
G36*
X265305738Y-42512125D02*
G01*
X265378939Y-42522055D01*
X265453265Y-42541478D01*
X265482256Y-42552020D01*
X265551437Y-42584871D01*
X265615931Y-42629039D01*
X265628310Y-42639641D01*
X265679180Y-42693377D01*
X265721078Y-42758732D01*
X265725603Y-42768068D01*
X265750236Y-42840647D01*
X265758447Y-42917734D01*
X265756066Y-42959931D01*
X265738297Y-43034238D01*
X265724608Y-43066631D01*
X265685174Y-43130592D01*
X265663335Y-43156344D01*
X265608237Y-43205696D01*
X265580295Y-43225038D01*
X265515547Y-43260285D01*
X265487817Y-43271928D01*
X265415896Y-43293257D01*
X265393810Y-43297540D01*
X265318077Y-43304248D01*
X265244865Y-43299016D01*
X265170066Y-43280435D01*
X265119513Y-43257816D01*
X265057592Y-43211925D01*
X265021017Y-43168958D01*
X264986151Y-43102382D01*
X264966712Y-43028209D01*
X264961238Y-42954004D01*
X264965152Y-42911506D01*
X265055027Y-42911506D01*
X265055153Y-42918682D01*
X265069316Y-42991373D01*
X265075335Y-43006791D01*
X265119874Y-43067943D01*
X265150837Y-43092621D01*
X265219159Y-43126195D01*
X265231280Y-43130386D01*
X265306258Y-43145773D01*
X265379993Y-43149643D01*
X265404150Y-43149047D01*
X265478545Y-43140117D01*
X265500225Y-43135479D01*
X265570502Y-43108610D01*
X265582976Y-43101383D01*
X265638279Y-43049992D01*
X265649820Y-43030643D01*
X265664658Y-42958034D01*
X265660639Y-42911546D01*
X265636081Y-42841164D01*
X265605186Y-42798268D01*
X265548154Y-42751771D01*
X265540570Y-42747211D01*
X265471350Y-42715475D01*
X265398311Y-42694618D01*
X265332367Y-42683146D01*
X265258457Y-42676436D01*
X265184354Y-42674468D01*
X265180020Y-42678091D01*
X265124453Y-42733728D01*
X265084703Y-42795735D01*
X265067808Y-42838010D01*
X265055027Y-42911506D01*
X264965152Y-42911506D01*
X264966367Y-42898317D01*
X264982854Y-42830906D01*
X264984303Y-42826455D01*
X265013262Y-42757633D01*
X265019439Y-42745885D01*
X265060523Y-42683994D01*
X265026430Y-42690691D01*
X264953356Y-42711565D01*
X264881371Y-42741146D01*
X264843586Y-42760646D01*
X264777043Y-42803371D01*
X264719804Y-42850323D01*
X264679596Y-42890357D01*
X264630403Y-42950318D01*
X264589745Y-43011890D01*
X264554541Y-43080077D01*
X264526005Y-43154672D01*
X264505847Y-43228045D01*
X264445397Y-43208261D01*
X264447047Y-43197110D01*
X264461220Y-43121662D01*
X264483041Y-43041016D01*
X264510862Y-42966323D01*
X264544682Y-42897584D01*
X264568403Y-42857679D01*
X264615247Y-42791305D01*
X264667424Y-42731945D01*
X264724933Y-42679597D01*
X264758893Y-42653669D01*
X264823268Y-42612498D01*
X264891815Y-42578398D01*
X264964535Y-42551370D01*
X265006285Y-42539338D01*
X265082966Y-42522819D01*
X265161617Y-42512908D01*
X265242240Y-42509604D01*
X265305738Y-42512125D01*
G37*
G36*
X265339326Y-44231150D02*
G01*
X265412586Y-44225820D01*
X265487188Y-44208282D01*
X265501625Y-44203306D01*
X265568880Y-44171326D01*
X265627764Y-44127593D01*
X265634982Y-44120874D01*
X265683330Y-44064063D01*
X265721214Y-43995981D01*
X265725474Y-43986052D01*
X265748014Y-43910869D01*
X265757642Y-43832140D01*
X265758447Y-43799573D01*
X265753031Y-43725024D01*
X265751852Y-43717141D01*
X265733943Y-43644739D01*
X265729138Y-43631045D01*
X265696893Y-43562030D01*
X265685540Y-43542385D01*
X265642542Y-43482932D01*
X265614099Y-43451160D01*
X265545223Y-43486331D01*
X265589009Y-43548715D01*
X265602742Y-43570962D01*
X265636691Y-43637739D01*
X265639378Y-43644234D01*
X265659162Y-43712744D01*
X265664658Y-43786017D01*
X265656930Y-43860206D01*
X265644874Y-43900323D01*
X265609202Y-43964425D01*
X265587721Y-43988983D01*
X265526391Y-44033617D01*
X265497962Y-44046136D01*
X265423197Y-44063905D01*
X265379626Y-44066286D01*
X265304395Y-44059462D01*
X265248834Y-44042106D01*
X265184307Y-44002451D01*
X265161273Y-43980190D01*
X265120236Y-43915987D01*
X265112913Y-43895927D01*
X265098611Y-43823548D01*
X265097892Y-43803603D01*
X265097892Y-43781987D01*
X265098991Y-43769897D01*
X265100823Y-43756708D01*
X265104853Y-43733627D01*
X265043304Y-43719339D01*
X265021137Y-43789910D01*
X264990202Y-43859668D01*
X264983953Y-43870647D01*
X264940819Y-43931327D01*
X264913977Y-43957842D01*
X264850144Y-43995068D01*
X264841071Y-43997776D01*
X264772927Y-44007668D01*
X264700387Y-43996677D01*
X264634173Y-43964058D01*
X264632243Y-43962605D01*
X264583276Y-43906539D01*
X264582051Y-43904353D01*
X264562937Y-43832225D01*
X264562634Y-43820089D01*
X264576922Y-43746450D01*
X264616123Y-43692228D01*
X264672909Y-43661820D01*
X264739588Y-43659255D01*
X264767065Y-43592211D01*
X264779698Y-43518765D01*
X264779888Y-43516007D01*
X264748014Y-43488530D01*
X264677112Y-43507984D01*
X264656057Y-43520403D01*
X264597696Y-43568689D01*
X264565565Y-43605766D01*
X264525507Y-43667458D01*
X264496688Y-43729964D01*
X264475806Y-43802504D01*
X264468845Y-43878707D01*
X264475772Y-43954535D01*
X264493391Y-44010965D01*
X264532393Y-44075211D01*
X264558237Y-44102190D01*
X264621131Y-44144297D01*
X264648729Y-44155313D01*
X264722164Y-44171170D01*
X264751311Y-44172532D01*
X264825522Y-44158091D01*
X264827882Y-44157144D01*
X264891314Y-44120119D01*
X264900055Y-44113181D01*
X264953227Y-44059116D01*
X264964535Y-44044304D01*
X265003071Y-43980736D01*
X265016193Y-43953079D01*
X265034803Y-44026703D01*
X265051730Y-44062622D01*
X265094902Y-44123788D01*
X265122805Y-44150916D01*
X265184910Y-44192856D01*
X265221723Y-44209534D01*
X265293765Y-44228110D01*
X265339326Y-44231150D01*
G37*
D11*
G36*
X122256431Y-56453933D02*
G01*
X122349398Y-56399931D01*
X122435411Y-56339593D01*
X122514468Y-56272917D01*
X122555384Y-56233137D01*
X122623502Y-56157107D01*
X122684974Y-56075744D01*
X122739800Y-55989048D01*
X122767387Y-55938580D01*
X122811797Y-55843663D01*
X122849407Y-55744110D01*
X122880215Y-55639919D01*
X122894393Y-55580032D01*
X122912772Y-55481358D01*
X122925900Y-55379753D01*
X122933777Y-55275217D01*
X122936403Y-55167750D01*
X122933441Y-55056558D01*
X122924557Y-54948176D01*
X122909750Y-54842602D01*
X122889020Y-54739836D01*
X122862794Y-54640246D01*
X122831500Y-54544686D01*
X122795139Y-54453156D01*
X122753709Y-54365656D01*
X122701197Y-54271993D01*
X122642581Y-54183894D01*
X122577859Y-54101359D01*
X122539264Y-54057910D01*
X122465741Y-53984413D01*
X122387503Y-53917793D01*
X122304552Y-53858051D01*
X122256431Y-53827834D01*
X122182181Y-53930904D01*
X122252452Y-54009069D01*
X122314188Y-54093037D01*
X122337031Y-54128252D01*
X122388345Y-54219454D01*
X122430917Y-54311383D01*
X122462572Y-54392523D01*
X122493751Y-54488865D01*
X122520732Y-54592268D01*
X122541426Y-54691367D01*
X122547568Y-54725670D01*
X122562917Y-54832042D01*
X122572343Y-54931266D01*
X122577800Y-55034886D01*
X122579320Y-55129159D01*
X122577732Y-55228047D01*
X122572151Y-55336304D01*
X122562551Y-55441392D01*
X122553918Y-55509690D01*
X122537660Y-55609149D01*
X122517459Y-55704744D01*
X122490392Y-55806430D01*
X122478203Y-55845768D01*
X122444419Y-55940393D01*
X122401858Y-56038089D01*
X122353639Y-56129090D01*
X122299880Y-56212817D01*
X122235045Y-56295203D01*
X122182181Y-56350862D01*
X122256431Y-56453933D01*
G37*
G36*
X121142683Y-55794477D02*
G01*
X121230519Y-55855782D01*
X121320941Y-55914240D01*
X121410986Y-55966142D01*
X121451895Y-55986940D01*
X121545822Y-56026159D01*
X121641889Y-56047276D01*
X121651197Y-56047513D01*
X121749665Y-56030309D01*
X121763060Y-56025042D01*
X121844912Y-55968248D01*
X121854895Y-55957143D01*
X121906415Y-55871085D01*
X121917422Y-55841860D01*
X121937572Y-55745422D01*
X121940869Y-55678217D01*
X121940869Y-54922042D01*
X122106954Y-54922042D01*
X122147010Y-54867820D01*
X122040032Y-54734463D01*
X121940869Y-54734463D01*
X121940869Y-54442349D01*
X121663409Y-54234254D01*
X121611141Y-54280171D01*
X121611141Y-54734463D01*
X121192020Y-54734463D01*
X121142683Y-54788685D01*
X121173458Y-54841930D01*
X121211560Y-54895663D01*
X121249173Y-54941581D01*
X121281413Y-54969913D01*
X121323423Y-54953793D01*
X121380576Y-54938162D01*
X121447010Y-54926438D01*
X121519306Y-54922042D01*
X121611141Y-54922042D01*
X121611141Y-55550234D01*
X121605659Y-55647821D01*
X121602837Y-55666494D01*
X121578901Y-55743186D01*
X121541776Y-55784707D01*
X121494393Y-55797408D01*
X121443102Y-55792523D01*
X121382041Y-55776892D01*
X121304372Y-55745628D01*
X121213939Y-55700101D01*
X121203256Y-55694337D01*
X121142683Y-55794477D01*
G37*
G36*
X120207233Y-56016250D02*
G01*
X120207233Y-55916598D01*
X120110378Y-55888265D01*
X120067526Y-55871658D01*
X120026005Y-55833067D01*
X120026005Y-55233207D01*
X120030392Y-55132877D01*
X120035286Y-55096431D01*
X120062641Y-55010946D01*
X120111002Y-54966494D01*
X120181343Y-54953305D01*
X120277618Y-54970698D01*
X120345475Y-55002642D01*
X120430604Y-55057883D01*
X120513934Y-55121038D01*
X120541357Y-55143326D01*
X120541357Y-55833067D01*
X120494463Y-55875566D01*
X120400490Y-55906890D01*
X120358664Y-55916598D01*
X120358664Y-56016250D01*
X121052313Y-56016250D01*
X121052313Y-55916110D01*
X120956677Y-55888709D01*
X120916514Y-55874100D01*
X120871085Y-55832579D01*
X120871085Y-54277240D01*
X120874505Y-54187359D01*
X120895021Y-54137534D01*
X120949243Y-54112132D01*
X121048220Y-54096531D01*
X121052313Y-54096012D01*
X121052313Y-54000269D01*
X120954250Y-53985052D01*
X120914560Y-53978287D01*
X120817651Y-53958285D01*
X120801232Y-53954351D01*
X120707093Y-53927904D01*
X120701092Y-53926019D01*
X120608270Y-53892903D01*
X120601930Y-53890360D01*
X120541357Y-53947024D01*
X120541357Y-54947931D01*
X120463688Y-54887695D01*
X120379230Y-54830658D01*
X120289013Y-54780607D01*
X120245335Y-54760841D01*
X120146050Y-54725716D01*
X120048414Y-54705958D01*
X120000115Y-54703200D01*
X119900044Y-54717412D01*
X119886298Y-54721762D01*
X119799798Y-54771825D01*
X119789089Y-54781846D01*
X119733586Y-54862525D01*
X119721678Y-54890778D01*
X119699279Y-54991026D01*
X119696277Y-55053444D01*
X119696277Y-55833067D01*
X119687973Y-55851630D01*
X119659152Y-55870192D01*
X119602976Y-55891197D01*
X119513584Y-55916598D01*
X119513584Y-56016250D01*
X120207233Y-56016250D01*
G37*
G36*
X118747821Y-54703240D02*
G01*
X118845824Y-54713458D01*
X118852285Y-54714767D01*
X118946452Y-54740813D01*
X118949501Y-54741859D01*
X119040241Y-54781358D01*
X119120353Y-54830695D01*
X119137724Y-54843622D01*
X119216340Y-54913241D01*
X119281217Y-54991160D01*
X119332355Y-55077380D01*
X119345013Y-55104843D01*
X119378215Y-55201472D01*
X119397583Y-55305924D01*
X119403186Y-55406619D01*
X119401012Y-55468426D01*
X119387170Y-55568615D01*
X119357757Y-55668936D01*
X119345896Y-55697848D01*
X119296448Y-55790867D01*
X119234658Y-55871169D01*
X119214836Y-55891586D01*
X119139089Y-55953790D01*
X119053430Y-56001595D01*
X119027334Y-56012357D01*
X118932753Y-56038724D01*
X118833123Y-56047513D01*
X118782910Y-56046368D01*
X118682181Y-56035789D01*
X118639085Y-56026506D01*
X118543939Y-55992314D01*
X118482030Y-55959335D01*
X118398859Y-55902921D01*
X118379633Y-55888037D01*
X118302231Y-55821619D01*
X118228378Y-55750513D01*
X118239613Y-55732439D01*
X118258175Y-55706061D01*
X118280157Y-55679194D01*
X118299697Y-55662586D01*
X118352848Y-55698378D01*
X118439892Y-55751002D01*
X118454485Y-55758840D01*
X118546382Y-55801316D01*
X118634309Y-55823786D01*
X118717840Y-55828671D01*
X118766708Y-55825284D01*
X118861455Y-55793989D01*
X118898721Y-55769335D01*
X118967945Y-55696291D01*
X119000360Y-55641619D01*
X119035844Y-55547792D01*
X119054529Y-55457788D01*
X119062711Y-55359725D01*
X118413025Y-55359725D01*
X118362711Y-55338720D01*
X118307024Y-55310388D01*
X118256221Y-55279613D01*
X118220562Y-55250304D01*
X118220592Y-55243566D01*
X118225369Y-55182893D01*
X118548824Y-55182893D01*
X118559082Y-55223926D01*
X118601092Y-55234672D01*
X119058315Y-55234672D01*
X119051394Y-55177250D01*
X119031448Y-55078845D01*
X119022673Y-55049480D01*
X118980646Y-54960632D01*
X118974476Y-54951587D01*
X118901999Y-54885405D01*
X118886916Y-54877947D01*
X118790625Y-54859515D01*
X118769227Y-54860362D01*
X118673877Y-54894198D01*
X118662451Y-54903105D01*
X118599138Y-54978706D01*
X118592330Y-54991254D01*
X118560059Y-55084219D01*
X118548824Y-55182893D01*
X118225369Y-55182893D01*
X118228378Y-55144669D01*
X118251825Y-55043674D01*
X118290904Y-54950496D01*
X118346591Y-54869285D01*
X118418765Y-54801508D01*
X118508280Y-54748629D01*
X118539857Y-54735542D01*
X118637791Y-54710698D01*
X118741288Y-54703200D01*
X118747821Y-54703240D01*
G37*
G36*
X115618399Y-54395942D02*
G01*
X115715072Y-54416653D01*
X115764944Y-54430625D01*
X115831378Y-54485335D01*
X116347708Y-55895594D01*
X116389717Y-55949815D01*
X116460059Y-55994268D01*
X116541148Y-56026508D01*
X116615886Y-56047513D01*
X117241148Y-54485335D01*
X117297324Y-54428671D01*
X117393993Y-54400367D01*
X117424819Y-54395942D01*
X117424819Y-54296780D01*
X116724330Y-54296780D01*
X116724330Y-54395942D01*
X116824485Y-54408599D01*
X116869899Y-54423786D01*
X116890415Y-54482893D01*
X116443939Y-55618622D01*
X116036054Y-54485335D01*
X116034100Y-54451630D01*
X116059501Y-54427694D01*
X116117142Y-54410109D01*
X116210443Y-54395942D01*
X116210443Y-54296780D01*
X115618399Y-54296780D01*
X115618399Y-54395942D01*
G37*
G36*
X114613095Y-54322670D02*
G01*
X114692718Y-54351490D01*
X114773807Y-54379334D01*
X114846103Y-54403758D01*
X115507024Y-55491127D01*
X115450848Y-55547303D01*
X114799697Y-55547303D01*
X114799697Y-55813039D01*
X114811420Y-55836975D01*
X114854895Y-55860423D01*
X114942823Y-55885335D01*
X114989557Y-55895571D01*
X115087903Y-55914156D01*
X115087903Y-56016250D01*
X114292648Y-56016250D01*
X114292648Y-55914156D01*
X114385949Y-55890220D01*
X114445056Y-55868727D01*
X114475342Y-55849187D01*
X114483646Y-55828671D01*
X114483646Y-55547303D01*
X114407931Y-55547303D01*
X114336612Y-55483800D01*
X114329200Y-55476089D01*
X114267736Y-55399781D01*
X114303884Y-55359725D01*
X114483646Y-55359725D01*
X114799697Y-55359725D01*
X115237868Y-55359725D01*
X114799697Y-54662656D01*
X114799697Y-55359725D01*
X114483646Y-55359725D01*
X114483646Y-54354910D01*
X114544219Y-54296780D01*
X114613095Y-54322670D01*
G37*
G36*
X114107024Y-56016250D02*
G01*
X114107024Y-55916598D01*
X114007912Y-55897275D01*
X113962921Y-55878497D01*
X113918957Y-55833556D01*
X113918957Y-54496082D01*
X113998952Y-54435895D01*
X114094726Y-54398709D01*
X114107024Y-54396431D01*
X114107024Y-54296780D01*
X113723563Y-54296780D01*
X113689857Y-54300199D01*
X113662990Y-54314365D01*
X113633681Y-54346117D01*
X113591671Y-54402781D01*
X112750988Y-55553654D01*
X112750988Y-54479962D01*
X112760269Y-54460423D01*
X112790555Y-54437464D01*
X112848196Y-54414993D01*
X112939055Y-54395942D01*
X112939055Y-54296780D01*
X112355314Y-54296780D01*
X112355314Y-54395942D01*
X112454127Y-54416490D01*
X112499906Y-54435510D01*
X112544847Y-54479962D01*
X112544847Y-56047513D01*
X112643382Y-56033944D01*
X112740972Y-56003963D01*
X112756361Y-55996710D01*
X112839289Y-55942633D01*
X112873109Y-55906340D01*
X113712816Y-54758399D01*
X113712816Y-55833067D01*
X113703046Y-55853095D01*
X113670806Y-55876054D01*
X113612676Y-55899013D01*
X113523283Y-55916598D01*
X113523283Y-56016250D01*
X114107024Y-56016250D01*
G37*
G36*
X111518050Y-55112551D02*
G01*
X111521011Y-55223773D01*
X111529895Y-55332247D01*
X111544703Y-55437974D01*
X111565433Y-55540953D01*
X111591658Y-55640390D01*
X111622952Y-55735981D01*
X111659314Y-55827725D01*
X111700743Y-55915621D01*
X111753255Y-56009521D01*
X111811872Y-56097779D01*
X111876594Y-56180395D01*
X111915189Y-56223856D01*
X111988514Y-56297353D01*
X112066709Y-56363973D01*
X112149772Y-56423715D01*
X112198022Y-56453933D01*
X112272272Y-56350862D01*
X112202094Y-56272697D01*
X112140612Y-56188729D01*
X112117910Y-56153514D01*
X112066299Y-56062243D01*
X112023574Y-55970131D01*
X111991881Y-55888755D01*
X111960492Y-55791993D01*
X111933491Y-55688552D01*
X111912944Y-55589745D01*
X111906884Y-55555607D01*
X111891536Y-55449356D01*
X111882109Y-55349980D01*
X111876652Y-55245963D01*
X111875133Y-55151141D01*
X111876720Y-55052864D01*
X111882302Y-54945003D01*
X111891901Y-54840001D01*
X111900534Y-54771588D01*
X111916793Y-54671695D01*
X111936993Y-54575898D01*
X111964060Y-54474260D01*
X111976249Y-54435021D01*
X112009775Y-54340396D01*
X112052164Y-54242700D01*
X112100325Y-54151700D01*
X112154142Y-54067867D01*
X112219172Y-53985893D01*
X112272272Y-53930904D01*
X112198022Y-53827834D01*
X112105526Y-53881835D01*
X112019831Y-53942174D01*
X111940937Y-54008849D01*
X111900045Y-54048629D01*
X111831455Y-54124660D01*
X111769666Y-54206023D01*
X111714677Y-54292718D01*
X111687066Y-54343186D01*
X111642655Y-54437631D01*
X111605046Y-54536867D01*
X111574237Y-54640894D01*
X111560059Y-54700758D01*
X111541680Y-54799218D01*
X111528552Y-54900670D01*
X111520675Y-55005115D01*
X111518050Y-55112551D01*
G37*
D10*
X32998569Y-50982738D02*
X31998569Y-50982738D01*
X32379521Y-50982738D02*
X32331902Y-51077976D01*
X32331902Y-51077976D02*
X32331902Y-51268452D01*
X32331902Y-51268452D02*
X32379521Y-51363690D01*
X32379521Y-51363690D02*
X32427140Y-51411309D01*
X32427140Y-51411309D02*
X32522378Y-51458928D01*
X32522378Y-51458928D02*
X32808092Y-51458928D01*
X32808092Y-51458928D02*
X32903330Y-51411309D01*
X32903330Y-51411309D02*
X32950950Y-51363690D01*
X32950950Y-51363690D02*
X32998569Y-51268452D01*
X32998569Y-51268452D02*
X32998569Y-51077976D01*
X32998569Y-51077976D02*
X32950950Y-50982738D01*
X32998569Y-52030357D02*
X32950950Y-51935119D01*
X32950950Y-51935119D02*
X32903330Y-51887500D01*
X32903330Y-51887500D02*
X32808092Y-51839881D01*
X32808092Y-51839881D02*
X32522378Y-51839881D01*
X32522378Y-51839881D02*
X32427140Y-51887500D01*
X32427140Y-51887500D02*
X32379521Y-51935119D01*
X32379521Y-51935119D02*
X32331902Y-52030357D01*
X32331902Y-52030357D02*
X32331902Y-52173214D01*
X32331902Y-52173214D02*
X32379521Y-52268452D01*
X32379521Y-52268452D02*
X32427140Y-52316071D01*
X32427140Y-52316071D02*
X32522378Y-52363690D01*
X32522378Y-52363690D02*
X32808092Y-52363690D01*
X32808092Y-52363690D02*
X32903330Y-52316071D01*
X32903330Y-52316071D02*
X32950950Y-52268452D01*
X32950950Y-52268452D02*
X32998569Y-52173214D01*
X32998569Y-52173214D02*
X32998569Y-52030357D01*
X32998569Y-52935119D02*
X32950950Y-52839881D01*
X32950950Y-52839881D02*
X32903330Y-52792262D01*
X32903330Y-52792262D02*
X32808092Y-52744643D01*
X32808092Y-52744643D02*
X32522378Y-52744643D01*
X32522378Y-52744643D02*
X32427140Y-52792262D01*
X32427140Y-52792262D02*
X32379521Y-52839881D01*
X32379521Y-52839881D02*
X32331902Y-52935119D01*
X32331902Y-52935119D02*
X32331902Y-53077976D01*
X32331902Y-53077976D02*
X32379521Y-53173214D01*
X32379521Y-53173214D02*
X32427140Y-53220833D01*
X32427140Y-53220833D02*
X32522378Y-53268452D01*
X32522378Y-53268452D02*
X32808092Y-53268452D01*
X32808092Y-53268452D02*
X32903330Y-53220833D01*
X32903330Y-53220833D02*
X32950950Y-53173214D01*
X32950950Y-53173214D02*
X32998569Y-53077976D01*
X32998569Y-53077976D02*
X32998569Y-52935119D01*
X32331902Y-53554167D02*
X32331902Y-53935119D01*
X31998569Y-53697024D02*
X32855711Y-53697024D01*
X32855711Y-53697024D02*
X32950950Y-53744643D01*
X32950950Y-53744643D02*
X32998569Y-53839881D01*
X32998569Y-53839881D02*
X32998569Y-53935119D01*
X63838930Y-54006547D02*
X64505597Y-54006547D01*
X64315121Y-54006547D02*
X64410359Y-53958928D01*
X64410359Y-53958928D02*
X64457978Y-53911309D01*
X64457978Y-53911309D02*
X64505597Y-53816071D01*
X64505597Y-53816071D02*
X64505597Y-53720833D01*
X63886550Y-53006547D02*
X63838930Y-53101785D01*
X63838930Y-53101785D02*
X63838930Y-53292261D01*
X63838930Y-53292261D02*
X63886550Y-53387499D01*
X63886550Y-53387499D02*
X63981788Y-53435118D01*
X63981788Y-53435118D02*
X64362740Y-53435118D01*
X64362740Y-53435118D02*
X64457978Y-53387499D01*
X64457978Y-53387499D02*
X64505597Y-53292261D01*
X64505597Y-53292261D02*
X64505597Y-53101785D01*
X64505597Y-53101785D02*
X64457978Y-53006547D01*
X64457978Y-53006547D02*
X64362740Y-52958928D01*
X64362740Y-52958928D02*
X64267502Y-52958928D01*
X64267502Y-52958928D02*
X64172264Y-53435118D01*
X63886550Y-52577975D02*
X63838930Y-52482737D01*
X63838930Y-52482737D02*
X63838930Y-52292261D01*
X63838930Y-52292261D02*
X63886550Y-52197023D01*
X63886550Y-52197023D02*
X63981788Y-52149404D01*
X63981788Y-52149404D02*
X64029407Y-52149404D01*
X64029407Y-52149404D02*
X64124645Y-52197023D01*
X64124645Y-52197023D02*
X64172264Y-52292261D01*
X64172264Y-52292261D02*
X64172264Y-52435118D01*
X64172264Y-52435118D02*
X64219883Y-52530356D01*
X64219883Y-52530356D02*
X64315121Y-52577975D01*
X64315121Y-52577975D02*
X64362740Y-52577975D01*
X64362740Y-52577975D02*
X64457978Y-52530356D01*
X64457978Y-52530356D02*
X64505597Y-52435118D01*
X64505597Y-52435118D02*
X64505597Y-52292261D01*
X64505597Y-52292261D02*
X64457978Y-52197023D01*
X63886550Y-51339880D02*
X63838930Y-51435118D01*
X63838930Y-51435118D02*
X63838930Y-51625594D01*
X63838930Y-51625594D02*
X63886550Y-51720832D01*
X63886550Y-51720832D02*
X63981788Y-51768451D01*
X63981788Y-51768451D02*
X64362740Y-51768451D01*
X64362740Y-51768451D02*
X64457978Y-51720832D01*
X64457978Y-51720832D02*
X64505597Y-51625594D01*
X64505597Y-51625594D02*
X64505597Y-51435118D01*
X64505597Y-51435118D02*
X64457978Y-51339880D01*
X64457978Y-51339880D02*
X64362740Y-51292261D01*
X64362740Y-51292261D02*
X64267502Y-51292261D01*
X64267502Y-51292261D02*
X64172264Y-51768451D01*
X64505597Y-51006546D02*
X64505597Y-50625594D01*
X64838930Y-50863689D02*
X63981788Y-50863689D01*
X63981788Y-50863689D02*
X63886550Y-50816070D01*
X63886550Y-50816070D02*
X63838930Y-50720832D01*
X63838930Y-50720832D02*
X63838930Y-50625594D01*
X59257738Y-14643545D02*
X59257738Y-15214973D01*
X59257738Y-15214973D02*
X59295833Y-15329259D01*
X59295833Y-15329259D02*
X59372024Y-15405450D01*
X59372024Y-15405450D02*
X59486309Y-15443545D01*
X59486309Y-15443545D02*
X59562500Y-15443545D01*
X58495833Y-15443545D02*
X58876785Y-15443545D01*
X58876785Y-15443545D02*
X58876785Y-14643545D01*
X57772023Y-15367354D02*
X57810119Y-15405450D01*
X57810119Y-15405450D02*
X57924404Y-15443545D01*
X57924404Y-15443545D02*
X58000595Y-15443545D01*
X58000595Y-15443545D02*
X58114881Y-15405450D01*
X58114881Y-15405450D02*
X58191071Y-15329259D01*
X58191071Y-15329259D02*
X58229166Y-15253069D01*
X58229166Y-15253069D02*
X58267262Y-15100688D01*
X58267262Y-15100688D02*
X58267262Y-14986402D01*
X58267262Y-14986402D02*
X58229166Y-14834021D01*
X58229166Y-14834021D02*
X58191071Y-14757830D01*
X58191071Y-14757830D02*
X58114881Y-14681640D01*
X58114881Y-14681640D02*
X58000595Y-14643545D01*
X58000595Y-14643545D02*
X57924404Y-14643545D01*
X57924404Y-14643545D02*
X57810119Y-14681640D01*
X57810119Y-14681640D02*
X57772023Y-14719735D01*
X57200595Y-14643545D02*
X57200595Y-15214973D01*
X57200595Y-15214973D02*
X57238690Y-15329259D01*
X57238690Y-15329259D02*
X57314881Y-15405450D01*
X57314881Y-15405450D02*
X57429166Y-15443545D01*
X57429166Y-15443545D02*
X57505357Y-15443545D01*
X56438690Y-15443545D02*
X56819642Y-15443545D01*
X56819642Y-15443545D02*
X56819642Y-14643545D01*
X55714880Y-15367354D02*
X55752976Y-15405450D01*
X55752976Y-15405450D02*
X55867261Y-15443545D01*
X55867261Y-15443545D02*
X55943452Y-15443545D01*
X55943452Y-15443545D02*
X56057738Y-15405450D01*
X56057738Y-15405450D02*
X56133928Y-15329259D01*
X56133928Y-15329259D02*
X56172023Y-15253069D01*
X56172023Y-15253069D02*
X56210119Y-15100688D01*
X56210119Y-15100688D02*
X56210119Y-14986402D01*
X56210119Y-14986402D02*
X56172023Y-14834021D01*
X56172023Y-14834021D02*
X56133928Y-14757830D01*
X56133928Y-14757830D02*
X56057738Y-14681640D01*
X56057738Y-14681640D02*
X55943452Y-14643545D01*
X55943452Y-14643545D02*
X55867261Y-14643545D01*
X55867261Y-14643545D02*
X55752976Y-14681640D01*
X55752976Y-14681640D02*
X55714880Y-14719735D01*
X55143452Y-14643545D02*
X55143452Y-15214973D01*
X55143452Y-15214973D02*
X55181547Y-15329259D01*
X55181547Y-15329259D02*
X55257738Y-15405450D01*
X55257738Y-15405450D02*
X55372023Y-15443545D01*
X55372023Y-15443545D02*
X55448214Y-15443545D01*
X54381547Y-15443545D02*
X54762499Y-15443545D01*
X54762499Y-15443545D02*
X54762499Y-14643545D01*
X53657737Y-15367354D02*
X53695833Y-15405450D01*
X53695833Y-15405450D02*
X53810118Y-15443545D01*
X53810118Y-15443545D02*
X53886309Y-15443545D01*
X53886309Y-15443545D02*
X54000595Y-15405450D01*
X54000595Y-15405450D02*
X54076785Y-15329259D01*
X54076785Y-15329259D02*
X54114880Y-15253069D01*
X54114880Y-15253069D02*
X54152976Y-15100688D01*
X54152976Y-15100688D02*
X54152976Y-14986402D01*
X54152976Y-14986402D02*
X54114880Y-14834021D01*
X54114880Y-14834021D02*
X54076785Y-14757830D01*
X54076785Y-14757830D02*
X54000595Y-14681640D01*
X54000595Y-14681640D02*
X53886309Y-14643545D01*
X53886309Y-14643545D02*
X53810118Y-14643545D01*
X53810118Y-14643545D02*
X53695833Y-14681640D01*
X53695833Y-14681640D02*
X53657737Y-14719735D01*
X53086309Y-14643545D02*
X53086309Y-15214973D01*
X53086309Y-15214973D02*
X53124404Y-15329259D01*
X53124404Y-15329259D02*
X53200595Y-15405450D01*
X53200595Y-15405450D02*
X53314880Y-15443545D01*
X53314880Y-15443545D02*
X53391071Y-15443545D01*
X52324404Y-15443545D02*
X52705356Y-15443545D01*
X52705356Y-15443545D02*
X52705356Y-14643545D01*
X51600594Y-15367354D02*
X51638690Y-15405450D01*
X51638690Y-15405450D02*
X51752975Y-15443545D01*
X51752975Y-15443545D02*
X51829166Y-15443545D01*
X51829166Y-15443545D02*
X51943452Y-15405450D01*
X51943452Y-15405450D02*
X52019642Y-15329259D01*
X52019642Y-15329259D02*
X52057737Y-15253069D01*
X52057737Y-15253069D02*
X52095833Y-15100688D01*
X52095833Y-15100688D02*
X52095833Y-14986402D01*
X52095833Y-14986402D02*
X52057737Y-14834021D01*
X52057737Y-14834021D02*
X52019642Y-14757830D01*
X52019642Y-14757830D02*
X51943452Y-14681640D01*
X51943452Y-14681640D02*
X51829166Y-14643545D01*
X51829166Y-14643545D02*
X51752975Y-14643545D01*
X51752975Y-14643545D02*
X51638690Y-14681640D01*
X51638690Y-14681640D02*
X51600594Y-14719735D01*
X40084225Y-55811069D02*
X39465178Y-55811069D01*
X39465178Y-55811069D02*
X39798511Y-56192021D01*
X39798511Y-56192021D02*
X39655654Y-56192021D01*
X39655654Y-56192021D02*
X39560416Y-56239640D01*
X39560416Y-56239640D02*
X39512797Y-56287259D01*
X39512797Y-56287259D02*
X39465178Y-56382497D01*
X39465178Y-56382497D02*
X39465178Y-56620592D01*
X39465178Y-56620592D02*
X39512797Y-56715830D01*
X39512797Y-56715830D02*
X39560416Y-56763450D01*
X39560416Y-56763450D02*
X39655654Y-56811069D01*
X39655654Y-56811069D02*
X39941368Y-56811069D01*
X39941368Y-56811069D02*
X40036606Y-56763450D01*
X40036606Y-56763450D02*
X40084225Y-56715830D01*
X39131844Y-56144402D02*
X38893749Y-56811069D01*
X38893749Y-56811069D02*
X38655654Y-56144402D01*
X38369939Y-55811069D02*
X37750892Y-55811069D01*
X37750892Y-55811069D02*
X38084225Y-56192021D01*
X38084225Y-56192021D02*
X37941368Y-56192021D01*
X37941368Y-56192021D02*
X37846130Y-56239640D01*
X37846130Y-56239640D02*
X37798511Y-56287259D01*
X37798511Y-56287259D02*
X37750892Y-56382497D01*
X37750892Y-56382497D02*
X37750892Y-56620592D01*
X37750892Y-56620592D02*
X37798511Y-56715830D01*
X37798511Y-56715830D02*
X37846130Y-56763450D01*
X37846130Y-56763450D02*
X37941368Y-56811069D01*
X37941368Y-56811069D02*
X38227082Y-56811069D01*
X38227082Y-56811069D02*
X38322320Y-56763450D01*
X38322320Y-56763450D02*
X38369939Y-56715830D01*
G36*
X268116250Y-36359813D02*
G01*
X268072286Y-36359813D01*
X268054414Y-36432189D01*
X268041145Y-36469356D01*
X268009637Y-36508923D01*
X266933992Y-36508923D01*
X266903584Y-36471188D01*
X266878996Y-36398543D01*
X266870611Y-36359813D01*
X266826647Y-36359813D01*
X266826647Y-36823264D01*
X266870977Y-36823264D01*
X266889107Y-36750759D01*
X266902851Y-36713354D01*
X266934725Y-36673787D01*
X267459358Y-36673787D01*
X266962568Y-37095472D01*
X266918238Y-37125148D01*
X266892593Y-37121118D01*
X266878671Y-37084848D01*
X266870977Y-37019269D01*
X266826647Y-37019269D01*
X266826647Y-37451945D01*
X266870977Y-37451945D01*
X266879404Y-37392960D01*
X266890028Y-37346798D01*
X266907247Y-37309063D01*
X266934725Y-37276823D01*
X267433713Y-36825462D01*
X267994250Y-37322985D01*
X268026490Y-37362552D01*
X268042244Y-37407981D01*
X268046640Y-37457807D01*
X268042977Y-37510563D01*
X268087307Y-37517890D01*
X268109332Y-37445412D01*
X268123210Y-37395525D01*
X268137378Y-37323626D01*
X268139697Y-37284883D01*
X268130171Y-37231760D01*
X268095367Y-37188162D01*
X267466686Y-36673787D01*
X268010370Y-36673787D01*
X268040778Y-36710790D01*
X268064354Y-36784002D01*
X268072652Y-36823264D01*
X268116250Y-36823264D01*
X268116250Y-36359813D01*
G37*
G36*
X267946440Y-37605268D02*
G01*
X268019529Y-37624502D01*
X268029822Y-37629803D01*
X268088406Y-37676526D01*
X268091692Y-37680495D01*
X268127240Y-37747234D01*
X268128007Y-37749682D01*
X268139697Y-37823438D01*
X268129439Y-37895978D01*
X268125205Y-37911095D01*
X268097931Y-37979876D01*
X268083434Y-38007761D01*
X268042977Y-38070368D01*
X268013596Y-38108172D01*
X267963476Y-38163424D01*
X268020302Y-38167906D01*
X268092802Y-38187971D01*
X268139697Y-38244757D01*
X268137911Y-38260992D01*
X268111120Y-38330853D01*
X268101226Y-38349455D01*
X268061346Y-38414172D01*
X268018430Y-38475567D01*
X267971169Y-38460179D01*
X267993884Y-38396432D01*
X267999013Y-38359429D01*
X267981061Y-38329387D01*
X267920245Y-38318030D01*
X267351281Y-38318030D01*
X267326076Y-38317068D01*
X267254044Y-38300659D01*
X267189714Y-38256481D01*
X267169918Y-38231708D01*
X267139654Y-38159680D01*
X267131462Y-38082091D01*
X267135809Y-38020251D01*
X267151246Y-37947636D01*
X267172772Y-37883987D01*
X267204369Y-37815744D01*
X267236275Y-37763842D01*
X267285335Y-37704736D01*
X267321348Y-37671969D01*
X267383887Y-37632929D01*
X267424187Y-37647217D01*
X267421989Y-37688982D01*
X267407701Y-37748700D01*
X267386818Y-37801090D01*
X267365569Y-37822339D01*
X267309515Y-37832597D01*
X267265552Y-37869600D01*
X267236609Y-37925287D01*
X267225252Y-37990500D01*
X267225161Y-37999829D01*
X267236243Y-38074398D01*
X267269948Y-38127154D01*
X267322338Y-38154998D01*
X267387551Y-38163424D01*
X267532631Y-38163424D01*
X267601141Y-38163424D01*
X267868221Y-38163424D01*
X267884599Y-38143961D01*
X267929998Y-38082604D01*
X267967506Y-38015413D01*
X267987905Y-37960362D01*
X267999013Y-37884255D01*
X267993884Y-37851648D01*
X267973734Y-37815012D01*
X267933067Y-37785336D01*
X267866023Y-37772880D01*
X267854133Y-37773137D01*
X267782125Y-37789366D01*
X267779912Y-37790407D01*
X267718744Y-37832597D01*
X267685771Y-37870699D01*
X267656462Y-37928218D01*
X267649524Y-37947590D01*
X267628985Y-38020542D01*
X267614376Y-38088967D01*
X267601141Y-38163424D01*
X267532631Y-38163424D01*
X267539140Y-38120452D01*
X267552466Y-38042932D01*
X267568535Y-37966687D01*
X267583781Y-37907338D01*
X267607370Y-37836261D01*
X267615128Y-37817473D01*
X267650234Y-37752730D01*
X267696762Y-37696676D01*
X267724646Y-37671736D01*
X267787254Y-37631097D01*
X267842005Y-37611637D01*
X267917680Y-37603986D01*
X267946440Y-37605268D01*
G37*
G36*
X267168465Y-39277904D02*
G01*
X267204002Y-39286331D01*
X267271780Y-39278271D01*
X267343911Y-39260414D01*
X267351647Y-39258121D01*
X267420524Y-39233574D01*
X267420524Y-39189244D01*
X267350548Y-39171659D01*
X267304753Y-39145280D01*
X267279840Y-39112308D01*
X267272146Y-39074938D01*
X267291197Y-39021816D01*
X267341086Y-38967199D01*
X267350915Y-38959167D01*
X267414072Y-38917491D01*
X267454962Y-38895786D01*
X267524296Y-38866202D01*
X267594731Y-38842871D01*
X267605538Y-38839733D01*
X268009271Y-38839733D01*
X268041145Y-38878201D01*
X268060894Y-38949499D01*
X268071919Y-39014122D01*
X268116250Y-39014122D01*
X268116250Y-38541146D01*
X268072286Y-38541146D01*
X268053195Y-38614275D01*
X268041878Y-38647025D01*
X268009637Y-38685127D01*
X267412464Y-38685127D01*
X267355677Y-38682929D01*
X267318308Y-38677800D01*
X267295594Y-38670106D01*
X267282404Y-38661680D01*
X267270681Y-38645560D01*
X267262987Y-38622845D01*
X267258224Y-38589139D01*
X267254561Y-38541146D01*
X267213528Y-38541146D01*
X267193628Y-38615644D01*
X267177991Y-38672304D01*
X267152927Y-38744354D01*
X267131462Y-38788442D01*
X267167366Y-38824345D01*
X267400374Y-38837901D01*
X267332711Y-38874423D01*
X267294861Y-38897985D01*
X267235626Y-38942674D01*
X267209132Y-38967594D01*
X267163244Y-39025159D01*
X267151979Y-39045263D01*
X267131963Y-39116592D01*
X267131462Y-39130259D01*
X267139522Y-39201334D01*
X267164662Y-39270757D01*
X267168465Y-39277904D01*
G37*
G36*
X268116250Y-39377189D02*
G01*
X268071919Y-39377189D01*
X268057745Y-39449326D01*
X268057265Y-39451195D01*
X268041511Y-39498456D01*
X268025758Y-39523735D01*
X268009271Y-39531795D01*
X266783050Y-39531795D01*
X266711243Y-39525567D01*
X266672408Y-39502852D01*
X266655189Y-39458522D01*
X266645297Y-39387447D01*
X266604264Y-39387447D01*
X266587970Y-39462666D01*
X266572390Y-39523368D01*
X266547738Y-39593719D01*
X266521832Y-39649398D01*
X266556637Y-39686400D01*
X268009271Y-39686400D01*
X268041145Y-39721205D01*
X268062775Y-39792769D01*
X268071919Y-39840640D01*
X268116250Y-39840640D01*
X268116250Y-39377189D01*
G37*
G36*
X268116250Y-39935528D02*
G01*
X268072286Y-39935528D01*
X268054414Y-40007904D01*
X268041145Y-40045071D01*
X268009637Y-40084638D01*
X266933992Y-40084638D01*
X266903584Y-40046903D01*
X266878996Y-39974258D01*
X266870611Y-39935528D01*
X266826647Y-39935528D01*
X266826647Y-40398979D01*
X266870977Y-40398979D01*
X266889107Y-40326474D01*
X266902851Y-40289070D01*
X266934725Y-40249502D01*
X267459358Y-40249502D01*
X266962568Y-40671188D01*
X266918238Y-40700863D01*
X266892593Y-40696833D01*
X266878671Y-40660563D01*
X266870977Y-40594984D01*
X266826647Y-40594984D01*
X266826647Y-41027660D01*
X266870977Y-41027660D01*
X266879404Y-40968675D01*
X266890028Y-40922513D01*
X266907247Y-40884778D01*
X266934725Y-40852538D01*
X267433713Y-40401177D01*
X267994250Y-40898700D01*
X268026490Y-40938267D01*
X268042244Y-40983696D01*
X268046640Y-41033522D01*
X268042977Y-41086278D01*
X268087307Y-41093606D01*
X268109332Y-41021128D01*
X268123210Y-40971240D01*
X268137378Y-40899341D01*
X268139697Y-40860598D01*
X268130171Y-40807475D01*
X268095367Y-40763878D01*
X267466686Y-40249502D01*
X268010370Y-40249502D01*
X268040778Y-40286505D01*
X268064354Y-40359718D01*
X268072652Y-40398979D01*
X268116250Y-40398979D01*
X268116250Y-39935528D01*
G37*
G36*
X267362730Y-41205370D02*
G01*
X267434446Y-41223665D01*
X267487640Y-41248499D01*
X267546553Y-41292175D01*
X267583979Y-41335322D01*
X267620559Y-41401718D01*
X267641427Y-41475295D01*
X267647303Y-41548630D01*
X267637778Y-41621170D01*
X267636511Y-41625879D01*
X267610300Y-41694443D01*
X267608074Y-41698875D01*
X267567802Y-41762953D01*
X267563011Y-41769090D01*
X267511382Y-41823770D01*
X267562696Y-41817061D01*
X267637005Y-41801072D01*
X267708120Y-41777974D01*
X267753251Y-41758305D01*
X267817084Y-41721674D01*
X267876281Y-41676491D01*
X267917284Y-41636731D01*
X267967448Y-41575422D01*
X268008905Y-41510895D01*
X268019425Y-41491947D01*
X268051653Y-41423998D01*
X268079517Y-41348678D01*
X268100862Y-41274590D01*
X268163144Y-41292908D01*
X268161499Y-41304081D01*
X268147597Y-41379690D01*
X268126599Y-41460519D01*
X268100152Y-41535395D01*
X268068256Y-41604317D01*
X268045689Y-41644424D01*
X268000966Y-41711027D01*
X267950969Y-41770442D01*
X267895698Y-41822671D01*
X267862661Y-41848608D01*
X267799407Y-41889840D01*
X267731285Y-41924059D01*
X267658294Y-41951264D01*
X267598561Y-41967824D01*
X267518618Y-41983138D01*
X267444589Y-41991106D01*
X267367767Y-41993763D01*
X267359265Y-41993732D01*
X267278450Y-41990040D01*
X267205292Y-41980194D01*
X267133661Y-41962255D01*
X267104047Y-41951890D01*
X267034922Y-41920086D01*
X266973193Y-41877992D01*
X266969265Y-41874702D01*
X266918238Y-41821846D01*
X266880136Y-41758190D01*
X266858573Y-41693946D01*
X266850095Y-41618606D01*
X266852302Y-41577530D01*
X266852536Y-41576474D01*
X266943884Y-41576474D01*
X266944429Y-41589359D01*
X266966232Y-41661104D01*
X266985276Y-41690377D01*
X267042069Y-41740971D01*
X267045447Y-41743226D01*
X267113489Y-41777950D01*
X267184585Y-41801421D01*
X267250943Y-41815448D01*
X267327603Y-41824279D01*
X267406236Y-41827800D01*
X267465678Y-41780264D01*
X267512848Y-41724119D01*
X267542037Y-41665375D01*
X267553514Y-41592960D01*
X267553398Y-41585784D01*
X267540325Y-41513093D01*
X267534593Y-41497662D01*
X267491598Y-41436156D01*
X267461236Y-41411650D01*
X267394146Y-41377904D01*
X267382159Y-41373779D01*
X267307787Y-41358633D01*
X267234411Y-41354823D01*
X267192422Y-41356598D01*
X267118273Y-41369844D01*
X267092467Y-41378179D01*
X267026316Y-41413075D01*
X267012358Y-41424105D01*
X266965866Y-41482318D01*
X266956249Y-41503728D01*
X266943884Y-41576474D01*
X266852536Y-41576474D01*
X266868779Y-41503201D01*
X266883227Y-41466624D01*
X266919704Y-41402084D01*
X266943211Y-41371344D01*
X266995541Y-41318187D01*
X267025998Y-41293586D01*
X267088231Y-41254073D01*
X267119501Y-41238996D01*
X267190813Y-41214139D01*
X267220315Y-41207410D01*
X267294128Y-41200218D01*
X267362730Y-41205370D01*
G37*
G36*
X267523096Y-42160557D02*
G01*
X267601971Y-42164013D01*
X267678056Y-42172407D01*
X267751351Y-42185737D01*
X267813770Y-42201899D01*
X267883843Y-42226925D01*
X267952485Y-42260842D01*
X267978522Y-42277109D01*
X268038098Y-42324843D01*
X268089139Y-42385040D01*
X268103704Y-42408853D01*
X268131353Y-42481622D01*
X268139697Y-42557231D01*
X268137919Y-42593308D01*
X268121873Y-42667321D01*
X268089139Y-42735650D01*
X268065319Y-42769934D01*
X268012059Y-42827556D01*
X267952485Y-42873770D01*
X267895848Y-42906986D01*
X267827020Y-42937738D01*
X267751351Y-42962430D01*
X267736915Y-42966245D01*
X267663063Y-42981630D01*
X267586420Y-42990860D01*
X267506986Y-42993937D01*
X267490786Y-42993838D01*
X267411502Y-42990382D01*
X267335081Y-42981989D01*
X267261522Y-42968658D01*
X267198748Y-42952468D01*
X267128400Y-42927327D01*
X267059655Y-42893187D01*
X267033636Y-42877017D01*
X266974273Y-42829367D01*
X266923734Y-42768989D01*
X266909274Y-42745281D01*
X266881826Y-42672713D01*
X266873542Y-42597165D01*
X266875319Y-42561088D01*
X266876155Y-42557231D01*
X266967331Y-42557231D01*
X266970945Y-42589581D01*
X267004334Y-42657981D01*
X267050221Y-42703777D01*
X267113877Y-42743710D01*
X267147188Y-42759180D01*
X267218262Y-42784096D01*
X267294494Y-42802695D01*
X267315130Y-42806689D01*
X267388289Y-42817165D01*
X267468173Y-42823275D01*
X267545820Y-42825043D01*
X267617230Y-42823826D01*
X267696402Y-42819032D01*
X267772600Y-42809656D01*
X267784240Y-42807677D01*
X267858512Y-42790696D01*
X267927938Y-42764593D01*
X267962800Y-42745023D01*
X268017331Y-42693152D01*
X268029833Y-42671353D01*
X268045908Y-42597165D01*
X268041492Y-42558616D01*
X268008538Y-42490553D01*
X267961919Y-42445123D01*
X267897530Y-42406289D01*
X267863612Y-42391442D01*
X267791599Y-42367592D01*
X267714714Y-42349869D01*
X267693882Y-42346202D01*
X267620208Y-42336585D01*
X267540023Y-42330975D01*
X267462289Y-42329352D01*
X267392000Y-42330598D01*
X267313883Y-42335506D01*
X267238441Y-42345106D01*
X267226849Y-42347172D01*
X267153078Y-42364523D01*
X267084568Y-42390535D01*
X267050092Y-42410299D01*
X266995908Y-42462343D01*
X266983405Y-42484073D01*
X266967331Y-42557231D01*
X266876155Y-42557231D01*
X266891366Y-42487075D01*
X266924100Y-42418745D01*
X266947955Y-42384747D01*
X267001466Y-42327469D01*
X267061487Y-42281359D01*
X267118316Y-42248107D01*
X267187275Y-42217232D01*
X267262987Y-42192332D01*
X267277421Y-42188472D01*
X267351224Y-42172909D01*
X267427745Y-42163571D01*
X267506986Y-42160458D01*
X267523096Y-42160557D01*
G37*
X39322321Y-50687901D02*
X39417559Y-50735520D01*
X39417559Y-50735520D02*
X39608035Y-50735520D01*
X39608035Y-50735520D02*
X39703273Y-50687901D01*
X39703273Y-50687901D02*
X39750892Y-50640281D01*
X39750892Y-50640281D02*
X39798511Y-50545043D01*
X39798511Y-50545043D02*
X39798511Y-50259329D01*
X39798511Y-50259329D02*
X39750892Y-50164091D01*
X39750892Y-50164091D02*
X39703273Y-50116472D01*
X39703273Y-50116472D02*
X39608035Y-50068853D01*
X39608035Y-50068853D02*
X39417559Y-50068853D01*
X39417559Y-50068853D02*
X39322321Y-50116472D01*
X38750892Y-50735520D02*
X38846130Y-50687901D01*
X38846130Y-50687901D02*
X38893749Y-50592662D01*
X38893749Y-50592662D02*
X38893749Y-49735520D01*
X38369939Y-50735520D02*
X38369939Y-49735520D01*
X38274701Y-50354567D02*
X37988987Y-50735520D01*
X37988987Y-50068853D02*
X38369939Y-50449805D01*
X39584226Y-48565458D02*
X39584226Y-49374982D01*
X39584226Y-49374982D02*
X39631845Y-49470220D01*
X39631845Y-49470220D02*
X39679464Y-49517839D01*
X39679464Y-49517839D02*
X39774702Y-49565458D01*
X39774702Y-49565458D02*
X39917559Y-49565458D01*
X39917559Y-49565458D02*
X40012797Y-49517839D01*
X39584226Y-49184506D02*
X39679464Y-49232125D01*
X39679464Y-49232125D02*
X39869940Y-49232125D01*
X39869940Y-49232125D02*
X39965178Y-49184506D01*
X39965178Y-49184506D02*
X40012797Y-49136886D01*
X40012797Y-49136886D02*
X40060416Y-49041648D01*
X40060416Y-49041648D02*
X40060416Y-48755934D01*
X40060416Y-48755934D02*
X40012797Y-48660696D01*
X40012797Y-48660696D02*
X39965178Y-48613077D01*
X39965178Y-48613077D02*
X39869940Y-48565458D01*
X39869940Y-48565458D02*
X39679464Y-48565458D01*
X39679464Y-48565458D02*
X39584226Y-48613077D01*
X39108035Y-48565458D02*
X39108035Y-49232125D01*
X39108035Y-48660696D02*
X39060416Y-48613077D01*
X39060416Y-48613077D02*
X38965178Y-48565458D01*
X38965178Y-48565458D02*
X38822321Y-48565458D01*
X38822321Y-48565458D02*
X38727083Y-48613077D01*
X38727083Y-48613077D02*
X38679464Y-48708315D01*
X38679464Y-48708315D02*
X38679464Y-49232125D01*
X37774702Y-49232125D02*
X37774702Y-48232125D01*
X37774702Y-49184506D02*
X37869940Y-49232125D01*
X37869940Y-49232125D02*
X38060416Y-49232125D01*
X38060416Y-49232125D02*
X38155654Y-49184506D01*
X38155654Y-49184506D02*
X38203273Y-49136886D01*
X38203273Y-49136886D02*
X38250892Y-49041648D01*
X38250892Y-49041648D02*
X38250892Y-48755934D01*
X38250892Y-48755934D02*
X38203273Y-48660696D01*
X38203273Y-48660696D02*
X38155654Y-48613077D01*
X38155654Y-48613077D02*
X38060416Y-48565458D01*
X38060416Y-48565458D02*
X37869940Y-48565458D01*
X37869940Y-48565458D02*
X37774702Y-48613077D01*
D12*
X144254000Y-98425000D02*
G75*
G02*
X141496000Y-98425000I-1379000J0D01*
G01*
X141496000Y-98425000D02*
G75*
G02*
X144254000Y-98425000I1379000J0D01*
G01*
X108123954Y-69850000D02*
G75*
G02*
X105365954Y-69850000I-1379000J0D01*
G01*
X105365954Y-69850000D02*
G75*
G02*
X108123954Y-69850000I1379000J0D01*
G01*
X241885250Y-41275000D02*
G75*
G02*
X239127250Y-41275000I-1379000J0D01*
G01*
X239127250Y-41275000D02*
G75*
G02*
X241885250Y-41275000I1379000J0D01*
G01*
X133141500Y-22225000D02*
G75*
G02*
X130383500Y-22225000I-1379000J0D01*
G01*
X130383500Y-22225000D02*
G75*
G02*
X133141500Y-22225000I1379000J0D01*
G01*
X95835250Y-98425000D02*
G75*
G02*
X93077250Y-98425000I-1379000J0D01*
G01*
X93077250Y-98425000D02*
G75*
G02*
X95835250Y-98425000I1379000J0D01*
G01*
X252204000Y-98425000D02*
G75*
G02*
X249446000Y-98425000I-1379000J0D01*
G01*
X249446000Y-98425000D02*
G75*
G02*
X252204000Y-98425000I1379000J0D01*
G01*
X225216500Y-69850000D02*
G75*
G02*
X222458500Y-69850000I-1379000J0D01*
G01*
X222458500Y-69850000D02*
G75*
G02*
X225216500Y-69850000I1379000J0D01*
G01*
X212516500Y-98425000D02*
G75*
G02*
X209758500Y-98425000I-1379000J0D01*
G01*
X209758500Y-98425000D02*
G75*
G02*
X212516500Y-98425000I1379000J0D01*
G01*
X85516500Y-41275000D02*
G75*
G02*
X82758500Y-41275000I-1379000J0D01*
G01*
X82758500Y-41275000D02*
G75*
G02*
X85516500Y-41275000I1379000J0D01*
G01*
X71229000Y-60325000D02*
G75*
G02*
X68471000Y-60325000I-1379000J0D01*
G01*
X68471000Y-60325000D02*
G75*
G02*
X71229000Y-60325000I1379000J0D01*
G01*
X142666500Y-41275000D02*
G75*
G02*
X139908500Y-41275000I-1379000J0D01*
G01*
X139908500Y-41275000D02*
G75*
G02*
X142666500Y-41275000I1379000J0D01*
G01*
X268079000Y-69850000D02*
G75*
G02*
X265321000Y-69850000I-1379000J0D01*
G01*
X265321000Y-69850000D02*
G75*
G02*
X268079000Y-69850000I1379000J0D01*
G01*
X185529000Y-60325000D02*
G75*
G02*
X182771000Y-60325000I-1379000J0D01*
G01*
X182771000Y-60325000D02*
G75*
G02*
X185529000Y-60325000I1379000J0D01*
G01*
X50591500Y-98425000D02*
G75*
G02*
X47833500Y-98425000I-1379000J0D01*
G01*
X47833500Y-98425000D02*
G75*
G02*
X50591500Y-98425000I1379000J0D01*
G01*
X37891500Y-22225000D02*
G75*
G02*
X35133500Y-22225000I-1379000J0D01*
G01*
X35133500Y-22225000D02*
G75*
G02*
X37891500Y-22225000I1379000J0D01*
G01*
X156896516Y-79375000D02*
G75*
G02*
X154253484Y-79375000I-1321516J0D01*
G01*
X154253484Y-79375000D02*
G75*
G02*
X156896516Y-79375000I1321516J0D01*
G01*
D13*
X203092164Y-76633750D02*
X203307836Y-76633750D01*
X203092164Y-77353750D02*
X203307836Y-77353750D01*
X243146868Y-71041076D02*
X243362540Y-71041076D01*
X243146868Y-71761076D02*
X243362540Y-71761076D01*
X167373414Y-95683750D02*
X167589086Y-95683750D01*
X167373414Y-96403750D02*
X167589086Y-96403750D01*
X222142164Y-76633750D02*
X222357836Y-76633750D01*
X222142164Y-77353750D02*
X222357836Y-77353750D01*
D14*
X150029852Y-106781250D02*
X149429852Y-106181250D01*
X150029852Y-106181250D01*
X150029852Y-106781250D01*
G36*
X150029852Y-106781250D02*
G01*
X149429852Y-106181250D01*
X150029852Y-106181250D01*
X150029852Y-106781250D01*
G37*
D13*
X67576586Y-82190000D02*
X67360914Y-82190000D01*
X67576586Y-82910000D02*
X67360914Y-82910000D01*
X31583250Y-34034750D02*
X31583250Y-33234750D01*
X31583250Y-34034750D02*
X31583250Y-34834750D01*
X34703250Y-34034750D02*
X34703250Y-33234750D01*
X34703250Y-34034750D02*
X34703250Y-35834750D01*
X57257836Y-55445587D02*
X57042164Y-55445587D01*
X57257836Y-56165587D02*
X57042164Y-56165587D01*
D15*
X208937860Y-76321325D02*
X208937860Y-76336565D01*
D16*
X208938220Y-71167205D02*
X213337500Y-71167205D01*
X208938220Y-76507205D02*
X208938220Y-71167205D01*
X213337500Y-71167205D02*
X213337500Y-76507205D01*
X213337500Y-76507205D02*
X208938220Y-76507205D01*
X215167860Y-71167205D02*
X213337500Y-71167205D01*
X215167860Y-71565985D02*
X215167860Y-71167205D01*
D13*
X41382836Y-82190000D02*
X41167164Y-82190000D01*
X41382836Y-82910000D02*
X41167164Y-82910000D01*
D14*
X36693750Y-102129000D02*
X36093750Y-102129000D01*
X36693750Y-101529000D01*
X36693750Y-102129000D01*
G36*
X36693750Y-102129000D02*
G01*
X36093750Y-102129000D01*
X36693750Y-101529000D01*
X36693750Y-102129000D01*
G37*
D13*
X200818750Y-96865000D02*
X200168750Y-96865000D01*
X200818750Y-96865000D02*
X202493750Y-96865000D01*
X200818750Y-99985000D02*
X200168750Y-99985000D01*
X200818750Y-99985000D02*
X201468750Y-99985000D01*
D14*
X114912500Y-48379000D02*
X114912500Y-47779000D01*
X115512500Y-47779000D01*
X114912500Y-48379000D01*
G36*
X114912500Y-48379000D02*
G01*
X114912500Y-47779000D01*
X115512500Y-47779000D01*
X114912500Y-48379000D01*
G37*
D13*
X38893750Y-96865000D02*
X38243750Y-96865000D01*
X38893750Y-96865000D02*
X40568750Y-96865000D01*
X38893750Y-99985000D02*
X38243750Y-99985000D01*
X38893750Y-99985000D02*
X39543750Y-99985000D01*
D14*
X45856250Y-86479000D02*
X45856250Y-85879000D01*
X46456250Y-85879000D01*
X45856250Y-86479000D01*
G36*
X45856250Y-86479000D02*
G01*
X45856250Y-85879000D01*
X46456250Y-85879000D01*
X45856250Y-86479000D01*
G37*
D13*
X150812500Y-39715000D02*
X150162500Y-39715000D01*
X150812500Y-39715000D02*
X152487500Y-39715000D01*
X150812500Y-42835000D02*
X150162500Y-42835000D01*
X150812500Y-42835000D02*
X151462500Y-42835000D01*
X148539086Y-44090000D02*
X148323414Y-44090000D01*
X148539086Y-44810000D02*
X148323414Y-44810000D01*
X253098414Y-38533750D02*
X253314086Y-38533750D01*
X253098414Y-39253750D02*
X253314086Y-39253750D01*
X117367164Y-57583750D02*
X117582836Y-57583750D01*
X117367164Y-58303750D02*
X117582836Y-58303750D01*
D14*
X224450000Y-86479000D02*
X224450000Y-85879000D01*
X225050000Y-85879000D01*
X224450000Y-86479000D01*
G36*
X224450000Y-86479000D02*
G01*
X224450000Y-85879000D01*
X225050000Y-85879000D01*
X224450000Y-86479000D01*
G37*
D13*
X33229664Y-23452500D02*
X33445336Y-23452500D01*
X33229664Y-24172500D02*
X33445336Y-24172500D01*
D14*
X258150000Y-102129000D02*
X257550000Y-102129000D01*
X258150000Y-101529000D01*
X258150000Y-102129000D01*
G36*
X258150000Y-102129000D02*
G01*
X257550000Y-102129000D01*
X258150000Y-101529000D01*
X258150000Y-102129000D01*
G37*
D13*
X88900000Y-77815000D02*
X88250000Y-77815000D01*
X88900000Y-77815000D02*
X90575000Y-77815000D01*
X88900000Y-80935000D02*
X88250000Y-80935000D01*
X88900000Y-80935000D02*
X89550000Y-80935000D01*
X119856250Y-96865000D02*
X119206250Y-96865000D01*
X119856250Y-96865000D02*
X121531250Y-96865000D01*
X119856250Y-99985000D02*
X119206250Y-99985000D01*
X119856250Y-99985000D02*
X120506250Y-99985000D01*
X105460914Y-29008750D02*
X105676586Y-29008750D01*
X105460914Y-29728750D02*
X105676586Y-29728750D01*
X33355000Y-50317500D02*
X33655000Y-50317500D01*
X33355000Y-54457500D02*
X33355000Y-50317500D01*
X33655000Y-54457500D02*
X33355000Y-54457500D01*
X36195000Y-50317500D02*
X36495000Y-50317500D01*
X36495000Y-50317500D02*
X36495000Y-54457500D01*
X36495000Y-54457500D02*
X36195000Y-54457500D01*
X60668750Y-33365000D02*
X61318750Y-33365000D01*
X60668750Y-36485000D02*
X61318750Y-36485000D01*
X61968750Y-33365000D02*
X61318750Y-33365000D01*
X61968750Y-36485000D02*
X61318750Y-36485000D01*
X60396250Y-36765000D02*
X59916250Y-36765000D01*
X60156250Y-36435000D01*
X60396250Y-36765000D01*
G36*
X60396250Y-36765000D02*
G01*
X59916250Y-36765000D01*
X60156250Y-36435000D01*
X60396250Y-36765000D01*
G37*
X88792164Y-76633750D02*
X89007836Y-76633750D01*
X88792164Y-77353750D02*
X89007836Y-77353750D01*
X38737391Y-51213750D02*
X38430109Y-51213750D01*
X38737391Y-51973750D02*
X38430109Y-51973750D01*
D14*
X191112500Y-48379000D02*
X191112500Y-47779000D01*
X191712500Y-47779000D01*
X191112500Y-48379000D01*
G36*
X191112500Y-48379000D02*
G01*
X191112500Y-47779000D01*
X191712500Y-47779000D01*
X191112500Y-48379000D01*
G37*
D13*
X58229664Y-29008750D02*
X58445336Y-29008750D01*
X58229664Y-29728750D02*
X58445336Y-29728750D01*
X143560914Y-29008750D02*
X143776586Y-29008750D01*
X143560914Y-29728750D02*
X143776586Y-29728750D01*
D14*
X79556250Y-102129000D02*
X78956250Y-102129000D01*
X79556250Y-101529000D01*
X79556250Y-102129000D01*
G36*
X79556250Y-102129000D02*
G01*
X78956250Y-102129000D01*
X79556250Y-101529000D01*
X79556250Y-102129000D01*
G37*
D13*
X143776586Y-82190000D02*
X143560914Y-82190000D01*
X143776586Y-82910000D02*
X143560914Y-82910000D01*
D14*
X28812500Y-14640000D02*
X28212500Y-14640000D01*
X28812500Y-14040000D01*
X28812500Y-14640000D01*
G36*
X28812500Y-14640000D02*
G01*
X28212500Y-14640000D01*
X28812500Y-14040000D01*
X28812500Y-14640000D01*
G37*
D13*
X136417164Y-57583750D02*
X136632836Y-57583750D01*
X136417164Y-58303750D02*
X136632836Y-58303750D01*
X62598414Y-105208750D02*
X62814086Y-105208750D01*
X62598414Y-105928750D02*
X62814086Y-105928750D01*
X119748414Y-95683750D02*
X119964086Y-95683750D01*
X119748414Y-96403750D02*
X119964086Y-96403750D01*
X53341589Y-21191142D02*
X53341589Y-20883860D01*
X54101589Y-21191142D02*
X54101589Y-20883860D01*
X61804664Y-55596250D02*
X62020336Y-55596250D01*
X61804664Y-56316250D02*
X62020336Y-56316250D01*
D14*
X58125000Y-64029000D02*
X57525000Y-64029000D01*
X58125000Y-63429000D01*
X58125000Y-64029000D01*
G36*
X58125000Y-64029000D02*
G01*
X57525000Y-64029000D01*
X58125000Y-63429000D01*
X58125000Y-64029000D01*
G37*
D13*
X100698414Y-67108750D02*
X100914086Y-67108750D01*
X100698414Y-67828750D02*
X100914086Y-67828750D01*
D14*
X96225000Y-64029000D02*
X95625000Y-64029000D01*
X96225000Y-63429000D01*
X96225000Y-64029000D01*
G36*
X96225000Y-64029000D02*
G01*
X95625000Y-64029000D01*
X96225000Y-63429000D01*
X96225000Y-64029000D01*
G37*
D13*
X203200000Y-77815000D02*
X202550000Y-77815000D01*
X203200000Y-77815000D02*
X204875000Y-77815000D01*
X203200000Y-80935000D02*
X202550000Y-80935000D01*
X203200000Y-80935000D02*
X203850000Y-80935000D01*
X136525000Y-58765000D02*
X135875000Y-58765000D01*
X136525000Y-58765000D02*
X138200000Y-58765000D01*
X136525000Y-61885000D02*
X135875000Y-61885000D01*
X136525000Y-61885000D02*
X137175000Y-61885000D01*
X45929664Y-19483750D02*
X46145336Y-19483750D01*
X45929664Y-20203750D02*
X46145336Y-20203750D01*
X41167164Y-67108750D02*
X41382836Y-67108750D01*
X41167164Y-67828750D02*
X41382836Y-67828750D01*
X241192164Y-95683750D02*
X241407836Y-95683750D01*
X241192164Y-96403750D02*
X241407836Y-96403750D01*
X93554664Y-38533750D02*
X93770336Y-38533750D01*
X93554664Y-39253750D02*
X93770336Y-39253750D01*
X54659089Y-24633750D02*
X55959089Y-24633750D01*
X55959089Y-27753750D02*
X53959089Y-27753750D01*
X164992164Y-76633750D02*
X165207836Y-76633750D01*
X164992164Y-77353750D02*
X165207836Y-77353750D01*
X124510914Y-29008750D02*
X124726586Y-29008750D01*
X124510914Y-29728750D02*
X124726586Y-29728750D01*
X126892164Y-76633750D02*
X127107836Y-76633750D01*
X126892164Y-77353750D02*
X127107836Y-77353750D01*
X227012500Y-39715000D02*
X226362500Y-39715000D01*
X227012500Y-39715000D02*
X228687500Y-39715000D01*
X227012500Y-42835000D02*
X226362500Y-42835000D01*
X227012500Y-42835000D02*
X227662500Y-42835000D01*
X255587500Y-58765000D02*
X254937500Y-58765000D01*
X255587500Y-58765000D02*
X257262500Y-58765000D01*
X255587500Y-61885000D02*
X254937500Y-61885000D01*
X255587500Y-61885000D02*
X256237500Y-61885000D01*
X155575000Y-58765000D02*
X154925000Y-58765000D01*
X155575000Y-58765000D02*
X157250000Y-58765000D01*
X155575000Y-61885000D02*
X154925000Y-61885000D01*
X155575000Y-61885000D02*
X156225000Y-61885000D01*
X243573414Y-105208750D02*
X243789086Y-105208750D01*
X243573414Y-105928750D02*
X243789086Y-105928750D01*
X205689086Y-44090000D02*
X205473414Y-44090000D01*
X205689086Y-44810000D02*
X205473414Y-44810000D01*
X63840000Y-34817164D02*
X63840000Y-35032836D01*
X64560000Y-34817164D02*
X64560000Y-35032836D01*
X34239086Y-44090000D02*
X34023414Y-44090000D01*
X34239086Y-44810000D02*
X34023414Y-44810000D01*
D17*
G36*
X265077500Y-47247500D02*
G01*
X265220000Y-47389983D01*
X265220000Y-47583733D01*
X265220000Y-47777483D01*
X265077500Y-47635000D01*
X264935000Y-47492516D01*
X264935000Y-47298766D01*
X264935000Y-47105016D01*
X265077500Y-47247500D01*
G37*
G36*
X265220000Y-46757500D02*
G01*
X265505000Y-47042491D01*
X265505000Y-47234370D01*
X265504999Y-47239924D01*
X265504967Y-47270168D01*
X265504890Y-47298851D01*
X265504773Y-47325590D01*
X265504619Y-47350003D01*
X265504432Y-47371709D01*
X265504215Y-47390325D01*
X265503973Y-47405469D01*
X265503709Y-47416759D01*
X265503426Y-47423813D01*
X265503129Y-47426250D01*
X265502130Y-47425396D01*
X265497827Y-47421297D01*
X265490312Y-47413977D01*
X265479773Y-47403625D01*
X265466397Y-47390427D01*
X265450374Y-47374571D01*
X265431893Y-47356244D01*
X265411140Y-47335633D01*
X265388306Y-47312924D01*
X265363578Y-47288307D01*
X265337144Y-47261967D01*
X265309194Y-47234092D01*
X265279916Y-47204869D01*
X265249498Y-47174486D01*
X265218129Y-47143129D01*
X264935000Y-46860008D01*
X264935000Y-46666258D01*
X264935000Y-46472508D01*
X265220000Y-46757500D01*
G37*
G36*
X265711245Y-45113750D02*
G01*
X266200622Y-45603122D01*
X266690000Y-46092495D01*
X266690000Y-46706250D01*
X266690000Y-47320004D01*
X266200000Y-47810000D01*
X265710000Y-48299995D01*
X265710000Y-47319992D01*
X265710000Y-46339990D01*
X265465000Y-46095000D01*
X265220000Y-45850009D01*
X264975000Y-46095000D01*
X264729999Y-46339990D01*
X264730000Y-47069370D01*
X264729996Y-47120256D01*
X264729982Y-47179216D01*
X264729958Y-47236702D01*
X264729925Y-47292520D01*
X264729883Y-47346473D01*
X264729832Y-47398365D01*
X264729773Y-47448001D01*
X264729706Y-47495184D01*
X264729632Y-47539718D01*
X264729551Y-47581408D01*
X264729463Y-47620058D01*
X264729369Y-47655471D01*
X264729270Y-47687451D01*
X264729165Y-47715804D01*
X264729055Y-47740332D01*
X264728941Y-47760840D01*
X264728823Y-47777131D01*
X264728701Y-47789011D01*
X264728576Y-47796282D01*
X264728449Y-47798750D01*
X264724997Y-47797015D01*
X264718523Y-47792087D01*
X264709459Y-47784390D01*
X264698240Y-47774344D01*
X264685297Y-47762371D01*
X264671066Y-47748893D01*
X264655979Y-47734331D01*
X264640468Y-47719108D01*
X264624969Y-47703646D01*
X264609913Y-47688365D01*
X264595735Y-47673689D01*
X264582867Y-47660038D01*
X264571743Y-47647834D01*
X264562796Y-47637500D01*
X264531318Y-47598314D01*
X264485665Y-47535635D01*
X264444346Y-47471112D01*
X264407208Y-47404445D01*
X264374103Y-47335337D01*
X264344879Y-47263488D01*
X264319386Y-47188598D01*
X264297473Y-47110369D01*
X264295569Y-47102963D01*
X264292451Y-47091468D01*
X264289809Y-47082525D01*
X264287876Y-47076902D01*
X264286884Y-47075369D01*
X264286122Y-47077412D01*
X264284469Y-47083320D01*
X264282556Y-47091250D01*
X264280840Y-47098584D01*
X264276116Y-47117240D01*
X264270305Y-47138680D01*
X264263791Y-47161582D01*
X264256953Y-47184621D01*
X264250172Y-47206472D01*
X264243830Y-47225813D01*
X264240354Y-47235908D01*
X264212137Y-47309630D01*
X264179755Y-47381059D01*
X264143379Y-47449874D01*
X264103177Y-47515752D01*
X264059316Y-47578371D01*
X264057632Y-47580617D01*
X264050370Y-47590283D01*
X264044340Y-47598277D01*
X264040131Y-47603822D01*
X264038328Y-47606141D01*
X264037860Y-47605833D01*
X264034396Y-47602698D01*
X264027792Y-47596406D01*
X264018313Y-47587216D01*
X264006222Y-47575390D01*
X263991784Y-47561188D01*
X263975264Y-47544870D01*
X263956927Y-47526697D01*
X263937035Y-47506929D01*
X263915855Y-47485826D01*
X263893649Y-47463649D01*
X263750000Y-47320016D01*
X263750000Y-46706260D01*
X263750000Y-46092504D01*
X264239372Y-45603127D01*
X264728745Y-45113749D01*
X265219995Y-45113749D01*
X265711245Y-45113750D01*
G37*
G36*
X264288150Y-47398681D02*
G01*
X264289922Y-47403004D01*
X264292243Y-47410627D01*
X264294806Y-47420618D01*
X264300540Y-47443190D01*
X264313766Y-47487715D01*
X264329669Y-47533459D01*
X264347703Y-47578896D01*
X264367318Y-47622500D01*
X264391062Y-47668969D01*
X264427154Y-47730288D01*
X264467212Y-47788805D01*
X264511032Y-47844339D01*
X264558411Y-47896708D01*
X264609142Y-47945731D01*
X264663022Y-47991227D01*
X264719846Y-48033014D01*
X264779411Y-48070911D01*
X264841511Y-48104737D01*
X264905942Y-48134309D01*
X264972500Y-48159447D01*
X264982432Y-48162764D01*
X264994303Y-48166579D01*
X265006463Y-48170282D01*
X265019824Y-48174137D01*
X265035301Y-48178406D01*
X265053805Y-48183350D01*
X265076250Y-48189232D01*
X265078096Y-48189718D01*
X265081157Y-48190702D01*
X265082008Y-48191665D01*
X265080122Y-48192855D01*
X265074970Y-48194522D01*
X265066025Y-48196912D01*
X265052758Y-48200274D01*
X265047778Y-48201560D01*
X265031815Y-48205958D01*
X265013697Y-48211255D01*
X264995294Y-48216899D01*
X264978474Y-48222332D01*
X264927376Y-48240877D01*
X264861874Y-48269198D01*
X264798871Y-48301688D01*
X264738529Y-48338169D01*
X264681014Y-48378465D01*
X264626490Y-48422400D01*
X264575121Y-48469798D01*
X264527072Y-48520483D01*
X264482506Y-48574278D01*
X264441589Y-48631007D01*
X264404484Y-48690495D01*
X264371357Y-48752564D01*
X264342370Y-48817038D01*
X264317690Y-48883742D01*
X264297479Y-48952500D01*
X264295387Y-48960439D01*
X264292224Y-48971656D01*
X264289552Y-48980177D01*
X264287602Y-48985281D01*
X264286606Y-48986250D01*
X264286545Y-48986058D01*
X264285375Y-48981842D01*
X264283299Y-48973945D01*
X264280592Y-48963427D01*
X264277528Y-48951343D01*
X264270167Y-48923938D01*
X264250135Y-48861808D01*
X264225710Y-48800062D01*
X264197274Y-48739477D01*
X264165210Y-48680836D01*
X264129900Y-48624917D01*
X264091728Y-48572500D01*
X264071978Y-48548225D01*
X264045798Y-48518256D01*
X264017817Y-48488281D01*
X263989094Y-48459393D01*
X263960687Y-48432685D01*
X263933655Y-48409252D01*
X263909747Y-48390107D01*
X263850921Y-48347515D01*
X263789514Y-48309173D01*
X263725689Y-48275167D01*
X263659609Y-48245577D01*
X263591435Y-48220486D01*
X263521331Y-48199977D01*
X263515670Y-48198517D01*
X263504508Y-48195519D01*
X263497502Y-48193363D01*
X263494136Y-48191840D01*
X263493899Y-48190744D01*
X263496276Y-48189867D01*
X263540697Y-48178405D01*
X263610595Y-48156496D01*
X263677751Y-48130473D01*
X263742323Y-48100265D01*
X263804470Y-48065802D01*
X263864351Y-48027014D01*
X263895290Y-48004572D01*
X263949967Y-47960279D01*
X264001500Y-47912378D01*
X264049699Y-47861147D01*
X264094370Y-47806861D01*
X264135322Y-47749797D01*
X264172362Y-47690233D01*
X264205298Y-47628444D01*
X264233937Y-47564708D01*
X264258087Y-47499301D01*
X264277556Y-47432500D01*
X264278273Y-47429684D01*
X264281381Y-47417863D01*
X264284120Y-47408022D01*
X264286217Y-47401121D01*
X264287398Y-47398118D01*
X264288150Y-47398681D01*
G37*
D13*
X84029664Y-19483750D02*
X84245336Y-19483750D01*
X84029664Y-20203750D02*
X84245336Y-20203750D01*
X65087500Y-20665000D02*
X64437500Y-20665000D01*
X65087500Y-20665000D02*
X66762500Y-20665000D01*
X65087500Y-23785000D02*
X64437500Y-23785000D01*
X65087500Y-23785000D02*
X65737500Y-23785000D01*
X41167164Y-105208750D02*
X41382836Y-105208750D01*
X41167164Y-105928750D02*
X41382836Y-105928750D01*
D14*
X76812500Y-48379000D02*
X76812500Y-47779000D01*
X77412500Y-47779000D01*
X76812500Y-48379000D01*
G36*
X76812500Y-48379000D02*
G01*
X76812500Y-47779000D01*
X77412500Y-47779000D01*
X76812500Y-48379000D01*
G37*
D13*
X66075000Y-33365000D02*
X66875000Y-33365000D01*
X66075000Y-36485000D02*
X66875000Y-36485000D01*
X67675000Y-33365000D02*
X66875000Y-33365000D01*
X67675000Y-36485000D02*
X66875000Y-36485000D01*
X65815000Y-36765000D02*
X65335000Y-36765000D01*
X65575000Y-36435000D01*
X65815000Y-36765000D01*
G36*
X65815000Y-36765000D02*
G01*
X65335000Y-36765000D01*
X65575000Y-36435000D01*
X65815000Y-36765000D01*
G37*
X70283750Y-35032836D02*
X70283750Y-34817164D01*
X71003750Y-35032836D02*
X71003750Y-34817164D01*
D14*
X115275000Y-64029000D02*
X114675000Y-64029000D01*
X115275000Y-63429000D01*
X115275000Y-64029000D01*
G36*
X115275000Y-64029000D02*
G01*
X114675000Y-64029000D01*
X115275000Y-63429000D01*
X115275000Y-64029000D01*
G37*
D13*
X162826586Y-82190000D02*
X162610914Y-82190000D01*
X162826586Y-82910000D02*
X162610914Y-82910000D01*
D14*
X210525000Y-64029000D02*
X209925000Y-64029000D01*
X210525000Y-63429000D01*
X210525000Y-64029000D01*
G36*
X210525000Y-64029000D02*
G01*
X209925000Y-64029000D01*
X210525000Y-63429000D01*
X210525000Y-64029000D01*
G37*
X28812500Y-25905000D02*
X28212500Y-25905000D01*
X28812500Y-25305000D01*
X28812500Y-25905000D01*
G36*
X28812500Y-25905000D02*
G01*
X28212500Y-25905000D01*
X28812500Y-25305000D01*
X28812500Y-25905000D01*
G37*
D13*
X55454664Y-38533750D02*
X55670336Y-38533750D01*
X55454664Y-39253750D02*
X55670336Y-39253750D01*
X258076586Y-82190000D02*
X257860914Y-82190000D01*
X258076586Y-82910000D02*
X257860914Y-82910000D01*
X138798414Y-67108750D02*
X139014086Y-67108750D01*
X138798414Y-67828750D02*
X139014086Y-67828750D01*
X153627500Y-101707836D02*
X153627500Y-101492164D01*
X154347500Y-101707836D02*
X154347500Y-101492164D01*
X250932836Y-44090000D02*
X250717164Y-44090000D01*
X250932836Y-44810000D02*
X250717164Y-44810000D01*
X222142164Y-95683750D02*
X222357836Y-95683750D01*
X222142164Y-96403750D02*
X222357836Y-96403750D01*
X122237500Y-20665000D02*
X121587500Y-20665000D01*
X122237500Y-20665000D02*
X123912500Y-20665000D01*
X122237500Y-23785000D02*
X121587500Y-23785000D01*
X122237500Y-23785000D02*
X122887500Y-23785000D01*
X112604664Y-38533750D02*
X112820336Y-38533750D01*
X112604664Y-39253750D02*
X112820336Y-39253750D01*
X146050000Y-77815000D02*
X145400000Y-77815000D01*
X146050000Y-77815000D02*
X147725000Y-77815000D01*
X146050000Y-80935000D02*
X145400000Y-80935000D01*
X146050000Y-80935000D02*
X146700000Y-80935000D01*
D14*
X38712500Y-48379000D02*
X38712500Y-47779000D01*
X39312500Y-47779000D01*
X38712500Y-48379000D01*
G36*
X38712500Y-48379000D02*
G01*
X38712500Y-47779000D01*
X39312500Y-47779000D01*
X38712500Y-48379000D01*
G37*
D13*
X131762500Y-39715000D02*
X131112500Y-39715000D01*
X131762500Y-39715000D02*
X133437500Y-39715000D01*
X131762500Y-42835000D02*
X131112500Y-42835000D01*
X131762500Y-42835000D02*
X132412500Y-42835000D01*
D14*
X62887500Y-25929000D02*
X62287500Y-25929000D01*
X62887500Y-25329000D01*
X62887500Y-25929000D01*
G36*
X62887500Y-25929000D02*
G01*
X62287500Y-25929000D01*
X62887500Y-25329000D01*
X62887500Y-25929000D01*
G37*
D13*
X153193750Y-96865000D02*
X152543750Y-96865000D01*
X153193750Y-96865000D02*
X154868750Y-96865000D01*
X153193750Y-99985000D02*
X152543750Y-99985000D01*
X153193750Y-99985000D02*
X153843750Y-99985000D01*
X174517164Y-57583750D02*
X174732836Y-57583750D01*
X174517164Y-58303750D02*
X174732836Y-58303750D01*
X200926586Y-82190000D02*
X200710914Y-82190000D01*
X200926586Y-82910000D02*
X200710914Y-82910000D01*
X56657122Y-21220482D02*
X56657122Y-20913200D01*
X57417122Y-21220482D02*
X57417122Y-20913200D01*
D14*
X36693750Y-64029000D02*
X36093750Y-64029000D01*
X36693750Y-63429000D01*
X36693750Y-64029000D01*
G36*
X36693750Y-64029000D02*
G01*
X36093750Y-64029000D01*
X36693750Y-63429000D01*
X36693750Y-64029000D01*
G37*
X205400000Y-86479000D02*
X205400000Y-85879000D01*
X206000000Y-85879000D01*
X205400000Y-86479000D01*
G36*
X205400000Y-86479000D02*
G01*
X205400000Y-85879000D01*
X206000000Y-85879000D01*
X205400000Y-86479000D01*
G37*
D13*
X127000000Y-77815000D02*
X126350000Y-77815000D01*
X127000000Y-77815000D02*
X128675000Y-77815000D01*
X127000000Y-80935000D02*
X126350000Y-80935000D01*
X127000000Y-80935000D02*
X127650000Y-80935000D01*
X46396250Y-51158750D02*
X46846250Y-51158750D01*
X46396250Y-51608750D02*
X46396250Y-51158750D01*
X46396250Y-57928750D02*
X46396250Y-58378750D01*
X46396250Y-58378750D02*
X46846250Y-58378750D01*
X53616250Y-51158750D02*
X53166250Y-51158750D01*
X53616250Y-51608750D02*
X53616250Y-51158750D01*
X53616250Y-57928750D02*
X53616250Y-58378750D01*
X53616250Y-58378750D02*
X53166250Y-58378750D01*
X54206250Y-51608750D02*
X53866250Y-51138750D01*
X54546250Y-51138750D01*
X54206250Y-51608750D01*
G36*
X54206250Y-51608750D02*
G01*
X53866250Y-51138750D01*
X54546250Y-51138750D01*
X54206250Y-51608750D01*
G37*
X131654664Y-38533750D02*
X131870336Y-38533750D01*
X131654664Y-39253750D02*
X131870336Y-39253750D01*
X169754664Y-105208750D02*
X169970336Y-105208750D01*
X169754664Y-105928750D02*
X169970336Y-105928750D01*
X129489086Y-44090000D02*
X129273414Y-44090000D01*
X129489086Y-44810000D02*
X129273414Y-44810000D01*
D14*
X229212500Y-48379000D02*
X229212500Y-47779000D01*
X229812500Y-47779000D01*
X229212500Y-48379000D01*
G36*
X229212500Y-48379000D02*
G01*
X229212500Y-47779000D01*
X229812500Y-47779000D01*
X229212500Y-48379000D01*
G37*
D13*
X155467164Y-57583750D02*
X155682836Y-57583750D01*
X155467164Y-58303750D02*
X155682836Y-58303750D01*
X150704664Y-38533750D02*
X150920336Y-38533750D01*
X150704664Y-39253750D02*
X150920336Y-39253750D01*
X81756250Y-96865000D02*
X81106250Y-96865000D01*
X81756250Y-96865000D02*
X83431250Y-96865000D01*
X81756250Y-99985000D02*
X81106250Y-99985000D01*
X81756250Y-99985000D02*
X82406250Y-99985000D01*
X124726586Y-82190000D02*
X124510914Y-82190000D01*
X124726586Y-82910000D02*
X124510914Y-82910000D01*
X214998414Y-67108750D02*
X215214086Y-67108750D01*
X214998414Y-67828750D02*
X215214086Y-67828750D01*
X107842164Y-76633750D02*
X108057836Y-76633750D01*
X107842164Y-77353750D02*
X108057836Y-77353750D01*
X234048414Y-67108750D02*
X234264086Y-67108750D01*
X234048414Y-67828750D02*
X234264086Y-67828750D01*
X176898414Y-67108750D02*
X177114086Y-67108750D01*
X176898414Y-67828750D02*
X177114086Y-67828750D01*
X219976586Y-82190000D02*
X219760914Y-82190000D01*
X219976586Y-82910000D02*
X219760914Y-82910000D01*
D14*
X197654852Y-106781250D02*
X197054852Y-106181250D01*
X197654852Y-106181250D01*
X197654852Y-106781250D01*
G36*
X197654852Y-106781250D02*
G01*
X197054852Y-106181250D01*
X197654852Y-106181250D01*
X197654852Y-106781250D01*
G37*
D13*
X184150000Y-77815000D02*
X183500000Y-77815000D01*
X184150000Y-77815000D02*
X185825000Y-77815000D01*
X184150000Y-80935000D02*
X183500000Y-80935000D01*
X184150000Y-80935000D02*
X184800000Y-80935000D01*
X186639086Y-44090000D02*
X186423414Y-44090000D01*
X186639086Y-44810000D02*
X186423414Y-44810000D01*
X260242164Y-95683750D02*
X260457836Y-95683750D01*
X260242164Y-96403750D02*
X260457836Y-96403750D01*
X207854664Y-38533750D02*
X208070336Y-38533750D01*
X207854664Y-39253750D02*
X208070336Y-39253750D01*
X103187500Y-20665000D02*
X102537500Y-20665000D01*
X103187500Y-20665000D02*
X104862500Y-20665000D01*
X103187500Y-23785000D02*
X102537500Y-23785000D01*
X103187500Y-23785000D02*
X103837500Y-23785000D01*
D14*
X139087500Y-25929000D02*
X138487500Y-25929000D01*
X139087500Y-25329000D01*
X139087500Y-25929000D01*
G36*
X139087500Y-25929000D02*
G01*
X138487500Y-25929000D01*
X139087500Y-25329000D01*
X139087500Y-25929000D01*
G37*
D13*
X105676586Y-82190000D02*
X105460914Y-82190000D01*
X105676586Y-82910000D02*
X105460914Y-82910000D01*
X69850000Y-77815000D02*
X69200000Y-77815000D01*
X69850000Y-77815000D02*
X71525000Y-77815000D01*
X69850000Y-80935000D02*
X69200000Y-80935000D01*
X69850000Y-80935000D02*
X70500000Y-80935000D01*
D15*
X50187860Y-76302870D02*
X50187860Y-76318110D01*
D16*
X50188220Y-71148750D02*
X54587500Y-71148750D01*
X50188220Y-76488750D02*
X50188220Y-71148750D01*
X54587500Y-71148750D02*
X54587500Y-76488750D01*
X54587500Y-76488750D02*
X50188220Y-76488750D01*
X56417860Y-71148750D02*
X54587500Y-71148750D01*
X56417860Y-71547530D02*
X56417860Y-71148750D01*
D13*
X36512500Y-39715000D02*
X35862500Y-39715000D01*
X36512500Y-39715000D02*
X38187500Y-39715000D01*
X36512500Y-42835000D02*
X35862500Y-42835000D01*
X36512500Y-42835000D02*
X37162500Y-42835000D01*
X145942164Y-76633750D02*
X146157836Y-76633750D01*
X145942164Y-77353750D02*
X146157836Y-77353750D01*
X167589086Y-44090000D02*
X167373414Y-44090000D01*
X167589086Y-44810000D02*
X167373414Y-44810000D01*
X153085914Y-95683750D02*
X153301586Y-95683750D01*
X153085914Y-96403750D02*
X153301586Y-96403750D01*
X241300000Y-77815000D02*
X240650000Y-77815000D01*
X241300000Y-77815000D02*
X242975000Y-77815000D01*
X241300000Y-80935000D02*
X240650000Y-80935000D01*
X241300000Y-80935000D02*
X241950000Y-80935000D01*
X86410914Y-29008750D02*
X86626586Y-29008750D01*
X86410914Y-29728750D02*
X86626586Y-29728750D01*
X260350000Y-96865000D02*
X259700000Y-96865000D01*
X260350000Y-96865000D02*
X262025000Y-96865000D01*
X260350000Y-99985000D02*
X259700000Y-99985000D01*
X260350000Y-99985000D02*
X261000000Y-99985000D01*
X36404664Y-38533750D02*
X36620336Y-38533750D01*
X36404664Y-39253750D02*
X36620336Y-39253750D01*
X60325000Y-96865000D02*
X59675000Y-96865000D01*
X60325000Y-96865000D02*
X62000000Y-96865000D01*
X60325000Y-99985000D02*
X59675000Y-99985000D01*
X60325000Y-99985000D02*
X60975000Y-99985000D01*
X112712500Y-39715000D02*
X112062500Y-39715000D01*
X112712500Y-39715000D02*
X114387500Y-39715000D01*
X112712500Y-42835000D02*
X112062500Y-42835000D01*
X112712500Y-42835000D02*
X113362500Y-42835000D01*
X224523414Y-105208750D02*
X224739086Y-105208750D01*
X224523414Y-105928750D02*
X224739086Y-105928750D01*
X107950000Y-77815000D02*
X107300000Y-77815000D01*
X107950000Y-77815000D02*
X109625000Y-77815000D01*
X107950000Y-80935000D02*
X107300000Y-80935000D01*
X107950000Y-80935000D02*
X108600000Y-80935000D01*
X231667164Y-57583750D02*
X231882836Y-57583750D01*
X231667164Y-58303750D02*
X231882836Y-58303750D01*
X55562500Y-39715000D02*
X54912500Y-39715000D01*
X55562500Y-39715000D02*
X57237500Y-39715000D01*
X55562500Y-42835000D02*
X54912500Y-42835000D01*
X55562500Y-42835000D02*
X56212500Y-42835000D01*
X128053118Y-71077500D02*
X128268790Y-71077500D01*
X128053118Y-71797500D02*
X128268790Y-71797500D01*
X50799000Y-16190625D02*
X50799000Y-14190625D01*
X60199000Y-16190625D02*
X60199000Y-14190625D01*
X47646447Y-32331250D02*
X48000000Y-32581250D01*
X47646447Y-32831250D02*
X47646447Y-32331250D01*
X48000000Y-32581250D02*
X47646447Y-32831250D01*
X48710000Y-30971250D02*
X48710000Y-32021250D01*
X48710000Y-32021250D02*
X48500000Y-32021250D01*
X48710000Y-37791250D02*
X48710000Y-36741250D01*
X52040000Y-30971250D02*
X48710000Y-30971250D01*
X52040000Y-37791250D02*
X48710000Y-37791250D01*
X52930000Y-32841250D02*
X52930000Y-35921250D01*
X52930000Y-35921250D02*
X53430000Y-36221250D01*
X53430000Y-32041250D02*
X53430000Y-32541250D01*
X53430000Y-32541250D02*
X52930000Y-32841250D01*
X53430000Y-36221250D02*
X53430000Y-36721250D01*
X169862500Y-39715000D02*
X169212500Y-39715000D01*
X169862500Y-39715000D02*
X171537500Y-39715000D01*
X169862500Y-42835000D02*
X169212500Y-42835000D01*
X169862500Y-42835000D02*
X170512500Y-42835000D01*
X33229664Y-29008750D02*
X33445336Y-29008750D01*
X33229664Y-29728750D02*
X33445336Y-29728750D01*
X195948414Y-67108750D02*
X196164086Y-67108750D01*
X195948414Y-67828750D02*
X196164086Y-67828750D01*
D14*
X120037500Y-25929000D02*
X119437500Y-25929000D01*
X120037500Y-25329000D01*
X120037500Y-25929000D01*
G36*
X120037500Y-25929000D02*
G01*
X119437500Y-25929000D01*
X120037500Y-25329000D01*
X120037500Y-25929000D01*
G37*
D15*
X90869770Y-35821620D02*
X90869770Y-35836860D01*
D16*
X90870130Y-30667500D02*
X95269410Y-30667500D01*
X90870130Y-36007500D02*
X90870130Y-30667500D01*
X95269410Y-30667500D02*
X95269410Y-36007500D01*
X95269410Y-36007500D02*
X90870130Y-36007500D01*
X97099770Y-30667500D02*
X95269410Y-30667500D01*
X97099770Y-31066280D02*
X97099770Y-30667500D01*
D13*
X222250000Y-96865000D02*
X221600000Y-96865000D01*
X222250000Y-96865000D02*
X223925000Y-96865000D01*
X222250000Y-99985000D02*
X221600000Y-99985000D01*
X222250000Y-99985000D02*
X222900000Y-99985000D01*
X34771359Y-55576250D02*
X35078641Y-55576250D01*
X34771359Y-56336250D02*
X35078641Y-56336250D01*
D14*
X220050000Y-102129000D02*
X219450000Y-102129000D01*
X220050000Y-101529000D01*
X220050000Y-102129000D01*
G36*
X220050000Y-102129000D02*
G01*
X219450000Y-102129000D01*
X220050000Y-101529000D01*
X220050000Y-102129000D01*
G37*
D13*
X181876586Y-82190000D02*
X181660914Y-82190000D01*
X181876586Y-82910000D02*
X181660914Y-82910000D01*
X110439086Y-44090000D02*
X110223414Y-44090000D01*
X110439086Y-44810000D02*
X110223414Y-44810000D01*
D15*
X170837860Y-76302870D02*
X170837860Y-76318110D01*
D16*
X170838220Y-71148750D02*
X175237500Y-71148750D01*
X170838220Y-76488750D02*
X170838220Y-71148750D01*
X175237500Y-71148750D02*
X175237500Y-76488750D01*
X175237500Y-76488750D02*
X170838220Y-76488750D01*
X177067860Y-71148750D02*
X175237500Y-71148750D01*
X177067860Y-71547530D02*
X177067860Y-71148750D01*
D13*
X255479664Y-57583750D02*
X255695336Y-57583750D01*
X255479664Y-58303750D02*
X255695336Y-58303750D01*
D14*
X255406250Y-48379000D02*
X255406250Y-47779000D01*
X256006250Y-47779000D01*
X255406250Y-48379000D01*
G36*
X255406250Y-48379000D02*
G01*
X255406250Y-47779000D01*
X256006250Y-47779000D01*
X255406250Y-48379000D01*
G37*
D13*
X119748414Y-67108750D02*
X119964086Y-67108750D01*
X119748414Y-67828750D02*
X119964086Y-67828750D01*
X38785914Y-57583750D02*
X39001586Y-57583750D01*
X38785914Y-58303750D02*
X39001586Y-58303750D01*
D14*
X77175000Y-64029000D02*
X76575000Y-64029000D01*
X77175000Y-63429000D01*
X77175000Y-64029000D01*
G36*
X77175000Y-64029000D02*
G01*
X76575000Y-64029000D01*
X77175000Y-63429000D01*
X77175000Y-64029000D01*
G37*
D13*
X239026586Y-82190000D02*
X238810914Y-82190000D01*
X239026586Y-82910000D02*
X238810914Y-82910000D01*
X86626586Y-82190000D02*
X86410914Y-82190000D01*
X86626586Y-82910000D02*
X86410914Y-82910000D01*
X60325000Y-58765000D02*
X59675000Y-58765000D01*
X60325000Y-58765000D02*
X62000000Y-58765000D01*
X60325000Y-61885000D02*
X59675000Y-61885000D01*
X60325000Y-61885000D02*
X60975000Y-61885000D01*
X46135464Y-71077500D02*
X46351136Y-71077500D01*
X46135464Y-71797500D02*
X46351136Y-71797500D01*
X51193750Y-28553750D02*
X51193750Y-24543750D01*
X53193750Y-28553750D02*
X51193750Y-28553750D01*
X53193750Y-28553750D02*
X53193750Y-24543750D01*
X79375000Y-58765000D02*
X78725000Y-58765000D01*
X79375000Y-58765000D02*
X81050000Y-58765000D01*
X79375000Y-61885000D02*
X78725000Y-61885000D01*
X79375000Y-61885000D02*
X80025000Y-61885000D01*
X58377500Y-34817164D02*
X58377500Y-35032836D01*
X59097500Y-34817164D02*
X59097500Y-35032836D01*
X193567164Y-57583750D02*
X193782836Y-57583750D01*
X193567164Y-58303750D02*
X193782836Y-58303750D01*
X188804664Y-38533750D02*
X189020336Y-38533750D01*
X188804664Y-39253750D02*
X189020336Y-39253750D01*
X62598414Y-67108750D02*
X62814086Y-67108750D01*
X62598414Y-67828750D02*
X62814086Y-67828750D01*
X122129664Y-19483750D02*
X122345336Y-19483750D01*
X122129664Y-20203750D02*
X122345336Y-20203750D01*
X257860914Y-67108750D02*
X258076586Y-67108750D01*
X257860914Y-67828750D02*
X258076586Y-67828750D01*
D14*
X229575000Y-64029000D02*
X228975000Y-64029000D01*
X229575000Y-63429000D01*
X229575000Y-64029000D01*
G36*
X229575000Y-64029000D02*
G01*
X228975000Y-64029000D01*
X229575000Y-63429000D01*
X229575000Y-64029000D01*
G37*
X81937500Y-25929000D02*
X81337500Y-25929000D01*
X81937500Y-25329000D01*
X81937500Y-25929000D01*
G36*
X81937500Y-25929000D02*
G01*
X81337500Y-25929000D01*
X81937500Y-25329000D01*
X81937500Y-25929000D01*
G37*
D13*
X98317164Y-57583750D02*
X98532836Y-57583750D01*
X98317164Y-58303750D02*
X98532836Y-58303750D01*
X47052697Y-31271250D02*
X47052697Y-32321250D01*
X47052697Y-32321250D02*
X46062697Y-32321250D01*
X47052697Y-37491250D02*
X47052697Y-36441250D01*
X49552697Y-31271250D02*
X47052697Y-31271250D01*
X49552697Y-37491250D02*
X47052697Y-37491250D01*
X51522697Y-32441250D02*
X51522697Y-36321250D01*
X117475000Y-58765000D02*
X116825000Y-58765000D01*
X117475000Y-58765000D02*
X119150000Y-58765000D01*
X117475000Y-61885000D02*
X116825000Y-61885000D01*
X117475000Y-61885000D02*
X118125000Y-61885000D01*
X226904664Y-38533750D02*
X227120336Y-38533750D01*
X226904664Y-39253750D02*
X227120336Y-39253750D01*
X205046868Y-71077500D02*
X205262540Y-71077500D01*
X205046868Y-71797500D02*
X205262540Y-71797500D01*
X174625000Y-58765000D02*
X173975000Y-58765000D01*
X174625000Y-58765000D02*
X176300000Y-58765000D01*
X174625000Y-61885000D02*
X173975000Y-61885000D01*
X174625000Y-61885000D02*
X175275000Y-61885000D01*
X224739086Y-44090000D02*
X224523414Y-44090000D01*
X224739086Y-44810000D02*
X224523414Y-44810000D01*
X103079664Y-19483750D02*
X103295336Y-19483750D01*
X103079664Y-20203750D02*
X103295336Y-20203750D01*
X61165109Y-36926250D02*
X61472391Y-36926250D01*
X61165109Y-37686250D02*
X61472391Y-37686250D01*
X69191587Y-34817164D02*
X69191587Y-35032836D01*
X69911587Y-34817164D02*
X69911587Y-35032836D01*
D14*
X210162500Y-48379000D02*
X210162500Y-47779000D01*
X210762500Y-47779000D01*
X210162500Y-48379000D01*
G36*
X210162500Y-48379000D02*
G01*
X210162500Y-47779000D01*
X210762500Y-47779000D01*
X210162500Y-48379000D01*
G37*
D13*
X35078641Y-48438750D02*
X34771359Y-48438750D01*
X35078641Y-49198750D02*
X34771359Y-49198750D01*
D14*
X133962500Y-48379000D02*
X133962500Y-47779000D01*
X134562500Y-47779000D01*
X133962500Y-48379000D01*
G36*
X133962500Y-48379000D02*
G01*
X133962500Y-47779000D01*
X134562500Y-47779000D01*
X133962500Y-48379000D01*
G37*
X153375000Y-64029000D02*
X152775000Y-64029000D01*
X153375000Y-63429000D01*
X153375000Y-64029000D01*
G36*
X153375000Y-64029000D02*
G01*
X152775000Y-64029000D01*
X153375000Y-63429000D01*
X153375000Y-64029000D01*
G37*
X110150000Y-86479000D02*
X110150000Y-85879000D01*
X110750000Y-85879000D01*
X110150000Y-86479000D01*
G36*
X110150000Y-86479000D02*
G01*
X110150000Y-85879000D01*
X110750000Y-85879000D01*
X110150000Y-86479000D01*
G37*
X243500000Y-86479000D02*
X243500000Y-85879000D01*
X244100000Y-85879000D01*
X243500000Y-86479000D01*
G36*
X243500000Y-86479000D02*
G01*
X243500000Y-85879000D01*
X244100000Y-85879000D01*
X243500000Y-86479000D01*
G37*
X95862500Y-48379000D02*
X95862500Y-47779000D01*
X96462500Y-47779000D01*
X95862500Y-48379000D01*
G36*
X95862500Y-48379000D02*
G01*
X95862500Y-47779000D01*
X96462500Y-47779000D01*
X95862500Y-48379000D01*
G37*
D13*
X60217164Y-57583750D02*
X60432836Y-57583750D01*
X60217164Y-58303750D02*
X60432836Y-58303750D01*
D15*
X247037860Y-76321325D02*
X247037860Y-76336565D01*
D16*
X247038220Y-71167205D02*
X251437500Y-71167205D01*
X247038220Y-76507205D02*
X247038220Y-71167205D01*
X251437500Y-71167205D02*
X251437500Y-76507205D01*
X251437500Y-76507205D02*
X247038220Y-76507205D01*
X253267860Y-71167205D02*
X251437500Y-71167205D01*
X253267860Y-71565985D02*
X253267860Y-71167205D01*
D13*
X48310914Y-29008750D02*
X48526586Y-29008750D01*
X48310914Y-29728750D02*
X48526586Y-29728750D01*
D14*
X100987500Y-25929000D02*
X100387500Y-25929000D01*
X100987500Y-25329000D01*
X100987500Y-25929000D01*
G36*
X100987500Y-25929000D02*
G01*
X100387500Y-25929000D01*
X100987500Y-25329000D01*
X100987500Y-25929000D01*
G37*
D13*
X53289086Y-44090000D02*
X53073414Y-44090000D01*
X53289086Y-44810000D02*
X53073414Y-44810000D01*
D14*
X28812500Y-20272500D02*
X28212500Y-20272500D01*
X28812500Y-19672500D01*
X28812500Y-20272500D01*
G36*
X28812500Y-20272500D02*
G01*
X28212500Y-20272500D01*
X28812500Y-19672500D01*
X28812500Y-20272500D01*
G37*
D13*
X122129664Y-105208750D02*
X122345336Y-105208750D01*
X122129664Y-105928750D02*
X122345336Y-105928750D01*
D14*
X239100000Y-102129000D02*
X238500000Y-102129000D01*
X239100000Y-101529000D01*
X239100000Y-102129000D01*
G36*
X239100000Y-102129000D02*
G01*
X238500000Y-102129000D01*
X239100000Y-101529000D01*
X239100000Y-102129000D01*
G37*
X91100000Y-86479000D02*
X91100000Y-85879000D01*
X91700000Y-85879000D01*
X91100000Y-86479000D01*
G36*
X91100000Y-86479000D02*
G01*
X91100000Y-85879000D01*
X91700000Y-85879000D01*
X91100000Y-86479000D01*
G37*
D13*
X260242164Y-76633750D02*
X260457836Y-76633750D01*
X260242164Y-77353750D02*
X260457836Y-77353750D01*
D14*
X262550000Y-86479000D02*
X262550000Y-85879000D01*
X263150000Y-85879000D01*
X262550000Y-86479000D01*
G36*
X262550000Y-86479000D02*
G01*
X262550000Y-85879000D01*
X263150000Y-85879000D01*
X262550000Y-86479000D01*
G37*
D13*
X241192164Y-76633750D02*
X241407836Y-76633750D01*
X241192164Y-77353750D02*
X241407836Y-77353750D01*
D14*
X167300000Y-86479000D02*
X167300000Y-85879000D01*
X167900000Y-85879000D01*
X167300000Y-86479000D01*
G36*
X167300000Y-86479000D02*
G01*
X167300000Y-85879000D01*
X167900000Y-85879000D01*
X167300000Y-86479000D01*
G37*
X148250000Y-86479000D02*
X148250000Y-85879000D01*
X148850000Y-85879000D01*
X148250000Y-86479000D01*
G36*
X148250000Y-86479000D02*
G01*
X148250000Y-85879000D01*
X148850000Y-85879000D01*
X148250000Y-86479000D01*
G37*
D13*
X38893750Y-58765000D02*
X38243750Y-58765000D01*
X38893750Y-58765000D02*
X40568750Y-58765000D01*
X38893750Y-61885000D02*
X38243750Y-61885000D01*
X38893750Y-61885000D02*
X39543750Y-61885000D01*
X184042164Y-76633750D02*
X184257836Y-76633750D01*
X184042164Y-77353750D02*
X184257836Y-77353750D01*
X93662500Y-39715000D02*
X93012500Y-39715000D01*
X93662500Y-39715000D02*
X95337500Y-39715000D01*
X93662500Y-42835000D02*
X93012500Y-42835000D01*
X93662500Y-42835000D02*
X94312500Y-42835000D01*
X67360914Y-29008750D02*
X67576586Y-29008750D01*
X67360914Y-29728750D02*
X67576586Y-29728750D01*
X188912500Y-39715000D02*
X188262500Y-39715000D01*
X188912500Y-39715000D02*
X190587500Y-39715000D01*
X188912500Y-42835000D02*
X188262500Y-42835000D01*
X188912500Y-42835000D02*
X189562500Y-42835000D01*
X241300000Y-96865000D02*
X240650000Y-96865000D01*
X241300000Y-96865000D02*
X242975000Y-96865000D01*
X241300000Y-99985000D02*
X240650000Y-99985000D01*
X241300000Y-99985000D02*
X241950000Y-99985000D01*
X87204664Y-30596250D02*
X87420336Y-30596250D01*
X87204664Y-31316250D02*
X87420336Y-31316250D01*
X60342500Y-50317500D02*
X60642500Y-50317500D01*
X60342500Y-54457500D02*
X60342500Y-50317500D01*
X60642500Y-54457500D02*
X60342500Y-54457500D01*
X63182500Y-50317500D02*
X63482500Y-50317500D01*
X63482500Y-50317500D02*
X63482500Y-54457500D01*
X63482500Y-54457500D02*
X63182500Y-54457500D01*
X141179664Y-19483750D02*
X141395336Y-19483750D01*
X141179664Y-20203750D02*
X141395336Y-20203750D01*
X262623414Y-105208750D02*
X262839086Y-105208750D01*
X262623414Y-105928750D02*
X262839086Y-105928750D01*
D14*
X172062500Y-48379000D02*
X172062500Y-47779000D01*
X172662500Y-47779000D01*
X172062500Y-48379000D01*
G36*
X172062500Y-48379000D02*
G01*
X172062500Y-47779000D01*
X172662500Y-47779000D01*
X172062500Y-48379000D01*
G37*
D13*
X231775000Y-58765000D02*
X231125000Y-58765000D01*
X231775000Y-58765000D02*
X233450000Y-58765000D01*
X231775000Y-61885000D02*
X231125000Y-61885000D01*
X231775000Y-61885000D02*
X232425000Y-61885000D01*
X56996359Y-56770000D02*
X57303641Y-56770000D01*
X56996359Y-57530000D02*
X57303641Y-57530000D01*
X98425000Y-58765000D02*
X97775000Y-58765000D01*
X98425000Y-58765000D02*
X100100000Y-58765000D01*
X98425000Y-61885000D02*
X97775000Y-61885000D01*
X98425000Y-61885000D02*
X99075000Y-61885000D01*
X79267164Y-57583750D02*
X79482836Y-57583750D01*
X79267164Y-58303750D02*
X79482836Y-58303750D01*
X167481250Y-96865000D02*
X166831250Y-96865000D01*
X167481250Y-96865000D02*
X169156250Y-96865000D01*
X167481250Y-99985000D02*
X166831250Y-99985000D01*
X167481250Y-99985000D02*
X168131250Y-99985000D01*
D14*
X134325000Y-64029000D02*
X133725000Y-64029000D01*
X134325000Y-63429000D01*
X134325000Y-64029000D01*
G36*
X134325000Y-64029000D02*
G01*
X133725000Y-64029000D01*
X134325000Y-63429000D01*
X134325000Y-64029000D01*
G37*
D17*
G36*
X151128264Y-49086468D02*
G01*
X151360750Y-49269943D01*
X151458717Y-49691894D01*
X151473758Y-50039824D01*
X151381764Y-50209718D01*
X151113139Y-50210262D01*
X150987698Y-50183756D01*
X150755212Y-50000281D01*
X150657245Y-49578330D01*
X150642204Y-49230400D01*
X150734198Y-49060506D01*
X151002823Y-49059962D01*
X151128264Y-49086468D01*
G37*
G36*
X150772547Y-51108132D02*
G01*
X151065301Y-51177257D01*
X151513104Y-51303959D01*
X151870639Y-51434942D01*
X152140212Y-51608740D01*
X152137118Y-51741862D01*
X151835532Y-51794976D01*
X151770402Y-51797316D01*
X151640476Y-51844319D01*
X151558330Y-51997915D01*
X151513102Y-52317844D01*
X151493931Y-52863844D01*
X151489954Y-53695656D01*
X151492036Y-54185758D01*
X151510180Y-54882284D01*
X151552756Y-55314268D01*
X151626698Y-55534642D01*
X151738940Y-55596337D01*
X151844711Y-55610138D01*
X152094716Y-55769126D01*
X152042815Y-55851457D01*
X151693075Y-55918401D01*
X151057981Y-55941915D01*
X150522706Y-55926384D01*
X150116193Y-55867286D01*
X150021246Y-55769126D01*
X150082840Y-55701643D01*
X150377022Y-55596337D01*
X150480742Y-55540147D01*
X150552547Y-55337053D01*
X150597026Y-54937427D01*
X150619679Y-54291644D01*
X150626008Y-53350078D01*
X150626307Y-53183972D01*
X150637051Y-52370136D01*
X150660926Y-51709397D01*
X150694803Y-51265906D01*
X150735553Y-51103820D01*
X150772547Y-51108132D01*
G37*
G36*
X135011739Y-53837073D02*
G01*
X134845366Y-54604016D01*
X134479612Y-55297268D01*
X133968918Y-55786915D01*
X133560590Y-55980962D01*
X132792408Y-56087837D01*
X132053739Y-55892099D01*
X131408798Y-55416959D01*
X130921798Y-54685624D01*
X130678400Y-54014169D01*
X130627604Y-53437764D01*
X131467932Y-53437764D01*
X131474385Y-54172694D01*
X131639819Y-54825110D01*
X131957325Y-55279464D01*
X132425166Y-55537995D01*
X132973333Y-55539942D01*
X133468174Y-55207561D01*
X133730892Y-54891492D01*
X134099510Y-54203791D01*
X134211042Y-53439251D01*
X134208125Y-53305893D01*
X134062125Y-52556564D01*
X133736913Y-52014923D01*
X133289577Y-51705203D01*
X132777209Y-51651633D01*
X132256898Y-51878444D01*
X131785734Y-52409868D01*
X131627369Y-52735869D01*
X131467932Y-53437764D01*
X130627604Y-53437764D01*
X130608727Y-53223557D01*
X130817807Y-52437385D01*
X131112894Y-51905364D01*
X131679501Y-51397499D01*
X132451830Y-51155222D01*
X132752950Y-51137605D01*
X133519940Y-51308310D01*
X134180703Y-51763814D01*
X134686034Y-52461356D01*
X134986730Y-53358176D01*
X134990964Y-53439251D01*
X135011739Y-53837073D01*
G37*
G36*
X160930107Y-53837073D02*
G01*
X160763734Y-54604016D01*
X160397979Y-55297268D01*
X159887286Y-55786915D01*
X159478957Y-55980962D01*
X158710775Y-56087837D01*
X157972107Y-55892099D01*
X157327165Y-55416959D01*
X156840165Y-54685624D01*
X156596767Y-54014169D01*
X156545972Y-53437764D01*
X157386299Y-53437764D01*
X157392752Y-54172694D01*
X157558187Y-54825110D01*
X157875692Y-55279464D01*
X158343534Y-55537995D01*
X158891700Y-55539942D01*
X159386541Y-55207561D01*
X159649259Y-54891492D01*
X160017878Y-54203791D01*
X160129410Y-53439251D01*
X160126492Y-53305893D01*
X159980493Y-52556564D01*
X159655280Y-52014923D01*
X159207945Y-51705203D01*
X158695576Y-51651633D01*
X158175265Y-51878444D01*
X157704101Y-52409868D01*
X157545737Y-52735869D01*
X157386299Y-53437764D01*
X156545972Y-53437764D01*
X156527095Y-53223557D01*
X156736174Y-52437385D01*
X157031261Y-51905364D01*
X157597868Y-51397499D01*
X158370197Y-51155222D01*
X158671317Y-51137605D01*
X159438308Y-51308310D01*
X160099070Y-51763814D01*
X160604401Y-52461356D01*
X160905098Y-53358176D01*
X160909332Y-53439251D01*
X160930107Y-53837073D01*
G37*
G36*
X166113780Y-53837073D02*
G01*
X165947407Y-54604016D01*
X165581652Y-55297268D01*
X165070959Y-55786915D01*
X164662630Y-55980962D01*
X163894449Y-56087837D01*
X163155780Y-55892099D01*
X162510839Y-55416959D01*
X162023838Y-54685624D01*
X161780441Y-54014169D01*
X161729645Y-53437764D01*
X162569973Y-53437764D01*
X162576426Y-54172694D01*
X162741860Y-54825110D01*
X163059366Y-55279464D01*
X163527207Y-55537995D01*
X164075373Y-55539942D01*
X164570215Y-55207561D01*
X164832932Y-54891492D01*
X165201551Y-54203791D01*
X165313083Y-53439251D01*
X165310166Y-53305893D01*
X165164166Y-52556564D01*
X164838953Y-52014923D01*
X164391618Y-51705203D01*
X163879250Y-51651633D01*
X163358939Y-51878444D01*
X162887775Y-52409868D01*
X162729410Y-52735869D01*
X162569973Y-53437764D01*
X161729645Y-53437764D01*
X161710768Y-53223557D01*
X161919848Y-52437385D01*
X162214935Y-51905364D01*
X162781542Y-51397499D01*
X163553870Y-51155222D01*
X163854991Y-51137605D01*
X164621981Y-51308310D01*
X165282744Y-51763814D01*
X165788075Y-52461356D01*
X166088771Y-53358176D01*
X166093005Y-53439251D01*
X166113780Y-53837073D01*
G37*
G36*
X137839614Y-49635112D02*
G01*
X138061779Y-49943233D01*
X138185192Y-50592080D01*
X138193372Y-50829891D01*
X138289442Y-51175809D01*
X138530770Y-51326674D01*
X138732097Y-51414940D01*
X138876348Y-51606010D01*
X138811434Y-51715928D01*
X138530770Y-51794976D01*
X138498112Y-51795455D01*
X138353426Y-51829832D01*
X138261804Y-51962825D01*
X138211233Y-52256166D01*
X138189700Y-52771585D01*
X138185192Y-53570815D01*
X138177593Y-54238847D01*
X138136103Y-54953808D01*
X138051570Y-55430256D01*
X137916210Y-55730679D01*
X137785407Y-55889129D01*
X137445606Y-56079818D01*
X136971427Y-56060901D01*
X136289129Y-55837207D01*
X136234503Y-55814879D01*
X135809476Y-55587314D01*
X135698343Y-55423875D01*
X135890499Y-55369737D01*
X136375336Y-55470071D01*
X136635071Y-55539216D01*
X136970724Y-55554152D01*
X137197069Y-55402197D01*
X137338833Y-55038718D01*
X137420743Y-54419084D01*
X137467527Y-53498661D01*
X137527413Y-51763135D01*
X136694786Y-51822253D01*
X136670307Y-51823967D01*
X136161480Y-51835251D01*
X135901342Y-51761617D01*
X135801482Y-51578990D01*
X135792424Y-51517710D01*
X135848041Y-51365200D01*
X136097992Y-51294115D01*
X136617420Y-51276609D01*
X137494035Y-51276609D01*
X137494035Y-50299488D01*
X137494042Y-50243799D01*
X137501043Y-49721874D01*
X137541301Y-49484266D01*
X137644323Y-49474253D01*
X137839614Y-49635112D01*
G37*
G36*
X154945736Y-49635112D02*
G01*
X155167902Y-49943233D01*
X155291314Y-50592080D01*
X155299494Y-50829891D01*
X155395564Y-51175809D01*
X155636893Y-51326674D01*
X155838219Y-51414940D01*
X155982471Y-51606010D01*
X155917557Y-51715928D01*
X155636893Y-51794976D01*
X155604234Y-51795455D01*
X155459549Y-51829832D01*
X155367927Y-51962825D01*
X155317356Y-52256166D01*
X155295823Y-52771585D01*
X155291314Y-53570815D01*
X155283715Y-54238847D01*
X155242226Y-54953808D01*
X155157692Y-55430256D01*
X155022333Y-55730679D01*
X154891530Y-55889129D01*
X154551728Y-56079818D01*
X154077549Y-56060901D01*
X153395251Y-55837207D01*
X153340625Y-55814879D01*
X152915598Y-55587314D01*
X152804466Y-55423875D01*
X152996622Y-55369737D01*
X153481458Y-55470071D01*
X153741194Y-55539216D01*
X154076847Y-55554152D01*
X154303192Y-55402197D01*
X154444955Y-55038718D01*
X154526866Y-54419084D01*
X154573650Y-53498661D01*
X154633536Y-51763135D01*
X153800908Y-51822253D01*
X153776430Y-51823967D01*
X153267602Y-51835251D01*
X153007465Y-51761617D01*
X152907604Y-51578990D01*
X152898547Y-51517710D01*
X152954163Y-51365200D01*
X153204114Y-51294115D01*
X153723543Y-51276609D01*
X154600158Y-51276609D01*
X154600158Y-50299488D01*
X154600165Y-50243799D01*
X154607165Y-49721874D01*
X154647424Y-49484266D01*
X154750446Y-49474253D01*
X154945736Y-49635112D01*
G37*
G36*
X172043497Y-51206055D02*
G01*
X171917862Y-51371506D01*
X171560957Y-51558929D01*
X171471886Y-51596902D01*
X171267126Y-51738701D01*
X171070671Y-51988322D01*
X170851750Y-52400299D01*
X170579594Y-53029168D01*
X170223431Y-53929464D01*
X170134785Y-54157025D01*
X169827888Y-54925003D01*
X169567826Y-55545997D01*
X169379753Y-55961263D01*
X169288822Y-56112058D01*
X169122169Y-56059945D01*
X168907228Y-55842949D01*
X168660842Y-55418758D01*
X168359910Y-54746250D01*
X167981333Y-53784299D01*
X167960771Y-53730300D01*
X167641210Y-52936267D01*
X167336774Y-52254957D01*
X167081029Y-51757326D01*
X166907541Y-51514330D01*
X166812819Y-51433353D01*
X166801265Y-51341348D01*
X167033151Y-51300566D01*
X167559342Y-51293798D01*
X167849981Y-51297712D01*
X168214922Y-51321927D01*
X168295263Y-51379047D01*
X168131946Y-51482571D01*
X167754210Y-51665144D01*
X168285082Y-53155570D01*
X168404230Y-53485244D01*
X168639562Y-54107753D01*
X168827034Y-54566126D01*
X168934163Y-54779111D01*
X168944847Y-54783395D01*
X169061474Y-54635541D01*
X169253175Y-54259354D01*
X169486047Y-53737006D01*
X169726187Y-53150669D01*
X169939691Y-52582514D01*
X170092656Y-52114713D01*
X170151178Y-51829438D01*
X170098600Y-51692033D01*
X169848797Y-51463238D01*
X169830336Y-51452227D01*
X169742450Y-51351779D01*
X169923063Y-51298369D01*
X170410362Y-51279504D01*
X170685781Y-51272473D01*
X171259366Y-51231377D01*
X171663083Y-51167702D01*
X171920450Y-51129283D01*
X172043497Y-51206055D01*
G37*
G36*
X127052960Y-51277578D02*
G01*
X127718215Y-51707440D01*
X128509001Y-52311061D01*
X128509001Y-51804032D01*
X128515008Y-51626310D01*
X128622717Y-51271130D01*
X128903452Y-51181313D01*
X129406689Y-51330779D01*
X129481080Y-51361606D01*
X129795293Y-51508742D01*
X129821335Y-51599330D01*
X129588933Y-51692355D01*
X129522248Y-51715396D01*
X129371193Y-51803694D01*
X129276620Y-51974165D01*
X129225365Y-52292657D01*
X129204266Y-52825014D01*
X129200158Y-53637082D01*
X129200224Y-53769774D01*
X129207090Y-54541588D01*
X129233460Y-55040981D01*
X129290948Y-55332115D01*
X129391169Y-55479157D01*
X129545736Y-55546271D01*
X129747515Y-55627952D01*
X129891314Y-55789278D01*
X129761082Y-55860629D01*
X129370811Y-55915321D01*
X128811382Y-55932852D01*
X128689936Y-55931756D01*
X128165804Y-55919307D01*
X127929207Y-55882038D01*
X127930547Y-55799837D01*
X128120226Y-55652593D01*
X128311803Y-55485759D01*
X128437800Y-55236612D01*
X128495312Y-54830196D01*
X128509001Y-54172620D01*
X128508013Y-53873714D01*
X128483067Y-53334343D01*
X128391705Y-52971218D01*
X128191037Y-52664166D01*
X127838173Y-52293015D01*
X127546088Y-52025442D01*
X127005701Y-51691397D01*
X126575032Y-51667331D01*
X126268822Y-51956406D01*
X126232541Y-52057142D01*
X126159513Y-52492765D01*
X126108890Y-53131288D01*
X126089954Y-53873262D01*
X126093072Y-54446714D01*
X126114750Y-54992294D01*
X126169539Y-55311354D01*
X126271709Y-55472984D01*
X126435532Y-55546271D01*
X126597200Y-55595601D01*
X126790178Y-55721674D01*
X126683242Y-55831449D01*
X126309279Y-55907613D01*
X125701178Y-55932852D01*
X125579732Y-55931756D01*
X125055600Y-55919307D01*
X124819003Y-55882038D01*
X124820343Y-55799837D01*
X125010022Y-55652593D01*
X125062987Y-55614458D01*
X125217783Y-55464849D01*
X125316048Y-55249774D01*
X125370496Y-54899217D01*
X125393841Y-54343161D01*
X125398797Y-53511590D01*
X125399006Y-53279317D01*
X125407455Y-52520808D01*
X125437504Y-52020831D01*
X125501712Y-51709457D01*
X125612632Y-51516757D01*
X125782822Y-51372801D01*
X126016376Y-51233483D01*
X126508948Y-51123615D01*
X127052960Y-51277578D01*
G37*
G36*
X146578130Y-51277578D02*
G01*
X147243385Y-51707440D01*
X148034172Y-52311061D01*
X148034172Y-51804032D01*
X148040178Y-51626310D01*
X148147887Y-51271130D01*
X148428622Y-51181313D01*
X148931859Y-51330779D01*
X149006250Y-51361606D01*
X149320463Y-51508742D01*
X149346505Y-51599330D01*
X149114103Y-51692355D01*
X149047418Y-51715396D01*
X148896363Y-51803694D01*
X148801790Y-51974165D01*
X148750536Y-52292657D01*
X148729436Y-52825014D01*
X148725328Y-53637082D01*
X148725394Y-53769774D01*
X148732260Y-54541588D01*
X148758630Y-55040981D01*
X148816118Y-55332115D01*
X148916339Y-55479157D01*
X149070906Y-55546271D01*
X149272685Y-55627952D01*
X149416484Y-55789278D01*
X149286252Y-55860629D01*
X148895981Y-55915321D01*
X148336552Y-55932852D01*
X148215106Y-55931756D01*
X147690974Y-55919307D01*
X147454377Y-55882038D01*
X147455717Y-55799837D01*
X147645396Y-55652593D01*
X147836973Y-55485759D01*
X147962970Y-55236612D01*
X148020482Y-54830196D01*
X148034172Y-54172620D01*
X148033183Y-53873714D01*
X148008237Y-53334343D01*
X147916875Y-52971218D01*
X147716207Y-52664166D01*
X147363343Y-52293015D01*
X147071258Y-52025442D01*
X146530871Y-51691397D01*
X146100202Y-51667331D01*
X145793992Y-51956406D01*
X145757711Y-52057142D01*
X145684683Y-52492765D01*
X145634060Y-53131288D01*
X145615124Y-53873262D01*
X145618242Y-54446714D01*
X145639921Y-54992294D01*
X145694709Y-55311354D01*
X145796879Y-55472984D01*
X145960702Y-55546271D01*
X146122370Y-55595601D01*
X146315348Y-55721674D01*
X146208412Y-55831449D01*
X145834450Y-55907613D01*
X145226348Y-55932852D01*
X145104902Y-55931756D01*
X144580770Y-55919307D01*
X144344173Y-55882038D01*
X144345513Y-55799837D01*
X144535192Y-55652593D01*
X144588157Y-55614458D01*
X144742953Y-55464849D01*
X144841218Y-55249774D01*
X144895666Y-54899217D01*
X144919011Y-54343161D01*
X144923967Y-53511590D01*
X144924176Y-53279317D01*
X144932625Y-52520808D01*
X144962675Y-52020831D01*
X145026882Y-51709457D01*
X145137802Y-51516757D01*
X145307992Y-51372801D01*
X145541546Y-51233483D01*
X146034118Y-51123615D01*
X146578130Y-51277578D01*
G37*
G36*
X143532126Y-52656099D02*
G01*
X143456543Y-53275576D01*
X143037804Y-53880511D01*
X142915606Y-54010995D01*
X142701793Y-54314533D01*
X142691297Y-54481605D01*
X142955558Y-54738757D01*
X143069382Y-55144827D01*
X142905343Y-55516807D01*
X142772814Y-55656603D01*
X142715149Y-55826095D01*
X142925183Y-55980276D01*
X143530555Y-56439168D01*
X143837714Y-56955619D01*
X143840277Y-56959928D01*
X143828562Y-57481257D01*
X143496941Y-57956977D01*
X142846945Y-58340913D01*
X142077954Y-58529545D01*
X141181876Y-58485581D01*
X140359091Y-58185899D01*
X139686114Y-57660246D01*
X139239460Y-56938370D01*
X139228211Y-56829010D01*
X139946738Y-56829010D01*
X140008793Y-57254136D01*
X140358815Y-57649759D01*
X140848532Y-57909591D01*
X141604357Y-57988001D01*
X142435863Y-57768652D01*
X142513280Y-57733047D01*
X142978823Y-57377560D01*
X143122637Y-56955619D01*
X142944455Y-56521217D01*
X142444007Y-56128342D01*
X142336284Y-56075017D01*
X142022035Y-55988966D01*
X141618135Y-56008831D01*
X141005118Y-56135181D01*
X140599794Y-56238088D01*
X140206808Y-56383521D01*
X140016918Y-56562274D01*
X139946738Y-56829010D01*
X139228211Y-56829010D01*
X139187134Y-56429686D01*
X139460809Y-55985629D01*
X140066581Y-55627712D01*
X141002756Y-55357453D01*
X141021180Y-55353662D01*
X141619436Y-55219456D01*
X142071257Y-55097872D01*
X142280100Y-55014807D01*
X142322314Y-54911266D01*
X142186842Y-54684562D01*
X141849823Y-54463479D01*
X141395000Y-54314297D01*
X141352002Y-54305241D01*
X140823016Y-54085745D01*
X140346613Y-53736484D01*
X140070630Y-53415080D01*
X139967313Y-53124942D01*
X140640210Y-53124942D01*
X140920226Y-53582482D01*
X141352920Y-53825475D01*
X141892072Y-53798259D01*
X142426379Y-53444327D01*
X142455862Y-53414142D01*
X142782846Y-52889114D01*
X142810891Y-52361141D01*
X142534512Y-51908151D01*
X142194007Y-51693300D01*
X141651219Y-51667228D01*
X141059514Y-51980306D01*
X140924081Y-52103647D01*
X140644673Y-52595446D01*
X140640210Y-53124942D01*
X139967313Y-53124942D01*
X139941558Y-53052615D01*
X139960444Y-52531156D01*
X139991074Y-52070171D01*
X139926815Y-51849315D01*
X139740226Y-51794976D01*
X139590880Y-51766151D01*
X139300046Y-51598407D01*
X139091291Y-51371023D01*
X139079156Y-51188993D01*
X139092409Y-51180870D01*
X139332638Y-51185780D01*
X139740938Y-51276793D01*
X140134081Y-51349177D01*
X140966561Y-51251178D01*
X141642297Y-51141109D01*
X142371903Y-51299406D01*
X143045427Y-51790533D01*
X143264474Y-52044211D01*
X143403105Y-52361141D01*
X143532126Y-52656099D01*
G37*
D13*
X43548414Y-76633750D02*
X43764086Y-76633750D01*
X43548414Y-77353750D02*
X43764086Y-77353750D01*
X157848414Y-67108750D02*
X158064086Y-67108750D01*
X157848414Y-67828750D02*
X158064086Y-67828750D01*
X222250000Y-77815000D02*
X221600000Y-77815000D01*
X222250000Y-77815000D02*
X223925000Y-77815000D01*
X222250000Y-80935000D02*
X221600000Y-80935000D01*
X222250000Y-80935000D02*
X222900000Y-80935000D01*
X64979664Y-19483750D02*
X65195336Y-19483750D01*
X64979664Y-20203750D02*
X65195336Y-20203750D01*
X253206250Y-39715000D02*
X252556250Y-39715000D01*
X253206250Y-39715000D02*
X254881250Y-39715000D01*
X253206250Y-42835000D02*
X252556250Y-42835000D01*
X253206250Y-42835000D02*
X253856250Y-42835000D01*
X201252500Y-101707836D02*
X201252500Y-101492164D01*
X201972500Y-101707836D02*
X201972500Y-101492164D01*
D14*
X153012500Y-48379000D02*
X153012500Y-47779000D01*
X153612500Y-47779000D01*
X153012500Y-48379000D01*
G36*
X153012500Y-48379000D02*
G01*
X153012500Y-47779000D01*
X153612500Y-47779000D01*
X153012500Y-48379000D01*
G37*
D13*
X89953118Y-71077500D02*
X90168790Y-71077500D01*
X89953118Y-71797500D02*
X90168790Y-71797500D01*
X212725000Y-58765000D02*
X212075000Y-58765000D01*
X212725000Y-58765000D02*
X214400000Y-58765000D01*
X212725000Y-61885000D02*
X212075000Y-61885000D01*
X212725000Y-61885000D02*
X213375000Y-61885000D01*
X38785914Y-95683750D02*
X39001586Y-95683750D01*
X38785914Y-96403750D02*
X39001586Y-96403750D01*
D14*
X253387500Y-64029000D02*
X252787500Y-64029000D01*
X253387500Y-63429000D01*
X253387500Y-64029000D01*
G36*
X253387500Y-64029000D02*
G01*
X252787500Y-64029000D01*
X253387500Y-63429000D01*
X253387500Y-64029000D01*
G37*
X172425000Y-64029000D02*
X171825000Y-64029000D01*
X172425000Y-63429000D01*
X172425000Y-64029000D01*
G36*
X172425000Y-64029000D02*
G01*
X171825000Y-64029000D01*
X172425000Y-63429000D01*
X172425000Y-64029000D01*
G37*
D13*
X69742164Y-76633750D02*
X69957836Y-76633750D01*
X69742164Y-77353750D02*
X69957836Y-77353750D01*
X200710914Y-95683750D02*
X200926586Y-95683750D01*
X200710914Y-96403750D02*
X200926586Y-96403750D01*
X46037500Y-20665000D02*
X45387500Y-20665000D01*
X46037500Y-20665000D02*
X47712500Y-20665000D01*
X46037500Y-23785000D02*
X45387500Y-23785000D01*
X46037500Y-23785000D02*
X46687500Y-23785000D01*
X72339086Y-44090000D02*
X72123414Y-44090000D01*
X72339086Y-44810000D02*
X72123414Y-44810000D01*
X57257836Y-53121250D02*
X57042164Y-53121250D01*
X57257836Y-53841250D02*
X57042164Y-53841250D01*
X33229664Y-17896250D02*
X33445336Y-17896250D01*
X33229664Y-18616250D02*
X33445336Y-18616250D01*
X57257836Y-54167711D02*
X57042164Y-54167711D01*
X57257836Y-54887711D02*
X57042164Y-54887711D01*
D14*
X129200000Y-86479000D02*
X129200000Y-85879000D01*
X129800000Y-85879000D01*
X129200000Y-86479000D01*
G36*
X129200000Y-86479000D02*
G01*
X129200000Y-85879000D01*
X129800000Y-85879000D01*
X129200000Y-86479000D01*
G37*
D13*
X81648414Y-67108750D02*
X81864086Y-67108750D01*
X81648414Y-67828750D02*
X81864086Y-67828750D01*
X193675000Y-58765000D02*
X193025000Y-58765000D01*
X193675000Y-58765000D02*
X195350000Y-58765000D01*
X193675000Y-61885000D02*
X193025000Y-61885000D01*
X193675000Y-61885000D02*
X194325000Y-61885000D01*
X165100000Y-77815000D02*
X164450000Y-77815000D01*
X165100000Y-77815000D02*
X166775000Y-77815000D01*
X165100000Y-80935000D02*
X164450000Y-80935000D01*
X165100000Y-80935000D02*
X165750000Y-80935000D01*
X60217164Y-95683750D02*
X60432836Y-95683750D01*
X60217164Y-96403750D02*
X60432836Y-96403750D01*
X84029664Y-105208750D02*
X84245336Y-105208750D01*
X84029664Y-105928750D02*
X84245336Y-105928750D01*
X43656250Y-77815000D02*
X43006250Y-77815000D01*
X43656250Y-77815000D02*
X45331250Y-77815000D01*
X43656250Y-80935000D02*
X43006250Y-80935000D01*
X43656250Y-80935000D02*
X44306250Y-80935000D01*
D15*
X93844110Y-76302870D02*
X93844110Y-76318110D01*
D16*
X93844470Y-71148750D02*
X98243750Y-71148750D01*
X93844470Y-76488750D02*
X93844470Y-71148750D01*
X98243750Y-71148750D02*
X98243750Y-76488750D01*
X98243750Y-76488750D02*
X93844470Y-76488750D01*
X100074110Y-71148750D02*
X98243750Y-71148750D01*
X100074110Y-71547530D02*
X100074110Y-71148750D01*
D13*
X260350000Y-77815000D02*
X259700000Y-77815000D01*
X260350000Y-77815000D02*
X262025000Y-77815000D01*
X260350000Y-80935000D02*
X259700000Y-80935000D01*
X260350000Y-80935000D02*
X261000000Y-80935000D01*
X84137500Y-20665000D02*
X83487500Y-20665000D01*
X84137500Y-20665000D02*
X85812500Y-20665000D01*
X84137500Y-23785000D02*
X83487500Y-23785000D01*
X84137500Y-23785000D02*
X84787500Y-23785000D01*
D15*
X131944110Y-76300855D02*
X131944110Y-76316095D01*
D16*
X131944470Y-71146735D02*
X136343750Y-71146735D01*
X131944470Y-76486735D02*
X131944470Y-71146735D01*
X136343750Y-71146735D02*
X136343750Y-76486735D01*
X136343750Y-76486735D02*
X131944470Y-76486735D01*
X138174110Y-71146735D02*
X136343750Y-71146735D01*
X138174110Y-71545515D02*
X138174110Y-71146735D01*
D13*
X33229664Y-30596250D02*
X33445336Y-30596250D01*
X33229664Y-31316250D02*
X33445336Y-31316250D01*
X207962500Y-39715000D02*
X207312500Y-39715000D01*
X207962500Y-39715000D02*
X209637500Y-39715000D01*
X207962500Y-42835000D02*
X207312500Y-42835000D01*
X207962500Y-42835000D02*
X208612500Y-42835000D01*
D14*
X165281250Y-102129000D02*
X164681250Y-102129000D01*
X165281250Y-101529000D01*
X165281250Y-102129000D01*
G36*
X165281250Y-102129000D02*
G01*
X164681250Y-102129000D01*
X165281250Y-101529000D01*
X165281250Y-102129000D01*
G37*
D13*
X212617164Y-57583750D02*
X212832836Y-57583750D01*
X212617164Y-58303750D02*
X212832836Y-58303750D01*
X57427500Y-25591686D02*
X57427500Y-26795814D01*
X59247500Y-25591686D02*
X59247500Y-26795814D01*
D14*
X43837500Y-25929000D02*
X43237500Y-25929000D01*
X43837500Y-25329000D01*
X43837500Y-25929000D01*
G36*
X43837500Y-25929000D02*
G01*
X43237500Y-25929000D01*
X43837500Y-25329000D01*
X43837500Y-25929000D01*
G37*
D13*
X166946868Y-71079515D02*
X167162540Y-71079515D01*
X166946868Y-71799515D02*
X167162540Y-71799515D01*
X91389086Y-44090000D02*
X91173414Y-44090000D01*
X91389086Y-44810000D02*
X91173414Y-44810000D01*
D14*
X57762500Y-48379000D02*
X57762500Y-47779000D01*
X58362500Y-47779000D01*
X57762500Y-48379000D01*
G36*
X57762500Y-48379000D02*
G01*
X57762500Y-47779000D01*
X58362500Y-47779000D01*
X57762500Y-48379000D01*
G37*
D13*
X74504664Y-38533750D02*
X74720336Y-38533750D01*
X74504664Y-39253750D02*
X74720336Y-39253750D01*
X141287500Y-20665000D02*
X140637500Y-20665000D01*
X141287500Y-20665000D02*
X142962500Y-20665000D01*
X141287500Y-23785000D02*
X140637500Y-23785000D01*
X141287500Y-23785000D02*
X141937500Y-23785000D01*
X74612500Y-39715000D02*
X73962500Y-39715000D01*
X74612500Y-39715000D02*
X76287500Y-39715000D01*
X74612500Y-42835000D02*
X73962500Y-42835000D01*
X74612500Y-42835000D02*
X75262500Y-42835000D01*
D14*
X186350000Y-86479000D02*
X186350000Y-85879000D01*
X186950000Y-85879000D01*
X186350000Y-86479000D01*
G36*
X186350000Y-86479000D02*
G01*
X186350000Y-85879000D01*
X186950000Y-85879000D01*
X186350000Y-86479000D01*
G37*
X72050000Y-86479000D02*
X72050000Y-85879000D01*
X72650000Y-85879000D01*
X72050000Y-86479000D01*
G36*
X72050000Y-86479000D02*
G01*
X72050000Y-85879000D01*
X72650000Y-85879000D01*
X72050000Y-86479000D01*
G37*
X58125000Y-102129000D02*
X57525000Y-102129000D01*
X58125000Y-101529000D01*
X58125000Y-102129000D01*
G36*
X58125000Y-102129000D02*
G01*
X57525000Y-102129000D01*
X58125000Y-101529000D01*
X58125000Y-102129000D01*
G37*
D13*
X38737391Y-52801250D02*
X38430109Y-52801250D01*
X38737391Y-53561250D02*
X38430109Y-53561250D01*
X169754664Y-38533750D02*
X169970336Y-38533750D01*
X169754664Y-39253750D02*
X169970336Y-39253750D01*
D14*
X191475000Y-64029000D02*
X190875000Y-64029000D01*
X191475000Y-63429000D01*
X191475000Y-64029000D01*
G36*
X191475000Y-64029000D02*
G01*
X190875000Y-64029000D01*
X191475000Y-63429000D01*
X191475000Y-64029000D01*
G37*
X117656250Y-102129000D02*
X117056250Y-102129000D01*
X117656250Y-101529000D01*
X117656250Y-102129000D01*
G36*
X117656250Y-102129000D02*
G01*
X117056250Y-102129000D01*
X117656250Y-101529000D01*
X117656250Y-102129000D01*
G37*
D13*
X81648414Y-95683750D02*
X81864086Y-95683750D01*
X81648414Y-96403750D02*
X81864086Y-96403750D01*
M02*
