M48
; DRILL file {KiCad 8.0.8} date 2025-02-11T15:39:58+0100
; FORMAT={-:-/ absolute / inch / decimal}
; #@! TF.CreationDate,2025-02-11T15:39:58+01:00
; #@! TF.GenerationSoftware,Kicad,Pcbnew,8.0.8
; #@! TF.FileFunction,Plated,1,2,PTH
FMAT,2
INCH
; #@! TA.AperFunction,Plated,PTH,ViaDrill
T1C0.0157
; #@! TA.AperFunction,Plated,PTH,ComponentDrill
T2C0.0236
; #@! TA.AperFunction,Plated,PTH,ComponentDrill
T3C0.0394
%
G90
G05
T1
X1.125Y-0.5625
X1.125Y-0.7812
X1.125Y-1.0
X1.2096Y-1.2812
X1.2153Y-3.2777
X1.2154Y-1.7812
X1.2154Y-2.625
X1.2188Y-0.7188
X1.2188Y-0.9375
X1.2188Y-1.1562
X1.2188Y-1.1875
X1.2725Y-1.855
X1.2812Y-1.4375
X1.2812Y-1.75
X1.3125Y-1.922
X1.3281Y-1.4375
X1.3438Y-1.625
X1.3438Y-1.625
X1.3652Y-2.5483
X1.3652Y-2.6068
X1.3686Y-4.047
X1.3686Y-4.1055
X1.375Y-0.5938
X1.3772Y-0.7118
X1.3772Y-0.9336
X1.3772Y-1.1553
X1.4375Y-2.203
X1.4375Y-2.375
X1.4375Y-2.375
X1.4375Y-3.875
X1.4375Y-3.875
X1.4688Y-2.0312
X1.4688Y-2.0938
X1.5Y-1.5312
X1.5502Y-1.9188
X1.5537Y-3.355
X1.5625Y-3.25
X1.5938Y-2.2812
X1.5938Y-3.7812
X1.6025Y-1.855
X1.603Y-1.7961
X1.625Y-3.125
X1.625Y-3.125
X1.6479Y-1.0466
X1.6479Y-1.1051
X1.6811Y-1.2748
X1.6811Y-1.2748
X1.6875Y-2.6562
X1.6875Y-4.1562
X1.6952Y-2.5483
X1.6986Y-4.047
X1.7188Y-0.875
X1.7581Y-2.8125
X1.7812Y-3.0312
X1.875Y-0.7812
X1.875Y-2.0938
X1.875Y-2.25
X1.875Y-2.8167
X1.8755Y-2.0539
X1.8838Y-3.2964
X1.8838Y-3.355
X1.9688Y-1.1562
X1.9688Y-2.0625
X1.9688Y-2.1562
X1.9688Y-2.25
X1.9779Y-1.0466
X1.9905Y-2.7317
X2.0145Y-2.9375
X2.0145Y-3.0
X2.023Y-1.8555
X2.0312Y-1.75
X2.034Y-2.7317
X2.0457Y-2.9688
X2.055Y-0.9254
X2.055Y-1.1559
X2.0625Y-2.0625
X2.0625Y-2.25
X2.0625Y-2.25
X2.0734Y-2.7317
X2.0938Y-1.625
X2.0938Y-1.625
X2.1127Y-2.7317
X2.1154Y-0.8807
X2.1383Y-1.1169
X2.1391Y-1.1562
X2.1562Y-2.7317
X2.1875Y-0.5782
X2.1875Y-2.0625
X2.1875Y-2.1267
X2.1875Y-2.1875
X2.1875Y-3.0651
X2.1956Y-2.7317
X2.2073Y-2.5487
X2.2078Y-2.6039
X2.2118Y-4.0487
X2.2118Y-4.1073
X2.2188Y-1.1562
X2.2459Y-0.8819
X2.25Y-1.5312
X2.2812Y-2.375
X2.2812Y-2.375
X2.2812Y-3.875
X2.2812Y-3.875
X2.3102Y-2.1935
X2.3113Y-1.2742
X2.3123Y-2.1466
X2.3125Y-1.4375
X2.3125Y-2.0625
X2.3125Y-2.1054
X2.3125Y-2.2506
X2.3525Y-1.7964
X2.3525Y-1.855
X2.3979Y-1.0466
X2.3979Y-1.1051
X2.4375Y-2.2812
X2.4375Y-3.7812
X2.4688Y-0.875
X2.4688Y-1.4688
X2.5312Y-2.6562
X2.5312Y-4.1562
X2.5373Y-2.5487
X2.5418Y-4.0487
X2.585Y-3.355
X2.5938Y-3.25
X2.625Y-0.7812
X2.6562Y-3.125
X2.6562Y-3.125
X2.7188Y-1.1562
X2.7279Y-1.0466
X2.7382Y-1.4391
X2.7725Y-1.855
X2.7812Y-1.4375
X2.7812Y-1.75
X2.8125Y-3.0312
X2.8438Y-1.625
X2.8438Y-1.625
X2.915Y-3.2964
X2.915Y-3.355
X2.9593Y-2.5465
X2.9593Y-2.6051
X3.0Y-1.5312
X3.0312Y-2.375
X3.0312Y-2.375
X3.0535Y-4.0486
X3.0535Y-4.1072
X3.1025Y-1.7964
X3.1025Y-1.855
X3.125Y-3.875
X3.125Y-3.875
X3.1479Y-1.0466
X3.1479Y-1.1051
X3.1875Y-2.2812
X3.2188Y-0.875
X3.2812Y-2.6562
X3.2812Y-3.7812
X3.2893Y-2.5465
X3.335Y-3.355
X3.3438Y-3.25
X3.375Y-0.7812
X3.375Y-4.1562
X3.3829Y-1.2188
X3.3835Y-4.0486
X3.4062Y-3.125
X3.4062Y-3.125
X3.4375Y-3.0312
X3.4688Y-1.1562
X3.4779Y-1.0466
X3.4832Y-2.8125
X3.484Y-1.2201
X3.5225Y-1.855
X3.5312Y-1.75
X3.5625Y-3.0312
X3.5938Y-1.625
X3.5938Y-1.625
X3.6001Y-2.8138
X3.625Y-1.3438
X3.665Y-3.2964
X3.665Y-3.355
X3.6707Y-1.3732
X3.6875Y-1.25
X3.6875Y-1.3125
X3.7106Y-2.5474
X3.7106Y-2.606
X3.7188Y-1.4062
X3.7332Y-2.9375
X3.7332Y-3.0
X3.75Y-1.5312
X3.7645Y-2.8125
X3.7645Y-2.9688
X3.7812Y-1.4375
X3.7812Y-2.375
X3.7812Y-2.375
X3.8525Y-1.7964
X3.8525Y-1.855
X3.8979Y-1.0466
X3.8979Y-1.1051
X3.9207Y-3.0651
X3.9375Y-2.2812
X3.9688Y-0.875
X4.0312Y-2.6562
X4.0406Y-2.5474
X4.085Y-3.355
X4.0938Y-3.25
X4.125Y-0.7812
X4.1562Y-3.125
X4.1562Y-3.125
X4.2188Y-1.1562
X4.2279Y-1.0466
X4.2725Y-1.855
X4.2812Y-1.75
X4.3125Y-3.0312
X4.3438Y-1.625
X4.3438Y-1.625
X4.415Y-3.2964
X4.415Y-3.355
X4.4588Y-2.5499
X4.4588Y-2.6085
X4.5Y-1.5312
X4.5312Y-2.375
X4.5312Y-2.375
X4.5529Y-4.0474
X4.5529Y-4.106
X4.6025Y-1.7964
X4.6025Y-1.855
X4.625Y-3.875
X4.625Y-3.875
X4.6479Y-1.0466
X4.6479Y-1.1051
X4.6875Y-2.2812
X4.7188Y-0.875
X4.7812Y-2.6562
X4.7812Y-3.7812
X4.7888Y-2.5499
X4.835Y-3.355
X4.8438Y-3.25
X4.875Y-0.7812
X4.875Y-4.1562
X4.8829Y-4.0474
X4.9062Y-3.125
X4.9062Y-3.125
X4.9688Y-1.1562
X4.9779Y-1.0466
X4.9832Y-2.8125
X5.0225Y-1.855
X5.0312Y-1.75
X5.0625Y-3.0312
X5.0938Y-1.625
X5.0938Y-1.625
X5.1Y-2.8152
X5.165Y-3.2964
X5.165Y-3.355
X5.2104Y-2.5466
X5.2104Y-2.6051
X5.2332Y-2.9375
X5.2332Y-3.0
X5.25Y-1.5312
X5.2645Y-2.9688
X5.2812Y-2.375
X5.2812Y-2.375
X5.2957Y-2.8438
X5.3525Y-1.7964
X5.3525Y-1.855
X5.3973Y-1.0463
X5.3973Y-1.1048
X5.4207Y-3.0651
X5.4375Y-2.2812
X5.4688Y-0.875
X5.5312Y-2.6562
X5.5404Y-2.5466
X5.585Y-3.355
X5.5938Y-3.25
X5.625Y-0.7812
X5.6562Y-3.125
X5.6562Y-3.125
X5.7188Y-1.1562
X5.7273Y-1.0463
X5.7725Y-1.855
X5.7812Y-1.75
X5.8125Y-3.0312
X5.8438Y-1.625
X5.8438Y-1.625
X5.875Y-4.0
X5.875Y-4.2188
X5.915Y-3.2964
X5.915Y-3.355
X5.9375Y-3.875
X5.9609Y-2.5468
X5.9609Y-2.6054
X6.0Y-1.5312
X6.0312Y-2.375
X6.0312Y-2.375
X6.0312Y-4.2188
X6.0625Y-4.0625
X6.0938Y-3.7812
X6.1025Y-1.7964
X6.1025Y-1.855
X6.1875Y-2.2812
X6.2812Y-2.6562
X6.2909Y-2.5468
X6.335Y-3.355
X6.3438Y-3.25
X6.4062Y-3.125
X6.4062Y-3.125
X6.4274Y-4.0477
X6.4287Y-4.105
X6.5Y-3.875
X6.5Y-3.875
X6.5145Y-2.8126
X6.5225Y-1.855
X6.5312Y-1.75
X6.5625Y-3.0312
X6.5938Y-1.625
X6.5938Y-1.625
X6.6313Y-2.8167
X6.6562Y-3.7812
X6.665Y-3.2964
X6.665Y-3.355
X6.7114Y-2.5477
X6.7114Y-2.6062
X6.75Y-1.5312
X6.75Y-4.1562
X6.7588Y-4.0464
X6.763Y-2.8424
X6.7645Y-2.9376
X6.7645Y-3.0001
X6.7812Y-2.375
X6.7812Y-2.375
X6.7957Y-2.9688
X6.8525Y-1.7964
X6.8525Y-1.855
X6.8582Y-2.8751
X6.9375Y-2.2812
X6.9375Y-3.0625
X7.0312Y-2.6562
X7.0414Y-2.5477
X7.085Y-3.355
X7.0938Y-3.25
X7.1562Y-3.125
X7.1562Y-3.125
X7.2725Y-1.855
X7.2812Y-1.75
X7.3125Y-3.0312
X7.3438Y-1.625
X7.3438Y-1.625
X7.415Y-3.2964
X7.415Y-3.355
X7.4606Y-2.5486
X7.4606Y-2.6071
X7.5Y-1.5312
X7.5312Y-2.375
X7.5312Y-2.375
X7.6025Y-1.7964
X7.6025Y-1.855
X7.6875Y-2.2812
X7.75Y-4.2188
X7.7662Y-4.0028
X7.7812Y-2.6562
X7.7906Y-2.5486
X7.8125Y-3.875
X7.8125Y-3.875
X7.835Y-3.355
X7.8438Y-3.25
X7.9062Y-3.125
X7.9062Y-3.125
X7.9062Y-4.2188
X7.9375Y-4.0625
X7.9688Y-3.7812
X8.0145Y-2.8125
X8.0225Y-1.855
X8.0312Y-1.75
X8.0625Y-3.0312
X8.0938Y-1.625
X8.0938Y-1.625
X8.1321Y-2.8145
X8.165Y-3.2964
X8.165Y-3.355
X8.2094Y-2.5477
X8.2094Y-2.6062
X8.25Y-1.5312
X8.2645Y-2.9375
X8.2645Y-3.0
X8.2812Y-2.375
X8.2812Y-2.375
X8.2957Y-2.9688
X8.327Y-2.9062
X8.3525Y-1.7964
X8.3525Y-1.855
X8.4375Y-2.2812
X8.452Y-3.0651
X8.5312Y-2.6562
X8.5394Y-2.5477
X8.5847Y-4.0479
X8.5847Y-4.1065
X8.585Y-3.355
X8.5938Y-3.25
X8.6562Y-3.125
X8.6562Y-3.125
X8.6562Y-3.875
X8.6562Y-3.875
X8.7725Y-1.855
X8.7812Y-1.75
X8.8125Y-3.0312
X8.8125Y-3.7812
X8.8438Y-1.625
X8.9062Y-4.1562
X8.9147Y-4.0479
X8.915Y-3.2964
X8.915Y-3.355
X8.9585Y-2.5458
X8.9585Y-2.6043
X9.0Y-1.5312
X9.0312Y-2.375
X9.0312Y-2.375
X9.1025Y-1.7964
X9.1025Y-1.855
X9.1875Y-2.2812
X9.2812Y-2.6562
X9.2885Y-2.5458
X9.335Y-3.355
X9.3418Y-4.1072
X9.3423Y-4.0483
X9.3438Y-3.25
X9.4062Y-3.125
X9.4062Y-3.125
X9.4062Y-3.875
X9.4062Y-3.875
X9.5145Y-2.8125
X9.5625Y-3.0312
X9.5625Y-3.7812
X9.6335Y-2.8145
X9.6562Y-4.1562
X9.665Y-3.2964
X9.665Y-3.355
X9.6718Y-4.0486
X9.7645Y-2.9375
X9.7645Y-3.0
X9.7957Y-2.9688
X9.8037Y-1.855
X9.8125Y-1.75
X9.8125Y-2.8438
X9.875Y-1.625
X9.875Y-1.625
X9.8983Y-2.5478
X9.8983Y-2.6064
X9.9584Y-3.0598
X9.9688Y-2.375
X9.9688Y-2.375
X10.0312Y-1.5312
X10.085Y-3.355
X10.0871Y-4.0464
X10.0871Y-4.105
X10.0938Y-3.25
X10.125Y-2.2812
X10.1337Y-1.7964
X10.1337Y-1.855
X10.1562Y-3.125
X10.1562Y-3.125
X10.1562Y-3.875
X10.1562Y-3.875
X10.2188Y-2.6562
X10.2283Y-2.5478
X10.3125Y-3.0312
X10.3125Y-3.7812
X10.4062Y-4.1562
X10.415Y-3.2964
X10.415Y-3.355
T3
X1.6289Y-1.9187
X1.6289Y-2.0187
X1.6289Y-2.1187
X1.6289Y-2.2188
T2
G00X2.0149Y-0.5095
M15
G01X2.0149Y-0.5331
M16
G05
G00X2.0149Y-0.6642
M15
G01X2.0149Y-0.7075
M16
G05
G00X2.3551Y-0.5095
M15
G01X2.3551Y-0.5331
M16
G05
G00X2.3551Y-0.6642
M15
G01X2.3551Y-0.7075
M16
G05
M30
