M48
; DRILL file {KiCad (7.0.0)} date Sat Sep 30 19:12:27 2023
; FORMAT={-:-/ absolute / inch / decimal}
; #@! TF.CreationDate,2023-09-30T19:12:27+02:00
; #@! TF.GenerationSoftware,Kicad,Pcbnew,(7.0.0)
; #@! TF.FileFunction,Plated,1,2,PTH
FMAT,2
INCH
; #@! TA.AperFunction,Plated,PTH,ViaDrill
T1C0.0157
; #@! TA.AperFunction,Plated,PTH,ComponentDrill
T2C0.0236
; #@! TA.AperFunction,Plated,PTH,ComponentDrill
T3C0.0866
%
G90
G05
T1
X1.125Y-0.5625
X1.125Y-0.7812
X1.125Y-1.0
X1.2096Y-1.2812
X1.2153Y-3.2777
X1.2154Y-1.7812
X1.2154Y-2.625
X1.2725Y-1.855
X1.2812Y-1.4375
X1.3056Y-1.1848
X1.3125Y-1.75
X1.3281Y-1.4375
X1.3438Y-0.7188
X1.3438Y-0.9375
X1.3438Y-1.1562
X1.3438Y-1.625
X1.3438Y-1.625
X1.3652Y-2.5483
X1.3652Y-2.6068
X1.3686Y-4.047
X1.3686Y-4.1055
X1.375Y-0.5938
X1.4375Y-2.375
X1.4375Y-2.375
X1.4375Y-3.875
X1.4375Y-3.875
X1.46Y-3.355
X1.4744Y-1.5365
X1.5Y-3.25
X1.5312Y-3.125
X1.5312Y-3.125
X1.5497Y-2.1373
X1.5682Y-2.2865
X1.5682Y-3.7865
X1.5904Y-2.2158
X1.6025Y-1.855
X1.603Y-1.7961
X1.6479Y-1.0466
X1.6479Y-1.1051
X1.6562Y-2.6562
X1.6562Y-4.1562
X1.6619Y-3.0365
X1.6952Y-2.5483
X1.6986Y-4.047
X1.7109Y-2.7344
X1.7188Y-0.875
X1.7508Y-2.7349
X1.7581Y-1.4375
X1.7644Y-2.0035
X1.7657Y-1.8892
X1.79Y-3.2964
X1.79Y-3.355
X1.7923Y-2.7362
X1.7943Y-2.4927
X1.8064Y-2.3738
X1.8326Y-2.7363
X1.8494Y-0.7865
X1.8735Y-2.7357
X1.9375Y-1.5651
X1.9375Y-2.1562
X1.9381Y-1.1566
X1.9613Y-1.8342
X1.9688Y-2.0625
X1.9779Y-1.0466
X2.0145Y-2.9375
X2.0145Y-3.0
X2.023Y-1.8555
X2.0312Y-1.0181
X2.0409Y-2.7359
X2.0457Y-2.9688
X2.0474Y-1.9234
X2.0625Y-1.75
X2.0818Y-2.7365
X2.0938Y-1.625
X2.0938Y-1.625
X2.1091Y-1.9851
X2.1152Y-0.8673
X2.122Y-2.7364
X2.1364Y-1.2755
X2.1497Y-1.9245
X2.1562Y-2.2055
X2.1636Y-2.7351
X2.1875Y-0.5625
X2.1875Y-3.0651
X2.2034Y-2.7346
X2.2073Y-2.5487
X2.2073Y-2.6072
X2.2118Y-4.0487
X2.2118Y-4.1073
X2.2244Y-1.5365
X2.246Y-0.8677
X2.2669Y-2.1653
X2.2675Y-2.2077
X2.2812Y-2.375
X2.2812Y-2.375
X2.2812Y-3.875
X2.2812Y-3.875
X2.2938Y-1.1971
X2.3525Y-1.7964
X2.3525Y-1.855
X2.3668Y-1.2756
X2.375Y-1.1562
X2.3975Y-3.355
X2.3979Y-1.0466
X2.3979Y-1.1051
X2.4119Y-2.2865
X2.4119Y-3.7865
X2.4375Y-3.25
X2.4688Y-0.875
X2.4688Y-3.125
X2.4688Y-3.125
X2.5Y-4.1562
X2.5006Y-2.6566
X2.5373Y-2.5487
X2.5418Y-4.0487
X2.5994Y-0.7865
X2.5994Y-3.0365
X2.6881Y-1.1566
X2.7275Y-3.2964
X2.7275Y-3.355
X2.7279Y-1.0466
X2.7725Y-1.855
X2.8125Y-1.75
X2.8438Y-1.625
X2.8438Y-1.625
X2.9593Y-2.5465
X2.9593Y-2.6051
X2.9744Y-1.5365
X3.0312Y-2.375
X3.0312Y-2.375
X3.0535Y-4.0486
X3.0535Y-4.1072
X3.1025Y-1.7964
X3.1025Y-1.855
X3.125Y-3.875
X3.125Y-3.875
X3.1475Y-3.355
X3.1479Y-1.0466
X3.1479Y-1.1051
X3.1619Y-2.2865
X3.1875Y-3.25
X3.2188Y-0.875
X3.2188Y-3.125
X3.2188Y-3.125
X3.2506Y-2.6566
X3.2557Y-3.7865
X3.2893Y-2.5465
X3.3438Y-4.1562
X3.3494Y-0.7865
X3.3494Y-3.0365
X3.3835Y-4.0486
X3.4381Y-1.1566
X3.4775Y-3.2964
X3.4775Y-3.355
X3.4779Y-1.0466
X3.5225Y-1.855
X3.5625Y-1.75
X3.5625Y-2.9375
X3.5625Y-3.0
X3.5938Y-1.625
X3.5938Y-1.625
X3.5938Y-2.8125
X3.5938Y-2.9688
X3.625Y-1.3438
X3.6707Y-1.3732
X3.6875Y-1.25
X3.6875Y-1.3125
X3.7106Y-2.5474
X3.7106Y-2.606
X3.7188Y-1.4062
X3.7244Y-1.5365
X3.75Y-3.0651
X3.7812Y-1.4375
X3.7812Y-2.375
X3.7812Y-2.375
X3.8525Y-1.7964
X3.8525Y-1.855
X3.8975Y-3.355
X3.8979Y-1.0466
X3.8979Y-1.1051
X3.9119Y-2.2865
X3.9375Y-3.25
X3.9688Y-0.875
X3.9688Y-3.125
X3.9688Y-3.125
X4.0006Y-2.6566
X4.0406Y-2.5474
X4.0994Y-0.7865
X4.0994Y-3.0365
X4.1881Y-1.1566
X4.2275Y-3.2964
X4.2275Y-3.355
X4.2279Y-1.0466
X4.2725Y-1.855
X4.3125Y-1.75
X4.3438Y-1.625
X4.3438Y-1.625
X4.4588Y-2.5499
X4.4588Y-2.6085
X4.4744Y-1.5365
X4.5312Y-2.375
X4.5312Y-2.375
X4.5529Y-4.0474
X4.5529Y-4.106
X4.6025Y-1.7964
X4.6025Y-1.855
X4.625Y-3.875
X4.625Y-3.875
X4.6475Y-3.355
X4.6479Y-1.0466
X4.6479Y-1.1051
X4.6619Y-2.2865
X4.6875Y-3.25
X4.7188Y-0.875
X4.7188Y-3.125
X4.7188Y-3.125
X4.7506Y-2.6566
X4.7557Y-3.7865
X4.7888Y-2.5499
X4.8494Y-0.7865
X4.8494Y-3.0365
X4.8829Y-4.0474
X4.9381Y-1.1566
X4.9775Y-3.2964
X4.9775Y-3.355
X4.9779Y-1.0466
X5.0225Y-1.855
X5.0312Y-2.9375
X5.0312Y-3.0
X5.0625Y-1.75
X5.0625Y-2.9688
X5.0938Y-1.625
X5.0938Y-1.625
X5.0938Y-2.8438
X5.2104Y-2.5466
X5.2104Y-2.6051
X5.2188Y-3.0651
X5.2244Y-1.5365
X5.2812Y-2.375
X5.2812Y-2.375
X5.3525Y-1.7964
X5.3525Y-1.855
X5.3973Y-1.0463
X5.3973Y-1.1048
X5.3975Y-3.355
X5.4119Y-2.2865
X5.4375Y-3.25
X5.4688Y-0.875
X5.4688Y-3.125
X5.4688Y-3.125
X5.5006Y-2.6566
X5.5404Y-2.5466
X5.5994Y-0.7865
X5.5994Y-3.0365
X5.6875Y-1.1562
X5.7273Y-1.0463
X5.7275Y-3.2964
X5.7275Y-3.355
X5.7725Y-1.855
X5.8125Y-1.75
X5.8438Y-1.625
X5.8438Y-1.625
X5.875Y-4.0
X5.875Y-4.2188
X5.9375Y-3.875
X5.9609Y-2.5468
X5.9609Y-2.6054
X5.9744Y-1.5365
X6.0312Y-2.375
X6.0312Y-2.375
X6.0312Y-4.2188
X6.0682Y-3.7865
X6.1025Y-1.7964
X6.1025Y-1.855
X6.1475Y-3.355
X6.1619Y-2.2865
X6.1875Y-3.25
X6.2188Y-3.125
X6.2188Y-3.125
X6.2506Y-2.6566
X6.2909Y-2.5468
X6.3494Y-3.0365
X6.4274Y-4.0477
X6.4287Y-4.105
X6.4775Y-3.2964
X6.4775Y-3.355
X6.5Y-3.875
X6.5Y-3.875
X6.5225Y-1.855
X6.5625Y-1.75
X6.5938Y-1.625
X6.5938Y-1.625
X6.6307Y-3.7865
X6.7114Y-2.5477
X6.7114Y-2.6062
X6.7173Y-2.8423
X6.7188Y-2.9375
X6.7188Y-3.0
X6.7244Y-1.5365
X6.75Y-2.9688
X6.7588Y-4.0464
X6.7812Y-2.375
X6.7812Y-2.375
X6.8125Y-2.875
X6.8525Y-1.7964
X6.8525Y-1.855
X6.8975Y-3.355
X6.9062Y-3.0651
X6.9119Y-2.2865
X6.9375Y-3.25
X6.9688Y-3.125
X6.9688Y-3.125
X7.0006Y-2.6566
X7.0414Y-2.5477
X7.0994Y-3.0365
X7.2275Y-3.2964
X7.2275Y-3.355
X7.2725Y-1.855
X7.3125Y-1.75
X7.3438Y-1.625
X7.3438Y-1.625
X7.4606Y-2.5486
X7.4606Y-2.6071
X7.4744Y-1.5365
X7.5312Y-2.375
X7.5312Y-2.375
X7.6025Y-1.7964
X7.6025Y-1.855
X7.6475Y-3.355
X7.6619Y-2.2865
X7.6875Y-3.25
X7.7188Y-3.125
X7.7188Y-3.125
X7.75Y-4.2188
X7.7506Y-2.6566
X7.7662Y-4.0028
X7.7906Y-2.5486
X7.8125Y-3.875
X7.8125Y-3.875
X7.8494Y-3.0365
X7.9062Y-4.2188
X7.9432Y-3.7865
X7.9775Y-3.2964
X7.9775Y-3.355
X8.0225Y-1.855
X8.0625Y-1.75
X8.0938Y-1.625
X8.0938Y-1.625
X8.125Y-2.9375
X8.125Y-3.0
X8.1562Y-2.9688
X8.1875Y-2.9062
X8.2094Y-2.5477
X8.2094Y-2.6062
X8.2244Y-1.5365
X8.2812Y-2.375
X8.2812Y-2.375
X8.3125Y-3.0651
X8.3525Y-1.7964
X8.3525Y-1.855
X8.3975Y-3.355
X8.4119Y-2.2865
X8.4375Y-3.25
X8.4688Y-3.125
X8.4688Y-3.125
X8.5006Y-2.6566
X8.5394Y-2.5477
X8.5847Y-4.0479
X8.5847Y-4.1065
X8.5994Y-3.0365
X8.6562Y-3.875
X8.6562Y-3.875
X8.7275Y-3.2964
X8.7275Y-3.355
X8.7725Y-1.855
X8.7869Y-3.7865
X8.8125Y-1.75
X8.8438Y-1.625
X8.875Y-4.1562
X8.9147Y-4.0479
X8.9585Y-2.5458
X8.9585Y-2.6043
X8.9744Y-1.5365
X9.0312Y-2.375
X9.0312Y-2.375
X9.1025Y-1.7964
X9.1025Y-1.855
X9.1384Y-2.2866
X9.1475Y-3.355
X9.1875Y-3.25
X9.2188Y-3.125
X9.2188Y-3.125
X9.2506Y-2.6566
X9.2885Y-2.5458
X9.3418Y-4.1072
X9.3423Y-4.0483
X9.3494Y-3.0365
X9.4062Y-3.875
X9.4062Y-3.875
X9.4775Y-3.2964
X9.4775Y-3.355
X9.5369Y-3.7865
X9.625Y-4.1562
X9.6562Y-2.9375
X9.6562Y-3.0
X9.6718Y-4.0486
X9.6875Y-2.9688
X9.75Y-2.7812
X9.8037Y-1.855
X9.8438Y-1.75
X9.8438Y-1.75
X9.8438Y-3.0312
X9.875Y-1.625
X9.875Y-1.625
X9.8983Y-2.5478
X9.8983Y-2.6064
X9.9688Y-2.375
X9.9688Y-2.375
X9.9688Y-2.9062
X9.9912Y-2.98
X9.9912Y-3.355
X9.9948Y-3.2971
X10.0057Y-1.5365
X10.0625Y-2.75
X10.0625Y-3.125
X10.0625Y-3.125
X10.0871Y-4.0464
X10.0871Y-4.105
X10.0994Y-2.2865
X10.1337Y-1.7964
X10.1337Y-1.855
X10.1562Y-3.875
X10.1562Y-3.875
X10.1875Y-2.6562
X10.2283Y-2.5478
X10.2483Y-2.7126
X10.2517Y-3.0893
X10.2869Y-3.7865
X10.3212Y-2.9214
X10.3212Y-2.98
X10.3212Y-3.2964
X10.3212Y-3.355
X10.375Y-4.1562
T3
X4.0812Y-3.8198
T2
G00X2.0149Y-0.4937
M15
G01X2.0149Y-0.5173
M16
G05
G00X2.0149Y-0.6484
M15
G01X2.0149Y-0.6918
M16
G05
G00X2.3551Y-0.4937
M15
G01X2.3551Y-0.5173
M16
G05
G00X2.3551Y-0.6484
M15
G01X2.3551Y-0.6918
M16
G05
T0
M30
