G04 #@! TF.GenerationSoftware,KiCad,Pcbnew,8.0.8*
G04 #@! TF.CreationDate,2025-03-19T09:54:17+01:00*
G04 #@! TF.ProjectId,vootington V4N plate,766f6f74-696e-4677-946f-6e2056344e20,rev?*
G04 #@! TF.SameCoordinates,Original*
G04 #@! TF.FileFunction,Legend,Bot*
G04 #@! TF.FilePolarity,Positive*
%FSLAX46Y46*%
G04 Gerber Fmt 4.6, Leading zero omitted, Abs format (unit mm)*
G04 Created by KiCad (PCBNEW 8.0.8) date 2025-03-19 09:54:17*
%MOMM*%
%LPD*%
G01*
G04 APERTURE LIST*
%ADD10C,0.150000*%
G04 APERTURE END LIST*
D10*
X264674795Y-38373511D02*
X265246223Y-38373511D01*
X265246223Y-38373511D02*
X265360509Y-38335416D01*
X265360509Y-38335416D02*
X265436700Y-38259225D01*
X265436700Y-38259225D02*
X265474795Y-38144940D01*
X265474795Y-38144940D02*
X265474795Y-38068749D01*
X265474795Y-39135416D02*
X265474795Y-38754464D01*
X265474795Y-38754464D02*
X264674795Y-38754464D01*
X265398604Y-39859226D02*
X265436700Y-39821130D01*
X265436700Y-39821130D02*
X265474795Y-39706845D01*
X265474795Y-39706845D02*
X265474795Y-39630654D01*
X265474795Y-39630654D02*
X265436700Y-39516368D01*
X265436700Y-39516368D02*
X265360509Y-39440178D01*
X265360509Y-39440178D02*
X265284319Y-39402083D01*
X265284319Y-39402083D02*
X265131938Y-39363987D01*
X265131938Y-39363987D02*
X265017652Y-39363987D01*
X265017652Y-39363987D02*
X264865271Y-39402083D01*
X264865271Y-39402083D02*
X264789080Y-39440178D01*
X264789080Y-39440178D02*
X264712890Y-39516368D01*
X264712890Y-39516368D02*
X264674795Y-39630654D01*
X264674795Y-39630654D02*
X264674795Y-39706845D01*
X264674795Y-39706845D02*
X264712890Y-39821130D01*
X264712890Y-39821130D02*
X264750985Y-39859226D01*
X264674795Y-40430654D02*
X265246223Y-40430654D01*
X265246223Y-40430654D02*
X265360509Y-40392559D01*
X265360509Y-40392559D02*
X265436700Y-40316368D01*
X265436700Y-40316368D02*
X265474795Y-40202083D01*
X265474795Y-40202083D02*
X265474795Y-40125892D01*
X265474795Y-41192559D02*
X265474795Y-40811607D01*
X265474795Y-40811607D02*
X264674795Y-40811607D01*
X265398604Y-41916369D02*
X265436700Y-41878273D01*
X265436700Y-41878273D02*
X265474795Y-41763988D01*
X265474795Y-41763988D02*
X265474795Y-41687797D01*
X265474795Y-41687797D02*
X265436700Y-41573511D01*
X265436700Y-41573511D02*
X265360509Y-41497321D01*
X265360509Y-41497321D02*
X265284319Y-41459226D01*
X265284319Y-41459226D02*
X265131938Y-41421130D01*
X265131938Y-41421130D02*
X265017652Y-41421130D01*
X265017652Y-41421130D02*
X264865271Y-41459226D01*
X264865271Y-41459226D02*
X264789080Y-41497321D01*
X264789080Y-41497321D02*
X264712890Y-41573511D01*
X264712890Y-41573511D02*
X264674795Y-41687797D01*
X264674795Y-41687797D02*
X264674795Y-41763988D01*
X264674795Y-41763988D02*
X264712890Y-41878273D01*
X264712890Y-41878273D02*
X264750985Y-41916369D01*
X264674795Y-42487797D02*
X265246223Y-42487797D01*
X265246223Y-42487797D02*
X265360509Y-42449702D01*
X265360509Y-42449702D02*
X265436700Y-42373511D01*
X265436700Y-42373511D02*
X265474795Y-42259226D01*
X265474795Y-42259226D02*
X265474795Y-42183035D01*
X265474795Y-43249702D02*
X265474795Y-42868750D01*
X265474795Y-42868750D02*
X264674795Y-42868750D01*
X265398604Y-43973512D02*
X265436700Y-43935416D01*
X265436700Y-43935416D02*
X265474795Y-43821131D01*
X265474795Y-43821131D02*
X265474795Y-43744940D01*
X265474795Y-43744940D02*
X265436700Y-43630654D01*
X265436700Y-43630654D02*
X265360509Y-43554464D01*
X265360509Y-43554464D02*
X265284319Y-43516369D01*
X265284319Y-43516369D02*
X265131938Y-43478273D01*
X265131938Y-43478273D02*
X265017652Y-43478273D01*
X265017652Y-43478273D02*
X264865271Y-43516369D01*
X264865271Y-43516369D02*
X264789080Y-43554464D01*
X264789080Y-43554464D02*
X264712890Y-43630654D01*
X264712890Y-43630654D02*
X264674795Y-43744940D01*
X264674795Y-43744940D02*
X264674795Y-43821131D01*
X264674795Y-43821131D02*
X264712890Y-43935416D01*
X264712890Y-43935416D02*
X264750985Y-43973512D01*
X264674795Y-44544940D02*
X265246223Y-44544940D01*
X265246223Y-44544940D02*
X265360509Y-44506845D01*
X265360509Y-44506845D02*
X265436700Y-44430654D01*
X265436700Y-44430654D02*
X265474795Y-44316369D01*
X265474795Y-44316369D02*
X265474795Y-44240178D01*
X265474795Y-45306845D02*
X265474795Y-44925893D01*
X265474795Y-44925893D02*
X264674795Y-44925893D01*
X265398604Y-46030655D02*
X265436700Y-45992559D01*
X265436700Y-45992559D02*
X265474795Y-45878274D01*
X265474795Y-45878274D02*
X265474795Y-45802083D01*
X265474795Y-45802083D02*
X265436700Y-45687797D01*
X265436700Y-45687797D02*
X265360509Y-45611607D01*
X265360509Y-45611607D02*
X265284319Y-45573512D01*
X265284319Y-45573512D02*
X265131938Y-45535416D01*
X265131938Y-45535416D02*
X265017652Y-45535416D01*
X265017652Y-45535416D02*
X264865271Y-45573512D01*
X264865271Y-45573512D02*
X264789080Y-45611607D01*
X264789080Y-45611607D02*
X264712890Y-45687797D01*
X264712890Y-45687797D02*
X264674795Y-45802083D01*
X264674795Y-45802083D02*
X264674795Y-45878274D01*
X264674795Y-45878274D02*
X264712890Y-45992559D01*
X264712890Y-45992559D02*
X264750985Y-46030655D01*
M02*
