G04 #@! TF.GenerationSoftware,KiCad,Pcbnew,(7.0.0)*
G04 #@! TF.CreationDate,2023-11-27T23:40:42+01:00*
G04 #@! TF.ProjectId,vootington VAN,766f6f74-696e-4677-946f-6e2056414e2e,rev?*
G04 #@! TF.SameCoordinates,Original*
G04 #@! TF.FileFunction,Profile,NP*
%FSLAX46Y46*%
G04 Gerber Fmt 4.6, Leading zero omitted, Abs format (unit mm)*
G04 Created by KiCad (PCBNEW (7.0.0)) date 2023-11-27 23:40:42*
%MOMM*%
%LPD*%
G01*
G04 APERTURE LIST*
G04 #@! TA.AperFunction,Profile*
%ADD10C,0.200000*%
G04 #@! TD*
G04 #@! TA.AperFunction,Profile*
%ADD11C,0.120000*%
G04 #@! TD*
G04 APERTURE END LIST*
D10*
X26987500Y-106362500D02*
G75*
G03*
X28575000Y-107950000I1587500J0D01*
G01*
X268287500Y-107950000D02*
G75*
G03*
X269875000Y-106362500I0J1587500D01*
G01*
X269875000Y-33337500D02*
G75*
G03*
X268287500Y-31750000I-1587500J0D01*
G01*
X268287500Y-107950000D02*
X28575000Y-107950000D01*
X28575000Y-31750000D02*
X268287500Y-31750000D01*
X28575000Y-31750000D02*
G75*
G03*
X26987500Y-33337500I0J-1587500D01*
G01*
X269875000Y-33337500D02*
X269875000Y-106362500D01*
X26987500Y-106362500D02*
X26987500Y-33337500D01*
D11*
X152912779Y-102464525D02*
X149912779Y-102464525D01*
X149912779Y-102464525D02*
X149912779Y-105864525D01*
X152912779Y-105864525D02*
X152912779Y-102464525D01*
X149912779Y-105864525D02*
X152912779Y-105864525D01*
X40593750Y-105029000D02*
X40593750Y-102029000D01*
X40593750Y-102029000D02*
X37193750Y-102029000D01*
X37193750Y-105029000D02*
X40593750Y-105029000D01*
X37193750Y-102029000D02*
X37193750Y-105029000D01*
X111012500Y-44879000D02*
X111012500Y-47879000D01*
X111012500Y-47879000D02*
X114412500Y-47879000D01*
X114412500Y-44879000D02*
X111012500Y-44879000D01*
X114412500Y-47879000D02*
X114412500Y-44879000D01*
X39575000Y-82979000D02*
X39575000Y-85979000D01*
X39575000Y-85979000D02*
X42975000Y-85979000D01*
X42975000Y-82979000D02*
X39575000Y-82979000D01*
X42975000Y-85979000D02*
X42975000Y-82979000D01*
X215787500Y-82979000D02*
X215787500Y-85979000D01*
X215787500Y-85979000D02*
X219187500Y-85979000D01*
X219187500Y-82979000D02*
X215787500Y-82979000D01*
X219187500Y-85979000D02*
X219187500Y-82979000D01*
X262050000Y-105029000D02*
X262050000Y-102029000D01*
X262050000Y-102029000D02*
X258650000Y-102029000D01*
X258650000Y-105029000D02*
X262050000Y-105029000D01*
X258650000Y-102029000D02*
X258650000Y-105029000D01*
X187212500Y-44879000D02*
X187212500Y-47879000D01*
X187212500Y-47879000D02*
X190612500Y-47879000D01*
X190612500Y-44879000D02*
X187212500Y-44879000D01*
X190612500Y-47879000D02*
X190612500Y-44879000D01*
X83456250Y-105029000D02*
X83456250Y-102029000D01*
X83456250Y-102029000D02*
X80056250Y-102029000D01*
X80056250Y-105029000D02*
X83456250Y-105029000D01*
X80056250Y-102029000D02*
X80056250Y-105029000D01*
X62025000Y-66929000D02*
X62025000Y-63929000D01*
X62025000Y-63929000D02*
X58625000Y-63929000D01*
X58625000Y-66929000D02*
X62025000Y-66929000D01*
X58625000Y-63929000D02*
X58625000Y-66929000D01*
X100125000Y-66929000D02*
X100125000Y-63929000D01*
X100125000Y-63929000D02*
X96725000Y-63929000D01*
X96725000Y-66929000D02*
X100125000Y-66929000D01*
X96725000Y-63929000D02*
X96725000Y-66929000D01*
X72912500Y-44879000D02*
X72912500Y-47879000D01*
X72912500Y-47879000D02*
X76312500Y-47879000D01*
X76312500Y-44879000D02*
X72912500Y-44879000D01*
X76312500Y-47879000D02*
X76312500Y-44879000D01*
X119175000Y-66929000D02*
X119175000Y-63929000D01*
X119175000Y-63929000D02*
X115775000Y-63929000D01*
X115775000Y-66929000D02*
X119175000Y-66929000D01*
X115775000Y-63929000D02*
X115775000Y-66929000D01*
X214425000Y-66929000D02*
X214425000Y-63929000D01*
X214425000Y-63929000D02*
X211025000Y-63929000D01*
X211025000Y-66929000D02*
X214425000Y-66929000D01*
X211025000Y-63929000D02*
X211025000Y-66929000D01*
X256268750Y-73454000D02*
X256268750Y-76454000D01*
X256268750Y-76454000D02*
X259668750Y-76454000D01*
X259668750Y-73454000D02*
X256268750Y-73454000D01*
X259668750Y-76454000D02*
X259668750Y-73454000D01*
X34812500Y-44879000D02*
X34812500Y-47879000D01*
X34812500Y-47879000D02*
X38212500Y-47879000D01*
X38212500Y-44879000D02*
X34812500Y-44879000D01*
X38212500Y-47879000D02*
X38212500Y-44879000D01*
X40593750Y-66929000D02*
X40593750Y-63929000D01*
X40593750Y-63929000D02*
X37193750Y-63929000D01*
X37193750Y-66929000D02*
X40593750Y-66929000D01*
X37193750Y-63929000D02*
X37193750Y-66929000D01*
X196737500Y-82979000D02*
X196737500Y-85979000D01*
X196737500Y-85979000D02*
X200137500Y-85979000D01*
X200137500Y-82979000D02*
X196737500Y-82979000D01*
X200137500Y-85979000D02*
X200137500Y-82979000D01*
X225312500Y-44879000D02*
X225312500Y-47879000D01*
X225312500Y-47879000D02*
X228712500Y-47879000D01*
X228712500Y-44879000D02*
X225312500Y-44879000D01*
X228712500Y-47879000D02*
X228712500Y-44879000D01*
X200613745Y-102464525D02*
X197613745Y-102464525D01*
X197613745Y-102464525D02*
X197613745Y-105864525D01*
X200613745Y-105864525D02*
X200613745Y-102464525D01*
X197613745Y-105864525D02*
X200613745Y-105864525D01*
X223950000Y-105029000D02*
X223950000Y-102029000D01*
X223950000Y-102029000D02*
X220550000Y-102029000D01*
X220550000Y-105029000D02*
X223950000Y-105029000D01*
X220550000Y-102029000D02*
X220550000Y-105029000D01*
X251506250Y-44879000D02*
X251506250Y-47879000D01*
X251506250Y-47879000D02*
X254906250Y-47879000D01*
X254906250Y-44879000D02*
X251506250Y-44879000D01*
X254906250Y-47879000D02*
X254906250Y-44879000D01*
X81075000Y-66929000D02*
X81075000Y-63929000D01*
X81075000Y-63929000D02*
X77675000Y-63929000D01*
X77675000Y-66929000D02*
X81075000Y-66929000D01*
X77675000Y-63929000D02*
X77675000Y-66929000D01*
X233475000Y-66929000D02*
X233475000Y-63929000D01*
X233475000Y-63929000D02*
X230075000Y-63929000D01*
X230075000Y-66929000D02*
X233475000Y-66929000D01*
X230075000Y-63929000D02*
X230075000Y-66929000D01*
X206262500Y-44879000D02*
X206262500Y-47879000D01*
X206262500Y-47879000D02*
X209662500Y-47879000D01*
X209662500Y-44879000D02*
X206262500Y-44879000D01*
X209662500Y-47879000D02*
X209662500Y-44879000D01*
X130062500Y-44879000D02*
X130062500Y-47879000D01*
X130062500Y-47879000D02*
X133462500Y-47879000D01*
X133462500Y-44879000D02*
X130062500Y-44879000D01*
X133462500Y-47879000D02*
X133462500Y-44879000D01*
X157275000Y-66929000D02*
X157275000Y-63929000D01*
X157275000Y-63929000D02*
X153875000Y-63929000D01*
X153875000Y-66929000D02*
X157275000Y-66929000D01*
X153875000Y-63929000D02*
X153875000Y-66929000D01*
X101487500Y-82979000D02*
X101487500Y-85979000D01*
X101487500Y-85979000D02*
X104887500Y-85979000D01*
X104887500Y-82979000D02*
X101487500Y-82979000D01*
X104887500Y-85979000D02*
X104887500Y-82979000D01*
X234837500Y-82979000D02*
X234837500Y-85979000D01*
X234837500Y-85979000D02*
X238237500Y-85979000D01*
X238237500Y-82979000D02*
X234837500Y-82979000D01*
X238237500Y-85979000D02*
X238237500Y-82979000D01*
X91962500Y-44879000D02*
X91962500Y-47879000D01*
X91962500Y-47879000D02*
X95362500Y-47879000D01*
X95362500Y-44879000D02*
X91962500Y-44879000D01*
X95362500Y-47879000D02*
X95362500Y-44879000D01*
X243000000Y-105029000D02*
X243000000Y-102029000D01*
X243000000Y-102029000D02*
X239600000Y-102029000D01*
X239600000Y-105029000D02*
X243000000Y-105029000D01*
X239600000Y-102029000D02*
X239600000Y-105029000D01*
X82437500Y-82979000D02*
X82437500Y-85979000D01*
X82437500Y-85979000D02*
X85837500Y-85979000D01*
X85837500Y-82979000D02*
X82437500Y-82979000D01*
X85837500Y-85979000D02*
X85837500Y-82979000D01*
X256268750Y-82979000D02*
X256268750Y-85979000D01*
X256268750Y-85979000D02*
X259668750Y-85979000D01*
X259668750Y-82979000D02*
X256268750Y-82979000D01*
X259668750Y-85979000D02*
X259668750Y-82979000D01*
X158637500Y-82979000D02*
X158637500Y-85979000D01*
X158637500Y-85979000D02*
X162037500Y-85979000D01*
X162037500Y-82979000D02*
X158637500Y-82979000D01*
X162037500Y-85979000D02*
X162037500Y-82979000D01*
X139587500Y-82979000D02*
X139587500Y-85979000D01*
X139587500Y-85979000D02*
X142987500Y-85979000D01*
X142987500Y-82979000D02*
X139587500Y-82979000D01*
X142987500Y-85979000D02*
X142987500Y-82979000D01*
X168162500Y-44879000D02*
X168162500Y-47879000D01*
X168162500Y-47879000D02*
X171562500Y-47879000D01*
X171562500Y-44879000D02*
X168162500Y-44879000D01*
X171562500Y-47879000D02*
X171562500Y-44879000D01*
X138225000Y-66929000D02*
X138225000Y-63929000D01*
X138225000Y-63929000D02*
X134825000Y-63929000D01*
X134825000Y-66929000D02*
X138225000Y-66929000D01*
X134825000Y-63929000D02*
X134825000Y-66929000D01*
X149112500Y-44879000D02*
X149112500Y-47879000D01*
X149112500Y-47879000D02*
X152512500Y-47879000D01*
X152512500Y-44879000D02*
X149112500Y-44879000D01*
X152512500Y-47879000D02*
X152512500Y-44879000D01*
X257287500Y-66929000D02*
X257287500Y-63929000D01*
X257287500Y-63929000D02*
X253887500Y-63929000D01*
X253887500Y-66929000D02*
X257287500Y-66929000D01*
X253887500Y-63929000D02*
X253887500Y-66929000D01*
X176325000Y-66929000D02*
X176325000Y-63929000D01*
X176325000Y-63929000D02*
X172925000Y-63929000D01*
X172925000Y-66929000D02*
X176325000Y-66929000D01*
X172925000Y-63929000D02*
X172925000Y-66929000D01*
X120537500Y-82979000D02*
X120537500Y-85979000D01*
X120537500Y-85979000D02*
X123937500Y-85979000D01*
X123937500Y-82979000D02*
X120537500Y-82979000D01*
X123937500Y-85979000D02*
X123937500Y-82979000D01*
X169181250Y-105029000D02*
X169181250Y-102029000D01*
X169181250Y-102029000D02*
X165781250Y-102029000D01*
X165781250Y-105029000D02*
X169181250Y-105029000D01*
X165781250Y-102029000D02*
X165781250Y-105029000D01*
X53862500Y-44879000D02*
X53862500Y-47879000D01*
X53862500Y-47879000D02*
X57262500Y-47879000D01*
X57262500Y-44879000D02*
X53862500Y-44879000D01*
X57262500Y-47879000D02*
X57262500Y-44879000D01*
X177687500Y-82979000D02*
X177687500Y-85979000D01*
X177687500Y-85979000D02*
X181087500Y-85979000D01*
X181087500Y-82979000D02*
X177687500Y-82979000D01*
X181087500Y-85979000D02*
X181087500Y-82979000D01*
X63387500Y-82979000D02*
X63387500Y-85979000D01*
X63387500Y-85979000D02*
X66787500Y-85979000D01*
X66787500Y-82979000D02*
X63387500Y-82979000D01*
X66787500Y-85979000D02*
X66787500Y-82979000D01*
X62025000Y-105029000D02*
X62025000Y-102029000D01*
X62025000Y-102029000D02*
X58625000Y-102029000D01*
X58625000Y-105029000D02*
X62025000Y-105029000D01*
X58625000Y-102029000D02*
X58625000Y-105029000D01*
X195375000Y-66929000D02*
X195375000Y-63929000D01*
X195375000Y-63929000D02*
X191975000Y-63929000D01*
X191975000Y-66929000D02*
X195375000Y-66929000D01*
X191975000Y-63929000D02*
X191975000Y-66929000D01*
X121556250Y-105029000D02*
X121556250Y-102029000D01*
X121556250Y-102029000D02*
X118156250Y-102029000D01*
X118156250Y-105029000D02*
X121556250Y-105029000D01*
X118156250Y-102029000D02*
X118156250Y-105029000D01*
M02*
