%TF.GenerationSoftware,KiCad,Pcbnew,8.0.8*%
%TF.CreationDate,2025-02-11T14:29:33+01:00*%
%TF.ProjectId,vootington V4N STM32G0B1CBT6,766f6f74-696e-4677-946f-6e2056344e20,rev?*%
%TF.SameCoordinates,Original*%
%TF.FileFunction,Profile,NP*%
%FSLAX46Y46*%
G04 Gerber Fmt 4.6, Leading zero omitted, Abs format (unit mm)*
G04 Created by KiCad (PCBNEW 8.0.8) date 2025-02-11 14:29:33*
%MOMM*%
%LPD*%
G01*
G04 APERTURE LIST*
%TA.AperFunction,Profile*%
%ADD10C,0.050000*%
%TD*%
%TA.AperFunction,Profile*%
%ADD11C,0.120000*%
%TD*%
G04 APERTURE END LIST*
D10*
X269875000Y-34925000D02*
X269875000Y-104775000D01*
X50681250Y-12700000D02*
X60281250Y-12700000D01*
X49657000Y-12700000D02*
X50681250Y-12700000D01*
X30162500Y-107950000D02*
G75*
G02*
X26987500Y-104775000I0J3175000D01*
G01*
X26987500Y-104775000D02*
X26987500Y-27384375D01*
X61341000Y-12700000D02*
X60281250Y-12700000D01*
X246459375Y-31750000D02*
X160337500Y-31750000D01*
X266700000Y-107950000D02*
X30162500Y-107950000D01*
X269875000Y-104775000D02*
G75*
G02*
X266700000Y-107950000I-3175000J0D01*
G01*
X26987500Y-27384375D02*
X26987500Y-15875000D01*
X147637500Y-12700000D02*
G75*
G02*
X150812500Y-15875000I-100J-3175100D01*
G01*
X61341000Y-12700000D02*
X147637500Y-12700000D01*
X26987500Y-15875000D02*
G75*
G02*
X30162500Y-12700000I3175000J0D01*
G01*
X30162500Y-12700000D02*
X49657000Y-12700000D01*
X150812500Y-31750000D02*
X160337500Y-31750000D01*
X150812500Y-15875000D02*
X150812500Y-31750000D01*
X266700000Y-31750000D02*
G75*
G02*
X269875000Y-34925000I-100J-3175100D01*
G01*
X246459375Y-31750000D02*
X266700000Y-31750000D01*
D11*
%TO.C,D51*%
X149929852Y-102281250D02*
X149929852Y-105681250D01*
X149929852Y-105681250D02*
X152929852Y-105681250D01*
X152929852Y-102281250D02*
X149929852Y-102281250D01*
X152929852Y-105681250D02*
X152929852Y-102281250D01*
%TO.C,D55*%
X37193750Y-102029000D02*
X37193750Y-105029000D01*
X37193750Y-105029000D02*
X40593750Y-105029000D01*
X40593750Y-102029000D02*
X37193750Y-102029000D01*
X40593750Y-105029000D02*
X40593750Y-102029000D01*
%TO.C,D17*%
X111012500Y-44879000D02*
X111012500Y-47879000D01*
X111012500Y-47879000D02*
X114412500Y-47879000D01*
X114412500Y-44879000D02*
X111012500Y-44879000D01*
X114412500Y-47879000D02*
X114412500Y-44879000D01*
%TO.C,D45*%
X41956250Y-82979000D02*
X41956250Y-85979000D01*
X41956250Y-85979000D02*
X45356250Y-85979000D01*
X45356250Y-82979000D02*
X41956250Y-82979000D01*
X45356250Y-85979000D02*
X45356250Y-82979000D01*
%TO.C,D36*%
X220550000Y-82979000D02*
X220550000Y-85979000D01*
X220550000Y-85979000D02*
X223950000Y-85979000D01*
X223950000Y-82979000D02*
X220550000Y-82979000D01*
X223950000Y-85979000D02*
X223950000Y-82979000D01*
%TO.C,D46*%
X258650000Y-102029000D02*
X258650000Y-105029000D01*
X258650000Y-105029000D02*
X262050000Y-105029000D01*
X262050000Y-102029000D02*
X258650000Y-102029000D01*
X262050000Y-105029000D02*
X262050000Y-102029000D01*
%TO.C,D13*%
X187212500Y-44879000D02*
X187212500Y-47879000D01*
X187212500Y-47879000D02*
X190612500Y-47879000D01*
X190612500Y-44879000D02*
X187212500Y-44879000D01*
X190612500Y-47879000D02*
X190612500Y-44879000D01*
%TO.C,D53*%
X80056250Y-102029000D02*
X80056250Y-105029000D01*
X80056250Y-105029000D02*
X83456250Y-105029000D01*
X83456250Y-102029000D02*
X80056250Y-102029000D01*
X83456250Y-105029000D02*
X83456250Y-102029000D01*
%TO.C,D3*%
X29312500Y-14540000D02*
X29312500Y-17540000D01*
X29312500Y-17540000D02*
X32712500Y-17540000D01*
X32712500Y-14540000D02*
X29312500Y-14540000D01*
X32712500Y-17540000D02*
X32712500Y-14540000D01*
%TO.C,D32*%
X58625000Y-63929000D02*
X58625000Y-66929000D01*
X58625000Y-66929000D02*
X62025000Y-66929000D01*
X62025000Y-63929000D02*
X58625000Y-63929000D01*
X62025000Y-66929000D02*
X62025000Y-63929000D01*
%TO.C,D30*%
X96725000Y-63929000D02*
X96725000Y-66929000D01*
X96725000Y-66929000D02*
X100125000Y-66929000D01*
X100125000Y-63929000D02*
X96725000Y-63929000D01*
X100125000Y-66929000D02*
X100125000Y-63929000D01*
%TO.C,D19*%
X72912500Y-44879000D02*
X72912500Y-47879000D01*
X72912500Y-47879000D02*
X76312500Y-47879000D01*
X76312500Y-44879000D02*
X72912500Y-44879000D01*
X76312500Y-47879000D02*
X76312500Y-44879000D01*
%TO.C,D29*%
X115775000Y-63929000D02*
X115775000Y-66929000D01*
X115775000Y-66929000D02*
X119175000Y-66929000D01*
X119175000Y-63929000D02*
X115775000Y-63929000D01*
X119175000Y-66929000D02*
X119175000Y-63929000D01*
%TO.C,D24*%
X211025000Y-63929000D02*
X211025000Y-66929000D01*
X211025000Y-66929000D02*
X214425000Y-66929000D01*
X214425000Y-63929000D02*
X211025000Y-63929000D01*
X214425000Y-66929000D02*
X214425000Y-63929000D01*
%TO.C,D1*%
X29312500Y-25805000D02*
X29312500Y-28805000D01*
X29312500Y-28805000D02*
X32712500Y-28805000D01*
X32712500Y-25805000D02*
X29312500Y-25805000D01*
X32712500Y-28805000D02*
X32712500Y-25805000D01*
%TO.C,D21*%
X34812500Y-44879000D02*
X34812500Y-47879000D01*
X34812500Y-47879000D02*
X38212500Y-47879000D01*
X38212500Y-44879000D02*
X34812500Y-44879000D01*
X38212500Y-47879000D02*
X38212500Y-44879000D01*
%TO.C,D5*%
X63387500Y-25829000D02*
X63387500Y-28829000D01*
X63387500Y-28829000D02*
X66787500Y-28829000D01*
X66787500Y-25829000D02*
X63387500Y-25829000D01*
X66787500Y-28829000D02*
X66787500Y-25829000D01*
%TO.C,D33*%
X37193750Y-63929000D02*
X37193750Y-66929000D01*
X37193750Y-66929000D02*
X40593750Y-66929000D01*
X40593750Y-63929000D02*
X37193750Y-63929000D01*
X40593750Y-66929000D02*
X40593750Y-63929000D01*
%TO.C,D37*%
X201500000Y-82979000D02*
X201500000Y-85979000D01*
X201500000Y-85979000D02*
X204900000Y-85979000D01*
X204900000Y-82979000D02*
X201500000Y-82979000D01*
X204900000Y-85979000D02*
X204900000Y-82979000D01*
%TO.C,D11*%
X225312500Y-44879000D02*
X225312500Y-47879000D01*
X225312500Y-47879000D02*
X228712500Y-47879000D01*
X228712500Y-44879000D02*
X225312500Y-44879000D01*
X228712500Y-47879000D02*
X228712500Y-44879000D01*
%TO.C,D49*%
X197554852Y-102281250D02*
X197554852Y-105681250D01*
X197554852Y-105681250D02*
X200554852Y-105681250D01*
X200554852Y-102281250D02*
X197554852Y-102281250D01*
X200554852Y-105681250D02*
X200554852Y-102281250D01*
%TO.C,D9*%
X139587500Y-25829000D02*
X139587500Y-28829000D01*
X139587500Y-28829000D02*
X142987500Y-28829000D01*
X142987500Y-25829000D02*
X139587500Y-25829000D01*
X142987500Y-28829000D02*
X142987500Y-25829000D01*
%TO.C,D8*%
X120537500Y-25829000D02*
X120537500Y-28829000D01*
X120537500Y-28829000D02*
X123937500Y-28829000D01*
X123937500Y-25829000D02*
X120537500Y-25829000D01*
X123937500Y-28829000D02*
X123937500Y-25829000D01*
%TO.C,D48*%
X220550000Y-102029000D02*
X220550000Y-105029000D01*
X220550000Y-105029000D02*
X223950000Y-105029000D01*
X223950000Y-102029000D02*
X220550000Y-102029000D01*
X223950000Y-105029000D02*
X223950000Y-102029000D01*
%TO.C,D10*%
X251506250Y-44879000D02*
X251506250Y-47879000D01*
X251506250Y-47879000D02*
X254906250Y-47879000D01*
X254906250Y-44879000D02*
X251506250Y-44879000D01*
X254906250Y-47879000D02*
X254906250Y-44879000D01*
%TO.C,D31*%
X77675000Y-63929000D02*
X77675000Y-66929000D01*
X77675000Y-66929000D02*
X81075000Y-66929000D01*
X81075000Y-63929000D02*
X77675000Y-63929000D01*
X81075000Y-66929000D02*
X81075000Y-63929000D01*
%TO.C,D23*%
X230075000Y-63929000D02*
X230075000Y-66929000D01*
X230075000Y-66929000D02*
X233475000Y-66929000D01*
X233475000Y-63929000D02*
X230075000Y-63929000D01*
X233475000Y-66929000D02*
X233475000Y-63929000D01*
%TO.C,D6*%
X82437500Y-25829000D02*
X82437500Y-28829000D01*
X82437500Y-28829000D02*
X85837500Y-28829000D01*
X85837500Y-25829000D02*
X82437500Y-25829000D01*
X85837500Y-28829000D02*
X85837500Y-25829000D01*
%TO.C,D12*%
X206262500Y-44879000D02*
X206262500Y-47879000D01*
X206262500Y-47879000D02*
X209662500Y-47879000D01*
X209662500Y-44879000D02*
X206262500Y-44879000D01*
X209662500Y-47879000D02*
X209662500Y-44879000D01*
%TO.C,D16*%
X130062500Y-44879000D02*
X130062500Y-47879000D01*
X130062500Y-47879000D02*
X133462500Y-47879000D01*
X133462500Y-44879000D02*
X130062500Y-44879000D01*
X133462500Y-47879000D02*
X133462500Y-44879000D01*
%TO.C,D27*%
X153875000Y-63929000D02*
X153875000Y-66929000D01*
X153875000Y-66929000D02*
X157275000Y-66929000D01*
X157275000Y-63929000D02*
X153875000Y-63929000D01*
X157275000Y-66929000D02*
X157275000Y-63929000D01*
%TO.C,D42*%
X106250000Y-82979000D02*
X106250000Y-85979000D01*
X106250000Y-85979000D02*
X109650000Y-85979000D01*
X109650000Y-82979000D02*
X106250000Y-82979000D01*
X109650000Y-85979000D02*
X109650000Y-82979000D01*
%TO.C,D35*%
X239600000Y-82979000D02*
X239600000Y-85979000D01*
X239600000Y-85979000D02*
X243000000Y-85979000D01*
X243000000Y-82979000D02*
X239600000Y-82979000D01*
X243000000Y-85979000D02*
X243000000Y-82979000D01*
%TO.C,D18*%
X91962500Y-44879000D02*
X91962500Y-47879000D01*
X91962500Y-47879000D02*
X95362500Y-47879000D01*
X95362500Y-44879000D02*
X91962500Y-44879000D01*
X95362500Y-47879000D02*
X95362500Y-44879000D01*
%TO.C,D7*%
X101487500Y-25829000D02*
X101487500Y-28829000D01*
X101487500Y-28829000D02*
X104887500Y-28829000D01*
X104887500Y-25829000D02*
X101487500Y-25829000D01*
X104887500Y-28829000D02*
X104887500Y-25829000D01*
%TO.C,D2*%
X29312500Y-20172500D02*
X29312500Y-23172500D01*
X29312500Y-23172500D02*
X32712500Y-23172500D01*
X32712500Y-20172500D02*
X29312500Y-20172500D01*
X32712500Y-23172500D02*
X32712500Y-20172500D01*
%TO.C,D47*%
X239600000Y-102029000D02*
X239600000Y-105029000D01*
X239600000Y-105029000D02*
X243000000Y-105029000D01*
X243000000Y-102029000D02*
X239600000Y-102029000D01*
X243000000Y-105029000D02*
X243000000Y-102029000D01*
%TO.C,D43*%
X87200000Y-82979000D02*
X87200000Y-85979000D01*
X87200000Y-85979000D02*
X90600000Y-85979000D01*
X90600000Y-82979000D02*
X87200000Y-82979000D01*
X90600000Y-85979000D02*
X90600000Y-82979000D01*
%TO.C,D34*%
X258650000Y-82979000D02*
X258650000Y-85979000D01*
X258650000Y-85979000D02*
X262050000Y-85979000D01*
X262050000Y-82979000D02*
X258650000Y-82979000D01*
X262050000Y-85979000D02*
X262050000Y-82979000D01*
%TO.C,D39*%
X163400000Y-82979000D02*
X163400000Y-85979000D01*
X163400000Y-85979000D02*
X166800000Y-85979000D01*
X166800000Y-82979000D02*
X163400000Y-82979000D01*
X166800000Y-85979000D02*
X166800000Y-82979000D01*
%TO.C,D40*%
X144350000Y-82979000D02*
X144350000Y-85979000D01*
X144350000Y-85979000D02*
X147750000Y-85979000D01*
X147750000Y-82979000D02*
X144350000Y-82979000D01*
X147750000Y-85979000D02*
X147750000Y-82979000D01*
%TO.C,D14*%
X168162500Y-44879000D02*
X168162500Y-47879000D01*
X168162500Y-47879000D02*
X171562500Y-47879000D01*
X171562500Y-44879000D02*
X168162500Y-44879000D01*
X171562500Y-47879000D02*
X171562500Y-44879000D01*
%TO.C,D28*%
X134825000Y-63929000D02*
X134825000Y-66929000D01*
X134825000Y-66929000D02*
X138225000Y-66929000D01*
X138225000Y-63929000D02*
X134825000Y-63929000D01*
X138225000Y-66929000D02*
X138225000Y-63929000D01*
%TO.C,D15*%
X149112500Y-44879000D02*
X149112500Y-47879000D01*
X149112500Y-47879000D02*
X152512500Y-47879000D01*
X152512500Y-44879000D02*
X149112500Y-44879000D01*
X152512500Y-47879000D02*
X152512500Y-44879000D01*
%TO.C,D22*%
X253887500Y-63929000D02*
X253887500Y-66929000D01*
X253887500Y-66929000D02*
X257287500Y-66929000D01*
X257287500Y-63929000D02*
X253887500Y-63929000D01*
X257287500Y-66929000D02*
X257287500Y-63929000D01*
%TO.C,D26*%
X172925000Y-63929000D02*
X172925000Y-66929000D01*
X172925000Y-66929000D02*
X176325000Y-66929000D01*
X176325000Y-63929000D02*
X172925000Y-63929000D01*
X176325000Y-66929000D02*
X176325000Y-63929000D01*
%TO.C,D41*%
X125300000Y-82979000D02*
X125300000Y-85979000D01*
X125300000Y-85979000D02*
X128700000Y-85979000D01*
X128700000Y-82979000D02*
X125300000Y-82979000D01*
X128700000Y-85979000D02*
X128700000Y-82979000D01*
%TO.C,D50*%
X165781250Y-102029000D02*
X165781250Y-105029000D01*
X165781250Y-105029000D02*
X169181250Y-105029000D01*
X169181250Y-102029000D02*
X165781250Y-102029000D01*
X169181250Y-105029000D02*
X169181250Y-102029000D01*
%TO.C,D4*%
X44337500Y-25829000D02*
X44337500Y-28829000D01*
X44337500Y-28829000D02*
X47737500Y-28829000D01*
X47737500Y-25829000D02*
X44337500Y-25829000D01*
X47737500Y-28829000D02*
X47737500Y-25829000D01*
%TO.C,D20*%
X53862500Y-44879000D02*
X53862500Y-47879000D01*
X53862500Y-47879000D02*
X57262500Y-47879000D01*
X57262500Y-44879000D02*
X53862500Y-44879000D01*
X57262500Y-47879000D02*
X57262500Y-44879000D01*
%TO.C,D38*%
X182450000Y-82979000D02*
X182450000Y-85979000D01*
X182450000Y-85979000D02*
X185850000Y-85979000D01*
X185850000Y-82979000D02*
X182450000Y-82979000D01*
X185850000Y-85979000D02*
X185850000Y-82979000D01*
%TO.C,D44*%
X68150000Y-82979000D02*
X68150000Y-85979000D01*
X68150000Y-85979000D02*
X71550000Y-85979000D01*
X71550000Y-82979000D02*
X68150000Y-82979000D01*
X71550000Y-85979000D02*
X71550000Y-82979000D01*
%TO.C,D54*%
X58625000Y-102029000D02*
X58625000Y-105029000D01*
X58625000Y-105029000D02*
X62025000Y-105029000D01*
X62025000Y-102029000D02*
X58625000Y-102029000D01*
X62025000Y-105029000D02*
X62025000Y-102029000D01*
%TO.C,D25*%
X191975000Y-63929000D02*
X191975000Y-66929000D01*
X191975000Y-66929000D02*
X195375000Y-66929000D01*
X195375000Y-63929000D02*
X191975000Y-63929000D01*
X195375000Y-66929000D02*
X195375000Y-63929000D01*
%TO.C,D52*%
X118156250Y-102029000D02*
X118156250Y-105029000D01*
X118156250Y-105029000D02*
X121556250Y-105029000D01*
X121556250Y-102029000D02*
X118156250Y-102029000D01*
X121556250Y-105029000D02*
X121556250Y-102029000D01*
%TD*%
M02*
