%TF.GenerationSoftware,KiCad,Pcbnew,(7.0.0)*%
%TF.CreationDate,2023-12-30T19:38:44+01:00*%
%TF.ProjectId,vootington V4N,766f6f74-696e-4677-946f-6e2056344e2e,rev?*%
%TF.SameCoordinates,Original*%
%TF.FileFunction,Other,Comment*%
%FSLAX46Y46*%
G04 Gerber Fmt 4.6, Leading zero omitted, Abs format (unit mm)*
G04 Created by KiCad (PCBNEW (7.0.0)) date 2023-12-30 19:38:44*
%MOMM*%
%LPD*%
G01*
G04 APERTURE LIST*
%ADD10C,0.030000*%
%ADD11C,0.150000*%
%ADD12C,0.120000*%
G04 APERTURE END LIST*
D10*
%TO.C,SW1*%
X35992226Y-56729821D02*
X35792226Y-56729821D01*
X35792226Y-56729821D02*
X35992226Y-56615536D01*
X35992226Y-56615536D02*
X35792226Y-56615536D01*
X35992226Y-56491726D02*
X35982702Y-56510774D01*
X35982702Y-56510774D02*
X35973178Y-56520297D01*
X35973178Y-56520297D02*
X35954130Y-56529821D01*
X35954130Y-56529821D02*
X35896988Y-56529821D01*
X35896988Y-56529821D02*
X35877940Y-56520297D01*
X35877940Y-56520297D02*
X35868416Y-56510774D01*
X35868416Y-56510774D02*
X35858892Y-56491726D01*
X35858892Y-56491726D02*
X35858892Y-56463155D01*
X35858892Y-56463155D02*
X35868416Y-56444107D01*
X35868416Y-56444107D02*
X35877940Y-56434583D01*
X35877940Y-56434583D02*
X35896988Y-56425059D01*
X35896988Y-56425059D02*
X35954130Y-56425059D01*
X35954130Y-56425059D02*
X35973178Y-56434583D01*
X35973178Y-56434583D02*
X35982702Y-56444107D01*
X35982702Y-56444107D02*
X35992226Y-56463155D01*
X35992226Y-56463155D02*
X35992226Y-56491726D01*
X35887464Y-56152679D02*
X35887464Y-56219345D01*
X35992226Y-56219345D02*
X35792226Y-56219345D01*
X35792226Y-56219345D02*
X35792226Y-56124107D01*
X35973178Y-56047916D02*
X35982702Y-56038393D01*
X35982702Y-56038393D02*
X35992226Y-56047916D01*
X35992226Y-56047916D02*
X35982702Y-56057440D01*
X35982702Y-56057440D02*
X35973178Y-56047916D01*
X35973178Y-56047916D02*
X35992226Y-56047916D01*
X35973178Y-55838393D02*
X35982702Y-55847917D01*
X35982702Y-55847917D02*
X35992226Y-55876488D01*
X35992226Y-55876488D02*
X35992226Y-55895536D01*
X35992226Y-55895536D02*
X35982702Y-55924107D01*
X35982702Y-55924107D02*
X35963654Y-55943155D01*
X35963654Y-55943155D02*
X35944607Y-55952678D01*
X35944607Y-55952678D02*
X35906511Y-55962202D01*
X35906511Y-55962202D02*
X35877940Y-55962202D01*
X35877940Y-55962202D02*
X35839845Y-55952678D01*
X35839845Y-55952678D02*
X35820797Y-55943155D01*
X35820797Y-55943155D02*
X35801750Y-55924107D01*
X35801750Y-55924107D02*
X35792226Y-55895536D01*
X35792226Y-55895536D02*
X35792226Y-55876488D01*
X35792226Y-55876488D02*
X35801750Y-55847917D01*
X35801750Y-55847917D02*
X35811273Y-55838393D01*
X35858892Y-55666964D02*
X35992226Y-55666964D01*
X35858892Y-55752678D02*
X35963654Y-55752678D01*
X35963654Y-55752678D02*
X35982702Y-55743155D01*
X35982702Y-55743155D02*
X35992226Y-55724107D01*
X35992226Y-55724107D02*
X35992226Y-55695536D01*
X35992226Y-55695536D02*
X35982702Y-55676488D01*
X35982702Y-55676488D02*
X35973178Y-55666964D01*
X35858892Y-55480298D02*
X35858892Y-55404107D01*
X35792226Y-55451726D02*
X35963654Y-55451726D01*
X35963654Y-55451726D02*
X35982702Y-55442203D01*
X35982702Y-55442203D02*
X35992226Y-55423155D01*
X35992226Y-55423155D02*
X35992226Y-55404107D01*
X35992226Y-55337440D02*
X35858892Y-55337440D01*
X35896988Y-55337440D02*
X35877940Y-55327917D01*
X35877940Y-55327917D02*
X35868416Y-55318393D01*
X35868416Y-55318393D02*
X35858892Y-55299345D01*
X35858892Y-55299345D02*
X35858892Y-55280298D01*
X35992226Y-55127916D02*
X35887464Y-55127916D01*
X35887464Y-55127916D02*
X35868416Y-55137440D01*
X35868416Y-55137440D02*
X35858892Y-55156488D01*
X35858892Y-55156488D02*
X35858892Y-55194583D01*
X35858892Y-55194583D02*
X35868416Y-55213630D01*
X35982702Y-55127916D02*
X35992226Y-55146964D01*
X35992226Y-55146964D02*
X35992226Y-55194583D01*
X35992226Y-55194583D02*
X35982702Y-55213630D01*
X35982702Y-55213630D02*
X35963654Y-55223154D01*
X35963654Y-55223154D02*
X35944607Y-55223154D01*
X35944607Y-55223154D02*
X35925559Y-55213630D01*
X35925559Y-55213630D02*
X35916035Y-55194583D01*
X35916035Y-55194583D02*
X35916035Y-55146964D01*
X35916035Y-55146964D02*
X35906511Y-55127916D01*
X35982702Y-54946964D02*
X35992226Y-54966012D01*
X35992226Y-54966012D02*
X35992226Y-55004107D01*
X35992226Y-55004107D02*
X35982702Y-55023155D01*
X35982702Y-55023155D02*
X35973178Y-55032678D01*
X35973178Y-55032678D02*
X35954130Y-55042202D01*
X35954130Y-55042202D02*
X35896988Y-55042202D01*
X35896988Y-55042202D02*
X35877940Y-55032678D01*
X35877940Y-55032678D02*
X35868416Y-55023155D01*
X35868416Y-55023155D02*
X35858892Y-55004107D01*
X35858892Y-55004107D02*
X35858892Y-54966012D01*
X35858892Y-54966012D02*
X35868416Y-54946964D01*
X35992226Y-54861249D02*
X35792226Y-54861249D01*
X35916035Y-54842202D02*
X35992226Y-54785059D01*
X35858892Y-54785059D02*
X35935083Y-54861249D01*
X35982702Y-54708868D02*
X35992226Y-54689821D01*
X35992226Y-54689821D02*
X35992226Y-54651725D01*
X35992226Y-54651725D02*
X35982702Y-54632678D01*
X35982702Y-54632678D02*
X35963654Y-54623154D01*
X35963654Y-54623154D02*
X35954130Y-54623154D01*
X35954130Y-54623154D02*
X35935083Y-54632678D01*
X35935083Y-54632678D02*
X35925559Y-54651725D01*
X35925559Y-54651725D02*
X35925559Y-54680297D01*
X35925559Y-54680297D02*
X35916035Y-54699344D01*
X35916035Y-54699344D02*
X35896988Y-54708868D01*
X35896988Y-54708868D02*
X35887464Y-54708868D01*
X35887464Y-54708868D02*
X35868416Y-54699344D01*
X35868416Y-54699344D02*
X35858892Y-54680297D01*
X35858892Y-54680297D02*
X35858892Y-54651725D01*
X35858892Y-54651725D02*
X35868416Y-54632678D01*
X35592226Y-56879344D02*
X35392226Y-56879344D01*
X35592226Y-56765059D02*
X35477940Y-56850773D01*
X35392226Y-56765059D02*
X35506511Y-56879344D01*
X35487464Y-56679344D02*
X35487464Y-56612678D01*
X35592226Y-56584106D02*
X35592226Y-56679344D01*
X35592226Y-56679344D02*
X35392226Y-56679344D01*
X35392226Y-56679344D02*
X35392226Y-56584106D01*
X35487464Y-56498392D02*
X35487464Y-56431726D01*
X35592226Y-56403154D02*
X35592226Y-56498392D01*
X35592226Y-56498392D02*
X35392226Y-56498392D01*
X35392226Y-56498392D02*
X35392226Y-56403154D01*
X35592226Y-56317440D02*
X35392226Y-56317440D01*
X35392226Y-56317440D02*
X35392226Y-56241250D01*
X35392226Y-56241250D02*
X35401750Y-56222202D01*
X35401750Y-56222202D02*
X35411273Y-56212679D01*
X35411273Y-56212679D02*
X35430321Y-56203155D01*
X35430321Y-56203155D02*
X35458892Y-56203155D01*
X35458892Y-56203155D02*
X35477940Y-56212679D01*
X35477940Y-56212679D02*
X35487464Y-56222202D01*
X35487464Y-56222202D02*
X35496988Y-56241250D01*
X35496988Y-56241250D02*
X35496988Y-56317440D01*
X35516035Y-56117440D02*
X35516035Y-55965060D01*
X35392226Y-55831726D02*
X35392226Y-55793631D01*
X35392226Y-55793631D02*
X35401750Y-55774583D01*
X35401750Y-55774583D02*
X35420797Y-55755536D01*
X35420797Y-55755536D02*
X35458892Y-55746012D01*
X35458892Y-55746012D02*
X35525559Y-55746012D01*
X35525559Y-55746012D02*
X35563654Y-55755536D01*
X35563654Y-55755536D02*
X35582702Y-55774583D01*
X35582702Y-55774583D02*
X35592226Y-55793631D01*
X35592226Y-55793631D02*
X35592226Y-55831726D01*
X35592226Y-55831726D02*
X35582702Y-55850774D01*
X35582702Y-55850774D02*
X35563654Y-55869821D01*
X35563654Y-55869821D02*
X35525559Y-55879345D01*
X35525559Y-55879345D02*
X35458892Y-55879345D01*
X35458892Y-55879345D02*
X35420797Y-55869821D01*
X35420797Y-55869821D02*
X35401750Y-55850774D01*
X35401750Y-55850774D02*
X35392226Y-55831726D01*
X35392226Y-55660297D02*
X35554130Y-55660297D01*
X35554130Y-55660297D02*
X35573178Y-55650774D01*
X35573178Y-55650774D02*
X35582702Y-55641250D01*
X35582702Y-55641250D02*
X35592226Y-55622202D01*
X35592226Y-55622202D02*
X35592226Y-55584107D01*
X35592226Y-55584107D02*
X35582702Y-55565059D01*
X35582702Y-55565059D02*
X35573178Y-55555536D01*
X35573178Y-55555536D02*
X35554130Y-55546012D01*
X35554130Y-55546012D02*
X35392226Y-55546012D01*
X35392226Y-55479345D02*
X35392226Y-55365059D01*
X35592226Y-55422202D02*
X35392226Y-55422202D01*
X35392226Y-55197440D02*
X35392226Y-55064107D01*
X35392226Y-55064107D02*
X35592226Y-55197440D01*
X35592226Y-55197440D02*
X35592226Y-55064107D01*
X35392226Y-54949821D02*
X35392226Y-54911726D01*
X35392226Y-54911726D02*
X35401750Y-54892678D01*
X35401750Y-54892678D02*
X35420797Y-54873631D01*
X35420797Y-54873631D02*
X35458892Y-54864107D01*
X35458892Y-54864107D02*
X35525559Y-54864107D01*
X35525559Y-54864107D02*
X35563654Y-54873631D01*
X35563654Y-54873631D02*
X35582702Y-54892678D01*
X35582702Y-54892678D02*
X35592226Y-54911726D01*
X35592226Y-54911726D02*
X35592226Y-54949821D01*
X35592226Y-54949821D02*
X35582702Y-54968869D01*
X35582702Y-54968869D02*
X35563654Y-54987916D01*
X35563654Y-54987916D02*
X35525559Y-54997440D01*
X35525559Y-54997440D02*
X35458892Y-54997440D01*
X35458892Y-54997440D02*
X35420797Y-54987916D01*
X35420797Y-54987916D02*
X35401750Y-54968869D01*
X35401750Y-54968869D02*
X35392226Y-54949821D01*
X35592226Y-54778392D02*
X35392226Y-54778392D01*
X35392226Y-54778392D02*
X35592226Y-54664107D01*
X35592226Y-54664107D02*
X35392226Y-54664107D01*
X35487464Y-54568868D02*
X35487464Y-54502202D01*
X35592226Y-54473630D02*
X35592226Y-54568868D01*
X35592226Y-54568868D02*
X35392226Y-54568868D01*
X35392226Y-54568868D02*
X35392226Y-54473630D01*
X35592226Y-51879344D02*
X35392226Y-51879344D01*
X35592226Y-51765059D02*
X35477940Y-51850773D01*
X35392226Y-51765059D02*
X35506511Y-51879344D01*
X35487464Y-51679344D02*
X35487464Y-51612678D01*
X35592226Y-51584106D02*
X35592226Y-51679344D01*
X35592226Y-51679344D02*
X35392226Y-51679344D01*
X35392226Y-51679344D02*
X35392226Y-51584106D01*
X35487464Y-51498392D02*
X35487464Y-51431726D01*
X35592226Y-51403154D02*
X35592226Y-51498392D01*
X35592226Y-51498392D02*
X35392226Y-51498392D01*
X35392226Y-51498392D02*
X35392226Y-51403154D01*
X35592226Y-51317440D02*
X35392226Y-51317440D01*
X35392226Y-51317440D02*
X35392226Y-51241250D01*
X35392226Y-51241250D02*
X35401750Y-51222202D01*
X35401750Y-51222202D02*
X35411273Y-51212679D01*
X35411273Y-51212679D02*
X35430321Y-51203155D01*
X35430321Y-51203155D02*
X35458892Y-51203155D01*
X35458892Y-51203155D02*
X35477940Y-51212679D01*
X35477940Y-51212679D02*
X35487464Y-51222202D01*
X35487464Y-51222202D02*
X35496988Y-51241250D01*
X35496988Y-51241250D02*
X35496988Y-51317440D01*
X35516035Y-51117440D02*
X35516035Y-50965060D01*
X35392226Y-50831726D02*
X35392226Y-50793631D01*
X35392226Y-50793631D02*
X35401750Y-50774583D01*
X35401750Y-50774583D02*
X35420797Y-50755536D01*
X35420797Y-50755536D02*
X35458892Y-50746012D01*
X35458892Y-50746012D02*
X35525559Y-50746012D01*
X35525559Y-50746012D02*
X35563654Y-50755536D01*
X35563654Y-50755536D02*
X35582702Y-50774583D01*
X35582702Y-50774583D02*
X35592226Y-50793631D01*
X35592226Y-50793631D02*
X35592226Y-50831726D01*
X35592226Y-50831726D02*
X35582702Y-50850774D01*
X35582702Y-50850774D02*
X35563654Y-50869821D01*
X35563654Y-50869821D02*
X35525559Y-50879345D01*
X35525559Y-50879345D02*
X35458892Y-50879345D01*
X35458892Y-50879345D02*
X35420797Y-50869821D01*
X35420797Y-50869821D02*
X35401750Y-50850774D01*
X35401750Y-50850774D02*
X35392226Y-50831726D01*
X35392226Y-50660297D02*
X35554130Y-50660297D01*
X35554130Y-50660297D02*
X35573178Y-50650774D01*
X35573178Y-50650774D02*
X35582702Y-50641250D01*
X35582702Y-50641250D02*
X35592226Y-50622202D01*
X35592226Y-50622202D02*
X35592226Y-50584107D01*
X35592226Y-50584107D02*
X35582702Y-50565059D01*
X35582702Y-50565059D02*
X35573178Y-50555536D01*
X35573178Y-50555536D02*
X35554130Y-50546012D01*
X35554130Y-50546012D02*
X35392226Y-50546012D01*
X35392226Y-50479345D02*
X35392226Y-50365059D01*
X35592226Y-50422202D02*
X35392226Y-50422202D01*
X35392226Y-50197440D02*
X35392226Y-50064107D01*
X35392226Y-50064107D02*
X35592226Y-50197440D01*
X35592226Y-50197440D02*
X35592226Y-50064107D01*
X35392226Y-49949821D02*
X35392226Y-49911726D01*
X35392226Y-49911726D02*
X35401750Y-49892678D01*
X35401750Y-49892678D02*
X35420797Y-49873631D01*
X35420797Y-49873631D02*
X35458892Y-49864107D01*
X35458892Y-49864107D02*
X35525559Y-49864107D01*
X35525559Y-49864107D02*
X35563654Y-49873631D01*
X35563654Y-49873631D02*
X35582702Y-49892678D01*
X35582702Y-49892678D02*
X35592226Y-49911726D01*
X35592226Y-49911726D02*
X35592226Y-49949821D01*
X35592226Y-49949821D02*
X35582702Y-49968869D01*
X35582702Y-49968869D02*
X35563654Y-49987916D01*
X35563654Y-49987916D02*
X35525559Y-49997440D01*
X35525559Y-49997440D02*
X35458892Y-49997440D01*
X35458892Y-49997440D02*
X35420797Y-49987916D01*
X35420797Y-49987916D02*
X35401750Y-49968869D01*
X35401750Y-49968869D02*
X35392226Y-49949821D01*
X35592226Y-49778392D02*
X35392226Y-49778392D01*
X35392226Y-49778392D02*
X35592226Y-49664107D01*
X35592226Y-49664107D02*
X35392226Y-49664107D01*
X35487464Y-49568868D02*
X35487464Y-49502202D01*
X35592226Y-49473630D02*
X35592226Y-49568868D01*
X35592226Y-49568868D02*
X35392226Y-49568868D01*
X35392226Y-49568868D02*
X35392226Y-49473630D01*
X35992226Y-51729821D02*
X35792226Y-51729821D01*
X35792226Y-51729821D02*
X35992226Y-51615536D01*
X35992226Y-51615536D02*
X35792226Y-51615536D01*
X35992226Y-51491726D02*
X35982702Y-51510774D01*
X35982702Y-51510774D02*
X35973178Y-51520297D01*
X35973178Y-51520297D02*
X35954130Y-51529821D01*
X35954130Y-51529821D02*
X35896988Y-51529821D01*
X35896988Y-51529821D02*
X35877940Y-51520297D01*
X35877940Y-51520297D02*
X35868416Y-51510774D01*
X35868416Y-51510774D02*
X35858892Y-51491726D01*
X35858892Y-51491726D02*
X35858892Y-51463155D01*
X35858892Y-51463155D02*
X35868416Y-51444107D01*
X35868416Y-51444107D02*
X35877940Y-51434583D01*
X35877940Y-51434583D02*
X35896988Y-51425059D01*
X35896988Y-51425059D02*
X35954130Y-51425059D01*
X35954130Y-51425059D02*
X35973178Y-51434583D01*
X35973178Y-51434583D02*
X35982702Y-51444107D01*
X35982702Y-51444107D02*
X35992226Y-51463155D01*
X35992226Y-51463155D02*
X35992226Y-51491726D01*
X35887464Y-51152679D02*
X35887464Y-51219345D01*
X35992226Y-51219345D02*
X35792226Y-51219345D01*
X35792226Y-51219345D02*
X35792226Y-51124107D01*
X35973178Y-51047916D02*
X35982702Y-51038393D01*
X35982702Y-51038393D02*
X35992226Y-51047916D01*
X35992226Y-51047916D02*
X35982702Y-51057440D01*
X35982702Y-51057440D02*
X35973178Y-51047916D01*
X35973178Y-51047916D02*
X35992226Y-51047916D01*
X35973178Y-50838393D02*
X35982702Y-50847917D01*
X35982702Y-50847917D02*
X35992226Y-50876488D01*
X35992226Y-50876488D02*
X35992226Y-50895536D01*
X35992226Y-50895536D02*
X35982702Y-50924107D01*
X35982702Y-50924107D02*
X35963654Y-50943155D01*
X35963654Y-50943155D02*
X35944607Y-50952678D01*
X35944607Y-50952678D02*
X35906511Y-50962202D01*
X35906511Y-50962202D02*
X35877940Y-50962202D01*
X35877940Y-50962202D02*
X35839845Y-50952678D01*
X35839845Y-50952678D02*
X35820797Y-50943155D01*
X35820797Y-50943155D02*
X35801750Y-50924107D01*
X35801750Y-50924107D02*
X35792226Y-50895536D01*
X35792226Y-50895536D02*
X35792226Y-50876488D01*
X35792226Y-50876488D02*
X35801750Y-50847917D01*
X35801750Y-50847917D02*
X35811273Y-50838393D01*
X35858892Y-50666964D02*
X35992226Y-50666964D01*
X35858892Y-50752678D02*
X35963654Y-50752678D01*
X35963654Y-50752678D02*
X35982702Y-50743155D01*
X35982702Y-50743155D02*
X35992226Y-50724107D01*
X35992226Y-50724107D02*
X35992226Y-50695536D01*
X35992226Y-50695536D02*
X35982702Y-50676488D01*
X35982702Y-50676488D02*
X35973178Y-50666964D01*
X35858892Y-50480298D02*
X35858892Y-50404107D01*
X35792226Y-50451726D02*
X35963654Y-50451726D01*
X35963654Y-50451726D02*
X35982702Y-50442203D01*
X35982702Y-50442203D02*
X35992226Y-50423155D01*
X35992226Y-50423155D02*
X35992226Y-50404107D01*
X35992226Y-50337440D02*
X35858892Y-50337440D01*
X35896988Y-50337440D02*
X35877940Y-50327917D01*
X35877940Y-50327917D02*
X35868416Y-50318393D01*
X35868416Y-50318393D02*
X35858892Y-50299345D01*
X35858892Y-50299345D02*
X35858892Y-50280298D01*
X35992226Y-50127916D02*
X35887464Y-50127916D01*
X35887464Y-50127916D02*
X35868416Y-50137440D01*
X35868416Y-50137440D02*
X35858892Y-50156488D01*
X35858892Y-50156488D02*
X35858892Y-50194583D01*
X35858892Y-50194583D02*
X35868416Y-50213630D01*
X35982702Y-50127916D02*
X35992226Y-50146964D01*
X35992226Y-50146964D02*
X35992226Y-50194583D01*
X35992226Y-50194583D02*
X35982702Y-50213630D01*
X35982702Y-50213630D02*
X35963654Y-50223154D01*
X35963654Y-50223154D02*
X35944607Y-50223154D01*
X35944607Y-50223154D02*
X35925559Y-50213630D01*
X35925559Y-50213630D02*
X35916035Y-50194583D01*
X35916035Y-50194583D02*
X35916035Y-50146964D01*
X35916035Y-50146964D02*
X35906511Y-50127916D01*
X35982702Y-49946964D02*
X35992226Y-49966012D01*
X35992226Y-49966012D02*
X35992226Y-50004107D01*
X35992226Y-50004107D02*
X35982702Y-50023155D01*
X35982702Y-50023155D02*
X35973178Y-50032678D01*
X35973178Y-50032678D02*
X35954130Y-50042202D01*
X35954130Y-50042202D02*
X35896988Y-50042202D01*
X35896988Y-50042202D02*
X35877940Y-50032678D01*
X35877940Y-50032678D02*
X35868416Y-50023155D01*
X35868416Y-50023155D02*
X35858892Y-50004107D01*
X35858892Y-50004107D02*
X35858892Y-49966012D01*
X35858892Y-49966012D02*
X35868416Y-49946964D01*
X35992226Y-49861249D02*
X35792226Y-49861249D01*
X35916035Y-49842202D02*
X35992226Y-49785059D01*
X35858892Y-49785059D02*
X35935083Y-49861249D01*
X35982702Y-49708868D02*
X35992226Y-49689821D01*
X35992226Y-49689821D02*
X35992226Y-49651725D01*
X35992226Y-49651725D02*
X35982702Y-49632678D01*
X35982702Y-49632678D02*
X35963654Y-49623154D01*
X35963654Y-49623154D02*
X35954130Y-49623154D01*
X35954130Y-49623154D02*
X35935083Y-49632678D01*
X35935083Y-49632678D02*
X35925559Y-49651725D01*
X35925559Y-49651725D02*
X35925559Y-49680297D01*
X35925559Y-49680297D02*
X35916035Y-49699344D01*
X35916035Y-49699344D02*
X35896988Y-49708868D01*
X35896988Y-49708868D02*
X35887464Y-49708868D01*
X35887464Y-49708868D02*
X35868416Y-49699344D01*
X35868416Y-49699344D02*
X35858892Y-49680297D01*
X35858892Y-49680297D02*
X35858892Y-49651725D01*
X35858892Y-49651725D02*
X35868416Y-49632678D01*
D11*
%TO.C,H8*%
X211509500Y-97302500D02*
G75*
G03*
X211509500Y-97302500I-2200000J0D01*
G01*
%TO.C,H4*%
X239762500Y-48674000D02*
G75*
G03*
X239762500Y-48674000I-2200000J0D01*
G01*
%TO.C,H7*%
X105562500Y-97024000D02*
G75*
G03*
X105562500Y-97024000I-1900000J0D01*
G01*
%TO.C,H6*%
X58915000Y-85573750D02*
G75*
G03*
X58915000Y-85573750I-2200000J0D01*
G01*
%TO.C,H3*%
X136712500Y-50800000D02*
G75*
G03*
X136712500Y-50800000I-2200000J0D01*
G01*
%TO.C,H5*%
X167362500Y-69850000D02*
G75*
G03*
X167362500Y-69850000I-2200000J0D01*
G01*
%TO.C,H1*%
X95862500Y-23812500D02*
G75*
G03*
X95862500Y-23812500I-2200000J0D01*
G01*
%TO.C,H2*%
X60512500Y-50800000D02*
G75*
G03*
X60512500Y-50800000I-2200000J0D01*
G01*
D12*
%TO.C,D38*%
X152829852Y-102381250D02*
X150029852Y-102381250D01*
X150029852Y-102381250D02*
X150029852Y-105581250D01*
X152829852Y-105581250D02*
X152829852Y-102381250D01*
X150029852Y-105581250D02*
X152829852Y-105581250D01*
%TO.C,D42*%
X40493750Y-104929000D02*
X40493750Y-102129000D01*
X40493750Y-102129000D02*
X37293750Y-102129000D01*
X37293750Y-104929000D02*
X40493750Y-104929000D01*
X37293750Y-102129000D02*
X37293750Y-104929000D01*
%TO.C,D6*%
X111112500Y-44979000D02*
X111112500Y-47779000D01*
X111112500Y-47779000D02*
X114312500Y-47779000D01*
X114312500Y-44979000D02*
X111112500Y-44979000D01*
X114312500Y-47779000D02*
X114312500Y-44979000D01*
%TO.C,D32*%
X39675000Y-83079000D02*
X39675000Y-85879000D01*
X39675000Y-85879000D02*
X42875000Y-85879000D01*
X42875000Y-83079000D02*
X39675000Y-83079000D01*
X42875000Y-85879000D02*
X42875000Y-83079000D01*
%TO.C,D29*%
X215887500Y-83079000D02*
X215887500Y-85879000D01*
X215887500Y-85879000D02*
X219087500Y-85879000D01*
X219087500Y-83079000D02*
X215887500Y-83079000D01*
X219087500Y-85879000D02*
X219087500Y-83079000D01*
%TO.C,D45*%
X261950000Y-104929000D02*
X261950000Y-102129000D01*
X261950000Y-102129000D02*
X258750000Y-102129000D01*
X258750000Y-104929000D02*
X261950000Y-104929000D01*
X258750000Y-102129000D02*
X258750000Y-104929000D01*
%TO.C,D10*%
X187312500Y-44979000D02*
X187312500Y-47779000D01*
X187312500Y-47779000D02*
X190512500Y-47779000D01*
X190512500Y-44979000D02*
X187312500Y-44979000D01*
X190512500Y-47779000D02*
X190512500Y-44979000D01*
%TO.C,D40*%
X83356250Y-104929000D02*
X83356250Y-102129000D01*
X83356250Y-102129000D02*
X80156250Y-102129000D01*
X80156250Y-104929000D02*
X83356250Y-104929000D01*
X80156250Y-102129000D02*
X80156250Y-104929000D01*
%TO.C,D56*%
X32612500Y-17440000D02*
X32612500Y-14640000D01*
X32612500Y-14640000D02*
X29412500Y-14640000D01*
X29412500Y-17440000D02*
X32612500Y-17440000D01*
X29412500Y-14640000D02*
X29412500Y-17440000D01*
%TO.C,D18*%
X61925000Y-66829000D02*
X61925000Y-64029000D01*
X61925000Y-64029000D02*
X58725000Y-64029000D01*
X58725000Y-66829000D02*
X61925000Y-66829000D01*
X58725000Y-64029000D02*
X58725000Y-66829000D01*
%TO.C,D16*%
X100025000Y-66829000D02*
X100025000Y-64029000D01*
X100025000Y-64029000D02*
X96825000Y-64029000D01*
X96825000Y-66829000D02*
X100025000Y-66829000D01*
X96825000Y-64029000D02*
X96825000Y-66829000D01*
%TO.C,D4*%
X73012500Y-44979000D02*
X73012500Y-47779000D01*
X73012500Y-47779000D02*
X76212500Y-47779000D01*
X76212500Y-44979000D02*
X73012500Y-44979000D01*
X76212500Y-47779000D02*
X76212500Y-44979000D01*
%TO.C,D15*%
X119075000Y-66829000D02*
X119075000Y-64029000D01*
X119075000Y-64029000D02*
X115875000Y-64029000D01*
X115875000Y-66829000D02*
X119075000Y-66829000D01*
X115875000Y-64029000D02*
X115875000Y-66829000D01*
%TO.C,D22*%
X214325000Y-66829000D02*
X214325000Y-64029000D01*
X214325000Y-64029000D02*
X211125000Y-64029000D01*
X211125000Y-66829000D02*
X214325000Y-66829000D01*
X211125000Y-64029000D02*
X211125000Y-66829000D01*
%TO.C,D54*%
X32612500Y-28705000D02*
X32612500Y-25905000D01*
X32612500Y-25905000D02*
X29412500Y-25905000D01*
X29412500Y-28705000D02*
X32612500Y-28705000D01*
X29412500Y-25905000D02*
X29412500Y-28705000D01*
%TO.C,D31*%
X256368750Y-73554000D02*
X256368750Y-76354000D01*
X256368750Y-76354000D02*
X259568750Y-76354000D01*
X259568750Y-73554000D02*
X256368750Y-73554000D01*
X259568750Y-76354000D02*
X259568750Y-73554000D01*
%TO.C,D2*%
X34912500Y-44979000D02*
X34912500Y-47779000D01*
X34912500Y-47779000D02*
X38112500Y-47779000D01*
X38112500Y-44979000D02*
X34912500Y-44979000D01*
X38112500Y-47779000D02*
X38112500Y-44979000D01*
%TO.C,D52*%
X66687500Y-28729000D02*
X66687500Y-25929000D01*
X66687500Y-25929000D02*
X63487500Y-25929000D01*
X63487500Y-28729000D02*
X66687500Y-28729000D01*
X63487500Y-25929000D02*
X63487500Y-28729000D01*
%TO.C,D19*%
X40493750Y-66829000D02*
X40493750Y-64029000D01*
X40493750Y-64029000D02*
X37293750Y-64029000D01*
X37293750Y-66829000D02*
X40493750Y-66829000D01*
X37293750Y-64029000D02*
X37293750Y-66829000D01*
%TO.C,D28*%
X196837500Y-83079000D02*
X196837500Y-85879000D01*
X196837500Y-85879000D02*
X200037500Y-85879000D01*
X200037500Y-83079000D02*
X196837500Y-83079000D01*
X200037500Y-85879000D02*
X200037500Y-83079000D01*
%TO.C,D12*%
X225412500Y-44979000D02*
X225412500Y-47779000D01*
X225412500Y-47779000D02*
X228612500Y-47779000D01*
X228612500Y-44979000D02*
X225412500Y-44979000D01*
X228612500Y-47779000D02*
X228612500Y-44979000D01*
%TO.C,D48*%
X200454852Y-102381250D02*
X197654852Y-102381250D01*
X197654852Y-102381250D02*
X197654852Y-105581250D01*
X200454852Y-105581250D02*
X200454852Y-102381250D01*
X197654852Y-105581250D02*
X200454852Y-105581250D01*
%TO.C,D1*%
X142887500Y-28729000D02*
X142887500Y-25929000D01*
X142887500Y-25929000D02*
X139687500Y-25929000D01*
X139687500Y-28729000D02*
X142887500Y-28729000D01*
X139687500Y-25929000D02*
X139687500Y-28729000D01*
%TO.C,D43*%
X123837500Y-28729000D02*
X123837500Y-25929000D01*
X123837500Y-25929000D02*
X120637500Y-25929000D01*
X120637500Y-28729000D02*
X123837500Y-28729000D01*
X120637500Y-25929000D02*
X120637500Y-28729000D01*
%TO.C,D47*%
X223850000Y-104929000D02*
X223850000Y-102129000D01*
X223850000Y-102129000D02*
X220650000Y-102129000D01*
X220650000Y-104929000D02*
X223850000Y-104929000D01*
X220650000Y-102129000D02*
X220650000Y-104929000D01*
%TO.C,D13*%
X251606250Y-44979000D02*
X251606250Y-47779000D01*
X251606250Y-47779000D02*
X254806250Y-47779000D01*
X254806250Y-44979000D02*
X251606250Y-44979000D01*
X254806250Y-47779000D02*
X254806250Y-44979000D01*
%TO.C,D17*%
X80975000Y-66829000D02*
X80975000Y-64029000D01*
X80975000Y-64029000D02*
X77775000Y-64029000D01*
X77775000Y-66829000D02*
X80975000Y-66829000D01*
X77775000Y-64029000D02*
X77775000Y-66829000D01*
%TO.C,D21*%
X233375000Y-66829000D02*
X233375000Y-64029000D01*
X233375000Y-64029000D02*
X230175000Y-64029000D01*
X230175000Y-66829000D02*
X233375000Y-66829000D01*
X230175000Y-64029000D02*
X230175000Y-66829000D01*
%TO.C,D51*%
X85737500Y-28729000D02*
X85737500Y-25929000D01*
X85737500Y-25929000D02*
X82537500Y-25929000D01*
X82537500Y-28729000D02*
X85737500Y-28729000D01*
X82537500Y-25929000D02*
X82537500Y-28729000D01*
%TO.C,D11*%
X206362500Y-44979000D02*
X206362500Y-47779000D01*
X206362500Y-47779000D02*
X209562500Y-47779000D01*
X209562500Y-44979000D02*
X206362500Y-44979000D01*
X209562500Y-47779000D02*
X209562500Y-44979000D01*
%TO.C,D7*%
X130162500Y-44979000D02*
X130162500Y-47779000D01*
X130162500Y-47779000D02*
X133362500Y-47779000D01*
X133362500Y-44979000D02*
X130162500Y-44979000D01*
X133362500Y-47779000D02*
X133362500Y-44979000D01*
%TO.C,D25*%
X157175000Y-66829000D02*
X157175000Y-64029000D01*
X157175000Y-64029000D02*
X153975000Y-64029000D01*
X153975000Y-66829000D02*
X157175000Y-66829000D01*
X153975000Y-64029000D02*
X153975000Y-66829000D01*
%TO.C,D35*%
X101587500Y-83079000D02*
X101587500Y-85879000D01*
X101587500Y-85879000D02*
X104787500Y-85879000D01*
X104787500Y-83079000D02*
X101587500Y-83079000D01*
X104787500Y-85879000D02*
X104787500Y-83079000D01*
%TO.C,D30*%
X234937500Y-83079000D02*
X234937500Y-85879000D01*
X234937500Y-85879000D02*
X238137500Y-85879000D01*
X238137500Y-83079000D02*
X234937500Y-83079000D01*
X238137500Y-85879000D02*
X238137500Y-83079000D01*
%TO.C,D5*%
X92062500Y-44979000D02*
X92062500Y-47779000D01*
X92062500Y-47779000D02*
X95262500Y-47779000D01*
X95262500Y-44979000D02*
X92062500Y-44979000D01*
X95262500Y-47779000D02*
X95262500Y-44979000D01*
%TO.C,D50*%
X104787500Y-28729000D02*
X104787500Y-25929000D01*
X104787500Y-25929000D02*
X101587500Y-25929000D01*
X101587500Y-28729000D02*
X104787500Y-28729000D01*
X101587500Y-25929000D02*
X101587500Y-28729000D01*
%TO.C,D55*%
X32612500Y-23072500D02*
X32612500Y-20272500D01*
X32612500Y-20272500D02*
X29412500Y-20272500D01*
X29412500Y-23072500D02*
X32612500Y-23072500D01*
X29412500Y-20272500D02*
X29412500Y-23072500D01*
%TO.C,D46*%
X242900000Y-104929000D02*
X242900000Y-102129000D01*
X242900000Y-102129000D02*
X239700000Y-102129000D01*
X239700000Y-104929000D02*
X242900000Y-104929000D01*
X239700000Y-102129000D02*
X239700000Y-104929000D01*
%TO.C,D34*%
X82537500Y-83079000D02*
X82537500Y-85879000D01*
X82537500Y-85879000D02*
X85737500Y-85879000D01*
X85737500Y-83079000D02*
X82537500Y-83079000D01*
X85737500Y-85879000D02*
X85737500Y-83079000D01*
%TO.C,D44*%
X256368750Y-83079000D02*
X256368750Y-85879000D01*
X256368750Y-85879000D02*
X259568750Y-85879000D01*
X259568750Y-83079000D02*
X256368750Y-83079000D01*
X259568750Y-85879000D02*
X259568750Y-83079000D01*
%TO.C,D26*%
X158737500Y-83079000D02*
X158737500Y-85879000D01*
X158737500Y-85879000D02*
X161937500Y-85879000D01*
X161937500Y-83079000D02*
X158737500Y-83079000D01*
X161937500Y-85879000D02*
X161937500Y-83079000D01*
%TO.C,D37*%
X139687500Y-83079000D02*
X139687500Y-85879000D01*
X139687500Y-85879000D02*
X142887500Y-85879000D01*
X142887500Y-83079000D02*
X139687500Y-83079000D01*
X142887500Y-85879000D02*
X142887500Y-83079000D01*
%TO.C,D9*%
X168262500Y-44979000D02*
X168262500Y-47779000D01*
X168262500Y-47779000D02*
X171462500Y-47779000D01*
X171462500Y-44979000D02*
X168262500Y-44979000D01*
X171462500Y-47779000D02*
X171462500Y-44979000D01*
%TO.C,D14*%
X138125000Y-66829000D02*
X138125000Y-64029000D01*
X138125000Y-64029000D02*
X134925000Y-64029000D01*
X134925000Y-66829000D02*
X138125000Y-66829000D01*
X134925000Y-64029000D02*
X134925000Y-66829000D01*
%TO.C,D8*%
X149212500Y-44979000D02*
X149212500Y-47779000D01*
X149212500Y-47779000D02*
X152412500Y-47779000D01*
X152412500Y-44979000D02*
X149212500Y-44979000D01*
X152412500Y-47779000D02*
X152412500Y-44979000D01*
%TO.C,D20*%
X257187500Y-66829000D02*
X257187500Y-64029000D01*
X257187500Y-64029000D02*
X253987500Y-64029000D01*
X253987500Y-66829000D02*
X257187500Y-66829000D01*
X253987500Y-64029000D02*
X253987500Y-66829000D01*
%TO.C,D24*%
X176225000Y-66829000D02*
X176225000Y-64029000D01*
X176225000Y-64029000D02*
X173025000Y-64029000D01*
X173025000Y-66829000D02*
X176225000Y-66829000D01*
X173025000Y-64029000D02*
X173025000Y-66829000D01*
%TO.C,D36*%
X120637500Y-83079000D02*
X120637500Y-85879000D01*
X120637500Y-85879000D02*
X123837500Y-85879000D01*
X123837500Y-83079000D02*
X120637500Y-83079000D01*
X123837500Y-85879000D02*
X123837500Y-83079000D01*
%TO.C,D49*%
X169081250Y-104929000D02*
X169081250Y-102129000D01*
X169081250Y-102129000D02*
X165881250Y-102129000D01*
X165881250Y-104929000D02*
X169081250Y-104929000D01*
X165881250Y-102129000D02*
X165881250Y-104929000D01*
%TO.C,D53*%
X47637500Y-28729000D02*
X47637500Y-25929000D01*
X47637500Y-25929000D02*
X44437500Y-25929000D01*
X44437500Y-28729000D02*
X47637500Y-28729000D01*
X44437500Y-25929000D02*
X44437500Y-28729000D01*
%TO.C,D3*%
X53962500Y-44979000D02*
X53962500Y-47779000D01*
X53962500Y-47779000D02*
X57162500Y-47779000D01*
X57162500Y-44979000D02*
X53962500Y-44979000D01*
X57162500Y-47779000D02*
X57162500Y-44979000D01*
%TO.C,D27*%
X177787500Y-83079000D02*
X177787500Y-85879000D01*
X177787500Y-85879000D02*
X180987500Y-85879000D01*
X180987500Y-83079000D02*
X177787500Y-83079000D01*
X180987500Y-85879000D02*
X180987500Y-83079000D01*
%TO.C,D33*%
X63487500Y-83079000D02*
X63487500Y-85879000D01*
X63487500Y-85879000D02*
X66687500Y-85879000D01*
X66687500Y-83079000D02*
X63487500Y-83079000D01*
X66687500Y-85879000D02*
X66687500Y-83079000D01*
%TO.C,D41*%
X61925000Y-104929000D02*
X61925000Y-102129000D01*
X61925000Y-102129000D02*
X58725000Y-102129000D01*
X58725000Y-104929000D02*
X61925000Y-104929000D01*
X58725000Y-102129000D02*
X58725000Y-104929000D01*
%TO.C,D23*%
X195275000Y-66829000D02*
X195275000Y-64029000D01*
X195275000Y-64029000D02*
X192075000Y-64029000D01*
X192075000Y-66829000D02*
X195275000Y-66829000D01*
X192075000Y-64029000D02*
X192075000Y-66829000D01*
%TO.C,D39*%
X121456250Y-104929000D02*
X121456250Y-102129000D01*
X121456250Y-102129000D02*
X118256250Y-102129000D01*
X118256250Y-104929000D02*
X121456250Y-104929000D01*
X118256250Y-102129000D02*
X118256250Y-104929000D01*
%TD*%
M02*
