%TF.GenerationSoftware,KiCad,Pcbnew,(7.0.0)*%
%TF.CreationDate,2023-12-30T19:38:44+01:00*%
%TF.ProjectId,vootington V4N,766f6f74-696e-4677-946f-6e2056344e2e,rev?*%
%TF.SameCoordinates,Original*%
%TF.FileFunction,Paste,Bot*%
%TF.FilePolarity,Positive*%
%FSLAX46Y46*%
G04 Gerber Fmt 4.6, Leading zero omitted, Abs format (unit mm)*
G04 Created by KiCad (PCBNEW (7.0.0)) date 2023-12-30 19:38:44*
%MOMM*%
%LPD*%
G01*
G04 APERTURE LIST*
G04 Aperture macros list*
%AMRoundRect*
0 Rectangle with rounded corners*
0 $1 Rounding radius*
0 $2 $3 $4 $5 $6 $7 $8 $9 X,Y pos of 4 corners*
0 Add a 4 corners polygon primitive as box body*
4,1,4,$2,$3,$4,$5,$6,$7,$8,$9,$2,$3,0*
0 Add four circle primitives for the rounded corners*
1,1,$1+$1,$2,$3*
1,1,$1+$1,$4,$5*
1,1,$1+$1,$6,$7*
1,1,$1+$1,$8,$9*
0 Add four rect primitives between the rounded corners*
20,1,$1+$1,$2,$3,$4,$5,0*
20,1,$1+$1,$4,$5,$6,$7,0*
20,1,$1+$1,$6,$7,$8,$9,0*
20,1,$1+$1,$8,$9,$2,$3,0*%
G04 Aperture macros list end*
%ADD10R,0.820000X1.700000*%
%ADD11RoundRect,0.205000X-0.205000X0.645000X-0.205000X-0.645000X0.205000X-0.645000X0.205000X0.645000X0*%
%ADD12RoundRect,0.150000X0.150000X-0.512500X0.150000X0.512500X-0.150000X0.512500X-0.150000X-0.512500X0*%
%ADD13RoundRect,0.150000X0.587500X0.150000X-0.587500X0.150000X-0.587500X-0.150000X0.587500X-0.150000X0*%
%ADD14R,1.778000X0.419100*%
%ADD15R,1.700000X0.820000*%
%ADD16RoundRect,0.205000X0.645000X0.205000X-0.645000X0.205000X-0.645000X-0.205000X0.645000X-0.205000X0*%
%ADD17RoundRect,0.205000X-0.645000X-0.205000X0.645000X-0.205000X0.645000X0.205000X-0.645000X0.205000X0*%
%ADD18R,1.100000X1.800000*%
%ADD19RoundRect,0.075000X0.662500X0.075000X-0.662500X0.075000X-0.662500X-0.075000X0.662500X-0.075000X0*%
%ADD20RoundRect,0.075000X0.075000X0.662500X-0.075000X0.662500X-0.075000X-0.662500X0.075000X-0.662500X0*%
%ADD21RoundRect,0.140000X0.140000X0.170000X-0.140000X0.170000X-0.140000X-0.170000X0.140000X-0.170000X0*%
%ADD22RoundRect,0.135000X0.185000X-0.135000X0.185000X0.135000X-0.185000X0.135000X-0.185000X-0.135000X0*%
%ADD23RoundRect,0.140000X-0.140000X-0.170000X0.140000X-0.170000X0.140000X0.170000X-0.140000X0.170000X0*%
%ADD24R,0.700000X1.000000*%
%ADD25R,0.700000X0.600000*%
%ADD26RoundRect,0.140000X-0.170000X0.140000X-0.170000X-0.140000X0.170000X-0.140000X0.170000X0.140000X0*%
%ADD27R,0.600000X1.450000*%
%ADD28R,0.300000X1.450000*%
%ADD29RoundRect,0.150000X-0.275000X0.150000X-0.275000X-0.150000X0.275000X-0.150000X0.275000X0.150000X0*%
%ADD30RoundRect,0.175000X-0.225000X0.175000X-0.225000X-0.175000X0.225000X-0.175000X0.225000X0.175000X0*%
%ADD31RoundRect,0.140000X0.170000X-0.140000X0.170000X0.140000X-0.170000X0.140000X-0.170000X-0.140000X0*%
%ADD32RoundRect,0.150000X-0.625000X0.150000X-0.625000X-0.150000X0.625000X-0.150000X0.625000X0.150000X0*%
%ADD33RoundRect,0.250000X-0.650000X0.350000X-0.650000X-0.350000X0.650000X-0.350000X0.650000X0.350000X0*%
%ADD34RoundRect,0.250000X0.700000X-0.275000X0.700000X0.275000X-0.700000X0.275000X-0.700000X-0.275000X0*%
%ADD35RoundRect,0.225000X0.250000X-0.225000X0.250000X0.225000X-0.250000X0.225000X-0.250000X-0.225000X0*%
%ADD36RoundRect,0.150000X0.150000X-0.587500X0.150000X0.587500X-0.150000X0.587500X-0.150000X-0.587500X0*%
%ADD37RoundRect,0.250000X-0.625000X0.375000X-0.625000X-0.375000X0.625000X-0.375000X0.625000X0.375000X0*%
G04 APERTURE END LIST*
D10*
%TO.C,D38*%
X152179851Y-101431249D03*
X150679851Y-101431249D03*
D11*
X150679852Y-106531250D03*
D10*
X152179851Y-106531249D03*
%TD*%
D12*
%TO.C,U46*%
X34093250Y-35172250D03*
X33143250Y-35172250D03*
X32193250Y-35172250D03*
X32193250Y-32897250D03*
X34093250Y-32897250D03*
%TD*%
D13*
%TO.C,U45*%
X258906250Y-68900000D03*
X258906250Y-70800000D03*
X257031250Y-69850000D03*
%TD*%
D14*
%TO.C,U53*%
X210569635Y-71563904D03*
X210569635Y-72214144D03*
X210569635Y-72864384D03*
X210569635Y-73514624D03*
X210569635Y-74159784D03*
X210569635Y-74810024D03*
X210569635Y-75460264D03*
X210569635Y-76110504D03*
X204620955Y-76110504D03*
X204620955Y-75460264D03*
X204620955Y-74810024D03*
X204620955Y-74159784D03*
X204620955Y-73514624D03*
X204620955Y-72864384D03*
X204620955Y-72214144D03*
X204620955Y-71563904D03*
%TD*%
D15*
%TO.C,D42*%
X41443749Y-104278999D03*
X41443749Y-102778999D03*
D16*
X36343750Y-102779000D03*
D15*
X36343749Y-104278999D03*
%TD*%
D13*
%TO.C,U43*%
X201756250Y-97475000D03*
X201756250Y-99375000D03*
X199881250Y-98425000D03*
%TD*%
D15*
%TO.C,D6*%
X110162499Y-45628999D03*
X110162499Y-47128999D03*
D17*
X115262500Y-47129000D03*
D15*
X115262499Y-45628999D03*
%TD*%
D13*
%TO.C,U39*%
X39831250Y-97475000D03*
X39831250Y-99375000D03*
X37956250Y-98425000D03*
%TD*%
D15*
%TO.C,D32*%
X38724999Y-83728999D03*
X38724999Y-85228999D03*
D17*
X43825000Y-85229000D03*
D15*
X43824999Y-83728999D03*
%TD*%
D13*
%TO.C,U9*%
X151750000Y-40325000D03*
X151750000Y-42225000D03*
X149875000Y-41275000D03*
%TD*%
D15*
%TO.C,D29*%
X214937499Y-83728999D03*
X214937499Y-85228999D03*
D17*
X220037500Y-85229000D03*
D15*
X220037499Y-83728999D03*
%TD*%
%TO.C,D45*%
X262899999Y-104278999D03*
X262899999Y-102778999D03*
D16*
X257800000Y-102779000D03*
D15*
X257799999Y-104278999D03*
%TD*%
D13*
%TO.C,U35*%
X85075000Y-78425000D03*
X85075000Y-80325000D03*
X83200000Y-79375000D03*
%TD*%
%TO.C,U48*%
X120793750Y-97475000D03*
X120793750Y-99375000D03*
X118918750Y-98425000D03*
%TD*%
D18*
%TO.C,SW1*%
X33868749Y-50081249D03*
X33868749Y-56281249D03*
X37568749Y-50081249D03*
X37568749Y-56281249D03*
%TD*%
D19*
%TO.C,U59*%
X53375000Y-52018750D03*
X53375000Y-52518750D03*
X53375000Y-53018750D03*
X53375000Y-53518750D03*
X53375000Y-54018750D03*
X53375000Y-54518750D03*
X53375000Y-55018750D03*
X53375000Y-55518750D03*
X53375000Y-56018750D03*
X53375000Y-56518750D03*
X53375000Y-57018750D03*
X53375000Y-57518750D03*
D20*
X51962500Y-58931250D03*
X51462500Y-58931250D03*
X50962500Y-58931250D03*
X50462500Y-58931250D03*
X49962500Y-58931250D03*
X49462500Y-58931250D03*
X48962500Y-58931250D03*
X48462500Y-58931250D03*
X47962500Y-58931250D03*
X47462500Y-58931250D03*
X46962500Y-58931250D03*
X46462500Y-58931250D03*
D19*
X45050000Y-57518750D03*
X45050000Y-57018750D03*
X45050000Y-56518750D03*
X45050000Y-56018750D03*
X45050000Y-55518750D03*
X45050000Y-55018750D03*
X45050000Y-54518750D03*
X45050000Y-54018750D03*
X45050000Y-53518750D03*
X45050000Y-53018750D03*
X45050000Y-52518750D03*
X45050000Y-52018750D03*
D20*
X46462500Y-50606250D03*
X46962500Y-50606250D03*
X47462500Y-50606250D03*
X47962500Y-50606250D03*
X48462500Y-50606250D03*
X48962500Y-50606250D03*
X49462500Y-50606250D03*
X49962500Y-50606250D03*
X50462500Y-50606250D03*
X50962500Y-50606250D03*
X51462500Y-50606250D03*
X51962500Y-50606250D03*
%TD*%
D15*
%TO.C,D10*%
X186362499Y-45628999D03*
X186362499Y-47128999D03*
D17*
X191462500Y-47129000D03*
D15*
X191462499Y-45628999D03*
%TD*%
D21*
%TO.C,C6*%
X59217500Y-29368750D03*
X58257500Y-29368750D03*
%TD*%
D15*
%TO.C,D40*%
X84306249Y-104278999D03*
X84306249Y-102778999D03*
D16*
X79206250Y-102779000D03*
D15*
X79206249Y-104278999D03*
%TD*%
%TO.C,D56*%
X33562499Y-16789999D03*
X33562499Y-15289999D03*
D16*
X28462500Y-15290000D03*
D15*
X28462499Y-16789999D03*
%TD*%
D22*
%TO.C,R3*%
X53721589Y-21147501D03*
X53721589Y-20127501D03*
%TD*%
D23*
%TO.C,C29*%
X55866106Y-54997317D03*
X56826106Y-54997317D03*
%TD*%
D15*
%TO.C,D18*%
X62874999Y-66178999D03*
X62874999Y-64678999D03*
D16*
X57775000Y-64679000D03*
D15*
X57774999Y-66178999D03*
%TD*%
%TO.C,D16*%
X100974999Y-66178999D03*
X100974999Y-64678999D03*
D16*
X95875000Y-64679000D03*
D15*
X95874999Y-66178999D03*
%TD*%
D13*
%TO.C,U37*%
X199375000Y-78425000D03*
X199375000Y-80325000D03*
X197500000Y-79375000D03*
%TD*%
%TO.C,U18*%
X137462500Y-59375000D03*
X137462500Y-61275000D03*
X135587500Y-60325000D03*
%TD*%
D24*
%TO.C,U58*%
X54309088Y-26943749D03*
D25*
X54309088Y-25243749D03*
X56309088Y-25243749D03*
X56309088Y-27143749D03*
%TD*%
D13*
%TO.C,U11*%
X227950000Y-40325000D03*
X227950000Y-42225000D03*
X226075000Y-41275000D03*
%TD*%
%TO.C,U22*%
X256525000Y-59375000D03*
X256525000Y-61275000D03*
X254650000Y-60325000D03*
%TD*%
%TO.C,U19*%
X156512500Y-59375000D03*
X156512500Y-61275000D03*
X154637500Y-60325000D03*
%TD*%
D23*
%TO.C,C4*%
X46250752Y-40310060D03*
X47210752Y-40310060D03*
%TD*%
D13*
%TO.C,U3*%
X66025000Y-21275000D03*
X66025000Y-23175000D03*
X64150000Y-22225000D03*
%TD*%
D15*
%TO.C,D4*%
X72062499Y-45628999D03*
X72062499Y-47128999D03*
D17*
X77162500Y-47129000D03*
D15*
X77162499Y-45628999D03*
%TD*%
%TO.C,D15*%
X120024999Y-66178999D03*
X120024999Y-64678999D03*
D16*
X114925000Y-64679000D03*
D15*
X114924999Y-66178999D03*
%TD*%
%TO.C,D22*%
X215274999Y-66178999D03*
X215274999Y-64678999D03*
D16*
X210175000Y-64679000D03*
D15*
X210174999Y-66178999D03*
%TD*%
%TO.C,D54*%
X33562499Y-28054999D03*
X33562499Y-26554999D03*
D16*
X28462500Y-26555000D03*
D15*
X28462499Y-28054999D03*
%TD*%
%TO.C,D31*%
X255418749Y-74203999D03*
X255418749Y-75703999D03*
D17*
X260518750Y-75704000D03*
D15*
X260518749Y-74203999D03*
%TD*%
D13*
%TO.C,U62*%
X123175000Y-21275000D03*
X123175000Y-23175000D03*
X121300000Y-22225000D03*
%TD*%
%TO.C,U30*%
X142225000Y-78425000D03*
X142225000Y-80325000D03*
X140350000Y-79375000D03*
%TD*%
D15*
%TO.C,D2*%
X33962499Y-45628999D03*
X33962499Y-47128999D03*
D17*
X39062500Y-47129000D03*
D15*
X39062499Y-45628999D03*
%TD*%
D13*
%TO.C,U8*%
X132700000Y-40325000D03*
X132700000Y-42225000D03*
X130825000Y-41275000D03*
%TD*%
D23*
%TO.C,C11*%
X55859704Y-56073622D03*
X56819704Y-56073622D03*
%TD*%
D15*
%TO.C,D52*%
X67637499Y-28078999D03*
X67637499Y-26578999D03*
D16*
X62537500Y-26579000D03*
D15*
X62537499Y-28078999D03*
%TD*%
D13*
%TO.C,U41*%
X154131250Y-97475000D03*
X154131250Y-99375000D03*
X152256250Y-98425000D03*
%TD*%
D22*
%TO.C,R4*%
X57037122Y-21176841D03*
X57037122Y-20156841D03*
%TD*%
D15*
%TO.C,D19*%
X41443749Y-66178999D03*
X41443749Y-64678999D03*
D16*
X36343750Y-64679000D03*
D15*
X36343749Y-66178999D03*
%TD*%
%TO.C,D28*%
X195887499Y-83728999D03*
X195887499Y-85228999D03*
D17*
X200987500Y-85229000D03*
D15*
X200987499Y-83728999D03*
%TD*%
D13*
%TO.C,U29*%
X123175000Y-78425000D03*
X123175000Y-80325000D03*
X121300000Y-79375000D03*
%TD*%
D15*
%TO.C,D12*%
X224462499Y-45628999D03*
X224462499Y-47128999D03*
D17*
X229562500Y-47129000D03*
D15*
X229562499Y-45628999D03*
%TD*%
D13*
%TO.C,U47*%
X82693750Y-97475000D03*
X82693750Y-99375000D03*
X80818750Y-98425000D03*
%TD*%
D26*
%TO.C,C1*%
X45574303Y-61406884D03*
X45574303Y-62366884D03*
%TD*%
D10*
%TO.C,D48*%
X199804851Y-101431249D03*
X198304851Y-101431249D03*
D11*
X198304852Y-106531250D03*
D10*
X199804851Y-106531249D03*
%TD*%
D13*
%TO.C,U32*%
X180325000Y-78425000D03*
X180325000Y-80325000D03*
X178450000Y-79375000D03*
%TD*%
%TO.C,U61*%
X104125000Y-21275000D03*
X104125000Y-23175000D03*
X102250000Y-22225000D03*
%TD*%
D15*
%TO.C,D1*%
X143837499Y-28078999D03*
X143837499Y-26578999D03*
D16*
X138737500Y-26579000D03*
D15*
X138737499Y-28078999D03*
%TD*%
D13*
%TO.C,U28*%
X66025000Y-78425000D03*
X66025000Y-80325000D03*
X64150000Y-79375000D03*
%TD*%
D14*
%TO.C,U57*%
X55361839Y-71545449D03*
X55361839Y-72195689D03*
X55361839Y-72845929D03*
X55361839Y-73496169D03*
X55361839Y-74141329D03*
X55361839Y-74791569D03*
X55361839Y-75441809D03*
X55361839Y-76092049D03*
X49413159Y-76092049D03*
X49413159Y-75441809D03*
X49413159Y-74791569D03*
X49413159Y-74141329D03*
X49413159Y-73496169D03*
X49413159Y-72845929D03*
X49413159Y-72195689D03*
X49413159Y-71545449D03*
%TD*%
D13*
%TO.C,U4*%
X37450000Y-40325000D03*
X37450000Y-42225000D03*
X35575000Y-41275000D03*
%TD*%
%TO.C,U33*%
X237475000Y-78425000D03*
X237475000Y-80325000D03*
X235600000Y-79375000D03*
%TD*%
%TO.C,U50*%
X261287500Y-97475000D03*
X261287500Y-99375000D03*
X259412500Y-98425000D03*
%TD*%
%TO.C,U40*%
X61262500Y-97475000D03*
X61262500Y-99375000D03*
X59387500Y-98425000D03*
%TD*%
%TO.C,U7*%
X113650000Y-40325000D03*
X113650000Y-42225000D03*
X111775000Y-41275000D03*
%TD*%
%TO.C,U36*%
X104125000Y-78425000D03*
X104125000Y-80325000D03*
X102250000Y-79375000D03*
%TD*%
%TO.C,U5*%
X56500000Y-40325000D03*
X56500000Y-42225000D03*
X54625000Y-41275000D03*
%TD*%
D27*
%TO.C,J2*%
X52248999Y-17935624D03*
X53048999Y-17935624D03*
D28*
X54248999Y-17935624D03*
X55248999Y-17935624D03*
X55748999Y-17935624D03*
X56748999Y-17935624D03*
D27*
X57948999Y-17935624D03*
X58748999Y-17935624D03*
X58748999Y-17935624D03*
X57948999Y-17935624D03*
D28*
X57248999Y-17935624D03*
X56248999Y-17935624D03*
X54748999Y-17935624D03*
X53748999Y-17935624D03*
D27*
X53048999Y-17935624D03*
X52248999Y-17935624D03*
%TD*%
D29*
%TO.C,J3*%
X48925000Y-31831250D03*
X48925000Y-33031250D03*
X48925000Y-34231250D03*
X48925000Y-35431250D03*
D30*
X52700000Y-30681250D03*
X52700000Y-36581250D03*
%TD*%
D13*
%TO.C,U10*%
X170800000Y-40325000D03*
X170800000Y-42225000D03*
X168925000Y-41275000D03*
%TD*%
D15*
%TO.C,D43*%
X124787499Y-28078999D03*
X124787499Y-26578999D03*
D16*
X119687500Y-26579000D03*
D15*
X119687499Y-28078999D03*
%TD*%
D14*
%TO.C,U64*%
X96043749Y-31064199D03*
X96043749Y-31714439D03*
X96043749Y-32364679D03*
X96043749Y-33014919D03*
X96043749Y-33660079D03*
X96043749Y-34310319D03*
X96043749Y-34960559D03*
X96043749Y-35610799D03*
X90095069Y-35610799D03*
X90095069Y-34960559D03*
X90095069Y-34310319D03*
X90095069Y-33660079D03*
X90095069Y-33014919D03*
X90095069Y-32364679D03*
X90095069Y-31714439D03*
X90095069Y-31064199D03*
%TD*%
D13*
%TO.C,U44*%
X223187500Y-97475000D03*
X223187500Y-99375000D03*
X221312500Y-98425000D03*
%TD*%
D15*
%TO.C,D47*%
X224799999Y-104278999D03*
X224799999Y-102778999D03*
D16*
X219700000Y-102779000D03*
D15*
X219699999Y-104278999D03*
%TD*%
D14*
%TO.C,U54*%
X174850885Y-71543434D03*
X174850885Y-72193674D03*
X174850885Y-72843914D03*
X174850885Y-73494154D03*
X174850885Y-74139314D03*
X174850885Y-74789554D03*
X174850885Y-75439794D03*
X174850885Y-76090034D03*
X168902205Y-76090034D03*
X168902205Y-75439794D03*
X168902205Y-74789554D03*
X168902205Y-74139314D03*
X168902205Y-73494154D03*
X168902205Y-72843914D03*
X168902205Y-72193674D03*
X168902205Y-71543434D03*
%TD*%
D15*
%TO.C,D13*%
X250656249Y-45628999D03*
X250656249Y-47128999D03*
D17*
X255756250Y-47129000D03*
D15*
X255756249Y-45628999D03*
%TD*%
%TO.C,D17*%
X81924999Y-66178999D03*
X81924999Y-64678999D03*
D16*
X76825000Y-64679000D03*
D15*
X76824999Y-66178999D03*
%TD*%
D13*
%TO.C,U16*%
X61262500Y-59375000D03*
X61262500Y-61275000D03*
X59387500Y-60325000D03*
%TD*%
%TO.C,U23*%
X80312500Y-59375000D03*
X80312500Y-61275000D03*
X78437500Y-60325000D03*
%TD*%
D31*
%TO.C,C2*%
X44848806Y-49792201D03*
X44848806Y-48832201D03*
%TD*%
D15*
%TO.C,D21*%
X234324999Y-66178999D03*
X234324999Y-64678999D03*
D16*
X229225000Y-64679000D03*
D15*
X229224999Y-66178999D03*
%TD*%
%TO.C,D51*%
X86687499Y-28078999D03*
X86687499Y-26578999D03*
D16*
X81587500Y-26579000D03*
D15*
X81587499Y-28078999D03*
%TD*%
D32*
%TO.C,J1*%
X46837697Y-32131250D03*
X46837697Y-33131250D03*
X46837697Y-34131250D03*
X46837697Y-35131250D03*
D33*
X50712697Y-30831250D03*
X50712697Y-36431250D03*
%TD*%
D13*
%TO.C,U17*%
X118412500Y-59375000D03*
X118412500Y-61275000D03*
X116537500Y-60325000D03*
%TD*%
D31*
%TO.C,C10*%
X50006250Y-48582962D03*
X50006250Y-47622962D03*
%TD*%
D13*
%TO.C,U20*%
X175562500Y-59375000D03*
X175562500Y-61275000D03*
X173687500Y-60325000D03*
%TD*%
D21*
%TO.C,C5*%
X47456127Y-45346072D03*
X46496127Y-45346072D03*
%TD*%
D15*
%TO.C,D11*%
X205412499Y-45628999D03*
X205412499Y-47128999D03*
D17*
X210512500Y-47129000D03*
D15*
X210512499Y-45628999D03*
%TD*%
D22*
%TO.C,R5*%
X39379783Y-56280538D03*
X39379783Y-55260538D03*
%TD*%
D15*
%TO.C,D7*%
X129212499Y-45628999D03*
X129212499Y-47128999D03*
D17*
X134312500Y-47129000D03*
D15*
X134312499Y-45628999D03*
%TD*%
%TO.C,D25*%
X158124999Y-66178999D03*
X158124999Y-64678999D03*
D16*
X153025000Y-64679000D03*
D15*
X153024999Y-66178999D03*
%TD*%
%TO.C,D35*%
X100637499Y-83728999D03*
X100637499Y-85228999D03*
D17*
X105737500Y-85229000D03*
D15*
X105737499Y-83728999D03*
%TD*%
%TO.C,D30*%
X233987499Y-83728999D03*
X233987499Y-85228999D03*
D17*
X239087500Y-85229000D03*
D15*
X239087499Y-83728999D03*
%TD*%
%TO.C,D5*%
X91112499Y-45628999D03*
X91112499Y-47128999D03*
D17*
X96212500Y-47129000D03*
D15*
X96212499Y-45628999D03*
%TD*%
D14*
%TO.C,U51*%
X249463385Y-71563904D03*
X249463385Y-72214144D03*
X249463385Y-72864384D03*
X249463385Y-73514624D03*
X249463385Y-74159784D03*
X249463385Y-74810024D03*
X249463385Y-75460264D03*
X249463385Y-76110504D03*
X243514705Y-76110504D03*
X243514705Y-75460264D03*
X243514705Y-74810024D03*
X243514705Y-74159784D03*
X243514705Y-73514624D03*
X243514705Y-72864384D03*
X243514705Y-72214144D03*
X243514705Y-71563904D03*
%TD*%
D15*
%TO.C,D50*%
X105737499Y-28078999D03*
X105737499Y-26578999D03*
D16*
X100637500Y-26579000D03*
D15*
X100637499Y-28078999D03*
%TD*%
%TO.C,D55*%
X33562499Y-22422499D03*
X33562499Y-20922499D03*
D16*
X28462500Y-20922500D03*
D15*
X28462499Y-22422499D03*
%TD*%
D34*
%TO.C,L1*%
X51593750Y-27768750D03*
X51593750Y-24618750D03*
%TD*%
D15*
%TO.C,D46*%
X243849999Y-104278999D03*
X243849999Y-102778999D03*
D16*
X238750000Y-102779000D03*
D15*
X238749999Y-104278999D03*
%TD*%
%TO.C,D34*%
X81587499Y-83728999D03*
X81587499Y-85228999D03*
D17*
X86687500Y-85229000D03*
D15*
X86687499Y-83728999D03*
%TD*%
%TO.C,D44*%
X255418749Y-83728999D03*
X255418749Y-85228999D03*
D17*
X260518750Y-85229000D03*
D15*
X260518749Y-83728999D03*
%TD*%
%TO.C,D26*%
X157787499Y-83728999D03*
X157787499Y-85228999D03*
D17*
X162887500Y-85229000D03*
D15*
X162887499Y-83728999D03*
%TD*%
D31*
%TO.C,C12*%
X53577271Y-49854806D03*
X53577271Y-48894806D03*
%TD*%
D15*
%TO.C,D37*%
X138737499Y-83728999D03*
X138737499Y-85228999D03*
D17*
X143837500Y-85229000D03*
D15*
X143837499Y-83728999D03*
%TD*%
D13*
%TO.C,U15*%
X39831250Y-59375000D03*
X39831250Y-61275000D03*
X37956250Y-60325000D03*
%TD*%
%TO.C,U6*%
X94600000Y-40325000D03*
X94600000Y-42225000D03*
X92725000Y-41275000D03*
%TD*%
%TO.C,U13*%
X189850000Y-40325000D03*
X189850000Y-42225000D03*
X187975000Y-41275000D03*
%TD*%
%TO.C,U49*%
X242237500Y-97475000D03*
X242237500Y-99375000D03*
X240362500Y-98425000D03*
%TD*%
D15*
%TO.C,D9*%
X167312499Y-45628999D03*
X167312499Y-47128999D03*
D17*
X172412500Y-47129000D03*
D15*
X172412499Y-45628999D03*
%TD*%
D13*
%TO.C,U21*%
X232712500Y-59375000D03*
X232712500Y-61275000D03*
X230837500Y-60325000D03*
%TD*%
%TO.C,U24*%
X99362500Y-59375000D03*
X99362500Y-61275000D03*
X97487500Y-60325000D03*
%TD*%
%TO.C,U42*%
X168418750Y-97475000D03*
X168418750Y-99375000D03*
X166543750Y-98425000D03*
%TD*%
D15*
%TO.C,D14*%
X139074999Y-66178999D03*
X139074999Y-64678999D03*
D16*
X133975000Y-64679000D03*
D15*
X133974999Y-66178999D03*
%TD*%
D13*
%TO.C,U38*%
X218425000Y-78425000D03*
X218425000Y-80325000D03*
X216550000Y-79375000D03*
%TD*%
%TO.C,U12*%
X254143750Y-40325000D03*
X254143750Y-42225000D03*
X252268750Y-41275000D03*
%TD*%
D15*
%TO.C,D8*%
X148262499Y-45628999D03*
X148262499Y-47128999D03*
D17*
X153362500Y-47129000D03*
D15*
X153362499Y-45628999D03*
%TD*%
D13*
%TO.C,U26*%
X213662500Y-59375000D03*
X213662500Y-61275000D03*
X211787500Y-60325000D03*
%TD*%
D15*
%TO.C,D20*%
X258137499Y-66178999D03*
X258137499Y-64678999D03*
D16*
X253037500Y-64679000D03*
D15*
X253037499Y-66178999D03*
%TD*%
%TO.C,D24*%
X177174999Y-66178999D03*
X177174999Y-64678999D03*
D16*
X172075000Y-64679000D03*
D15*
X172074999Y-66178999D03*
%TD*%
D35*
%TO.C,C13*%
X48418750Y-48400000D03*
X48418750Y-46850000D03*
%TD*%
D13*
%TO.C,U1*%
X46975000Y-21275000D03*
X46975000Y-23175000D03*
X45100000Y-22225000D03*
%TD*%
D15*
%TO.C,D36*%
X119687499Y-83728999D03*
X119687499Y-85228999D03*
D17*
X124787500Y-85229000D03*
D15*
X124787499Y-83728999D03*
%TD*%
D13*
%TO.C,U25*%
X194612500Y-59375000D03*
X194612500Y-61275000D03*
X192737500Y-60325000D03*
%TD*%
%TO.C,U31*%
X161275000Y-78425000D03*
X161275000Y-80325000D03*
X159400000Y-79375000D03*
%TD*%
%TO.C,U27*%
X42212500Y-78425000D03*
X42212500Y-80325000D03*
X40337500Y-79375000D03*
%TD*%
D14*
%TO.C,U56*%
X94682135Y-71545449D03*
X94682135Y-72195689D03*
X94682135Y-72845929D03*
X94682135Y-73496169D03*
X94682135Y-74141329D03*
X94682135Y-74791569D03*
X94682135Y-75441809D03*
X94682135Y-76092049D03*
X88733455Y-76092049D03*
X88733455Y-75441809D03*
X88733455Y-74791569D03*
X88733455Y-74141329D03*
X88733455Y-73496169D03*
X88733455Y-72845929D03*
X88733455Y-72195689D03*
X88733455Y-71545449D03*
%TD*%
D13*
%TO.C,U34*%
X258906250Y-78425000D03*
X258906250Y-80325000D03*
X257031250Y-79375000D03*
%TD*%
%TO.C,U60*%
X85075000Y-21275000D03*
X85075000Y-23175000D03*
X83200000Y-22225000D03*
%TD*%
D14*
%TO.C,U55*%
X131988385Y-71543434D03*
X131988385Y-72193674D03*
X131988385Y-72843914D03*
X131988385Y-73494154D03*
X131988385Y-74139314D03*
X131988385Y-74789554D03*
X131988385Y-75439794D03*
X131988385Y-76090034D03*
X126039705Y-76090034D03*
X126039705Y-75439794D03*
X126039705Y-74789554D03*
X126039705Y-74139314D03*
X126039705Y-73494154D03*
X126039705Y-72843914D03*
X126039705Y-72193674D03*
X126039705Y-71543434D03*
%TD*%
D23*
%TO.C,C3*%
X33171250Y-30956250D03*
X34131250Y-30956250D03*
%TD*%
D13*
%TO.C,U14*%
X208900000Y-40325000D03*
X208900000Y-42225000D03*
X207025000Y-41275000D03*
%TD*%
D36*
%TO.C,U52*%
X48187212Y-43800000D03*
X46287212Y-43800000D03*
X47237212Y-41925000D03*
%TD*%
D15*
%TO.C,D49*%
X170031249Y-104278999D03*
X170031249Y-102778999D03*
D16*
X164931250Y-102779000D03*
D15*
X164931249Y-104278999D03*
%TD*%
D37*
%TO.C,F2*%
X58737500Y-24793750D03*
X58737500Y-27593750D03*
%TD*%
D15*
%TO.C,D53*%
X48587499Y-28078999D03*
X48587499Y-26578999D03*
D16*
X43487500Y-26579000D03*
D15*
X43487499Y-28078999D03*
%TD*%
%TO.C,D3*%
X53012499Y-45628999D03*
X53012499Y-47128999D03*
D17*
X58112500Y-47129000D03*
D15*
X58112499Y-45628999D03*
%TD*%
D13*
%TO.C,U63*%
X142225000Y-21275000D03*
X142225000Y-23175000D03*
X140350000Y-22225000D03*
%TD*%
%TO.C,U2*%
X75550000Y-40325000D03*
X75550000Y-42225000D03*
X73675000Y-41275000D03*
%TD*%
D15*
%TO.C,D27*%
X176837499Y-83728999D03*
X176837499Y-85228999D03*
D17*
X181937500Y-85229000D03*
D15*
X181937499Y-83728999D03*
%TD*%
%TO.C,D33*%
X62537499Y-83728999D03*
X62537499Y-85228999D03*
D17*
X67637500Y-85229000D03*
D15*
X67637499Y-83728999D03*
%TD*%
%TO.C,D41*%
X62874999Y-104278999D03*
X62874999Y-102778999D03*
D16*
X57775000Y-102779000D03*
D15*
X57774999Y-104278999D03*
%TD*%
%TO.C,D23*%
X196224999Y-66178999D03*
X196224999Y-64678999D03*
D16*
X191125000Y-64679000D03*
D15*
X191124999Y-66178999D03*
%TD*%
%TO.C,D39*%
X122406249Y-104278999D03*
X122406249Y-102778999D03*
D16*
X117306250Y-102779000D03*
D15*
X117306249Y-104278999D03*
%TD*%
M02*
