%TF.GenerationSoftware,KiCad,Pcbnew,(7.0.0)*%
%TF.CreationDate,2023-10-27T13:48:32+02:00*%
%TF.ProjectId,vootington VAN,766f6f74-696e-4677-946f-6e2056414e2e,rev?*%
%TF.SameCoordinates,Original*%
%TF.FileFunction,Soldermask,Top*%
%TF.FilePolarity,Negative*%
%FSLAX46Y46*%
G04 Gerber Fmt 4.6, Leading zero omitted, Abs format (unit mm)*
G04 Created by KiCad (PCBNEW (7.0.0)) date 2023-10-27 13:48:32*
%MOMM*%
%LPD*%
G01*
G04 APERTURE LIST*
%ADD10C,1.700000*%
%ADD11C,2.200000*%
%ADD12C,3.048000*%
%ADD13C,3.987800*%
%ADD14C,3.800000*%
%ADD15C,0.650000*%
%ADD16O,1.000000X1.600000*%
%ADD17O,1.000000X2.100000*%
G04 APERTURE END LIST*
D10*
%TO.C,K_31*%
X136207500Y-79375000D03*
X146367500Y-79375000D03*
%TD*%
%TO.C,K_34*%
X193357500Y-79375000D03*
X203517500Y-79375000D03*
%TD*%
D11*
%TO.C,H23*%
X38893750Y-69850000D03*
%TD*%
D10*
%TO.C,K_25*%
X252888750Y-69850000D03*
X263048750Y-69850000D03*
%TD*%
D11*
%TO.C,H21*%
X188912500Y-50800000D03*
%TD*%
D10*
%TO.C,K_33*%
X174307500Y-79375000D03*
X184467500Y-79375000D03*
%TD*%
%TO.C,K_46*%
X236220000Y-98425000D03*
X246380000Y-98425000D03*
%TD*%
D11*
%TO.C,H9*%
X141287500Y-41275000D03*
%TD*%
D10*
%TO.C,K_30*%
X117157500Y-79375000D03*
X127317500Y-79375000D03*
%TD*%
%TO.C,K_10*%
X202882500Y-41275000D03*
X213042500Y-41275000D03*
%TD*%
%TO.C,K_20*%
X169545000Y-60325000D03*
X179705000Y-60325000D03*
%TD*%
%TO.C,K_28*%
X79057500Y-79375000D03*
X89217500Y-79375000D03*
%TD*%
%TO.C,K_16*%
X93345000Y-60325000D03*
X103505000Y-60325000D03*
%TD*%
%TO.C,K_45*%
X217170000Y-98425000D03*
X227330000Y-98425000D03*
%TD*%
%TO.C,K_39*%
X55245000Y-98425000D03*
X65405000Y-98425000D03*
%TD*%
%TO.C,K_15*%
X74295000Y-60325000D03*
X84455000Y-60325000D03*
%TD*%
D11*
%TO.C,H10*%
X264318750Y-41275000D03*
%TD*%
%TO.C,H4*%
X165162500Y-69850000D03*
%TD*%
D10*
%TO.C,K_26*%
X36195000Y-79375000D03*
X46355000Y-79375000D03*
%TD*%
%TO.C,K_35*%
X212407500Y-79375000D03*
X222567500Y-79375000D03*
%TD*%
%TO.C,K_17*%
X112395000Y-60325000D03*
X122555000Y-60325000D03*
%TD*%
%TO.C,K_23*%
X226695000Y-60325000D03*
X236855000Y-60325000D03*
%TD*%
%TO.C,K_3*%
X69532500Y-41275000D03*
X79692500Y-41275000D03*
%TD*%
%TO.C,K_32*%
X155257500Y-79375000D03*
X165417500Y-79375000D03*
%TD*%
D11*
%TO.C,H17*%
X144462500Y-98425000D03*
%TD*%
%TO.C,H22*%
X40731250Y-50800000D03*
%TD*%
D10*
%TO.C,K_37*%
X252888750Y-79375000D03*
X263048750Y-79375000D03*
%TD*%
%TO.C,K_12*%
X248126250Y-41275000D03*
X258286250Y-41275000D03*
%TD*%
%TO.C,K_4*%
X88582500Y-41275000D03*
X98742500Y-41275000D03*
%TD*%
%TO.C,K_27*%
X60007500Y-79375000D03*
X70167500Y-79375000D03*
%TD*%
%TO.C,K_8*%
X164782500Y-41275000D03*
X174942500Y-41275000D03*
%TD*%
D11*
%TO.C,H15*%
X50800000Y-93662500D03*
%TD*%
D10*
%TO.C,K_1*%
X31432500Y-41275000D03*
X41592500Y-41275000D03*
%TD*%
D12*
%TO.C,S1*%
X131762500Y-105410000D03*
D13*
X131762500Y-90170000D03*
D12*
X107950000Y-105410000D03*
D13*
X107950000Y-90170000D03*
%TD*%
D14*
%TO.C,H7*%
X209309500Y-97302500D03*
%TD*%
D10*
%TO.C,K_40*%
X76676250Y-98425000D03*
X86836250Y-98425000D03*
%TD*%
%TO.C,K_9*%
X183832500Y-41275000D03*
X193992500Y-41275000D03*
%TD*%
D11*
%TO.C,H18*%
X188912500Y-93662500D03*
%TD*%
D10*
%TO.C,K_11*%
X221932500Y-41275000D03*
X232092500Y-41275000D03*
%TD*%
D11*
%TO.C,H6*%
X103662500Y-97024000D03*
%TD*%
D13*
%TO.C,S4*%
X249713750Y-57943750D03*
X249713750Y-81756250D03*
D12*
X264953750Y-57943750D03*
X264953750Y-81756250D03*
%TD*%
D10*
%TO.C,K_18*%
X131445000Y-60325000D03*
X141605000Y-60325000D03*
%TD*%
%TO.C,K_41*%
X114776250Y-98425000D03*
X124936250Y-98425000D03*
%TD*%
%TO.C,K_13*%
X33813750Y-60325000D03*
X43973750Y-60325000D03*
%TD*%
%TO.C,K_5*%
X107632500Y-41275000D03*
X117792500Y-41275000D03*
%TD*%
D11*
%TO.C,H8*%
X84137500Y-41275000D03*
%TD*%
D10*
%TO.C,K_36*%
X231457500Y-79375000D03*
X241617500Y-79375000D03*
%TD*%
D11*
%TO.C,H3*%
X237562500Y-48674000D03*
%TD*%
%TO.C,H12*%
X184943750Y-70643750D03*
%TD*%
D12*
%TO.C,S2*%
X203193650Y-105410000D03*
D13*
X203193650Y-90170000D03*
D12*
X103181150Y-105410000D03*
D13*
X103181150Y-90170000D03*
%TD*%
D10*
%TO.C,K_6*%
X126682500Y-41275000D03*
X136842500Y-41275000D03*
%TD*%
%TO.C,K_42*%
X148107400Y-98425000D03*
X158267400Y-98425000D03*
%TD*%
%TO.C,K_29*%
X98107500Y-79375000D03*
X108267500Y-79375000D03*
%TD*%
%TO.C,K_47*%
X255270000Y-98425000D03*
X265430000Y-98425000D03*
%TD*%
%TO.C,K_22*%
X207645000Y-60325000D03*
X217805000Y-60325000D03*
%TD*%
%TO.C,K_21*%
X188595000Y-60325000D03*
X198755000Y-60325000D03*
%TD*%
%TO.C,K_14*%
X55245000Y-60325000D03*
X65405000Y-60325000D03*
%TD*%
%TO.C,K_44*%
X195738750Y-98425000D03*
X205898750Y-98425000D03*
%TD*%
%TO.C,K_24*%
X250507500Y-60325000D03*
X260667500Y-60325000D03*
%TD*%
%TO.C,K_19*%
X150495000Y-60325000D03*
X160655000Y-60325000D03*
%TD*%
%TO.C,K_43*%
X162401250Y-98425000D03*
X172561250Y-98425000D03*
%TD*%
%TO.C,K_7*%
X145732500Y-41275000D03*
X155892500Y-41275000D03*
%TD*%
D11*
%TO.C,H5*%
X56715000Y-85573750D03*
%TD*%
D10*
%TO.C,K_38*%
X33813750Y-98425000D03*
X43973750Y-98425000D03*
%TD*%
D11*
%TO.C,H16*%
X96837500Y-98425000D03*
%TD*%
%TO.C,H13*%
X226218750Y-72531250D03*
%TD*%
D10*
%TO.C,K_2*%
X50482500Y-41275000D03*
X60642500Y-41275000D03*
%TD*%
D12*
%TO.C,S3*%
X179387500Y-105410000D03*
D13*
X179387500Y-90170000D03*
D12*
X155575000Y-105410000D03*
D13*
X155575000Y-90170000D03*
%TD*%
D11*
%TO.C,H1*%
X58312500Y-50800000D03*
%TD*%
%TO.C,H11*%
X106744954Y-70226862D03*
%TD*%
%TO.C,H20*%
X151606250Y-79375000D03*
%TD*%
%TO.C,H14*%
X267493750Y-74612500D03*
%TD*%
%TO.C,H19*%
X250825000Y-93662500D03*
%TD*%
%TO.C,H2*%
X134512500Y-50800000D03*
%TD*%
D15*
%TO.C,J2*%
X237203500Y-36731250D03*
X242983500Y-36731250D03*
D16*
X235773499Y-33081249D03*
D17*
X235773499Y-37261249D03*
D16*
X244413499Y-33081249D03*
D17*
X244413499Y-37261249D03*
%TD*%
M02*
