%TF.GenerationSoftware,KiCad,Pcbnew,(7.0.0)*%
%TF.CreationDate,2023-09-24T22:25:07+02:00*%
%TF.ProjectId,vootington,766f6f74-696e-4677-946f-6e2e6b696361,rev?*%
%TF.SameCoordinates,Original*%
%TF.FileFunction,Other,Comment*%
%FSLAX46Y46*%
G04 Gerber Fmt 4.6, Leading zero omitted, Abs format (unit mm)*
G04 Created by KiCad (PCBNEW (7.0.0)) date 2023-09-24 22:25:07*
%MOMM*%
%LPD*%
G01*
G04 APERTURE LIST*
%ADD10C,0.030000*%
%ADD11C,0.150000*%
G04 APERTURE END LIST*
D10*
%TO.C,SW1*%
X259182678Y-52660976D02*
X259182678Y-52460976D01*
X259182678Y-52460976D02*
X259296963Y-52660976D01*
X259296963Y-52660976D02*
X259296963Y-52460976D01*
X259420773Y-52660976D02*
X259401725Y-52651452D01*
X259401725Y-52651452D02*
X259392202Y-52641928D01*
X259392202Y-52641928D02*
X259382678Y-52622880D01*
X259382678Y-52622880D02*
X259382678Y-52565738D01*
X259382678Y-52565738D02*
X259392202Y-52546690D01*
X259392202Y-52546690D02*
X259401725Y-52537166D01*
X259401725Y-52537166D02*
X259420773Y-52527642D01*
X259420773Y-52527642D02*
X259449344Y-52527642D01*
X259449344Y-52527642D02*
X259468392Y-52537166D01*
X259468392Y-52537166D02*
X259477916Y-52546690D01*
X259477916Y-52546690D02*
X259487440Y-52565738D01*
X259487440Y-52565738D02*
X259487440Y-52622880D01*
X259487440Y-52622880D02*
X259477916Y-52641928D01*
X259477916Y-52641928D02*
X259468392Y-52651452D01*
X259468392Y-52651452D02*
X259449344Y-52660976D01*
X259449344Y-52660976D02*
X259420773Y-52660976D01*
X259759820Y-52556214D02*
X259693154Y-52556214D01*
X259693154Y-52660976D02*
X259693154Y-52460976D01*
X259693154Y-52460976D02*
X259788392Y-52460976D01*
X259864583Y-52641928D02*
X259874106Y-52651452D01*
X259874106Y-52651452D02*
X259864583Y-52660976D01*
X259864583Y-52660976D02*
X259855059Y-52651452D01*
X259855059Y-52651452D02*
X259864583Y-52641928D01*
X259864583Y-52641928D02*
X259864583Y-52660976D01*
X260074106Y-52641928D02*
X260064582Y-52651452D01*
X260064582Y-52651452D02*
X260036011Y-52660976D01*
X260036011Y-52660976D02*
X260016963Y-52660976D01*
X260016963Y-52660976D02*
X259988392Y-52651452D01*
X259988392Y-52651452D02*
X259969344Y-52632404D01*
X259969344Y-52632404D02*
X259959821Y-52613357D01*
X259959821Y-52613357D02*
X259950297Y-52575261D01*
X259950297Y-52575261D02*
X259950297Y-52546690D01*
X259950297Y-52546690D02*
X259959821Y-52508595D01*
X259959821Y-52508595D02*
X259969344Y-52489547D01*
X259969344Y-52489547D02*
X259988392Y-52470500D01*
X259988392Y-52470500D02*
X260016963Y-52460976D01*
X260016963Y-52460976D02*
X260036011Y-52460976D01*
X260036011Y-52460976D02*
X260064582Y-52470500D01*
X260064582Y-52470500D02*
X260074106Y-52480023D01*
X260245535Y-52527642D02*
X260245535Y-52660976D01*
X260159821Y-52527642D02*
X260159821Y-52632404D01*
X260159821Y-52632404D02*
X260169344Y-52651452D01*
X260169344Y-52651452D02*
X260188392Y-52660976D01*
X260188392Y-52660976D02*
X260216963Y-52660976D01*
X260216963Y-52660976D02*
X260236011Y-52651452D01*
X260236011Y-52651452D02*
X260245535Y-52641928D01*
X260432201Y-52527642D02*
X260508392Y-52527642D01*
X260460773Y-52460976D02*
X260460773Y-52632404D01*
X260460773Y-52632404D02*
X260470296Y-52651452D01*
X260470296Y-52651452D02*
X260489344Y-52660976D01*
X260489344Y-52660976D02*
X260508392Y-52660976D01*
X260575059Y-52660976D02*
X260575059Y-52527642D01*
X260575059Y-52565738D02*
X260584582Y-52546690D01*
X260584582Y-52546690D02*
X260594106Y-52537166D01*
X260594106Y-52537166D02*
X260613154Y-52527642D01*
X260613154Y-52527642D02*
X260632201Y-52527642D01*
X260784583Y-52660976D02*
X260784583Y-52556214D01*
X260784583Y-52556214D02*
X260775059Y-52537166D01*
X260775059Y-52537166D02*
X260756011Y-52527642D01*
X260756011Y-52527642D02*
X260717916Y-52527642D01*
X260717916Y-52527642D02*
X260698869Y-52537166D01*
X260784583Y-52651452D02*
X260765535Y-52660976D01*
X260765535Y-52660976D02*
X260717916Y-52660976D01*
X260717916Y-52660976D02*
X260698869Y-52651452D01*
X260698869Y-52651452D02*
X260689345Y-52632404D01*
X260689345Y-52632404D02*
X260689345Y-52613357D01*
X260689345Y-52613357D02*
X260698869Y-52594309D01*
X260698869Y-52594309D02*
X260717916Y-52584785D01*
X260717916Y-52584785D02*
X260765535Y-52584785D01*
X260765535Y-52584785D02*
X260784583Y-52575261D01*
X260965535Y-52651452D02*
X260946487Y-52660976D01*
X260946487Y-52660976D02*
X260908392Y-52660976D01*
X260908392Y-52660976D02*
X260889344Y-52651452D01*
X260889344Y-52651452D02*
X260879821Y-52641928D01*
X260879821Y-52641928D02*
X260870297Y-52622880D01*
X260870297Y-52622880D02*
X260870297Y-52565738D01*
X260870297Y-52565738D02*
X260879821Y-52546690D01*
X260879821Y-52546690D02*
X260889344Y-52537166D01*
X260889344Y-52537166D02*
X260908392Y-52527642D01*
X260908392Y-52527642D02*
X260946487Y-52527642D01*
X260946487Y-52527642D02*
X260965535Y-52537166D01*
X261051250Y-52660976D02*
X261051250Y-52460976D01*
X261070297Y-52584785D02*
X261127440Y-52660976D01*
X261127440Y-52527642D02*
X261051250Y-52603833D01*
X261203631Y-52651452D02*
X261222678Y-52660976D01*
X261222678Y-52660976D02*
X261260774Y-52660976D01*
X261260774Y-52660976D02*
X261279821Y-52651452D01*
X261279821Y-52651452D02*
X261289345Y-52632404D01*
X261289345Y-52632404D02*
X261289345Y-52622880D01*
X261289345Y-52622880D02*
X261279821Y-52603833D01*
X261279821Y-52603833D02*
X261260774Y-52594309D01*
X261260774Y-52594309D02*
X261232202Y-52594309D01*
X261232202Y-52594309D02*
X261213155Y-52584785D01*
X261213155Y-52584785D02*
X261203631Y-52565738D01*
X261203631Y-52565738D02*
X261203631Y-52556214D01*
X261203631Y-52556214D02*
X261213155Y-52537166D01*
X261213155Y-52537166D02*
X261232202Y-52527642D01*
X261232202Y-52527642D02*
X261260774Y-52527642D01*
X261260774Y-52527642D02*
X261279821Y-52537166D01*
X259033155Y-52260976D02*
X259033155Y-52060976D01*
X259147440Y-52260976D02*
X259061726Y-52146690D01*
X259147440Y-52060976D02*
X259033155Y-52175261D01*
X259233155Y-52156214D02*
X259299821Y-52156214D01*
X259328393Y-52260976D02*
X259233155Y-52260976D01*
X259233155Y-52260976D02*
X259233155Y-52060976D01*
X259233155Y-52060976D02*
X259328393Y-52060976D01*
X259414107Y-52156214D02*
X259480773Y-52156214D01*
X259509345Y-52260976D02*
X259414107Y-52260976D01*
X259414107Y-52260976D02*
X259414107Y-52060976D01*
X259414107Y-52060976D02*
X259509345Y-52060976D01*
X259595059Y-52260976D02*
X259595059Y-52060976D01*
X259595059Y-52060976D02*
X259671249Y-52060976D01*
X259671249Y-52060976D02*
X259690297Y-52070500D01*
X259690297Y-52070500D02*
X259699820Y-52080023D01*
X259699820Y-52080023D02*
X259709344Y-52099071D01*
X259709344Y-52099071D02*
X259709344Y-52127642D01*
X259709344Y-52127642D02*
X259699820Y-52146690D01*
X259699820Y-52146690D02*
X259690297Y-52156214D01*
X259690297Y-52156214D02*
X259671249Y-52165738D01*
X259671249Y-52165738D02*
X259595059Y-52165738D01*
X259795059Y-52184785D02*
X259947440Y-52184785D01*
X260080773Y-52060976D02*
X260118868Y-52060976D01*
X260118868Y-52060976D02*
X260137916Y-52070500D01*
X260137916Y-52070500D02*
X260156963Y-52089547D01*
X260156963Y-52089547D02*
X260166487Y-52127642D01*
X260166487Y-52127642D02*
X260166487Y-52194309D01*
X260166487Y-52194309D02*
X260156963Y-52232404D01*
X260156963Y-52232404D02*
X260137916Y-52251452D01*
X260137916Y-52251452D02*
X260118868Y-52260976D01*
X260118868Y-52260976D02*
X260080773Y-52260976D01*
X260080773Y-52260976D02*
X260061725Y-52251452D01*
X260061725Y-52251452D02*
X260042678Y-52232404D01*
X260042678Y-52232404D02*
X260033154Y-52194309D01*
X260033154Y-52194309D02*
X260033154Y-52127642D01*
X260033154Y-52127642D02*
X260042678Y-52089547D01*
X260042678Y-52089547D02*
X260061725Y-52070500D01*
X260061725Y-52070500D02*
X260080773Y-52060976D01*
X260252202Y-52060976D02*
X260252202Y-52222880D01*
X260252202Y-52222880D02*
X260261725Y-52241928D01*
X260261725Y-52241928D02*
X260271249Y-52251452D01*
X260271249Y-52251452D02*
X260290297Y-52260976D01*
X260290297Y-52260976D02*
X260328392Y-52260976D01*
X260328392Y-52260976D02*
X260347440Y-52251452D01*
X260347440Y-52251452D02*
X260356963Y-52241928D01*
X260356963Y-52241928D02*
X260366487Y-52222880D01*
X260366487Y-52222880D02*
X260366487Y-52060976D01*
X260433154Y-52060976D02*
X260547440Y-52060976D01*
X260490297Y-52260976D02*
X260490297Y-52060976D01*
X260715059Y-52060976D02*
X260848392Y-52060976D01*
X260848392Y-52060976D02*
X260715059Y-52260976D01*
X260715059Y-52260976D02*
X260848392Y-52260976D01*
X260962678Y-52060976D02*
X261000773Y-52060976D01*
X261000773Y-52060976D02*
X261019821Y-52070500D01*
X261019821Y-52070500D02*
X261038868Y-52089547D01*
X261038868Y-52089547D02*
X261048392Y-52127642D01*
X261048392Y-52127642D02*
X261048392Y-52194309D01*
X261048392Y-52194309D02*
X261038868Y-52232404D01*
X261038868Y-52232404D02*
X261019821Y-52251452D01*
X261019821Y-52251452D02*
X261000773Y-52260976D01*
X261000773Y-52260976D02*
X260962678Y-52260976D01*
X260962678Y-52260976D02*
X260943630Y-52251452D01*
X260943630Y-52251452D02*
X260924583Y-52232404D01*
X260924583Y-52232404D02*
X260915059Y-52194309D01*
X260915059Y-52194309D02*
X260915059Y-52127642D01*
X260915059Y-52127642D02*
X260924583Y-52089547D01*
X260924583Y-52089547D02*
X260943630Y-52070500D01*
X260943630Y-52070500D02*
X260962678Y-52060976D01*
X261134107Y-52260976D02*
X261134107Y-52060976D01*
X261134107Y-52060976D02*
X261248392Y-52260976D01*
X261248392Y-52260976D02*
X261248392Y-52060976D01*
X261343631Y-52156214D02*
X261410297Y-52156214D01*
X261438869Y-52260976D02*
X261343631Y-52260976D01*
X261343631Y-52260976D02*
X261343631Y-52060976D01*
X261343631Y-52060976D02*
X261438869Y-52060976D01*
X264033155Y-52260976D02*
X264033155Y-52060976D01*
X264147440Y-52260976D02*
X264061726Y-52146690D01*
X264147440Y-52060976D02*
X264033155Y-52175261D01*
X264233155Y-52156214D02*
X264299821Y-52156214D01*
X264328393Y-52260976D02*
X264233155Y-52260976D01*
X264233155Y-52260976D02*
X264233155Y-52060976D01*
X264233155Y-52060976D02*
X264328393Y-52060976D01*
X264414107Y-52156214D02*
X264480773Y-52156214D01*
X264509345Y-52260976D02*
X264414107Y-52260976D01*
X264414107Y-52260976D02*
X264414107Y-52060976D01*
X264414107Y-52060976D02*
X264509345Y-52060976D01*
X264595059Y-52260976D02*
X264595059Y-52060976D01*
X264595059Y-52060976D02*
X264671249Y-52060976D01*
X264671249Y-52060976D02*
X264690297Y-52070500D01*
X264690297Y-52070500D02*
X264699820Y-52080023D01*
X264699820Y-52080023D02*
X264709344Y-52099071D01*
X264709344Y-52099071D02*
X264709344Y-52127642D01*
X264709344Y-52127642D02*
X264699820Y-52146690D01*
X264699820Y-52146690D02*
X264690297Y-52156214D01*
X264690297Y-52156214D02*
X264671249Y-52165738D01*
X264671249Y-52165738D02*
X264595059Y-52165738D01*
X264795059Y-52184785D02*
X264947440Y-52184785D01*
X265080773Y-52060976D02*
X265118868Y-52060976D01*
X265118868Y-52060976D02*
X265137916Y-52070500D01*
X265137916Y-52070500D02*
X265156963Y-52089547D01*
X265156963Y-52089547D02*
X265166487Y-52127642D01*
X265166487Y-52127642D02*
X265166487Y-52194309D01*
X265166487Y-52194309D02*
X265156963Y-52232404D01*
X265156963Y-52232404D02*
X265137916Y-52251452D01*
X265137916Y-52251452D02*
X265118868Y-52260976D01*
X265118868Y-52260976D02*
X265080773Y-52260976D01*
X265080773Y-52260976D02*
X265061725Y-52251452D01*
X265061725Y-52251452D02*
X265042678Y-52232404D01*
X265042678Y-52232404D02*
X265033154Y-52194309D01*
X265033154Y-52194309D02*
X265033154Y-52127642D01*
X265033154Y-52127642D02*
X265042678Y-52089547D01*
X265042678Y-52089547D02*
X265061725Y-52070500D01*
X265061725Y-52070500D02*
X265080773Y-52060976D01*
X265252202Y-52060976D02*
X265252202Y-52222880D01*
X265252202Y-52222880D02*
X265261725Y-52241928D01*
X265261725Y-52241928D02*
X265271249Y-52251452D01*
X265271249Y-52251452D02*
X265290297Y-52260976D01*
X265290297Y-52260976D02*
X265328392Y-52260976D01*
X265328392Y-52260976D02*
X265347440Y-52251452D01*
X265347440Y-52251452D02*
X265356963Y-52241928D01*
X265356963Y-52241928D02*
X265366487Y-52222880D01*
X265366487Y-52222880D02*
X265366487Y-52060976D01*
X265433154Y-52060976D02*
X265547440Y-52060976D01*
X265490297Y-52260976D02*
X265490297Y-52060976D01*
X265715059Y-52060976D02*
X265848392Y-52060976D01*
X265848392Y-52060976D02*
X265715059Y-52260976D01*
X265715059Y-52260976D02*
X265848392Y-52260976D01*
X265962678Y-52060976D02*
X266000773Y-52060976D01*
X266000773Y-52060976D02*
X266019821Y-52070500D01*
X266019821Y-52070500D02*
X266038868Y-52089547D01*
X266038868Y-52089547D02*
X266048392Y-52127642D01*
X266048392Y-52127642D02*
X266048392Y-52194309D01*
X266048392Y-52194309D02*
X266038868Y-52232404D01*
X266038868Y-52232404D02*
X266019821Y-52251452D01*
X266019821Y-52251452D02*
X266000773Y-52260976D01*
X266000773Y-52260976D02*
X265962678Y-52260976D01*
X265962678Y-52260976D02*
X265943630Y-52251452D01*
X265943630Y-52251452D02*
X265924583Y-52232404D01*
X265924583Y-52232404D02*
X265915059Y-52194309D01*
X265915059Y-52194309D02*
X265915059Y-52127642D01*
X265915059Y-52127642D02*
X265924583Y-52089547D01*
X265924583Y-52089547D02*
X265943630Y-52070500D01*
X265943630Y-52070500D02*
X265962678Y-52060976D01*
X266134107Y-52260976D02*
X266134107Y-52060976D01*
X266134107Y-52060976D02*
X266248392Y-52260976D01*
X266248392Y-52260976D02*
X266248392Y-52060976D01*
X266343631Y-52156214D02*
X266410297Y-52156214D01*
X266438869Y-52260976D02*
X266343631Y-52260976D01*
X266343631Y-52260976D02*
X266343631Y-52060976D01*
X266343631Y-52060976D02*
X266438869Y-52060976D01*
X264182678Y-52660976D02*
X264182678Y-52460976D01*
X264182678Y-52460976D02*
X264296963Y-52660976D01*
X264296963Y-52660976D02*
X264296963Y-52460976D01*
X264420773Y-52660976D02*
X264401725Y-52651452D01*
X264401725Y-52651452D02*
X264392202Y-52641928D01*
X264392202Y-52641928D02*
X264382678Y-52622880D01*
X264382678Y-52622880D02*
X264382678Y-52565738D01*
X264382678Y-52565738D02*
X264392202Y-52546690D01*
X264392202Y-52546690D02*
X264401725Y-52537166D01*
X264401725Y-52537166D02*
X264420773Y-52527642D01*
X264420773Y-52527642D02*
X264449344Y-52527642D01*
X264449344Y-52527642D02*
X264468392Y-52537166D01*
X264468392Y-52537166D02*
X264477916Y-52546690D01*
X264477916Y-52546690D02*
X264487440Y-52565738D01*
X264487440Y-52565738D02*
X264487440Y-52622880D01*
X264487440Y-52622880D02*
X264477916Y-52641928D01*
X264477916Y-52641928D02*
X264468392Y-52651452D01*
X264468392Y-52651452D02*
X264449344Y-52660976D01*
X264449344Y-52660976D02*
X264420773Y-52660976D01*
X264759820Y-52556214D02*
X264693154Y-52556214D01*
X264693154Y-52660976D02*
X264693154Y-52460976D01*
X264693154Y-52460976D02*
X264788392Y-52460976D01*
X264864583Y-52641928D02*
X264874106Y-52651452D01*
X264874106Y-52651452D02*
X264864583Y-52660976D01*
X264864583Y-52660976D02*
X264855059Y-52651452D01*
X264855059Y-52651452D02*
X264864583Y-52641928D01*
X264864583Y-52641928D02*
X264864583Y-52660976D01*
X265074106Y-52641928D02*
X265064582Y-52651452D01*
X265064582Y-52651452D02*
X265036011Y-52660976D01*
X265036011Y-52660976D02*
X265016963Y-52660976D01*
X265016963Y-52660976D02*
X264988392Y-52651452D01*
X264988392Y-52651452D02*
X264969344Y-52632404D01*
X264969344Y-52632404D02*
X264959821Y-52613357D01*
X264959821Y-52613357D02*
X264950297Y-52575261D01*
X264950297Y-52575261D02*
X264950297Y-52546690D01*
X264950297Y-52546690D02*
X264959821Y-52508595D01*
X264959821Y-52508595D02*
X264969344Y-52489547D01*
X264969344Y-52489547D02*
X264988392Y-52470500D01*
X264988392Y-52470500D02*
X265016963Y-52460976D01*
X265016963Y-52460976D02*
X265036011Y-52460976D01*
X265036011Y-52460976D02*
X265064582Y-52470500D01*
X265064582Y-52470500D02*
X265074106Y-52480023D01*
X265245535Y-52527642D02*
X265245535Y-52660976D01*
X265159821Y-52527642D02*
X265159821Y-52632404D01*
X265159821Y-52632404D02*
X265169344Y-52651452D01*
X265169344Y-52651452D02*
X265188392Y-52660976D01*
X265188392Y-52660976D02*
X265216963Y-52660976D01*
X265216963Y-52660976D02*
X265236011Y-52651452D01*
X265236011Y-52651452D02*
X265245535Y-52641928D01*
X265432201Y-52527642D02*
X265508392Y-52527642D01*
X265460773Y-52460976D02*
X265460773Y-52632404D01*
X265460773Y-52632404D02*
X265470296Y-52651452D01*
X265470296Y-52651452D02*
X265489344Y-52660976D01*
X265489344Y-52660976D02*
X265508392Y-52660976D01*
X265575059Y-52660976D02*
X265575059Y-52527642D01*
X265575059Y-52565738D02*
X265584582Y-52546690D01*
X265584582Y-52546690D02*
X265594106Y-52537166D01*
X265594106Y-52537166D02*
X265613154Y-52527642D01*
X265613154Y-52527642D02*
X265632201Y-52527642D01*
X265784583Y-52660976D02*
X265784583Y-52556214D01*
X265784583Y-52556214D02*
X265775059Y-52537166D01*
X265775059Y-52537166D02*
X265756011Y-52527642D01*
X265756011Y-52527642D02*
X265717916Y-52527642D01*
X265717916Y-52527642D02*
X265698869Y-52537166D01*
X265784583Y-52651452D02*
X265765535Y-52660976D01*
X265765535Y-52660976D02*
X265717916Y-52660976D01*
X265717916Y-52660976D02*
X265698869Y-52651452D01*
X265698869Y-52651452D02*
X265689345Y-52632404D01*
X265689345Y-52632404D02*
X265689345Y-52613357D01*
X265689345Y-52613357D02*
X265698869Y-52594309D01*
X265698869Y-52594309D02*
X265717916Y-52584785D01*
X265717916Y-52584785D02*
X265765535Y-52584785D01*
X265765535Y-52584785D02*
X265784583Y-52575261D01*
X265965535Y-52651452D02*
X265946487Y-52660976D01*
X265946487Y-52660976D02*
X265908392Y-52660976D01*
X265908392Y-52660976D02*
X265889344Y-52651452D01*
X265889344Y-52651452D02*
X265879821Y-52641928D01*
X265879821Y-52641928D02*
X265870297Y-52622880D01*
X265870297Y-52622880D02*
X265870297Y-52565738D01*
X265870297Y-52565738D02*
X265879821Y-52546690D01*
X265879821Y-52546690D02*
X265889344Y-52537166D01*
X265889344Y-52537166D02*
X265908392Y-52527642D01*
X265908392Y-52527642D02*
X265946487Y-52527642D01*
X265946487Y-52527642D02*
X265965535Y-52537166D01*
X266051250Y-52660976D02*
X266051250Y-52460976D01*
X266070297Y-52584785D02*
X266127440Y-52660976D01*
X266127440Y-52527642D02*
X266051250Y-52603833D01*
X266203631Y-52651452D02*
X266222678Y-52660976D01*
X266222678Y-52660976D02*
X266260774Y-52660976D01*
X266260774Y-52660976D02*
X266279821Y-52651452D01*
X266279821Y-52651452D02*
X266289345Y-52632404D01*
X266289345Y-52632404D02*
X266289345Y-52622880D01*
X266289345Y-52622880D02*
X266279821Y-52603833D01*
X266279821Y-52603833D02*
X266260774Y-52594309D01*
X266260774Y-52594309D02*
X266232202Y-52594309D01*
X266232202Y-52594309D02*
X266213155Y-52584785D01*
X266213155Y-52584785D02*
X266203631Y-52565738D01*
X266203631Y-52565738D02*
X266203631Y-52556214D01*
X266203631Y-52556214D02*
X266213155Y-52537166D01*
X266213155Y-52537166D02*
X266232202Y-52527642D01*
X266232202Y-52527642D02*
X266260774Y-52527642D01*
X266260774Y-52527642D02*
X266279821Y-52537166D01*
D11*
%TO.C,H4*%
X58915000Y-85573750D02*
G75*
G03*
X58915000Y-85573750I-2200000J0D01*
G01*
%TO.C,H7*%
X211509500Y-97302500D02*
G75*
G03*
X211509500Y-97302500I-2200000J0D01*
G01*
%TO.C,H6*%
X105562500Y-97024000D02*
G75*
G03*
X105562500Y-97024000I-1900000J0D01*
G01*
%TO.C,H3*%
X239762500Y-48674000D02*
G75*
G03*
X239762500Y-48674000I-2200000J0D01*
G01*
%TO.C,H5*%
X167362500Y-69850000D02*
G75*
G03*
X167362500Y-69850000I-2200000J0D01*
G01*
%TO.C,H1*%
X60512500Y-50800000D02*
G75*
G03*
X60512500Y-50800000I-2200000J0D01*
G01*
%TO.C,H2*%
X136712500Y-50800000D02*
G75*
G03*
X136712500Y-50800000I-2200000J0D01*
G01*
%TD*%
M02*
