%TF.GenerationSoftware,KiCad,Pcbnew,(7.0.0)*%
%TF.CreationDate,2023-10-27T13:48:32+02:00*%
%TF.ProjectId,vootington VAN,766f6f74-696e-4677-946f-6e2056414e2e,rev?*%
%TF.SameCoordinates,Original*%
%TF.FileFunction,Other,Comment*%
%FSLAX46Y46*%
G04 Gerber Fmt 4.6, Leading zero omitted, Abs format (unit mm)*
G04 Created by KiCad (PCBNEW (7.0.0)) date 2023-10-27 13:48:32*
%MOMM*%
%LPD*%
G01*
G04 APERTURE LIST*
%ADD10C,0.030000*%
%ADD11C,0.150000*%
G04 APERTURE END LIST*
D10*
%TO.C,SW1*%
X35992226Y-56729821D02*
X35792226Y-56729821D01*
X35792226Y-56729821D02*
X35992226Y-56615536D01*
X35992226Y-56615536D02*
X35792226Y-56615536D01*
X35992226Y-56491726D02*
X35982702Y-56510774D01*
X35982702Y-56510774D02*
X35973178Y-56520297D01*
X35973178Y-56520297D02*
X35954130Y-56529821D01*
X35954130Y-56529821D02*
X35896988Y-56529821D01*
X35896988Y-56529821D02*
X35877940Y-56520297D01*
X35877940Y-56520297D02*
X35868416Y-56510774D01*
X35868416Y-56510774D02*
X35858892Y-56491726D01*
X35858892Y-56491726D02*
X35858892Y-56463155D01*
X35858892Y-56463155D02*
X35868416Y-56444107D01*
X35868416Y-56444107D02*
X35877940Y-56434583D01*
X35877940Y-56434583D02*
X35896988Y-56425059D01*
X35896988Y-56425059D02*
X35954130Y-56425059D01*
X35954130Y-56425059D02*
X35973178Y-56434583D01*
X35973178Y-56434583D02*
X35982702Y-56444107D01*
X35982702Y-56444107D02*
X35992226Y-56463155D01*
X35992226Y-56463155D02*
X35992226Y-56491726D01*
X35887464Y-56152679D02*
X35887464Y-56219345D01*
X35992226Y-56219345D02*
X35792226Y-56219345D01*
X35792226Y-56219345D02*
X35792226Y-56124107D01*
X35973178Y-56047916D02*
X35982702Y-56038393D01*
X35982702Y-56038393D02*
X35992226Y-56047916D01*
X35992226Y-56047916D02*
X35982702Y-56057440D01*
X35982702Y-56057440D02*
X35973178Y-56047916D01*
X35973178Y-56047916D02*
X35992226Y-56047916D01*
X35973178Y-55838393D02*
X35982702Y-55847917D01*
X35982702Y-55847917D02*
X35992226Y-55876488D01*
X35992226Y-55876488D02*
X35992226Y-55895536D01*
X35992226Y-55895536D02*
X35982702Y-55924107D01*
X35982702Y-55924107D02*
X35963654Y-55943155D01*
X35963654Y-55943155D02*
X35944607Y-55952678D01*
X35944607Y-55952678D02*
X35906511Y-55962202D01*
X35906511Y-55962202D02*
X35877940Y-55962202D01*
X35877940Y-55962202D02*
X35839845Y-55952678D01*
X35839845Y-55952678D02*
X35820797Y-55943155D01*
X35820797Y-55943155D02*
X35801750Y-55924107D01*
X35801750Y-55924107D02*
X35792226Y-55895536D01*
X35792226Y-55895536D02*
X35792226Y-55876488D01*
X35792226Y-55876488D02*
X35801750Y-55847917D01*
X35801750Y-55847917D02*
X35811273Y-55838393D01*
X35858892Y-55666964D02*
X35992226Y-55666964D01*
X35858892Y-55752678D02*
X35963654Y-55752678D01*
X35963654Y-55752678D02*
X35982702Y-55743155D01*
X35982702Y-55743155D02*
X35992226Y-55724107D01*
X35992226Y-55724107D02*
X35992226Y-55695536D01*
X35992226Y-55695536D02*
X35982702Y-55676488D01*
X35982702Y-55676488D02*
X35973178Y-55666964D01*
X35858892Y-55480298D02*
X35858892Y-55404107D01*
X35792226Y-55451726D02*
X35963654Y-55451726D01*
X35963654Y-55451726D02*
X35982702Y-55442203D01*
X35982702Y-55442203D02*
X35992226Y-55423155D01*
X35992226Y-55423155D02*
X35992226Y-55404107D01*
X35992226Y-55337440D02*
X35858892Y-55337440D01*
X35896988Y-55337440D02*
X35877940Y-55327917D01*
X35877940Y-55327917D02*
X35868416Y-55318393D01*
X35868416Y-55318393D02*
X35858892Y-55299345D01*
X35858892Y-55299345D02*
X35858892Y-55280298D01*
X35992226Y-55127916D02*
X35887464Y-55127916D01*
X35887464Y-55127916D02*
X35868416Y-55137440D01*
X35868416Y-55137440D02*
X35858892Y-55156488D01*
X35858892Y-55156488D02*
X35858892Y-55194583D01*
X35858892Y-55194583D02*
X35868416Y-55213630D01*
X35982702Y-55127916D02*
X35992226Y-55146964D01*
X35992226Y-55146964D02*
X35992226Y-55194583D01*
X35992226Y-55194583D02*
X35982702Y-55213630D01*
X35982702Y-55213630D02*
X35963654Y-55223154D01*
X35963654Y-55223154D02*
X35944607Y-55223154D01*
X35944607Y-55223154D02*
X35925559Y-55213630D01*
X35925559Y-55213630D02*
X35916035Y-55194583D01*
X35916035Y-55194583D02*
X35916035Y-55146964D01*
X35916035Y-55146964D02*
X35906511Y-55127916D01*
X35982702Y-54946964D02*
X35992226Y-54966012D01*
X35992226Y-54966012D02*
X35992226Y-55004107D01*
X35992226Y-55004107D02*
X35982702Y-55023155D01*
X35982702Y-55023155D02*
X35973178Y-55032678D01*
X35973178Y-55032678D02*
X35954130Y-55042202D01*
X35954130Y-55042202D02*
X35896988Y-55042202D01*
X35896988Y-55042202D02*
X35877940Y-55032678D01*
X35877940Y-55032678D02*
X35868416Y-55023155D01*
X35868416Y-55023155D02*
X35858892Y-55004107D01*
X35858892Y-55004107D02*
X35858892Y-54966012D01*
X35858892Y-54966012D02*
X35868416Y-54946964D01*
X35992226Y-54861249D02*
X35792226Y-54861249D01*
X35916035Y-54842202D02*
X35992226Y-54785059D01*
X35858892Y-54785059D02*
X35935083Y-54861249D01*
X35982702Y-54708868D02*
X35992226Y-54689821D01*
X35992226Y-54689821D02*
X35992226Y-54651725D01*
X35992226Y-54651725D02*
X35982702Y-54632678D01*
X35982702Y-54632678D02*
X35963654Y-54623154D01*
X35963654Y-54623154D02*
X35954130Y-54623154D01*
X35954130Y-54623154D02*
X35935083Y-54632678D01*
X35935083Y-54632678D02*
X35925559Y-54651725D01*
X35925559Y-54651725D02*
X35925559Y-54680297D01*
X35925559Y-54680297D02*
X35916035Y-54699344D01*
X35916035Y-54699344D02*
X35896988Y-54708868D01*
X35896988Y-54708868D02*
X35887464Y-54708868D01*
X35887464Y-54708868D02*
X35868416Y-54699344D01*
X35868416Y-54699344D02*
X35858892Y-54680297D01*
X35858892Y-54680297D02*
X35858892Y-54651725D01*
X35858892Y-54651725D02*
X35868416Y-54632678D01*
X35592226Y-56879344D02*
X35392226Y-56879344D01*
X35592226Y-56765059D02*
X35477940Y-56850773D01*
X35392226Y-56765059D02*
X35506511Y-56879344D01*
X35487464Y-56679344D02*
X35487464Y-56612678D01*
X35592226Y-56584106D02*
X35592226Y-56679344D01*
X35592226Y-56679344D02*
X35392226Y-56679344D01*
X35392226Y-56679344D02*
X35392226Y-56584106D01*
X35487464Y-56498392D02*
X35487464Y-56431726D01*
X35592226Y-56403154D02*
X35592226Y-56498392D01*
X35592226Y-56498392D02*
X35392226Y-56498392D01*
X35392226Y-56498392D02*
X35392226Y-56403154D01*
X35592226Y-56317440D02*
X35392226Y-56317440D01*
X35392226Y-56317440D02*
X35392226Y-56241250D01*
X35392226Y-56241250D02*
X35401750Y-56222202D01*
X35401750Y-56222202D02*
X35411273Y-56212679D01*
X35411273Y-56212679D02*
X35430321Y-56203155D01*
X35430321Y-56203155D02*
X35458892Y-56203155D01*
X35458892Y-56203155D02*
X35477940Y-56212679D01*
X35477940Y-56212679D02*
X35487464Y-56222202D01*
X35487464Y-56222202D02*
X35496988Y-56241250D01*
X35496988Y-56241250D02*
X35496988Y-56317440D01*
X35516035Y-56117440D02*
X35516035Y-55965060D01*
X35392226Y-55831726D02*
X35392226Y-55793631D01*
X35392226Y-55793631D02*
X35401750Y-55774583D01*
X35401750Y-55774583D02*
X35420797Y-55755536D01*
X35420797Y-55755536D02*
X35458892Y-55746012D01*
X35458892Y-55746012D02*
X35525559Y-55746012D01*
X35525559Y-55746012D02*
X35563654Y-55755536D01*
X35563654Y-55755536D02*
X35582702Y-55774583D01*
X35582702Y-55774583D02*
X35592226Y-55793631D01*
X35592226Y-55793631D02*
X35592226Y-55831726D01*
X35592226Y-55831726D02*
X35582702Y-55850774D01*
X35582702Y-55850774D02*
X35563654Y-55869821D01*
X35563654Y-55869821D02*
X35525559Y-55879345D01*
X35525559Y-55879345D02*
X35458892Y-55879345D01*
X35458892Y-55879345D02*
X35420797Y-55869821D01*
X35420797Y-55869821D02*
X35401750Y-55850774D01*
X35401750Y-55850774D02*
X35392226Y-55831726D01*
X35392226Y-55660297D02*
X35554130Y-55660297D01*
X35554130Y-55660297D02*
X35573178Y-55650774D01*
X35573178Y-55650774D02*
X35582702Y-55641250D01*
X35582702Y-55641250D02*
X35592226Y-55622202D01*
X35592226Y-55622202D02*
X35592226Y-55584107D01*
X35592226Y-55584107D02*
X35582702Y-55565059D01*
X35582702Y-55565059D02*
X35573178Y-55555536D01*
X35573178Y-55555536D02*
X35554130Y-55546012D01*
X35554130Y-55546012D02*
X35392226Y-55546012D01*
X35392226Y-55479345D02*
X35392226Y-55365059D01*
X35592226Y-55422202D02*
X35392226Y-55422202D01*
X35392226Y-55197440D02*
X35392226Y-55064107D01*
X35392226Y-55064107D02*
X35592226Y-55197440D01*
X35592226Y-55197440D02*
X35592226Y-55064107D01*
X35392226Y-54949821D02*
X35392226Y-54911726D01*
X35392226Y-54911726D02*
X35401750Y-54892678D01*
X35401750Y-54892678D02*
X35420797Y-54873631D01*
X35420797Y-54873631D02*
X35458892Y-54864107D01*
X35458892Y-54864107D02*
X35525559Y-54864107D01*
X35525559Y-54864107D02*
X35563654Y-54873631D01*
X35563654Y-54873631D02*
X35582702Y-54892678D01*
X35582702Y-54892678D02*
X35592226Y-54911726D01*
X35592226Y-54911726D02*
X35592226Y-54949821D01*
X35592226Y-54949821D02*
X35582702Y-54968869D01*
X35582702Y-54968869D02*
X35563654Y-54987916D01*
X35563654Y-54987916D02*
X35525559Y-54997440D01*
X35525559Y-54997440D02*
X35458892Y-54997440D01*
X35458892Y-54997440D02*
X35420797Y-54987916D01*
X35420797Y-54987916D02*
X35401750Y-54968869D01*
X35401750Y-54968869D02*
X35392226Y-54949821D01*
X35592226Y-54778392D02*
X35392226Y-54778392D01*
X35392226Y-54778392D02*
X35592226Y-54664107D01*
X35592226Y-54664107D02*
X35392226Y-54664107D01*
X35487464Y-54568868D02*
X35487464Y-54502202D01*
X35592226Y-54473630D02*
X35592226Y-54568868D01*
X35592226Y-54568868D02*
X35392226Y-54568868D01*
X35392226Y-54568868D02*
X35392226Y-54473630D01*
X35592226Y-51879344D02*
X35392226Y-51879344D01*
X35592226Y-51765059D02*
X35477940Y-51850773D01*
X35392226Y-51765059D02*
X35506511Y-51879344D01*
X35487464Y-51679344D02*
X35487464Y-51612678D01*
X35592226Y-51584106D02*
X35592226Y-51679344D01*
X35592226Y-51679344D02*
X35392226Y-51679344D01*
X35392226Y-51679344D02*
X35392226Y-51584106D01*
X35487464Y-51498392D02*
X35487464Y-51431726D01*
X35592226Y-51403154D02*
X35592226Y-51498392D01*
X35592226Y-51498392D02*
X35392226Y-51498392D01*
X35392226Y-51498392D02*
X35392226Y-51403154D01*
X35592226Y-51317440D02*
X35392226Y-51317440D01*
X35392226Y-51317440D02*
X35392226Y-51241250D01*
X35392226Y-51241250D02*
X35401750Y-51222202D01*
X35401750Y-51222202D02*
X35411273Y-51212679D01*
X35411273Y-51212679D02*
X35430321Y-51203155D01*
X35430321Y-51203155D02*
X35458892Y-51203155D01*
X35458892Y-51203155D02*
X35477940Y-51212679D01*
X35477940Y-51212679D02*
X35487464Y-51222202D01*
X35487464Y-51222202D02*
X35496988Y-51241250D01*
X35496988Y-51241250D02*
X35496988Y-51317440D01*
X35516035Y-51117440D02*
X35516035Y-50965060D01*
X35392226Y-50831726D02*
X35392226Y-50793631D01*
X35392226Y-50793631D02*
X35401750Y-50774583D01*
X35401750Y-50774583D02*
X35420797Y-50755536D01*
X35420797Y-50755536D02*
X35458892Y-50746012D01*
X35458892Y-50746012D02*
X35525559Y-50746012D01*
X35525559Y-50746012D02*
X35563654Y-50755536D01*
X35563654Y-50755536D02*
X35582702Y-50774583D01*
X35582702Y-50774583D02*
X35592226Y-50793631D01*
X35592226Y-50793631D02*
X35592226Y-50831726D01*
X35592226Y-50831726D02*
X35582702Y-50850774D01*
X35582702Y-50850774D02*
X35563654Y-50869821D01*
X35563654Y-50869821D02*
X35525559Y-50879345D01*
X35525559Y-50879345D02*
X35458892Y-50879345D01*
X35458892Y-50879345D02*
X35420797Y-50869821D01*
X35420797Y-50869821D02*
X35401750Y-50850774D01*
X35401750Y-50850774D02*
X35392226Y-50831726D01*
X35392226Y-50660297D02*
X35554130Y-50660297D01*
X35554130Y-50660297D02*
X35573178Y-50650774D01*
X35573178Y-50650774D02*
X35582702Y-50641250D01*
X35582702Y-50641250D02*
X35592226Y-50622202D01*
X35592226Y-50622202D02*
X35592226Y-50584107D01*
X35592226Y-50584107D02*
X35582702Y-50565059D01*
X35582702Y-50565059D02*
X35573178Y-50555536D01*
X35573178Y-50555536D02*
X35554130Y-50546012D01*
X35554130Y-50546012D02*
X35392226Y-50546012D01*
X35392226Y-50479345D02*
X35392226Y-50365059D01*
X35592226Y-50422202D02*
X35392226Y-50422202D01*
X35392226Y-50197440D02*
X35392226Y-50064107D01*
X35392226Y-50064107D02*
X35592226Y-50197440D01*
X35592226Y-50197440D02*
X35592226Y-50064107D01*
X35392226Y-49949821D02*
X35392226Y-49911726D01*
X35392226Y-49911726D02*
X35401750Y-49892678D01*
X35401750Y-49892678D02*
X35420797Y-49873631D01*
X35420797Y-49873631D02*
X35458892Y-49864107D01*
X35458892Y-49864107D02*
X35525559Y-49864107D01*
X35525559Y-49864107D02*
X35563654Y-49873631D01*
X35563654Y-49873631D02*
X35582702Y-49892678D01*
X35582702Y-49892678D02*
X35592226Y-49911726D01*
X35592226Y-49911726D02*
X35592226Y-49949821D01*
X35592226Y-49949821D02*
X35582702Y-49968869D01*
X35582702Y-49968869D02*
X35563654Y-49987916D01*
X35563654Y-49987916D02*
X35525559Y-49997440D01*
X35525559Y-49997440D02*
X35458892Y-49997440D01*
X35458892Y-49997440D02*
X35420797Y-49987916D01*
X35420797Y-49987916D02*
X35401750Y-49968869D01*
X35401750Y-49968869D02*
X35392226Y-49949821D01*
X35592226Y-49778392D02*
X35392226Y-49778392D01*
X35392226Y-49778392D02*
X35592226Y-49664107D01*
X35592226Y-49664107D02*
X35392226Y-49664107D01*
X35487464Y-49568868D02*
X35487464Y-49502202D01*
X35592226Y-49473630D02*
X35592226Y-49568868D01*
X35592226Y-49568868D02*
X35392226Y-49568868D01*
X35392226Y-49568868D02*
X35392226Y-49473630D01*
X35992226Y-51729821D02*
X35792226Y-51729821D01*
X35792226Y-51729821D02*
X35992226Y-51615536D01*
X35992226Y-51615536D02*
X35792226Y-51615536D01*
X35992226Y-51491726D02*
X35982702Y-51510774D01*
X35982702Y-51510774D02*
X35973178Y-51520297D01*
X35973178Y-51520297D02*
X35954130Y-51529821D01*
X35954130Y-51529821D02*
X35896988Y-51529821D01*
X35896988Y-51529821D02*
X35877940Y-51520297D01*
X35877940Y-51520297D02*
X35868416Y-51510774D01*
X35868416Y-51510774D02*
X35858892Y-51491726D01*
X35858892Y-51491726D02*
X35858892Y-51463155D01*
X35858892Y-51463155D02*
X35868416Y-51444107D01*
X35868416Y-51444107D02*
X35877940Y-51434583D01*
X35877940Y-51434583D02*
X35896988Y-51425059D01*
X35896988Y-51425059D02*
X35954130Y-51425059D01*
X35954130Y-51425059D02*
X35973178Y-51434583D01*
X35973178Y-51434583D02*
X35982702Y-51444107D01*
X35982702Y-51444107D02*
X35992226Y-51463155D01*
X35992226Y-51463155D02*
X35992226Y-51491726D01*
X35887464Y-51152679D02*
X35887464Y-51219345D01*
X35992226Y-51219345D02*
X35792226Y-51219345D01*
X35792226Y-51219345D02*
X35792226Y-51124107D01*
X35973178Y-51047916D02*
X35982702Y-51038393D01*
X35982702Y-51038393D02*
X35992226Y-51047916D01*
X35992226Y-51047916D02*
X35982702Y-51057440D01*
X35982702Y-51057440D02*
X35973178Y-51047916D01*
X35973178Y-51047916D02*
X35992226Y-51047916D01*
X35973178Y-50838393D02*
X35982702Y-50847917D01*
X35982702Y-50847917D02*
X35992226Y-50876488D01*
X35992226Y-50876488D02*
X35992226Y-50895536D01*
X35992226Y-50895536D02*
X35982702Y-50924107D01*
X35982702Y-50924107D02*
X35963654Y-50943155D01*
X35963654Y-50943155D02*
X35944607Y-50952678D01*
X35944607Y-50952678D02*
X35906511Y-50962202D01*
X35906511Y-50962202D02*
X35877940Y-50962202D01*
X35877940Y-50962202D02*
X35839845Y-50952678D01*
X35839845Y-50952678D02*
X35820797Y-50943155D01*
X35820797Y-50943155D02*
X35801750Y-50924107D01*
X35801750Y-50924107D02*
X35792226Y-50895536D01*
X35792226Y-50895536D02*
X35792226Y-50876488D01*
X35792226Y-50876488D02*
X35801750Y-50847917D01*
X35801750Y-50847917D02*
X35811273Y-50838393D01*
X35858892Y-50666964D02*
X35992226Y-50666964D01*
X35858892Y-50752678D02*
X35963654Y-50752678D01*
X35963654Y-50752678D02*
X35982702Y-50743155D01*
X35982702Y-50743155D02*
X35992226Y-50724107D01*
X35992226Y-50724107D02*
X35992226Y-50695536D01*
X35992226Y-50695536D02*
X35982702Y-50676488D01*
X35982702Y-50676488D02*
X35973178Y-50666964D01*
X35858892Y-50480298D02*
X35858892Y-50404107D01*
X35792226Y-50451726D02*
X35963654Y-50451726D01*
X35963654Y-50451726D02*
X35982702Y-50442203D01*
X35982702Y-50442203D02*
X35992226Y-50423155D01*
X35992226Y-50423155D02*
X35992226Y-50404107D01*
X35992226Y-50337440D02*
X35858892Y-50337440D01*
X35896988Y-50337440D02*
X35877940Y-50327917D01*
X35877940Y-50327917D02*
X35868416Y-50318393D01*
X35868416Y-50318393D02*
X35858892Y-50299345D01*
X35858892Y-50299345D02*
X35858892Y-50280298D01*
X35992226Y-50127916D02*
X35887464Y-50127916D01*
X35887464Y-50127916D02*
X35868416Y-50137440D01*
X35868416Y-50137440D02*
X35858892Y-50156488D01*
X35858892Y-50156488D02*
X35858892Y-50194583D01*
X35858892Y-50194583D02*
X35868416Y-50213630D01*
X35982702Y-50127916D02*
X35992226Y-50146964D01*
X35992226Y-50146964D02*
X35992226Y-50194583D01*
X35992226Y-50194583D02*
X35982702Y-50213630D01*
X35982702Y-50213630D02*
X35963654Y-50223154D01*
X35963654Y-50223154D02*
X35944607Y-50223154D01*
X35944607Y-50223154D02*
X35925559Y-50213630D01*
X35925559Y-50213630D02*
X35916035Y-50194583D01*
X35916035Y-50194583D02*
X35916035Y-50146964D01*
X35916035Y-50146964D02*
X35906511Y-50127916D01*
X35982702Y-49946964D02*
X35992226Y-49966012D01*
X35992226Y-49966012D02*
X35992226Y-50004107D01*
X35992226Y-50004107D02*
X35982702Y-50023155D01*
X35982702Y-50023155D02*
X35973178Y-50032678D01*
X35973178Y-50032678D02*
X35954130Y-50042202D01*
X35954130Y-50042202D02*
X35896988Y-50042202D01*
X35896988Y-50042202D02*
X35877940Y-50032678D01*
X35877940Y-50032678D02*
X35868416Y-50023155D01*
X35868416Y-50023155D02*
X35858892Y-50004107D01*
X35858892Y-50004107D02*
X35858892Y-49966012D01*
X35858892Y-49966012D02*
X35868416Y-49946964D01*
X35992226Y-49861249D02*
X35792226Y-49861249D01*
X35916035Y-49842202D02*
X35992226Y-49785059D01*
X35858892Y-49785059D02*
X35935083Y-49861249D01*
X35982702Y-49708868D02*
X35992226Y-49689821D01*
X35992226Y-49689821D02*
X35992226Y-49651725D01*
X35992226Y-49651725D02*
X35982702Y-49632678D01*
X35982702Y-49632678D02*
X35963654Y-49623154D01*
X35963654Y-49623154D02*
X35954130Y-49623154D01*
X35954130Y-49623154D02*
X35935083Y-49632678D01*
X35935083Y-49632678D02*
X35925559Y-49651725D01*
X35925559Y-49651725D02*
X35925559Y-49680297D01*
X35925559Y-49680297D02*
X35916035Y-49699344D01*
X35916035Y-49699344D02*
X35896988Y-49708868D01*
X35896988Y-49708868D02*
X35887464Y-49708868D01*
X35887464Y-49708868D02*
X35868416Y-49699344D01*
X35868416Y-49699344D02*
X35858892Y-49680297D01*
X35858892Y-49680297D02*
X35858892Y-49651725D01*
X35858892Y-49651725D02*
X35868416Y-49632678D01*
D11*
%TO.C,H4*%
X167362500Y-69850000D02*
G75*
G03*
X167362500Y-69850000I-2200000J0D01*
G01*
%TO.C,H7*%
X211209500Y-97302500D02*
G75*
G03*
X211209500Y-97302500I-1900000J0D01*
G01*
%TO.C,H6*%
X105862500Y-97024000D02*
G75*
G03*
X105862500Y-97024000I-2200000J0D01*
G01*
%TO.C,H3*%
X239762500Y-48674000D02*
G75*
G03*
X239762500Y-48674000I-2200000J0D01*
G01*
%TO.C,H5*%
X58915000Y-85573750D02*
G75*
G03*
X58915000Y-85573750I-2200000J0D01*
G01*
%TO.C,H1*%
X60512500Y-50800000D02*
G75*
G03*
X60512500Y-50800000I-2200000J0D01*
G01*
%TO.C,H2*%
X136712500Y-50800000D02*
G75*
G03*
X136712500Y-50800000I-2200000J0D01*
G01*
%TD*%
M02*
