%TF.GenerationSoftware,KiCad,Pcbnew,(7.0.0)*%
%TF.CreationDate,2023-10-27T13:48:32+02:00*%
%TF.ProjectId,vootington VAN,766f6f74-696e-4677-946f-6e2056414e2e,rev?*%
%TF.SameCoordinates,Original*%
%TF.FileFunction,Profile,NP*%
%FSLAX46Y46*%
G04 Gerber Fmt 4.6, Leading zero omitted, Abs format (unit mm)*
G04 Created by KiCad (PCBNEW (7.0.0)) date 2023-10-27 13:48:32*
%MOMM*%
%LPD*%
G01*
G04 APERTURE LIST*
%TA.AperFunction,Profile*%
%ADD10C,0.200000*%
%TD*%
%TA.AperFunction,Profile*%
%ADD11C,0.100000*%
%TD*%
G04 APERTURE END LIST*
D10*
X26987500Y-106362500D02*
G75*
G03*
X28575000Y-107950000I1587500J0D01*
G01*
X268287500Y-107950000D02*
G75*
G03*
X269875000Y-106362500I0J1587500D01*
G01*
X269875000Y-33337500D02*
G75*
G03*
X268287500Y-31750000I-1587500J0D01*
G01*
X268287500Y-107950000D02*
X28575000Y-107950000D01*
X28575000Y-31750000D02*
X268287500Y-31750000D01*
X28575000Y-31750000D02*
G75*
G03*
X26987500Y-33337500I0J-1587500D01*
G01*
X269875000Y-33337500D02*
X269875000Y-106362500D01*
X26987500Y-106362500D02*
X26987500Y-33337500D01*
D11*
%TO.C,D38*%
X152962750Y-103325548D02*
X152962750Y-104914453D01*
X152165593Y-105819999D02*
X150759909Y-105819999D01*
X150759909Y-102420001D02*
X152165593Y-102420001D01*
X149962751Y-104914452D02*
X149962751Y-103325548D01*
X152962750Y-104914453D02*
G75*
G03*
X153031049Y-105166711I500009J3D01*
G01*
X152382472Y-105869483D02*
G75*
G03*
X153031048Y-105166711I216878J450513D01*
G01*
X153031050Y-103073289D02*
G75*
G03*
X152962751Y-103325547I431710J-252261D01*
G01*
X153031051Y-103073289D02*
G75*
G03*
X152382471Y-102370516I-431711J252249D01*
G01*
X152165593Y-102419999D02*
G75*
G03*
X152382471Y-102370515I-43J500199D01*
G01*
X152382478Y-105869470D02*
G75*
G03*
X152165594Y-105819999I-216828J-450430D01*
G01*
X150543039Y-102370500D02*
G75*
G03*
X150759908Y-102420001I216911J450500D01*
G01*
X149894486Y-105166731D02*
G75*
G03*
X150543032Y-105869483I431664J-252269D01*
G01*
X150759909Y-105820009D02*
G75*
G03*
X150543031Y-105869484I-159J-499391D01*
G01*
X149894452Y-105166711D02*
G75*
G03*
X149962751Y-104914452I-431712J252261D01*
G01*
X150543029Y-102370520D02*
G75*
G03*
X149894454Y-103073289I-216879J-450510D01*
G01*
X149962758Y-103325548D02*
G75*
G03*
X149894452Y-103073290I-499408J148D01*
G01*
%TO.C,D42*%
X37193751Y-104231843D02*
X37193751Y-102826159D01*
X38099298Y-102029001D02*
X39688202Y-102029001D01*
X39688202Y-105029000D02*
X38099297Y-105029000D01*
X40593749Y-102826159D02*
X40593749Y-104231843D01*
X37193750Y-102826159D02*
G75*
G03*
X37144265Y-102609281I-499989J2D01*
G01*
X37847039Y-101960702D02*
G75*
G03*
X37144267Y-102609282I-252259J-431700D01*
G01*
X37144266Y-104448721D02*
G75*
G03*
X37193751Y-104231844I-450505J216876D01*
G01*
X37144266Y-104448721D02*
G75*
G03*
X37847039Y-105097299I450514J-216878D01*
G01*
X38099297Y-105029000D02*
G75*
G03*
X37847039Y-105097299I3J-500009D01*
G01*
X37847039Y-101960702D02*
G75*
G03*
X38099298Y-102029001I252261J431710D01*
G01*
X39940461Y-105097300D02*
G75*
G03*
X39688203Y-105029001I-252261J-431710D01*
G01*
X39688202Y-102029000D02*
G75*
G03*
X39940460Y-101960702I-2J500010D01*
G01*
X40643230Y-102609279D02*
G75*
G03*
X39940461Y-101960704I-450510J216879D01*
G01*
X40643234Y-102609281D02*
G75*
G03*
X40593749Y-102826158I450866J-216959D01*
G01*
X39940461Y-105097300D02*
G75*
G03*
X40643234Y-104448721I252259J431700D01*
G01*
X40593737Y-104231843D02*
G75*
G03*
X40643234Y-104448721I500513J143D01*
G01*
%TO.C,D6*%
X114412499Y-45676157D02*
X114412499Y-47081841D01*
X113506952Y-47878999D02*
X111918048Y-47878999D01*
X111918048Y-44879000D02*
X113506953Y-44879000D01*
X111012501Y-47081841D02*
X111012501Y-45676157D01*
X114412500Y-47081841D02*
G75*
G03*
X114461985Y-47298719I499989J-2D01*
G01*
X113759211Y-47947298D02*
G75*
G03*
X114461983Y-47298718I252259J431700D01*
G01*
X114461984Y-45459279D02*
G75*
G03*
X114412499Y-45676156I450505J-216876D01*
G01*
X114461984Y-45459279D02*
G75*
G03*
X113759211Y-44810701I-450514J216878D01*
G01*
X113506953Y-44879000D02*
G75*
G03*
X113759211Y-44810701I-3J500009D01*
G01*
X113759211Y-47947298D02*
G75*
G03*
X113506952Y-47878999I-252261J-431710D01*
G01*
X111665789Y-44810700D02*
G75*
G03*
X111918047Y-44878999I252261J431710D01*
G01*
X111918048Y-47879000D02*
G75*
G03*
X111665790Y-47947298I2J-500010D01*
G01*
X110963020Y-47298721D02*
G75*
G03*
X111665789Y-47947296I450510J-216879D01*
G01*
X110963016Y-47298719D02*
G75*
G03*
X111012501Y-47081842I-450866J216959D01*
G01*
X111665789Y-44810700D02*
G75*
G03*
X110963016Y-45459279I-252259J-431700D01*
G01*
X111012513Y-45676157D02*
G75*
G03*
X110963016Y-45459279I-500513J-143D01*
G01*
%TO.C,D32*%
X42974999Y-83776157D02*
X42974999Y-85181841D01*
X42069452Y-85978999D02*
X40480548Y-85978999D01*
X40480548Y-82979000D02*
X42069453Y-82979000D01*
X39575001Y-85181841D02*
X39575001Y-83776157D01*
X42975000Y-85181841D02*
G75*
G03*
X43024485Y-85398719I499989J-2D01*
G01*
X42321711Y-86047298D02*
G75*
G03*
X43024483Y-85398718I252259J431700D01*
G01*
X43024484Y-83559279D02*
G75*
G03*
X42974999Y-83776156I450505J-216876D01*
G01*
X43024484Y-83559279D02*
G75*
G03*
X42321711Y-82910701I-450514J216878D01*
G01*
X42069453Y-82979000D02*
G75*
G03*
X42321711Y-82910701I-3J500009D01*
G01*
X42321711Y-86047298D02*
G75*
G03*
X42069452Y-85978999I-252261J-431710D01*
G01*
X40228289Y-82910700D02*
G75*
G03*
X40480547Y-82978999I252261J431710D01*
G01*
X40480548Y-85979000D02*
G75*
G03*
X40228290Y-86047298I2J-500010D01*
G01*
X39525520Y-85398721D02*
G75*
G03*
X40228289Y-86047296I450510J-216879D01*
G01*
X39525516Y-85398719D02*
G75*
G03*
X39575001Y-85181842I-450866J216959D01*
G01*
X40228289Y-82910700D02*
G75*
G03*
X39525516Y-83559279I-252259J-431700D01*
G01*
X39575013Y-83776157D02*
G75*
G03*
X39525516Y-83559279I-500513J-143D01*
G01*
%TO.C,D29*%
X219187499Y-83776157D02*
X219187499Y-85181841D01*
X218281952Y-85978999D02*
X216693048Y-85978999D01*
X216693048Y-82979000D02*
X218281953Y-82979000D01*
X215787501Y-85181841D02*
X215787501Y-83776157D01*
X219187500Y-85181841D02*
G75*
G03*
X219236985Y-85398719I499989J-2D01*
G01*
X218534211Y-86047298D02*
G75*
G03*
X219236983Y-85398718I252259J431700D01*
G01*
X219236984Y-83559279D02*
G75*
G03*
X219187499Y-83776156I450505J-216876D01*
G01*
X219236984Y-83559279D02*
G75*
G03*
X218534211Y-82910701I-450514J216878D01*
G01*
X218281953Y-82979000D02*
G75*
G03*
X218534211Y-82910701I-3J500009D01*
G01*
X218534211Y-86047298D02*
G75*
G03*
X218281952Y-85978999I-252261J-431710D01*
G01*
X216440789Y-82910700D02*
G75*
G03*
X216693047Y-82978999I252261J431710D01*
G01*
X216693048Y-85979000D02*
G75*
G03*
X216440790Y-86047298I2J-500010D01*
G01*
X215738020Y-85398721D02*
G75*
G03*
X216440789Y-86047296I450510J-216879D01*
G01*
X215738016Y-85398719D02*
G75*
G03*
X215787501Y-85181842I-450866J216959D01*
G01*
X216440789Y-82910700D02*
G75*
G03*
X215738016Y-83559279I-252259J-431700D01*
G01*
X215787513Y-83776157D02*
G75*
G03*
X215738016Y-83559279I-500513J-143D01*
G01*
%TO.C,D45*%
X258650001Y-104231843D02*
X258650001Y-102826159D01*
X259555548Y-102029001D02*
X261144452Y-102029001D01*
X261144452Y-105029000D02*
X259555547Y-105029000D01*
X262049999Y-102826159D02*
X262049999Y-104231843D01*
X258650000Y-102826159D02*
G75*
G03*
X258600515Y-102609281I-499989J2D01*
G01*
X259303289Y-101960702D02*
G75*
G03*
X258600517Y-102609282I-252259J-431700D01*
G01*
X258600516Y-104448721D02*
G75*
G03*
X258650001Y-104231844I-450505J216876D01*
G01*
X258600516Y-104448721D02*
G75*
G03*
X259303289Y-105097299I450514J-216878D01*
G01*
X259555547Y-105029000D02*
G75*
G03*
X259303289Y-105097299I3J-500009D01*
G01*
X259303289Y-101960702D02*
G75*
G03*
X259555548Y-102029001I252261J431710D01*
G01*
X261396711Y-105097300D02*
G75*
G03*
X261144453Y-105029001I-252261J-431710D01*
G01*
X261144452Y-102029000D02*
G75*
G03*
X261396710Y-101960702I-2J500010D01*
G01*
X262099480Y-102609279D02*
G75*
G03*
X261396711Y-101960704I-450510J216879D01*
G01*
X262099484Y-102609281D02*
G75*
G03*
X262049999Y-102826158I450866J-216959D01*
G01*
X261396711Y-105097300D02*
G75*
G03*
X262099484Y-104448721I252259J431700D01*
G01*
X262049987Y-104231843D02*
G75*
G03*
X262099484Y-104448721I500513J143D01*
G01*
%TO.C,D10*%
X190612499Y-45676157D02*
X190612499Y-47081841D01*
X189706952Y-47878999D02*
X188118048Y-47878999D01*
X188118048Y-44879000D02*
X189706953Y-44879000D01*
X187212501Y-47081841D02*
X187212501Y-45676157D01*
X190612500Y-47081841D02*
G75*
G03*
X190661985Y-47298719I499989J-2D01*
G01*
X189959211Y-47947298D02*
G75*
G03*
X190661983Y-47298718I252259J431700D01*
G01*
X190661984Y-45459279D02*
G75*
G03*
X190612499Y-45676156I450505J-216876D01*
G01*
X190661984Y-45459279D02*
G75*
G03*
X189959211Y-44810701I-450514J216878D01*
G01*
X189706953Y-44879000D02*
G75*
G03*
X189959211Y-44810701I-3J500009D01*
G01*
X189959211Y-47947298D02*
G75*
G03*
X189706952Y-47878999I-252261J-431710D01*
G01*
X187865789Y-44810700D02*
G75*
G03*
X188118047Y-44878999I252261J431710D01*
G01*
X188118048Y-47879000D02*
G75*
G03*
X187865790Y-47947298I2J-500010D01*
G01*
X187163020Y-47298721D02*
G75*
G03*
X187865789Y-47947296I450510J-216879D01*
G01*
X187163016Y-47298719D02*
G75*
G03*
X187212501Y-47081842I-450866J216959D01*
G01*
X187865789Y-44810700D02*
G75*
G03*
X187163016Y-45459279I-252259J-431700D01*
G01*
X187212513Y-45676157D02*
G75*
G03*
X187163016Y-45459279I-500513J-143D01*
G01*
%TO.C,D40*%
X80056251Y-104231843D02*
X80056251Y-102826159D01*
X80961798Y-102029001D02*
X82550702Y-102029001D01*
X82550702Y-105029000D02*
X80961797Y-105029000D01*
X83456249Y-102826159D02*
X83456249Y-104231843D01*
X80056250Y-102826159D02*
G75*
G03*
X80006765Y-102609281I-499989J2D01*
G01*
X80709539Y-101960702D02*
G75*
G03*
X80006767Y-102609282I-252259J-431700D01*
G01*
X80006766Y-104448721D02*
G75*
G03*
X80056251Y-104231844I-450505J216876D01*
G01*
X80006766Y-104448721D02*
G75*
G03*
X80709539Y-105097299I450514J-216878D01*
G01*
X80961797Y-105029000D02*
G75*
G03*
X80709539Y-105097299I3J-500009D01*
G01*
X80709539Y-101960702D02*
G75*
G03*
X80961798Y-102029001I252261J431710D01*
G01*
X82802961Y-105097300D02*
G75*
G03*
X82550703Y-105029001I-252261J-431710D01*
G01*
X82550702Y-102029000D02*
G75*
G03*
X82802960Y-101960702I-2J500010D01*
G01*
X83505730Y-102609279D02*
G75*
G03*
X82802961Y-101960704I-450510J216879D01*
G01*
X83505734Y-102609281D02*
G75*
G03*
X83456249Y-102826158I450866J-216959D01*
G01*
X82802961Y-105097300D02*
G75*
G03*
X83505734Y-104448721I252259J431700D01*
G01*
X83456237Y-104231843D02*
G75*
G03*
X83505734Y-104448721I500513J143D01*
G01*
%TO.C,D18*%
X58625001Y-66131843D02*
X58625001Y-64726159D01*
X59530548Y-63929001D02*
X61119452Y-63929001D01*
X61119452Y-66929000D02*
X59530547Y-66929000D01*
X62024999Y-64726159D02*
X62024999Y-66131843D01*
X58625000Y-64726159D02*
G75*
G03*
X58575515Y-64509281I-499989J2D01*
G01*
X59278289Y-63860702D02*
G75*
G03*
X58575517Y-64509282I-252259J-431700D01*
G01*
X58575516Y-66348721D02*
G75*
G03*
X58625001Y-66131844I-450505J216876D01*
G01*
X58575516Y-66348721D02*
G75*
G03*
X59278289Y-66997299I450514J-216878D01*
G01*
X59530547Y-66929000D02*
G75*
G03*
X59278289Y-66997299I3J-500009D01*
G01*
X59278289Y-63860702D02*
G75*
G03*
X59530548Y-63929001I252261J431710D01*
G01*
X61371711Y-66997300D02*
G75*
G03*
X61119453Y-66929001I-252261J-431710D01*
G01*
X61119452Y-63929000D02*
G75*
G03*
X61371710Y-63860702I-2J500010D01*
G01*
X62074480Y-64509279D02*
G75*
G03*
X61371711Y-63860704I-450510J216879D01*
G01*
X62074484Y-64509281D02*
G75*
G03*
X62024999Y-64726158I450866J-216959D01*
G01*
X61371711Y-66997300D02*
G75*
G03*
X62074484Y-66348721I252259J431700D01*
G01*
X62024987Y-66131843D02*
G75*
G03*
X62074484Y-66348721I500513J143D01*
G01*
%TO.C,D16*%
X96725001Y-66131843D02*
X96725001Y-64726159D01*
X97630548Y-63929001D02*
X99219452Y-63929001D01*
X99219452Y-66929000D02*
X97630547Y-66929000D01*
X100124999Y-64726159D02*
X100124999Y-66131843D01*
X96725000Y-64726159D02*
G75*
G03*
X96675515Y-64509281I-499989J2D01*
G01*
X97378289Y-63860702D02*
G75*
G03*
X96675517Y-64509282I-252259J-431700D01*
G01*
X96675516Y-66348721D02*
G75*
G03*
X96725001Y-66131844I-450505J216876D01*
G01*
X96675516Y-66348721D02*
G75*
G03*
X97378289Y-66997299I450514J-216878D01*
G01*
X97630547Y-66929000D02*
G75*
G03*
X97378289Y-66997299I3J-500009D01*
G01*
X97378289Y-63860702D02*
G75*
G03*
X97630548Y-63929001I252261J431710D01*
G01*
X99471711Y-66997300D02*
G75*
G03*
X99219453Y-66929001I-252261J-431710D01*
G01*
X99219452Y-63929000D02*
G75*
G03*
X99471710Y-63860702I-2J500010D01*
G01*
X100174480Y-64509279D02*
G75*
G03*
X99471711Y-63860704I-450510J216879D01*
G01*
X100174484Y-64509281D02*
G75*
G03*
X100124999Y-64726158I450866J-216959D01*
G01*
X99471711Y-66997300D02*
G75*
G03*
X100174484Y-66348721I252259J431700D01*
G01*
X100124987Y-66131843D02*
G75*
G03*
X100174484Y-66348721I500513J143D01*
G01*
%TO.C,D4*%
X76312499Y-45676157D02*
X76312499Y-47081841D01*
X75406952Y-47878999D02*
X73818048Y-47878999D01*
X73818048Y-44879000D02*
X75406953Y-44879000D01*
X72912501Y-47081841D02*
X72912501Y-45676157D01*
X76312500Y-47081841D02*
G75*
G03*
X76361985Y-47298719I499989J-2D01*
G01*
X75659211Y-47947298D02*
G75*
G03*
X76361983Y-47298718I252259J431700D01*
G01*
X76361984Y-45459279D02*
G75*
G03*
X76312499Y-45676156I450505J-216876D01*
G01*
X76361984Y-45459279D02*
G75*
G03*
X75659211Y-44810701I-450514J216878D01*
G01*
X75406953Y-44879000D02*
G75*
G03*
X75659211Y-44810701I-3J500009D01*
G01*
X75659211Y-47947298D02*
G75*
G03*
X75406952Y-47878999I-252261J-431710D01*
G01*
X73565789Y-44810700D02*
G75*
G03*
X73818047Y-44878999I252261J431710D01*
G01*
X73818048Y-47879000D02*
G75*
G03*
X73565790Y-47947298I2J-500010D01*
G01*
X72863020Y-47298721D02*
G75*
G03*
X73565789Y-47947296I450510J-216879D01*
G01*
X72863016Y-47298719D02*
G75*
G03*
X72912501Y-47081842I-450866J216959D01*
G01*
X73565789Y-44810700D02*
G75*
G03*
X72863016Y-45459279I-252259J-431700D01*
G01*
X72912513Y-45676157D02*
G75*
G03*
X72863016Y-45459279I-500513J-143D01*
G01*
%TO.C,D15*%
X115775001Y-66131843D02*
X115775001Y-64726159D01*
X116680548Y-63929001D02*
X118269452Y-63929001D01*
X118269452Y-66929000D02*
X116680547Y-66929000D01*
X119174999Y-64726159D02*
X119174999Y-66131843D01*
X115775000Y-64726159D02*
G75*
G03*
X115725515Y-64509281I-499989J2D01*
G01*
X116428289Y-63860702D02*
G75*
G03*
X115725517Y-64509282I-252259J-431700D01*
G01*
X115725516Y-66348721D02*
G75*
G03*
X115775001Y-66131844I-450505J216876D01*
G01*
X115725516Y-66348721D02*
G75*
G03*
X116428289Y-66997299I450514J-216878D01*
G01*
X116680547Y-66929000D02*
G75*
G03*
X116428289Y-66997299I3J-500009D01*
G01*
X116428289Y-63860702D02*
G75*
G03*
X116680548Y-63929001I252261J431710D01*
G01*
X118521711Y-66997300D02*
G75*
G03*
X118269453Y-66929001I-252261J-431710D01*
G01*
X118269452Y-63929000D02*
G75*
G03*
X118521710Y-63860702I-2J500010D01*
G01*
X119224480Y-64509279D02*
G75*
G03*
X118521711Y-63860704I-450510J216879D01*
G01*
X119224484Y-64509281D02*
G75*
G03*
X119174999Y-64726158I450866J-216959D01*
G01*
X118521711Y-66997300D02*
G75*
G03*
X119224484Y-66348721I252259J431700D01*
G01*
X119174987Y-66131843D02*
G75*
G03*
X119224484Y-66348721I500513J143D01*
G01*
%TO.C,D22*%
X211025001Y-66131843D02*
X211025001Y-64726159D01*
X211930548Y-63929001D02*
X213519452Y-63929001D01*
X213519452Y-66929000D02*
X211930547Y-66929000D01*
X214424999Y-64726159D02*
X214424999Y-66131843D01*
X211025000Y-64726159D02*
G75*
G03*
X210975515Y-64509281I-499989J2D01*
G01*
X211678289Y-63860702D02*
G75*
G03*
X210975517Y-64509282I-252259J-431700D01*
G01*
X210975516Y-66348721D02*
G75*
G03*
X211025001Y-66131844I-450505J216876D01*
G01*
X210975516Y-66348721D02*
G75*
G03*
X211678289Y-66997299I450514J-216878D01*
G01*
X211930547Y-66929000D02*
G75*
G03*
X211678289Y-66997299I3J-500009D01*
G01*
X211678289Y-63860702D02*
G75*
G03*
X211930548Y-63929001I252261J431710D01*
G01*
X213771711Y-66997300D02*
G75*
G03*
X213519453Y-66929001I-252261J-431710D01*
G01*
X213519452Y-63929000D02*
G75*
G03*
X213771710Y-63860702I-2J500010D01*
G01*
X214474480Y-64509279D02*
G75*
G03*
X213771711Y-63860704I-450510J216879D01*
G01*
X214474484Y-64509281D02*
G75*
G03*
X214424999Y-64726158I450866J-216959D01*
G01*
X213771711Y-66997300D02*
G75*
G03*
X214474484Y-66348721I252259J431700D01*
G01*
X214424987Y-66131843D02*
G75*
G03*
X214474484Y-66348721I500513J143D01*
G01*
%TO.C,D31*%
X259668749Y-74251157D02*
X259668749Y-75656841D01*
X258763202Y-76453999D02*
X257174298Y-76453999D01*
X257174298Y-73454000D02*
X258763203Y-73454000D01*
X256268751Y-75656841D02*
X256268751Y-74251157D01*
X259668750Y-75656841D02*
G75*
G03*
X259718235Y-75873719I499989J-2D01*
G01*
X259015461Y-76522298D02*
G75*
G03*
X259718233Y-75873718I252259J431700D01*
G01*
X259718234Y-74034279D02*
G75*
G03*
X259668749Y-74251156I450505J-216876D01*
G01*
X259718234Y-74034279D02*
G75*
G03*
X259015461Y-73385701I-450514J216878D01*
G01*
X258763203Y-73454000D02*
G75*
G03*
X259015461Y-73385701I-3J500009D01*
G01*
X259015461Y-76522298D02*
G75*
G03*
X258763202Y-76453999I-252261J-431710D01*
G01*
X256922039Y-73385700D02*
G75*
G03*
X257174297Y-73453999I252261J431710D01*
G01*
X257174298Y-76454000D02*
G75*
G03*
X256922040Y-76522298I2J-500010D01*
G01*
X256219270Y-75873721D02*
G75*
G03*
X256922039Y-76522296I450510J-216879D01*
G01*
X256219266Y-75873719D02*
G75*
G03*
X256268751Y-75656842I-450866J216959D01*
G01*
X256922039Y-73385700D02*
G75*
G03*
X256219266Y-74034279I-252259J-431700D01*
G01*
X256268763Y-74251157D02*
G75*
G03*
X256219266Y-74034279I-500513J-143D01*
G01*
%TO.C,D2*%
X38212499Y-45676157D02*
X38212499Y-47081841D01*
X37306952Y-47878999D02*
X35718048Y-47878999D01*
X35718048Y-44879000D02*
X37306953Y-44879000D01*
X34812501Y-47081841D02*
X34812501Y-45676157D01*
X38212500Y-47081841D02*
G75*
G03*
X38261985Y-47298719I499989J-2D01*
G01*
X37559211Y-47947298D02*
G75*
G03*
X38261983Y-47298718I252259J431700D01*
G01*
X38261984Y-45459279D02*
G75*
G03*
X38212499Y-45676156I450505J-216876D01*
G01*
X38261984Y-45459279D02*
G75*
G03*
X37559211Y-44810701I-450514J216878D01*
G01*
X37306953Y-44879000D02*
G75*
G03*
X37559211Y-44810701I-3J500009D01*
G01*
X37559211Y-47947298D02*
G75*
G03*
X37306952Y-47878999I-252261J-431710D01*
G01*
X35465789Y-44810700D02*
G75*
G03*
X35718047Y-44878999I252261J431710D01*
G01*
X35718048Y-47879000D02*
G75*
G03*
X35465790Y-47947298I2J-500010D01*
G01*
X34763020Y-47298721D02*
G75*
G03*
X35465789Y-47947296I450510J-216879D01*
G01*
X34763016Y-47298719D02*
G75*
G03*
X34812501Y-47081842I-450866J216959D01*
G01*
X35465789Y-44810700D02*
G75*
G03*
X34763016Y-45459279I-252259J-431700D01*
G01*
X34812513Y-45676157D02*
G75*
G03*
X34763016Y-45459279I-500513J-143D01*
G01*
%TO.C,D19*%
X37193751Y-66131843D02*
X37193751Y-64726159D01*
X38099298Y-63929001D02*
X39688202Y-63929001D01*
X39688202Y-66929000D02*
X38099297Y-66929000D01*
X40593749Y-64726159D02*
X40593749Y-66131843D01*
X37193750Y-64726159D02*
G75*
G03*
X37144265Y-64509281I-499989J2D01*
G01*
X37847039Y-63860702D02*
G75*
G03*
X37144267Y-64509282I-252259J-431700D01*
G01*
X37144266Y-66348721D02*
G75*
G03*
X37193751Y-66131844I-450505J216876D01*
G01*
X37144266Y-66348721D02*
G75*
G03*
X37847039Y-66997299I450514J-216878D01*
G01*
X38099297Y-66929000D02*
G75*
G03*
X37847039Y-66997299I3J-500009D01*
G01*
X37847039Y-63860702D02*
G75*
G03*
X38099298Y-63929001I252261J431710D01*
G01*
X39940461Y-66997300D02*
G75*
G03*
X39688203Y-66929001I-252261J-431710D01*
G01*
X39688202Y-63929000D02*
G75*
G03*
X39940460Y-63860702I-2J500010D01*
G01*
X40643230Y-64509279D02*
G75*
G03*
X39940461Y-63860704I-450510J216879D01*
G01*
X40643234Y-64509281D02*
G75*
G03*
X40593749Y-64726158I450866J-216959D01*
G01*
X39940461Y-66997300D02*
G75*
G03*
X40643234Y-66348721I252259J431700D01*
G01*
X40593737Y-66131843D02*
G75*
G03*
X40643234Y-66348721I500513J143D01*
G01*
%TO.C,D28*%
X200137499Y-83776157D02*
X200137499Y-85181841D01*
X199231952Y-85978999D02*
X197643048Y-85978999D01*
X197643048Y-82979000D02*
X199231953Y-82979000D01*
X196737501Y-85181841D02*
X196737501Y-83776157D01*
X200137500Y-85181841D02*
G75*
G03*
X200186985Y-85398719I499989J-2D01*
G01*
X199484211Y-86047298D02*
G75*
G03*
X200186983Y-85398718I252259J431700D01*
G01*
X200186984Y-83559279D02*
G75*
G03*
X200137499Y-83776156I450505J-216876D01*
G01*
X200186984Y-83559279D02*
G75*
G03*
X199484211Y-82910701I-450514J216878D01*
G01*
X199231953Y-82979000D02*
G75*
G03*
X199484211Y-82910701I-3J500009D01*
G01*
X199484211Y-86047298D02*
G75*
G03*
X199231952Y-85978999I-252261J-431710D01*
G01*
X197390789Y-82910700D02*
G75*
G03*
X197643047Y-82978999I252261J431710D01*
G01*
X197643048Y-85979000D02*
G75*
G03*
X197390790Y-86047298I2J-500010D01*
G01*
X196688020Y-85398721D02*
G75*
G03*
X197390789Y-86047296I450510J-216879D01*
G01*
X196688016Y-85398719D02*
G75*
G03*
X196737501Y-85181842I-450866J216959D01*
G01*
X197390789Y-82910700D02*
G75*
G03*
X196688016Y-83559279I-252259J-431700D01*
G01*
X196737513Y-83776157D02*
G75*
G03*
X196688016Y-83559279I-500513J-143D01*
G01*
%TO.C,D12*%
X228712499Y-45676157D02*
X228712499Y-47081841D01*
X227806952Y-47878999D02*
X226218048Y-47878999D01*
X226218048Y-44879000D02*
X227806953Y-44879000D01*
X225312501Y-47081841D02*
X225312501Y-45676157D01*
X228712500Y-47081841D02*
G75*
G03*
X228761985Y-47298719I499989J-2D01*
G01*
X228059211Y-47947298D02*
G75*
G03*
X228761983Y-47298718I252259J431700D01*
G01*
X228761984Y-45459279D02*
G75*
G03*
X228712499Y-45676156I450505J-216876D01*
G01*
X228761984Y-45459279D02*
G75*
G03*
X228059211Y-44810701I-450514J216878D01*
G01*
X227806953Y-44879000D02*
G75*
G03*
X228059211Y-44810701I-3J500009D01*
G01*
X228059211Y-47947298D02*
G75*
G03*
X227806952Y-47878999I-252261J-431710D01*
G01*
X225965789Y-44810700D02*
G75*
G03*
X226218047Y-44878999I252261J431710D01*
G01*
X226218048Y-47879000D02*
G75*
G03*
X225965790Y-47947298I2J-500010D01*
G01*
X225263020Y-47298721D02*
G75*
G03*
X225965789Y-47947296I450510J-216879D01*
G01*
X225263016Y-47298719D02*
G75*
G03*
X225312501Y-47081842I-450866J216959D01*
G01*
X225965789Y-44810700D02*
G75*
G03*
X225263016Y-45459279I-252259J-431700D01*
G01*
X225312513Y-45676157D02*
G75*
G03*
X225263016Y-45459279I-500513J-143D01*
G01*
%TO.C,D48*%
X200575749Y-103268548D02*
X200575749Y-104857453D01*
X199778592Y-105762999D02*
X198372908Y-105762999D01*
X198372908Y-102363001D02*
X199778592Y-102363001D01*
X197575750Y-104857452D02*
X197575750Y-103268548D01*
X200575749Y-104857453D02*
G75*
G03*
X200644048Y-105109711I500009J3D01*
G01*
X199995471Y-105812481D02*
G75*
G03*
X200644047Y-105109711I216879J450511D01*
G01*
X200644049Y-103016289D02*
G75*
G03*
X200575750Y-103268547I431710J-252261D01*
G01*
X200644051Y-103016290D02*
G75*
G03*
X199995470Y-102313516I-431711J252250D01*
G01*
X199778592Y-102362999D02*
G75*
G03*
X199995470Y-102313516I-42J500199D01*
G01*
X199995475Y-105812473D02*
G75*
G03*
X199778593Y-105762999I-216925J-450827D01*
G01*
X198156038Y-102313500D02*
G75*
G03*
X198372907Y-102363001I216912J450500D01*
G01*
X197507486Y-105109732D02*
G75*
G03*
X198156031Y-105812484I431664J-252268D01*
G01*
X198372908Y-105762999D02*
G75*
G03*
X198156030Y-105812484I-158J-499301D01*
G01*
X197507451Y-105109711D02*
G75*
G03*
X197575750Y-104857452I-431711J252261D01*
G01*
X198156028Y-102313519D02*
G75*
G03*
X197507454Y-103016289I-216878J-450511D01*
G01*
X197575761Y-103268548D02*
G75*
G03*
X197507451Y-103016290I-499011J248D01*
G01*
%TO.C,D47*%
X220550001Y-104231843D02*
X220550001Y-102826159D01*
X221455548Y-102029001D02*
X223044452Y-102029001D01*
X223044452Y-105029000D02*
X221455547Y-105029000D01*
X223949999Y-102826159D02*
X223949999Y-104231843D01*
X220550000Y-102826159D02*
G75*
G03*
X220500515Y-102609281I-499989J2D01*
G01*
X221203289Y-101960702D02*
G75*
G03*
X220500517Y-102609282I-252259J-431700D01*
G01*
X220500516Y-104448721D02*
G75*
G03*
X220550001Y-104231844I-450505J216876D01*
G01*
X220500516Y-104448721D02*
G75*
G03*
X221203289Y-105097299I450514J-216878D01*
G01*
X221455547Y-105029000D02*
G75*
G03*
X221203289Y-105097299I3J-500009D01*
G01*
X221203289Y-101960702D02*
G75*
G03*
X221455548Y-102029001I252261J431710D01*
G01*
X223296711Y-105097300D02*
G75*
G03*
X223044453Y-105029001I-252261J-431710D01*
G01*
X223044452Y-102029000D02*
G75*
G03*
X223296710Y-101960702I-2J500010D01*
G01*
X223999480Y-102609279D02*
G75*
G03*
X223296711Y-101960704I-450510J216879D01*
G01*
X223999484Y-102609281D02*
G75*
G03*
X223949999Y-102826158I450866J-216959D01*
G01*
X223296711Y-105097300D02*
G75*
G03*
X223999484Y-104448721I252259J431700D01*
G01*
X223949987Y-104231843D02*
G75*
G03*
X223999484Y-104448721I500513J143D01*
G01*
%TO.C,D13*%
X254906249Y-45676157D02*
X254906249Y-47081841D01*
X254000702Y-47878999D02*
X252411798Y-47878999D01*
X252411798Y-44879000D02*
X254000703Y-44879000D01*
X251506251Y-47081841D02*
X251506251Y-45676157D01*
X254906250Y-47081841D02*
G75*
G03*
X254955735Y-47298719I499989J-2D01*
G01*
X254252961Y-47947298D02*
G75*
G03*
X254955733Y-47298718I252259J431700D01*
G01*
X254955734Y-45459279D02*
G75*
G03*
X254906249Y-45676156I450505J-216876D01*
G01*
X254955734Y-45459279D02*
G75*
G03*
X254252961Y-44810701I-450514J216878D01*
G01*
X254000703Y-44879000D02*
G75*
G03*
X254252961Y-44810701I-3J500009D01*
G01*
X254252961Y-47947298D02*
G75*
G03*
X254000702Y-47878999I-252261J-431710D01*
G01*
X252159539Y-44810700D02*
G75*
G03*
X252411797Y-44878999I252261J431710D01*
G01*
X252411798Y-47879000D02*
G75*
G03*
X252159540Y-47947298I2J-500010D01*
G01*
X251456770Y-47298721D02*
G75*
G03*
X252159539Y-47947296I450510J-216879D01*
G01*
X251456766Y-47298719D02*
G75*
G03*
X251506251Y-47081842I-450866J216959D01*
G01*
X252159539Y-44810700D02*
G75*
G03*
X251456766Y-45459279I-252259J-431700D01*
G01*
X251506263Y-45676157D02*
G75*
G03*
X251456766Y-45459279I-500513J-143D01*
G01*
%TO.C,D17*%
X77675001Y-66131843D02*
X77675001Y-64726159D01*
X78580548Y-63929001D02*
X80169452Y-63929001D01*
X80169452Y-66929000D02*
X78580547Y-66929000D01*
X81074999Y-64726159D02*
X81074999Y-66131843D01*
X77675000Y-64726159D02*
G75*
G03*
X77625515Y-64509281I-499989J2D01*
G01*
X78328289Y-63860702D02*
G75*
G03*
X77625517Y-64509282I-252259J-431700D01*
G01*
X77625516Y-66348721D02*
G75*
G03*
X77675001Y-66131844I-450505J216876D01*
G01*
X77625516Y-66348721D02*
G75*
G03*
X78328289Y-66997299I450514J-216878D01*
G01*
X78580547Y-66929000D02*
G75*
G03*
X78328289Y-66997299I3J-500009D01*
G01*
X78328289Y-63860702D02*
G75*
G03*
X78580548Y-63929001I252261J431710D01*
G01*
X80421711Y-66997300D02*
G75*
G03*
X80169453Y-66929001I-252261J-431710D01*
G01*
X80169452Y-63929000D02*
G75*
G03*
X80421710Y-63860702I-2J500010D01*
G01*
X81124480Y-64509279D02*
G75*
G03*
X80421711Y-63860704I-450510J216879D01*
G01*
X81124484Y-64509281D02*
G75*
G03*
X81074999Y-64726158I450866J-216959D01*
G01*
X80421711Y-66997300D02*
G75*
G03*
X81124484Y-66348721I252259J431700D01*
G01*
X81074987Y-66131843D02*
G75*
G03*
X81124484Y-66348721I500513J143D01*
G01*
%TO.C,D21*%
X230075001Y-66131843D02*
X230075001Y-64726159D01*
X230980548Y-63929001D02*
X232569452Y-63929001D01*
X232569452Y-66929000D02*
X230980547Y-66929000D01*
X233474999Y-64726159D02*
X233474999Y-66131843D01*
X230075000Y-64726159D02*
G75*
G03*
X230025515Y-64509281I-499989J2D01*
G01*
X230728289Y-63860702D02*
G75*
G03*
X230025517Y-64509282I-252259J-431700D01*
G01*
X230025516Y-66348721D02*
G75*
G03*
X230075001Y-66131844I-450505J216876D01*
G01*
X230025516Y-66348721D02*
G75*
G03*
X230728289Y-66997299I450514J-216878D01*
G01*
X230980547Y-66929000D02*
G75*
G03*
X230728289Y-66997299I3J-500009D01*
G01*
X230728289Y-63860702D02*
G75*
G03*
X230980548Y-63929001I252261J431710D01*
G01*
X232821711Y-66997300D02*
G75*
G03*
X232569453Y-66929001I-252261J-431710D01*
G01*
X232569452Y-63929000D02*
G75*
G03*
X232821710Y-63860702I-2J500010D01*
G01*
X233524480Y-64509279D02*
G75*
G03*
X232821711Y-63860704I-450510J216879D01*
G01*
X233524484Y-64509281D02*
G75*
G03*
X233474999Y-64726158I450866J-216959D01*
G01*
X232821711Y-66997300D02*
G75*
G03*
X233524484Y-66348721I252259J431700D01*
G01*
X233474987Y-66131843D02*
G75*
G03*
X233524484Y-66348721I500513J143D01*
G01*
%TO.C,D11*%
X209662499Y-45676157D02*
X209662499Y-47081841D01*
X208756952Y-47878999D02*
X207168048Y-47878999D01*
X207168048Y-44879000D02*
X208756953Y-44879000D01*
X206262501Y-47081841D02*
X206262501Y-45676157D01*
X209662500Y-47081841D02*
G75*
G03*
X209711985Y-47298719I499989J-2D01*
G01*
X209009211Y-47947298D02*
G75*
G03*
X209711983Y-47298718I252259J431700D01*
G01*
X209711984Y-45459279D02*
G75*
G03*
X209662499Y-45676156I450505J-216876D01*
G01*
X209711984Y-45459279D02*
G75*
G03*
X209009211Y-44810701I-450514J216878D01*
G01*
X208756953Y-44879000D02*
G75*
G03*
X209009211Y-44810701I-3J500009D01*
G01*
X209009211Y-47947298D02*
G75*
G03*
X208756952Y-47878999I-252261J-431710D01*
G01*
X206915789Y-44810700D02*
G75*
G03*
X207168047Y-44878999I252261J431710D01*
G01*
X207168048Y-47879000D02*
G75*
G03*
X206915790Y-47947298I2J-500010D01*
G01*
X206213020Y-47298721D02*
G75*
G03*
X206915789Y-47947296I450510J-216879D01*
G01*
X206213016Y-47298719D02*
G75*
G03*
X206262501Y-47081842I-450866J216959D01*
G01*
X206915789Y-44810700D02*
G75*
G03*
X206213016Y-45459279I-252259J-431700D01*
G01*
X206262513Y-45676157D02*
G75*
G03*
X206213016Y-45459279I-500513J-143D01*
G01*
%TO.C,D7*%
X133462499Y-45676157D02*
X133462499Y-47081841D01*
X132556952Y-47878999D02*
X130968048Y-47878999D01*
X130968048Y-44879000D02*
X132556953Y-44879000D01*
X130062501Y-47081841D02*
X130062501Y-45676157D01*
X133462500Y-47081841D02*
G75*
G03*
X133511985Y-47298719I499989J-2D01*
G01*
X132809211Y-47947298D02*
G75*
G03*
X133511983Y-47298718I252259J431700D01*
G01*
X133511984Y-45459279D02*
G75*
G03*
X133462499Y-45676156I450505J-216876D01*
G01*
X133511984Y-45459279D02*
G75*
G03*
X132809211Y-44810701I-450514J216878D01*
G01*
X132556953Y-44879000D02*
G75*
G03*
X132809211Y-44810701I-3J500009D01*
G01*
X132809211Y-47947298D02*
G75*
G03*
X132556952Y-47878999I-252261J-431710D01*
G01*
X130715789Y-44810700D02*
G75*
G03*
X130968047Y-44878999I252261J431710D01*
G01*
X130968048Y-47879000D02*
G75*
G03*
X130715790Y-47947298I2J-500010D01*
G01*
X130013020Y-47298721D02*
G75*
G03*
X130715789Y-47947296I450510J-216879D01*
G01*
X130013016Y-47298719D02*
G75*
G03*
X130062501Y-47081842I-450866J216959D01*
G01*
X130715789Y-44810700D02*
G75*
G03*
X130013016Y-45459279I-252259J-431700D01*
G01*
X130062513Y-45676157D02*
G75*
G03*
X130013016Y-45459279I-500513J-143D01*
G01*
%TO.C,D25*%
X153875001Y-66131843D02*
X153875001Y-64726159D01*
X154780548Y-63929001D02*
X156369452Y-63929001D01*
X156369452Y-66929000D02*
X154780547Y-66929000D01*
X157274999Y-64726159D02*
X157274999Y-66131843D01*
X153875000Y-64726159D02*
G75*
G03*
X153825515Y-64509281I-499989J2D01*
G01*
X154528289Y-63860702D02*
G75*
G03*
X153825517Y-64509282I-252259J-431700D01*
G01*
X153825516Y-66348721D02*
G75*
G03*
X153875001Y-66131844I-450505J216876D01*
G01*
X153825516Y-66348721D02*
G75*
G03*
X154528289Y-66997299I450514J-216878D01*
G01*
X154780547Y-66929000D02*
G75*
G03*
X154528289Y-66997299I3J-500009D01*
G01*
X154528289Y-63860702D02*
G75*
G03*
X154780548Y-63929001I252261J431710D01*
G01*
X156621711Y-66997300D02*
G75*
G03*
X156369453Y-66929001I-252261J-431710D01*
G01*
X156369452Y-63929000D02*
G75*
G03*
X156621710Y-63860702I-2J500010D01*
G01*
X157324480Y-64509279D02*
G75*
G03*
X156621711Y-63860704I-450510J216879D01*
G01*
X157324484Y-64509281D02*
G75*
G03*
X157274999Y-64726158I450866J-216959D01*
G01*
X156621711Y-66997300D02*
G75*
G03*
X157324484Y-66348721I252259J431700D01*
G01*
X157274987Y-66131843D02*
G75*
G03*
X157324484Y-66348721I500513J143D01*
G01*
%TO.C,D35*%
X104887499Y-83776157D02*
X104887499Y-85181841D01*
X103981952Y-85978999D02*
X102393048Y-85978999D01*
X102393048Y-82979000D02*
X103981953Y-82979000D01*
X101487501Y-85181841D02*
X101487501Y-83776157D01*
X104887500Y-85181841D02*
G75*
G03*
X104936985Y-85398719I499989J-2D01*
G01*
X104234211Y-86047298D02*
G75*
G03*
X104936983Y-85398718I252259J431700D01*
G01*
X104936984Y-83559279D02*
G75*
G03*
X104887499Y-83776156I450505J-216876D01*
G01*
X104936984Y-83559279D02*
G75*
G03*
X104234211Y-82910701I-450514J216878D01*
G01*
X103981953Y-82979000D02*
G75*
G03*
X104234211Y-82910701I-3J500009D01*
G01*
X104234211Y-86047298D02*
G75*
G03*
X103981952Y-85978999I-252261J-431710D01*
G01*
X102140789Y-82910700D02*
G75*
G03*
X102393047Y-82978999I252261J431710D01*
G01*
X102393048Y-85979000D02*
G75*
G03*
X102140790Y-86047298I2J-500010D01*
G01*
X101438020Y-85398721D02*
G75*
G03*
X102140789Y-86047296I450510J-216879D01*
G01*
X101438016Y-85398719D02*
G75*
G03*
X101487501Y-85181842I-450866J216959D01*
G01*
X102140789Y-82910700D02*
G75*
G03*
X101438016Y-83559279I-252259J-431700D01*
G01*
X101487513Y-83776157D02*
G75*
G03*
X101438016Y-83559279I-500513J-143D01*
G01*
%TO.C,D30*%
X238237499Y-83776157D02*
X238237499Y-85181841D01*
X237331952Y-85978999D02*
X235743048Y-85978999D01*
X235743048Y-82979000D02*
X237331953Y-82979000D01*
X234837501Y-85181841D02*
X234837501Y-83776157D01*
X238237500Y-85181841D02*
G75*
G03*
X238286985Y-85398719I499989J-2D01*
G01*
X237584211Y-86047298D02*
G75*
G03*
X238286983Y-85398718I252259J431700D01*
G01*
X238286984Y-83559279D02*
G75*
G03*
X238237499Y-83776156I450505J-216876D01*
G01*
X238286984Y-83559279D02*
G75*
G03*
X237584211Y-82910701I-450514J216878D01*
G01*
X237331953Y-82979000D02*
G75*
G03*
X237584211Y-82910701I-3J500009D01*
G01*
X237584211Y-86047298D02*
G75*
G03*
X237331952Y-85978999I-252261J-431710D01*
G01*
X235490789Y-82910700D02*
G75*
G03*
X235743047Y-82978999I252261J431710D01*
G01*
X235743048Y-85979000D02*
G75*
G03*
X235490790Y-86047298I2J-500010D01*
G01*
X234788020Y-85398721D02*
G75*
G03*
X235490789Y-86047296I450510J-216879D01*
G01*
X234788016Y-85398719D02*
G75*
G03*
X234837501Y-85181842I-450866J216959D01*
G01*
X235490789Y-82910700D02*
G75*
G03*
X234788016Y-83559279I-252259J-431700D01*
G01*
X234837513Y-83776157D02*
G75*
G03*
X234788016Y-83559279I-500513J-143D01*
G01*
%TO.C,D5*%
X95362499Y-45676157D02*
X95362499Y-47081841D01*
X94456952Y-47878999D02*
X92868048Y-47878999D01*
X92868048Y-44879000D02*
X94456953Y-44879000D01*
X91962501Y-47081841D02*
X91962501Y-45676157D01*
X95362500Y-47081841D02*
G75*
G03*
X95411985Y-47298719I499989J-2D01*
G01*
X94709211Y-47947298D02*
G75*
G03*
X95411983Y-47298718I252259J431700D01*
G01*
X95411984Y-45459279D02*
G75*
G03*
X95362499Y-45676156I450505J-216876D01*
G01*
X95411984Y-45459279D02*
G75*
G03*
X94709211Y-44810701I-450514J216878D01*
G01*
X94456953Y-44879000D02*
G75*
G03*
X94709211Y-44810701I-3J500009D01*
G01*
X94709211Y-47947298D02*
G75*
G03*
X94456952Y-47878999I-252261J-431710D01*
G01*
X92615789Y-44810700D02*
G75*
G03*
X92868047Y-44878999I252261J431710D01*
G01*
X92868048Y-47879000D02*
G75*
G03*
X92615790Y-47947298I2J-500010D01*
G01*
X91913020Y-47298721D02*
G75*
G03*
X92615789Y-47947296I450510J-216879D01*
G01*
X91913016Y-47298719D02*
G75*
G03*
X91962501Y-47081842I-450866J216959D01*
G01*
X92615789Y-44810700D02*
G75*
G03*
X91913016Y-45459279I-252259J-431700D01*
G01*
X91962513Y-45676157D02*
G75*
G03*
X91913016Y-45459279I-500513J-143D01*
G01*
%TO.C,D46*%
X239600001Y-104231843D02*
X239600001Y-102826159D01*
X240505548Y-102029001D02*
X242094452Y-102029001D01*
X242094452Y-105029000D02*
X240505547Y-105029000D01*
X242999999Y-102826159D02*
X242999999Y-104231843D01*
X239600000Y-102826159D02*
G75*
G03*
X239550515Y-102609281I-499989J2D01*
G01*
X240253289Y-101960702D02*
G75*
G03*
X239550517Y-102609282I-252259J-431700D01*
G01*
X239550516Y-104448721D02*
G75*
G03*
X239600001Y-104231844I-450505J216876D01*
G01*
X239550516Y-104448721D02*
G75*
G03*
X240253289Y-105097299I450514J-216878D01*
G01*
X240505547Y-105029000D02*
G75*
G03*
X240253289Y-105097299I3J-500009D01*
G01*
X240253289Y-101960702D02*
G75*
G03*
X240505548Y-102029001I252261J431710D01*
G01*
X242346711Y-105097300D02*
G75*
G03*
X242094453Y-105029001I-252261J-431710D01*
G01*
X242094452Y-102029000D02*
G75*
G03*
X242346710Y-101960702I-2J500010D01*
G01*
X243049480Y-102609279D02*
G75*
G03*
X242346711Y-101960704I-450510J216879D01*
G01*
X243049484Y-102609281D02*
G75*
G03*
X242999999Y-102826158I450866J-216959D01*
G01*
X242346711Y-105097300D02*
G75*
G03*
X243049484Y-104448721I252259J431700D01*
G01*
X242999987Y-104231843D02*
G75*
G03*
X243049484Y-104448721I500513J143D01*
G01*
%TO.C,D34*%
X85837499Y-83776157D02*
X85837499Y-85181841D01*
X84931952Y-85978999D02*
X83343048Y-85978999D01*
X83343048Y-82979000D02*
X84931953Y-82979000D01*
X82437501Y-85181841D02*
X82437501Y-83776157D01*
X85837500Y-85181841D02*
G75*
G03*
X85886985Y-85398719I499989J-2D01*
G01*
X85184211Y-86047298D02*
G75*
G03*
X85886983Y-85398718I252259J431700D01*
G01*
X85886984Y-83559279D02*
G75*
G03*
X85837499Y-83776156I450505J-216876D01*
G01*
X85886984Y-83559279D02*
G75*
G03*
X85184211Y-82910701I-450514J216878D01*
G01*
X84931953Y-82979000D02*
G75*
G03*
X85184211Y-82910701I-3J500009D01*
G01*
X85184211Y-86047298D02*
G75*
G03*
X84931952Y-85978999I-252261J-431710D01*
G01*
X83090789Y-82910700D02*
G75*
G03*
X83343047Y-82978999I252261J431710D01*
G01*
X83343048Y-85979000D02*
G75*
G03*
X83090790Y-86047298I2J-500010D01*
G01*
X82388020Y-85398721D02*
G75*
G03*
X83090789Y-86047296I450510J-216879D01*
G01*
X82388016Y-85398719D02*
G75*
G03*
X82437501Y-85181842I-450866J216959D01*
G01*
X83090789Y-82910700D02*
G75*
G03*
X82388016Y-83559279I-252259J-431700D01*
G01*
X82437513Y-83776157D02*
G75*
G03*
X82388016Y-83559279I-500513J-143D01*
G01*
%TO.C,D44*%
X259668749Y-83776157D02*
X259668749Y-85181841D01*
X258763202Y-85978999D02*
X257174298Y-85978999D01*
X257174298Y-82979000D02*
X258763203Y-82979000D01*
X256268751Y-85181841D02*
X256268751Y-83776157D01*
X259668750Y-85181841D02*
G75*
G03*
X259718235Y-85398719I499989J-2D01*
G01*
X259015461Y-86047298D02*
G75*
G03*
X259718233Y-85398718I252259J431700D01*
G01*
X259718234Y-83559279D02*
G75*
G03*
X259668749Y-83776156I450505J-216876D01*
G01*
X259718234Y-83559279D02*
G75*
G03*
X259015461Y-82910701I-450514J216878D01*
G01*
X258763203Y-82979000D02*
G75*
G03*
X259015461Y-82910701I-3J500009D01*
G01*
X259015461Y-86047298D02*
G75*
G03*
X258763202Y-85978999I-252261J-431710D01*
G01*
X256922039Y-82910700D02*
G75*
G03*
X257174297Y-82978999I252261J431710D01*
G01*
X257174298Y-85979000D02*
G75*
G03*
X256922040Y-86047298I2J-500010D01*
G01*
X256219270Y-85398721D02*
G75*
G03*
X256922039Y-86047296I450510J-216879D01*
G01*
X256219266Y-85398719D02*
G75*
G03*
X256268751Y-85181842I-450866J216959D01*
G01*
X256922039Y-82910700D02*
G75*
G03*
X256219266Y-83559279I-252259J-431700D01*
G01*
X256268763Y-83776157D02*
G75*
G03*
X256219266Y-83559279I-500513J-143D01*
G01*
%TO.C,D26*%
X162037499Y-83776157D02*
X162037499Y-85181841D01*
X161131952Y-85978999D02*
X159543048Y-85978999D01*
X159543048Y-82979000D02*
X161131953Y-82979000D01*
X158637501Y-85181841D02*
X158637501Y-83776157D01*
X162037500Y-85181841D02*
G75*
G03*
X162086985Y-85398719I499989J-2D01*
G01*
X161384211Y-86047298D02*
G75*
G03*
X162086983Y-85398718I252259J431700D01*
G01*
X162086984Y-83559279D02*
G75*
G03*
X162037499Y-83776156I450505J-216876D01*
G01*
X162086984Y-83559279D02*
G75*
G03*
X161384211Y-82910701I-450514J216878D01*
G01*
X161131953Y-82979000D02*
G75*
G03*
X161384211Y-82910701I-3J500009D01*
G01*
X161384211Y-86047298D02*
G75*
G03*
X161131952Y-85978999I-252261J-431710D01*
G01*
X159290789Y-82910700D02*
G75*
G03*
X159543047Y-82978999I252261J431710D01*
G01*
X159543048Y-85979000D02*
G75*
G03*
X159290790Y-86047298I2J-500010D01*
G01*
X158588020Y-85398721D02*
G75*
G03*
X159290789Y-86047296I450510J-216879D01*
G01*
X158588016Y-85398719D02*
G75*
G03*
X158637501Y-85181842I-450866J216959D01*
G01*
X159290789Y-82910700D02*
G75*
G03*
X158588016Y-83559279I-252259J-431700D01*
G01*
X158637513Y-83776157D02*
G75*
G03*
X158588016Y-83559279I-500513J-143D01*
G01*
%TO.C,D37*%
X142987499Y-83776157D02*
X142987499Y-85181841D01*
X142081952Y-85978999D02*
X140493048Y-85978999D01*
X140493048Y-82979000D02*
X142081953Y-82979000D01*
X139587501Y-85181841D02*
X139587501Y-83776157D01*
X142987500Y-85181841D02*
G75*
G03*
X143036985Y-85398719I499989J-2D01*
G01*
X142334211Y-86047298D02*
G75*
G03*
X143036983Y-85398718I252259J431700D01*
G01*
X143036984Y-83559279D02*
G75*
G03*
X142987499Y-83776156I450505J-216876D01*
G01*
X143036984Y-83559279D02*
G75*
G03*
X142334211Y-82910701I-450514J216878D01*
G01*
X142081953Y-82979000D02*
G75*
G03*
X142334211Y-82910701I-3J500009D01*
G01*
X142334211Y-86047298D02*
G75*
G03*
X142081952Y-85978999I-252261J-431710D01*
G01*
X140240789Y-82910700D02*
G75*
G03*
X140493047Y-82978999I252261J431710D01*
G01*
X140493048Y-85979000D02*
G75*
G03*
X140240790Y-86047298I2J-500010D01*
G01*
X139538020Y-85398721D02*
G75*
G03*
X140240789Y-86047296I450510J-216879D01*
G01*
X139538016Y-85398719D02*
G75*
G03*
X139587501Y-85181842I-450866J216959D01*
G01*
X140240789Y-82910700D02*
G75*
G03*
X139538016Y-83559279I-252259J-431700D01*
G01*
X139587513Y-83776157D02*
G75*
G03*
X139538016Y-83559279I-500513J-143D01*
G01*
%TO.C,D9*%
X171562499Y-45676157D02*
X171562499Y-47081841D01*
X170656952Y-47878999D02*
X169068048Y-47878999D01*
X169068048Y-44879000D02*
X170656953Y-44879000D01*
X168162501Y-47081841D02*
X168162501Y-45676157D01*
X171562500Y-47081841D02*
G75*
G03*
X171611985Y-47298719I499989J-2D01*
G01*
X170909211Y-47947298D02*
G75*
G03*
X171611983Y-47298718I252259J431700D01*
G01*
X171611984Y-45459279D02*
G75*
G03*
X171562499Y-45676156I450505J-216876D01*
G01*
X171611984Y-45459279D02*
G75*
G03*
X170909211Y-44810701I-450514J216878D01*
G01*
X170656953Y-44879000D02*
G75*
G03*
X170909211Y-44810701I-3J500009D01*
G01*
X170909211Y-47947298D02*
G75*
G03*
X170656952Y-47878999I-252261J-431710D01*
G01*
X168815789Y-44810700D02*
G75*
G03*
X169068047Y-44878999I252261J431710D01*
G01*
X169068048Y-47879000D02*
G75*
G03*
X168815790Y-47947298I2J-500010D01*
G01*
X168113020Y-47298721D02*
G75*
G03*
X168815789Y-47947296I450510J-216879D01*
G01*
X168113016Y-47298719D02*
G75*
G03*
X168162501Y-47081842I-450866J216959D01*
G01*
X168815789Y-44810700D02*
G75*
G03*
X168113016Y-45459279I-252259J-431700D01*
G01*
X168162513Y-45676157D02*
G75*
G03*
X168113016Y-45459279I-500513J-143D01*
G01*
%TO.C,D14*%
X134825001Y-66131843D02*
X134825001Y-64726159D01*
X135730548Y-63929001D02*
X137319452Y-63929001D01*
X137319452Y-66929000D02*
X135730547Y-66929000D01*
X138224999Y-64726159D02*
X138224999Y-66131843D01*
X134825000Y-64726159D02*
G75*
G03*
X134775515Y-64509281I-499989J2D01*
G01*
X135478289Y-63860702D02*
G75*
G03*
X134775517Y-64509282I-252259J-431700D01*
G01*
X134775516Y-66348721D02*
G75*
G03*
X134825001Y-66131844I-450505J216876D01*
G01*
X134775516Y-66348721D02*
G75*
G03*
X135478289Y-66997299I450514J-216878D01*
G01*
X135730547Y-66929000D02*
G75*
G03*
X135478289Y-66997299I3J-500009D01*
G01*
X135478289Y-63860702D02*
G75*
G03*
X135730548Y-63929001I252261J431710D01*
G01*
X137571711Y-66997300D02*
G75*
G03*
X137319453Y-66929001I-252261J-431710D01*
G01*
X137319452Y-63929000D02*
G75*
G03*
X137571710Y-63860702I-2J500010D01*
G01*
X138274480Y-64509279D02*
G75*
G03*
X137571711Y-63860704I-450510J216879D01*
G01*
X138274484Y-64509281D02*
G75*
G03*
X138224999Y-64726158I450866J-216959D01*
G01*
X137571711Y-66997300D02*
G75*
G03*
X138274484Y-66348721I252259J431700D01*
G01*
X138224987Y-66131843D02*
G75*
G03*
X138274484Y-66348721I500513J143D01*
G01*
%TO.C,D8*%
X152512499Y-45676157D02*
X152512499Y-47081841D01*
X151606952Y-47878999D02*
X150018048Y-47878999D01*
X150018048Y-44879000D02*
X151606953Y-44879000D01*
X149112501Y-47081841D02*
X149112501Y-45676157D01*
X152512500Y-47081841D02*
G75*
G03*
X152561985Y-47298719I499989J-2D01*
G01*
X151859211Y-47947298D02*
G75*
G03*
X152561983Y-47298718I252259J431700D01*
G01*
X152561984Y-45459279D02*
G75*
G03*
X152512499Y-45676156I450505J-216876D01*
G01*
X152561984Y-45459279D02*
G75*
G03*
X151859211Y-44810701I-450514J216878D01*
G01*
X151606953Y-44879000D02*
G75*
G03*
X151859211Y-44810701I-3J500009D01*
G01*
X151859211Y-47947298D02*
G75*
G03*
X151606952Y-47878999I-252261J-431710D01*
G01*
X149765789Y-44810700D02*
G75*
G03*
X150018047Y-44878999I252261J431710D01*
G01*
X150018048Y-47879000D02*
G75*
G03*
X149765790Y-47947298I2J-500010D01*
G01*
X149063020Y-47298721D02*
G75*
G03*
X149765789Y-47947296I450510J-216879D01*
G01*
X149063016Y-47298719D02*
G75*
G03*
X149112501Y-47081842I-450866J216959D01*
G01*
X149765789Y-44810700D02*
G75*
G03*
X149063016Y-45459279I-252259J-431700D01*
G01*
X149112513Y-45676157D02*
G75*
G03*
X149063016Y-45459279I-500513J-143D01*
G01*
%TO.C,D20*%
X253887501Y-66131843D02*
X253887501Y-64726159D01*
X254793048Y-63929001D02*
X256381952Y-63929001D01*
X256381952Y-66929000D02*
X254793047Y-66929000D01*
X257287499Y-64726159D02*
X257287499Y-66131843D01*
X253887500Y-64726159D02*
G75*
G03*
X253838015Y-64509281I-499989J2D01*
G01*
X254540789Y-63860702D02*
G75*
G03*
X253838017Y-64509282I-252259J-431700D01*
G01*
X253838016Y-66348721D02*
G75*
G03*
X253887501Y-66131844I-450505J216876D01*
G01*
X253838016Y-66348721D02*
G75*
G03*
X254540789Y-66997299I450514J-216878D01*
G01*
X254793047Y-66929000D02*
G75*
G03*
X254540789Y-66997299I3J-500009D01*
G01*
X254540789Y-63860702D02*
G75*
G03*
X254793048Y-63929001I252261J431710D01*
G01*
X256634211Y-66997300D02*
G75*
G03*
X256381953Y-66929001I-252261J-431710D01*
G01*
X256381952Y-63929000D02*
G75*
G03*
X256634210Y-63860702I-2J500010D01*
G01*
X257336980Y-64509279D02*
G75*
G03*
X256634211Y-63860704I-450510J216879D01*
G01*
X257336984Y-64509281D02*
G75*
G03*
X257287499Y-64726158I450866J-216959D01*
G01*
X256634211Y-66997300D02*
G75*
G03*
X257336984Y-66348721I252259J431700D01*
G01*
X257287487Y-66131843D02*
G75*
G03*
X257336984Y-66348721I500513J143D01*
G01*
%TO.C,D24*%
X172925001Y-66131843D02*
X172925001Y-64726159D01*
X173830548Y-63929001D02*
X175419452Y-63929001D01*
X175419452Y-66929000D02*
X173830547Y-66929000D01*
X176324999Y-64726159D02*
X176324999Y-66131843D01*
X172925000Y-64726159D02*
G75*
G03*
X172875515Y-64509281I-499989J2D01*
G01*
X173578289Y-63860702D02*
G75*
G03*
X172875517Y-64509282I-252259J-431700D01*
G01*
X172875516Y-66348721D02*
G75*
G03*
X172925001Y-66131844I-450505J216876D01*
G01*
X172875516Y-66348721D02*
G75*
G03*
X173578289Y-66997299I450514J-216878D01*
G01*
X173830547Y-66929000D02*
G75*
G03*
X173578289Y-66997299I3J-500009D01*
G01*
X173578289Y-63860702D02*
G75*
G03*
X173830548Y-63929001I252261J431710D01*
G01*
X175671711Y-66997300D02*
G75*
G03*
X175419453Y-66929001I-252261J-431710D01*
G01*
X175419452Y-63929000D02*
G75*
G03*
X175671710Y-63860702I-2J500010D01*
G01*
X176374480Y-64509279D02*
G75*
G03*
X175671711Y-63860704I-450510J216879D01*
G01*
X176374484Y-64509281D02*
G75*
G03*
X176324999Y-64726158I450866J-216959D01*
G01*
X175671711Y-66997300D02*
G75*
G03*
X176374484Y-66348721I252259J431700D01*
G01*
X176324987Y-66131843D02*
G75*
G03*
X176374484Y-66348721I500513J143D01*
G01*
%TO.C,D36*%
X123937499Y-83776157D02*
X123937499Y-85181841D01*
X123031952Y-85978999D02*
X121443048Y-85978999D01*
X121443048Y-82979000D02*
X123031953Y-82979000D01*
X120537501Y-85181841D02*
X120537501Y-83776157D01*
X123937500Y-85181841D02*
G75*
G03*
X123986985Y-85398719I499989J-2D01*
G01*
X123284211Y-86047298D02*
G75*
G03*
X123986983Y-85398718I252259J431700D01*
G01*
X123986984Y-83559279D02*
G75*
G03*
X123937499Y-83776156I450505J-216876D01*
G01*
X123986984Y-83559279D02*
G75*
G03*
X123284211Y-82910701I-450514J216878D01*
G01*
X123031953Y-82979000D02*
G75*
G03*
X123284211Y-82910701I-3J500009D01*
G01*
X123284211Y-86047298D02*
G75*
G03*
X123031952Y-85978999I-252261J-431710D01*
G01*
X121190789Y-82910700D02*
G75*
G03*
X121443047Y-82978999I252261J431710D01*
G01*
X121443048Y-85979000D02*
G75*
G03*
X121190790Y-86047298I2J-500010D01*
G01*
X120488020Y-85398721D02*
G75*
G03*
X121190789Y-86047296I450510J-216879D01*
G01*
X120488016Y-85398719D02*
G75*
G03*
X120537501Y-85181842I-450866J216959D01*
G01*
X121190789Y-82910700D02*
G75*
G03*
X120488016Y-83559279I-252259J-431700D01*
G01*
X120537513Y-83776157D02*
G75*
G03*
X120488016Y-83559279I-500513J-143D01*
G01*
%TO.C,D49*%
X165781251Y-104231843D02*
X165781251Y-102826159D01*
X166686798Y-102029001D02*
X168275702Y-102029001D01*
X168275702Y-105029000D02*
X166686797Y-105029000D01*
X169181249Y-102826159D02*
X169181249Y-104231843D01*
X165781250Y-102826159D02*
G75*
G03*
X165731765Y-102609281I-499989J2D01*
G01*
X166434539Y-101960702D02*
G75*
G03*
X165731767Y-102609282I-252259J-431700D01*
G01*
X165731766Y-104448721D02*
G75*
G03*
X165781251Y-104231844I-450505J216876D01*
G01*
X165731766Y-104448721D02*
G75*
G03*
X166434539Y-105097299I450514J-216878D01*
G01*
X166686797Y-105029000D02*
G75*
G03*
X166434539Y-105097299I3J-500009D01*
G01*
X166434539Y-101960702D02*
G75*
G03*
X166686798Y-102029001I252261J431710D01*
G01*
X168527961Y-105097300D02*
G75*
G03*
X168275703Y-105029001I-252261J-431710D01*
G01*
X168275702Y-102029000D02*
G75*
G03*
X168527960Y-101960702I-2J500010D01*
G01*
X169230730Y-102609279D02*
G75*
G03*
X168527961Y-101960704I-450510J216879D01*
G01*
X169230734Y-102609281D02*
G75*
G03*
X169181249Y-102826158I450866J-216959D01*
G01*
X168527961Y-105097300D02*
G75*
G03*
X169230734Y-104448721I252259J431700D01*
G01*
X169181237Y-104231843D02*
G75*
G03*
X169230734Y-104448721I500513J143D01*
G01*
%TO.C,D3*%
X57262499Y-45676157D02*
X57262499Y-47081841D01*
X56356952Y-47878999D02*
X54768048Y-47878999D01*
X54768048Y-44879000D02*
X56356953Y-44879000D01*
X53862501Y-47081841D02*
X53862501Y-45676157D01*
X57262500Y-47081841D02*
G75*
G03*
X57311985Y-47298719I499989J-2D01*
G01*
X56609211Y-47947298D02*
G75*
G03*
X57311983Y-47298718I252259J431700D01*
G01*
X57311984Y-45459279D02*
G75*
G03*
X57262499Y-45676156I450505J-216876D01*
G01*
X57311984Y-45459279D02*
G75*
G03*
X56609211Y-44810701I-450514J216878D01*
G01*
X56356953Y-44879000D02*
G75*
G03*
X56609211Y-44810701I-3J500009D01*
G01*
X56609211Y-47947298D02*
G75*
G03*
X56356952Y-47878999I-252261J-431710D01*
G01*
X54515789Y-44810700D02*
G75*
G03*
X54768047Y-44878999I252261J431710D01*
G01*
X54768048Y-47879000D02*
G75*
G03*
X54515790Y-47947298I2J-500010D01*
G01*
X53813020Y-47298721D02*
G75*
G03*
X54515789Y-47947296I450510J-216879D01*
G01*
X53813016Y-47298719D02*
G75*
G03*
X53862501Y-47081842I-450866J216959D01*
G01*
X54515789Y-44810700D02*
G75*
G03*
X53813016Y-45459279I-252259J-431700D01*
G01*
X53862513Y-45676157D02*
G75*
G03*
X53813016Y-45459279I-500513J-143D01*
G01*
%TO.C,D27*%
X181087499Y-83776157D02*
X181087499Y-85181841D01*
X180181952Y-85978999D02*
X178593048Y-85978999D01*
X178593048Y-82979000D02*
X180181953Y-82979000D01*
X177687501Y-85181841D02*
X177687501Y-83776157D01*
X181087500Y-85181841D02*
G75*
G03*
X181136985Y-85398719I499989J-2D01*
G01*
X180434211Y-86047298D02*
G75*
G03*
X181136983Y-85398718I252259J431700D01*
G01*
X181136984Y-83559279D02*
G75*
G03*
X181087499Y-83776156I450505J-216876D01*
G01*
X181136984Y-83559279D02*
G75*
G03*
X180434211Y-82910701I-450514J216878D01*
G01*
X180181953Y-82979000D02*
G75*
G03*
X180434211Y-82910701I-3J500009D01*
G01*
X180434211Y-86047298D02*
G75*
G03*
X180181952Y-85978999I-252261J-431710D01*
G01*
X178340789Y-82910700D02*
G75*
G03*
X178593047Y-82978999I252261J431710D01*
G01*
X178593048Y-85979000D02*
G75*
G03*
X178340790Y-86047298I2J-500010D01*
G01*
X177638020Y-85398721D02*
G75*
G03*
X178340789Y-86047296I450510J-216879D01*
G01*
X177638016Y-85398719D02*
G75*
G03*
X177687501Y-85181842I-450866J216959D01*
G01*
X178340789Y-82910700D02*
G75*
G03*
X177638016Y-83559279I-252259J-431700D01*
G01*
X177687513Y-83776157D02*
G75*
G03*
X177638016Y-83559279I-500513J-143D01*
G01*
%TO.C,D33*%
X66787499Y-83776157D02*
X66787499Y-85181841D01*
X65881952Y-85978999D02*
X64293048Y-85978999D01*
X64293048Y-82979000D02*
X65881953Y-82979000D01*
X63387501Y-85181841D02*
X63387501Y-83776157D01*
X66787500Y-85181841D02*
G75*
G03*
X66836985Y-85398719I499989J-2D01*
G01*
X66134211Y-86047298D02*
G75*
G03*
X66836983Y-85398718I252259J431700D01*
G01*
X66836984Y-83559279D02*
G75*
G03*
X66787499Y-83776156I450505J-216876D01*
G01*
X66836984Y-83559279D02*
G75*
G03*
X66134211Y-82910701I-450514J216878D01*
G01*
X65881953Y-82979000D02*
G75*
G03*
X66134211Y-82910701I-3J500009D01*
G01*
X66134211Y-86047298D02*
G75*
G03*
X65881952Y-85978999I-252261J-431710D01*
G01*
X64040789Y-82910700D02*
G75*
G03*
X64293047Y-82978999I252261J431710D01*
G01*
X64293048Y-85979000D02*
G75*
G03*
X64040790Y-86047298I2J-500010D01*
G01*
X63338020Y-85398721D02*
G75*
G03*
X64040789Y-86047296I450510J-216879D01*
G01*
X63338016Y-85398719D02*
G75*
G03*
X63387501Y-85181842I-450866J216959D01*
G01*
X64040789Y-82910700D02*
G75*
G03*
X63338016Y-83559279I-252259J-431700D01*
G01*
X63387513Y-83776157D02*
G75*
G03*
X63338016Y-83559279I-500513J-143D01*
G01*
%TO.C,D41*%
X58625001Y-104231843D02*
X58625001Y-102826159D01*
X59530548Y-102029001D02*
X61119452Y-102029001D01*
X61119452Y-105029000D02*
X59530547Y-105029000D01*
X62024999Y-102826159D02*
X62024999Y-104231843D01*
X58625000Y-102826159D02*
G75*
G03*
X58575515Y-102609281I-499989J2D01*
G01*
X59278289Y-101960702D02*
G75*
G03*
X58575517Y-102609282I-252259J-431700D01*
G01*
X58575516Y-104448721D02*
G75*
G03*
X58625001Y-104231844I-450505J216876D01*
G01*
X58575516Y-104448721D02*
G75*
G03*
X59278289Y-105097299I450514J-216878D01*
G01*
X59530547Y-105029000D02*
G75*
G03*
X59278289Y-105097299I3J-500009D01*
G01*
X59278289Y-101960702D02*
G75*
G03*
X59530548Y-102029001I252261J431710D01*
G01*
X61371711Y-105097300D02*
G75*
G03*
X61119453Y-105029001I-252261J-431710D01*
G01*
X61119452Y-102029000D02*
G75*
G03*
X61371710Y-101960702I-2J500010D01*
G01*
X62074480Y-102609279D02*
G75*
G03*
X61371711Y-101960704I-450510J216879D01*
G01*
X62074484Y-102609281D02*
G75*
G03*
X62024999Y-102826158I450866J-216959D01*
G01*
X61371711Y-105097300D02*
G75*
G03*
X62074484Y-104448721I252259J431700D01*
G01*
X62024987Y-104231843D02*
G75*
G03*
X62074484Y-104448721I500513J143D01*
G01*
%TO.C,D23*%
X191975001Y-66131843D02*
X191975001Y-64726159D01*
X192880548Y-63929001D02*
X194469452Y-63929001D01*
X194469452Y-66929000D02*
X192880547Y-66929000D01*
X195374999Y-64726159D02*
X195374999Y-66131843D01*
X191975000Y-64726159D02*
G75*
G03*
X191925515Y-64509281I-499989J2D01*
G01*
X192628289Y-63860702D02*
G75*
G03*
X191925517Y-64509282I-252259J-431700D01*
G01*
X191925516Y-66348721D02*
G75*
G03*
X191975001Y-66131844I-450505J216876D01*
G01*
X191925516Y-66348721D02*
G75*
G03*
X192628289Y-66997299I450514J-216878D01*
G01*
X192880547Y-66929000D02*
G75*
G03*
X192628289Y-66997299I3J-500009D01*
G01*
X192628289Y-63860702D02*
G75*
G03*
X192880548Y-63929001I252261J431710D01*
G01*
X194721711Y-66997300D02*
G75*
G03*
X194469453Y-66929001I-252261J-431710D01*
G01*
X194469452Y-63929000D02*
G75*
G03*
X194721710Y-63860702I-2J500010D01*
G01*
X195424480Y-64509279D02*
G75*
G03*
X194721711Y-63860704I-450510J216879D01*
G01*
X195424484Y-64509281D02*
G75*
G03*
X195374999Y-64726158I450866J-216959D01*
G01*
X194721711Y-66997300D02*
G75*
G03*
X195424484Y-66348721I252259J431700D01*
G01*
X195374987Y-66131843D02*
G75*
G03*
X195424484Y-66348721I500513J143D01*
G01*
%TO.C,D39*%
X118156251Y-104231843D02*
X118156251Y-102826159D01*
X119061798Y-102029001D02*
X120650702Y-102029001D01*
X120650702Y-105029000D02*
X119061797Y-105029000D01*
X121556249Y-102826159D02*
X121556249Y-104231843D01*
X118156250Y-102826159D02*
G75*
G03*
X118106765Y-102609281I-499989J2D01*
G01*
X118809539Y-101960702D02*
G75*
G03*
X118106767Y-102609282I-252259J-431700D01*
G01*
X118106766Y-104448721D02*
G75*
G03*
X118156251Y-104231844I-450505J216876D01*
G01*
X118106766Y-104448721D02*
G75*
G03*
X118809539Y-105097299I450514J-216878D01*
G01*
X119061797Y-105029000D02*
G75*
G03*
X118809539Y-105097299I3J-500009D01*
G01*
X118809539Y-101960702D02*
G75*
G03*
X119061798Y-102029001I252261J431710D01*
G01*
X120902961Y-105097300D02*
G75*
G03*
X120650703Y-105029001I-252261J-431710D01*
G01*
X120650702Y-102029000D02*
G75*
G03*
X120902960Y-101960702I-2J500010D01*
G01*
X121605730Y-102609279D02*
G75*
G03*
X120902961Y-101960704I-450510J216879D01*
G01*
X121605734Y-102609281D02*
G75*
G03*
X121556249Y-102826158I450866J-216959D01*
G01*
X120902961Y-105097300D02*
G75*
G03*
X121605734Y-104448721I252259J431700D01*
G01*
X121556237Y-104231843D02*
G75*
G03*
X121605734Y-104448721I500513J143D01*
G01*
%TD*%
M02*
