%TF.GenerationSoftware,KiCad,Pcbnew,8.0.8*%
%TF.CreationDate,2025-02-11T14:29:33+01:00*%
%TF.ProjectId,vootington V4N STM32G0B1CBT6,766f6f74-696e-4677-946f-6e2056344e20,rev?*%
%TF.SameCoordinates,Original*%
%TF.FileFunction,Soldermask,Top*%
%TF.FilePolarity,Negative*%
%FSLAX46Y46*%
G04 Gerber Fmt 4.6, Leading zero omitted, Abs format (unit mm)*
G04 Created by KiCad (PCBNEW 8.0.8) date 2025-02-11 14:29:33*
%MOMM*%
%LPD*%
G01*
G04 APERTURE LIST*
%ADD10C,2.200000*%
%ADD11C,1.700000*%
%ADD12C,3.048000*%
%ADD13C,3.987800*%
%ADD14R,1.700000X1.700000*%
%ADD15O,1.700000X1.700000*%
%ADD16C,0.650000*%
%ADD17O,1.000000X1.600000*%
%ADD18O,1.000000X2.100000*%
G04 APERTURE END LIST*
D10*
%TO.C,H10*%
X142875000Y-98425000D03*
%TD*%
%TO.C,H6*%
X106744954Y-70226862D03*
%TD*%
D11*
%TO.C,K_33*%
X83820000Y-79375000D03*
X93980000Y-79375000D03*
%TD*%
%TO.C,K_25*%
X150495000Y-60325000D03*
X160655000Y-60325000D03*
%TD*%
%TO.C,K_32*%
X64770000Y-79375000D03*
X74930000Y-79375000D03*
%TD*%
%TO.C,K_45*%
X76676250Y-98425000D03*
X86836250Y-98425000D03*
%TD*%
%TO.C,K_30*%
X250507500Y-60325000D03*
X260667500Y-60325000D03*
%TD*%
%TO.C,K_10*%
X88582500Y-41275000D03*
X98742500Y-41275000D03*
%TD*%
%TO.C,K_20*%
X55245000Y-60325000D03*
X65405000Y-60325000D03*
%TD*%
D10*
%TO.C,H13*%
X240506250Y-42068750D03*
%TD*%
D11*
%TO.C,K_28*%
X207645000Y-60325000D03*
X217805000Y-60325000D03*
%TD*%
%TO.C,K_16*%
X202882500Y-41275000D03*
X213042500Y-41275000D03*
%TD*%
%TO.C,K_44*%
X55245000Y-98425000D03*
X65405000Y-98425000D03*
%TD*%
D10*
%TO.C,H2*%
X131762500Y-22225000D03*
%TD*%
D11*
%TO.C,K_38*%
X179070000Y-79375000D03*
X189230000Y-79375000D03*
%TD*%
%TO.C,K_15*%
X183832500Y-41275000D03*
X193992500Y-41275000D03*
%TD*%
%TO.C,K_26*%
X169545000Y-60325000D03*
X179705000Y-60325000D03*
%TD*%
D10*
%TO.C,H7*%
X94456250Y-98425000D03*
%TD*%
D11*
%TO.C,K_34*%
X102870000Y-79375000D03*
X113030000Y-79375000D03*
%TD*%
%TO.C,K_17*%
X221932500Y-41275000D03*
X232092500Y-41275000D03*
%TD*%
%TO.C,K_23*%
X112395000Y-60325000D03*
X122555000Y-60325000D03*
%TD*%
D10*
%TO.C,H15*%
X250825000Y-98425000D03*
%TD*%
D11*
%TO.C,K_3*%
X79057500Y-22225000D03*
X89217500Y-22225000D03*
%TD*%
%TO.C,K_31*%
X38576250Y-79375000D03*
X48736250Y-79375000D03*
%TD*%
D10*
%TO.C,H14*%
X226218750Y-72531250D03*
%TD*%
D11*
%TO.C,K_36*%
X140970000Y-79375000D03*
X151130000Y-79375000D03*
%TD*%
%TO.C,K_12*%
X126682500Y-41275000D03*
X136842500Y-41275000D03*
%TD*%
%TO.C,K_4*%
X98107500Y-22225000D03*
X108267500Y-22225000D03*
%TD*%
%TO.C,K_27*%
X188595000Y-60325000D03*
X198755000Y-60325000D03*
%TD*%
%TO.C,K_8*%
X50482500Y-41275000D03*
X60642500Y-41275000D03*
%TD*%
D10*
%TO.C,H12*%
X211137500Y-98425000D03*
%TD*%
D11*
%TO.C,K_1*%
X40957500Y-22225000D03*
X51117500Y-22225000D03*
%TD*%
D12*
%TO.C,S1*%
X131762500Y-105410000D03*
D13*
X131762500Y-90170000D03*
D12*
X107950000Y-105410000D03*
D13*
X107950000Y-90170000D03*
%TD*%
D11*
%TO.C,K_39*%
X198120000Y-79375000D03*
X208280000Y-79375000D03*
%TD*%
%TO.C,K_9*%
X69532500Y-41275000D03*
X79692500Y-41275000D03*
%TD*%
D10*
%TO.C,H5*%
X84137500Y-41275000D03*
%TD*%
%TO.C,H11*%
X69850000Y-60325000D03*
%TD*%
D11*
%TO.C,K_11*%
X107632500Y-41275000D03*
X117792500Y-41275000D03*
%TD*%
%TO.C,K_18*%
X248126250Y-41275000D03*
X258286250Y-41275000D03*
%TD*%
%TO.C,K_40*%
X217170000Y-79375000D03*
X227330000Y-79375000D03*
%TD*%
%TO.C,K_13*%
X145732500Y-41275000D03*
X155892500Y-41275000D03*
%TD*%
%TO.C,K_5*%
X117157500Y-22225000D03*
X127317500Y-22225000D03*
%TD*%
D10*
%TO.C,H8*%
X141287500Y-41275000D03*
%TD*%
%TO.C,H16*%
X267493750Y-74612500D03*
%TD*%
%TO.C,H9*%
X184943750Y-70643750D03*
%TD*%
D11*
%TO.C,K_35*%
X121920000Y-79375000D03*
X132080000Y-79375000D03*
%TD*%
%TO.C,K_51*%
X236220000Y-98425000D03*
X246380000Y-98425000D03*
%TD*%
D12*
%TO.C,S2*%
X203193650Y-105410000D03*
D13*
X203193650Y-90170000D03*
D12*
X103181150Y-105410000D03*
D13*
X103181150Y-90170000D03*
%TD*%
D11*
%TO.C,K_6*%
X136207500Y-22225000D03*
X146367500Y-22225000D03*
%TD*%
%TO.C,K_41*%
X236220000Y-79375000D03*
X246380000Y-79375000D03*
%TD*%
%TO.C,K_50*%
X217170000Y-98425000D03*
X227330000Y-98425000D03*
%TD*%
%TO.C,K_48*%
X162401250Y-98425000D03*
X172561250Y-98425000D03*
%TD*%
%TO.C,K_29*%
X226695000Y-60325000D03*
X236855000Y-60325000D03*
%TD*%
%TO.C,K_46*%
X114776250Y-98425000D03*
X124936250Y-98425000D03*
%TD*%
%TO.C,K_22*%
X93345000Y-60325000D03*
X103505000Y-60325000D03*
%TD*%
%TO.C,K_49*%
X195738750Y-98425000D03*
X205898750Y-98425000D03*
%TD*%
%TO.C,K_21*%
X74295000Y-60325000D03*
X84455000Y-60325000D03*
%TD*%
%TO.C,K_14*%
X164782500Y-41275000D03*
X174942500Y-41275000D03*
%TD*%
%TO.C,K_43*%
X33813750Y-98425000D03*
X43973750Y-98425000D03*
%TD*%
D10*
%TO.C,H4*%
X49212500Y-98425000D03*
%TD*%
D11*
%TO.C,K_24*%
X131445000Y-60325000D03*
X141605000Y-60325000D03*
%TD*%
%TO.C,K_19*%
X33813750Y-60325000D03*
X43973750Y-60325000D03*
%TD*%
%TO.C,K_47*%
X148107400Y-98425000D03*
X158267400Y-98425000D03*
%TD*%
%TO.C,K_42*%
X255270000Y-79375000D03*
X265430000Y-79375000D03*
%TD*%
D10*
%TO.C,H1*%
X37306250Y-22225000D03*
%TD*%
D11*
%TO.C,K_7*%
X31432500Y-41275000D03*
X41592500Y-41275000D03*
%TD*%
%TO.C,K_37*%
X160020000Y-79375000D03*
X170180000Y-79375000D03*
%TD*%
%TO.C,K_52*%
X255270000Y-98425000D03*
X265430000Y-98425000D03*
%TD*%
%TO.C,K_2*%
X60007500Y-22225000D03*
X70167500Y-22225000D03*
%TD*%
D10*
%TO.C,H3*%
X155575000Y-79375000D03*
%TD*%
D12*
%TO.C,S3*%
X179387500Y-105410000D03*
D13*
X179387500Y-90170000D03*
D12*
X155575000Y-105410000D03*
D13*
X155575000Y-90170000D03*
%TD*%
D14*
%TO.C,J1*%
X41375000Y-56356250D03*
D15*
X41375000Y-53816250D03*
X41375000Y-51276250D03*
X41375000Y-48736250D03*
%TD*%
D16*
%TO.C,J2*%
X52609000Y-16890625D03*
X58389000Y-16890625D03*
D17*
X51179000Y-13240625D03*
D18*
X51179000Y-17420625D03*
D17*
X59819000Y-13240625D03*
D18*
X59819000Y-17420625D03*
%TD*%
M02*
