M48
; DRILL file {KiCad (7.0.0)} date Sun Sep 24 22:25:07 2023
; FORMAT={-:-/ absolute / inch / decimal}
; #@! TF.CreationDate,2023-09-24T22:25:07+02:00
; #@! TF.GenerationSoftware,Kicad,Pcbnew,(7.0.0)
; #@! TF.FileFunction,NonPlated,1,2,NPTH
FMAT,2
INCH
; #@! TA.AperFunction,NonPlated,NPTH,ComponentDrill
T1C0.0256
; #@! TA.AperFunction,NonPlated,NPTH,ComponentDrill
T2C0.0669
; #@! TA.AperFunction,NonPlated,NPTH,ComponentDrill
T3C0.0866
; #@! TA.AperFunction,NonPlated,NPTH,ComponentDrill
T4C0.1200
; #@! TA.AperFunction,NonPlated,NPTH,ComponentDrill
T5C0.1570
%
G90
G05
T1
X9.3387Y-1.4461
X9.5663Y-1.4461
T2
X1.2375Y-1.625
X1.3313Y-2.375
X1.3313Y-3.875
X1.425Y-3.125
X1.6375Y-1.625
X1.7312Y-2.375
X1.7312Y-3.875
X1.825Y-3.125
X1.9875Y-1.625
X2.175Y-2.375
X2.175Y-3.875
X2.3625Y-3.125
X2.3875Y-1.625
X2.575Y-2.375
X2.575Y-3.875
X2.7375Y-1.625
X2.7625Y-3.125
X2.925Y-2.375
X3.0187Y-3.875
X3.1125Y-3.125
X3.1375Y-1.625
X3.325Y-2.375
X3.4187Y-3.875
X3.4875Y-1.625
X3.5125Y-3.125
X3.675Y-2.375
X3.8625Y-3.125
X3.8875Y-1.625
X4.075Y-2.375
X4.2375Y-1.625
X4.2625Y-3.125
X4.425Y-2.375
X4.5187Y-3.875
X4.6125Y-3.125
X4.6375Y-1.625
X4.825Y-2.375
X4.9188Y-3.875
X4.9875Y-1.625
X5.0125Y-3.125
X5.175Y-2.375
X5.3625Y-3.125
X5.3875Y-1.625
X5.575Y-2.375
X5.7375Y-1.625
X5.7625Y-3.125
X5.831Y-3.875
X5.925Y-2.375
X6.1125Y-3.125
X6.1375Y-1.625
X6.231Y-3.875
X6.325Y-2.375
X6.3937Y-3.875
X6.4875Y-1.625
X6.5125Y-3.125
X6.675Y-2.375
X6.7938Y-3.875
X6.8625Y-3.125
X6.8875Y-1.625
X7.075Y-2.375
X7.2375Y-1.625
X7.2625Y-3.125
X7.425Y-2.375
X7.6125Y-3.125
X7.6375Y-1.625
X7.7062Y-3.875
X7.825Y-2.375
X7.9875Y-1.625
X8.0125Y-3.125
X8.1062Y-3.875
X8.175Y-2.375
X8.3625Y-3.125
X8.3875Y-1.625
X8.55Y-3.875
X8.575Y-2.375
X8.7375Y-1.625
X8.7625Y-3.125
X8.925Y-2.375
X8.95Y-3.875
X9.1125Y-3.125
X9.1375Y-1.625
X9.3Y-3.875
X9.325Y-2.375
X9.5125Y-3.125
X9.7Y-3.875
X9.7687Y-1.625
X9.8625Y-2.375
X9.9562Y-2.75
X9.9562Y-3.125
X10.05Y-3.875
X10.1687Y-1.625
X10.2625Y-2.375
X10.3562Y-2.75
X10.3562Y-3.125
X10.45Y-3.875
T3
X2.2329Y-3.369
X2.2958Y-2.0
X5.2958Y-2.0
X6.5025Y-2.75
X8.2405Y-3.8308
X9.3529Y-1.9163
T4
X4.0622Y-4.15
X4.25Y-4.15
X5.1875Y-4.15
X6.125Y-4.15
X7.0625Y-4.15
X7.9997Y-4.15
X10.4313Y-2.2812
X10.4313Y-3.2188
T5
X4.0622Y-3.55
X4.25Y-3.55
X5.1875Y-3.55
X6.125Y-3.55
X7.0625Y-3.55
X7.9997Y-3.55
X9.8312Y-2.2812
X9.8312Y-3.2188
T0
M30
