M48
; DRILL file {KiCad 8.0.8} date 2025-02-11T14:29:33+0100
; FORMAT={-:-/ absolute / inch / decimal}
; #@! TF.CreationDate,2025-02-11T14:29:33+01:00
; #@! TF.GenerationSoftware,Kicad,Pcbnew,8.0.8
; #@! TF.FileFunction,NonPlated,1,2,NPTH
FMAT,2
INCH
; #@! TA.AperFunction,NonPlated,NPTH,ComponentDrill
T1C0.0256
; #@! TA.AperFunction,NonPlated,NPTH,ComponentDrill
T2C0.0669
; #@! TA.AperFunction,NonPlated,NPTH,ComponentDrill
T3C0.0866
; #@! TA.AperFunction,NonPlated,NPTH,ComponentDrill
T4C0.1200
; #@! TA.AperFunction,NonPlated,NPTH,ComponentDrill
T5C0.1570
%
G90
G05
T1
X2.0712Y-0.665
X2.2988Y-0.665
T2
X1.2375Y-1.625
X1.3313Y-2.375
X1.3313Y-3.875
X1.5188Y-3.125
X1.6125Y-0.875
X1.6375Y-1.625
X1.7312Y-2.375
X1.7312Y-3.875
X1.9187Y-3.125
X1.9875Y-1.625
X2.0125Y-0.875
X2.175Y-2.375
X2.175Y-3.875
X2.3625Y-0.875
X2.3875Y-1.625
X2.55Y-3.125
X2.575Y-2.375
X2.575Y-3.875
X2.7375Y-1.625
X2.7625Y-0.875
X2.925Y-2.375
X2.95Y-3.125
X3.0187Y-3.875
X3.1125Y-0.875
X3.1375Y-1.625
X3.3Y-3.125
X3.325Y-2.375
X3.4187Y-3.875
X3.4875Y-1.625
X3.5125Y-0.875
X3.675Y-2.375
X3.7Y-3.125
X3.8625Y-0.875
X3.8875Y-1.625
X4.05Y-3.125
X4.075Y-2.375
X4.2375Y-1.625
X4.2625Y-0.875
X4.425Y-2.375
X4.45Y-3.125
X4.5187Y-3.875
X4.6125Y-0.875
X4.6375Y-1.625
X4.8Y-3.125
X4.825Y-2.375
X4.9188Y-3.875
X4.9875Y-1.625
X5.0125Y-0.875
X5.175Y-2.375
X5.2Y-3.125
X5.3625Y-0.875
X5.3875Y-1.625
X5.55Y-3.125
X5.575Y-2.375
X5.7375Y-1.625
X5.7625Y-0.875
X5.831Y-3.875
X5.925Y-2.375
X5.95Y-3.125
X6.1375Y-1.625
X6.231Y-3.875
X6.3Y-3.125
X6.325Y-2.375
X6.3937Y-3.875
X6.4875Y-1.625
X6.675Y-2.375
X6.7Y-3.125
X6.7938Y-3.875
X6.8875Y-1.625
X7.05Y-3.125
X7.075Y-2.375
X7.2375Y-1.625
X7.425Y-2.375
X7.45Y-3.125
X7.6375Y-1.625
X7.7062Y-3.875
X7.8Y-3.125
X7.825Y-2.375
X7.9875Y-1.625
X8.1062Y-3.875
X8.175Y-2.375
X8.2Y-3.125
X8.3875Y-1.625
X8.55Y-3.125
X8.55Y-3.875
X8.575Y-2.375
X8.7375Y-1.625
X8.925Y-2.375
X8.95Y-3.125
X8.95Y-3.875
X9.1375Y-1.625
X9.3Y-3.125
X9.3Y-3.875
X9.325Y-2.375
X9.7Y-3.125
X9.7Y-3.875
X9.7687Y-1.625
X9.8625Y-2.375
X10.05Y-3.125
X10.05Y-3.875
X10.1687Y-1.625
X10.2625Y-2.375
X10.45Y-3.125
X10.45Y-3.875
T3
X1.4688Y-0.875
X1.9375Y-3.875
X2.75Y-2.375
X3.3125Y-1.625
X3.7188Y-3.875
X4.2026Y-2.7648
X5.1875Y-0.875
X5.5625Y-1.625
X5.625Y-3.875
X6.125Y-3.125
X7.2812Y-2.7812
X8.3125Y-3.875
X8.9062Y-2.8556
X9.4688Y-1.6562
X9.875Y-3.875
X10.5312Y-2.9375
T4
X4.0622Y-4.15
X4.25Y-4.15
X5.1875Y-4.15
X6.125Y-4.15
X7.0625Y-4.15
X7.9997Y-4.15
T5
X4.0622Y-3.55
X4.25Y-3.55
X5.1875Y-3.55
X6.125Y-3.55
X7.0625Y-3.55
X7.9997Y-3.55
M30
