%TF.GenerationSoftware,KiCad,Pcbnew,8.0.8*%
%TF.CreationDate,2025-02-11T14:29:33+01:00*%
%TF.ProjectId,vootington V4N STM32G0B1CBT6,766f6f74-696e-4677-946f-6e2056344e20,rev?*%
%TF.SameCoordinates,Original*%
%TF.FileFunction,Legend,Bot*%
%TF.FilePolarity,Positive*%
%FSLAX46Y46*%
G04 Gerber Fmt 4.6, Leading zero omitted, Abs format (unit mm)*
G04 Created by KiCad (PCBNEW 8.0.8) date 2025-02-11 14:29:33*
%MOMM*%
%LPD*%
G01*
G04 APERTURE LIST*
G04 Aperture macros list*
%AMRoundRect*
0 Rectangle with rounded corners*
0 $1 Rounding radius*
0 $2 $3 $4 $5 $6 $7 $8 $9 X,Y pos of 4 corners*
0 Add a 4 corners polygon primitive as box body*
4,1,4,$2,$3,$4,$5,$6,$7,$8,$9,$2,$3,0*
0 Add four circle primitives for the rounded corners*
1,1,$1+$1,$2,$3*
1,1,$1+$1,$4,$5*
1,1,$1+$1,$6,$7*
1,1,$1+$1,$8,$9*
0 Add four rect primitives between the rounded corners*
20,1,$1+$1,$2,$3,$4,$5,0*
20,1,$1+$1,$4,$5,$6,$7,0*
20,1,$1+$1,$6,$7,$8,$9,0*
20,1,$1+$1,$8,$9,$2,$3,0*%
G04 Aperture macros list end*
%ADD10C,0.150000*%
%ADD11C,0.500000*%
%ADD12C,0.200000*%
%ADD13C,0.120000*%
%ADD14C,0.100000*%
%ADD15C,0.002540*%
%ADD16C,0.170180*%
%ADD17C,0.000000*%
%ADD18C,2.200000*%
%ADD19C,1.700000*%
%ADD20C,3.048000*%
%ADD21C,3.987800*%
%ADD22RoundRect,0.140000X0.140000X0.170000X-0.140000X0.170000X-0.140000X-0.170000X0.140000X-0.170000X0*%
%ADD23RoundRect,0.205000X-0.205000X0.645000X-0.205000X-0.645000X0.205000X-0.645000X0.205000X0.645000X0*%
%ADD24R,0.820000X1.700000*%
%ADD25RoundRect,0.140000X-0.140000X-0.170000X0.140000X-0.170000X0.140000X0.170000X-0.140000X0.170000X0*%
%ADD26RoundRect,0.150000X0.150000X-0.512500X0.150000X0.512500X-0.150000X0.512500X-0.150000X-0.512500X0*%
%ADD27R,1.778000X0.419100*%
%ADD28RoundRect,0.205000X0.645000X0.205000X-0.645000X0.205000X-0.645000X-0.205000X0.645000X-0.205000X0*%
%ADD29R,1.700000X0.820000*%
%ADD30RoundRect,0.150000X0.587500X0.150000X-0.587500X0.150000X-0.587500X-0.150000X0.587500X-0.150000X0*%
%ADD31RoundRect,0.205000X-0.645000X-0.205000X0.645000X-0.205000X0.645000X0.205000X-0.645000X0.205000X0*%
%ADD32RoundRect,0.200000X0.800000X-0.200000X0.800000X0.200000X-0.800000X0.200000X-0.800000X-0.200000X0*%
%ADD33RoundRect,0.150000X-0.587500X-0.150000X0.587500X-0.150000X0.587500X0.150000X-0.587500X0.150000X0*%
%ADD34RoundRect,0.135000X-0.135000X-0.185000X0.135000X-0.185000X0.135000X0.185000X-0.135000X0.185000X0*%
%ADD35RoundRect,0.135000X0.185000X-0.135000X0.185000X0.135000X-0.185000X0.135000X-0.185000X-0.135000X0*%
%ADD36R,0.700000X1.000000*%
%ADD37R,0.700000X0.600000*%
%ADD38RoundRect,0.140000X-0.170000X0.140000X-0.170000X-0.140000X0.170000X-0.140000X0.170000X0.140000X0*%
%ADD39RoundRect,0.150000X-0.512500X-0.150000X0.512500X-0.150000X0.512500X0.150000X-0.512500X0.150000X0*%
%ADD40R,1.700000X1.700000*%
%ADD41O,1.700000X1.700000*%
%ADD42RoundRect,0.147500X-0.147500X-0.172500X0.147500X-0.172500X0.147500X0.172500X-0.147500X0.172500X0*%
%ADD43RoundRect,0.075000X0.662500X0.075000X-0.662500X0.075000X-0.662500X-0.075000X0.662500X-0.075000X0*%
%ADD44RoundRect,0.075000X0.075000X0.662500X-0.075000X0.662500X-0.075000X-0.662500X0.075000X-0.662500X0*%
%ADD45C,0.650000*%
%ADD46R,0.600000X1.450000*%
%ADD47R,0.300000X1.450000*%
%ADD48O,1.000000X1.600000*%
%ADD49O,1.000000X2.100000*%
%ADD50RoundRect,0.150000X-0.275000X0.150000X-0.275000X-0.150000X0.275000X-0.150000X0.275000X0.150000X0*%
%ADD51RoundRect,0.175000X-0.225000X0.175000X-0.225000X-0.175000X0.225000X-0.175000X0.225000X0.175000X0*%
%ADD52RoundRect,0.135000X0.135000X0.185000X-0.135000X0.185000X-0.135000X-0.185000X0.135000X-0.185000X0*%
%ADD53RoundRect,0.225000X0.375000X-0.225000X0.375000X0.225000X-0.375000X0.225000X-0.375000X-0.225000X0*%
%ADD54RoundRect,0.140000X0.170000X-0.140000X0.170000X0.140000X-0.170000X0.140000X-0.170000X-0.140000X0*%
%ADD55RoundRect,0.150000X-0.625000X0.150000X-0.625000X-0.150000X0.625000X-0.150000X0.625000X0.150000X0*%
%ADD56RoundRect,0.250000X-0.650000X0.350000X-0.650000X-0.350000X0.650000X-0.350000X0.650000X0.350000X0*%
%ADD57RoundRect,0.250000X-0.625000X0.375000X-0.625000X-0.375000X0.625000X-0.375000X0.625000X0.375000X0*%
G04 APERTURE END LIST*
D10*
X59257738Y-14643545D02*
X59257738Y-15214973D01*
X59257738Y-15214973D02*
X59295833Y-15329259D01*
X59295833Y-15329259D02*
X59372024Y-15405450D01*
X59372024Y-15405450D02*
X59486309Y-15443545D01*
X59486309Y-15443545D02*
X59562500Y-15443545D01*
X58495833Y-15443545D02*
X58876785Y-15443545D01*
X58876785Y-15443545D02*
X58876785Y-14643545D01*
X57772023Y-15367354D02*
X57810119Y-15405450D01*
X57810119Y-15405450D02*
X57924404Y-15443545D01*
X57924404Y-15443545D02*
X58000595Y-15443545D01*
X58000595Y-15443545D02*
X58114881Y-15405450D01*
X58114881Y-15405450D02*
X58191071Y-15329259D01*
X58191071Y-15329259D02*
X58229166Y-15253069D01*
X58229166Y-15253069D02*
X58267262Y-15100688D01*
X58267262Y-15100688D02*
X58267262Y-14986402D01*
X58267262Y-14986402D02*
X58229166Y-14834021D01*
X58229166Y-14834021D02*
X58191071Y-14757830D01*
X58191071Y-14757830D02*
X58114881Y-14681640D01*
X58114881Y-14681640D02*
X58000595Y-14643545D01*
X58000595Y-14643545D02*
X57924404Y-14643545D01*
X57924404Y-14643545D02*
X57810119Y-14681640D01*
X57810119Y-14681640D02*
X57772023Y-14719735D01*
X57200595Y-14643545D02*
X57200595Y-15214973D01*
X57200595Y-15214973D02*
X57238690Y-15329259D01*
X57238690Y-15329259D02*
X57314881Y-15405450D01*
X57314881Y-15405450D02*
X57429166Y-15443545D01*
X57429166Y-15443545D02*
X57505357Y-15443545D01*
X56438690Y-15443545D02*
X56819642Y-15443545D01*
X56819642Y-15443545D02*
X56819642Y-14643545D01*
X55714880Y-15367354D02*
X55752976Y-15405450D01*
X55752976Y-15405450D02*
X55867261Y-15443545D01*
X55867261Y-15443545D02*
X55943452Y-15443545D01*
X55943452Y-15443545D02*
X56057738Y-15405450D01*
X56057738Y-15405450D02*
X56133928Y-15329259D01*
X56133928Y-15329259D02*
X56172023Y-15253069D01*
X56172023Y-15253069D02*
X56210119Y-15100688D01*
X56210119Y-15100688D02*
X56210119Y-14986402D01*
X56210119Y-14986402D02*
X56172023Y-14834021D01*
X56172023Y-14834021D02*
X56133928Y-14757830D01*
X56133928Y-14757830D02*
X56057738Y-14681640D01*
X56057738Y-14681640D02*
X55943452Y-14643545D01*
X55943452Y-14643545D02*
X55867261Y-14643545D01*
X55867261Y-14643545D02*
X55752976Y-14681640D01*
X55752976Y-14681640D02*
X55714880Y-14719735D01*
X55143452Y-14643545D02*
X55143452Y-15214973D01*
X55143452Y-15214973D02*
X55181547Y-15329259D01*
X55181547Y-15329259D02*
X55257738Y-15405450D01*
X55257738Y-15405450D02*
X55372023Y-15443545D01*
X55372023Y-15443545D02*
X55448214Y-15443545D01*
X54381547Y-15443545D02*
X54762499Y-15443545D01*
X54762499Y-15443545D02*
X54762499Y-14643545D01*
X53657737Y-15367354D02*
X53695833Y-15405450D01*
X53695833Y-15405450D02*
X53810118Y-15443545D01*
X53810118Y-15443545D02*
X53886309Y-15443545D01*
X53886309Y-15443545D02*
X54000595Y-15405450D01*
X54000595Y-15405450D02*
X54076785Y-15329259D01*
X54076785Y-15329259D02*
X54114880Y-15253069D01*
X54114880Y-15253069D02*
X54152976Y-15100688D01*
X54152976Y-15100688D02*
X54152976Y-14986402D01*
X54152976Y-14986402D02*
X54114880Y-14834021D01*
X54114880Y-14834021D02*
X54076785Y-14757830D01*
X54076785Y-14757830D02*
X54000595Y-14681640D01*
X54000595Y-14681640D02*
X53886309Y-14643545D01*
X53886309Y-14643545D02*
X53810118Y-14643545D01*
X53810118Y-14643545D02*
X53695833Y-14681640D01*
X53695833Y-14681640D02*
X53657737Y-14719735D01*
X53086309Y-14643545D02*
X53086309Y-15214973D01*
X53086309Y-15214973D02*
X53124404Y-15329259D01*
X53124404Y-15329259D02*
X53200595Y-15405450D01*
X53200595Y-15405450D02*
X53314880Y-15443545D01*
X53314880Y-15443545D02*
X53391071Y-15443545D01*
X52324404Y-15443545D02*
X52705356Y-15443545D01*
X52705356Y-15443545D02*
X52705356Y-14643545D01*
X51600594Y-15367354D02*
X51638690Y-15405450D01*
X51638690Y-15405450D02*
X51752975Y-15443545D01*
X51752975Y-15443545D02*
X51829166Y-15443545D01*
X51829166Y-15443545D02*
X51943452Y-15405450D01*
X51943452Y-15405450D02*
X52019642Y-15329259D01*
X52019642Y-15329259D02*
X52057737Y-15253069D01*
X52057737Y-15253069D02*
X52095833Y-15100688D01*
X52095833Y-15100688D02*
X52095833Y-14986402D01*
X52095833Y-14986402D02*
X52057737Y-14834021D01*
X52057737Y-14834021D02*
X52019642Y-14757830D01*
X52019642Y-14757830D02*
X51943452Y-14681640D01*
X51943452Y-14681640D02*
X51829166Y-14643545D01*
X51829166Y-14643545D02*
X51752975Y-14643545D01*
X51752975Y-14643545D02*
X51638690Y-14681640D01*
X51638690Y-14681640D02*
X51600594Y-14719735D01*
D11*
G36*
X252568435Y-50315813D02*
G01*
X252657767Y-50340665D01*
X252710828Y-50366188D01*
X252741053Y-50399100D01*
X252762547Y-50444102D01*
X253297194Y-51773333D01*
X253349584Y-51849231D01*
X253430185Y-51910353D01*
X253526233Y-51954683D01*
X253622282Y-51984236D01*
X254289248Y-50444102D01*
X254351041Y-50364845D01*
X254477659Y-50317122D01*
X254483360Y-50315813D01*
X254483360Y-50178793D01*
X253627655Y-50178793D01*
X253627655Y-50315813D01*
X253744525Y-50335963D01*
X253806990Y-50360143D01*
X253826469Y-50394398D01*
X253813035Y-50444102D01*
X253406676Y-51389810D01*
X253025169Y-50444102D01*
X253013079Y-50396413D01*
X253027184Y-50362158D01*
X253078231Y-50337978D01*
X253178309Y-50315813D01*
X253178309Y-50178793D01*
X252568435Y-50178793D01*
X252568435Y-50315813D01*
G37*
G36*
X251600519Y-50140886D02*
G01*
X251742861Y-50167553D01*
X251875945Y-50217078D01*
X251958351Y-50261030D01*
X252071096Y-50339395D01*
X252170807Y-50432684D01*
X252229201Y-50502327D01*
X252304039Y-50616080D01*
X252363576Y-50740979D01*
X252393549Y-50828338D01*
X252422452Y-50962052D01*
X252432086Y-51098978D01*
X252429161Y-51181083D01*
X252410538Y-51315553D01*
X252370964Y-51452275D01*
X252350441Y-51501972D01*
X252285720Y-51620898D01*
X252197674Y-51732361D01*
X252161684Y-51767863D01*
X252048696Y-51854183D01*
X251927664Y-51917069D01*
X251856578Y-51943241D01*
X251715354Y-51974791D01*
X251574366Y-51984236D01*
X251466467Y-51977294D01*
X251331894Y-51947966D01*
X251231414Y-51910702D01*
X251110916Y-51846544D01*
X251024008Y-51784192D01*
X250922849Y-51690046D01*
X250852838Y-51607748D01*
X250776425Y-51493247D01*
X250727755Y-51397487D01*
X250681048Y-51267567D01*
X250657632Y-51161797D01*
X250654993Y-51127860D01*
X251123006Y-51127860D01*
X251127433Y-51264866D01*
X251143156Y-51401229D01*
X251158085Y-51471924D01*
X251210322Y-51602057D01*
X251232274Y-51636043D01*
X251333238Y-51726987D01*
X251383993Y-51749302D01*
X251521976Y-51769303D01*
X251559498Y-51766699D01*
X251687207Y-51714897D01*
X251739012Y-51672350D01*
X251825570Y-51565116D01*
X251875670Y-51468468D01*
X251919604Y-51341450D01*
X251945799Y-51208628D01*
X251954530Y-51066738D01*
X251950693Y-50936894D01*
X251937067Y-50800086D01*
X251921345Y-50719088D01*
X251873259Y-50586495D01*
X251848449Y-50543635D01*
X251750343Y-50444774D01*
X251692478Y-50415711D01*
X251555560Y-50393727D01*
X251502808Y-50398455D01*
X251379583Y-50453505D01*
X251322533Y-50503786D01*
X251242563Y-50614034D01*
X251194795Y-50716053D01*
X251154574Y-50848446D01*
X251152632Y-50856771D01*
X251129942Y-50993539D01*
X251123006Y-51127860D01*
X250654993Y-51127860D01*
X250646793Y-51022408D01*
X250649686Y-50940565D01*
X250668104Y-50806394D01*
X250707243Y-50669782D01*
X250727413Y-50620070D01*
X250791826Y-50500947D01*
X250880534Y-50389025D01*
X250916701Y-50353136D01*
X251029835Y-50266082D01*
X251150544Y-50202973D01*
X251221009Y-50176802D01*
X251360912Y-50145252D01*
X251500483Y-50135806D01*
X251600519Y-50140886D01*
G37*
G36*
X249580143Y-50140886D02*
G01*
X249722484Y-50167553D01*
X249855568Y-50217078D01*
X249937974Y-50261030D01*
X250050719Y-50339395D01*
X250150431Y-50432684D01*
X250208824Y-50502327D01*
X250283662Y-50616080D01*
X250343199Y-50740979D01*
X250373172Y-50828338D01*
X250402075Y-50962052D01*
X250411709Y-51098978D01*
X250408785Y-51181083D01*
X250390162Y-51315553D01*
X250350588Y-51452275D01*
X250330064Y-51501972D01*
X250265344Y-51620898D01*
X250177297Y-51732361D01*
X250141307Y-51767863D01*
X250028320Y-51854183D01*
X249907287Y-51917069D01*
X249836202Y-51943241D01*
X249694977Y-51974791D01*
X249553990Y-51984236D01*
X249446090Y-51977294D01*
X249311518Y-51947966D01*
X249211038Y-51910702D01*
X249090539Y-51846544D01*
X249003631Y-51784192D01*
X248902472Y-51690046D01*
X248832461Y-51607748D01*
X248756048Y-51493247D01*
X248707379Y-51397487D01*
X248660671Y-51267567D01*
X248637255Y-51161797D01*
X248634616Y-51127860D01*
X249102629Y-51127860D01*
X249107056Y-51264866D01*
X249122779Y-51401229D01*
X249137708Y-51471924D01*
X249189946Y-51602057D01*
X249211897Y-51636043D01*
X249312861Y-51726987D01*
X249363616Y-51749302D01*
X249501599Y-51769303D01*
X249539121Y-51766699D01*
X249666830Y-51714897D01*
X249718635Y-51672350D01*
X249805193Y-51565116D01*
X249855293Y-51468468D01*
X249899227Y-51341450D01*
X249925422Y-51208628D01*
X249934154Y-51066738D01*
X249930316Y-50936894D01*
X249916690Y-50800086D01*
X249900968Y-50719088D01*
X249852882Y-50586495D01*
X249828072Y-50543635D01*
X249729967Y-50444774D01*
X249672101Y-50415711D01*
X249535183Y-50393727D01*
X249482431Y-50398455D01*
X249359206Y-50453505D01*
X249302156Y-50503786D01*
X249222186Y-50614034D01*
X249174418Y-50716053D01*
X249134197Y-50848446D01*
X249132255Y-50856771D01*
X249109565Y-50993539D01*
X249102629Y-51127860D01*
X248634616Y-51127860D01*
X248626416Y-51022408D01*
X248629309Y-50940565D01*
X248647727Y-50806394D01*
X248686866Y-50669782D01*
X248707036Y-50620070D01*
X248771449Y-50500947D01*
X248860157Y-50389025D01*
X248896324Y-50353136D01*
X249009459Y-50266082D01*
X249130167Y-50202973D01*
X249200633Y-50176802D01*
X249340536Y-50145252D01*
X249480106Y-50135806D01*
X249580143Y-50140886D01*
G37*
G36*
X247123895Y-51636312D02*
G01*
X247244670Y-51720607D01*
X247369000Y-51800986D01*
X247492812Y-51872351D01*
X247549061Y-51900949D01*
X247678212Y-51954874D01*
X247810303Y-51983911D01*
X247823102Y-51984236D01*
X247958495Y-51960581D01*
X247976914Y-51953340D01*
X248089460Y-51875248D01*
X248103187Y-51859978D01*
X248174027Y-51741649D01*
X248189161Y-51701464D01*
X248216867Y-51568862D01*
X248221401Y-51476455D01*
X248221401Y-50436714D01*
X248449768Y-50436714D01*
X248504844Y-50362158D01*
X248357749Y-50178793D01*
X248221401Y-50178793D01*
X248221401Y-49777136D01*
X247839893Y-49491005D01*
X247768025Y-49554142D01*
X247768025Y-50178793D01*
X247191734Y-50178793D01*
X247123895Y-50253348D01*
X247166210Y-50326560D01*
X247218601Y-50400443D01*
X247270319Y-50463580D01*
X247314649Y-50502537D01*
X247372412Y-50480372D01*
X247450998Y-50458879D01*
X247542344Y-50442759D01*
X247641751Y-50436714D01*
X247768025Y-50436714D01*
X247768025Y-51300478D01*
X247760487Y-51434660D01*
X247756606Y-51460335D01*
X247723695Y-51565787D01*
X247672648Y-51622879D01*
X247607496Y-51640342D01*
X247536971Y-51633626D01*
X247453013Y-51612132D01*
X247346217Y-51569146D01*
X247221872Y-51506545D01*
X247207182Y-51498620D01*
X247123895Y-51636312D01*
G37*
G36*
X246971427Y-51941250D02*
G01*
X246971427Y-51804229D01*
X246837565Y-51769072D01*
X246782688Y-51746466D01*
X246722238Y-51689374D01*
X246722238Y-50722844D01*
X246723673Y-50587062D01*
X246724253Y-50567689D01*
X246747761Y-50474999D01*
X246820302Y-50427310D01*
X246953093Y-50404941D01*
X246971427Y-50403130D01*
X246971427Y-50271483D01*
X246832544Y-50249573D01*
X246700346Y-50223805D01*
X246663803Y-50215735D01*
X246530998Y-50181781D01*
X246397798Y-50138731D01*
X246389762Y-50135806D01*
X246268862Y-50135806D01*
X246268862Y-51689374D01*
X246212442Y-51744451D01*
X246081089Y-51790418D01*
X246016987Y-51804229D01*
X246016987Y-51941250D01*
X246971427Y-51941250D01*
G37*
G36*
X246196994Y-49578322D02*
G01*
X246221845Y-49700566D01*
X246288341Y-49795271D01*
X246388419Y-49856393D01*
X246514021Y-49877886D01*
X246614099Y-49865124D01*
X246696043Y-49824824D01*
X246751791Y-49756986D01*
X246772613Y-49659594D01*
X246748433Y-49537350D01*
X246681266Y-49443989D01*
X246581188Y-49383538D01*
X246457601Y-49362045D01*
X246359537Y-49374807D01*
X246276251Y-49414435D01*
X246219159Y-49480930D01*
X246196994Y-49578322D01*
G37*
G36*
X244682383Y-51941250D02*
G01*
X244682383Y-51804229D01*
X244549208Y-51765271D01*
X244490286Y-51742436D01*
X244433194Y-51689374D01*
X244433194Y-50836356D01*
X244439239Y-50701477D01*
X244443941Y-50665081D01*
X244476852Y-50554927D01*
X244537303Y-50496492D01*
X244631336Y-50479700D01*
X244728056Y-50491790D01*
X244840896Y-50533434D01*
X244958144Y-50600947D01*
X244976573Y-50613362D01*
X245086706Y-50695327D01*
X245141804Y-50740979D01*
X245141804Y-51689374D01*
X245077324Y-51747809D01*
X244948111Y-51790880D01*
X244890600Y-51804229D01*
X244890600Y-51941250D01*
X245844368Y-51941250D01*
X245844368Y-51804229D01*
X245712868Y-51766553D01*
X245657645Y-51746466D01*
X245595179Y-51689374D01*
X245595179Y-50645602D01*
X245597866Y-50529404D01*
X245623389Y-50461565D01*
X245697273Y-50425295D01*
X245832538Y-50404476D01*
X245844368Y-50403130D01*
X245844368Y-50271483D01*
X245710477Y-50254331D01*
X245675780Y-50248647D01*
X245543398Y-50223595D01*
X245525326Y-50219765D01*
X245394115Y-50185407D01*
X245385619Y-50182823D01*
X245257753Y-50139060D01*
X245249270Y-50135806D01*
X245170014Y-50215063D01*
X245149192Y-50485745D01*
X245040550Y-50398428D01*
X244922743Y-50316254D01*
X244797330Y-50244889D01*
X244736788Y-50217078D01*
X244610039Y-50170807D01*
X244473956Y-50140886D01*
X244397596Y-50135806D01*
X244259998Y-50155348D01*
X244241097Y-50161330D01*
X244122159Y-50230165D01*
X244107435Y-50243945D01*
X244031118Y-50354878D01*
X244014745Y-50393727D01*
X243983945Y-50531568D01*
X243979818Y-50617392D01*
X243979818Y-51689374D01*
X243968400Y-51714897D01*
X243928772Y-51740421D01*
X243851530Y-51769303D01*
X243728615Y-51804229D01*
X243728615Y-51941250D01*
X244682383Y-51941250D01*
G37*
G36*
X242752629Y-50136646D02*
G01*
X242892375Y-50152808D01*
X243026722Y-50189540D01*
X243045303Y-50196322D01*
X243175629Y-50256723D01*
X243290015Y-50333948D01*
X243391773Y-50432684D01*
X243471366Y-50547539D01*
X243522245Y-50673980D01*
X243539204Y-50807474D01*
X243536548Y-50862381D01*
X243505621Y-50993526D01*
X243486814Y-51035505D01*
X243410244Y-51149353D01*
X243373519Y-51186833D01*
X243261805Y-51269582D01*
X243199632Y-51301595D01*
X243069037Y-51348167D01*
X243119752Y-51384555D01*
X243229565Y-51471754D01*
X243237696Y-51478935D01*
X243336360Y-51577206D01*
X243394796Y-51660492D01*
X243412259Y-51716912D01*
X243408901Y-51741911D01*
X243319695Y-51843940D01*
X243197325Y-51906323D01*
X243314445Y-51972973D01*
X243434424Y-52050731D01*
X243477705Y-52083013D01*
X243578833Y-52172303D01*
X243652044Y-52277083D01*
X243671523Y-52373804D01*
X243670059Y-52407216D01*
X243629879Y-52538362D01*
X243610310Y-52569915D01*
X243518382Y-52670009D01*
X243477337Y-52701120D01*
X243356511Y-52768073D01*
X243291596Y-52794495D01*
X243161055Y-52835239D01*
X243089546Y-52851964D01*
X242950823Y-52874196D01*
X242884929Y-52880926D01*
X242745964Y-52886958D01*
X242640048Y-52881301D01*
X242503492Y-52857404D01*
X242398458Y-52827174D01*
X242269080Y-52775461D01*
X242174018Y-52726020D01*
X242060863Y-52651874D01*
X241991818Y-52597186D01*
X241892275Y-52498062D01*
X241850440Y-52445706D01*
X241780106Y-52325443D01*
X241767180Y-52293203D01*
X242179077Y-52293203D01*
X242205944Y-52419477D01*
X242285872Y-52526944D01*
X242299736Y-52538541D01*
X242420877Y-52601499D01*
X242474624Y-52616021D01*
X242613646Y-52629037D01*
X242714998Y-52624825D01*
X242852760Y-52603514D01*
X242918785Y-52585791D01*
X243044185Y-52534332D01*
X243068730Y-52520538D01*
X243171802Y-52433582D01*
X243218147Y-52314025D01*
X243211430Y-52254247D01*
X243180534Y-52184393D01*
X243105978Y-52098420D01*
X243078524Y-52074072D01*
X242968958Y-51990953D01*
X242955778Y-51993724D01*
X242819848Y-52020506D01*
X242784365Y-52027072D01*
X242649244Y-52047373D01*
X242545440Y-52062706D01*
X242408116Y-52093718D01*
X242391102Y-52098917D01*
X242264379Y-52152825D01*
X242196540Y-52220663D01*
X242179077Y-52293203D01*
X241767180Y-52293203D01*
X241762181Y-52280736D01*
X241739134Y-52146108D01*
X241740339Y-52111759D01*
X241773389Y-51978191D01*
X241793456Y-51942005D01*
X241892946Y-51846544D01*
X241993864Y-51792979D01*
X242124672Y-51747809D01*
X242212283Y-51725772D01*
X242347776Y-51699530D01*
X242490731Y-51678627D01*
X242584636Y-51665553D01*
X242723799Y-51642357D01*
X242852760Y-51608774D01*
X242906493Y-51576534D01*
X242917911Y-51542950D01*
X242898433Y-51490560D01*
X242895712Y-51485258D01*
X242806415Y-51382422D01*
X242787608Y-51382422D01*
X242768022Y-51382236D01*
X242624974Y-51368963D01*
X242488716Y-51334733D01*
X242479892Y-51331717D01*
X242355558Y-51277810D01*
X242239527Y-51202415D01*
X242148222Y-51115213D01*
X242067580Y-50998900D01*
X242019220Y-50873801D01*
X242010264Y-50797399D01*
X242437669Y-50797399D01*
X242438226Y-50826178D01*
X242460506Y-50960614D01*
X242520956Y-51076141D01*
X242608944Y-51144651D01*
X242713724Y-51167488D01*
X242757040Y-51165624D01*
X242889701Y-51128531D01*
X242911973Y-51115702D01*
X243011273Y-51023751D01*
X243030948Y-50993599D01*
X243081798Y-50868596D01*
X243092838Y-50817821D01*
X243104635Y-50679857D01*
X243104012Y-50651062D01*
X243079112Y-50515970D01*
X243013960Y-50399772D01*
X242925300Y-50330590D01*
X242828580Y-50307753D01*
X242793388Y-50309123D01*
X242659991Y-50346710D01*
X242637703Y-50359556D01*
X242537747Y-50452162D01*
X242517421Y-50482052D01*
X242463192Y-50606646D01*
X242449733Y-50663370D01*
X242437669Y-50797399D01*
X242010264Y-50797399D01*
X242003100Y-50736277D01*
X242003186Y-50726732D01*
X242025265Y-50589854D01*
X242029454Y-50576678D01*
X242086387Y-50454177D01*
X242076532Y-50453660D01*
X241941306Y-50442759D01*
X241810331Y-50423952D01*
X241777419Y-50372233D01*
X241747194Y-50313127D01*
X241720999Y-50255363D01*
X241702864Y-50205660D01*
X241755926Y-50135806D01*
X241834312Y-50163061D01*
X241966830Y-50205660D01*
X241992037Y-50213285D01*
X242126220Y-50245921D01*
X242263707Y-50268125D01*
X242341149Y-50223111D01*
X242467894Y-50172076D01*
X242570431Y-50147282D01*
X242711709Y-50135806D01*
X242752629Y-50136646D01*
G37*
G36*
X240318557Y-51636312D02*
G01*
X240439331Y-51720607D01*
X240563661Y-51800986D01*
X240687474Y-51872351D01*
X240743723Y-51900949D01*
X240872873Y-51954874D01*
X241004965Y-51983911D01*
X241017763Y-51984236D01*
X241153157Y-51960581D01*
X241171575Y-51953340D01*
X241284121Y-51875248D01*
X241297849Y-51859978D01*
X241368689Y-51741649D01*
X241383822Y-51701464D01*
X241411528Y-51568862D01*
X241416062Y-51476455D01*
X241416062Y-50436714D01*
X241644429Y-50436714D01*
X241699506Y-50362158D01*
X241552411Y-50178793D01*
X241416062Y-50178793D01*
X241416062Y-49777136D01*
X241034555Y-49491005D01*
X240962686Y-49554142D01*
X240962686Y-50178793D01*
X240386395Y-50178793D01*
X240318557Y-50253348D01*
X240360872Y-50326560D01*
X240413262Y-50400443D01*
X240464981Y-50463580D01*
X240509311Y-50502537D01*
X240567074Y-50480372D01*
X240645659Y-50458879D01*
X240737006Y-50442759D01*
X240836413Y-50436714D01*
X240962686Y-50436714D01*
X240962686Y-51300478D01*
X240955148Y-51434660D01*
X240951268Y-51460335D01*
X240918356Y-51565787D01*
X240867310Y-51622879D01*
X240802158Y-51640342D01*
X240731633Y-51633626D01*
X240647674Y-51612132D01*
X240540879Y-51569146D01*
X240416533Y-51506545D01*
X240401844Y-51498620D01*
X240318557Y-51636312D01*
G37*
G36*
X239330492Y-50140886D02*
G01*
X239472833Y-50167553D01*
X239605917Y-50217078D01*
X239688323Y-50261030D01*
X239801068Y-50339395D01*
X239900780Y-50432684D01*
X239959173Y-50502327D01*
X240034011Y-50616080D01*
X240093548Y-50740979D01*
X240123521Y-50828338D01*
X240152424Y-50962052D01*
X240162058Y-51098978D01*
X240159134Y-51181083D01*
X240140511Y-51315553D01*
X240100937Y-51452275D01*
X240080413Y-51501972D01*
X240015692Y-51620898D01*
X239927646Y-51732361D01*
X239891656Y-51767863D01*
X239778668Y-51854183D01*
X239657636Y-51917069D01*
X239586551Y-51943241D01*
X239445326Y-51974791D01*
X239304339Y-51984236D01*
X239196439Y-51977294D01*
X239061866Y-51947966D01*
X238961386Y-51910702D01*
X238840888Y-51846544D01*
X238753980Y-51784192D01*
X238652821Y-51690046D01*
X238582810Y-51607748D01*
X238506397Y-51493247D01*
X238457727Y-51397487D01*
X238411020Y-51267567D01*
X238387604Y-51161797D01*
X238384965Y-51127860D01*
X238852978Y-51127860D01*
X238857405Y-51264866D01*
X238873128Y-51401229D01*
X238888057Y-51471924D01*
X238940295Y-51602057D01*
X238962246Y-51636043D01*
X239063210Y-51726987D01*
X239113965Y-51749302D01*
X239251948Y-51769303D01*
X239289470Y-51766699D01*
X239417179Y-51714897D01*
X239468984Y-51672350D01*
X239555542Y-51565116D01*
X239605642Y-51468468D01*
X239649576Y-51341450D01*
X239675771Y-51208628D01*
X239684502Y-51066738D01*
X239680665Y-50936894D01*
X239667039Y-50800086D01*
X239651317Y-50719088D01*
X239603231Y-50586495D01*
X239578421Y-50543635D01*
X239480315Y-50444774D01*
X239422450Y-50415711D01*
X239285532Y-50393727D01*
X239232780Y-50398455D01*
X239109555Y-50453505D01*
X239052505Y-50503786D01*
X238972535Y-50614034D01*
X238924767Y-50716053D01*
X238884546Y-50848446D01*
X238882604Y-50856771D01*
X238859914Y-50993539D01*
X238852978Y-51127860D01*
X238384965Y-51127860D01*
X238376765Y-51022408D01*
X238379658Y-50940565D01*
X238398076Y-50806394D01*
X238437215Y-50669782D01*
X238457385Y-50620070D01*
X238521798Y-50500947D01*
X238610506Y-50389025D01*
X238646673Y-50353136D01*
X238759807Y-50266082D01*
X238880516Y-50202973D01*
X238950982Y-50176802D01*
X239090885Y-50145252D01*
X239230455Y-50135806D01*
X239330492Y-50140886D01*
G37*
G36*
X237011936Y-51941250D02*
G01*
X237011936Y-51804229D01*
X236878761Y-51765271D01*
X236819839Y-51742436D01*
X236762747Y-51689374D01*
X236762747Y-50836356D01*
X236768792Y-50701477D01*
X236773494Y-50665081D01*
X236806406Y-50554927D01*
X236866856Y-50496492D01*
X236960889Y-50479700D01*
X237057610Y-50491790D01*
X237170450Y-50533434D01*
X237287698Y-50600947D01*
X237306127Y-50613362D01*
X237416259Y-50695327D01*
X237471357Y-50740979D01*
X237471357Y-51689374D01*
X237406877Y-51747809D01*
X237277665Y-51790880D01*
X237220153Y-51804229D01*
X237220153Y-51941250D01*
X238173922Y-51941250D01*
X238173922Y-51804229D01*
X238042422Y-51766553D01*
X237987198Y-51746466D01*
X237924733Y-51689374D01*
X237924733Y-50645602D01*
X237927419Y-50529404D01*
X237952943Y-50461565D01*
X238026826Y-50425295D01*
X238162091Y-50404476D01*
X238173922Y-50403130D01*
X238173922Y-50271483D01*
X238040031Y-50254331D01*
X238005333Y-50248647D01*
X237872951Y-50223595D01*
X237854879Y-50219765D01*
X237723668Y-50185407D01*
X237715172Y-50182823D01*
X237587306Y-50139060D01*
X237578824Y-50135806D01*
X237499567Y-50215063D01*
X237478745Y-50485745D01*
X237370103Y-50398428D01*
X237252296Y-50316254D01*
X237126883Y-50244889D01*
X237066341Y-50217078D01*
X236939592Y-50170807D01*
X236803509Y-50140886D01*
X236727149Y-50135806D01*
X236589552Y-50155348D01*
X236570650Y-50161330D01*
X236451713Y-50230165D01*
X236436989Y-50243945D01*
X236360672Y-50354878D01*
X236344298Y-50393727D01*
X236313499Y-50531568D01*
X236309372Y-50617392D01*
X236309372Y-51689374D01*
X236297953Y-51714897D01*
X236258325Y-51740421D01*
X236181083Y-51769303D01*
X236058168Y-51804229D01*
X236058168Y-51941250D01*
X237011936Y-51941250D01*
G37*
D10*
X39369940Y-55223569D02*
X39369940Y-54223569D01*
X39369940Y-55175950D02*
X39465178Y-55223569D01*
X39465178Y-55223569D02*
X39655654Y-55223569D01*
X39655654Y-55223569D02*
X39750892Y-55175950D01*
X39750892Y-55175950D02*
X39798511Y-55128330D01*
X39798511Y-55128330D02*
X39846130Y-55033092D01*
X39846130Y-55033092D02*
X39846130Y-54747378D01*
X39846130Y-54747378D02*
X39798511Y-54652140D01*
X39798511Y-54652140D02*
X39750892Y-54604521D01*
X39750892Y-54604521D02*
X39655654Y-54556902D01*
X39655654Y-54556902D02*
X39465178Y-54556902D01*
X39465178Y-54556902D02*
X39369940Y-54604521D01*
X38893749Y-55223569D02*
X38893749Y-54556902D01*
X38893749Y-54223569D02*
X38941368Y-54271188D01*
X38941368Y-54271188D02*
X38893749Y-54318807D01*
X38893749Y-54318807D02*
X38846130Y-54271188D01*
X38846130Y-54271188D02*
X38893749Y-54223569D01*
X38893749Y-54223569D02*
X38893749Y-54318807D01*
X38274702Y-55223569D02*
X38369940Y-55175950D01*
X38369940Y-55175950D02*
X38417559Y-55128330D01*
X38417559Y-55128330D02*
X38465178Y-55033092D01*
X38465178Y-55033092D02*
X38465178Y-54747378D01*
X38465178Y-54747378D02*
X38417559Y-54652140D01*
X38417559Y-54652140D02*
X38369940Y-54604521D01*
X38369940Y-54604521D02*
X38274702Y-54556902D01*
X38274702Y-54556902D02*
X38131845Y-54556902D01*
X38131845Y-54556902D02*
X38036607Y-54604521D01*
X38036607Y-54604521D02*
X37988988Y-54652140D01*
X37988988Y-54652140D02*
X37941369Y-54747378D01*
X37941369Y-54747378D02*
X37941369Y-55033092D01*
X37941369Y-55033092D02*
X37988988Y-55128330D01*
X37988988Y-55128330D02*
X38036607Y-55175950D01*
X38036607Y-55175950D02*
X38131845Y-55223569D01*
X38131845Y-55223569D02*
X38274702Y-55223569D01*
G36*
X244929570Y-54379146D02*
G01*
X244982243Y-54432192D01*
X245040767Y-54483932D01*
X245055965Y-54496017D01*
X245118667Y-54540362D01*
X245172103Y-54570389D01*
X245241454Y-54598267D01*
X245282378Y-54609223D01*
X245356587Y-54619802D01*
X245390089Y-54620947D01*
X245467475Y-54613812D01*
X245543650Y-54592408D01*
X245578401Y-54577716D01*
X245644741Y-54539935D01*
X245705827Y-54491437D01*
X245743631Y-54453152D01*
X245790464Y-54392698D01*
X245830717Y-54323672D01*
X245861600Y-54253483D01*
X245885171Y-54176712D01*
X245898920Y-54102417D01*
X245905598Y-54023195D01*
X245906297Y-53986404D01*
X245903183Y-53905918D01*
X245893840Y-53829325D01*
X245878270Y-53756625D01*
X245856471Y-53687817D01*
X245825456Y-53615493D01*
X245788877Y-53549370D01*
X245741708Y-53483174D01*
X245720916Y-53458839D01*
X245664652Y-53403792D01*
X245603022Y-53357259D01*
X245536024Y-53319242D01*
X245521981Y-53312660D01*
X245449903Y-53285419D01*
X245375177Y-53268267D01*
X245297804Y-53261204D01*
X245282012Y-53261003D01*
X245208689Y-53263946D01*
X245130406Y-53275016D01*
X245086740Y-53285915D01*
X245014687Y-53311423D01*
X244948987Y-53346366D01*
X244952284Y-53365783D01*
X244977563Y-53400221D01*
X245011635Y-53439422D01*
X245041677Y-53471296D01*
X245077947Y-53465068D01*
X245139195Y-53418648D01*
X245202511Y-53385933D01*
X245274923Y-53363581D01*
X245351078Y-53355066D01*
X245368474Y-53354792D01*
X245442807Y-53367170D01*
X245445410Y-53367981D01*
X245513410Y-53399571D01*
X245529308Y-53409747D01*
X245585854Y-53457020D01*
X245610641Y-53484118D01*
X245654092Y-53545346D01*
X245680250Y-53595127D01*
X245707544Y-53665560D01*
X245727476Y-53741075D01*
X245728610Y-53746435D01*
X245740233Y-53820081D01*
X245745703Y-53895146D01*
X245746562Y-53942074D01*
X245743432Y-54018072D01*
X245732613Y-54096125D01*
X245714066Y-54167452D01*
X245706995Y-54187538D01*
X245677108Y-54255879D01*
X245638382Y-54320854D01*
X245605145Y-54363026D01*
X245551946Y-54414198D01*
X245489515Y-54456593D01*
X245465927Y-54468539D01*
X245394684Y-54493784D01*
X245320644Y-54503676D01*
X245316084Y-54503710D01*
X245242655Y-54491655D01*
X245170637Y-54465608D01*
X245100021Y-54429046D01*
X245036136Y-54386378D01*
X244974724Y-54338493D01*
X244967671Y-54332618D01*
X244957047Y-54341411D01*
X244946056Y-54355333D01*
X244936897Y-54369255D01*
X244929570Y-54379146D01*
G37*
G36*
X244354302Y-53617059D02*
G01*
X244426918Y-53632496D01*
X244490566Y-53654022D01*
X244558809Y-53685619D01*
X244610711Y-53717525D01*
X244669817Y-53766585D01*
X244702584Y-53802598D01*
X244741625Y-53865137D01*
X244727337Y-53905437D01*
X244685571Y-53903239D01*
X244625854Y-53888951D01*
X244573464Y-53868068D01*
X244552214Y-53846819D01*
X244541956Y-53790765D01*
X244504953Y-53746802D01*
X244449266Y-53717859D01*
X244384053Y-53706502D01*
X244374725Y-53706411D01*
X244300156Y-53717493D01*
X244247399Y-53751198D01*
X244219556Y-53803588D01*
X244211129Y-53868801D01*
X244211129Y-54013881D01*
X244254101Y-54020390D01*
X244331622Y-54033716D01*
X244407867Y-54049785D01*
X244467215Y-54065031D01*
X244538293Y-54088620D01*
X244557080Y-54096378D01*
X244621824Y-54131484D01*
X244677877Y-54178012D01*
X244702817Y-54205896D01*
X244743457Y-54268504D01*
X244762916Y-54323255D01*
X244770567Y-54398930D01*
X244769285Y-54427690D01*
X244750051Y-54500779D01*
X244744750Y-54511072D01*
X244698027Y-54569656D01*
X244694059Y-54572942D01*
X244627319Y-54608490D01*
X244624871Y-54609257D01*
X244551115Y-54620947D01*
X244478575Y-54610689D01*
X244463458Y-54606455D01*
X244394678Y-54579181D01*
X244366793Y-54564684D01*
X244304186Y-54524227D01*
X244266382Y-54494846D01*
X244211129Y-54444726D01*
X244206647Y-54501552D01*
X244186583Y-54574052D01*
X244129796Y-54620947D01*
X244113562Y-54619161D01*
X244043701Y-54592370D01*
X244025098Y-54582476D01*
X243960382Y-54542596D01*
X243898987Y-54499680D01*
X243914374Y-54452419D01*
X243978122Y-54475134D01*
X244015124Y-54480263D01*
X244045166Y-54462311D01*
X244056524Y-54401495D01*
X244056524Y-54349471D01*
X244211129Y-54349471D01*
X244230592Y-54365849D01*
X244291950Y-54411248D01*
X244359140Y-54448756D01*
X244414191Y-54469155D01*
X244490299Y-54480263D01*
X244522905Y-54475134D01*
X244559542Y-54454984D01*
X244589217Y-54414317D01*
X244601674Y-54347273D01*
X244601416Y-54335383D01*
X244585187Y-54263375D01*
X244584147Y-54261162D01*
X244541956Y-54199994D01*
X244503854Y-54167021D01*
X244446335Y-54137712D01*
X244426964Y-54130774D01*
X244354011Y-54110235D01*
X244285586Y-54095626D01*
X244211129Y-54082391D01*
X244211129Y-54349471D01*
X244056524Y-54349471D01*
X244056524Y-53832531D01*
X244057485Y-53807326D01*
X244073894Y-53735294D01*
X244118073Y-53670964D01*
X244142845Y-53651168D01*
X244214873Y-53620904D01*
X244292462Y-53612712D01*
X244354302Y-53617059D01*
G37*
G36*
X243828279Y-54597500D02*
G01*
X243828279Y-54553169D01*
X243756142Y-54538995D01*
X243754273Y-54538515D01*
X243707012Y-54522761D01*
X243681733Y-54507008D01*
X243673673Y-54490521D01*
X243673673Y-53264300D01*
X243679901Y-53192493D01*
X243702616Y-53153658D01*
X243746946Y-53136439D01*
X243818020Y-53126547D01*
X243818020Y-53085514D01*
X243742802Y-53069220D01*
X243682099Y-53053640D01*
X243611749Y-53028988D01*
X243556070Y-53003082D01*
X243519067Y-53037887D01*
X243519067Y-54490521D01*
X243484263Y-54522395D01*
X243412698Y-54544025D01*
X243364828Y-54553169D01*
X243364828Y-54597500D01*
X243828279Y-54597500D01*
G37*
G36*
X242302371Y-53680123D02*
G01*
X242353296Y-53693679D01*
X242385170Y-53707601D01*
X242404221Y-53725186D01*
X242415944Y-53750099D01*
X242707570Y-54529722D01*
X242734315Y-54568190D01*
X242772417Y-54594935D01*
X242813083Y-54611788D01*
X242846422Y-54620947D01*
X243186775Y-53750099D01*
X243222678Y-53706502D01*
X243294721Y-53681557D01*
X243301080Y-53680123D01*
X243301080Y-53636160D01*
X242903209Y-53636160D01*
X242903209Y-53680123D01*
X242968788Y-53690382D01*
X243007989Y-53703204D01*
X243024109Y-53722255D01*
X243019713Y-53750099D01*
X242766189Y-54407723D01*
X242528052Y-53750099D01*
X242524755Y-53724087D01*
X242538676Y-53705403D01*
X242574214Y-53692213D01*
X242635397Y-53680123D01*
X242635397Y-53636160D01*
X242302371Y-53636160D01*
X242302371Y-53680123D01*
G37*
G36*
X242214810Y-54597500D02*
G01*
X242214810Y-54553536D01*
X242143339Y-54535359D01*
X242107832Y-54522028D01*
X242070463Y-54490887D01*
X242070463Y-53910200D01*
X242072028Y-53836137D01*
X242072661Y-53825570D01*
X242088415Y-53775378D01*
X242130913Y-53749366D01*
X242204797Y-53736801D01*
X242214810Y-53735811D01*
X242214810Y-53694778D01*
X242147399Y-53680123D01*
X242076691Y-53660706D01*
X242009646Y-53637625D01*
X241951028Y-53612712D01*
X241915857Y-53612712D01*
X241915857Y-54490887D01*
X241881419Y-54520929D01*
X241810906Y-54545032D01*
X241771876Y-54553536D01*
X241771876Y-54597500D01*
X242214810Y-54597500D01*
G37*
G36*
X241885083Y-53310095D02*
G01*
X241894608Y-53363585D01*
X241919887Y-53407548D01*
X241957256Y-53437590D01*
X242004517Y-53448581D01*
X242071196Y-53423302D01*
X242091346Y-53351495D01*
X242082186Y-53298005D01*
X242056175Y-53254042D01*
X242018805Y-53224733D01*
X241972644Y-53214108D01*
X241904322Y-53241198D01*
X241885083Y-53310095D01*
G37*
G36*
X241028156Y-54597500D02*
G01*
X241028156Y-54553902D01*
X240957007Y-54533681D01*
X240918980Y-54520197D01*
X240883809Y-54491620D01*
X240883809Y-53953797D01*
X240887272Y-53879746D01*
X240891136Y-53853414D01*
X240913851Y-53792231D01*
X240954517Y-53761456D01*
X241015700Y-53753396D01*
X241086775Y-53768784D01*
X241151604Y-53803658D01*
X241171039Y-53817510D01*
X241228626Y-53867484D01*
X241264828Y-53905437D01*
X241313737Y-53966162D01*
X241356834Y-54029364D01*
X241363013Y-54039160D01*
X241363013Y-54491620D01*
X241324545Y-54523494D01*
X241254147Y-54545720D01*
X241218666Y-54553902D01*
X241218666Y-54597500D01*
X241661600Y-54597500D01*
X241661600Y-54554269D01*
X241588471Y-54534176D01*
X241555721Y-54523494D01*
X241517619Y-54493086D01*
X241517619Y-53883089D01*
X241520550Y-53820807D01*
X241537403Y-53784537D01*
X241580267Y-53765486D01*
X241655143Y-53754130D01*
X241661600Y-53753396D01*
X241661600Y-53706502D01*
X241590146Y-53689775D01*
X241531907Y-53669865D01*
X241461639Y-53638052D01*
X241414304Y-53612712D01*
X241378401Y-53648616D01*
X241367043Y-53903972D01*
X241322441Y-53842781D01*
X241270429Y-53784964D01*
X241267026Y-53781606D01*
X241212163Y-53731872D01*
X241156750Y-53690382D01*
X241091913Y-53651899D01*
X241049039Y-53632862D01*
X240977804Y-53613972D01*
X240957082Y-53612712D01*
X240882029Y-53623091D01*
X240871719Y-53626268D01*
X240806844Y-53660569D01*
X240798812Y-53667301D01*
X240753212Y-53726886D01*
X240748254Y-53737276D01*
X240730394Y-53809473D01*
X240729203Y-53837294D01*
X240729203Y-54490887D01*
X240697696Y-54519098D01*
X240626664Y-54542517D01*
X240584856Y-54553536D01*
X240584856Y-54597500D01*
X241028156Y-54597500D01*
G37*
G36*
X240081644Y-53356569D02*
G01*
X240155657Y-53372616D01*
X240223987Y-53405350D01*
X240257985Y-53429205D01*
X240315263Y-53482716D01*
X240361374Y-53542737D01*
X240394625Y-53599566D01*
X240425500Y-53668525D01*
X240450400Y-53744237D01*
X240454260Y-53758671D01*
X240469823Y-53832474D01*
X240479161Y-53908995D01*
X240482274Y-53988236D01*
X240482175Y-54004346D01*
X240478719Y-54083221D01*
X240470325Y-54159306D01*
X240456995Y-54232601D01*
X240440833Y-54295020D01*
X240415807Y-54365093D01*
X240381890Y-54433735D01*
X240365624Y-54459772D01*
X240317889Y-54519348D01*
X240257692Y-54570389D01*
X240233879Y-54584954D01*
X240161110Y-54612603D01*
X240085501Y-54620947D01*
X240049424Y-54619169D01*
X239975411Y-54603123D01*
X239907082Y-54570389D01*
X239872798Y-54546569D01*
X239815176Y-54493309D01*
X239768962Y-54433735D01*
X239735746Y-54377098D01*
X239704994Y-54308270D01*
X239680302Y-54232601D01*
X239676487Y-54218165D01*
X239661103Y-54144313D01*
X239651872Y-54067670D01*
X239650299Y-54027070D01*
X239817689Y-54027070D01*
X239818906Y-54098480D01*
X239823700Y-54177652D01*
X239833076Y-54253850D01*
X239835055Y-54265490D01*
X239852036Y-54339762D01*
X239878139Y-54409188D01*
X239897709Y-54444050D01*
X239949580Y-54498581D01*
X239971379Y-54511083D01*
X240045567Y-54527158D01*
X240084116Y-54522742D01*
X240152180Y-54489788D01*
X240197609Y-54443169D01*
X240236443Y-54378780D01*
X240251290Y-54344862D01*
X240275141Y-54272849D01*
X240292863Y-54195964D01*
X240296530Y-54175132D01*
X240306147Y-54101458D01*
X240311757Y-54021273D01*
X240313380Y-53943539D01*
X240312134Y-53873250D01*
X240307226Y-53795133D01*
X240297626Y-53719691D01*
X240295560Y-53708099D01*
X240278209Y-53634328D01*
X240252197Y-53565818D01*
X240232433Y-53531342D01*
X240180390Y-53477158D01*
X240158660Y-53464655D01*
X240085501Y-53448581D01*
X240053151Y-53452195D01*
X239984751Y-53485584D01*
X239938955Y-53531471D01*
X239899022Y-53595127D01*
X239883552Y-53628438D01*
X239858636Y-53699512D01*
X239840037Y-53775744D01*
X239836043Y-53796380D01*
X239825568Y-53869539D01*
X239819457Y-53949423D01*
X239817689Y-54027070D01*
X239650299Y-54027070D01*
X239648795Y-53988236D01*
X239648894Y-53972036D01*
X239652350Y-53892752D01*
X239660743Y-53816331D01*
X239674074Y-53742772D01*
X239690264Y-53679998D01*
X239715405Y-53609650D01*
X239749545Y-53540905D01*
X239765715Y-53514886D01*
X239813366Y-53455523D01*
X239873743Y-53404984D01*
X239897451Y-53390524D01*
X239970020Y-53363076D01*
X240045567Y-53354792D01*
X240081644Y-53356569D01*
G37*
G36*
X238714566Y-54175081D02*
G01*
X238719825Y-54250866D01*
X238735603Y-54323705D01*
X238742043Y-54343975D01*
X238772934Y-54415433D01*
X238814772Y-54478679D01*
X238821178Y-54486491D01*
X238875263Y-54538720D01*
X238939975Y-54580000D01*
X238949406Y-54584677D01*
X239020011Y-54609471D01*
X239092605Y-54620061D01*
X239122330Y-54620947D01*
X239199957Y-54615686D01*
X239276858Y-54599905D01*
X239312106Y-54589073D01*
X239381881Y-54558316D01*
X239444846Y-54518083D01*
X239495655Y-54476599D01*
X239459385Y-54407723D01*
X239395013Y-54449483D01*
X239360100Y-54468906D01*
X239291468Y-54499882D01*
X239276935Y-54505176D01*
X239206960Y-54522761D01*
X239145044Y-54527158D01*
X239071805Y-54517858D01*
X239028540Y-54500779D01*
X238967665Y-54456371D01*
X238945376Y-54430804D01*
X238907830Y-54364466D01*
X238895916Y-54330420D01*
X238881748Y-54258464D01*
X238879430Y-54213916D01*
X238884878Y-54137190D01*
X238896649Y-54083124D01*
X238926342Y-54012957D01*
X238947940Y-53982374D01*
X239004124Y-53933778D01*
X239035501Y-53917527D01*
X239109347Y-53897377D01*
X239160798Y-53894080D01*
X239210257Y-53899209D01*
X239268143Y-53914596D01*
X239328959Y-53940242D01*
X239386112Y-53976512D01*
X239434838Y-53942440D01*
X239422536Y-53869270D01*
X239420550Y-53857444D01*
X239407704Y-53782362D01*
X239403331Y-53755961D01*
X239391241Y-53681374D01*
X239385745Y-53646784D01*
X239374521Y-53571269D01*
X239369992Y-53537974D01*
X239360594Y-53464638D01*
X239357535Y-53437590D01*
X239350803Y-53363779D01*
X239350208Y-53354792D01*
X238901046Y-53354792D01*
X238848655Y-53354792D01*
X238809454Y-53354792D01*
X238776482Y-53331345D01*
X238746440Y-53363585D01*
X238772818Y-53400587D01*
X238803226Y-53437957D01*
X238833634Y-53470563D01*
X238860745Y-53495476D01*
X239259716Y-53495476D01*
X239266360Y-53568788D01*
X239266677Y-53571680D01*
X239275809Y-53645149D01*
X239278767Y-53666202D01*
X239289967Y-53741159D01*
X239292689Y-53757426D01*
X239303680Y-53822639D01*
X239230622Y-53809294D01*
X239206960Y-53806519D01*
X239131948Y-53800899D01*
X239098882Y-53800291D01*
X239021094Y-53806251D01*
X238947244Y-53825867D01*
X238933652Y-53831432D01*
X238867706Y-53867427D01*
X238813484Y-53913864D01*
X238768616Y-53973299D01*
X238739845Y-54033299D01*
X238720121Y-54107070D01*
X238714566Y-54175081D01*
G37*
G36*
X237790389Y-53309547D02*
G01*
X237865837Y-53323720D01*
X237946483Y-53345541D01*
X238021176Y-53373362D01*
X238089915Y-53407182D01*
X238129820Y-53430903D01*
X238196194Y-53477747D01*
X238255554Y-53529924D01*
X238307902Y-53587433D01*
X238333830Y-53621393D01*
X238375001Y-53685768D01*
X238409101Y-53754315D01*
X238436129Y-53827035D01*
X238448161Y-53868785D01*
X238464680Y-53945466D01*
X238474591Y-54024117D01*
X238477895Y-54104740D01*
X238475374Y-54168238D01*
X238465444Y-54241439D01*
X238446021Y-54315765D01*
X238435479Y-54344756D01*
X238402628Y-54413937D01*
X238358460Y-54478431D01*
X238347858Y-54490810D01*
X238294122Y-54541680D01*
X238228767Y-54583578D01*
X238219431Y-54588103D01*
X238146852Y-54612736D01*
X238069765Y-54620947D01*
X238027568Y-54618566D01*
X237953261Y-54600797D01*
X237920868Y-54587108D01*
X237856907Y-54547674D01*
X237831155Y-54525835D01*
X237781803Y-54470737D01*
X237762461Y-54442795D01*
X237727214Y-54378047D01*
X237715571Y-54350317D01*
X237694242Y-54278396D01*
X237689959Y-54256310D01*
X237688735Y-54242493D01*
X237837856Y-54242493D01*
X237838452Y-54266650D01*
X237847382Y-54341045D01*
X237852020Y-54362725D01*
X237878889Y-54433002D01*
X237886116Y-54445476D01*
X237937507Y-54500779D01*
X237956856Y-54512320D01*
X238029465Y-54527158D01*
X238075953Y-54523139D01*
X238146335Y-54498581D01*
X238189231Y-54467686D01*
X238235728Y-54410654D01*
X238240288Y-54403070D01*
X238272024Y-54333850D01*
X238292881Y-54260811D01*
X238304353Y-54194867D01*
X238311063Y-54120957D01*
X238313031Y-54046854D01*
X238309408Y-54042520D01*
X238253771Y-53986953D01*
X238191764Y-53947203D01*
X238149489Y-53930308D01*
X238075993Y-53917527D01*
X238068817Y-53917653D01*
X237996126Y-53931816D01*
X237980708Y-53937835D01*
X237919556Y-53982374D01*
X237894878Y-54013337D01*
X237861304Y-54081659D01*
X237857113Y-54093780D01*
X237841726Y-54168758D01*
X237837856Y-54242493D01*
X237688735Y-54242493D01*
X237683251Y-54180577D01*
X237688483Y-54107365D01*
X237707064Y-54032566D01*
X237729683Y-53982013D01*
X237775574Y-53920092D01*
X237818541Y-53883517D01*
X237885117Y-53848651D01*
X237959290Y-53829212D01*
X238033495Y-53823738D01*
X238089182Y-53828867D01*
X238156593Y-53845354D01*
X238161044Y-53846803D01*
X238229866Y-53875762D01*
X238241614Y-53881939D01*
X238303505Y-53923023D01*
X238296808Y-53888930D01*
X238275934Y-53815856D01*
X238246353Y-53743871D01*
X238226853Y-53706086D01*
X238184128Y-53639543D01*
X238137176Y-53582304D01*
X238097142Y-53542096D01*
X238037181Y-53492903D01*
X237975609Y-53452245D01*
X237907422Y-53417041D01*
X237832827Y-53388505D01*
X237759454Y-53368347D01*
X237779238Y-53307897D01*
X237790389Y-53309547D01*
G37*
G36*
X236756349Y-54201826D02*
G01*
X236761679Y-54275086D01*
X236779217Y-54349688D01*
X236784193Y-54364125D01*
X236816173Y-54431380D01*
X236859906Y-54490264D01*
X236866625Y-54497482D01*
X236923436Y-54545830D01*
X236991518Y-54583714D01*
X237001447Y-54587974D01*
X237076630Y-54610514D01*
X237155359Y-54620142D01*
X237187926Y-54620947D01*
X237262475Y-54615531D01*
X237270358Y-54614352D01*
X237342760Y-54596443D01*
X237356454Y-54591638D01*
X237425469Y-54559393D01*
X237445114Y-54548040D01*
X237504567Y-54505042D01*
X237536339Y-54476599D01*
X237501168Y-54407723D01*
X237438784Y-54451509D01*
X237416537Y-54465242D01*
X237349760Y-54499191D01*
X237343265Y-54501878D01*
X237274755Y-54521662D01*
X237201482Y-54527158D01*
X237127293Y-54519430D01*
X237087176Y-54507374D01*
X237023074Y-54471702D01*
X236998516Y-54450221D01*
X236953882Y-54388891D01*
X236941363Y-54360462D01*
X236923594Y-54285697D01*
X236921213Y-54242126D01*
X236928037Y-54166895D01*
X236945393Y-54111334D01*
X236985048Y-54046807D01*
X237007309Y-54023773D01*
X237071512Y-53982736D01*
X237091572Y-53975413D01*
X237163951Y-53961111D01*
X237183896Y-53960392D01*
X237205512Y-53960392D01*
X237217602Y-53961491D01*
X237230791Y-53963323D01*
X237253872Y-53967353D01*
X237268160Y-53905804D01*
X237197589Y-53883637D01*
X237127831Y-53852702D01*
X237116852Y-53846453D01*
X237056172Y-53803319D01*
X237029657Y-53776477D01*
X236992431Y-53712644D01*
X236989723Y-53703571D01*
X236979831Y-53635427D01*
X236990822Y-53562887D01*
X237023441Y-53496673D01*
X237024894Y-53494743D01*
X237080960Y-53445776D01*
X237083146Y-53444551D01*
X237155274Y-53425437D01*
X237167410Y-53425134D01*
X237241049Y-53439422D01*
X237295271Y-53478623D01*
X237325679Y-53535409D01*
X237328244Y-53602088D01*
X237395288Y-53629565D01*
X237468734Y-53642198D01*
X237471492Y-53642388D01*
X237498969Y-53610514D01*
X237479515Y-53539612D01*
X237467096Y-53518557D01*
X237418810Y-53460196D01*
X237381733Y-53428065D01*
X237320041Y-53388007D01*
X237257535Y-53359188D01*
X237184995Y-53338306D01*
X237108792Y-53331345D01*
X237032964Y-53338272D01*
X236976534Y-53355891D01*
X236912288Y-53394893D01*
X236885309Y-53420737D01*
X236843202Y-53483631D01*
X236832186Y-53511229D01*
X236816329Y-53584664D01*
X236814967Y-53613811D01*
X236829408Y-53688022D01*
X236830355Y-53690382D01*
X236867380Y-53753814D01*
X236874318Y-53762555D01*
X236928383Y-53815727D01*
X236943195Y-53827035D01*
X237006763Y-53865571D01*
X237034420Y-53878693D01*
X236960796Y-53897303D01*
X236924877Y-53914230D01*
X236863711Y-53957402D01*
X236836583Y-53985305D01*
X236794643Y-54047410D01*
X236777965Y-54084223D01*
X236759389Y-54156265D01*
X236756349Y-54201826D01*
G37*
D12*
G36*
X110601428Y-138307645D02*
G01*
X110694395Y-138253643D01*
X110780408Y-138193305D01*
X110859465Y-138126629D01*
X110900381Y-138086849D01*
X110968499Y-138010819D01*
X111029971Y-137929456D01*
X111084797Y-137842760D01*
X111112384Y-137792292D01*
X111156794Y-137697375D01*
X111194404Y-137597822D01*
X111225212Y-137493631D01*
X111239390Y-137433744D01*
X111257769Y-137335070D01*
X111270897Y-137233465D01*
X111278774Y-137128929D01*
X111281400Y-137021462D01*
X111278438Y-136910270D01*
X111269554Y-136801888D01*
X111254747Y-136696314D01*
X111234017Y-136593548D01*
X111207791Y-136493958D01*
X111176497Y-136398398D01*
X111140136Y-136306868D01*
X111098706Y-136219368D01*
X111046194Y-136125705D01*
X110987578Y-136037606D01*
X110922856Y-135955071D01*
X110884261Y-135911622D01*
X110810738Y-135838125D01*
X110732500Y-135771505D01*
X110649549Y-135711763D01*
X110601428Y-135681546D01*
X110527178Y-135784616D01*
X110597449Y-135862781D01*
X110659185Y-135946749D01*
X110682028Y-135981964D01*
X110733342Y-136073166D01*
X110775914Y-136165095D01*
X110807569Y-136246235D01*
X110838748Y-136342577D01*
X110865729Y-136445980D01*
X110886423Y-136545079D01*
X110892565Y-136579382D01*
X110907914Y-136685754D01*
X110917340Y-136784978D01*
X110922797Y-136888598D01*
X110924317Y-136982871D01*
X110922729Y-137081759D01*
X110917148Y-137190016D01*
X110907548Y-137295104D01*
X110898915Y-137363402D01*
X110882657Y-137462861D01*
X110862456Y-137558456D01*
X110835389Y-137660142D01*
X110823200Y-137699480D01*
X110789416Y-137794105D01*
X110746855Y-137891801D01*
X110698636Y-137982802D01*
X110644877Y-138066529D01*
X110580042Y-138148915D01*
X110527178Y-138204574D01*
X110601428Y-138307645D01*
G37*
G36*
X109487680Y-137648189D02*
G01*
X109575516Y-137709494D01*
X109665938Y-137767952D01*
X109755983Y-137819854D01*
X109796892Y-137840652D01*
X109890819Y-137879871D01*
X109986886Y-137900988D01*
X109996194Y-137901225D01*
X110094662Y-137884021D01*
X110108057Y-137878754D01*
X110189909Y-137821960D01*
X110199892Y-137810855D01*
X110251412Y-137724797D01*
X110262419Y-137695572D01*
X110282569Y-137599134D01*
X110285866Y-137531929D01*
X110285866Y-136775754D01*
X110451951Y-136775754D01*
X110492007Y-136721532D01*
X110385029Y-136588175D01*
X110285866Y-136588175D01*
X110285866Y-136296061D01*
X110008406Y-136087966D01*
X109956138Y-136133883D01*
X109956138Y-136588175D01*
X109537017Y-136588175D01*
X109487680Y-136642397D01*
X109518455Y-136695642D01*
X109556557Y-136749375D01*
X109594170Y-136795293D01*
X109626410Y-136823625D01*
X109668420Y-136807505D01*
X109725573Y-136791874D01*
X109792007Y-136780150D01*
X109864303Y-136775754D01*
X109956138Y-136775754D01*
X109956138Y-137403946D01*
X109950656Y-137501533D01*
X109947834Y-137520206D01*
X109923898Y-137596898D01*
X109886773Y-137638419D01*
X109839390Y-137651120D01*
X109788099Y-137646235D01*
X109727038Y-137630604D01*
X109649369Y-137599340D01*
X109558936Y-137553813D01*
X109548253Y-137548049D01*
X109487680Y-137648189D01*
G37*
G36*
X108552230Y-137869962D02*
G01*
X108552230Y-137770310D01*
X108455375Y-137741977D01*
X108412523Y-137725370D01*
X108371002Y-137686779D01*
X108371002Y-137086919D01*
X108375389Y-136986589D01*
X108380283Y-136950143D01*
X108407638Y-136864658D01*
X108455999Y-136820206D01*
X108526340Y-136807017D01*
X108622615Y-136824410D01*
X108690472Y-136856354D01*
X108775601Y-136911595D01*
X108858931Y-136974750D01*
X108886354Y-136997038D01*
X108886354Y-137686779D01*
X108839460Y-137729278D01*
X108745487Y-137760602D01*
X108703661Y-137770310D01*
X108703661Y-137869962D01*
X109397310Y-137869962D01*
X109397310Y-137769822D01*
X109301674Y-137742421D01*
X109261511Y-137727812D01*
X109216082Y-137686291D01*
X109216082Y-136130952D01*
X109219502Y-136041071D01*
X109240018Y-135991246D01*
X109294240Y-135965844D01*
X109393217Y-135950243D01*
X109397310Y-135949724D01*
X109397310Y-135853981D01*
X109299247Y-135838764D01*
X109259557Y-135831999D01*
X109162648Y-135811997D01*
X109146229Y-135808063D01*
X109052090Y-135781616D01*
X109046089Y-135779731D01*
X108953267Y-135746615D01*
X108946927Y-135744072D01*
X108886354Y-135800736D01*
X108886354Y-136801643D01*
X108808685Y-136741407D01*
X108724227Y-136684370D01*
X108634010Y-136634319D01*
X108590332Y-136614553D01*
X108491047Y-136579428D01*
X108393411Y-136559670D01*
X108345112Y-136556912D01*
X108245041Y-136571124D01*
X108231295Y-136575474D01*
X108144795Y-136625537D01*
X108134086Y-136635558D01*
X108078583Y-136716237D01*
X108066675Y-136744490D01*
X108044276Y-136844738D01*
X108041274Y-136907156D01*
X108041274Y-137686779D01*
X108032970Y-137705342D01*
X108004149Y-137723904D01*
X107947973Y-137744909D01*
X107858581Y-137770310D01*
X107858581Y-137869962D01*
X108552230Y-137869962D01*
G37*
G36*
X107092818Y-136556952D02*
G01*
X107190821Y-136567170D01*
X107197282Y-136568479D01*
X107291449Y-136594525D01*
X107294498Y-136595571D01*
X107385238Y-136635070D01*
X107465350Y-136684407D01*
X107482721Y-136697334D01*
X107561337Y-136766953D01*
X107626214Y-136844872D01*
X107677352Y-136931092D01*
X107690010Y-136958555D01*
X107723212Y-137055184D01*
X107742580Y-137159636D01*
X107748183Y-137260331D01*
X107746009Y-137322138D01*
X107732167Y-137422327D01*
X107702754Y-137522648D01*
X107690893Y-137551560D01*
X107641445Y-137644579D01*
X107579655Y-137724881D01*
X107559833Y-137745298D01*
X107484086Y-137807502D01*
X107398427Y-137855307D01*
X107372331Y-137866069D01*
X107277750Y-137892436D01*
X107178120Y-137901225D01*
X107127907Y-137900080D01*
X107027178Y-137889501D01*
X106984082Y-137880218D01*
X106888936Y-137846026D01*
X106827027Y-137813047D01*
X106743856Y-137756633D01*
X106724630Y-137741749D01*
X106647228Y-137675331D01*
X106573375Y-137604225D01*
X106584610Y-137586151D01*
X106603172Y-137559773D01*
X106625154Y-137532906D01*
X106644694Y-137516298D01*
X106697845Y-137552090D01*
X106784889Y-137604714D01*
X106799482Y-137612552D01*
X106891379Y-137655028D01*
X106979306Y-137677498D01*
X107062837Y-137682383D01*
X107111705Y-137678996D01*
X107206452Y-137647701D01*
X107243718Y-137623047D01*
X107312942Y-137550003D01*
X107345357Y-137495331D01*
X107380841Y-137401504D01*
X107399526Y-137311500D01*
X107407708Y-137213437D01*
X106758022Y-137213437D01*
X106707708Y-137192432D01*
X106652021Y-137164100D01*
X106601218Y-137133325D01*
X106565559Y-137104016D01*
X106565589Y-137097278D01*
X106570366Y-137036605D01*
X106893821Y-137036605D01*
X106904079Y-137077638D01*
X106946089Y-137088384D01*
X107403312Y-137088384D01*
X107396391Y-137030962D01*
X107376445Y-136932557D01*
X107367670Y-136903192D01*
X107325643Y-136814344D01*
X107319473Y-136805299D01*
X107246996Y-136739117D01*
X107231913Y-136731659D01*
X107135622Y-136713227D01*
X107114224Y-136714074D01*
X107018874Y-136747910D01*
X107007448Y-136756817D01*
X106944135Y-136832418D01*
X106937327Y-136844966D01*
X106905056Y-136937931D01*
X106893821Y-137036605D01*
X106570366Y-137036605D01*
X106573375Y-136998381D01*
X106596822Y-136897386D01*
X106635901Y-136804208D01*
X106691588Y-136722997D01*
X106763762Y-136655220D01*
X106853277Y-136602341D01*
X106884854Y-136589254D01*
X106982788Y-136564410D01*
X107086285Y-136556912D01*
X107092818Y-136556952D01*
G37*
G36*
X103963396Y-136249654D02*
G01*
X104060069Y-136270365D01*
X104109941Y-136284337D01*
X104176375Y-136339047D01*
X104692705Y-137749306D01*
X104734714Y-137803527D01*
X104805056Y-137847980D01*
X104886145Y-137880220D01*
X104960883Y-137901225D01*
X105586145Y-136339047D01*
X105642321Y-136282383D01*
X105738990Y-136254079D01*
X105769816Y-136249654D01*
X105769816Y-136150492D01*
X105069327Y-136150492D01*
X105069327Y-136249654D01*
X105169482Y-136262311D01*
X105214896Y-136277498D01*
X105235412Y-136336605D01*
X104788936Y-137472334D01*
X104381051Y-136339047D01*
X104379097Y-136305342D01*
X104404498Y-136281406D01*
X104462139Y-136263821D01*
X104555440Y-136249654D01*
X104555440Y-136150492D01*
X103963396Y-136150492D01*
X103963396Y-136249654D01*
G37*
G36*
X102958092Y-136176382D02*
G01*
X103037715Y-136205202D01*
X103118804Y-136233046D01*
X103191100Y-136257470D01*
X103852021Y-137344839D01*
X103795845Y-137401015D01*
X103144694Y-137401015D01*
X103144694Y-137666751D01*
X103156417Y-137690687D01*
X103199892Y-137714135D01*
X103287820Y-137739047D01*
X103334554Y-137749283D01*
X103432900Y-137767868D01*
X103432900Y-137869962D01*
X102637645Y-137869962D01*
X102637645Y-137767868D01*
X102730946Y-137743932D01*
X102790053Y-137722439D01*
X102820339Y-137702899D01*
X102828643Y-137682383D01*
X102828643Y-137401015D01*
X102752928Y-137401015D01*
X102681609Y-137337512D01*
X102674197Y-137329801D01*
X102612733Y-137253493D01*
X102648881Y-137213437D01*
X102828643Y-137213437D01*
X103144694Y-137213437D01*
X103582865Y-137213437D01*
X103144694Y-136516368D01*
X103144694Y-137213437D01*
X102828643Y-137213437D01*
X102828643Y-136208622D01*
X102889216Y-136150492D01*
X102958092Y-136176382D01*
G37*
G36*
X102452021Y-137869962D02*
G01*
X102452021Y-137770310D01*
X102352909Y-137750987D01*
X102307918Y-137732209D01*
X102263954Y-137687268D01*
X102263954Y-136349794D01*
X102343949Y-136289607D01*
X102439723Y-136252421D01*
X102452021Y-136250143D01*
X102452021Y-136150492D01*
X102068560Y-136150492D01*
X102034854Y-136153911D01*
X102007987Y-136168077D01*
X101978678Y-136199829D01*
X101936668Y-136256493D01*
X101095985Y-137407366D01*
X101095985Y-136333674D01*
X101105266Y-136314135D01*
X101135552Y-136291176D01*
X101193193Y-136268705D01*
X101284052Y-136249654D01*
X101284052Y-136150492D01*
X100700311Y-136150492D01*
X100700311Y-136249654D01*
X100799124Y-136270202D01*
X100844903Y-136289222D01*
X100889844Y-136333674D01*
X100889844Y-137901225D01*
X100988379Y-137887656D01*
X101085969Y-137857675D01*
X101101358Y-137850422D01*
X101184286Y-137796345D01*
X101218106Y-137760052D01*
X102057813Y-136612111D01*
X102057813Y-137686779D01*
X102048043Y-137706807D01*
X102015803Y-137729766D01*
X101957673Y-137752725D01*
X101868280Y-137770310D01*
X101868280Y-137869962D01*
X102452021Y-137869962D01*
G37*
G36*
X99863047Y-136966263D02*
G01*
X99866008Y-137077485D01*
X99874892Y-137185959D01*
X99889700Y-137291686D01*
X99910430Y-137394665D01*
X99936655Y-137494102D01*
X99967949Y-137589693D01*
X100004311Y-137681437D01*
X100045740Y-137769333D01*
X100098252Y-137863233D01*
X100156869Y-137951491D01*
X100221591Y-138034107D01*
X100260186Y-138077568D01*
X100333511Y-138151065D01*
X100411706Y-138217685D01*
X100494769Y-138277427D01*
X100543019Y-138307645D01*
X100617269Y-138204574D01*
X100547091Y-138126409D01*
X100485609Y-138042441D01*
X100462907Y-138007226D01*
X100411296Y-137915955D01*
X100368571Y-137823843D01*
X100336878Y-137742467D01*
X100305489Y-137645705D01*
X100278488Y-137542264D01*
X100257941Y-137443457D01*
X100251881Y-137409319D01*
X100236533Y-137303068D01*
X100227106Y-137203692D01*
X100221649Y-137099675D01*
X100220130Y-137004853D01*
X100221717Y-136906576D01*
X100227299Y-136798715D01*
X100236898Y-136693713D01*
X100245531Y-136625300D01*
X100261790Y-136525407D01*
X100281990Y-136429610D01*
X100309057Y-136327972D01*
X100321246Y-136288733D01*
X100354772Y-136194108D01*
X100397161Y-136096412D01*
X100445322Y-136005412D01*
X100499139Y-135921579D01*
X100564169Y-135839605D01*
X100617269Y-135784616D01*
X100543019Y-135681546D01*
X100450523Y-135735547D01*
X100364828Y-135795886D01*
X100285934Y-135862561D01*
X100245042Y-135902341D01*
X100176452Y-135978372D01*
X100114663Y-136059735D01*
X100059674Y-136146430D01*
X100032063Y-136196898D01*
X99987652Y-136291343D01*
X99950043Y-136390579D01*
X99919234Y-136494606D01*
X99905056Y-136554470D01*
X99886677Y-136652930D01*
X99873549Y-136754382D01*
X99865672Y-136858827D01*
X99863047Y-136966263D01*
G37*
D10*
X32998569Y-50982738D02*
X31998569Y-50982738D01*
X32379521Y-50982738D02*
X32331902Y-51077976D01*
X32331902Y-51077976D02*
X32331902Y-51268452D01*
X32331902Y-51268452D02*
X32379521Y-51363690D01*
X32379521Y-51363690D02*
X32427140Y-51411309D01*
X32427140Y-51411309D02*
X32522378Y-51458928D01*
X32522378Y-51458928D02*
X32808092Y-51458928D01*
X32808092Y-51458928D02*
X32903330Y-51411309D01*
X32903330Y-51411309D02*
X32950950Y-51363690D01*
X32950950Y-51363690D02*
X32998569Y-51268452D01*
X32998569Y-51268452D02*
X32998569Y-51077976D01*
X32998569Y-51077976D02*
X32950950Y-50982738D01*
X32998569Y-52030357D02*
X32950950Y-51935119D01*
X32950950Y-51935119D02*
X32903330Y-51887500D01*
X32903330Y-51887500D02*
X32808092Y-51839881D01*
X32808092Y-51839881D02*
X32522378Y-51839881D01*
X32522378Y-51839881D02*
X32427140Y-51887500D01*
X32427140Y-51887500D02*
X32379521Y-51935119D01*
X32379521Y-51935119D02*
X32331902Y-52030357D01*
X32331902Y-52030357D02*
X32331902Y-52173214D01*
X32331902Y-52173214D02*
X32379521Y-52268452D01*
X32379521Y-52268452D02*
X32427140Y-52316071D01*
X32427140Y-52316071D02*
X32522378Y-52363690D01*
X32522378Y-52363690D02*
X32808092Y-52363690D01*
X32808092Y-52363690D02*
X32903330Y-52316071D01*
X32903330Y-52316071D02*
X32950950Y-52268452D01*
X32950950Y-52268452D02*
X32998569Y-52173214D01*
X32998569Y-52173214D02*
X32998569Y-52030357D01*
X32998569Y-52935119D02*
X32950950Y-52839881D01*
X32950950Y-52839881D02*
X32903330Y-52792262D01*
X32903330Y-52792262D02*
X32808092Y-52744643D01*
X32808092Y-52744643D02*
X32522378Y-52744643D01*
X32522378Y-52744643D02*
X32427140Y-52792262D01*
X32427140Y-52792262D02*
X32379521Y-52839881D01*
X32379521Y-52839881D02*
X32331902Y-52935119D01*
X32331902Y-52935119D02*
X32331902Y-53077976D01*
X32331902Y-53077976D02*
X32379521Y-53173214D01*
X32379521Y-53173214D02*
X32427140Y-53220833D01*
X32427140Y-53220833D02*
X32522378Y-53268452D01*
X32522378Y-53268452D02*
X32808092Y-53268452D01*
X32808092Y-53268452D02*
X32903330Y-53220833D01*
X32903330Y-53220833D02*
X32950950Y-53173214D01*
X32950950Y-53173214D02*
X32998569Y-53077976D01*
X32998569Y-53077976D02*
X32998569Y-52935119D01*
X32331902Y-53554167D02*
X32331902Y-53935119D01*
X31998569Y-53697024D02*
X32855711Y-53697024D01*
X32855711Y-53697024D02*
X32950950Y-53744643D01*
X32950950Y-53744643D02*
X32998569Y-53839881D01*
X32998569Y-53839881D02*
X32998569Y-53935119D01*
D12*
G36*
X234915962Y-51654801D02*
G01*
X234974067Y-51621051D01*
X235027825Y-51583339D01*
X235077236Y-51541667D01*
X235102808Y-51516804D01*
X235145382Y-51469285D01*
X235183802Y-51418433D01*
X235218068Y-51364249D01*
X235235310Y-51332706D01*
X235263066Y-51273383D01*
X235286572Y-51211162D01*
X235305828Y-51146043D01*
X235314689Y-51108613D01*
X235326176Y-51046942D01*
X235334381Y-50983439D01*
X235339304Y-50918104D01*
X235340945Y-50850937D01*
X235339094Y-50781442D01*
X235333541Y-50713703D01*
X235324287Y-50647720D01*
X235311331Y-50583491D01*
X235294940Y-50521248D01*
X235275381Y-50461523D01*
X235252655Y-50404316D01*
X235226762Y-50349629D01*
X235193942Y-50291089D01*
X235157306Y-50236027D01*
X235116855Y-50184443D01*
X235092733Y-50157288D01*
X235046781Y-50111352D01*
X234997883Y-50069714D01*
X234946038Y-50032376D01*
X234915962Y-50013490D01*
X234869556Y-50077909D01*
X234913476Y-50126762D01*
X234952061Y-50179242D01*
X234966338Y-50201251D01*
X234998409Y-50258252D01*
X235025016Y-50315708D01*
X235044801Y-50366420D01*
X235064288Y-50426634D01*
X235081151Y-50491261D01*
X235094084Y-50553198D01*
X235097923Y-50574637D01*
X235107516Y-50641120D01*
X235113408Y-50703135D01*
X235116819Y-50767897D01*
X235117768Y-50826818D01*
X235116776Y-50888623D01*
X235113288Y-50956283D01*
X235107288Y-51021963D01*
X235101892Y-51064650D01*
X235091731Y-51126812D01*
X235079105Y-51186559D01*
X235062189Y-51250112D01*
X235054570Y-51274699D01*
X235033455Y-51333839D01*
X235006854Y-51394899D01*
X234976718Y-51451775D01*
X234943118Y-51504104D01*
X234902596Y-51555596D01*
X234869556Y-51590382D01*
X234915962Y-51654801D01*
G37*
G36*
X234219870Y-51242642D02*
G01*
X234274768Y-51280957D01*
X234331281Y-51317494D01*
X234387560Y-51349932D01*
X234413128Y-51362931D01*
X234471832Y-51387443D01*
X234531874Y-51400641D01*
X234537691Y-51400789D01*
X234599234Y-51390037D01*
X234607606Y-51386745D01*
X234658763Y-51351249D01*
X234665003Y-51344308D01*
X234697203Y-51290522D01*
X234704082Y-51272256D01*
X234716676Y-51211983D01*
X234718736Y-51169979D01*
X234718736Y-50697370D01*
X234822540Y-50697370D01*
X234847574Y-50663481D01*
X234780713Y-50580133D01*
X234718736Y-50580133D01*
X234718736Y-50397561D01*
X234545324Y-50267502D01*
X234512656Y-50296201D01*
X234512656Y-50580133D01*
X234250706Y-50580133D01*
X234219870Y-50614022D01*
X234239104Y-50647300D01*
X234262918Y-50680883D01*
X234286427Y-50709582D01*
X234306577Y-50727289D01*
X234332833Y-50717214D01*
X234368553Y-50707445D01*
X234410074Y-50700117D01*
X234455259Y-50697370D01*
X234512656Y-50697370D01*
X234512656Y-51089990D01*
X234509230Y-51150981D01*
X234507466Y-51162652D01*
X234492506Y-51210585D01*
X234469303Y-51236536D01*
X234439689Y-51244474D01*
X234407632Y-51241420D01*
X234369469Y-51231651D01*
X234320926Y-51212111D01*
X234264405Y-51183656D01*
X234257728Y-51180054D01*
X234219870Y-51242642D01*
G37*
G36*
X233635214Y-51381250D02*
G01*
X233635214Y-51318968D01*
X233574680Y-51301259D01*
X233547897Y-51290880D01*
X233521946Y-51266761D01*
X233521946Y-50891848D01*
X233524688Y-50829141D01*
X233527747Y-50806363D01*
X233544844Y-50752935D01*
X233575069Y-50725152D01*
X233619033Y-50716909D01*
X233679205Y-50727780D01*
X233721615Y-50747745D01*
X233774821Y-50782270D01*
X233826902Y-50821743D01*
X233844042Y-50835672D01*
X233844042Y-51266761D01*
X233814733Y-51293322D01*
X233756000Y-51312900D01*
X233729858Y-51318968D01*
X233729858Y-51381250D01*
X234163389Y-51381250D01*
X234163389Y-51318662D01*
X234103617Y-51301537D01*
X234078515Y-51292406D01*
X234050122Y-51266455D01*
X234050122Y-50294369D01*
X234052259Y-50238193D01*
X234065081Y-50207052D01*
X234098970Y-50191176D01*
X234160831Y-50181425D01*
X234163389Y-50181101D01*
X234163389Y-50121262D01*
X234102100Y-50111751D01*
X234077294Y-50107523D01*
X234016725Y-50095021D01*
X234006463Y-50092563D01*
X233947627Y-50076034D01*
X233943876Y-50074856D01*
X233885862Y-50054158D01*
X233881899Y-50052568D01*
X233844042Y-50087984D01*
X233844042Y-50713551D01*
X233795498Y-50675903D01*
X233742712Y-50640255D01*
X233686326Y-50608973D01*
X233659028Y-50596619D01*
X233596975Y-50574666D01*
X233535952Y-50562317D01*
X233505765Y-50560594D01*
X233443221Y-50569476D01*
X233434630Y-50572195D01*
X233380567Y-50603484D01*
X233373874Y-50609747D01*
X233339185Y-50660172D01*
X233331742Y-50677830D01*
X233317742Y-50740485D01*
X233315867Y-50779496D01*
X233315867Y-51266761D01*
X233310676Y-51278362D01*
X233292663Y-51289964D01*
X233257554Y-51303092D01*
X233201683Y-51318968D01*
X233201683Y-51381250D01*
X233635214Y-51381250D01*
G37*
G36*
X232723082Y-50560619D02*
G01*
X232784333Y-50567005D01*
X232788371Y-50567823D01*
X232847226Y-50584102D01*
X232849131Y-50584755D01*
X232905844Y-50609442D01*
X232955914Y-50640278D01*
X232966771Y-50648358D01*
X233015906Y-50691869D01*
X233056454Y-50740569D01*
X233088415Y-50794456D01*
X233096327Y-50811620D01*
X233117078Y-50872013D01*
X233129183Y-50937296D01*
X233132684Y-51000231D01*
X233131326Y-51038860D01*
X233122675Y-51101478D01*
X233104291Y-51164179D01*
X233096878Y-51182249D01*
X233065973Y-51240385D01*
X233027355Y-51290574D01*
X233014966Y-51303335D01*
X232967624Y-51342212D01*
X232914087Y-51372090D01*
X232897777Y-51378817D01*
X232838664Y-51395296D01*
X232776395Y-51400789D01*
X232745012Y-51400073D01*
X232682056Y-51393462D01*
X232655122Y-51387660D01*
X232595655Y-51366290D01*
X232556962Y-51345678D01*
X232504980Y-51310419D01*
X232492964Y-51301117D01*
X232444588Y-51259606D01*
X232398429Y-51215164D01*
X232405451Y-51203868D01*
X232417053Y-51187382D01*
X232430792Y-51170590D01*
X232443004Y-51160210D01*
X232476223Y-51182580D01*
X232530626Y-51215470D01*
X232539747Y-51220369D01*
X232597182Y-51246916D01*
X232652137Y-51260960D01*
X232704344Y-51264013D01*
X232734886Y-51261896D01*
X232794103Y-51242336D01*
X232817394Y-51226928D01*
X232860659Y-51181276D01*
X232880918Y-51147106D01*
X232903096Y-51088463D01*
X232914774Y-51032211D01*
X232919888Y-50970922D01*
X232513834Y-50970922D01*
X232482388Y-50957793D01*
X232447583Y-50940086D01*
X232415832Y-50920852D01*
X232393544Y-50902534D01*
X232393564Y-50898322D01*
X232396549Y-50860402D01*
X232598708Y-50860402D01*
X232605120Y-50886047D01*
X232631376Y-50892764D01*
X232917140Y-50892764D01*
X232912814Y-50856875D01*
X232900348Y-50795372D01*
X232894864Y-50777019D01*
X232868597Y-50721489D01*
X232864741Y-50715836D01*
X232819443Y-50674472D01*
X232810016Y-50669810D01*
X232749834Y-50658291D01*
X232736460Y-50658820D01*
X232676866Y-50679967D01*
X232669725Y-50685534D01*
X232630155Y-50732785D01*
X232625900Y-50740627D01*
X232605730Y-50798730D01*
X232598708Y-50860402D01*
X232396549Y-50860402D01*
X232398429Y-50836512D01*
X232413084Y-50773390D01*
X232437508Y-50715153D01*
X232472313Y-50664397D01*
X232517421Y-50622036D01*
X232573368Y-50588987D01*
X232593104Y-50580807D01*
X232654313Y-50565280D01*
X232718998Y-50560594D01*
X232723082Y-50560619D01*
G37*
G36*
X230767192Y-50368558D02*
G01*
X230827613Y-50381502D01*
X230858783Y-50390234D01*
X230900305Y-50424428D01*
X231223011Y-51305840D01*
X231249267Y-51339728D01*
X231293230Y-51367511D01*
X231343911Y-51387661D01*
X231390622Y-51400789D01*
X231781411Y-50424428D01*
X231816521Y-50389013D01*
X231876939Y-50371323D01*
X231896205Y-50368558D01*
X231896205Y-50306581D01*
X231458400Y-50306581D01*
X231458400Y-50368558D01*
X231520996Y-50376468D01*
X231549380Y-50385960D01*
X231562203Y-50422902D01*
X231283155Y-51132732D01*
X231028227Y-50424428D01*
X231027006Y-50403362D01*
X231042882Y-50388402D01*
X231078907Y-50377411D01*
X231137220Y-50368558D01*
X231137220Y-50306581D01*
X230767192Y-50306581D01*
X230767192Y-50368558D01*
G37*
G36*
X230138878Y-50322762D02*
G01*
X230188642Y-50340775D01*
X230239323Y-50358177D01*
X230284507Y-50373442D01*
X230697583Y-51053048D01*
X230662473Y-51088158D01*
X230255504Y-51088158D01*
X230255504Y-51254243D01*
X230262831Y-51269203D01*
X230290003Y-51283858D01*
X230344958Y-51299428D01*
X230374167Y-51305825D01*
X230435633Y-51317441D01*
X230435633Y-51381250D01*
X229938599Y-51381250D01*
X229938599Y-51317441D01*
X229996912Y-51302481D01*
X230033853Y-51289048D01*
X230052782Y-51276836D01*
X230057972Y-51264013D01*
X230057972Y-51088158D01*
X230010650Y-51088158D01*
X229966076Y-51048469D01*
X229961444Y-51043649D01*
X229923028Y-50995956D01*
X229945621Y-50970922D01*
X230057972Y-50970922D01*
X230255504Y-50970922D01*
X230529361Y-50970922D01*
X230255504Y-50535253D01*
X230255504Y-50970922D01*
X230057972Y-50970922D01*
X230057972Y-50342912D01*
X230095830Y-50306581D01*
X230138878Y-50322762D01*
G37*
G36*
X229822583Y-51381250D02*
G01*
X229822583Y-51318968D01*
X229760638Y-51306890D01*
X229732519Y-51295154D01*
X229705041Y-51267066D01*
X229705041Y-50431145D01*
X229755038Y-50393528D01*
X229814897Y-50370287D01*
X229822583Y-50368863D01*
X229822583Y-50306581D01*
X229582920Y-50306581D01*
X229561854Y-50308718D01*
X229545062Y-50317572D01*
X229526744Y-50337417D01*
X229500488Y-50372832D01*
X228975061Y-51092127D01*
X228975061Y-50421070D01*
X228980861Y-50408858D01*
X228999790Y-50394508D01*
X229035816Y-50380464D01*
X229092602Y-50368558D01*
X229092602Y-50306581D01*
X228727765Y-50306581D01*
X228727765Y-50368558D01*
X228789522Y-50381400D01*
X228818135Y-50393287D01*
X228846222Y-50421070D01*
X228846222Y-51400789D01*
X228907807Y-51392308D01*
X228968801Y-51373570D01*
X228978419Y-51369037D01*
X229030249Y-51335239D01*
X229051386Y-51312556D01*
X229576203Y-50595093D01*
X229576203Y-51266761D01*
X229570097Y-51279278D01*
X229549947Y-51293627D01*
X229513616Y-51307977D01*
X229457745Y-51318968D01*
X229457745Y-51381250D01*
X229822583Y-51381250D01*
G37*
G36*
X228204474Y-50816438D02*
G01*
X228206325Y-50885952D01*
X228211878Y-50953748D01*
X228221132Y-51019827D01*
X228234089Y-51084189D01*
X228250480Y-51146337D01*
X228270038Y-51206082D01*
X228292764Y-51263421D01*
X228318658Y-51318357D01*
X228351478Y-51377044D01*
X228388113Y-51432205D01*
X228428564Y-51483841D01*
X228452686Y-51511004D01*
X228498515Y-51556939D01*
X228547386Y-51598577D01*
X228599301Y-51635915D01*
X228629457Y-51654801D01*
X228675863Y-51590382D01*
X228632002Y-51541529D01*
X228593576Y-51489049D01*
X228579387Y-51467040D01*
X228547130Y-51409996D01*
X228520427Y-51352425D01*
X228500619Y-51301565D01*
X228481001Y-51241089D01*
X228464125Y-51176439D01*
X228451283Y-51114684D01*
X228447496Y-51093348D01*
X228437903Y-51026941D01*
X228432012Y-50964831D01*
X228428601Y-50899820D01*
X228427651Y-50840557D01*
X228428643Y-50779134D01*
X228432132Y-50711720D01*
X228438132Y-50646094D01*
X228443527Y-50603336D01*
X228453689Y-50540903D01*
X228466314Y-50481030D01*
X228483231Y-50417506D01*
X228490849Y-50392982D01*
X228511803Y-50333841D01*
X228538296Y-50272781D01*
X228568396Y-50215906D01*
X228602032Y-50163510D01*
X228642676Y-50112277D01*
X228675863Y-50077909D01*
X228629457Y-50013490D01*
X228571647Y-50047241D01*
X228518088Y-50084952D01*
X228468779Y-50126624D01*
X228443222Y-50151487D01*
X228400353Y-50199006D01*
X228361734Y-50249858D01*
X228327366Y-50304042D01*
X228310109Y-50335585D01*
X228282353Y-50394613D01*
X228258847Y-50456635D01*
X228239591Y-50521652D01*
X228230730Y-50559067D01*
X228219243Y-50620605D01*
X228211038Y-50684012D01*
X228206115Y-50749290D01*
X228204474Y-50816438D01*
G37*
D10*
X63838930Y-54006547D02*
X64505597Y-54006547D01*
X64315121Y-54006547D02*
X64410359Y-53958928D01*
X64410359Y-53958928D02*
X64457978Y-53911309D01*
X64457978Y-53911309D02*
X64505597Y-53816071D01*
X64505597Y-53816071D02*
X64505597Y-53720833D01*
X63886550Y-53006547D02*
X63838930Y-53101785D01*
X63838930Y-53101785D02*
X63838930Y-53292261D01*
X63838930Y-53292261D02*
X63886550Y-53387499D01*
X63886550Y-53387499D02*
X63981788Y-53435118D01*
X63981788Y-53435118D02*
X64362740Y-53435118D01*
X64362740Y-53435118D02*
X64457978Y-53387499D01*
X64457978Y-53387499D02*
X64505597Y-53292261D01*
X64505597Y-53292261D02*
X64505597Y-53101785D01*
X64505597Y-53101785D02*
X64457978Y-53006547D01*
X64457978Y-53006547D02*
X64362740Y-52958928D01*
X64362740Y-52958928D02*
X64267502Y-52958928D01*
X64267502Y-52958928D02*
X64172264Y-53435118D01*
X63886550Y-52577975D02*
X63838930Y-52482737D01*
X63838930Y-52482737D02*
X63838930Y-52292261D01*
X63838930Y-52292261D02*
X63886550Y-52197023D01*
X63886550Y-52197023D02*
X63981788Y-52149404D01*
X63981788Y-52149404D02*
X64029407Y-52149404D01*
X64029407Y-52149404D02*
X64124645Y-52197023D01*
X64124645Y-52197023D02*
X64172264Y-52292261D01*
X64172264Y-52292261D02*
X64172264Y-52435118D01*
X64172264Y-52435118D02*
X64219883Y-52530356D01*
X64219883Y-52530356D02*
X64315121Y-52577975D01*
X64315121Y-52577975D02*
X64362740Y-52577975D01*
X64362740Y-52577975D02*
X64457978Y-52530356D01*
X64457978Y-52530356D02*
X64505597Y-52435118D01*
X64505597Y-52435118D02*
X64505597Y-52292261D01*
X64505597Y-52292261D02*
X64457978Y-52197023D01*
X63886550Y-51339880D02*
X63838930Y-51435118D01*
X63838930Y-51435118D02*
X63838930Y-51625594D01*
X63838930Y-51625594D02*
X63886550Y-51720832D01*
X63886550Y-51720832D02*
X63981788Y-51768451D01*
X63981788Y-51768451D02*
X64362740Y-51768451D01*
X64362740Y-51768451D02*
X64457978Y-51720832D01*
X64457978Y-51720832D02*
X64505597Y-51625594D01*
X64505597Y-51625594D02*
X64505597Y-51435118D01*
X64505597Y-51435118D02*
X64457978Y-51339880D01*
X64457978Y-51339880D02*
X64362740Y-51292261D01*
X64362740Y-51292261D02*
X64267502Y-51292261D01*
X64267502Y-51292261D02*
X64172264Y-51768451D01*
X64505597Y-51006546D02*
X64505597Y-50625594D01*
X64838930Y-50863689D02*
X63981788Y-50863689D01*
X63981788Y-50863689D02*
X63886550Y-50816070D01*
X63886550Y-50816070D02*
X63838930Y-50720832D01*
X63838930Y-50720832D02*
X63838930Y-50625594D01*
X40084225Y-55811069D02*
X39465178Y-55811069D01*
X39465178Y-55811069D02*
X39798511Y-56192021D01*
X39798511Y-56192021D02*
X39655654Y-56192021D01*
X39655654Y-56192021D02*
X39560416Y-56239640D01*
X39560416Y-56239640D02*
X39512797Y-56287259D01*
X39512797Y-56287259D02*
X39465178Y-56382497D01*
X39465178Y-56382497D02*
X39465178Y-56620592D01*
X39465178Y-56620592D02*
X39512797Y-56715830D01*
X39512797Y-56715830D02*
X39560416Y-56763450D01*
X39560416Y-56763450D02*
X39655654Y-56811069D01*
X39655654Y-56811069D02*
X39941368Y-56811069D01*
X39941368Y-56811069D02*
X40036606Y-56763450D01*
X40036606Y-56763450D02*
X40084225Y-56715830D01*
X39131844Y-56144402D02*
X38893749Y-56811069D01*
X38893749Y-56811069D02*
X38655654Y-56144402D01*
X38369939Y-55811069D02*
X37750892Y-55811069D01*
X37750892Y-55811069D02*
X38084225Y-56192021D01*
X38084225Y-56192021D02*
X37941368Y-56192021D01*
X37941368Y-56192021D02*
X37846130Y-56239640D01*
X37846130Y-56239640D02*
X37798511Y-56287259D01*
X37798511Y-56287259D02*
X37750892Y-56382497D01*
X37750892Y-56382497D02*
X37750892Y-56620592D01*
X37750892Y-56620592D02*
X37798511Y-56715830D01*
X37798511Y-56715830D02*
X37846130Y-56763450D01*
X37846130Y-56763450D02*
X37941368Y-56811069D01*
X37941368Y-56811069D02*
X38227082Y-56811069D01*
X38227082Y-56811069D02*
X38322320Y-56763450D01*
X38322320Y-56763450D02*
X38369939Y-56715830D01*
G36*
X244627686Y-56978750D02*
G01*
X244627686Y-56934786D01*
X244555310Y-56916914D01*
X244518143Y-56903645D01*
X244478576Y-56872137D01*
X244478576Y-55796492D01*
X244516311Y-55766084D01*
X244588956Y-55741496D01*
X244627686Y-55733111D01*
X244627686Y-55689147D01*
X244164235Y-55689147D01*
X244164235Y-55733477D01*
X244236740Y-55751607D01*
X244274145Y-55765351D01*
X244313712Y-55797225D01*
X244313712Y-56321858D01*
X243892027Y-55825068D01*
X243862351Y-55780738D01*
X243866381Y-55755093D01*
X243902651Y-55741171D01*
X243968230Y-55733477D01*
X243968230Y-55689147D01*
X243535554Y-55689147D01*
X243535554Y-55733477D01*
X243594539Y-55741904D01*
X243640701Y-55752528D01*
X243678436Y-55769747D01*
X243710676Y-55797225D01*
X244162037Y-56296213D01*
X243664514Y-56856750D01*
X243624947Y-56888990D01*
X243579518Y-56904744D01*
X243529692Y-56909140D01*
X243476936Y-56905477D01*
X243469609Y-56949807D01*
X243542087Y-56971832D01*
X243591974Y-56985710D01*
X243663873Y-56999878D01*
X243702616Y-57002197D01*
X243755739Y-56992671D01*
X243799337Y-56957867D01*
X244313712Y-56329186D01*
X244313712Y-56872870D01*
X244276709Y-56903278D01*
X244203497Y-56926854D01*
X244164235Y-56935152D01*
X244164235Y-56978750D01*
X244627686Y-56978750D01*
G37*
G36*
X242967248Y-55998309D02*
G01*
X243039863Y-56013746D01*
X243103512Y-56035272D01*
X243171755Y-56066869D01*
X243223657Y-56098775D01*
X243282763Y-56147835D01*
X243315530Y-56183848D01*
X243354570Y-56246387D01*
X243340282Y-56286687D01*
X243298517Y-56284489D01*
X243238799Y-56270201D01*
X243186409Y-56249318D01*
X243165160Y-56228069D01*
X243154902Y-56172015D01*
X243117899Y-56128052D01*
X243062212Y-56099109D01*
X242996999Y-56087752D01*
X242987670Y-56087661D01*
X242913101Y-56098743D01*
X242860345Y-56132448D01*
X242832501Y-56184838D01*
X242824075Y-56250051D01*
X242824075Y-56395131D01*
X242867047Y-56401640D01*
X242944567Y-56414966D01*
X243020812Y-56431035D01*
X243080161Y-56446281D01*
X243151238Y-56469870D01*
X243170026Y-56477628D01*
X243234769Y-56512734D01*
X243290823Y-56559262D01*
X243315763Y-56587146D01*
X243356402Y-56649754D01*
X243375862Y-56704505D01*
X243383513Y-56780180D01*
X243382231Y-56808940D01*
X243362997Y-56882029D01*
X243357696Y-56892322D01*
X243310973Y-56950906D01*
X243307004Y-56954192D01*
X243240265Y-56989740D01*
X243237817Y-56990507D01*
X243164061Y-57002197D01*
X243091521Y-56991939D01*
X243076404Y-56987705D01*
X243007623Y-56960431D01*
X242979738Y-56945934D01*
X242917131Y-56905477D01*
X242879327Y-56876096D01*
X242824075Y-56825976D01*
X242819593Y-56882802D01*
X242799528Y-56955302D01*
X242742742Y-57002197D01*
X242726507Y-57000411D01*
X242656646Y-56973620D01*
X242638044Y-56963726D01*
X242573327Y-56923846D01*
X242511932Y-56880930D01*
X242527320Y-56833669D01*
X242591067Y-56856384D01*
X242628070Y-56861513D01*
X242658112Y-56843561D01*
X242669469Y-56782745D01*
X242669469Y-56730721D01*
X242824075Y-56730721D01*
X242843538Y-56747099D01*
X242904895Y-56792498D01*
X242972086Y-56830006D01*
X243027137Y-56850405D01*
X243103244Y-56861513D01*
X243135851Y-56856384D01*
X243172487Y-56836234D01*
X243202163Y-56795567D01*
X243214619Y-56728523D01*
X243214362Y-56716633D01*
X243198133Y-56644625D01*
X243197092Y-56642412D01*
X243154902Y-56581244D01*
X243116800Y-56548271D01*
X243059281Y-56518962D01*
X243039909Y-56512024D01*
X242966957Y-56491485D01*
X242898532Y-56476876D01*
X242824075Y-56463641D01*
X242824075Y-56730721D01*
X242669469Y-56730721D01*
X242669469Y-56213781D01*
X242670431Y-56188576D01*
X242686840Y-56116544D01*
X242731018Y-56052214D01*
X242755791Y-56032418D01*
X242827819Y-56002154D01*
X242905408Y-55993962D01*
X242967248Y-55998309D01*
G37*
G36*
X241709595Y-56030965D02*
G01*
X241701168Y-56066502D01*
X241709228Y-56134280D01*
X241727085Y-56206411D01*
X241729378Y-56214147D01*
X241753925Y-56283024D01*
X241798255Y-56283024D01*
X241815840Y-56213048D01*
X241842219Y-56167253D01*
X241875191Y-56142340D01*
X241912561Y-56134646D01*
X241965683Y-56153697D01*
X242020300Y-56203586D01*
X242028332Y-56213415D01*
X242070008Y-56276572D01*
X242091713Y-56317462D01*
X242121297Y-56386796D01*
X242144628Y-56457231D01*
X242147766Y-56468038D01*
X242147766Y-56871771D01*
X242109298Y-56903645D01*
X242038000Y-56923394D01*
X241973377Y-56934419D01*
X241973377Y-56978750D01*
X242446353Y-56978750D01*
X242446353Y-56934786D01*
X242373224Y-56915695D01*
X242340474Y-56904378D01*
X242302372Y-56872137D01*
X242302372Y-56274964D01*
X242304570Y-56218177D01*
X242309699Y-56180808D01*
X242317393Y-56158094D01*
X242325819Y-56144904D01*
X242341939Y-56133181D01*
X242364654Y-56125487D01*
X242398360Y-56120724D01*
X242446353Y-56117061D01*
X242446353Y-56076028D01*
X242371855Y-56056128D01*
X242315195Y-56040491D01*
X242243145Y-56015427D01*
X242199057Y-55993962D01*
X242163154Y-56029866D01*
X242149598Y-56262874D01*
X242113076Y-56195211D01*
X242089514Y-56157361D01*
X242044825Y-56098126D01*
X242019905Y-56071632D01*
X241962340Y-56025744D01*
X241942236Y-56014479D01*
X241870907Y-55994463D01*
X241857240Y-55993962D01*
X241786165Y-56002022D01*
X241716742Y-56027162D01*
X241709595Y-56030965D01*
G37*
G36*
X241610310Y-56978750D02*
G01*
X241610310Y-56934419D01*
X241538173Y-56920245D01*
X241536304Y-56919765D01*
X241489043Y-56904011D01*
X241463764Y-56888258D01*
X241455704Y-56871771D01*
X241455704Y-55645550D01*
X241461932Y-55573743D01*
X241484647Y-55534908D01*
X241528977Y-55517689D01*
X241600052Y-55507797D01*
X241600052Y-55466764D01*
X241524833Y-55450470D01*
X241464131Y-55434890D01*
X241393780Y-55410238D01*
X241338101Y-55384332D01*
X241301099Y-55419137D01*
X241301099Y-56871771D01*
X241266294Y-56903645D01*
X241194730Y-56925275D01*
X241146859Y-56934419D01*
X241146859Y-56978750D01*
X241610310Y-56978750D01*
G37*
G36*
X241051971Y-56978750D02*
G01*
X241051971Y-56934786D01*
X240979595Y-56916914D01*
X240942428Y-56903645D01*
X240902861Y-56872137D01*
X240902861Y-55796492D01*
X240940596Y-55766084D01*
X241013241Y-55741496D01*
X241051971Y-55733111D01*
X241051971Y-55689147D01*
X240588520Y-55689147D01*
X240588520Y-55733477D01*
X240661025Y-55751607D01*
X240698429Y-55765351D01*
X240737997Y-55797225D01*
X240737997Y-56321858D01*
X240316311Y-55825068D01*
X240286636Y-55780738D01*
X240290666Y-55755093D01*
X240326936Y-55741171D01*
X240392515Y-55733477D01*
X240392515Y-55689147D01*
X239959839Y-55689147D01*
X239959839Y-55733477D01*
X240018824Y-55741904D01*
X240064986Y-55752528D01*
X240102721Y-55769747D01*
X240134961Y-55797225D01*
X240586322Y-56296213D01*
X240088799Y-56856750D01*
X240049232Y-56888990D01*
X240003803Y-56904744D01*
X239953977Y-56909140D01*
X239901221Y-56905477D01*
X239893893Y-56949807D01*
X239966371Y-56971832D01*
X240016259Y-56985710D01*
X240088158Y-56999878D01*
X240126901Y-57002197D01*
X240180024Y-56992671D01*
X240223621Y-56957867D01*
X240737997Y-56329186D01*
X240737997Y-56872870D01*
X240700994Y-56903278D01*
X240627781Y-56926854D01*
X240588520Y-56935152D01*
X240588520Y-56978750D01*
X241051971Y-56978750D01*
G37*
G36*
X239409969Y-55714802D02*
G01*
X239484298Y-55731279D01*
X239520875Y-55745727D01*
X239585415Y-55782204D01*
X239616155Y-55805711D01*
X239669312Y-55858041D01*
X239693913Y-55888498D01*
X239733426Y-55950731D01*
X239748503Y-55982001D01*
X239773360Y-56053313D01*
X239780089Y-56082815D01*
X239787281Y-56156628D01*
X239782129Y-56225230D01*
X239763834Y-56296946D01*
X239739000Y-56350140D01*
X239695324Y-56409053D01*
X239652177Y-56446479D01*
X239585781Y-56483059D01*
X239512204Y-56503927D01*
X239438869Y-56509803D01*
X239366329Y-56500278D01*
X239361620Y-56499011D01*
X239293056Y-56472800D01*
X239288624Y-56470574D01*
X239224546Y-56430302D01*
X239218409Y-56425511D01*
X239163729Y-56373882D01*
X239170438Y-56425196D01*
X239186427Y-56499505D01*
X239209525Y-56570620D01*
X239229194Y-56615751D01*
X239265825Y-56679584D01*
X239311008Y-56738781D01*
X239350768Y-56779784D01*
X239412077Y-56829948D01*
X239476604Y-56871405D01*
X239495552Y-56881925D01*
X239563501Y-56914153D01*
X239638821Y-56942017D01*
X239712909Y-56963362D01*
X239694591Y-57025644D01*
X239683418Y-57023999D01*
X239607809Y-57010097D01*
X239526980Y-56989099D01*
X239452104Y-56962652D01*
X239383182Y-56930756D01*
X239343075Y-56908189D01*
X239276472Y-56863466D01*
X239217057Y-56813469D01*
X239164828Y-56758198D01*
X239138891Y-56725161D01*
X239097659Y-56661907D01*
X239063440Y-56593785D01*
X239036235Y-56520794D01*
X239019675Y-56461061D01*
X239004361Y-56381118D01*
X238996393Y-56307089D01*
X238995067Y-56268736D01*
X239159699Y-56268736D01*
X239207235Y-56328178D01*
X239263380Y-56375348D01*
X239322124Y-56404537D01*
X239394539Y-56416014D01*
X239401715Y-56415898D01*
X239474406Y-56402825D01*
X239489837Y-56397093D01*
X239551343Y-56354098D01*
X239575849Y-56323736D01*
X239609595Y-56256646D01*
X239613720Y-56244659D01*
X239628866Y-56170287D01*
X239632676Y-56096911D01*
X239630901Y-56054922D01*
X239617655Y-55980773D01*
X239609320Y-55954967D01*
X239574424Y-55888816D01*
X239563394Y-55874858D01*
X239505181Y-55828366D01*
X239483771Y-55818749D01*
X239411025Y-55806384D01*
X239398140Y-55806929D01*
X239326395Y-55828732D01*
X239297122Y-55847776D01*
X239246528Y-55904569D01*
X239244273Y-55907947D01*
X239209549Y-55975989D01*
X239186078Y-56047085D01*
X239172051Y-56113443D01*
X239163220Y-56190103D01*
X239159699Y-56268736D01*
X238995067Y-56268736D01*
X238993736Y-56230267D01*
X238993767Y-56221765D01*
X238997459Y-56140950D01*
X239007305Y-56067792D01*
X239025244Y-55996161D01*
X239035609Y-55966547D01*
X239067413Y-55897422D01*
X239109507Y-55835693D01*
X239112797Y-55831765D01*
X239165653Y-55780738D01*
X239229309Y-55742636D01*
X239293553Y-55721073D01*
X239368893Y-55712595D01*
X239409969Y-55714802D01*
G37*
G36*
X238426411Y-55737819D02*
G01*
X238500424Y-55753866D01*
X238568754Y-55786600D01*
X238602752Y-55810455D01*
X238660030Y-55863966D01*
X238706140Y-55923987D01*
X238739392Y-55980816D01*
X238770267Y-56049775D01*
X238795167Y-56125487D01*
X238799027Y-56139921D01*
X238814590Y-56213724D01*
X238823928Y-56290245D01*
X238827041Y-56369486D01*
X238826942Y-56385596D01*
X238823486Y-56464471D01*
X238815092Y-56540556D01*
X238801762Y-56613851D01*
X238785600Y-56676270D01*
X238760574Y-56746343D01*
X238726657Y-56814985D01*
X238710390Y-56841022D01*
X238662656Y-56900598D01*
X238602459Y-56951639D01*
X238578646Y-56966204D01*
X238505877Y-56993853D01*
X238430268Y-57002197D01*
X238394191Y-57000419D01*
X238320178Y-56984373D01*
X238251849Y-56951639D01*
X238217565Y-56927819D01*
X238159943Y-56874559D01*
X238113729Y-56814985D01*
X238080513Y-56758348D01*
X238049761Y-56689520D01*
X238025069Y-56613851D01*
X238021254Y-56599415D01*
X238005869Y-56525563D01*
X237996639Y-56448920D01*
X237995066Y-56408320D01*
X238162456Y-56408320D01*
X238163673Y-56479730D01*
X238168467Y-56558902D01*
X238177843Y-56635100D01*
X238179822Y-56646740D01*
X238196803Y-56721012D01*
X238222906Y-56790438D01*
X238242476Y-56825300D01*
X238294347Y-56879831D01*
X238316146Y-56892333D01*
X238390334Y-56908408D01*
X238428883Y-56903992D01*
X238496946Y-56871038D01*
X238542376Y-56824419D01*
X238581210Y-56760030D01*
X238596057Y-56726112D01*
X238619907Y-56654099D01*
X238637630Y-56577214D01*
X238641297Y-56556382D01*
X238650914Y-56482708D01*
X238656524Y-56402523D01*
X238658147Y-56324789D01*
X238656901Y-56254500D01*
X238651993Y-56176383D01*
X238642393Y-56100941D01*
X238640327Y-56089349D01*
X238622976Y-56015578D01*
X238596964Y-55947068D01*
X238577200Y-55912592D01*
X238525156Y-55858408D01*
X238503426Y-55845905D01*
X238430268Y-55829831D01*
X238397918Y-55833445D01*
X238329518Y-55866834D01*
X238283722Y-55912721D01*
X238243789Y-55976377D01*
X238228319Y-56009688D01*
X238203403Y-56080762D01*
X238184804Y-56156994D01*
X238180810Y-56177630D01*
X238170334Y-56250789D01*
X238164224Y-56330673D01*
X238162456Y-56408320D01*
X237995066Y-56408320D01*
X237993562Y-56369486D01*
X237993661Y-56353286D01*
X237997117Y-56274002D01*
X238005510Y-56197581D01*
X238018841Y-56124022D01*
X238035031Y-56061248D01*
X238060172Y-55990900D01*
X238094312Y-55922155D01*
X238110482Y-55896136D01*
X238158132Y-55836773D01*
X238218510Y-55786234D01*
X238242218Y-55771774D01*
X238314786Y-55744326D01*
X238390334Y-55736042D01*
X238426411Y-55737819D01*
G37*
X39322321Y-50687901D02*
X39417559Y-50735520D01*
X39417559Y-50735520D02*
X39608035Y-50735520D01*
X39608035Y-50735520D02*
X39703273Y-50687901D01*
X39703273Y-50687901D02*
X39750892Y-50640281D01*
X39750892Y-50640281D02*
X39798511Y-50545043D01*
X39798511Y-50545043D02*
X39798511Y-50259329D01*
X39798511Y-50259329D02*
X39750892Y-50164091D01*
X39750892Y-50164091D02*
X39703273Y-50116472D01*
X39703273Y-50116472D02*
X39608035Y-50068853D01*
X39608035Y-50068853D02*
X39417559Y-50068853D01*
X39417559Y-50068853D02*
X39322321Y-50116472D01*
X38750892Y-50735520D02*
X38846130Y-50687901D01*
X38846130Y-50687901D02*
X38893749Y-50592662D01*
X38893749Y-50592662D02*
X38893749Y-49735520D01*
X38369939Y-50735520D02*
X38369939Y-49735520D01*
X38274701Y-50354567D02*
X37988987Y-50735520D01*
X37988987Y-50068853D02*
X38369939Y-50449805D01*
X39584226Y-48565458D02*
X39584226Y-49374982D01*
X39584226Y-49374982D02*
X39631845Y-49470220D01*
X39631845Y-49470220D02*
X39679464Y-49517839D01*
X39679464Y-49517839D02*
X39774702Y-49565458D01*
X39774702Y-49565458D02*
X39917559Y-49565458D01*
X39917559Y-49565458D02*
X40012797Y-49517839D01*
X39584226Y-49184506D02*
X39679464Y-49232125D01*
X39679464Y-49232125D02*
X39869940Y-49232125D01*
X39869940Y-49232125D02*
X39965178Y-49184506D01*
X39965178Y-49184506D02*
X40012797Y-49136886D01*
X40012797Y-49136886D02*
X40060416Y-49041648D01*
X40060416Y-49041648D02*
X40060416Y-48755934D01*
X40060416Y-48755934D02*
X40012797Y-48660696D01*
X40012797Y-48660696D02*
X39965178Y-48613077D01*
X39965178Y-48613077D02*
X39869940Y-48565458D01*
X39869940Y-48565458D02*
X39679464Y-48565458D01*
X39679464Y-48565458D02*
X39584226Y-48613077D01*
X39108035Y-48565458D02*
X39108035Y-49232125D01*
X39108035Y-48660696D02*
X39060416Y-48613077D01*
X39060416Y-48613077D02*
X38965178Y-48565458D01*
X38965178Y-48565458D02*
X38822321Y-48565458D01*
X38822321Y-48565458D02*
X38727083Y-48613077D01*
X38727083Y-48613077D02*
X38679464Y-48708315D01*
X38679464Y-48708315D02*
X38679464Y-49232125D01*
X37774702Y-49232125D02*
X37774702Y-48232125D01*
X37774702Y-49184506D02*
X37869940Y-49232125D01*
X37869940Y-49232125D02*
X38060416Y-49232125D01*
X38060416Y-49232125D02*
X38155654Y-49184506D01*
X38155654Y-49184506D02*
X38203273Y-49136886D01*
X38203273Y-49136886D02*
X38250892Y-49041648D01*
X38250892Y-49041648D02*
X38250892Y-48755934D01*
X38250892Y-48755934D02*
X38203273Y-48660696D01*
X38203273Y-48660696D02*
X38155654Y-48613077D01*
X38155654Y-48613077D02*
X38060416Y-48565458D01*
X38060416Y-48565458D02*
X37869940Y-48565458D01*
X37869940Y-48565458D02*
X37774702Y-48613077D01*
D11*
%TO.C,H10*%
X144254000Y-98425000D02*
G75*
G02*
X141496000Y-98425000I-1379000J0D01*
G01*
X141496000Y-98425000D02*
G75*
G02*
X144254000Y-98425000I1379000J0D01*
G01*
%TO.C,H6*%
X108123954Y-70226862D02*
G75*
G02*
X105365954Y-70226862I-1379000J0D01*
G01*
X105365954Y-70226862D02*
G75*
G02*
X108123954Y-70226862I1379000J0D01*
G01*
%TO.C,H13*%
X241885250Y-42068750D02*
G75*
G02*
X239127250Y-42068750I-1379000J0D01*
G01*
X239127250Y-42068750D02*
G75*
G02*
X241885250Y-42068750I1379000J0D01*
G01*
%TO.C,H2*%
X133141500Y-22225000D02*
G75*
G02*
X130383500Y-22225000I-1379000J0D01*
G01*
X130383500Y-22225000D02*
G75*
G02*
X133141500Y-22225000I1379000J0D01*
G01*
%TO.C,H7*%
X95835250Y-98425000D02*
G75*
G02*
X93077250Y-98425000I-1379000J0D01*
G01*
X93077250Y-98425000D02*
G75*
G02*
X95835250Y-98425000I1379000J0D01*
G01*
%TO.C,H15*%
X252204000Y-98425000D02*
G75*
G02*
X249446000Y-98425000I-1379000J0D01*
G01*
X249446000Y-98425000D02*
G75*
G02*
X252204000Y-98425000I1379000J0D01*
G01*
%TO.C,H14*%
X227597750Y-72531250D02*
G75*
G02*
X224839750Y-72531250I-1379000J0D01*
G01*
X224839750Y-72531250D02*
G75*
G02*
X227597750Y-72531250I1379000J0D01*
G01*
%TO.C,H12*%
X212516500Y-98425000D02*
G75*
G02*
X209758500Y-98425000I-1379000J0D01*
G01*
X209758500Y-98425000D02*
G75*
G02*
X212516500Y-98425000I1379000J0D01*
G01*
%TO.C,H5*%
X85516500Y-41275000D02*
G75*
G02*
X82758500Y-41275000I-1379000J0D01*
G01*
X82758500Y-41275000D02*
G75*
G02*
X85516500Y-41275000I1379000J0D01*
G01*
%TO.C,H11*%
X71229000Y-60325000D02*
G75*
G02*
X68471000Y-60325000I-1379000J0D01*
G01*
X68471000Y-60325000D02*
G75*
G02*
X71229000Y-60325000I1379000J0D01*
G01*
%TO.C,H8*%
X142666500Y-41275000D02*
G75*
G02*
X139908500Y-41275000I-1379000J0D01*
G01*
X139908500Y-41275000D02*
G75*
G02*
X142666500Y-41275000I1379000J0D01*
G01*
%TO.C,H16*%
X268872750Y-74612500D02*
G75*
G02*
X266114750Y-74612500I-1379000J0D01*
G01*
X266114750Y-74612500D02*
G75*
G02*
X268872750Y-74612500I1379000J0D01*
G01*
%TO.C,H9*%
X186322750Y-70643750D02*
G75*
G02*
X183564750Y-70643750I-1379000J0D01*
G01*
X183564750Y-70643750D02*
G75*
G02*
X186322750Y-70643750I1379000J0D01*
G01*
%TO.C,H4*%
X50591500Y-98425000D02*
G75*
G02*
X47833500Y-98425000I-1379000J0D01*
G01*
X47833500Y-98425000D02*
G75*
G02*
X50591500Y-98425000I1379000J0D01*
G01*
%TO.C,H1*%
X38685250Y-22225000D02*
G75*
G02*
X35927250Y-22225000I-1379000J0D01*
G01*
X35927250Y-22225000D02*
G75*
G02*
X38685250Y-22225000I1379000J0D01*
G01*
%TO.C,H3*%
X156896516Y-79375000D02*
G75*
G02*
X154253484Y-79375000I-1321516J0D01*
G01*
X154253484Y-79375000D02*
G75*
G02*
X156896516Y-79375000I1321516J0D01*
G01*
D13*
%TO.C,C39*%
X203092164Y-76633750D02*
X203307836Y-76633750D01*
X203092164Y-77353750D02*
X203307836Y-77353750D01*
%TO.C,C118*%
X243146868Y-71041076D02*
X243362540Y-71041076D01*
X243146868Y-71761076D02*
X243362540Y-71761076D01*
%TO.C,C48*%
X167373414Y-95683750D02*
X167589086Y-95683750D01*
X167373414Y-96403750D02*
X167589086Y-96403750D01*
%TO.C,C40*%
X222142164Y-76633750D02*
X222357836Y-76633750D01*
X222142164Y-77353750D02*
X222357836Y-77353750D01*
D14*
%TO.C,D51*%
X150029852Y-106781250D02*
X149429852Y-106181250D01*
X150029852Y-106181250D01*
X150029852Y-106781250D01*
G36*
X150029852Y-106781250D02*
G01*
X149429852Y-106181250D01*
X150029852Y-106181250D01*
X150029852Y-106781250D01*
G37*
D13*
%TO.C,C97*%
X67576586Y-82190000D02*
X67360914Y-82190000D01*
X67576586Y-82910000D02*
X67360914Y-82910000D01*
%TO.C,U56*%
X31583250Y-34034750D02*
X31583250Y-33234750D01*
X31583250Y-34034750D02*
X31583250Y-34834750D01*
X34703250Y-34034750D02*
X34703250Y-33234750D01*
X34703250Y-34034750D02*
X34703250Y-35834750D01*
%TO.C,C53*%
X57257836Y-55445587D02*
X57042164Y-55445587D01*
X57257836Y-56165587D02*
X57042164Y-56165587D01*
D15*
%TO.C,U58*%
X208937860Y-76321325D02*
X208937860Y-76336565D01*
D16*
X208938220Y-71167205D02*
X213337500Y-71167205D01*
X208938220Y-76507205D02*
X208938220Y-71167205D01*
X213337500Y-71167205D02*
X213337500Y-76507205D01*
X213337500Y-76507205D02*
X208938220Y-76507205D01*
X215167860Y-71167205D02*
X213337500Y-71167205D01*
X215167860Y-71565985D02*
X215167860Y-71167205D01*
D13*
%TO.C,C96*%
X41382836Y-82190000D02*
X41167164Y-82190000D01*
X41382836Y-82910000D02*
X41167164Y-82910000D01*
D14*
%TO.C,D55*%
X36693750Y-102129000D02*
X36093750Y-102129000D01*
X36693750Y-101529000D01*
X36693750Y-102129000D01*
G36*
X36693750Y-102129000D02*
G01*
X36093750Y-102129000D01*
X36693750Y-101529000D01*
X36693750Y-102129000D01*
G37*
D13*
%TO.C,U49*%
X200818750Y-96865000D02*
X200168750Y-96865000D01*
X200818750Y-96865000D02*
X202493750Y-96865000D01*
X200818750Y-99985000D02*
X200168750Y-99985000D01*
X200818750Y-99985000D02*
X201468750Y-99985000D01*
D14*
%TO.C,D17*%
X114912500Y-48379000D02*
X114912500Y-47779000D01*
X115512500Y-47779000D01*
X114912500Y-48379000D01*
G36*
X114912500Y-48379000D02*
G01*
X114912500Y-47779000D01*
X115512500Y-47779000D01*
X114912500Y-48379000D01*
G37*
D13*
%TO.C,U43*%
X38893750Y-96865000D02*
X38243750Y-96865000D01*
X38893750Y-96865000D02*
X40568750Y-96865000D01*
X38893750Y-99985000D02*
X38243750Y-99985000D01*
X38893750Y-99985000D02*
X39543750Y-99985000D01*
D14*
%TO.C,D45*%
X45856250Y-86479000D02*
X45856250Y-85879000D01*
X46456250Y-85879000D01*
X45856250Y-86479000D01*
G36*
X45856250Y-86479000D02*
G01*
X45856250Y-85879000D01*
X46456250Y-85879000D01*
X45856250Y-86479000D01*
G37*
D13*
%TO.C,U13*%
X150812500Y-39715000D02*
X150162500Y-39715000D01*
X150812500Y-39715000D02*
X152487500Y-39715000D01*
X150812500Y-42835000D02*
X150162500Y-42835000D01*
X150812500Y-42835000D02*
X151462500Y-42835000D01*
%TO.C,C78*%
X148539086Y-44090000D02*
X148323414Y-44090000D01*
X148539086Y-44810000D02*
X148323414Y-44810000D01*
%TO.C,C18*%
X253098414Y-38533750D02*
X253314086Y-38533750D01*
X253098414Y-39253750D02*
X253314086Y-39253750D01*
%TO.C,C23*%
X117367164Y-57583750D02*
X117582836Y-57583750D01*
X117367164Y-58303750D02*
X117582836Y-58303750D01*
D14*
%TO.C,D36*%
X224450000Y-86479000D02*
X224450000Y-85879000D01*
X225050000Y-85879000D01*
X224450000Y-86479000D01*
G36*
X224450000Y-86479000D02*
G01*
X224450000Y-85879000D01*
X225050000Y-85879000D01*
X224450000Y-86479000D01*
G37*
D13*
%TO.C,C64*%
X33229664Y-23452500D02*
X33445336Y-23452500D01*
X33229664Y-24172500D02*
X33445336Y-24172500D01*
D14*
%TO.C,D46*%
X258150000Y-102129000D02*
X257550000Y-102129000D01*
X258150000Y-101529000D01*
X258150000Y-102129000D01*
G36*
X258150000Y-102129000D02*
G01*
X257550000Y-102129000D01*
X258150000Y-101529000D01*
X258150000Y-102129000D01*
G37*
D13*
%TO.C,U33*%
X88900000Y-77815000D02*
X88250000Y-77815000D01*
X88900000Y-77815000D02*
X90575000Y-77815000D01*
X88900000Y-80935000D02*
X88250000Y-80935000D01*
X88900000Y-80935000D02*
X89550000Y-80935000D01*
%TO.C,U46*%
X119856250Y-96865000D02*
X119206250Y-96865000D01*
X119856250Y-96865000D02*
X121531250Y-96865000D01*
X119856250Y-99985000D02*
X119206250Y-99985000D01*
X119856250Y-99985000D02*
X120506250Y-99985000D01*
%TO.C,C69*%
X105460914Y-29008750D02*
X105676586Y-29008750D01*
X105460914Y-29728750D02*
X105676586Y-29728750D01*
%TO.C,SW1*%
X33355000Y-50317500D02*
X33655000Y-50317500D01*
X33355000Y-54457500D02*
X33355000Y-50317500D01*
X33655000Y-54457500D02*
X33355000Y-54457500D01*
X36195000Y-50317500D02*
X36495000Y-50317500D01*
X36495000Y-50317500D02*
X36495000Y-54457500D01*
X36495000Y-54457500D02*
X36195000Y-54457500D01*
%TO.C,Q1*%
X60668750Y-33365000D02*
X61318750Y-33365000D01*
X60668750Y-36485000D02*
X61318750Y-36485000D01*
X61968750Y-33365000D02*
X61318750Y-33365000D01*
X61968750Y-36485000D02*
X61318750Y-36485000D01*
X60396250Y-36765000D02*
X59916250Y-36765000D01*
X60156250Y-36435000D01*
X60396250Y-36765000D01*
G36*
X60396250Y-36765000D02*
G01*
X59916250Y-36765000D01*
X60156250Y-36435000D01*
X60396250Y-36765000D01*
G37*
%TO.C,C33*%
X88792164Y-76633750D02*
X89007836Y-76633750D01*
X88792164Y-77353750D02*
X89007836Y-77353750D01*
%TO.C,R2*%
X38737391Y-51213750D02*
X38430109Y-51213750D01*
X38737391Y-51973750D02*
X38430109Y-51973750D01*
D14*
%TO.C,D13*%
X191112500Y-48379000D02*
X191112500Y-47779000D01*
X191712500Y-47779000D01*
X191112500Y-48379000D01*
G36*
X191112500Y-48379000D02*
G01*
X191112500Y-47779000D01*
X191712500Y-47779000D01*
X191112500Y-48379000D01*
G37*
D13*
%TO.C,C61*%
X58229664Y-29008750D02*
X58445336Y-29008750D01*
X58229664Y-29728750D02*
X58445336Y-29728750D01*
%TO.C,C71*%
X143560914Y-29008750D02*
X143776586Y-29008750D01*
X143560914Y-29728750D02*
X143776586Y-29728750D01*
D14*
%TO.C,D53*%
X79556250Y-102129000D02*
X78956250Y-102129000D01*
X79556250Y-101529000D01*
X79556250Y-102129000D01*
G36*
X79556250Y-102129000D02*
G01*
X78956250Y-102129000D01*
X79556250Y-101529000D01*
X79556250Y-102129000D01*
G37*
D13*
%TO.C,C101*%
X143776586Y-82190000D02*
X143560914Y-82190000D01*
X143776586Y-82910000D02*
X143560914Y-82910000D01*
D14*
%TO.C,D3*%
X28812500Y-14640000D02*
X28212500Y-14640000D01*
X28812500Y-14040000D01*
X28812500Y-14640000D01*
G36*
X28812500Y-14640000D02*
G01*
X28212500Y-14640000D01*
X28812500Y-14040000D01*
X28812500Y-14640000D01*
G37*
D13*
%TO.C,C24*%
X136417164Y-57583750D02*
X136632836Y-57583750D01*
X136417164Y-58303750D02*
X136632836Y-58303750D01*
%TO.C,C109*%
X62598414Y-105208750D02*
X62814086Y-105208750D01*
X62598414Y-105928750D02*
X62814086Y-105928750D01*
%TO.C,C46*%
X119748414Y-95683750D02*
X119964086Y-95683750D01*
X119748414Y-96403750D02*
X119964086Y-96403750D01*
%TO.C,R7*%
X53341589Y-21191142D02*
X53341589Y-20883860D01*
X54101589Y-21191142D02*
X54101589Y-20883860D01*
%TO.C,C56*%
X61804664Y-55596250D02*
X62020336Y-55596250D01*
X61804664Y-56316250D02*
X62020336Y-56316250D01*
D14*
%TO.C,D32*%
X58125000Y-64029000D02*
X57525000Y-64029000D01*
X58125000Y-63429000D01*
X58125000Y-64029000D01*
G36*
X58125000Y-64029000D02*
G01*
X57525000Y-64029000D01*
X58125000Y-63429000D01*
X58125000Y-64029000D01*
G37*
D13*
%TO.C,C87*%
X100698414Y-67108750D02*
X100914086Y-67108750D01*
X100698414Y-67828750D02*
X100914086Y-67828750D01*
D14*
%TO.C,D30*%
X96225000Y-64029000D02*
X95625000Y-64029000D01*
X96225000Y-63429000D01*
X96225000Y-64029000D01*
G36*
X96225000Y-64029000D02*
G01*
X95625000Y-64029000D01*
X96225000Y-63429000D01*
X96225000Y-64029000D01*
G37*
D13*
%TO.C,U39*%
X203200000Y-77815000D02*
X202550000Y-77815000D01*
X203200000Y-77815000D02*
X204875000Y-77815000D01*
X203200000Y-80935000D02*
X202550000Y-80935000D01*
X203200000Y-80935000D02*
X203850000Y-80935000D01*
%TO.C,U24*%
X136525000Y-58765000D02*
X135875000Y-58765000D01*
X136525000Y-58765000D02*
X138200000Y-58765000D01*
X136525000Y-61885000D02*
X135875000Y-61885000D01*
X136525000Y-61885000D02*
X137175000Y-61885000D01*
%TO.C,C2*%
X45929664Y-19483750D02*
X46145336Y-19483750D01*
X45929664Y-20203750D02*
X46145336Y-20203750D01*
%TO.C,C84*%
X41167164Y-67108750D02*
X41382836Y-67108750D01*
X41167164Y-67828750D02*
X41382836Y-67828750D01*
%TO.C,C51*%
X241192164Y-95683750D02*
X241407836Y-95683750D01*
X241192164Y-96403750D02*
X241407836Y-96403750D01*
%TO.C,C10*%
X93554664Y-38533750D02*
X93770336Y-38533750D01*
X93554664Y-39253750D02*
X93770336Y-39253750D01*
%TO.C,U55*%
X54659089Y-24633750D02*
X55959089Y-24633750D01*
X55959089Y-27753750D02*
X53959089Y-27753750D01*
%TO.C,C37*%
X164992164Y-76633750D02*
X165207836Y-76633750D01*
X164992164Y-77353750D02*
X165207836Y-77353750D01*
%TO.C,C70*%
X124510914Y-29008750D02*
X124726586Y-29008750D01*
X124510914Y-29728750D02*
X124726586Y-29728750D01*
%TO.C,C35*%
X126892164Y-76633750D02*
X127107836Y-76633750D01*
X126892164Y-77353750D02*
X127107836Y-77353750D01*
%TO.C,U18*%
X227012500Y-39715000D02*
X226362500Y-39715000D01*
X227012500Y-39715000D02*
X228687500Y-39715000D01*
X227012500Y-42835000D02*
X226362500Y-42835000D01*
X227012500Y-42835000D02*
X227662500Y-42835000D01*
%TO.C,U30*%
X255587500Y-58765000D02*
X254937500Y-58765000D01*
X255587500Y-58765000D02*
X257262500Y-58765000D01*
X255587500Y-61885000D02*
X254937500Y-61885000D01*
X255587500Y-61885000D02*
X256237500Y-61885000D01*
%TO.C,U25*%
X155575000Y-58765000D02*
X154925000Y-58765000D01*
X155575000Y-58765000D02*
X157250000Y-58765000D01*
X155575000Y-61885000D02*
X154925000Y-61885000D01*
X155575000Y-61885000D02*
X156225000Y-61885000D01*
%TO.C,C116*%
X243573414Y-105208750D02*
X243789086Y-105208750D01*
X243573414Y-105928750D02*
X243789086Y-105928750D01*
%TO.C,C81*%
X205689086Y-44090000D02*
X205473414Y-44090000D01*
X205689086Y-44810000D02*
X205473414Y-44810000D01*
%TO.C,C57*%
X63840000Y-34817164D02*
X63840000Y-35032836D01*
X64560000Y-34817164D02*
X64560000Y-35032836D01*
%TO.C,C72*%
X34239086Y-44090000D02*
X34023414Y-44090000D01*
X34239086Y-44810000D02*
X34023414Y-44810000D01*
D17*
%TO.C,G\u002A\u002A\u002A*%
G36*
X232946250Y-53940000D02*
G01*
X232803767Y-54082500D01*
X232610017Y-54082500D01*
X232416267Y-54082500D01*
X232558750Y-53940000D01*
X232701234Y-53797500D01*
X232894984Y-53797500D01*
X233088734Y-53797500D01*
X232946250Y-53940000D01*
G37*
G36*
X233436250Y-54082500D02*
G01*
X233151259Y-54367500D01*
X232959380Y-54367500D01*
X232953826Y-54367499D01*
X232923582Y-54367467D01*
X232894899Y-54367390D01*
X232868160Y-54367273D01*
X232843747Y-54367119D01*
X232822041Y-54366932D01*
X232803425Y-54366715D01*
X232788281Y-54366473D01*
X232776991Y-54366209D01*
X232769937Y-54365926D01*
X232767500Y-54365629D01*
X232768354Y-54364630D01*
X232772453Y-54360327D01*
X232779773Y-54352812D01*
X232790125Y-54342273D01*
X232803323Y-54328897D01*
X232819179Y-54312874D01*
X232837506Y-54294393D01*
X232858117Y-54273640D01*
X232880826Y-54250806D01*
X232905443Y-54226078D01*
X232931783Y-54199644D01*
X232959658Y-54171694D01*
X232988881Y-54142416D01*
X233019264Y-54111998D01*
X233050621Y-54080629D01*
X233333742Y-53797500D01*
X233527492Y-53797500D01*
X233721242Y-53797500D01*
X233436250Y-54082500D01*
G37*
G36*
X234590623Y-53101872D02*
G01*
X235080001Y-53591245D01*
X235080001Y-54082495D01*
X235080000Y-54573745D01*
X234590628Y-55063122D01*
X234101255Y-55552500D01*
X233487500Y-55552500D01*
X232873746Y-55552500D01*
X232383750Y-55062500D01*
X231893755Y-54572500D01*
X232873758Y-54572500D01*
X233853760Y-54572500D01*
X234098750Y-54327500D01*
X234343741Y-54082500D01*
X234098750Y-53837500D01*
X233853760Y-53592499D01*
X233124380Y-53592500D01*
X233073494Y-53592496D01*
X233014534Y-53592482D01*
X232957048Y-53592458D01*
X232901230Y-53592425D01*
X232847277Y-53592383D01*
X232795385Y-53592332D01*
X232745749Y-53592273D01*
X232698566Y-53592206D01*
X232654032Y-53592132D01*
X232612342Y-53592051D01*
X232573692Y-53591963D01*
X232538279Y-53591869D01*
X232506299Y-53591770D01*
X232477946Y-53591665D01*
X232453418Y-53591555D01*
X232432910Y-53591441D01*
X232416619Y-53591323D01*
X232404739Y-53591201D01*
X232397468Y-53591076D01*
X232395000Y-53590949D01*
X232396735Y-53587497D01*
X232401663Y-53581023D01*
X232409360Y-53571959D01*
X232419406Y-53560740D01*
X232431379Y-53547797D01*
X232444857Y-53533566D01*
X232459419Y-53518479D01*
X232474642Y-53502968D01*
X232490104Y-53487469D01*
X232505385Y-53472413D01*
X232520061Y-53458235D01*
X232533712Y-53445367D01*
X232545916Y-53434243D01*
X232556250Y-53425296D01*
X232595436Y-53393818D01*
X232658115Y-53348165D01*
X232722638Y-53306846D01*
X232789305Y-53269708D01*
X232858413Y-53236603D01*
X232930262Y-53207379D01*
X233005152Y-53181886D01*
X233083381Y-53159973D01*
X233090787Y-53158069D01*
X233102282Y-53154951D01*
X233111225Y-53152309D01*
X233116848Y-53150376D01*
X233118381Y-53149384D01*
X233116338Y-53148622D01*
X233110430Y-53146969D01*
X233102500Y-53145056D01*
X233095166Y-53143340D01*
X233076510Y-53138616D01*
X233055070Y-53132805D01*
X233032168Y-53126291D01*
X233009129Y-53119453D01*
X232987278Y-53112672D01*
X232967937Y-53106330D01*
X232957842Y-53102854D01*
X232884120Y-53074637D01*
X232812691Y-53042255D01*
X232743876Y-53005879D01*
X232677998Y-52965677D01*
X232615379Y-52921816D01*
X232613133Y-52920132D01*
X232603467Y-52912870D01*
X232595473Y-52906840D01*
X232589928Y-52902631D01*
X232587609Y-52900828D01*
X232587917Y-52900360D01*
X232591052Y-52896896D01*
X232597344Y-52890292D01*
X232606534Y-52880813D01*
X232618360Y-52868722D01*
X232632562Y-52854284D01*
X232648880Y-52837764D01*
X232667053Y-52819427D01*
X232686821Y-52799535D01*
X232707924Y-52778355D01*
X232730101Y-52756149D01*
X232873734Y-52612500D01*
X233487490Y-52612500D01*
X234101246Y-52612500D01*
X234590623Y-53101872D01*
G37*
G36*
X232003883Y-52358776D02*
G01*
X232015345Y-52403197D01*
X232037254Y-52473095D01*
X232063277Y-52540251D01*
X232093485Y-52604823D01*
X232127948Y-52666970D01*
X232166736Y-52726851D01*
X232189178Y-52757790D01*
X232233471Y-52812467D01*
X232281372Y-52864000D01*
X232332603Y-52912199D01*
X232386889Y-52956870D01*
X232443953Y-52997822D01*
X232503517Y-53034862D01*
X232565306Y-53067798D01*
X232629042Y-53096437D01*
X232694449Y-53120587D01*
X232761250Y-53140056D01*
X232764066Y-53140773D01*
X232775887Y-53143881D01*
X232785728Y-53146620D01*
X232792629Y-53148717D01*
X232795632Y-53149898D01*
X232795069Y-53150650D01*
X232790746Y-53152422D01*
X232783123Y-53154743D01*
X232773132Y-53157306D01*
X232750560Y-53163040D01*
X232706035Y-53176266D01*
X232660291Y-53192169D01*
X232614854Y-53210203D01*
X232571250Y-53229818D01*
X232524781Y-53253562D01*
X232463462Y-53289654D01*
X232404945Y-53329712D01*
X232349411Y-53373532D01*
X232297042Y-53420911D01*
X232248019Y-53471642D01*
X232202523Y-53525522D01*
X232160736Y-53582346D01*
X232122839Y-53641911D01*
X232089013Y-53704011D01*
X232059441Y-53768442D01*
X232034303Y-53835000D01*
X232030986Y-53844932D01*
X232027171Y-53856803D01*
X232023468Y-53868963D01*
X232019613Y-53882324D01*
X232015344Y-53897801D01*
X232010400Y-53916305D01*
X232004518Y-53938750D01*
X232004032Y-53940596D01*
X232003048Y-53943657D01*
X232002085Y-53944508D01*
X232000895Y-53942622D01*
X231999228Y-53937470D01*
X231996838Y-53928525D01*
X231993476Y-53915258D01*
X231992190Y-53910278D01*
X231987792Y-53894315D01*
X231982495Y-53876197D01*
X231976851Y-53857794D01*
X231971418Y-53840974D01*
X231952873Y-53789876D01*
X231924552Y-53724374D01*
X231892062Y-53661371D01*
X231855581Y-53601029D01*
X231815285Y-53543514D01*
X231771350Y-53488990D01*
X231723952Y-53437621D01*
X231673267Y-53389572D01*
X231619472Y-53345006D01*
X231562743Y-53304089D01*
X231503255Y-53266984D01*
X231441186Y-53233857D01*
X231376712Y-53204870D01*
X231310008Y-53180190D01*
X231241250Y-53159979D01*
X231233311Y-53157887D01*
X231222094Y-53154724D01*
X231213573Y-53152052D01*
X231208469Y-53150102D01*
X231207500Y-53149106D01*
X231207692Y-53149045D01*
X231211908Y-53147875D01*
X231219805Y-53145799D01*
X231230323Y-53143092D01*
X231242407Y-53140028D01*
X231269812Y-53132667D01*
X231331942Y-53112635D01*
X231393688Y-53088210D01*
X231454273Y-53059774D01*
X231512914Y-53027710D01*
X231568833Y-52992400D01*
X231621250Y-52954228D01*
X231645525Y-52934478D01*
X231675494Y-52908298D01*
X231705469Y-52880317D01*
X231734357Y-52851594D01*
X231761065Y-52823187D01*
X231784498Y-52796155D01*
X231803643Y-52772247D01*
X231846235Y-52713421D01*
X231884577Y-52652014D01*
X231918583Y-52588189D01*
X231948173Y-52522109D01*
X231973264Y-52453935D01*
X231993773Y-52383831D01*
X231995233Y-52378170D01*
X231998231Y-52367008D01*
X232000387Y-52360002D01*
X232001910Y-52356636D01*
X232003006Y-52356399D01*
X232003883Y-52358776D01*
G37*
D13*
%TO.C,C1*%
X84029664Y-19483750D02*
X84245336Y-19483750D01*
X84029664Y-20203750D02*
X84245336Y-20203750D01*
%TO.C,U2*%
X65087500Y-20665000D02*
X64437500Y-20665000D01*
X65087500Y-20665000D02*
X66762500Y-20665000D01*
X65087500Y-23785000D02*
X64437500Y-23785000D01*
X65087500Y-23785000D02*
X65737500Y-23785000D01*
%TO.C,C108*%
X41167164Y-105208750D02*
X41382836Y-105208750D01*
X41167164Y-105928750D02*
X41382836Y-105928750D01*
D14*
%TO.C,D19*%
X76812500Y-48379000D02*
X76812500Y-47779000D01*
X77412500Y-47779000D01*
X76812500Y-48379000D01*
G36*
X76812500Y-48379000D02*
G01*
X76812500Y-47779000D01*
X77412500Y-47779000D01*
X76812500Y-48379000D01*
G37*
D13*
%TO.C,U54*%
X66075000Y-33365000D02*
X66875000Y-33365000D01*
X66075000Y-36485000D02*
X66875000Y-36485000D01*
X67675000Y-33365000D02*
X66875000Y-33365000D01*
X67675000Y-36485000D02*
X66875000Y-36485000D01*
X65815000Y-36765000D02*
X65335000Y-36765000D01*
X65575000Y-36435000D01*
X65815000Y-36765000D01*
G36*
X65815000Y-36765000D02*
G01*
X65335000Y-36765000D01*
X65575000Y-36435000D01*
X65815000Y-36765000D01*
G37*
%TO.C,C59*%
X70283750Y-35032836D02*
X70283750Y-34817164D01*
X71003750Y-35032836D02*
X71003750Y-34817164D01*
D14*
%TO.C,D29*%
X115275000Y-64029000D02*
X114675000Y-64029000D01*
X115275000Y-63429000D01*
X115275000Y-64029000D01*
G36*
X115275000Y-64029000D02*
G01*
X114675000Y-64029000D01*
X115275000Y-63429000D01*
X115275000Y-64029000D01*
G37*
D13*
%TO.C,C102*%
X162826586Y-82190000D02*
X162610914Y-82190000D01*
X162826586Y-82910000D02*
X162610914Y-82910000D01*
D14*
%TO.C,D24*%
X210525000Y-64029000D02*
X209925000Y-64029000D01*
X210525000Y-63429000D01*
X210525000Y-64029000D01*
G36*
X210525000Y-64029000D02*
G01*
X209925000Y-64029000D01*
X210525000Y-63429000D01*
X210525000Y-64029000D01*
G37*
%TO.C,D1*%
X28812500Y-25905000D02*
X28212500Y-25905000D01*
X28812500Y-25305000D01*
X28812500Y-25905000D01*
G36*
X28812500Y-25905000D02*
G01*
X28212500Y-25905000D01*
X28812500Y-25305000D01*
X28812500Y-25905000D01*
G37*
D13*
%TO.C,C8*%
X55454664Y-38533750D02*
X55670336Y-38533750D01*
X55454664Y-39253750D02*
X55670336Y-39253750D01*
%TO.C,C107*%
X258076586Y-82190000D02*
X257860914Y-82190000D01*
X258076586Y-82910000D02*
X257860914Y-82910000D01*
%TO.C,C89*%
X138798414Y-67108750D02*
X139014086Y-67108750D01*
X138798414Y-67828750D02*
X139014086Y-67828750D01*
%TO.C,C112*%
X153627500Y-101707836D02*
X153627500Y-101492164D01*
X154347500Y-101707836D02*
X154347500Y-101492164D01*
%TO.C,C83*%
X250932836Y-44090000D02*
X250717164Y-44090000D01*
X250932836Y-44810000D02*
X250717164Y-44810000D01*
%TO.C,C50*%
X222142164Y-95683750D02*
X222357836Y-95683750D01*
X222142164Y-96403750D02*
X222357836Y-96403750D01*
%TO.C,U5*%
X122237500Y-20665000D02*
X121587500Y-20665000D01*
X122237500Y-20665000D02*
X123912500Y-20665000D01*
X122237500Y-23785000D02*
X121587500Y-23785000D01*
X122237500Y-23785000D02*
X122887500Y-23785000D01*
%TO.C,C11*%
X112604664Y-38533750D02*
X112820336Y-38533750D01*
X112604664Y-39253750D02*
X112820336Y-39253750D01*
%TO.C,U36*%
X146050000Y-77815000D02*
X145400000Y-77815000D01*
X146050000Y-77815000D02*
X147725000Y-77815000D01*
X146050000Y-80935000D02*
X145400000Y-80935000D01*
X146050000Y-80935000D02*
X146700000Y-80935000D01*
D14*
%TO.C,D21*%
X38712500Y-48379000D02*
X38712500Y-47779000D01*
X39312500Y-47779000D01*
X38712500Y-48379000D01*
G36*
X38712500Y-48379000D02*
G01*
X38712500Y-47779000D01*
X39312500Y-47779000D01*
X38712500Y-48379000D01*
G37*
D13*
%TO.C,U12*%
X131762500Y-39715000D02*
X131112500Y-39715000D01*
X131762500Y-39715000D02*
X133437500Y-39715000D01*
X131762500Y-42835000D02*
X131112500Y-42835000D01*
X131762500Y-42835000D02*
X132412500Y-42835000D01*
D14*
%TO.C,D5*%
X62887500Y-25929000D02*
X62287500Y-25929000D01*
X62887500Y-25329000D01*
X62887500Y-25929000D01*
G36*
X62887500Y-25929000D02*
G01*
X62287500Y-25929000D01*
X62887500Y-25329000D01*
X62887500Y-25929000D01*
G37*
D13*
%TO.C,U47*%
X153193750Y-96865000D02*
X152543750Y-96865000D01*
X153193750Y-96865000D02*
X154868750Y-96865000D01*
X153193750Y-99985000D02*
X152543750Y-99985000D01*
X153193750Y-99985000D02*
X153843750Y-99985000D01*
%TO.C,C26*%
X174517164Y-57583750D02*
X174732836Y-57583750D01*
X174517164Y-58303750D02*
X174732836Y-58303750D01*
%TO.C,C104*%
X200926586Y-82190000D02*
X200710914Y-82190000D01*
X200926586Y-82910000D02*
X200710914Y-82910000D01*
%TO.C,R8*%
X56657122Y-21220482D02*
X56657122Y-20913200D01*
X57417122Y-21220482D02*
X57417122Y-20913200D01*
D14*
%TO.C,D33*%
X36693750Y-64029000D02*
X36093750Y-64029000D01*
X36693750Y-63429000D01*
X36693750Y-64029000D01*
G36*
X36693750Y-64029000D02*
G01*
X36093750Y-64029000D01*
X36693750Y-63429000D01*
X36693750Y-64029000D01*
G37*
%TO.C,D37*%
X205400000Y-86479000D02*
X205400000Y-85879000D01*
X206000000Y-85879000D01*
X205400000Y-86479000D01*
G36*
X205400000Y-86479000D02*
G01*
X205400000Y-85879000D01*
X206000000Y-85879000D01*
X205400000Y-86479000D01*
G37*
D13*
%TO.C,U35*%
X127000000Y-77815000D02*
X126350000Y-77815000D01*
X127000000Y-77815000D02*
X128675000Y-77815000D01*
X127000000Y-80935000D02*
X126350000Y-80935000D01*
X127000000Y-80935000D02*
X127650000Y-80935000D01*
%TO.C,U53*%
X46396250Y-51158750D02*
X46846250Y-51158750D01*
X46396250Y-51608750D02*
X46396250Y-51158750D01*
X46396250Y-57928750D02*
X46396250Y-58378750D01*
X46396250Y-58378750D02*
X46846250Y-58378750D01*
X53616250Y-51158750D02*
X53166250Y-51158750D01*
X53616250Y-51608750D02*
X53616250Y-51158750D01*
X53616250Y-57928750D02*
X53616250Y-58378750D01*
X53616250Y-58378750D02*
X53166250Y-58378750D01*
X54206250Y-51608750D02*
X53866250Y-51138750D01*
X54546250Y-51138750D01*
X54206250Y-51608750D01*
G36*
X54206250Y-51608750D02*
G01*
X53866250Y-51138750D01*
X54546250Y-51138750D01*
X54206250Y-51608750D01*
G37*
%TO.C,C12*%
X131654664Y-38533750D02*
X131870336Y-38533750D01*
X131654664Y-39253750D02*
X131870336Y-39253750D01*
%TO.C,C113*%
X169754664Y-105208750D02*
X169970336Y-105208750D01*
X169754664Y-105928750D02*
X169970336Y-105928750D01*
%TO.C,C77*%
X129489086Y-44090000D02*
X129273414Y-44090000D01*
X129489086Y-44810000D02*
X129273414Y-44810000D01*
D14*
%TO.C,D11*%
X229212500Y-48379000D02*
X229212500Y-47779000D01*
X229812500Y-47779000D01*
X229212500Y-48379000D01*
G36*
X229212500Y-48379000D02*
G01*
X229212500Y-47779000D01*
X229812500Y-47779000D01*
X229212500Y-48379000D01*
G37*
D13*
%TO.C,C25*%
X155467164Y-57583750D02*
X155682836Y-57583750D01*
X155467164Y-58303750D02*
X155682836Y-58303750D01*
%TO.C,C13*%
X150704664Y-38533750D02*
X150920336Y-38533750D01*
X150704664Y-39253750D02*
X150920336Y-39253750D01*
%TO.C,U45*%
X81756250Y-96865000D02*
X81106250Y-96865000D01*
X81756250Y-96865000D02*
X83431250Y-96865000D01*
X81756250Y-99985000D02*
X81106250Y-99985000D01*
X81756250Y-99985000D02*
X82406250Y-99985000D01*
%TO.C,C100*%
X124726586Y-82190000D02*
X124510914Y-82190000D01*
X124726586Y-82910000D02*
X124510914Y-82910000D01*
%TO.C,C93*%
X214998414Y-67108750D02*
X215214086Y-67108750D01*
X214998414Y-67828750D02*
X215214086Y-67828750D01*
%TO.C,C34*%
X107842164Y-76633750D02*
X108057836Y-76633750D01*
X107842164Y-77353750D02*
X108057836Y-77353750D01*
%TO.C,C94*%
X234048414Y-67108750D02*
X234264086Y-67108750D01*
X234048414Y-67828750D02*
X234264086Y-67828750D01*
%TO.C,C91*%
X176898414Y-67108750D02*
X177114086Y-67108750D01*
X176898414Y-67828750D02*
X177114086Y-67828750D01*
%TO.C,C105*%
X219976586Y-82190000D02*
X219760914Y-82190000D01*
X219976586Y-82910000D02*
X219760914Y-82910000D01*
D14*
%TO.C,D49*%
X197654852Y-106781250D02*
X197054852Y-106181250D01*
X197654852Y-106181250D01*
X197654852Y-106781250D01*
G36*
X197654852Y-106781250D02*
G01*
X197054852Y-106181250D01*
X197654852Y-106181250D01*
X197654852Y-106781250D01*
G37*
D13*
%TO.C,U38*%
X184150000Y-77815000D02*
X183500000Y-77815000D01*
X184150000Y-77815000D02*
X185825000Y-77815000D01*
X184150000Y-80935000D02*
X183500000Y-80935000D01*
X184150000Y-80935000D02*
X184800000Y-80935000D01*
%TO.C,C80*%
X186639086Y-44090000D02*
X186423414Y-44090000D01*
X186639086Y-44810000D02*
X186423414Y-44810000D01*
%TO.C,C52*%
X260242164Y-95683750D02*
X260457836Y-95683750D01*
X260242164Y-96403750D02*
X260457836Y-96403750D01*
%TO.C,C16*%
X207854664Y-38533750D02*
X208070336Y-38533750D01*
X207854664Y-39253750D02*
X208070336Y-39253750D01*
%TO.C,U4*%
X103187500Y-20665000D02*
X102537500Y-20665000D01*
X103187500Y-20665000D02*
X104862500Y-20665000D01*
X103187500Y-23785000D02*
X102537500Y-23785000D01*
X103187500Y-23785000D02*
X103837500Y-23785000D01*
D14*
%TO.C,D9*%
X139087500Y-25929000D02*
X138487500Y-25929000D01*
X139087500Y-25329000D01*
X139087500Y-25929000D01*
G36*
X139087500Y-25929000D02*
G01*
X138487500Y-25929000D01*
X139087500Y-25329000D01*
X139087500Y-25929000D01*
G37*
D13*
%TO.C,C99*%
X105676586Y-82190000D02*
X105460914Y-82190000D01*
X105676586Y-82910000D02*
X105460914Y-82910000D01*
%TO.C,U32*%
X69850000Y-77815000D02*
X69200000Y-77815000D01*
X69850000Y-77815000D02*
X71525000Y-77815000D01*
X69850000Y-80935000D02*
X69200000Y-80935000D01*
X69850000Y-80935000D02*
X70500000Y-80935000D01*
D15*
%TO.C,U62*%
X50187860Y-76302870D02*
X50187860Y-76318110D01*
D16*
X50188220Y-71148750D02*
X54587500Y-71148750D01*
X50188220Y-76488750D02*
X50188220Y-71148750D01*
X54587500Y-71148750D02*
X54587500Y-76488750D01*
X54587500Y-76488750D02*
X50188220Y-76488750D01*
X56417860Y-71148750D02*
X54587500Y-71148750D01*
X56417860Y-71547530D02*
X56417860Y-71148750D01*
D13*
%TO.C,U7*%
X36512500Y-39715000D02*
X35862500Y-39715000D01*
X36512500Y-39715000D02*
X38187500Y-39715000D01*
X36512500Y-42835000D02*
X35862500Y-42835000D01*
X36512500Y-42835000D02*
X37162500Y-42835000D01*
%TO.C,C36*%
X145942164Y-76633750D02*
X146157836Y-76633750D01*
X145942164Y-77353750D02*
X146157836Y-77353750D01*
%TO.C,C79*%
X167589086Y-44090000D02*
X167373414Y-44090000D01*
X167589086Y-44810000D02*
X167373414Y-44810000D01*
%TO.C,C47*%
X153085914Y-95683750D02*
X153301586Y-95683750D01*
X153085914Y-96403750D02*
X153301586Y-96403750D01*
%TO.C,U41*%
X241300000Y-77815000D02*
X240650000Y-77815000D01*
X241300000Y-77815000D02*
X242975000Y-77815000D01*
X241300000Y-80935000D02*
X240650000Y-80935000D01*
X241300000Y-80935000D02*
X241950000Y-80935000D01*
%TO.C,C68*%
X86410914Y-29008750D02*
X86626586Y-29008750D01*
X86410914Y-29728750D02*
X86626586Y-29728750D01*
%TO.C,U52*%
X260350000Y-96865000D02*
X259700000Y-96865000D01*
X260350000Y-96865000D02*
X262025000Y-96865000D01*
X260350000Y-99985000D02*
X259700000Y-99985000D01*
X260350000Y-99985000D02*
X261000000Y-99985000D01*
%TO.C,C7*%
X36404664Y-38533750D02*
X36620336Y-38533750D01*
X36404664Y-39253750D02*
X36620336Y-39253750D01*
%TO.C,U44*%
X60325000Y-96865000D02*
X59675000Y-96865000D01*
X60325000Y-96865000D02*
X62000000Y-96865000D01*
X60325000Y-99985000D02*
X59675000Y-99985000D01*
X60325000Y-99985000D02*
X60975000Y-99985000D01*
%TO.C,U11*%
X112712500Y-39715000D02*
X112062500Y-39715000D01*
X112712500Y-39715000D02*
X114387500Y-39715000D01*
X112712500Y-42835000D02*
X112062500Y-42835000D01*
X112712500Y-42835000D02*
X113362500Y-42835000D01*
%TO.C,C115*%
X224523414Y-105208750D02*
X224739086Y-105208750D01*
X224523414Y-105928750D02*
X224739086Y-105928750D01*
%TO.C,U34*%
X107950000Y-77815000D02*
X107300000Y-77815000D01*
X107950000Y-77815000D02*
X109625000Y-77815000D01*
X107950000Y-80935000D02*
X107300000Y-80935000D01*
X107950000Y-80935000D02*
X108600000Y-80935000D01*
%TO.C,C29*%
X231667164Y-57583750D02*
X231882836Y-57583750D01*
X231667164Y-58303750D02*
X231882836Y-58303750D01*
%TO.C,U8*%
X55562500Y-39715000D02*
X54912500Y-39715000D01*
X55562500Y-39715000D02*
X57237500Y-39715000D01*
X55562500Y-42835000D02*
X54912500Y-42835000D01*
X55562500Y-42835000D02*
X56212500Y-42835000D01*
%TO.C,C121*%
X128053118Y-71077500D02*
X128268790Y-71077500D01*
X128053118Y-71797500D02*
X128268790Y-71797500D01*
%TO.C,J2*%
X50799000Y-16190625D02*
X50799000Y-14190625D01*
X60199000Y-16190625D02*
X60199000Y-14190625D01*
%TO.C,J4*%
X47646447Y-32331250D02*
X48000000Y-32581250D01*
X47646447Y-32831250D02*
X47646447Y-32331250D01*
X48000000Y-32581250D02*
X47646447Y-32831250D01*
X48710000Y-30971250D02*
X48710000Y-32021250D01*
X48710000Y-32021250D02*
X48500000Y-32021250D01*
X48710000Y-37791250D02*
X48710000Y-36741250D01*
X52040000Y-30971250D02*
X48710000Y-30971250D01*
X52040000Y-37791250D02*
X48710000Y-37791250D01*
X52930000Y-32841250D02*
X52930000Y-35921250D01*
X52930000Y-35921250D02*
X53430000Y-36221250D01*
X53430000Y-32041250D02*
X53430000Y-32541250D01*
X53430000Y-32541250D02*
X52930000Y-32841250D01*
X53430000Y-36221250D02*
X53430000Y-36721250D01*
%TO.C,U14*%
X169862500Y-39715000D02*
X169212500Y-39715000D01*
X169862500Y-39715000D02*
X171537500Y-39715000D01*
X169862500Y-42835000D02*
X169212500Y-42835000D01*
X169862500Y-42835000D02*
X170512500Y-42835000D01*
%TO.C,C62*%
X33229664Y-29008750D02*
X33445336Y-29008750D01*
X33229664Y-29728750D02*
X33445336Y-29728750D01*
%TO.C,C92*%
X195948414Y-67108750D02*
X196164086Y-67108750D01*
X195948414Y-67828750D02*
X196164086Y-67828750D01*
D14*
%TO.C,D8*%
X120037500Y-25929000D02*
X119437500Y-25929000D01*
X120037500Y-25329000D01*
X120037500Y-25929000D01*
G36*
X120037500Y-25929000D02*
G01*
X119437500Y-25929000D01*
X120037500Y-25329000D01*
X120037500Y-25929000D01*
G37*
D15*
%TO.C,U63*%
X90869770Y-35821620D02*
X90869770Y-35836860D01*
D16*
X90870130Y-30667500D02*
X95269410Y-30667500D01*
X90870130Y-36007500D02*
X90870130Y-30667500D01*
X95269410Y-30667500D02*
X95269410Y-36007500D01*
X95269410Y-36007500D02*
X90870130Y-36007500D01*
X97099770Y-30667500D02*
X95269410Y-30667500D01*
X97099770Y-31066280D02*
X97099770Y-30667500D01*
D13*
%TO.C,U50*%
X222250000Y-96865000D02*
X221600000Y-96865000D01*
X222250000Y-96865000D02*
X223925000Y-96865000D01*
X222250000Y-99985000D02*
X221600000Y-99985000D01*
X222250000Y-99985000D02*
X222900000Y-99985000D01*
%TO.C,R4*%
X34771359Y-55576250D02*
X35078641Y-55576250D01*
X34771359Y-56336250D02*
X35078641Y-56336250D01*
D14*
%TO.C,D48*%
X220050000Y-102129000D02*
X219450000Y-102129000D01*
X220050000Y-101529000D01*
X220050000Y-102129000D01*
G36*
X220050000Y-102129000D02*
G01*
X219450000Y-102129000D01*
X220050000Y-101529000D01*
X220050000Y-102129000D01*
G37*
D13*
%TO.C,C103*%
X181876586Y-82190000D02*
X181660914Y-82190000D01*
X181876586Y-82910000D02*
X181660914Y-82910000D01*
%TO.C,C76*%
X110439086Y-44090000D02*
X110223414Y-44090000D01*
X110439086Y-44810000D02*
X110223414Y-44810000D01*
D15*
%TO.C,U59*%
X170837860Y-76302870D02*
X170837860Y-76318110D01*
D16*
X170838220Y-71148750D02*
X175237500Y-71148750D01*
X170838220Y-76488750D02*
X170838220Y-71148750D01*
X175237500Y-71148750D02*
X175237500Y-76488750D01*
X175237500Y-76488750D02*
X170838220Y-76488750D01*
X177067860Y-71148750D02*
X175237500Y-71148750D01*
X177067860Y-71547530D02*
X177067860Y-71148750D01*
D13*
%TO.C,C30*%
X255479664Y-57583750D02*
X255695336Y-57583750D01*
X255479664Y-58303750D02*
X255695336Y-58303750D01*
D14*
%TO.C,D10*%
X255406250Y-48379000D02*
X255406250Y-47779000D01*
X256006250Y-47779000D01*
X255406250Y-48379000D01*
G36*
X255406250Y-48379000D02*
G01*
X255406250Y-47779000D01*
X256006250Y-47779000D01*
X255406250Y-48379000D01*
G37*
D13*
%TO.C,C88*%
X119748414Y-67108750D02*
X119964086Y-67108750D01*
X119748414Y-67828750D02*
X119964086Y-67828750D01*
%TO.C,C19*%
X38785914Y-57583750D02*
X39001586Y-57583750D01*
X38785914Y-58303750D02*
X39001586Y-58303750D01*
D14*
%TO.C,D31*%
X77175000Y-64029000D02*
X76575000Y-64029000D01*
X77175000Y-63429000D01*
X77175000Y-64029000D01*
G36*
X77175000Y-64029000D02*
G01*
X76575000Y-64029000D01*
X77175000Y-63429000D01*
X77175000Y-64029000D01*
G37*
D13*
%TO.C,C106*%
X239026586Y-82190000D02*
X238810914Y-82190000D01*
X239026586Y-82910000D02*
X238810914Y-82910000D01*
%TO.C,C98*%
X86626586Y-82190000D02*
X86410914Y-82190000D01*
X86626586Y-82910000D02*
X86410914Y-82910000D01*
%TO.C,U20*%
X60325000Y-58765000D02*
X59675000Y-58765000D01*
X60325000Y-58765000D02*
X62000000Y-58765000D01*
X60325000Y-61885000D02*
X59675000Y-61885000D01*
X60325000Y-61885000D02*
X60975000Y-61885000D01*
%TO.C,C123*%
X46135464Y-71077500D02*
X46351136Y-71077500D01*
X46135464Y-71797500D02*
X46351136Y-71797500D01*
%TO.C,D_PWR1*%
X51193750Y-28553750D02*
X51193750Y-24543750D01*
X53193750Y-28553750D02*
X51193750Y-28553750D01*
X53193750Y-28553750D02*
X53193750Y-24543750D01*
%TO.C,U21*%
X79375000Y-58765000D02*
X78725000Y-58765000D01*
X79375000Y-58765000D02*
X81050000Y-58765000D01*
X79375000Y-61885000D02*
X78725000Y-61885000D01*
X79375000Y-61885000D02*
X80025000Y-61885000D01*
%TO.C,C60*%
X58377500Y-34817164D02*
X58377500Y-35032836D01*
X59097500Y-34817164D02*
X59097500Y-35032836D01*
%TO.C,C27*%
X193567164Y-57583750D02*
X193782836Y-57583750D01*
X193567164Y-58303750D02*
X193782836Y-58303750D01*
%TO.C,C15*%
X188804664Y-38533750D02*
X189020336Y-38533750D01*
X188804664Y-39253750D02*
X189020336Y-39253750D01*
%TO.C,C85*%
X62598414Y-67108750D02*
X62814086Y-67108750D01*
X62598414Y-67828750D02*
X62814086Y-67828750D01*
%TO.C,C5*%
X122129664Y-19483750D02*
X122345336Y-19483750D01*
X122129664Y-20203750D02*
X122345336Y-20203750D01*
%TO.C,C95*%
X257860914Y-67108750D02*
X258076586Y-67108750D01*
X257860914Y-67828750D02*
X258076586Y-67828750D01*
D14*
%TO.C,D23*%
X229575000Y-64029000D02*
X228975000Y-64029000D01*
X229575000Y-63429000D01*
X229575000Y-64029000D01*
G36*
X229575000Y-64029000D02*
G01*
X228975000Y-64029000D01*
X229575000Y-63429000D01*
X229575000Y-64029000D01*
G37*
%TO.C,D6*%
X81937500Y-25929000D02*
X81337500Y-25929000D01*
X81937500Y-25329000D01*
X81937500Y-25929000D01*
G36*
X81937500Y-25929000D02*
G01*
X81337500Y-25929000D01*
X81937500Y-25329000D01*
X81937500Y-25929000D01*
G37*
D13*
%TO.C,C22*%
X98317164Y-57583750D02*
X98532836Y-57583750D01*
X98317164Y-58303750D02*
X98532836Y-58303750D01*
%TO.C,J3*%
X47052697Y-31271250D02*
X47052697Y-32321250D01*
X47052697Y-32321250D02*
X46062697Y-32321250D01*
X47052697Y-37491250D02*
X47052697Y-36441250D01*
X49552697Y-31271250D02*
X47052697Y-31271250D01*
X49552697Y-37491250D02*
X47052697Y-37491250D01*
X51522697Y-32441250D02*
X51522697Y-36321250D01*
%TO.C,U23*%
X117475000Y-58765000D02*
X116825000Y-58765000D01*
X117475000Y-58765000D02*
X119150000Y-58765000D01*
X117475000Y-61885000D02*
X116825000Y-61885000D01*
X117475000Y-61885000D02*
X118125000Y-61885000D01*
%TO.C,C17*%
X226904664Y-38533750D02*
X227120336Y-38533750D01*
X226904664Y-39253750D02*
X227120336Y-39253750D01*
%TO.C,C119*%
X205046868Y-71077500D02*
X205262540Y-71077500D01*
X205046868Y-71797500D02*
X205262540Y-71797500D01*
%TO.C,U26*%
X174625000Y-58765000D02*
X173975000Y-58765000D01*
X174625000Y-58765000D02*
X176300000Y-58765000D01*
X174625000Y-61885000D02*
X173975000Y-61885000D01*
X174625000Y-61885000D02*
X175275000Y-61885000D01*
%TO.C,C82*%
X224739086Y-44090000D02*
X224523414Y-44090000D01*
X224739086Y-44810000D02*
X224523414Y-44810000D01*
%TO.C,C4*%
X103079664Y-19483750D02*
X103295336Y-19483750D01*
X103079664Y-20203750D02*
X103295336Y-20203750D01*
%TO.C,R6*%
X61165109Y-36926250D02*
X61472391Y-36926250D01*
X61165109Y-37686250D02*
X61472391Y-37686250D01*
%TO.C,C58*%
X69191587Y-34817164D02*
X69191587Y-35032836D01*
X69911587Y-34817164D02*
X69911587Y-35032836D01*
D14*
%TO.C,D12*%
X210162500Y-48379000D02*
X210162500Y-47779000D01*
X210762500Y-47779000D01*
X210162500Y-48379000D01*
G36*
X210162500Y-48379000D02*
G01*
X210162500Y-47779000D01*
X210762500Y-47779000D01*
X210162500Y-48379000D01*
G37*
D13*
%TO.C,R5*%
X35078641Y-48438750D02*
X34771359Y-48438750D01*
X35078641Y-49198750D02*
X34771359Y-49198750D01*
D14*
%TO.C,D16*%
X133962500Y-48379000D02*
X133962500Y-47779000D01*
X134562500Y-47779000D01*
X133962500Y-48379000D01*
G36*
X133962500Y-48379000D02*
G01*
X133962500Y-47779000D01*
X134562500Y-47779000D01*
X133962500Y-48379000D01*
G37*
%TO.C,D27*%
X153375000Y-64029000D02*
X152775000Y-64029000D01*
X153375000Y-63429000D01*
X153375000Y-64029000D01*
G36*
X153375000Y-64029000D02*
G01*
X152775000Y-64029000D01*
X153375000Y-63429000D01*
X153375000Y-64029000D01*
G37*
%TO.C,D42*%
X110150000Y-86479000D02*
X110150000Y-85879000D01*
X110750000Y-85879000D01*
X110150000Y-86479000D01*
G36*
X110150000Y-86479000D02*
G01*
X110150000Y-85879000D01*
X110750000Y-85879000D01*
X110150000Y-86479000D01*
G37*
%TO.C,D35*%
X243500000Y-86479000D02*
X243500000Y-85879000D01*
X244100000Y-85879000D01*
X243500000Y-86479000D01*
G36*
X243500000Y-86479000D02*
G01*
X243500000Y-85879000D01*
X244100000Y-85879000D01*
X243500000Y-86479000D01*
G37*
%TO.C,D18*%
X95862500Y-48379000D02*
X95862500Y-47779000D01*
X96462500Y-47779000D01*
X95862500Y-48379000D01*
G36*
X95862500Y-48379000D02*
G01*
X95862500Y-47779000D01*
X96462500Y-47779000D01*
X95862500Y-48379000D01*
G37*
D13*
%TO.C,C20*%
X60217164Y-57583750D02*
X60432836Y-57583750D01*
X60217164Y-58303750D02*
X60432836Y-58303750D01*
D15*
%TO.C,U57*%
X247037860Y-76321325D02*
X247037860Y-76336565D01*
D16*
X247038220Y-71167205D02*
X251437500Y-71167205D01*
X247038220Y-76507205D02*
X247038220Y-71167205D01*
X251437500Y-71167205D02*
X251437500Y-76507205D01*
X251437500Y-76507205D02*
X247038220Y-76507205D01*
X253267860Y-71167205D02*
X251437500Y-71167205D01*
X253267860Y-71565985D02*
X253267860Y-71167205D01*
D13*
%TO.C,C66*%
X48310914Y-29008750D02*
X48526586Y-29008750D01*
X48310914Y-29728750D02*
X48526586Y-29728750D01*
D14*
%TO.C,D7*%
X100987500Y-25929000D02*
X100387500Y-25929000D01*
X100987500Y-25329000D01*
X100987500Y-25929000D01*
G36*
X100987500Y-25929000D02*
G01*
X100387500Y-25929000D01*
X100987500Y-25329000D01*
X100987500Y-25929000D01*
G37*
D13*
%TO.C,C73*%
X53289086Y-44090000D02*
X53073414Y-44090000D01*
X53289086Y-44810000D02*
X53073414Y-44810000D01*
D14*
%TO.C,D2*%
X28812500Y-20272500D02*
X28212500Y-20272500D01*
X28812500Y-19672500D01*
X28812500Y-20272500D01*
G36*
X28812500Y-20272500D02*
G01*
X28212500Y-20272500D01*
X28812500Y-19672500D01*
X28812500Y-20272500D01*
G37*
D13*
%TO.C,C111*%
X122129664Y-105208750D02*
X122345336Y-105208750D01*
X122129664Y-105928750D02*
X122345336Y-105928750D01*
D14*
%TO.C,D47*%
X239100000Y-102129000D02*
X238500000Y-102129000D01*
X239100000Y-101529000D01*
X239100000Y-102129000D01*
G36*
X239100000Y-102129000D02*
G01*
X238500000Y-102129000D01*
X239100000Y-101529000D01*
X239100000Y-102129000D01*
G37*
%TO.C,D43*%
X91100000Y-86479000D02*
X91100000Y-85879000D01*
X91700000Y-85879000D01*
X91100000Y-86479000D01*
G36*
X91100000Y-86479000D02*
G01*
X91100000Y-85879000D01*
X91700000Y-85879000D01*
X91100000Y-86479000D01*
G37*
D13*
%TO.C,C42*%
X260242164Y-76633750D02*
X260457836Y-76633750D01*
X260242164Y-77353750D02*
X260457836Y-77353750D01*
D14*
%TO.C,D34*%
X262550000Y-86479000D02*
X262550000Y-85879000D01*
X263150000Y-85879000D01*
X262550000Y-86479000D01*
G36*
X262550000Y-86479000D02*
G01*
X262550000Y-85879000D01*
X263150000Y-85879000D01*
X262550000Y-86479000D01*
G37*
D13*
%TO.C,C41*%
X241192164Y-76633750D02*
X241407836Y-76633750D01*
X241192164Y-77353750D02*
X241407836Y-77353750D01*
D14*
%TO.C,D39*%
X167300000Y-86479000D02*
X167300000Y-85879000D01*
X167900000Y-85879000D01*
X167300000Y-86479000D01*
G36*
X167300000Y-86479000D02*
G01*
X167300000Y-85879000D01*
X167900000Y-85879000D01*
X167300000Y-86479000D01*
G37*
%TO.C,D40*%
X148250000Y-86479000D02*
X148250000Y-85879000D01*
X148850000Y-85879000D01*
X148250000Y-86479000D01*
G36*
X148250000Y-86479000D02*
G01*
X148250000Y-85879000D01*
X148850000Y-85879000D01*
X148250000Y-86479000D01*
G37*
D13*
%TO.C,U19*%
X38893750Y-58765000D02*
X38243750Y-58765000D01*
X38893750Y-58765000D02*
X40568750Y-58765000D01*
X38893750Y-61885000D02*
X38243750Y-61885000D01*
X38893750Y-61885000D02*
X39543750Y-61885000D01*
%TO.C,C38*%
X184042164Y-76633750D02*
X184257836Y-76633750D01*
X184042164Y-77353750D02*
X184257836Y-77353750D01*
%TO.C,U10*%
X93662500Y-39715000D02*
X93012500Y-39715000D01*
X93662500Y-39715000D02*
X95337500Y-39715000D01*
X93662500Y-42835000D02*
X93012500Y-42835000D01*
X93662500Y-42835000D02*
X94312500Y-42835000D01*
%TO.C,C67*%
X67360914Y-29008750D02*
X67576586Y-29008750D01*
X67360914Y-29728750D02*
X67576586Y-29728750D01*
%TO.C,U15*%
X188912500Y-39715000D02*
X188262500Y-39715000D01*
X188912500Y-39715000D02*
X190587500Y-39715000D01*
X188912500Y-42835000D02*
X188262500Y-42835000D01*
X188912500Y-42835000D02*
X189562500Y-42835000D01*
%TO.C,U51*%
X241300000Y-96865000D02*
X240650000Y-96865000D01*
X241300000Y-96865000D02*
X242975000Y-96865000D01*
X241300000Y-99985000D02*
X240650000Y-99985000D01*
X241300000Y-99985000D02*
X241950000Y-99985000D01*
%TO.C,C124*%
X87204664Y-30596250D02*
X87420336Y-30596250D01*
X87204664Y-31316250D02*
X87420336Y-31316250D01*
%TO.C,SW2*%
X60342500Y-50317500D02*
X60642500Y-50317500D01*
X60342500Y-54457500D02*
X60342500Y-50317500D01*
X60642500Y-54457500D02*
X60342500Y-54457500D01*
X63182500Y-50317500D02*
X63482500Y-50317500D01*
X63482500Y-50317500D02*
X63482500Y-54457500D01*
X63482500Y-54457500D02*
X63182500Y-54457500D01*
%TO.C,C6*%
X141179664Y-19483750D02*
X141395336Y-19483750D01*
X141179664Y-20203750D02*
X141395336Y-20203750D01*
%TO.C,C117*%
X262623414Y-105208750D02*
X262839086Y-105208750D01*
X262623414Y-105928750D02*
X262839086Y-105928750D01*
D14*
%TO.C,D14*%
X172062500Y-48379000D02*
X172062500Y-47779000D01*
X172662500Y-47779000D01*
X172062500Y-48379000D01*
G36*
X172062500Y-48379000D02*
G01*
X172062500Y-47779000D01*
X172662500Y-47779000D01*
X172062500Y-48379000D01*
G37*
D13*
%TO.C,U29*%
X231775000Y-58765000D02*
X231125000Y-58765000D01*
X231775000Y-58765000D02*
X233450000Y-58765000D01*
X231775000Y-61885000D02*
X231125000Y-61885000D01*
X231775000Y-61885000D02*
X232425000Y-61885000D01*
%TO.C,R3*%
X56996359Y-56770000D02*
X57303641Y-56770000D01*
X56996359Y-57530000D02*
X57303641Y-57530000D01*
%TO.C,U22*%
X98425000Y-58765000D02*
X97775000Y-58765000D01*
X98425000Y-58765000D02*
X100100000Y-58765000D01*
X98425000Y-61885000D02*
X97775000Y-61885000D01*
X98425000Y-61885000D02*
X99075000Y-61885000D01*
%TO.C,C21*%
X79267164Y-57583750D02*
X79482836Y-57583750D01*
X79267164Y-58303750D02*
X79482836Y-58303750D01*
%TO.C,U48*%
X167481250Y-96865000D02*
X166831250Y-96865000D01*
X167481250Y-96865000D02*
X169156250Y-96865000D01*
X167481250Y-99985000D02*
X166831250Y-99985000D01*
X167481250Y-99985000D02*
X168131250Y-99985000D01*
D14*
%TO.C,D28*%
X134325000Y-64029000D02*
X133725000Y-64029000D01*
X134325000Y-63429000D01*
X134325000Y-64029000D01*
G36*
X134325000Y-64029000D02*
G01*
X133725000Y-64029000D01*
X134325000Y-63429000D01*
X134325000Y-64029000D01*
G37*
D17*
%TO.C,G\u002A\u002A\u002A*%
G36*
X139473261Y-130940180D02*
G01*
X139705747Y-131123655D01*
X139803714Y-131545606D01*
X139818755Y-131893536D01*
X139726761Y-132063430D01*
X139458136Y-132063974D01*
X139332695Y-132037468D01*
X139100209Y-131853993D01*
X139002242Y-131432042D01*
X138987201Y-131084112D01*
X139079195Y-130914218D01*
X139347820Y-130913674D01*
X139473261Y-130940180D01*
G37*
G36*
X139117544Y-132961844D02*
G01*
X139410298Y-133030969D01*
X139858101Y-133157671D01*
X140215636Y-133288654D01*
X140485209Y-133462452D01*
X140482115Y-133595574D01*
X140180529Y-133648688D01*
X140115399Y-133651028D01*
X139985473Y-133698031D01*
X139903327Y-133851627D01*
X139858099Y-134171556D01*
X139838928Y-134717556D01*
X139834951Y-135549368D01*
X139837033Y-136039470D01*
X139855177Y-136735996D01*
X139897753Y-137167980D01*
X139971695Y-137388354D01*
X140083937Y-137450049D01*
X140189708Y-137463850D01*
X140439713Y-137622838D01*
X140387812Y-137705169D01*
X140038072Y-137772113D01*
X139402978Y-137795627D01*
X138867703Y-137780096D01*
X138461190Y-137720998D01*
X138366243Y-137622838D01*
X138427837Y-137555355D01*
X138722019Y-137450049D01*
X138825739Y-137393859D01*
X138897544Y-137190765D01*
X138942023Y-136791139D01*
X138964676Y-136145356D01*
X138971005Y-135203790D01*
X138971304Y-135037684D01*
X138982048Y-134223848D01*
X139005923Y-133563109D01*
X139039800Y-133119618D01*
X139080550Y-132957532D01*
X139117544Y-132961844D01*
G37*
G36*
X123356736Y-135690785D02*
G01*
X123190363Y-136457728D01*
X122824609Y-137150980D01*
X122313915Y-137640627D01*
X121905587Y-137834674D01*
X121137405Y-137941549D01*
X120398736Y-137745811D01*
X119753795Y-137270671D01*
X119266795Y-136539336D01*
X119023397Y-135867881D01*
X118972601Y-135291476D01*
X119812929Y-135291476D01*
X119819382Y-136026406D01*
X119984816Y-136678822D01*
X120302322Y-137133176D01*
X120770163Y-137391707D01*
X121318330Y-137393654D01*
X121813171Y-137061273D01*
X122075889Y-136745204D01*
X122444507Y-136057503D01*
X122556039Y-135292963D01*
X122553122Y-135159605D01*
X122407122Y-134410276D01*
X122081910Y-133868635D01*
X121634574Y-133558915D01*
X121122206Y-133505345D01*
X120601895Y-133732156D01*
X120130731Y-134263580D01*
X119972366Y-134589581D01*
X119812929Y-135291476D01*
X118972601Y-135291476D01*
X118953724Y-135077269D01*
X119162804Y-134291097D01*
X119457891Y-133759076D01*
X120024498Y-133251211D01*
X120796827Y-133008934D01*
X121097947Y-132991317D01*
X121864937Y-133162022D01*
X122525700Y-133617526D01*
X123031031Y-134315068D01*
X123331727Y-135211888D01*
X123335961Y-135292963D01*
X123356736Y-135690785D01*
G37*
G36*
X149275104Y-135690785D02*
G01*
X149108731Y-136457728D01*
X148742976Y-137150980D01*
X148232283Y-137640627D01*
X147823954Y-137834674D01*
X147055772Y-137941549D01*
X146317104Y-137745811D01*
X145672162Y-137270671D01*
X145185162Y-136539336D01*
X144941764Y-135867881D01*
X144890969Y-135291476D01*
X145731296Y-135291476D01*
X145737749Y-136026406D01*
X145903184Y-136678822D01*
X146220689Y-137133176D01*
X146688531Y-137391707D01*
X147236697Y-137393654D01*
X147731538Y-137061273D01*
X147994256Y-136745204D01*
X148362875Y-136057503D01*
X148474407Y-135292963D01*
X148471489Y-135159605D01*
X148325490Y-134410276D01*
X148000277Y-133868635D01*
X147552942Y-133558915D01*
X147040573Y-133505345D01*
X146520262Y-133732156D01*
X146049098Y-134263580D01*
X145890734Y-134589581D01*
X145731296Y-135291476D01*
X144890969Y-135291476D01*
X144872092Y-135077269D01*
X145081171Y-134291097D01*
X145376258Y-133759076D01*
X145942865Y-133251211D01*
X146715194Y-133008934D01*
X147016314Y-132991317D01*
X147783305Y-133162022D01*
X148444067Y-133617526D01*
X148949398Y-134315068D01*
X149250095Y-135211888D01*
X149254329Y-135292963D01*
X149275104Y-135690785D01*
G37*
G36*
X154458777Y-135690785D02*
G01*
X154292404Y-136457728D01*
X153926649Y-137150980D01*
X153415956Y-137640627D01*
X153007627Y-137834674D01*
X152239446Y-137941549D01*
X151500777Y-137745811D01*
X150855836Y-137270671D01*
X150368835Y-136539336D01*
X150125438Y-135867881D01*
X150074642Y-135291476D01*
X150914970Y-135291476D01*
X150921423Y-136026406D01*
X151086857Y-136678822D01*
X151404363Y-137133176D01*
X151872204Y-137391707D01*
X152420370Y-137393654D01*
X152915212Y-137061273D01*
X153177929Y-136745204D01*
X153546548Y-136057503D01*
X153658080Y-135292963D01*
X153655163Y-135159605D01*
X153509163Y-134410276D01*
X153183950Y-133868635D01*
X152736615Y-133558915D01*
X152224247Y-133505345D01*
X151703936Y-133732156D01*
X151232772Y-134263580D01*
X151074407Y-134589581D01*
X150914970Y-135291476D01*
X150074642Y-135291476D01*
X150055765Y-135077269D01*
X150264845Y-134291097D01*
X150559932Y-133759076D01*
X151126539Y-133251211D01*
X151898867Y-133008934D01*
X152199988Y-132991317D01*
X152966978Y-133162022D01*
X153627741Y-133617526D01*
X154133072Y-134315068D01*
X154433768Y-135211888D01*
X154438002Y-135292963D01*
X154458777Y-135690785D01*
G37*
G36*
X126184611Y-131488824D02*
G01*
X126406776Y-131796945D01*
X126530189Y-132445792D01*
X126538369Y-132683603D01*
X126634439Y-133029521D01*
X126875767Y-133180386D01*
X127077094Y-133268652D01*
X127221345Y-133459722D01*
X127156431Y-133569640D01*
X126875767Y-133648688D01*
X126843109Y-133649167D01*
X126698423Y-133683544D01*
X126606801Y-133816537D01*
X126556230Y-134109878D01*
X126534697Y-134625297D01*
X126530189Y-135424527D01*
X126522590Y-136092559D01*
X126481100Y-136807520D01*
X126396567Y-137283968D01*
X126261207Y-137584391D01*
X126130404Y-137742841D01*
X125790603Y-137933530D01*
X125316424Y-137914613D01*
X124634126Y-137690919D01*
X124579500Y-137668591D01*
X124154473Y-137441026D01*
X124043340Y-137277587D01*
X124235496Y-137223449D01*
X124720333Y-137323783D01*
X124980068Y-137392928D01*
X125315721Y-137407864D01*
X125542066Y-137255909D01*
X125683830Y-136892430D01*
X125765740Y-136272796D01*
X125812524Y-135352373D01*
X125872410Y-133616847D01*
X125039783Y-133675965D01*
X125015304Y-133677679D01*
X124506477Y-133688963D01*
X124246339Y-133615329D01*
X124146479Y-133432702D01*
X124137421Y-133371422D01*
X124193038Y-133218912D01*
X124442989Y-133147827D01*
X124962417Y-133130321D01*
X125839032Y-133130321D01*
X125839032Y-132153200D01*
X125839039Y-132097511D01*
X125846040Y-131575586D01*
X125886298Y-131337978D01*
X125989320Y-131327965D01*
X126184611Y-131488824D01*
G37*
G36*
X143290733Y-131488824D02*
G01*
X143512899Y-131796945D01*
X143636311Y-132445792D01*
X143644491Y-132683603D01*
X143740561Y-133029521D01*
X143981890Y-133180386D01*
X144183216Y-133268652D01*
X144327468Y-133459722D01*
X144262554Y-133569640D01*
X143981890Y-133648688D01*
X143949231Y-133649167D01*
X143804546Y-133683544D01*
X143712924Y-133816537D01*
X143662353Y-134109878D01*
X143640820Y-134625297D01*
X143636311Y-135424527D01*
X143628712Y-136092559D01*
X143587223Y-136807520D01*
X143502689Y-137283968D01*
X143367330Y-137584391D01*
X143236527Y-137742841D01*
X142896725Y-137933530D01*
X142422546Y-137914613D01*
X141740248Y-137690919D01*
X141685622Y-137668591D01*
X141260595Y-137441026D01*
X141149463Y-137277587D01*
X141341619Y-137223449D01*
X141826455Y-137323783D01*
X142086191Y-137392928D01*
X142421844Y-137407864D01*
X142648189Y-137255909D01*
X142789952Y-136892430D01*
X142871863Y-136272796D01*
X142918647Y-135352373D01*
X142978533Y-133616847D01*
X142145905Y-133675965D01*
X142121427Y-133677679D01*
X141612599Y-133688963D01*
X141352462Y-133615329D01*
X141252601Y-133432702D01*
X141243544Y-133371422D01*
X141299160Y-133218912D01*
X141549111Y-133147827D01*
X142068540Y-133130321D01*
X142945155Y-133130321D01*
X142945155Y-132153200D01*
X142945162Y-132097511D01*
X142952162Y-131575586D01*
X142992421Y-131337978D01*
X143095443Y-131327965D01*
X143290733Y-131488824D01*
G37*
G36*
X160388494Y-133059767D02*
G01*
X160262859Y-133225218D01*
X159905954Y-133412641D01*
X159816883Y-133450614D01*
X159612123Y-133592413D01*
X159415668Y-133842034D01*
X159196747Y-134254011D01*
X158924591Y-134882880D01*
X158568428Y-135783176D01*
X158479782Y-136010737D01*
X158172885Y-136778715D01*
X157912823Y-137399709D01*
X157724750Y-137814975D01*
X157633819Y-137965770D01*
X157467166Y-137913657D01*
X157252225Y-137696661D01*
X157005839Y-137272470D01*
X156704907Y-136599962D01*
X156326330Y-135638011D01*
X156305768Y-135584012D01*
X155986207Y-134789979D01*
X155681771Y-134108669D01*
X155426026Y-133611038D01*
X155252538Y-133368042D01*
X155157816Y-133287065D01*
X155146262Y-133195060D01*
X155378148Y-133154278D01*
X155904339Y-133147510D01*
X156194978Y-133151424D01*
X156559919Y-133175639D01*
X156640260Y-133232759D01*
X156476943Y-133336283D01*
X156099207Y-133518856D01*
X156630079Y-135009282D01*
X156749227Y-135338956D01*
X156984559Y-135961465D01*
X157172031Y-136419838D01*
X157279160Y-136632823D01*
X157289844Y-136637107D01*
X157406471Y-136489253D01*
X157598172Y-136113066D01*
X157831044Y-135590718D01*
X158071184Y-135004381D01*
X158284688Y-134436226D01*
X158437653Y-133968425D01*
X158496175Y-133683150D01*
X158443597Y-133545745D01*
X158193794Y-133316950D01*
X158175333Y-133305939D01*
X158087447Y-133205491D01*
X158268060Y-133152081D01*
X158755359Y-133133216D01*
X159030778Y-133126185D01*
X159604363Y-133085089D01*
X160008080Y-133021414D01*
X160265447Y-132982995D01*
X160388494Y-133059767D01*
G37*
G36*
X115397957Y-133131290D02*
G01*
X116063212Y-133561152D01*
X116853998Y-134164773D01*
X116853998Y-133657744D01*
X116860005Y-133480022D01*
X116967714Y-133124842D01*
X117248449Y-133035025D01*
X117751686Y-133184491D01*
X117826077Y-133215318D01*
X118140290Y-133362454D01*
X118166332Y-133453042D01*
X117933930Y-133546067D01*
X117867245Y-133569108D01*
X117716190Y-133657406D01*
X117621617Y-133827877D01*
X117570362Y-134146369D01*
X117549263Y-134678726D01*
X117545155Y-135490794D01*
X117545221Y-135623486D01*
X117552087Y-136395300D01*
X117578457Y-136894693D01*
X117635945Y-137185827D01*
X117736166Y-137332869D01*
X117890733Y-137399983D01*
X118092512Y-137481664D01*
X118236311Y-137642990D01*
X118106079Y-137714341D01*
X117715808Y-137769033D01*
X117156379Y-137786564D01*
X117034933Y-137785468D01*
X116510801Y-137773019D01*
X116274204Y-137735750D01*
X116275544Y-137653549D01*
X116465223Y-137506305D01*
X116656800Y-137339471D01*
X116782797Y-137090324D01*
X116840309Y-136683908D01*
X116853998Y-136026332D01*
X116853010Y-135727426D01*
X116828064Y-135188055D01*
X116736702Y-134824930D01*
X116536034Y-134517878D01*
X116183170Y-134146727D01*
X115891085Y-133879154D01*
X115350698Y-133545109D01*
X114920029Y-133521043D01*
X114613819Y-133810118D01*
X114577538Y-133910854D01*
X114504510Y-134346477D01*
X114453887Y-134985000D01*
X114434951Y-135726974D01*
X114438069Y-136300426D01*
X114459747Y-136846006D01*
X114514536Y-137165066D01*
X114616706Y-137326696D01*
X114780529Y-137399983D01*
X114942197Y-137449313D01*
X115135175Y-137575386D01*
X115028239Y-137685161D01*
X114654276Y-137761325D01*
X114046175Y-137786564D01*
X113924729Y-137785468D01*
X113400597Y-137773019D01*
X113164000Y-137735750D01*
X113165340Y-137653549D01*
X113355019Y-137506305D01*
X113407984Y-137468170D01*
X113562780Y-137318561D01*
X113661045Y-137103486D01*
X113715493Y-136752929D01*
X113738838Y-136196873D01*
X113743794Y-135365302D01*
X113744003Y-135133029D01*
X113752452Y-134374520D01*
X113782501Y-133874543D01*
X113846709Y-133563169D01*
X113957629Y-133370469D01*
X114127819Y-133226513D01*
X114361373Y-133087195D01*
X114853945Y-132977327D01*
X115397957Y-133131290D01*
G37*
G36*
X134923127Y-133131290D02*
G01*
X135588382Y-133561152D01*
X136379169Y-134164773D01*
X136379169Y-133657744D01*
X136385175Y-133480022D01*
X136492884Y-133124842D01*
X136773619Y-133035025D01*
X137276856Y-133184491D01*
X137351247Y-133215318D01*
X137665460Y-133362454D01*
X137691502Y-133453042D01*
X137459100Y-133546067D01*
X137392415Y-133569108D01*
X137241360Y-133657406D01*
X137146787Y-133827877D01*
X137095533Y-134146369D01*
X137074433Y-134678726D01*
X137070325Y-135490794D01*
X137070391Y-135623486D01*
X137077257Y-136395300D01*
X137103627Y-136894693D01*
X137161115Y-137185827D01*
X137261336Y-137332869D01*
X137415903Y-137399983D01*
X137617682Y-137481664D01*
X137761481Y-137642990D01*
X137631249Y-137714341D01*
X137240978Y-137769033D01*
X136681549Y-137786564D01*
X136560103Y-137785468D01*
X136035971Y-137773019D01*
X135799374Y-137735750D01*
X135800714Y-137653549D01*
X135990393Y-137506305D01*
X136181970Y-137339471D01*
X136307967Y-137090324D01*
X136365479Y-136683908D01*
X136379169Y-136026332D01*
X136378180Y-135727426D01*
X136353234Y-135188055D01*
X136261872Y-134824930D01*
X136061204Y-134517878D01*
X135708340Y-134146727D01*
X135416255Y-133879154D01*
X134875868Y-133545109D01*
X134445199Y-133521043D01*
X134138989Y-133810118D01*
X134102708Y-133910854D01*
X134029680Y-134346477D01*
X133979057Y-134985000D01*
X133960121Y-135726974D01*
X133963239Y-136300426D01*
X133984918Y-136846006D01*
X134039706Y-137165066D01*
X134141876Y-137326696D01*
X134305699Y-137399983D01*
X134467367Y-137449313D01*
X134660345Y-137575386D01*
X134553409Y-137685161D01*
X134179447Y-137761325D01*
X133571345Y-137786564D01*
X133449899Y-137785468D01*
X132925767Y-137773019D01*
X132689170Y-137735750D01*
X132690510Y-137653549D01*
X132880189Y-137506305D01*
X132933154Y-137468170D01*
X133087950Y-137318561D01*
X133186215Y-137103486D01*
X133240663Y-136752929D01*
X133264008Y-136196873D01*
X133268964Y-135365302D01*
X133269173Y-135133029D01*
X133277622Y-134374520D01*
X133307672Y-133874543D01*
X133371879Y-133563169D01*
X133482799Y-133370469D01*
X133652989Y-133226513D01*
X133886543Y-133087195D01*
X134379115Y-132977327D01*
X134923127Y-133131290D01*
G37*
G36*
X131877123Y-134509811D02*
G01*
X131801540Y-135129288D01*
X131382801Y-135734223D01*
X131260603Y-135864707D01*
X131046790Y-136168245D01*
X131036294Y-136335317D01*
X131300555Y-136592469D01*
X131414379Y-136998539D01*
X131250340Y-137370519D01*
X131117811Y-137510315D01*
X131060146Y-137679807D01*
X131270180Y-137833988D01*
X131875552Y-138292880D01*
X132182711Y-138809331D01*
X132185274Y-138813640D01*
X132173559Y-139334969D01*
X131841938Y-139810689D01*
X131191942Y-140194625D01*
X130422951Y-140383257D01*
X129526873Y-140339293D01*
X128704088Y-140039611D01*
X128031111Y-139513958D01*
X127584457Y-138792082D01*
X127573208Y-138682722D01*
X128291735Y-138682722D01*
X128353790Y-139107848D01*
X128703812Y-139503471D01*
X129193529Y-139763303D01*
X129949354Y-139841713D01*
X130780860Y-139622364D01*
X130858277Y-139586759D01*
X131323820Y-139231272D01*
X131467634Y-138809331D01*
X131289452Y-138374929D01*
X130789004Y-137982054D01*
X130681281Y-137928729D01*
X130367032Y-137842678D01*
X129963132Y-137862543D01*
X129350115Y-137988893D01*
X128944791Y-138091800D01*
X128551805Y-138237233D01*
X128361915Y-138415986D01*
X128291735Y-138682722D01*
X127573208Y-138682722D01*
X127532131Y-138283398D01*
X127805806Y-137839341D01*
X128411578Y-137481424D01*
X129347753Y-137211165D01*
X129366177Y-137207374D01*
X129964433Y-137073168D01*
X130416254Y-136951584D01*
X130625097Y-136868519D01*
X130667311Y-136764978D01*
X130531839Y-136538274D01*
X130194820Y-136317191D01*
X129739997Y-136168009D01*
X129696999Y-136158953D01*
X129168013Y-135939457D01*
X128691610Y-135590196D01*
X128415627Y-135268792D01*
X128312310Y-134978654D01*
X128985207Y-134978654D01*
X129265223Y-135436194D01*
X129697917Y-135679187D01*
X130237069Y-135651971D01*
X130771376Y-135298039D01*
X130800859Y-135267854D01*
X131127843Y-134742826D01*
X131155888Y-134214853D01*
X130879509Y-133761863D01*
X130539004Y-133547012D01*
X129996216Y-133520940D01*
X129404511Y-133834018D01*
X129269078Y-133957359D01*
X128989670Y-134449158D01*
X128985207Y-134978654D01*
X128312310Y-134978654D01*
X128286555Y-134906327D01*
X128305441Y-134384868D01*
X128336071Y-133923883D01*
X128271812Y-133703027D01*
X128085223Y-133648688D01*
X127935877Y-133619863D01*
X127645043Y-133452119D01*
X127436288Y-133224735D01*
X127424153Y-133042705D01*
X127437406Y-133034582D01*
X127677635Y-133039492D01*
X128085935Y-133130505D01*
X128479078Y-133202889D01*
X129311558Y-133104890D01*
X129987294Y-132994821D01*
X130716900Y-133153118D01*
X131390424Y-133644245D01*
X131609471Y-133897923D01*
X131748102Y-134214853D01*
X131877123Y-134509811D01*
G37*
D13*
%TO.C,C31*%
X43548414Y-76633750D02*
X43764086Y-76633750D01*
X43548414Y-77353750D02*
X43764086Y-77353750D01*
%TO.C,C90*%
X157848414Y-67108750D02*
X158064086Y-67108750D01*
X157848414Y-67828750D02*
X158064086Y-67828750D01*
%TO.C,U40*%
X222250000Y-77815000D02*
X221600000Y-77815000D01*
X222250000Y-77815000D02*
X223925000Y-77815000D01*
X222250000Y-80935000D02*
X221600000Y-80935000D01*
X222250000Y-80935000D02*
X222900000Y-80935000D01*
%TO.C,C3*%
X64979664Y-19483750D02*
X65195336Y-19483750D01*
X64979664Y-20203750D02*
X65195336Y-20203750D01*
%TO.C,U17*%
X253206250Y-39715000D02*
X252556250Y-39715000D01*
X253206250Y-39715000D02*
X254881250Y-39715000D01*
X253206250Y-42835000D02*
X252556250Y-42835000D01*
X253206250Y-42835000D02*
X253856250Y-42835000D01*
%TO.C,C114*%
X201252500Y-101707836D02*
X201252500Y-101492164D01*
X201972500Y-101707836D02*
X201972500Y-101492164D01*
D14*
%TO.C,D15*%
X153012500Y-48379000D02*
X153012500Y-47779000D01*
X153612500Y-47779000D01*
X153012500Y-48379000D01*
G36*
X153012500Y-48379000D02*
G01*
X153012500Y-47779000D01*
X153612500Y-47779000D01*
X153012500Y-48379000D01*
G37*
D13*
%TO.C,C122*%
X89953118Y-71077500D02*
X90168790Y-71077500D01*
X89953118Y-71797500D02*
X90168790Y-71797500D01*
%TO.C,U28*%
X212725000Y-58765000D02*
X212075000Y-58765000D01*
X212725000Y-58765000D02*
X214400000Y-58765000D01*
X212725000Y-61885000D02*
X212075000Y-61885000D01*
X212725000Y-61885000D02*
X213375000Y-61885000D01*
%TO.C,C43*%
X38785914Y-95683750D02*
X39001586Y-95683750D01*
X38785914Y-96403750D02*
X39001586Y-96403750D01*
D14*
%TO.C,D22*%
X253387500Y-64029000D02*
X252787500Y-64029000D01*
X253387500Y-63429000D01*
X253387500Y-64029000D01*
G36*
X253387500Y-64029000D02*
G01*
X252787500Y-64029000D01*
X253387500Y-63429000D01*
X253387500Y-64029000D01*
G37*
%TO.C,D26*%
X172425000Y-64029000D02*
X171825000Y-64029000D01*
X172425000Y-63429000D01*
X172425000Y-64029000D01*
G36*
X172425000Y-64029000D02*
G01*
X171825000Y-64029000D01*
X172425000Y-63429000D01*
X172425000Y-64029000D01*
G37*
D13*
%TO.C,C32*%
X69742164Y-76633750D02*
X69957836Y-76633750D01*
X69742164Y-77353750D02*
X69957836Y-77353750D01*
%TO.C,C49*%
X200710914Y-95683750D02*
X200926586Y-95683750D01*
X200710914Y-96403750D02*
X200926586Y-96403750D01*
%TO.C,U1*%
X46037500Y-20665000D02*
X45387500Y-20665000D01*
X46037500Y-20665000D02*
X47712500Y-20665000D01*
X46037500Y-23785000D02*
X45387500Y-23785000D01*
X46037500Y-23785000D02*
X46687500Y-23785000D01*
%TO.C,C74*%
X72339086Y-44090000D02*
X72123414Y-44090000D01*
X72339086Y-44810000D02*
X72123414Y-44810000D01*
%TO.C,C55*%
X57257836Y-53121250D02*
X57042164Y-53121250D01*
X57257836Y-53841250D02*
X57042164Y-53841250D01*
%TO.C,C63*%
X33229664Y-17896250D02*
X33445336Y-17896250D01*
X33229664Y-18616250D02*
X33445336Y-18616250D01*
%TO.C,C54*%
X57257836Y-54167711D02*
X57042164Y-54167711D01*
X57257836Y-54887711D02*
X57042164Y-54887711D01*
D14*
%TO.C,D41*%
X129200000Y-86479000D02*
X129200000Y-85879000D01*
X129800000Y-85879000D01*
X129200000Y-86479000D01*
G36*
X129200000Y-86479000D02*
G01*
X129200000Y-85879000D01*
X129800000Y-85879000D01*
X129200000Y-86479000D01*
G37*
D13*
%TO.C,C86*%
X81648414Y-67108750D02*
X81864086Y-67108750D01*
X81648414Y-67828750D02*
X81864086Y-67828750D01*
%TO.C,U27*%
X193675000Y-58765000D02*
X193025000Y-58765000D01*
X193675000Y-58765000D02*
X195350000Y-58765000D01*
X193675000Y-61885000D02*
X193025000Y-61885000D01*
X193675000Y-61885000D02*
X194325000Y-61885000D01*
%TO.C,U37*%
X165100000Y-77815000D02*
X164450000Y-77815000D01*
X165100000Y-77815000D02*
X166775000Y-77815000D01*
X165100000Y-80935000D02*
X164450000Y-80935000D01*
X165100000Y-80935000D02*
X165750000Y-80935000D01*
%TO.C,C44*%
X60217164Y-95683750D02*
X60432836Y-95683750D01*
X60217164Y-96403750D02*
X60432836Y-96403750D01*
%TO.C,C110*%
X84029664Y-105208750D02*
X84245336Y-105208750D01*
X84029664Y-105928750D02*
X84245336Y-105928750D01*
%TO.C,U31*%
X43656250Y-77815000D02*
X43006250Y-77815000D01*
X43656250Y-77815000D02*
X45331250Y-77815000D01*
X43656250Y-80935000D02*
X43006250Y-80935000D01*
X43656250Y-80935000D02*
X44306250Y-80935000D01*
D15*
%TO.C,U61*%
X93844110Y-76302870D02*
X93844110Y-76318110D01*
D16*
X93844470Y-71148750D02*
X98243750Y-71148750D01*
X93844470Y-76488750D02*
X93844470Y-71148750D01*
X98243750Y-71148750D02*
X98243750Y-76488750D01*
X98243750Y-76488750D02*
X93844470Y-76488750D01*
X100074110Y-71148750D02*
X98243750Y-71148750D01*
X100074110Y-71547530D02*
X100074110Y-71148750D01*
D13*
%TO.C,U42*%
X260350000Y-77815000D02*
X259700000Y-77815000D01*
X260350000Y-77815000D02*
X262025000Y-77815000D01*
X260350000Y-80935000D02*
X259700000Y-80935000D01*
X260350000Y-80935000D02*
X261000000Y-80935000D01*
%TO.C,U3*%
X84137500Y-20665000D02*
X83487500Y-20665000D01*
X84137500Y-20665000D02*
X85812500Y-20665000D01*
X84137500Y-23785000D02*
X83487500Y-23785000D01*
X84137500Y-23785000D02*
X84787500Y-23785000D01*
D15*
%TO.C,U60*%
X131944110Y-76300855D02*
X131944110Y-76316095D01*
D16*
X131944470Y-71146735D02*
X136343750Y-71146735D01*
X131944470Y-76486735D02*
X131944470Y-71146735D01*
X136343750Y-71146735D02*
X136343750Y-76486735D01*
X136343750Y-76486735D02*
X131944470Y-76486735D01*
X138174110Y-71146735D02*
X136343750Y-71146735D01*
X138174110Y-71545515D02*
X138174110Y-71146735D01*
D13*
%TO.C,C65*%
X33229664Y-30596250D02*
X33445336Y-30596250D01*
X33229664Y-31316250D02*
X33445336Y-31316250D01*
%TO.C,U16*%
X207962500Y-39715000D02*
X207312500Y-39715000D01*
X207962500Y-39715000D02*
X209637500Y-39715000D01*
X207962500Y-42835000D02*
X207312500Y-42835000D01*
X207962500Y-42835000D02*
X208612500Y-42835000D01*
D14*
%TO.C,D50*%
X165281250Y-102129000D02*
X164681250Y-102129000D01*
X165281250Y-101529000D01*
X165281250Y-102129000D01*
G36*
X165281250Y-102129000D02*
G01*
X164681250Y-102129000D01*
X165281250Y-101529000D01*
X165281250Y-102129000D01*
G37*
D13*
%TO.C,C28*%
X212617164Y-57583750D02*
X212832836Y-57583750D01*
X212617164Y-58303750D02*
X212832836Y-58303750D01*
%TO.C,F1*%
X57427500Y-25591686D02*
X57427500Y-26795814D01*
X59247500Y-25591686D02*
X59247500Y-26795814D01*
D14*
%TO.C,D4*%
X43837500Y-25929000D02*
X43237500Y-25929000D01*
X43837500Y-25329000D01*
X43837500Y-25929000D01*
G36*
X43837500Y-25929000D02*
G01*
X43237500Y-25929000D01*
X43837500Y-25329000D01*
X43837500Y-25929000D01*
G37*
D13*
%TO.C,C120*%
X166946868Y-71079515D02*
X167162540Y-71079515D01*
X166946868Y-71799515D02*
X167162540Y-71799515D01*
%TO.C,C75*%
X91389086Y-44090000D02*
X91173414Y-44090000D01*
X91389086Y-44810000D02*
X91173414Y-44810000D01*
D14*
%TO.C,D20*%
X57762500Y-48379000D02*
X57762500Y-47779000D01*
X58362500Y-47779000D01*
X57762500Y-48379000D01*
G36*
X57762500Y-48379000D02*
G01*
X57762500Y-47779000D01*
X58362500Y-47779000D01*
X57762500Y-48379000D01*
G37*
D13*
%TO.C,C9*%
X74504664Y-38533750D02*
X74720336Y-38533750D01*
X74504664Y-39253750D02*
X74720336Y-39253750D01*
%TO.C,U6*%
X141287500Y-20665000D02*
X140637500Y-20665000D01*
X141287500Y-20665000D02*
X142962500Y-20665000D01*
X141287500Y-23785000D02*
X140637500Y-23785000D01*
X141287500Y-23785000D02*
X141937500Y-23785000D01*
%TO.C,U9*%
X74612500Y-39715000D02*
X73962500Y-39715000D01*
X74612500Y-39715000D02*
X76287500Y-39715000D01*
X74612500Y-42835000D02*
X73962500Y-42835000D01*
X74612500Y-42835000D02*
X75262500Y-42835000D01*
D14*
%TO.C,D38*%
X186350000Y-86479000D02*
X186350000Y-85879000D01*
X186950000Y-85879000D01*
X186350000Y-86479000D01*
G36*
X186350000Y-86479000D02*
G01*
X186350000Y-85879000D01*
X186950000Y-85879000D01*
X186350000Y-86479000D01*
G37*
%TO.C,D44*%
X72050000Y-86479000D02*
X72050000Y-85879000D01*
X72650000Y-85879000D01*
X72050000Y-86479000D01*
G36*
X72050000Y-86479000D02*
G01*
X72050000Y-85879000D01*
X72650000Y-85879000D01*
X72050000Y-86479000D01*
G37*
%TO.C,D54*%
X58125000Y-102129000D02*
X57525000Y-102129000D01*
X58125000Y-101529000D01*
X58125000Y-102129000D01*
G36*
X58125000Y-102129000D02*
G01*
X57525000Y-102129000D01*
X58125000Y-101529000D01*
X58125000Y-102129000D01*
G37*
D13*
%TO.C,R1*%
X38737391Y-52801250D02*
X38430109Y-52801250D01*
X38737391Y-53561250D02*
X38430109Y-53561250D01*
%TO.C,C14*%
X169754664Y-38533750D02*
X169970336Y-38533750D01*
X169754664Y-39253750D02*
X169970336Y-39253750D01*
D14*
%TO.C,D25*%
X191475000Y-64029000D02*
X190875000Y-64029000D01*
X191475000Y-63429000D01*
X191475000Y-64029000D01*
G36*
X191475000Y-64029000D02*
G01*
X190875000Y-64029000D01*
X191475000Y-63429000D01*
X191475000Y-64029000D01*
G37*
%TO.C,D52*%
X117656250Y-102129000D02*
X117056250Y-102129000D01*
X117656250Y-101529000D01*
X117656250Y-102129000D01*
G36*
X117656250Y-102129000D02*
G01*
X117056250Y-102129000D01*
X117656250Y-101529000D01*
X117656250Y-102129000D01*
G37*
D13*
%TO.C,C45*%
X81648414Y-95683750D02*
X81864086Y-95683750D01*
X81648414Y-96403750D02*
X81864086Y-96403750D01*
%TD*%
%LPC*%
D18*
%TO.C,H10*%
X142875000Y-98425000D03*
%TD*%
%TO.C,H6*%
X106744954Y-70226862D03*
%TD*%
D19*
%TO.C,K_33*%
X83820000Y-79375000D03*
X93980000Y-79375000D03*
%TD*%
%TO.C,K_25*%
X150495000Y-60325000D03*
X160655000Y-60325000D03*
%TD*%
%TO.C,K_32*%
X64770000Y-79375000D03*
X74930000Y-79375000D03*
%TD*%
%TO.C,K_45*%
X76676250Y-98425000D03*
X86836250Y-98425000D03*
%TD*%
%TO.C,K_30*%
X250507500Y-60325000D03*
X260667500Y-60325000D03*
%TD*%
%TO.C,K_10*%
X88582500Y-41275000D03*
X98742500Y-41275000D03*
%TD*%
%TO.C,K_20*%
X55245000Y-60325000D03*
X65405000Y-60325000D03*
%TD*%
D18*
%TO.C,H13*%
X240506250Y-42068750D03*
%TD*%
D19*
%TO.C,K_28*%
X207645000Y-60325000D03*
X217805000Y-60325000D03*
%TD*%
%TO.C,K_16*%
X202882500Y-41275000D03*
X213042500Y-41275000D03*
%TD*%
%TO.C,K_44*%
X55245000Y-98425000D03*
X65405000Y-98425000D03*
%TD*%
D18*
%TO.C,H2*%
X131762500Y-22225000D03*
%TD*%
D19*
%TO.C,K_38*%
X179070000Y-79375000D03*
X189230000Y-79375000D03*
%TD*%
%TO.C,K_15*%
X183832500Y-41275000D03*
X193992500Y-41275000D03*
%TD*%
%TO.C,K_26*%
X169545000Y-60325000D03*
X179705000Y-60325000D03*
%TD*%
D18*
%TO.C,H7*%
X94456250Y-98425000D03*
%TD*%
D19*
%TO.C,K_34*%
X102870000Y-79375000D03*
X113030000Y-79375000D03*
%TD*%
%TO.C,K_17*%
X221932500Y-41275000D03*
X232092500Y-41275000D03*
%TD*%
%TO.C,K_23*%
X112395000Y-60325000D03*
X122555000Y-60325000D03*
%TD*%
D18*
%TO.C,H15*%
X250825000Y-98425000D03*
%TD*%
D19*
%TO.C,K_3*%
X79057500Y-22225000D03*
X89217500Y-22225000D03*
%TD*%
%TO.C,K_31*%
X38576250Y-79375000D03*
X48736250Y-79375000D03*
%TD*%
D18*
%TO.C,H14*%
X226218750Y-72531250D03*
%TD*%
D19*
%TO.C,K_36*%
X140970000Y-79375000D03*
X151130000Y-79375000D03*
%TD*%
%TO.C,K_12*%
X126682500Y-41275000D03*
X136842500Y-41275000D03*
%TD*%
%TO.C,K_4*%
X98107500Y-22225000D03*
X108267500Y-22225000D03*
%TD*%
%TO.C,K_27*%
X188595000Y-60325000D03*
X198755000Y-60325000D03*
%TD*%
%TO.C,K_8*%
X50482500Y-41275000D03*
X60642500Y-41275000D03*
%TD*%
D18*
%TO.C,H12*%
X211137500Y-98425000D03*
%TD*%
D19*
%TO.C,K_1*%
X40957500Y-22225000D03*
X51117500Y-22225000D03*
%TD*%
D20*
%TO.C,S1*%
X131762500Y-105410000D03*
D21*
X131762500Y-90170000D03*
D20*
X107950000Y-105410000D03*
D21*
X107950000Y-90170000D03*
%TD*%
D19*
%TO.C,K_39*%
X198120000Y-79375000D03*
X208280000Y-79375000D03*
%TD*%
%TO.C,K_9*%
X69532500Y-41275000D03*
X79692500Y-41275000D03*
%TD*%
D18*
%TO.C,H5*%
X84137500Y-41275000D03*
%TD*%
%TO.C,H11*%
X69850000Y-60325000D03*
%TD*%
D19*
%TO.C,K_11*%
X107632500Y-41275000D03*
X117792500Y-41275000D03*
%TD*%
%TO.C,K_18*%
X248126250Y-41275000D03*
X258286250Y-41275000D03*
%TD*%
%TO.C,K_40*%
X217170000Y-79375000D03*
X227330000Y-79375000D03*
%TD*%
%TO.C,K_13*%
X145732500Y-41275000D03*
X155892500Y-41275000D03*
%TD*%
%TO.C,K_5*%
X117157500Y-22225000D03*
X127317500Y-22225000D03*
%TD*%
D18*
%TO.C,H8*%
X141287500Y-41275000D03*
%TD*%
%TO.C,H16*%
X267493750Y-74612500D03*
%TD*%
%TO.C,H9*%
X184943750Y-70643750D03*
%TD*%
D19*
%TO.C,K_35*%
X121920000Y-79375000D03*
X132080000Y-79375000D03*
%TD*%
%TO.C,K_51*%
X236220000Y-98425000D03*
X246380000Y-98425000D03*
%TD*%
D20*
%TO.C,S2*%
X203193650Y-105410000D03*
D21*
X203193650Y-90170000D03*
D20*
X103181150Y-105410000D03*
D21*
X103181150Y-90170000D03*
%TD*%
D19*
%TO.C,K_6*%
X136207500Y-22225000D03*
X146367500Y-22225000D03*
%TD*%
%TO.C,K_41*%
X236220000Y-79375000D03*
X246380000Y-79375000D03*
%TD*%
%TO.C,K_50*%
X217170000Y-98425000D03*
X227330000Y-98425000D03*
%TD*%
%TO.C,K_48*%
X162401250Y-98425000D03*
X172561250Y-98425000D03*
%TD*%
%TO.C,K_29*%
X226695000Y-60325000D03*
X236855000Y-60325000D03*
%TD*%
%TO.C,K_46*%
X114776250Y-98425000D03*
X124936250Y-98425000D03*
%TD*%
%TO.C,K_22*%
X93345000Y-60325000D03*
X103505000Y-60325000D03*
%TD*%
%TO.C,K_49*%
X195738750Y-98425000D03*
X205898750Y-98425000D03*
%TD*%
%TO.C,K_21*%
X74295000Y-60325000D03*
X84455000Y-60325000D03*
%TD*%
%TO.C,K_14*%
X164782500Y-41275000D03*
X174942500Y-41275000D03*
%TD*%
%TO.C,K_43*%
X33813750Y-98425000D03*
X43973750Y-98425000D03*
%TD*%
D18*
%TO.C,H4*%
X49212500Y-98425000D03*
%TD*%
D19*
%TO.C,K_24*%
X131445000Y-60325000D03*
X141605000Y-60325000D03*
%TD*%
%TO.C,K_19*%
X33813750Y-60325000D03*
X43973750Y-60325000D03*
%TD*%
%TO.C,K_47*%
X148107400Y-98425000D03*
X158267400Y-98425000D03*
%TD*%
%TO.C,K_42*%
X255270000Y-79375000D03*
X265430000Y-79375000D03*
%TD*%
D18*
%TO.C,H1*%
X37306250Y-22225000D03*
%TD*%
D19*
%TO.C,K_7*%
X31432500Y-41275000D03*
X41592500Y-41275000D03*
%TD*%
%TO.C,K_37*%
X160020000Y-79375000D03*
X170180000Y-79375000D03*
%TD*%
%TO.C,K_52*%
X255270000Y-98425000D03*
X265430000Y-98425000D03*
%TD*%
%TO.C,K_2*%
X60007500Y-22225000D03*
X70167500Y-22225000D03*
%TD*%
D18*
%TO.C,H3*%
X155575000Y-79375000D03*
%TD*%
D20*
%TO.C,S3*%
X179387500Y-105410000D03*
D21*
X179387500Y-90170000D03*
D20*
X155575000Y-105410000D03*
D21*
X155575000Y-90170000D03*
%TD*%
D22*
%TO.C,C39*%
X203680000Y-76993750D03*
X202720000Y-76993750D03*
%TD*%
%TO.C,C118*%
X243734704Y-71401076D03*
X242774704Y-71401076D03*
%TD*%
%TO.C,C48*%
X167961250Y-96043750D03*
X167001250Y-96043750D03*
%TD*%
%TO.C,C40*%
X222730000Y-76993750D03*
X221770000Y-76993750D03*
%TD*%
D23*
%TO.C,D51*%
X150679852Y-106531250D03*
D24*
X152179852Y-106531250D03*
X152179852Y-101431250D03*
X150679852Y-101431250D03*
%TD*%
D25*
%TO.C,C97*%
X66988750Y-82550000D03*
X67948750Y-82550000D03*
%TD*%
D26*
%TO.C,U56*%
X34093250Y-35172250D03*
X33143250Y-35172250D03*
X32193250Y-35172250D03*
X32193250Y-32897250D03*
X34093250Y-32897250D03*
%TD*%
D25*
%TO.C,C53*%
X56670000Y-55805587D03*
X57630000Y-55805587D03*
%TD*%
D27*
%TO.C,U58*%
X214111840Y-71563905D03*
X214111840Y-72214145D03*
X214111840Y-72864385D03*
X214111840Y-73514625D03*
X214111840Y-74159785D03*
X214111840Y-74810025D03*
X214111840Y-75460265D03*
X214111840Y-76110505D03*
X208163160Y-76110505D03*
X208163160Y-75460265D03*
X208163160Y-74810025D03*
X208163160Y-74159785D03*
X208163160Y-73514625D03*
X208163160Y-72864385D03*
X208163160Y-72214145D03*
X208163160Y-71563905D03*
%TD*%
D25*
%TO.C,C96*%
X40795000Y-82550000D03*
X41755000Y-82550000D03*
%TD*%
D28*
%TO.C,D55*%
X36343750Y-102779000D03*
D29*
X36343750Y-104279000D03*
X41443750Y-104279000D03*
X41443750Y-102779000D03*
%TD*%
D30*
%TO.C,U49*%
X201756250Y-97475000D03*
X201756250Y-99375000D03*
X199881250Y-98425000D03*
%TD*%
D31*
%TO.C,D17*%
X115262500Y-47129000D03*
D29*
X115262500Y-45629000D03*
X110162500Y-45629000D03*
X110162500Y-47129000D03*
%TD*%
D30*
%TO.C,U43*%
X39831250Y-97475000D03*
X39831250Y-99375000D03*
X37956250Y-98425000D03*
%TD*%
D31*
%TO.C,D45*%
X46206250Y-85229000D03*
D29*
X46206250Y-83729000D03*
X41106250Y-83729000D03*
X41106250Y-85229000D03*
%TD*%
D30*
%TO.C,U13*%
X151750000Y-40325000D03*
X151750000Y-42225000D03*
X149875000Y-41275000D03*
%TD*%
D25*
%TO.C,C78*%
X147951250Y-44450000D03*
X148911250Y-44450000D03*
%TD*%
D22*
%TO.C,C18*%
X253686250Y-38893750D03*
X252726250Y-38893750D03*
%TD*%
%TO.C,C23*%
X117955000Y-57943750D03*
X116995000Y-57943750D03*
%TD*%
D31*
%TO.C,D36*%
X224800000Y-85229000D03*
D29*
X224800000Y-83729000D03*
X219700000Y-83729000D03*
X219700000Y-85229000D03*
%TD*%
D22*
%TO.C,C64*%
X33817500Y-23812500D03*
X32857500Y-23812500D03*
%TD*%
D28*
%TO.C,D46*%
X257800000Y-102779000D03*
D29*
X257800000Y-104279000D03*
X262900000Y-104279000D03*
X262900000Y-102779000D03*
%TD*%
D30*
%TO.C,U33*%
X89837500Y-78425000D03*
X89837500Y-80325000D03*
X87962500Y-79375000D03*
%TD*%
%TO.C,U46*%
X120793750Y-97475000D03*
X120793750Y-99375000D03*
X118918750Y-98425000D03*
%TD*%
D22*
%TO.C,C69*%
X106048750Y-29368750D03*
X105088750Y-29368750D03*
%TD*%
D32*
%TO.C,SW1*%
X34925000Y-54487500D03*
X34925000Y-50287500D03*
%TD*%
D33*
%TO.C,Q1*%
X60381250Y-35875000D03*
X60381250Y-33975000D03*
X62256250Y-34925000D03*
%TD*%
D22*
%TO.C,C33*%
X89380000Y-76993750D03*
X88420000Y-76993750D03*
%TD*%
D34*
%TO.C,R2*%
X38073750Y-51593750D03*
X39093750Y-51593750D03*
%TD*%
D31*
%TO.C,D13*%
X191462500Y-47129000D03*
D29*
X191462500Y-45629000D03*
X186362500Y-45629000D03*
X186362500Y-47129000D03*
%TD*%
D25*
%TO.C,C61*%
X57857500Y-29368750D03*
X58817500Y-29368750D03*
%TD*%
D22*
%TO.C,C71*%
X144148750Y-29368750D03*
X143188750Y-29368750D03*
%TD*%
D28*
%TO.C,D53*%
X79206250Y-102779000D03*
D29*
X79206250Y-104279000D03*
X84306250Y-104279000D03*
X84306250Y-102779000D03*
%TD*%
D25*
%TO.C,C101*%
X143188750Y-82550000D03*
X144148750Y-82550000D03*
%TD*%
D28*
%TO.C,D3*%
X28462500Y-15290000D03*
D29*
X28462500Y-16790000D03*
X33562500Y-16790000D03*
X33562500Y-15290000D03*
%TD*%
D22*
%TO.C,C24*%
X137005000Y-57943750D03*
X136045000Y-57943750D03*
%TD*%
%TO.C,C109*%
X63186250Y-105568750D03*
X62226250Y-105568750D03*
%TD*%
%TO.C,C46*%
X120336250Y-96043750D03*
X119376250Y-96043750D03*
%TD*%
D35*
%TO.C,R7*%
X53721589Y-21547501D03*
X53721589Y-20527501D03*
%TD*%
D25*
%TO.C,C56*%
X61432500Y-55956250D03*
X62392500Y-55956250D03*
%TD*%
D28*
%TO.C,D32*%
X57775000Y-64679000D03*
D29*
X57775000Y-66179000D03*
X62875000Y-66179000D03*
X62875000Y-64679000D03*
%TD*%
D22*
%TO.C,C87*%
X101286250Y-67468750D03*
X100326250Y-67468750D03*
%TD*%
D28*
%TO.C,D30*%
X95875000Y-64679000D03*
D29*
X95875000Y-66179000D03*
X100975000Y-66179000D03*
X100975000Y-64679000D03*
%TD*%
D30*
%TO.C,U39*%
X204137500Y-78425000D03*
X204137500Y-80325000D03*
X202262500Y-79375000D03*
%TD*%
%TO.C,U24*%
X137462500Y-59375000D03*
X137462500Y-61275000D03*
X135587500Y-60325000D03*
%TD*%
D22*
%TO.C,C2*%
X46517500Y-19843750D03*
X45557500Y-19843750D03*
%TD*%
%TO.C,C84*%
X41755000Y-67468750D03*
X40795000Y-67468750D03*
%TD*%
%TO.C,C51*%
X241780000Y-96043750D03*
X240820000Y-96043750D03*
%TD*%
%TO.C,C10*%
X94142500Y-38893750D03*
X93182500Y-38893750D03*
%TD*%
D36*
%TO.C,U55*%
X54309089Y-26943750D03*
D37*
X54309089Y-25243750D03*
X56309089Y-25243750D03*
X56309089Y-27143750D03*
%TD*%
D22*
%TO.C,C37*%
X165580000Y-76993750D03*
X164620000Y-76993750D03*
%TD*%
%TO.C,C70*%
X125098750Y-29368750D03*
X124138750Y-29368750D03*
%TD*%
%TO.C,C35*%
X127480000Y-76993750D03*
X126520000Y-76993750D03*
%TD*%
D30*
%TO.C,U18*%
X227950000Y-40325000D03*
X227950000Y-42225000D03*
X226075000Y-41275000D03*
%TD*%
%TO.C,U30*%
X256525000Y-59375000D03*
X256525000Y-61275000D03*
X254650000Y-60325000D03*
%TD*%
%TO.C,U25*%
X156512500Y-59375000D03*
X156512500Y-61275000D03*
X154637500Y-60325000D03*
%TD*%
D22*
%TO.C,C116*%
X244161250Y-105568750D03*
X243201250Y-105568750D03*
%TD*%
D25*
%TO.C,C81*%
X205101250Y-44450000D03*
X206061250Y-44450000D03*
%TD*%
D38*
%TO.C,C57*%
X64200000Y-34445000D03*
X64200000Y-35405000D03*
%TD*%
D25*
%TO.C,C72*%
X33651250Y-44450000D03*
X34611250Y-44450000D03*
%TD*%
D22*
%TO.C,C1*%
X84617500Y-19843750D03*
X83657500Y-19843750D03*
%TD*%
D30*
%TO.C,U2*%
X66025000Y-21275000D03*
X66025000Y-23175000D03*
X64150000Y-22225000D03*
%TD*%
D22*
%TO.C,C108*%
X41755000Y-105568750D03*
X40795000Y-105568750D03*
%TD*%
D31*
%TO.C,D19*%
X77162500Y-47129000D03*
D29*
X77162500Y-45629000D03*
X72062500Y-45629000D03*
X72062500Y-47129000D03*
%TD*%
D39*
%TO.C,U54*%
X65737500Y-35875000D03*
X65737500Y-34925000D03*
X65737500Y-33975000D03*
X68012500Y-33975000D03*
X68012500Y-35875000D03*
%TD*%
D38*
%TO.C,C59*%
X70643750Y-34445000D03*
X70643750Y-35405000D03*
%TD*%
D28*
%TO.C,D29*%
X114925000Y-64679000D03*
D29*
X114925000Y-66179000D03*
X120025000Y-66179000D03*
X120025000Y-64679000D03*
%TD*%
D25*
%TO.C,C102*%
X162238750Y-82550000D03*
X163198750Y-82550000D03*
%TD*%
D28*
%TO.C,D24*%
X210175000Y-64679000D03*
D29*
X210175000Y-66179000D03*
X215275000Y-66179000D03*
X215275000Y-64679000D03*
%TD*%
D28*
%TO.C,D1*%
X28462500Y-26555000D03*
D29*
X28462500Y-28055000D03*
X33562500Y-28055000D03*
X33562500Y-26555000D03*
%TD*%
D22*
%TO.C,C8*%
X56042500Y-38893750D03*
X55082500Y-38893750D03*
%TD*%
D25*
%TO.C,C107*%
X257488750Y-82550000D03*
X258448750Y-82550000D03*
%TD*%
D22*
%TO.C,C89*%
X139386250Y-67468750D03*
X138426250Y-67468750D03*
%TD*%
D38*
%TO.C,C112*%
X153987500Y-101120000D03*
X153987500Y-102080000D03*
%TD*%
D25*
%TO.C,C83*%
X250345000Y-44450000D03*
X251305000Y-44450000D03*
%TD*%
D40*
%TO.C,J1*%
X41375000Y-56356250D03*
D41*
X41375000Y-53816250D03*
X41375000Y-51276250D03*
X41375000Y-48736250D03*
%TD*%
D22*
%TO.C,C50*%
X222730000Y-96043750D03*
X221770000Y-96043750D03*
%TD*%
D30*
%TO.C,U5*%
X123175000Y-21275000D03*
X123175000Y-23175000D03*
X121300000Y-22225000D03*
%TD*%
D22*
%TO.C,C11*%
X113192500Y-38893750D03*
X112232500Y-38893750D03*
%TD*%
D30*
%TO.C,U36*%
X146987500Y-78425000D03*
X146987500Y-80325000D03*
X145112500Y-79375000D03*
%TD*%
D31*
%TO.C,D21*%
X39062500Y-47129000D03*
D29*
X39062500Y-45629000D03*
X33962500Y-45629000D03*
X33962500Y-47129000D03*
%TD*%
D30*
%TO.C,U12*%
X132700000Y-40325000D03*
X132700000Y-42225000D03*
X130825000Y-41275000D03*
%TD*%
D28*
%TO.C,D5*%
X62537500Y-26579000D03*
D29*
X62537500Y-28079000D03*
X67637500Y-28079000D03*
X67637500Y-26579000D03*
%TD*%
D42*
%TO.C,FB1*%
X56665000Y-52387500D03*
X57635000Y-52387500D03*
%TD*%
D30*
%TO.C,U47*%
X154131250Y-97475000D03*
X154131250Y-99375000D03*
X152256250Y-98425000D03*
%TD*%
D22*
%TO.C,C26*%
X175105000Y-57943750D03*
X174145000Y-57943750D03*
%TD*%
D25*
%TO.C,C104*%
X200338750Y-82550000D03*
X201298750Y-82550000D03*
%TD*%
D35*
%TO.C,R8*%
X57037122Y-21576841D03*
X57037122Y-20556841D03*
%TD*%
D28*
%TO.C,D33*%
X36343750Y-64679000D03*
D29*
X36343750Y-66179000D03*
X41443750Y-66179000D03*
X41443750Y-64679000D03*
%TD*%
D31*
%TO.C,D37*%
X205750000Y-85229000D03*
D29*
X205750000Y-83729000D03*
X200650000Y-83729000D03*
X200650000Y-85229000D03*
%TD*%
D30*
%TO.C,U35*%
X127937500Y-78425000D03*
X127937500Y-80325000D03*
X126062500Y-79375000D03*
%TD*%
D43*
%TO.C,U53*%
X54168750Y-52018750D03*
X54168750Y-52518750D03*
X54168750Y-53018750D03*
X54168750Y-53518750D03*
X54168750Y-54018750D03*
X54168750Y-54518750D03*
X54168750Y-55018750D03*
X54168750Y-55518750D03*
X54168750Y-56018750D03*
X54168750Y-56518750D03*
X54168750Y-57018750D03*
X54168750Y-57518750D03*
D44*
X52756250Y-58931250D03*
X52256250Y-58931250D03*
X51756250Y-58931250D03*
X51256250Y-58931250D03*
X50756250Y-58931250D03*
X50256250Y-58931250D03*
X49756250Y-58931250D03*
X49256250Y-58931250D03*
X48756250Y-58931250D03*
X48256250Y-58931250D03*
X47756250Y-58931250D03*
X47256250Y-58931250D03*
D43*
X45843750Y-57518750D03*
X45843750Y-57018750D03*
X45843750Y-56518750D03*
X45843750Y-56018750D03*
X45843750Y-55518750D03*
X45843750Y-55018750D03*
X45843750Y-54518750D03*
X45843750Y-54018750D03*
X45843750Y-53518750D03*
X45843750Y-53018750D03*
X45843750Y-52518750D03*
X45843750Y-52018750D03*
D44*
X47256250Y-50606250D03*
X47756250Y-50606250D03*
X48256250Y-50606250D03*
X48756250Y-50606250D03*
X49256250Y-50606250D03*
X49756250Y-50606250D03*
X50256250Y-50606250D03*
X50756250Y-50606250D03*
X51256250Y-50606250D03*
X51756250Y-50606250D03*
X52256250Y-50606250D03*
X52756250Y-50606250D03*
%TD*%
D22*
%TO.C,C12*%
X132242500Y-38893750D03*
X131282500Y-38893750D03*
%TD*%
%TO.C,C113*%
X170342500Y-105568750D03*
X169382500Y-105568750D03*
%TD*%
D25*
%TO.C,C77*%
X128901250Y-44450000D03*
X129861250Y-44450000D03*
%TD*%
D31*
%TO.C,D11*%
X229562500Y-47129000D03*
D29*
X229562500Y-45629000D03*
X224462500Y-45629000D03*
X224462500Y-47129000D03*
%TD*%
D22*
%TO.C,C25*%
X156055000Y-57943750D03*
X155095000Y-57943750D03*
%TD*%
%TO.C,C13*%
X151292500Y-38893750D03*
X150332500Y-38893750D03*
%TD*%
D30*
%TO.C,U45*%
X82693750Y-97475000D03*
X82693750Y-99375000D03*
X80818750Y-98425000D03*
%TD*%
D25*
%TO.C,C100*%
X124138750Y-82550000D03*
X125098750Y-82550000D03*
%TD*%
D22*
%TO.C,C93*%
X215586250Y-67468750D03*
X214626250Y-67468750D03*
%TD*%
%TO.C,C34*%
X108430000Y-76993750D03*
X107470000Y-76993750D03*
%TD*%
%TO.C,C94*%
X234636250Y-67468750D03*
X233676250Y-67468750D03*
%TD*%
%TO.C,C91*%
X177486250Y-67468750D03*
X176526250Y-67468750D03*
%TD*%
D25*
%TO.C,C105*%
X219388750Y-82550000D03*
X220348750Y-82550000D03*
%TD*%
D23*
%TO.C,D49*%
X198304852Y-106531250D03*
D24*
X199804852Y-106531250D03*
X199804852Y-101431250D03*
X198304852Y-101431250D03*
%TD*%
D30*
%TO.C,U38*%
X185087500Y-78425000D03*
X185087500Y-80325000D03*
X183212500Y-79375000D03*
%TD*%
D25*
%TO.C,C80*%
X186051250Y-44450000D03*
X187011250Y-44450000D03*
%TD*%
D22*
%TO.C,C52*%
X260830000Y-96043750D03*
X259870000Y-96043750D03*
%TD*%
%TO.C,C16*%
X208442500Y-38893750D03*
X207482500Y-38893750D03*
%TD*%
D30*
%TO.C,U4*%
X104125000Y-21275000D03*
X104125000Y-23175000D03*
X102250000Y-22225000D03*
%TD*%
D28*
%TO.C,D9*%
X138737500Y-26579000D03*
D29*
X138737500Y-28079000D03*
X143837500Y-28079000D03*
X143837500Y-26579000D03*
%TD*%
D25*
%TO.C,C99*%
X105088750Y-82550000D03*
X106048750Y-82550000D03*
%TD*%
D30*
%TO.C,U32*%
X70787500Y-78425000D03*
X70787500Y-80325000D03*
X68912500Y-79375000D03*
%TD*%
D27*
%TO.C,U62*%
X55361840Y-71545450D03*
X55361840Y-72195690D03*
X55361840Y-72845930D03*
X55361840Y-73496170D03*
X55361840Y-74141330D03*
X55361840Y-74791570D03*
X55361840Y-75441810D03*
X55361840Y-76092050D03*
X49413160Y-76092050D03*
X49413160Y-75441810D03*
X49413160Y-74791570D03*
X49413160Y-74141330D03*
X49413160Y-73496170D03*
X49413160Y-72845930D03*
X49413160Y-72195690D03*
X49413160Y-71545450D03*
%TD*%
D30*
%TO.C,U7*%
X37450000Y-40325000D03*
X37450000Y-42225000D03*
X35575000Y-41275000D03*
%TD*%
D22*
%TO.C,C36*%
X146530000Y-76993750D03*
X145570000Y-76993750D03*
%TD*%
D25*
%TO.C,C79*%
X167001250Y-44450000D03*
X167961250Y-44450000D03*
%TD*%
D22*
%TO.C,C47*%
X153673750Y-96043750D03*
X152713750Y-96043750D03*
%TD*%
D30*
%TO.C,U41*%
X242237500Y-78425000D03*
X242237500Y-80325000D03*
X240362500Y-79375000D03*
%TD*%
D22*
%TO.C,C68*%
X86998750Y-29368750D03*
X86038750Y-29368750D03*
%TD*%
D30*
%TO.C,U52*%
X261287500Y-97475000D03*
X261287500Y-99375000D03*
X259412500Y-98425000D03*
%TD*%
D22*
%TO.C,C7*%
X36992500Y-38893750D03*
X36032500Y-38893750D03*
%TD*%
D30*
%TO.C,U44*%
X61262500Y-97475000D03*
X61262500Y-99375000D03*
X59387500Y-98425000D03*
%TD*%
%TO.C,U11*%
X113650000Y-40325000D03*
X113650000Y-42225000D03*
X111775000Y-41275000D03*
%TD*%
D22*
%TO.C,C115*%
X225111250Y-105568750D03*
X224151250Y-105568750D03*
%TD*%
D30*
%TO.C,U34*%
X108887500Y-78425000D03*
X108887500Y-80325000D03*
X107012500Y-79375000D03*
%TD*%
D22*
%TO.C,C29*%
X232255000Y-57943750D03*
X231295000Y-57943750D03*
%TD*%
D30*
%TO.C,U8*%
X56500000Y-40325000D03*
X56500000Y-42225000D03*
X54625000Y-41275000D03*
%TD*%
D22*
%TO.C,C121*%
X128640954Y-71437500D03*
X127680954Y-71437500D03*
%TD*%
D45*
%TO.C,J2*%
X52609000Y-16890625D03*
X58389000Y-16890625D03*
D46*
X52249000Y-18335625D03*
X53049000Y-18335625D03*
D47*
X54249000Y-18335625D03*
X55249000Y-18335625D03*
X55749000Y-18335625D03*
X56749000Y-18335625D03*
D46*
X57949000Y-18335625D03*
X58749000Y-18335625D03*
X58749000Y-18335625D03*
X57949000Y-18335625D03*
D47*
X57249000Y-18335625D03*
X56249000Y-18335625D03*
X54749000Y-18335625D03*
X53749000Y-18335625D03*
D46*
X53049000Y-18335625D03*
X52249000Y-18335625D03*
D48*
X51179000Y-13240625D03*
D49*
X51179000Y-17420625D03*
D48*
X59819000Y-13240625D03*
D49*
X59819000Y-17420625D03*
%TD*%
D50*
%TO.C,J4*%
X48925000Y-32581250D03*
X48925000Y-33781250D03*
X48925000Y-34981250D03*
X48925000Y-36181250D03*
D51*
X52700000Y-31431250D03*
X52700000Y-37331250D03*
%TD*%
D30*
%TO.C,U14*%
X170800000Y-40325000D03*
X170800000Y-42225000D03*
X168925000Y-41275000D03*
%TD*%
D22*
%TO.C,C62*%
X33817500Y-29368750D03*
X32857500Y-29368750D03*
%TD*%
%TO.C,C92*%
X196536250Y-67468750D03*
X195576250Y-67468750D03*
%TD*%
D28*
%TO.C,D8*%
X119687500Y-26579000D03*
D29*
X119687500Y-28079000D03*
X124787500Y-28079000D03*
X124787500Y-26579000D03*
%TD*%
D27*
%TO.C,U63*%
X96043750Y-31064200D03*
X96043750Y-31714440D03*
X96043750Y-32364680D03*
X96043750Y-33014920D03*
X96043750Y-33660080D03*
X96043750Y-34310320D03*
X96043750Y-34960560D03*
X96043750Y-35610800D03*
X90095070Y-35610800D03*
X90095070Y-34960560D03*
X90095070Y-34310320D03*
X90095070Y-33660080D03*
X90095070Y-33014920D03*
X90095070Y-32364680D03*
X90095070Y-31714440D03*
X90095070Y-31064200D03*
%TD*%
D30*
%TO.C,U50*%
X223187500Y-97475000D03*
X223187500Y-99375000D03*
X221312500Y-98425000D03*
%TD*%
D52*
%TO.C,R4*%
X35435000Y-55956250D03*
X34415000Y-55956250D03*
%TD*%
D28*
%TO.C,D48*%
X219700000Y-102779000D03*
D29*
X219700000Y-104279000D03*
X224800000Y-104279000D03*
X224800000Y-102779000D03*
%TD*%
D25*
%TO.C,C103*%
X181288750Y-82550000D03*
X182248750Y-82550000D03*
%TD*%
%TO.C,C76*%
X109851250Y-44450000D03*
X110811250Y-44450000D03*
%TD*%
D27*
%TO.C,U59*%
X176011840Y-71545450D03*
X176011840Y-72195690D03*
X176011840Y-72845930D03*
X176011840Y-73496170D03*
X176011840Y-74141330D03*
X176011840Y-74791570D03*
X176011840Y-75441810D03*
X176011840Y-76092050D03*
X170063160Y-76092050D03*
X170063160Y-75441810D03*
X170063160Y-74791570D03*
X170063160Y-74141330D03*
X170063160Y-73496170D03*
X170063160Y-72845930D03*
X170063160Y-72195690D03*
X170063160Y-71545450D03*
%TD*%
D22*
%TO.C,C30*%
X256067500Y-57943750D03*
X255107500Y-57943750D03*
%TD*%
D31*
%TO.C,D10*%
X255756250Y-47129000D03*
D29*
X255756250Y-45629000D03*
X250656250Y-45629000D03*
X250656250Y-47129000D03*
%TD*%
D22*
%TO.C,C88*%
X120336250Y-67468750D03*
X119376250Y-67468750D03*
%TD*%
%TO.C,C19*%
X39373750Y-57943750D03*
X38413750Y-57943750D03*
%TD*%
D28*
%TO.C,D31*%
X76825000Y-64679000D03*
D29*
X76825000Y-66179000D03*
X81925000Y-66179000D03*
X81925000Y-64679000D03*
%TD*%
D25*
%TO.C,C106*%
X238438750Y-82550000D03*
X239398750Y-82550000D03*
%TD*%
%TO.C,C98*%
X86038750Y-82550000D03*
X86998750Y-82550000D03*
%TD*%
D30*
%TO.C,U20*%
X61262500Y-59375000D03*
X61262500Y-61275000D03*
X59387500Y-60325000D03*
%TD*%
D22*
%TO.C,C123*%
X46723300Y-71437500D03*
X45763300Y-71437500D03*
%TD*%
D53*
%TO.C,D_PWR1*%
X52193750Y-27843750D03*
X52193750Y-24543750D03*
%TD*%
D30*
%TO.C,U21*%
X80312500Y-59375000D03*
X80312500Y-61275000D03*
X78437500Y-60325000D03*
%TD*%
D54*
%TO.C,C60*%
X58737500Y-35405000D03*
X58737500Y-34445000D03*
%TD*%
D22*
%TO.C,C27*%
X194155000Y-57943750D03*
X193195000Y-57943750D03*
%TD*%
%TO.C,C15*%
X189392500Y-38893750D03*
X188432500Y-38893750D03*
%TD*%
%TO.C,C85*%
X63186250Y-67468750D03*
X62226250Y-67468750D03*
%TD*%
%TO.C,C5*%
X122717500Y-19843750D03*
X121757500Y-19843750D03*
%TD*%
%TO.C,C95*%
X258448750Y-67468750D03*
X257488750Y-67468750D03*
%TD*%
D28*
%TO.C,D23*%
X229225000Y-64679000D03*
D29*
X229225000Y-66179000D03*
X234325000Y-66179000D03*
X234325000Y-64679000D03*
%TD*%
D28*
%TO.C,D6*%
X81587500Y-26579000D03*
D29*
X81587500Y-28079000D03*
X86687500Y-28079000D03*
X86687500Y-26579000D03*
%TD*%
D22*
%TO.C,C22*%
X98905000Y-57943750D03*
X97945000Y-57943750D03*
%TD*%
D55*
%TO.C,J3*%
X46837697Y-32881250D03*
X46837697Y-33881250D03*
X46837697Y-34881250D03*
X46837697Y-35881250D03*
D56*
X50712697Y-31581250D03*
X50712697Y-37181250D03*
%TD*%
D30*
%TO.C,U23*%
X118412500Y-59375000D03*
X118412500Y-61275000D03*
X116537500Y-60325000D03*
%TD*%
D22*
%TO.C,C17*%
X227492500Y-38893750D03*
X226532500Y-38893750D03*
%TD*%
%TO.C,C119*%
X205634704Y-71437500D03*
X204674704Y-71437500D03*
%TD*%
D30*
%TO.C,U26*%
X175562500Y-59375000D03*
X175562500Y-61275000D03*
X173687500Y-60325000D03*
%TD*%
D25*
%TO.C,C82*%
X224151250Y-44450000D03*
X225111250Y-44450000D03*
%TD*%
D22*
%TO.C,C4*%
X103667500Y-19843750D03*
X102707500Y-19843750D03*
%TD*%
D52*
%TO.C,R6*%
X61828750Y-37306250D03*
X60808750Y-37306250D03*
%TD*%
D38*
%TO.C,C58*%
X69551587Y-34445000D03*
X69551587Y-35405000D03*
%TD*%
D31*
%TO.C,D12*%
X210512500Y-47129000D03*
D29*
X210512500Y-45629000D03*
X205412500Y-45629000D03*
X205412500Y-47129000D03*
%TD*%
D52*
%TO.C,R5*%
X35435000Y-48818750D03*
X34415000Y-48818750D03*
%TD*%
D31*
%TO.C,D16*%
X134312500Y-47129000D03*
D29*
X134312500Y-45629000D03*
X129212500Y-45629000D03*
X129212500Y-47129000D03*
%TD*%
D28*
%TO.C,D27*%
X153025000Y-64679000D03*
D29*
X153025000Y-66179000D03*
X158125000Y-66179000D03*
X158125000Y-64679000D03*
%TD*%
D31*
%TO.C,D42*%
X110500000Y-85229000D03*
D29*
X110500000Y-83729000D03*
X105400000Y-83729000D03*
X105400000Y-85229000D03*
%TD*%
D31*
%TO.C,D35*%
X243850000Y-85229000D03*
D29*
X243850000Y-83729000D03*
X238750000Y-83729000D03*
X238750000Y-85229000D03*
%TD*%
D31*
%TO.C,D18*%
X96212500Y-47129000D03*
D29*
X96212500Y-45629000D03*
X91112500Y-45629000D03*
X91112500Y-47129000D03*
%TD*%
D22*
%TO.C,C20*%
X60805000Y-57943750D03*
X59845000Y-57943750D03*
%TD*%
D27*
%TO.C,U57*%
X252211840Y-71563905D03*
X252211840Y-72214145D03*
X252211840Y-72864385D03*
X252211840Y-73514625D03*
X252211840Y-74159785D03*
X252211840Y-74810025D03*
X252211840Y-75460265D03*
X252211840Y-76110505D03*
X246263160Y-76110505D03*
X246263160Y-75460265D03*
X246263160Y-74810025D03*
X246263160Y-74159785D03*
X246263160Y-73514625D03*
X246263160Y-72864385D03*
X246263160Y-72214145D03*
X246263160Y-71563905D03*
%TD*%
D22*
%TO.C,C66*%
X48898750Y-29368750D03*
X47938750Y-29368750D03*
%TD*%
D28*
%TO.C,D7*%
X100637500Y-26579000D03*
D29*
X100637500Y-28079000D03*
X105737500Y-28079000D03*
X105737500Y-26579000D03*
%TD*%
D25*
%TO.C,C73*%
X52701250Y-44450000D03*
X53661250Y-44450000D03*
%TD*%
D28*
%TO.C,D2*%
X28462500Y-20922500D03*
D29*
X28462500Y-22422500D03*
X33562500Y-22422500D03*
X33562500Y-20922500D03*
%TD*%
D22*
%TO.C,C111*%
X122717500Y-105568750D03*
X121757500Y-105568750D03*
%TD*%
D28*
%TO.C,D47*%
X238750000Y-102779000D03*
D29*
X238750000Y-104279000D03*
X243850000Y-104279000D03*
X243850000Y-102779000D03*
%TD*%
D31*
%TO.C,D43*%
X91450000Y-85229000D03*
D29*
X91450000Y-83729000D03*
X86350000Y-83729000D03*
X86350000Y-85229000D03*
%TD*%
D22*
%TO.C,C42*%
X260830000Y-76993750D03*
X259870000Y-76993750D03*
%TD*%
D31*
%TO.C,D34*%
X262900000Y-85229000D03*
D29*
X262900000Y-83729000D03*
X257800000Y-83729000D03*
X257800000Y-85229000D03*
%TD*%
D22*
%TO.C,C41*%
X241780000Y-76993750D03*
X240820000Y-76993750D03*
%TD*%
D31*
%TO.C,D39*%
X167650000Y-85229000D03*
D29*
X167650000Y-83729000D03*
X162550000Y-83729000D03*
X162550000Y-85229000D03*
%TD*%
D31*
%TO.C,D40*%
X148600000Y-85229000D03*
D29*
X148600000Y-83729000D03*
X143500000Y-83729000D03*
X143500000Y-85229000D03*
%TD*%
D30*
%TO.C,U19*%
X39831250Y-59375000D03*
X39831250Y-61275000D03*
X37956250Y-60325000D03*
%TD*%
D22*
%TO.C,C38*%
X184630000Y-76993750D03*
X183670000Y-76993750D03*
%TD*%
D30*
%TO.C,U10*%
X94600000Y-40325000D03*
X94600000Y-42225000D03*
X92725000Y-41275000D03*
%TD*%
D22*
%TO.C,C67*%
X67948750Y-29368750D03*
X66988750Y-29368750D03*
%TD*%
D30*
%TO.C,U15*%
X189850000Y-40325000D03*
X189850000Y-42225000D03*
X187975000Y-41275000D03*
%TD*%
%TO.C,U51*%
X242237500Y-97475000D03*
X242237500Y-99375000D03*
X240362500Y-98425000D03*
%TD*%
D22*
%TO.C,C124*%
X87792500Y-30956250D03*
X86832500Y-30956250D03*
%TD*%
D32*
%TO.C,SW2*%
X61912500Y-54487500D03*
X61912500Y-50287500D03*
%TD*%
D22*
%TO.C,C6*%
X141767500Y-19843750D03*
X140807500Y-19843750D03*
%TD*%
%TO.C,C117*%
X263211250Y-105568750D03*
X262251250Y-105568750D03*
%TD*%
D31*
%TO.C,D14*%
X172412500Y-47129000D03*
D29*
X172412500Y-45629000D03*
X167312500Y-45629000D03*
X167312500Y-47129000D03*
%TD*%
D30*
%TO.C,U29*%
X232712500Y-59375000D03*
X232712500Y-61275000D03*
X230837500Y-60325000D03*
%TD*%
D52*
%TO.C,R3*%
X57660000Y-57150000D03*
X56640000Y-57150000D03*
%TD*%
D30*
%TO.C,U22*%
X99362500Y-59375000D03*
X99362500Y-61275000D03*
X97487500Y-60325000D03*
%TD*%
D22*
%TO.C,C21*%
X79855000Y-57943750D03*
X78895000Y-57943750D03*
%TD*%
D30*
%TO.C,U48*%
X168418750Y-97475000D03*
X168418750Y-99375000D03*
X166543750Y-98425000D03*
%TD*%
D28*
%TO.C,D28*%
X133975000Y-64679000D03*
D29*
X133975000Y-66179000D03*
X139075000Y-66179000D03*
X139075000Y-64679000D03*
%TD*%
D22*
%TO.C,C31*%
X44136250Y-76993750D03*
X43176250Y-76993750D03*
%TD*%
%TO.C,C90*%
X158436250Y-67468750D03*
X157476250Y-67468750D03*
%TD*%
D30*
%TO.C,U40*%
X223187500Y-78425000D03*
X223187500Y-80325000D03*
X221312500Y-79375000D03*
%TD*%
D22*
%TO.C,C3*%
X65567500Y-19843750D03*
X64607500Y-19843750D03*
%TD*%
D30*
%TO.C,U17*%
X254143750Y-40325000D03*
X254143750Y-42225000D03*
X252268750Y-41275000D03*
%TD*%
D38*
%TO.C,C114*%
X201612500Y-101120000D03*
X201612500Y-102080000D03*
%TD*%
D31*
%TO.C,D15*%
X153362500Y-47129000D03*
D29*
X153362500Y-45629000D03*
X148262500Y-45629000D03*
X148262500Y-47129000D03*
%TD*%
D22*
%TO.C,C122*%
X90540954Y-71437500D03*
X89580954Y-71437500D03*
%TD*%
D30*
%TO.C,U28*%
X213662500Y-59375000D03*
X213662500Y-61275000D03*
X211787500Y-60325000D03*
%TD*%
D22*
%TO.C,C43*%
X39373750Y-96043750D03*
X38413750Y-96043750D03*
%TD*%
D28*
%TO.C,D22*%
X253037500Y-64679000D03*
D29*
X253037500Y-66179000D03*
X258137500Y-66179000D03*
X258137500Y-64679000D03*
%TD*%
D28*
%TO.C,D26*%
X172075000Y-64679000D03*
D29*
X172075000Y-66179000D03*
X177175000Y-66179000D03*
X177175000Y-64679000D03*
%TD*%
D22*
%TO.C,C32*%
X70330000Y-76993750D03*
X69370000Y-76993750D03*
%TD*%
%TO.C,C49*%
X201298750Y-96043750D03*
X200338750Y-96043750D03*
%TD*%
D30*
%TO.C,U1*%
X46975000Y-21275000D03*
X46975000Y-23175000D03*
X45100000Y-22225000D03*
%TD*%
D25*
%TO.C,C74*%
X71751250Y-44450000D03*
X72711250Y-44450000D03*
%TD*%
%TO.C,C55*%
X56670000Y-53481250D03*
X57630000Y-53481250D03*
%TD*%
D22*
%TO.C,C63*%
X33817500Y-18256250D03*
X32857500Y-18256250D03*
%TD*%
D25*
%TO.C,C54*%
X56670000Y-54527711D03*
X57630000Y-54527711D03*
%TD*%
D31*
%TO.C,D41*%
X129550000Y-85229000D03*
D29*
X129550000Y-83729000D03*
X124450000Y-83729000D03*
X124450000Y-85229000D03*
%TD*%
D22*
%TO.C,C86*%
X82236250Y-67468750D03*
X81276250Y-67468750D03*
%TD*%
D30*
%TO.C,U27*%
X194612500Y-59375000D03*
X194612500Y-61275000D03*
X192737500Y-60325000D03*
%TD*%
%TO.C,U37*%
X166037500Y-78425000D03*
X166037500Y-80325000D03*
X164162500Y-79375000D03*
%TD*%
D22*
%TO.C,C44*%
X60805000Y-96043750D03*
X59845000Y-96043750D03*
%TD*%
%TO.C,C110*%
X84617500Y-105568750D03*
X83657500Y-105568750D03*
%TD*%
D30*
%TO.C,U31*%
X44593750Y-78425000D03*
X44593750Y-80325000D03*
X42718750Y-79375000D03*
%TD*%
D27*
%TO.C,U61*%
X99018090Y-71545450D03*
X99018090Y-72195690D03*
X99018090Y-72845930D03*
X99018090Y-73496170D03*
X99018090Y-74141330D03*
X99018090Y-74791570D03*
X99018090Y-75441810D03*
X99018090Y-76092050D03*
X93069410Y-76092050D03*
X93069410Y-75441810D03*
X93069410Y-74791570D03*
X93069410Y-74141330D03*
X93069410Y-73496170D03*
X93069410Y-72845930D03*
X93069410Y-72195690D03*
X93069410Y-71545450D03*
%TD*%
D30*
%TO.C,U42*%
X261287500Y-78425000D03*
X261287500Y-80325000D03*
X259412500Y-79375000D03*
%TD*%
%TO.C,U3*%
X85075000Y-21275000D03*
X85075000Y-23175000D03*
X83200000Y-22225000D03*
%TD*%
D27*
%TO.C,U60*%
X137118090Y-71543435D03*
X137118090Y-72193675D03*
X137118090Y-72843915D03*
X137118090Y-73494155D03*
X137118090Y-74139315D03*
X137118090Y-74789555D03*
X137118090Y-75439795D03*
X137118090Y-76090035D03*
X131169410Y-76090035D03*
X131169410Y-75439795D03*
X131169410Y-74789555D03*
X131169410Y-74139315D03*
X131169410Y-73494155D03*
X131169410Y-72843915D03*
X131169410Y-72193675D03*
X131169410Y-71543435D03*
%TD*%
D25*
%TO.C,C65*%
X32857500Y-30956250D03*
X33817500Y-30956250D03*
%TD*%
D30*
%TO.C,U16*%
X208900000Y-40325000D03*
X208900000Y-42225000D03*
X207025000Y-41275000D03*
%TD*%
D28*
%TO.C,D50*%
X164931250Y-102779000D03*
D29*
X164931250Y-104279000D03*
X170031250Y-104279000D03*
X170031250Y-102779000D03*
%TD*%
D22*
%TO.C,C28*%
X213205000Y-57943750D03*
X212245000Y-57943750D03*
%TD*%
D57*
%TO.C,F1*%
X58337500Y-24793750D03*
X58337500Y-27593750D03*
%TD*%
D28*
%TO.C,D4*%
X43487500Y-26579000D03*
D29*
X43487500Y-28079000D03*
X48587500Y-28079000D03*
X48587500Y-26579000D03*
%TD*%
D22*
%TO.C,C120*%
X167534704Y-71439515D03*
X166574704Y-71439515D03*
%TD*%
D25*
%TO.C,C75*%
X90801250Y-44450000D03*
X91761250Y-44450000D03*
%TD*%
D31*
%TO.C,D20*%
X58112500Y-47129000D03*
D29*
X58112500Y-45629000D03*
X53012500Y-45629000D03*
X53012500Y-47129000D03*
%TD*%
D22*
%TO.C,C9*%
X75092500Y-38893750D03*
X74132500Y-38893750D03*
%TD*%
D30*
%TO.C,U6*%
X142225000Y-21275000D03*
X142225000Y-23175000D03*
X140350000Y-22225000D03*
%TD*%
%TO.C,U9*%
X75550000Y-40325000D03*
X75550000Y-42225000D03*
X73675000Y-41275000D03*
%TD*%
D31*
%TO.C,D38*%
X186700000Y-85229000D03*
D29*
X186700000Y-83729000D03*
X181600000Y-83729000D03*
X181600000Y-85229000D03*
%TD*%
D31*
%TO.C,D44*%
X72400000Y-85229000D03*
D29*
X72400000Y-83729000D03*
X67300000Y-83729000D03*
X67300000Y-85229000D03*
%TD*%
D28*
%TO.C,D54*%
X57775000Y-102779000D03*
D29*
X57775000Y-104279000D03*
X62875000Y-104279000D03*
X62875000Y-102779000D03*
%TD*%
D34*
%TO.C,R1*%
X38073750Y-53181250D03*
X39093750Y-53181250D03*
%TD*%
D22*
%TO.C,C14*%
X170342500Y-38893750D03*
X169382500Y-38893750D03*
%TD*%
D28*
%TO.C,D25*%
X191125000Y-64679000D03*
D29*
X191125000Y-66179000D03*
X196225000Y-66179000D03*
X196225000Y-64679000D03*
%TD*%
D28*
%TO.C,D52*%
X117306250Y-102779000D03*
D29*
X117306250Y-104279000D03*
X122406250Y-104279000D03*
X122406250Y-102779000D03*
%TD*%
D22*
%TO.C,C45*%
X82236250Y-96043750D03*
X81276250Y-96043750D03*
%TD*%
%LPD*%
M02*
