G04 #@! TF.GenerationSoftware,KiCad,Pcbnew,(7.0.0)*
G04 #@! TF.CreationDate,2023-10-27T13:42:42+02:00*
G04 #@! TF.ProjectId,V4N plate,56344e20-706c-4617-9465-2e6b69636164,rev?*
G04 #@! TF.SameCoordinates,Original*
G04 #@! TF.FileFunction,Profile,NP*
%FSLAX46Y46*%
G04 Gerber Fmt 4.6, Leading zero omitted, Abs format (unit mm)*
G04 Created by KiCad (PCBNEW (7.0.0)) date 2023-10-27 13:42:42*
%MOMM*%
%LPD*%
G01*
G04 APERTURE LIST*
G04 #@! TA.AperFunction,Profile*
%ADD10C,0.200000*%
G04 #@! TD*
G04 #@! TA.AperFunction,Profile*
%ADD11C,0.100000*%
G04 #@! TD*
G04 APERTURE END LIST*
D10*
X153337500Y-72381250D02*
X153337917Y-79077354D01*
X153337917Y-79077354D02*
G75*
G03*
X153339199Y-79665089I-1731667J-297646D01*
G01*
D11*
X29368749Y-20168466D02*
X32650571Y-20168466D01*
X32650571Y-20168466D02*
X32650571Y-23176536D01*
X32650571Y-23176536D02*
X29368749Y-23176536D01*
X29368749Y-23176536D02*
X29368749Y-20168466D01*
D10*
X124475000Y-67331250D02*
X110475000Y-67331250D01*
X129237500Y-15231250D02*
X129237500Y-29231250D01*
X88756250Y-91431250D02*
X88756250Y-105431250D01*
X205725000Y-67331250D02*
X205725000Y-53331250D01*
X167337500Y-72381250D02*
X166274524Y-72381250D01*
X273632464Y-104055011D02*
G75*
G03*
X273842447Y-103169854I-97064J490511D01*
G01*
X25487500Y-102606250D02*
X24662500Y-102606250D01*
X234012500Y-34281250D02*
X234012500Y-48281250D01*
X25487500Y-31756250D02*
G75*
G03*
X26987500Y-30256250I0J1500000D01*
G01*
X157812500Y-34281250D02*
X157812500Y-48281250D01*
X110475000Y-67331250D02*
X110475000Y-53331250D01*
X207818750Y-105431250D02*
X207818750Y-99607592D01*
X273842441Y-32319862D02*
G75*
G03*
X272200000Y-31756250I-1642441J-2111338D01*
G01*
X220012500Y-48281250D02*
X220012500Y-34281250D01*
X264968750Y-76856250D02*
X264968750Y-72381250D01*
X175919250Y-90431250D02*
X182919250Y-90431250D01*
X264968750Y-86381250D02*
X264968750Y-85294250D01*
X210487500Y-86381250D02*
X224487500Y-86381250D01*
X250968750Y-72381250D02*
X250968750Y-76856250D01*
X124762500Y-48281250D02*
X133499223Y-48281250D01*
X273842443Y-107392640D02*
G75*
G03*
X273632463Y-106507495I-307043J394640D01*
G01*
X264968750Y-72381250D02*
X264968750Y-62856250D01*
X181625000Y-67331250D02*
X167625000Y-67331250D01*
X146188843Y-98130496D02*
X146193750Y-91431250D01*
X29662500Y-12706250D02*
G75*
G03*
X26987500Y-15381250I0J-2675000D01*
G01*
X184686172Y-72371568D02*
X172387500Y-72381250D01*
X124475000Y-53331250D02*
X124475000Y-67331250D01*
X67325000Y-91431250D02*
X67325000Y-105431250D01*
X100662500Y-48281250D02*
X86662500Y-48281250D01*
X148287500Y-15231250D02*
X148287500Y-29231250D01*
X199693750Y-90431250D02*
X206693750Y-90431250D01*
X229250000Y-91431250D02*
X229250000Y-105431250D01*
X162862500Y-48281250D02*
X162862500Y-34281250D01*
X182919250Y-90431250D02*
X182919250Y-105431250D01*
X174481250Y-91431250D02*
X174481250Y-105431250D01*
X146193750Y-105431250D02*
X146197378Y-98664144D01*
X72375000Y-67331250D02*
X72375000Y-53331250D01*
X110187500Y-86381250D02*
X110187500Y-72381250D01*
X31893750Y-105431250D02*
X31893750Y-91431250D01*
X190662500Y-93662500D02*
G75*
G03*
X190662500Y-93662500I-1750000J0D01*
G01*
X269243750Y-74612500D02*
G75*
G03*
X269243750Y-74612500I-1750000J0D01*
G01*
X220012500Y-34281250D02*
X234012500Y-34281250D01*
X45893750Y-91431250D02*
X45893750Y-105431250D01*
X34275000Y-72381250D02*
X34275000Y-86381250D01*
X134287500Y-72381250D02*
X134287500Y-86381250D01*
X166274524Y-72381249D02*
G75*
G03*
X163875066Y-72381249I-1199729J2474499D01*
G01*
X260206250Y-34281250D02*
X260206250Y-48281250D01*
X200675000Y-67331250D02*
X186675000Y-67331250D01*
X238775000Y-67331250D02*
X224775000Y-67331250D01*
X224775000Y-67331250D02*
X224775000Y-53331250D01*
X234300000Y-91431250D02*
X248300000Y-91431250D01*
X186675000Y-53331250D02*
X200675000Y-53331250D01*
X206693750Y-91431250D02*
X207818750Y-91431250D01*
X224487500Y-86381250D02*
X224487500Y-72381250D01*
X157812500Y-48281250D02*
X143812500Y-48281250D01*
X172387500Y-72381250D02*
X172387500Y-86381250D01*
X48275000Y-72381250D02*
X34275000Y-72381250D01*
X129237500Y-72381250D02*
X115237500Y-72381250D01*
X273842443Y-36542640D02*
G75*
G03*
X273632463Y-35657495I-307043J394640D01*
G01*
X272200000Y-31756250D02*
X154487500Y-31756250D01*
X115237500Y-29231250D02*
X115237500Y-15231250D01*
X23020059Y-107392638D02*
G75*
G03*
X24662500Y-107956250I1642441J2111338D01*
G01*
X25487500Y-31756250D02*
X24662500Y-31756250D01*
X167625000Y-53331250D02*
X181625000Y-53331250D01*
X234300000Y-105431250D02*
X234300000Y-91431250D01*
X163875066Y-72381250D02*
X153337500Y-72381250D01*
X271375000Y-37106300D02*
G75*
G03*
X269875000Y-38606250I0J-1500000D01*
G01*
X24662500Y-37106250D02*
X25487500Y-37106250D01*
X110187500Y-15231250D02*
X110187500Y-29231250D01*
X214962500Y-34281250D02*
X214962500Y-48281250D01*
X135675780Y-48281250D02*
X138762500Y-48281250D01*
X91137500Y-86381250D02*
X91137500Y-72381250D01*
X91135248Y-24880492D02*
G75*
G03*
X96185253Y-24882807I2525502J1088282D01*
G01*
X176862500Y-48281250D02*
X162862500Y-48281250D01*
X111418250Y-105431250D02*
X99693750Y-105431250D01*
X143525000Y-53331250D02*
X135678098Y-53331250D01*
X53037500Y-15231250D02*
X53037500Y-29231250D01*
X96187500Y-15231250D02*
X96171559Y-22699851D01*
X77137500Y-72381250D02*
X77137500Y-86381250D01*
X148287500Y-29231250D02*
X134287500Y-29231250D01*
X24662500Y-31756240D02*
G75*
G03*
X23020053Y-32319854I0J-2674960D01*
G01*
X31893750Y-53331250D02*
X45893750Y-53331250D01*
X146188842Y-98130496D02*
G75*
G03*
X146197377Y-98664144I-1726342J-294504D01*
G01*
X260206250Y-48281250D02*
X246206250Y-48281250D01*
X129525000Y-53331250D02*
X129525000Y-67331250D01*
X269875000Y-101106250D02*
X269875000Y-38606250D01*
X214962500Y-48281250D02*
X200962500Y-48281250D01*
X67612500Y-48281250D02*
X67612500Y-34281250D01*
X246206250Y-48281250D02*
X246206250Y-34281250D01*
X74756250Y-105431250D02*
X74756250Y-91431250D01*
X77137500Y-86381250D02*
X91137500Y-86381250D01*
X96187500Y-72381250D02*
X96187500Y-86381250D01*
X34275000Y-86381250D02*
X48275000Y-86381250D01*
X273842441Y-103169862D02*
G75*
G03*
X272200000Y-102606250I-1642441J-2111338D01*
G01*
X43512500Y-34281250D02*
X43512500Y-48281250D01*
X100662500Y-34281250D02*
X100662500Y-48281250D01*
X150812450Y-15381250D02*
G75*
G03*
X148137500Y-12706250I-2674950J50D01*
G01*
X91137500Y-29231250D02*
X77137500Y-29231250D01*
X224487500Y-72381250D02*
X210487500Y-72381250D01*
X39037500Y-29231250D02*
X39038746Y-22676493D01*
X74756250Y-91431250D02*
X88756250Y-91431250D01*
X148575000Y-53331250D02*
X162575000Y-53331250D01*
X96171560Y-22699851D02*
G75*
G03*
X91121560Y-22702169I-2524500J-1090599D01*
G01*
X253350000Y-105431250D02*
X253350000Y-91431250D01*
X72087500Y-15231250D02*
X72087500Y-29231250D01*
X186387500Y-72381250D02*
X185156467Y-72377663D01*
X105712500Y-48281250D02*
X105712500Y-34281250D01*
X126856250Y-91431250D02*
X126856250Y-105431250D01*
X238775000Y-53331250D02*
X238775000Y-67331250D01*
X48562500Y-48281250D02*
X48562500Y-34281250D01*
X105712500Y-34281250D02*
X119712500Y-34281250D01*
X152043250Y-90431250D02*
X159043250Y-90431250D01*
X77137500Y-29231250D02*
X77137500Y-15231250D01*
X119712500Y-48281250D02*
X105712500Y-48281250D01*
X31893750Y-67331250D02*
X31893750Y-53331250D01*
X86375000Y-67331250D02*
X72375000Y-67331250D01*
X191437500Y-72381250D02*
X191437500Y-86381250D01*
X39039239Y-21775404D02*
X39037500Y-15231250D01*
X98587500Y-98425000D02*
G75*
G03*
X98587500Y-98425000I-1750000J0D01*
G01*
X253350000Y-91431250D02*
X267350000Y-91431250D01*
X126856250Y-105431250D02*
X112856250Y-105431250D01*
X148575000Y-67331250D02*
X148575000Y-53331250D01*
X143812500Y-34281250D02*
X157812500Y-34281250D01*
X81612500Y-48281250D02*
X67612500Y-48281250D01*
X53325000Y-105431250D02*
X53325000Y-91431250D01*
X112856250Y-105431250D02*
X112856250Y-91431250D01*
X53325000Y-67331250D02*
X53325000Y-53331250D01*
X124762500Y-48281250D02*
X124762500Y-34281250D01*
X264968750Y-62856250D02*
X262587500Y-62856250D01*
X248300000Y-91431250D02*
X248300000Y-105431250D01*
X24662500Y-102606240D02*
G75*
G03*
X23020053Y-103169854I0J-2674960D01*
G01*
X265968750Y-78294250D02*
X264968750Y-78294250D01*
X229537500Y-86381250D02*
X243537500Y-86381250D01*
X246206250Y-34281250D02*
X260206250Y-34281250D01*
X150812500Y-28081250D02*
X150812500Y-15381250D01*
X134287500Y-29231250D02*
X134287500Y-15231250D01*
X152043250Y-91431250D02*
X152043250Y-90431250D01*
X72087500Y-29231250D02*
X58087500Y-29231250D01*
X264968750Y-78294250D02*
X264968750Y-76856250D01*
X111418250Y-90431250D02*
X111418250Y-105431250D01*
X99693750Y-90431250D02*
X111418250Y-90431250D01*
X110187500Y-72381250D02*
X96187500Y-72381250D01*
X250968750Y-76856250D02*
X250971229Y-78262205D01*
X96185253Y-24882807D02*
X96187500Y-29231250D01*
X219725000Y-67331250D02*
X205725000Y-67331250D01*
X91425000Y-67331250D02*
X91425000Y-53331250D01*
X23230037Y-106507495D02*
G75*
G03*
X23230037Y-104055005I-242537J1226245D01*
G01*
X205437500Y-86381250D02*
X205437500Y-72381250D01*
X23230037Y-35657495D02*
G75*
G03*
X23230037Y-33205005I-242537J1226245D01*
G01*
X85887500Y-41275000D02*
G75*
G03*
X85887500Y-41275000I-1750000J0D01*
G01*
X264968750Y-85294250D02*
X265968750Y-85294250D01*
X206693750Y-91431250D02*
X206693750Y-90431250D01*
X265968750Y-85294250D02*
X265968750Y-78294250D01*
X53325000Y-91431250D02*
X67325000Y-91431250D01*
X243537500Y-86381250D02*
X243537500Y-72381250D01*
X23020057Y-32319860D02*
G75*
G03*
X23230037Y-33205005I307043J-394640D01*
G01*
X135294250Y-90431250D02*
X135294250Y-105431250D01*
X215250000Y-105431250D02*
X215250000Y-91431250D01*
X99693750Y-105431250D02*
X99693750Y-90431250D01*
X23020059Y-36542638D02*
G75*
G03*
X24662500Y-37106250I1642441J2111338D01*
G01*
X205437500Y-72381250D02*
X191437500Y-72381250D01*
X67325000Y-67331250D02*
X53325000Y-67331250D01*
X248443750Y-85256250D02*
X250971229Y-85262205D01*
X112856250Y-91431250D02*
X126856250Y-91431250D01*
X58083333Y-83177579D02*
G75*
G03*
X59341662Y-86383916I-1368163J-2387021D01*
G01*
X128294250Y-90431250D02*
X135294250Y-90431250D01*
X129237500Y-86381250D02*
X129237500Y-72381250D01*
X153339199Y-79665089D02*
X153337500Y-86381250D01*
X162575000Y-67331250D02*
X148575000Y-67331250D01*
X262587500Y-62856250D02*
X262587500Y-61418250D01*
X108485258Y-70217525D02*
G75*
G03*
X108485258Y-70217525I-1750000J0D01*
G01*
X207818706Y-99607660D02*
G75*
G03*
X207818751Y-95005711I1506094J2300960D01*
G01*
X265968750Y-61418250D02*
X265968750Y-54418250D01*
X24662500Y-107956250D02*
X272200000Y-107956250D01*
X162862500Y-34281250D02*
X176862500Y-34281250D01*
X67325000Y-53331250D02*
X67325000Y-67331250D01*
X59478098Y-53331249D02*
G75*
G03*
X59475780Y-48281251I-1090598J2524499D01*
G01*
X96187500Y-86381250D02*
X110187500Y-86381250D01*
X272200000Y-37106260D02*
G75*
G03*
X273842447Y-36542646I0J2674960D01*
G01*
X162575000Y-53331250D02*
X162575000Y-67331250D01*
X146193750Y-91431250D02*
X152043250Y-91431250D01*
X159043250Y-90431250D02*
X159043250Y-91431250D01*
X185156467Y-72377662D02*
G75*
G03*
X184686172Y-72371567I-212717J1733912D01*
G01*
X148287500Y-72381250D02*
X134287500Y-72381250D01*
X199693750Y-91431250D02*
X193818750Y-91431250D01*
X143812500Y-48281250D02*
X143812500Y-34281250D01*
X23230044Y-35657530D02*
G75*
G03*
X23020054Y-36542645I96956J-490470D01*
G01*
X29512500Y-34281250D02*
X43512500Y-34281250D01*
X138762500Y-34281250D02*
X138762500Y-48281250D01*
X153337500Y-86381250D02*
X167337500Y-86381250D01*
X88756250Y-105431250D02*
X74756250Y-105431250D01*
X110475000Y-53331250D02*
X124475000Y-53331250D01*
X59341663Y-86383916D02*
X72087500Y-86381250D01*
X134287500Y-86381250D02*
X148287500Y-86381250D01*
D11*
X29374428Y-25800966D02*
X32650572Y-25800966D01*
X32650572Y-25800966D02*
X32650572Y-28809036D01*
X32650572Y-28809036D02*
X29374428Y-28809036D01*
X29374428Y-28809036D02*
X29374428Y-25800966D01*
D10*
X135294250Y-105431250D02*
X128294250Y-105431250D01*
X190662500Y-50800000D02*
G75*
G03*
X190662500Y-50800000I-1750000J0D01*
G01*
X248587500Y-67331250D02*
X250968750Y-67331250D01*
X186387500Y-86381250D02*
X186387500Y-72381250D01*
X72087500Y-86381250D02*
X72087500Y-72381250D01*
X210487500Y-72381250D02*
X210487500Y-86381250D01*
X195912500Y-48281250D02*
X181912500Y-48281250D01*
X248443750Y-78256250D02*
X248443750Y-85256250D01*
X86375000Y-53331250D02*
X86375000Y-67331250D01*
X224775000Y-53331250D02*
X238775000Y-53331250D01*
X193818750Y-105431250D02*
X207818750Y-105431250D01*
X96187500Y-15231250D02*
X110187500Y-15231250D01*
X229250000Y-105431250D02*
X215250000Y-105431250D01*
X250971229Y-85262205D02*
X250968750Y-86381250D01*
X43512500Y-48281250D02*
X29512500Y-48281250D01*
X124762500Y-34281250D02*
X138762500Y-34281250D01*
X134287500Y-15231250D02*
X148287500Y-15231250D01*
X57296906Y-53331250D02*
X53325000Y-53331250D01*
X133499223Y-48281250D02*
G75*
G03*
X133496906Y-53331250I1088277J-2525500D01*
G01*
X182919250Y-105431250D02*
X175919250Y-105431250D01*
X25487500Y-102606250D02*
G75*
G03*
X26987500Y-101106250I0J1500000D01*
G01*
X252575000Y-93662500D02*
G75*
G03*
X252575000Y-93662500I-1750000J0D01*
G01*
X234012500Y-48281250D02*
X220012500Y-48281250D01*
X67325000Y-53331250D02*
X59478098Y-53331250D01*
X133512500Y-22225000D02*
G75*
G03*
X133512500Y-22225000I-1750000J0D01*
G01*
X72087500Y-72381250D02*
X58087500Y-72381250D01*
X240335488Y-48687944D02*
G75*
G03*
X240335488Y-48687944I-2750000J0D01*
G01*
X45893750Y-67331250D02*
X31893750Y-67331250D01*
X267350000Y-91431250D02*
X267350000Y-105431250D01*
X248300000Y-105431250D02*
X234300000Y-105431250D01*
X148137500Y-12706250D02*
X29662500Y-12706250D01*
X269874950Y-101106250D02*
G75*
G03*
X271375000Y-102606250I1500050J50D01*
G01*
X200962500Y-34281250D02*
X214962500Y-34281250D01*
X26987550Y-38606250D02*
G75*
G03*
X25487500Y-37106250I-1500050J-50D01*
G01*
X115237500Y-72381250D02*
X115237500Y-86381250D01*
X262587500Y-53331250D02*
X248587500Y-53331250D01*
X26987500Y-15381250D02*
X26987500Y-30256250D01*
X23230044Y-106507530D02*
G75*
G03*
X23020054Y-107392645I96956J-490470D01*
G01*
X273632444Y-104054909D02*
G75*
G03*
X273632463Y-106507495I242556J-1226291D01*
G01*
X58087500Y-72381250D02*
X58083332Y-83177581D01*
X181625000Y-53331250D02*
X181625000Y-67331250D01*
X207818750Y-95005710D02*
X207818750Y-91431250D01*
D11*
X227832938Y-72523707D02*
G75*
G03*
X227832938Y-72523707I-1614188J0D01*
G01*
D10*
X23020057Y-103169860D02*
G75*
G03*
X23230037Y-104055005I307043J-394640D01*
G01*
X215250000Y-91431250D02*
X229250000Y-91431250D01*
X31893750Y-91431250D02*
X45893750Y-91431250D01*
X58087500Y-29231250D02*
X58087500Y-15231250D01*
X128294250Y-105431250D02*
X128294250Y-90431250D01*
X48562500Y-34281250D02*
X62562500Y-34281250D01*
X167337500Y-86381250D02*
X167337500Y-72381250D01*
X200675000Y-53331250D02*
X200675000Y-67331250D01*
X58087500Y-15231250D02*
X72087500Y-15231250D01*
X143037500Y-41275000D02*
G75*
G03*
X143037500Y-41275000I-1750000J0D01*
G01*
X248587500Y-53331250D02*
X248587500Y-67331250D01*
X243537500Y-72381250D02*
X229537500Y-72381250D01*
X39039238Y-21775404D02*
G75*
G03*
X39038745Y-22676493I-1732988J-449596D01*
G01*
X115237500Y-15231250D02*
X129237500Y-15231250D01*
X91137500Y-29231250D02*
X91135253Y-24880490D01*
X186675000Y-67331250D02*
X186675000Y-53331250D01*
X110187500Y-29231250D02*
X96187500Y-29231250D01*
X265968750Y-54418250D02*
X262587500Y-54418250D01*
X248443750Y-78256250D02*
X250971229Y-78262205D01*
X91121559Y-22702169D02*
X91137500Y-15231250D01*
X135678098Y-53331249D02*
G75*
G03*
X135675780Y-48281251I-1090598J2524499D01*
G01*
X193818750Y-105431250D02*
X193818750Y-91431250D01*
X105425000Y-53331250D02*
X105425000Y-67331250D01*
X81612500Y-34281250D02*
X81612500Y-48281250D01*
X57299223Y-48281250D02*
G75*
G03*
X57296906Y-53331250I1088277J-2525500D01*
G01*
X191437500Y-86381250D02*
X205437500Y-86381250D01*
X271375000Y-37106250D02*
X272200000Y-37106250D01*
X86662500Y-48281250D02*
X86662500Y-34281250D01*
X119712500Y-34281250D02*
X119712500Y-48281250D01*
X250968750Y-86381250D02*
X264968750Y-86381250D01*
X262587500Y-54418250D02*
X262587500Y-53331250D01*
X181912500Y-34281250D02*
X195912500Y-34281250D01*
X59475780Y-48281250D02*
X62562500Y-48281250D01*
X195912500Y-34281250D02*
X195912500Y-48281250D01*
X176862500Y-34281250D02*
X176862500Y-48281250D01*
X91425000Y-53331250D02*
X105425000Y-53331250D01*
X200962500Y-48281250D02*
X200962500Y-34281250D01*
X159043250Y-91431250D02*
X174481250Y-91431250D01*
X91137500Y-72381250D02*
X77137500Y-72381250D01*
X273632464Y-33205011D02*
G75*
G03*
X273842447Y-32319854I-97064J490511D01*
G01*
X67325000Y-105431250D02*
X53325000Y-105431250D01*
X250968750Y-67331250D02*
X250968750Y-72381250D01*
X86662500Y-34281250D02*
X100662500Y-34281250D01*
X39037500Y-15231250D02*
X53037500Y-15231250D01*
X48562500Y-48281250D02*
X57299223Y-48281250D01*
X133496906Y-53331250D02*
X129525000Y-53331250D01*
X53037500Y-29231250D02*
X39037500Y-29231250D01*
X67612500Y-34281250D02*
X81612500Y-34281250D01*
X129237500Y-29231250D02*
X115237500Y-29231250D01*
X272200000Y-107956260D02*
G75*
G03*
X273842447Y-107392646I0J2674960D01*
G01*
X167625000Y-67331250D02*
X167625000Y-53331250D01*
X181912500Y-48281250D02*
X181912500Y-34281250D01*
X48275000Y-86381250D02*
X48275000Y-72381250D01*
X199693750Y-90431250D02*
X199693750Y-91431250D01*
X72375000Y-53331250D02*
X86375000Y-53331250D01*
X205725000Y-53331250D02*
X219725000Y-53331250D01*
X45893750Y-105431250D02*
X31893750Y-105431250D01*
X143525000Y-53331250D02*
X143525000Y-67331250D01*
X229537500Y-72381250D02*
X229537500Y-86381250D01*
X172387500Y-86381250D02*
X186387500Y-86381250D01*
X243843750Y-42068750D02*
G75*
G03*
X243843750Y-42068750I-1750000J0D01*
G01*
X219725000Y-53331250D02*
X219725000Y-67331250D01*
X77137500Y-15231250D02*
X91137500Y-15231250D01*
X267350000Y-105431250D02*
X253350000Y-105431250D01*
D11*
X29374428Y-14535966D02*
X32650569Y-14535966D01*
X32650569Y-14535966D02*
X32650569Y-17544036D01*
X32650569Y-17544036D02*
X29374428Y-17544036D01*
X29374428Y-17544036D02*
X29374428Y-14535966D01*
D10*
X262587500Y-61418250D02*
X265968750Y-61418250D01*
X29512500Y-48281250D02*
X29512500Y-34281250D01*
X62562500Y-34281250D02*
X62562500Y-48281250D01*
X150812450Y-28081250D02*
G75*
G03*
X154487500Y-31756250I3675050J50D01*
G01*
X174481250Y-105431250D02*
X146193750Y-105431250D01*
X52550000Y-93662500D02*
G75*
G03*
X52550000Y-93662500I-1750000J0D01*
G01*
X115237500Y-86381250D02*
X129237500Y-86381250D01*
X148287500Y-86381250D02*
X148287500Y-72381250D01*
X45893750Y-53331250D02*
X45893750Y-67331250D01*
X143525000Y-67331250D02*
X129525000Y-67331250D01*
X105425000Y-67331250D02*
X91425000Y-67331250D01*
X273632444Y-33204909D02*
G75*
G03*
X273632463Y-35657495I242556J-1226291D01*
G01*
X26987500Y-38606250D02*
X26987500Y-101106250D01*
X272200000Y-102606250D02*
X271375000Y-102606250D01*
X175919250Y-105431250D02*
X175919250Y-90431250D01*
M02*
