M48
; DRILL file {KiCad (7.0.0)} date Fri Oct 27 13:42:44 2023
; FORMAT={-:-/ absolute / inch / decimal}
; #@! TF.CreationDate,2023-10-27T13:42:44+02:00
; #@! TF.GenerationSoftware,Kicad,Pcbnew,(7.0.0)
; #@! TF.FileFunction,NonPlated,1,2,NPTH
FMAT,2
INCH
; #@! TA.AperFunction,NonPlated,NPTH,ComponentDrill
T1C0.0197
%
G90
G05
T1
X1.0605Y-1.2284
X1.0605Y-1.2563
X1.0605Y-1.2855
X1.0605Y-1.3146
X1.0605Y-1.3438
X1.0605Y-1.3729
X1.0605Y-1.3729
X1.0605Y-1.402
X1.0605Y-1.43
X1.0605Y-1.461
X1.0605Y-1.4921
X1.0605Y-4.0209
X1.0605Y-4.05
X1.0605Y-4.0792
X1.0605Y-4.1083
X1.0605Y-4.1375
X1.0605Y-4.1375
X1.0605Y-4.1666
X1.0605Y-4.1946
X1.0605Y-4.2256
X1.0605Y-4.2566
X10.623Y-1.2673
X10.623Y-1.2953
X10.623Y-1.3244
X10.623Y-1.3536
X10.623Y-1.3827
X10.623Y-1.4119
X10.623Y-1.4119
X10.623Y-1.441
X10.623Y-1.469
X10.623Y-1.5
X10.623Y-4.0085
X10.623Y-4.0376
X10.623Y-4.0667
X10.623Y-4.0959
X10.623Y-4.125
X10.623Y-4.125
X10.623Y-4.1541
X10.623Y-4.1821
X10.623Y-4.2131
X10.623Y-4.2442
T0
M30
