G04 #@! TF.GenerationSoftware,KiCad,Pcbnew,(7.0.0)*
G04 #@! TF.CreationDate,2023-10-27T13:42:42+02:00*
G04 #@! TF.ProjectId,V4N plate,56344e20-706c-4617-9465-2e6b69636164,rev?*
G04 #@! TF.SameCoordinates,Original*
G04 #@! TF.FileFunction,Legend,Top*
G04 #@! TF.FilePolarity,Positive*
%FSLAX46Y46*%
G04 Gerber Fmt 4.6, Leading zero omitted, Abs format (unit mm)*
G04 Created by KiCad (PCBNEW (7.0.0)) date 2023-10-27 13:42:42*
%MOMM*%
%LPD*%
G01*
G04 APERTURE LIST*
%ADD10C,0.500000*%
%ADD11C,0.200000*%
G04 APERTURE END LIST*
D10*
G36*
X29016614Y-85477612D02*
G01*
X29021407Y-85497060D01*
X29026581Y-85516384D01*
X29032589Y-85536329D01*
X29034688Y-85542580D01*
X29042328Y-85561748D01*
X29051976Y-85579303D01*
X29053251Y-85581171D01*
X29066638Y-85595754D01*
X29077186Y-85603153D01*
X29095323Y-85612198D01*
X29109915Y-85618784D01*
X30076628Y-86007619D01*
X30095032Y-86016587D01*
X30112387Y-86028227D01*
X30128692Y-86042538D01*
X30131827Y-86045721D01*
X30145218Y-86060627D01*
X30157913Y-86076770D01*
X30169913Y-86094149D01*
X30176279Y-86104339D01*
X30186729Y-86123097D01*
X30196097Y-86142550D01*
X30204383Y-86162698D01*
X30208519Y-86174192D01*
X30215552Y-86194530D01*
X30221811Y-86214326D01*
X30227298Y-86233582D01*
X30230013Y-86244046D01*
X29109915Y-86729112D01*
X29090346Y-86738789D01*
X29073404Y-86750785D01*
X29059090Y-86765099D01*
X29052274Y-86774053D01*
X29042351Y-86791058D01*
X29034220Y-86809795D01*
X29027660Y-86828720D01*
X29021478Y-86850290D01*
X29016614Y-86870285D01*
X28916963Y-86870285D01*
X28916963Y-86247954D01*
X29016614Y-86247954D01*
X29019653Y-86270387D01*
X29022785Y-86290670D01*
X29026479Y-86311216D01*
X29030781Y-86330974D01*
X29031269Y-86332950D01*
X29036653Y-86352203D01*
X29044506Y-86371197D01*
X29048854Y-86378379D01*
X29064211Y-86390872D01*
X29073767Y-86392546D01*
X29093345Y-86389101D01*
X29109915Y-86382776D01*
X29797703Y-86087242D01*
X29109915Y-85809782D01*
X29090986Y-85803432D01*
X29075232Y-85800989D01*
X29055724Y-85806393D01*
X29050320Y-85811248D01*
X29039707Y-85828283D01*
X29033195Y-85846739D01*
X29032734Y-85848372D01*
X29027303Y-85868654D01*
X29022774Y-85888940D01*
X29018683Y-85909761D01*
X29016614Y-85921157D01*
X28916963Y-85921157D01*
X28916963Y-85477612D01*
X29016614Y-85477612D01*
G37*
G36*
X29553269Y-84080444D02*
G01*
X29575900Y-84081611D01*
X29598393Y-84083558D01*
X29620749Y-84086282D01*
X29642967Y-84089786D01*
X29665048Y-84094068D01*
X29686992Y-84099128D01*
X29708798Y-84104967D01*
X29730276Y-84111394D01*
X29751480Y-84118461D01*
X29772408Y-84126170D01*
X29793062Y-84134520D01*
X29813441Y-84143512D01*
X29833545Y-84153144D01*
X29853375Y-84163417D01*
X29872930Y-84174332D01*
X29892049Y-84185720D01*
X29910818Y-84197657D01*
X29929235Y-84210144D01*
X29947301Y-84223181D01*
X29965017Y-84236767D01*
X29982381Y-84250902D01*
X29999394Y-84265587D01*
X30016056Y-84280822D01*
X30032260Y-84296423D01*
X30047899Y-84312451D01*
X30062973Y-84328907D01*
X30077483Y-84345790D01*
X30091428Y-84363101D01*
X30104808Y-84380839D01*
X30117623Y-84399005D01*
X30129873Y-84417598D01*
X30141391Y-84436458D01*
X30152252Y-84455669D01*
X30162457Y-84475232D01*
X30172005Y-84495145D01*
X30180897Y-84515409D01*
X30189132Y-84536025D01*
X30196712Y-84556992D01*
X30203634Y-84578310D01*
X30209817Y-84599765D01*
X30215175Y-84621388D01*
X30219709Y-84643179D01*
X30223418Y-84665138D01*
X30226303Y-84687265D01*
X30228364Y-84709560D01*
X30229600Y-84732022D01*
X30230013Y-84754653D01*
X30229583Y-84780983D01*
X30228295Y-84806848D01*
X30226149Y-84832251D01*
X30223143Y-84857189D01*
X30219279Y-84881664D01*
X30214557Y-84905675D01*
X30208975Y-84929223D01*
X30202535Y-84952307D01*
X30195237Y-84974927D01*
X30187079Y-84997083D01*
X30181164Y-85011596D01*
X30171683Y-85032911D01*
X30161558Y-85053625D01*
X30150789Y-85073738D01*
X30139376Y-85093250D01*
X30127318Y-85112161D01*
X30114617Y-85130470D01*
X30101272Y-85148179D01*
X30087283Y-85165286D01*
X30072650Y-85181793D01*
X30057373Y-85197698D01*
X30046830Y-85207968D01*
X30030514Y-85222854D01*
X30013623Y-85237105D01*
X29996156Y-85250721D01*
X29978114Y-85263701D01*
X29959497Y-85276046D01*
X29940304Y-85287755D01*
X29920536Y-85298829D01*
X29900193Y-85309267D01*
X29879275Y-85319071D01*
X29857781Y-85328238D01*
X29843132Y-85333997D01*
X29820787Y-85341941D01*
X29798081Y-85349104D01*
X29775014Y-85355485D01*
X29751587Y-85361085D01*
X29727799Y-85365904D01*
X29703650Y-85369941D01*
X29679141Y-85373197D01*
X29654271Y-85375671D01*
X29629041Y-85377364D01*
X29603450Y-85378276D01*
X29586188Y-85378449D01*
X29561074Y-85378011D01*
X29536105Y-85376698D01*
X29511283Y-85374508D01*
X29486606Y-85371443D01*
X29462075Y-85367501D01*
X29437691Y-85362684D01*
X29413452Y-85356991D01*
X29389359Y-85350422D01*
X29365412Y-85342978D01*
X29341612Y-85334657D01*
X29325826Y-85328624D01*
X29302357Y-85318842D01*
X29279395Y-85308365D01*
X29256939Y-85297192D01*
X29234990Y-85285324D01*
X29213548Y-85272760D01*
X29192612Y-85259501D01*
X29172183Y-85245546D01*
X29152260Y-85230896D01*
X29132845Y-85215550D01*
X29113935Y-85199509D01*
X29101611Y-85188428D01*
X29083632Y-85171188D01*
X29066331Y-85153355D01*
X29049709Y-85134929D01*
X29033765Y-85115911D01*
X29018499Y-85096301D01*
X29003912Y-85076098D01*
X28990003Y-85055302D01*
X28976772Y-85033914D01*
X28964220Y-85011934D01*
X28952346Y-84989361D01*
X28944807Y-84973983D01*
X28934244Y-84950417D01*
X28924720Y-84926430D01*
X28916235Y-84902023D01*
X28908789Y-84877194D01*
X28902381Y-84851945D01*
X28897013Y-84826275D01*
X28892684Y-84800185D01*
X28889394Y-84773673D01*
X28887143Y-84746741D01*
X28886888Y-84740975D01*
X29073278Y-84740975D01*
X29073859Y-84761889D01*
X29075599Y-84781886D01*
X29079406Y-84805595D01*
X29085025Y-84827872D01*
X29092457Y-84848719D01*
X29101702Y-84868134D01*
X29110403Y-84882636D01*
X29122709Y-84899631D01*
X29136421Y-84915504D01*
X29151541Y-84930256D01*
X29168068Y-84943888D01*
X29186002Y-84956398D01*
X29205343Y-84967787D01*
X29213474Y-84972029D01*
X29234525Y-84981920D01*
X29256770Y-84990834D01*
X29275424Y-84997261D01*
X29294841Y-85003061D01*
X29315022Y-85008236D01*
X29335965Y-85012785D01*
X29357673Y-85016708D01*
X29368812Y-85018435D01*
X29391504Y-85021412D01*
X29414638Y-85023992D01*
X29438215Y-85026175D01*
X29462235Y-85027961D01*
X29486698Y-85029350D01*
X29511603Y-85030342D01*
X29536951Y-85030937D01*
X29562741Y-85031136D01*
X29582592Y-85030913D01*
X29602211Y-85030243D01*
X29628009Y-85028655D01*
X29653395Y-85026274D01*
X29678369Y-85023099D01*
X29702931Y-85019130D01*
X29727080Y-85014367D01*
X29750818Y-85008811D01*
X29762532Y-85005735D01*
X29785483Y-84999110D01*
X29807686Y-84991935D01*
X29829141Y-84984211D01*
X29849849Y-84975937D01*
X29869808Y-84967114D01*
X29889019Y-84957741D01*
X29907482Y-84947819D01*
X29925198Y-84937347D01*
X29941966Y-84926264D01*
X29957834Y-84914754D01*
X29976403Y-84899766D01*
X29993565Y-84884109D01*
X30009319Y-84867785D01*
X30023666Y-84850793D01*
X30034130Y-84836719D01*
X30045529Y-84818715D01*
X30054995Y-84800426D01*
X30062530Y-84781850D01*
X30068133Y-84762988D01*
X30072306Y-84739976D01*
X30073697Y-84716551D01*
X30073216Y-84696348D01*
X30071263Y-84672317D01*
X30067807Y-84649646D01*
X30062848Y-84628334D01*
X30056386Y-84608382D01*
X30048422Y-84589790D01*
X30042923Y-84579287D01*
X30032461Y-84562550D01*
X30020616Y-84546839D01*
X30007388Y-84532153D01*
X29992776Y-84518493D01*
X29976781Y-84505859D01*
X29959403Y-84494250D01*
X29952064Y-84489894D01*
X29932785Y-84479556D01*
X29912193Y-84470221D01*
X29890290Y-84461887D01*
X29867075Y-84454555D01*
X29847559Y-84449410D01*
X29827203Y-84444907D01*
X29806007Y-84441045D01*
X29783987Y-84437611D01*
X29761158Y-84434634D01*
X29737520Y-84432115D01*
X29713073Y-84430054D01*
X29687816Y-84428451D01*
X29661751Y-84427307D01*
X29641671Y-84426748D01*
X29621136Y-84426448D01*
X29607193Y-84426391D01*
X29587312Y-84426592D01*
X29567603Y-84427198D01*
X29548066Y-84428207D01*
X29522283Y-84430180D01*
X29496805Y-84432870D01*
X29471633Y-84436278D01*
X29446766Y-84440404D01*
X29422204Y-84445246D01*
X29403983Y-84449349D01*
X29380162Y-84455265D01*
X29357058Y-84461775D01*
X29334672Y-84468881D01*
X29313003Y-84476583D01*
X29292051Y-84484879D01*
X29271817Y-84493771D01*
X29252301Y-84503258D01*
X29233502Y-84513341D01*
X29215542Y-84523874D01*
X29198545Y-84534957D01*
X29182508Y-84546589D01*
X29163816Y-84561901D01*
X29146626Y-84578073D01*
X29130938Y-84595103D01*
X29116754Y-84612992D01*
X29104229Y-84631444D01*
X29093827Y-84650468D01*
X29085548Y-84670065D01*
X29079392Y-84690234D01*
X29075359Y-84710975D01*
X29073448Y-84732290D01*
X29073278Y-84740975D01*
X28886888Y-84740975D01*
X28885931Y-84719389D01*
X28885700Y-84700920D01*
X28886129Y-84674860D01*
X28887417Y-84649256D01*
X28889564Y-84624108D01*
X28892569Y-84599414D01*
X28896433Y-84575175D01*
X28901156Y-84551391D01*
X28906737Y-84528063D01*
X28913177Y-84505189D01*
X28920476Y-84482771D01*
X28928633Y-84460808D01*
X28934549Y-84446419D01*
X28944038Y-84425187D01*
X28954189Y-84404538D01*
X28965001Y-84384474D01*
X28976474Y-84364994D01*
X28988609Y-84346098D01*
X29001404Y-84327785D01*
X29014861Y-84310057D01*
X29028979Y-84292912D01*
X29043758Y-84276351D01*
X29059198Y-84260374D01*
X29069859Y-84250047D01*
X29086262Y-84234995D01*
X29103233Y-84220612D01*
X29120769Y-84206899D01*
X29138873Y-84193856D01*
X29157543Y-84181483D01*
X29176780Y-84169779D01*
X29196584Y-84158745D01*
X29216954Y-84148381D01*
X29237891Y-84138687D01*
X29259395Y-84129662D01*
X29274046Y-84124018D01*
X29296387Y-84116161D01*
X29319080Y-84109077D01*
X29342125Y-84102766D01*
X29365523Y-84097228D01*
X29389272Y-84092462D01*
X29413373Y-84088469D01*
X29437827Y-84085249D01*
X29462632Y-84082802D01*
X29487790Y-84081128D01*
X29513299Y-84080226D01*
X29530501Y-84080054D01*
X29553269Y-84080444D01*
G37*
G36*
X29553269Y-82611079D02*
G01*
X29575900Y-82612246D01*
X29598393Y-82614193D01*
X29620749Y-82616917D01*
X29642967Y-82620421D01*
X29665048Y-82624703D01*
X29686992Y-82629763D01*
X29708798Y-82635602D01*
X29730276Y-82642029D01*
X29751480Y-82649096D01*
X29772408Y-82656805D01*
X29793062Y-82665155D01*
X29813441Y-82674147D01*
X29833545Y-82683779D01*
X29853375Y-82694052D01*
X29872930Y-82704967D01*
X29892049Y-82716355D01*
X29910818Y-82728292D01*
X29929235Y-82740779D01*
X29947301Y-82753816D01*
X29965017Y-82767402D01*
X29982381Y-82781537D01*
X29999394Y-82796222D01*
X30016056Y-82811457D01*
X30032260Y-82827058D01*
X30047899Y-82843086D01*
X30062973Y-82859542D01*
X30077483Y-82876425D01*
X30091428Y-82893736D01*
X30104808Y-82911474D01*
X30117623Y-82929640D01*
X30129873Y-82948233D01*
X30141391Y-82967093D01*
X30152252Y-82986304D01*
X30162457Y-83005867D01*
X30172005Y-83025780D01*
X30180897Y-83046045D01*
X30189132Y-83066660D01*
X30196712Y-83087627D01*
X30203634Y-83108945D01*
X30209817Y-83130400D01*
X30215175Y-83152023D01*
X30219709Y-83173814D01*
X30223418Y-83195773D01*
X30226303Y-83217900D01*
X30228364Y-83240195D01*
X30229600Y-83262657D01*
X30230013Y-83285288D01*
X30229583Y-83311618D01*
X30228295Y-83337483D01*
X30226149Y-83362886D01*
X30223143Y-83387824D01*
X30219279Y-83412299D01*
X30214557Y-83436310D01*
X30208975Y-83459858D01*
X30202535Y-83482942D01*
X30195237Y-83505562D01*
X30187079Y-83527718D01*
X30181164Y-83542231D01*
X30171683Y-83563546D01*
X30161558Y-83584260D01*
X30150789Y-83604373D01*
X30139376Y-83623885D01*
X30127318Y-83642796D01*
X30114617Y-83661105D01*
X30101272Y-83678814D01*
X30087283Y-83695921D01*
X30072650Y-83712428D01*
X30057373Y-83728333D01*
X30046830Y-83738603D01*
X30030514Y-83753489D01*
X30013623Y-83767740D01*
X29996156Y-83781356D01*
X29978114Y-83794336D01*
X29959497Y-83806681D01*
X29940304Y-83818390D01*
X29920536Y-83829464D01*
X29900193Y-83839902D01*
X29879275Y-83849706D01*
X29857781Y-83858873D01*
X29843132Y-83864632D01*
X29820787Y-83872576D01*
X29798081Y-83879739D01*
X29775014Y-83886120D01*
X29751587Y-83891720D01*
X29727799Y-83896539D01*
X29703650Y-83900576D01*
X29679141Y-83903832D01*
X29654271Y-83906306D01*
X29629041Y-83907999D01*
X29603450Y-83908911D01*
X29586188Y-83909084D01*
X29561074Y-83908646D01*
X29536105Y-83907333D01*
X29511283Y-83905143D01*
X29486606Y-83902078D01*
X29462075Y-83898136D01*
X29437691Y-83893319D01*
X29413452Y-83887626D01*
X29389359Y-83881057D01*
X29365412Y-83873613D01*
X29341612Y-83865292D01*
X29325826Y-83859259D01*
X29302357Y-83849477D01*
X29279395Y-83839000D01*
X29256939Y-83827827D01*
X29234990Y-83815959D01*
X29213548Y-83803395D01*
X29192612Y-83790136D01*
X29172183Y-83776181D01*
X29152260Y-83761531D01*
X29132845Y-83746185D01*
X29113935Y-83730144D01*
X29101611Y-83719063D01*
X29083632Y-83701823D01*
X29066331Y-83683990D01*
X29049709Y-83665564D01*
X29033765Y-83646546D01*
X29018499Y-83626936D01*
X29003912Y-83606733D01*
X28990003Y-83585937D01*
X28976772Y-83564549D01*
X28964220Y-83542569D01*
X28952346Y-83519996D01*
X28944807Y-83504618D01*
X28934244Y-83481052D01*
X28924720Y-83457065D01*
X28916235Y-83432658D01*
X28908789Y-83407829D01*
X28902381Y-83382580D01*
X28897013Y-83356910D01*
X28892684Y-83330820D01*
X28889394Y-83304308D01*
X28887143Y-83277376D01*
X28886888Y-83271610D01*
X29073278Y-83271610D01*
X29073859Y-83292524D01*
X29075599Y-83312521D01*
X29079406Y-83336230D01*
X29085025Y-83358507D01*
X29092457Y-83379354D01*
X29101702Y-83398769D01*
X29110403Y-83413271D01*
X29122709Y-83430266D01*
X29136421Y-83446139D01*
X29151541Y-83460891D01*
X29168068Y-83474523D01*
X29186002Y-83487033D01*
X29205343Y-83498422D01*
X29213474Y-83502664D01*
X29234525Y-83512556D01*
X29256770Y-83521469D01*
X29275424Y-83527896D01*
X29294841Y-83533696D01*
X29315022Y-83538871D01*
X29335965Y-83543420D01*
X29357673Y-83547343D01*
X29368812Y-83549070D01*
X29391504Y-83552047D01*
X29414638Y-83554627D01*
X29438215Y-83556810D01*
X29462235Y-83558596D01*
X29486698Y-83559985D01*
X29511603Y-83560977D01*
X29536951Y-83561572D01*
X29562741Y-83561771D01*
X29582592Y-83561548D01*
X29602211Y-83560878D01*
X29628009Y-83559290D01*
X29653395Y-83556909D01*
X29678369Y-83553734D01*
X29702931Y-83549765D01*
X29727080Y-83545002D01*
X29750818Y-83539446D01*
X29762532Y-83536370D01*
X29785483Y-83529745D01*
X29807686Y-83522570D01*
X29829141Y-83514846D01*
X29849849Y-83506572D01*
X29869808Y-83497749D01*
X29889019Y-83488376D01*
X29907482Y-83478454D01*
X29925198Y-83467982D01*
X29941966Y-83456899D01*
X29957834Y-83445389D01*
X29976403Y-83430401D01*
X29993565Y-83414744D01*
X30009319Y-83398420D01*
X30023666Y-83381428D01*
X30034130Y-83367354D01*
X30045529Y-83349350D01*
X30054995Y-83331061D01*
X30062530Y-83312485D01*
X30068133Y-83293623D01*
X30072306Y-83270611D01*
X30073697Y-83247186D01*
X30073216Y-83226983D01*
X30071263Y-83202952D01*
X30067807Y-83180281D01*
X30062848Y-83158969D01*
X30056386Y-83139017D01*
X30048422Y-83120425D01*
X30042923Y-83109922D01*
X30032461Y-83093185D01*
X30020616Y-83077474D01*
X30007388Y-83062788D01*
X29992776Y-83049128D01*
X29976781Y-83036494D01*
X29959403Y-83024885D01*
X29952064Y-83020529D01*
X29932785Y-83010191D01*
X29912193Y-83000856D01*
X29890290Y-82992522D01*
X29867075Y-82985190D01*
X29847559Y-82980046D01*
X29827203Y-82975542D01*
X29806007Y-82971680D01*
X29783987Y-82968246D01*
X29761158Y-82965269D01*
X29737520Y-82962750D01*
X29713073Y-82960689D01*
X29687816Y-82959086D01*
X29661751Y-82957942D01*
X29641671Y-82957383D01*
X29621136Y-82957083D01*
X29607193Y-82957026D01*
X29587312Y-82957227D01*
X29567603Y-82957833D01*
X29548066Y-82958842D01*
X29522283Y-82960815D01*
X29496805Y-82963505D01*
X29471633Y-82966913D01*
X29446766Y-82971039D01*
X29422204Y-82975881D01*
X29403983Y-82979984D01*
X29380162Y-82985900D01*
X29357058Y-82992410D01*
X29334672Y-82999516D01*
X29313003Y-83007218D01*
X29292051Y-83015514D01*
X29271817Y-83024406D01*
X29252301Y-83033893D01*
X29233502Y-83043976D01*
X29215542Y-83054509D01*
X29198545Y-83065592D01*
X29182508Y-83077224D01*
X29163816Y-83092537D01*
X29146626Y-83108708D01*
X29130938Y-83125738D01*
X29116754Y-83143627D01*
X29104229Y-83162079D01*
X29093827Y-83181103D01*
X29085548Y-83200700D01*
X29079392Y-83220869D01*
X29075359Y-83241611D01*
X29073448Y-83262925D01*
X29073278Y-83271610D01*
X28886888Y-83271610D01*
X28885931Y-83250024D01*
X28885700Y-83231555D01*
X28886129Y-83205496D01*
X28887417Y-83179892D01*
X28889564Y-83154743D01*
X28892569Y-83130049D01*
X28896433Y-83105810D01*
X28901156Y-83082026D01*
X28906737Y-83058698D01*
X28913177Y-83035824D01*
X28920476Y-83013406D01*
X28928633Y-82991443D01*
X28934549Y-82977054D01*
X28944038Y-82955822D01*
X28954189Y-82935174D01*
X28965001Y-82915109D01*
X28976474Y-82895629D01*
X28988609Y-82876733D01*
X29001404Y-82858420D01*
X29014861Y-82840692D01*
X29028979Y-82823547D01*
X29043758Y-82806986D01*
X29059198Y-82791009D01*
X29069859Y-82780682D01*
X29086262Y-82765630D01*
X29103233Y-82751247D01*
X29120769Y-82737534D01*
X29138873Y-82724491D01*
X29157543Y-82712118D01*
X29176780Y-82700414D01*
X29196584Y-82689380D01*
X29216954Y-82679016D01*
X29237891Y-82669322D01*
X29259395Y-82660297D01*
X29274046Y-82654653D01*
X29296387Y-82646796D01*
X29319080Y-82639712D01*
X29342125Y-82633401D01*
X29365523Y-82627863D01*
X29389272Y-82623097D01*
X29413373Y-82619104D01*
X29437827Y-82615884D01*
X29462632Y-82613437D01*
X29487790Y-82611763D01*
X29513299Y-82610861D01*
X29530501Y-82610689D01*
X29553269Y-82611079D01*
G37*
G36*
X29976977Y-81517947D02*
G01*
X29993128Y-81540564D01*
X30008729Y-81562742D01*
X30023780Y-81584482D01*
X30038282Y-81605783D01*
X30052234Y-81626644D01*
X30065637Y-81647067D01*
X30078490Y-81667051D01*
X30090794Y-81686596D01*
X30102548Y-81705703D01*
X30113753Y-81724370D01*
X30124408Y-81742599D01*
X30134514Y-81760388D01*
X30144070Y-81777739D01*
X30157373Y-81802942D01*
X30169440Y-81827158D01*
X30180265Y-81850408D01*
X30190025Y-81872713D01*
X30198721Y-81894074D01*
X30206352Y-81914490D01*
X30212917Y-81933962D01*
X30220016Y-81958455D01*
X30225221Y-81981269D01*
X30228534Y-82002403D01*
X30230013Y-82026460D01*
X30229223Y-82048253D01*
X30226853Y-82069668D01*
X30222903Y-82090706D01*
X30217373Y-82111365D01*
X30210263Y-82131647D01*
X30207542Y-82138324D01*
X30198458Y-82157626D01*
X30187690Y-82175968D01*
X30175239Y-82193347D01*
X30161106Y-82209765D01*
X30145289Y-82225221D01*
X30139643Y-82230159D01*
X30121599Y-82244264D01*
X30105304Y-82255179D01*
X30087863Y-82265330D01*
X30069278Y-82274718D01*
X30049548Y-82283343D01*
X30028673Y-82291204D01*
X30024360Y-82292685D01*
X30002075Y-82299440D01*
X29978574Y-82305050D01*
X29958897Y-82308714D01*
X29938442Y-82311644D01*
X29917208Y-82313843D01*
X29895196Y-82315308D01*
X29872405Y-82316041D01*
X29860717Y-82316132D01*
X29104542Y-82316132D01*
X29104542Y-82482218D01*
X29050320Y-82522273D01*
X28916963Y-82415295D01*
X28916963Y-82316132D01*
X28624849Y-82316132D01*
X28416754Y-82038673D01*
X28462671Y-81986405D01*
X28916963Y-81986405D01*
X28916963Y-81567284D01*
X28971185Y-81517947D01*
X28988937Y-81527093D01*
X29007266Y-81537740D01*
X29024430Y-81548721D01*
X29041431Y-81560418D01*
X29058242Y-81572306D01*
X29074862Y-81584385D01*
X29078163Y-81586823D01*
X29093982Y-81598682D01*
X29109840Y-81611617D01*
X29124081Y-81624437D01*
X29137947Y-81638712D01*
X29150587Y-81654069D01*
X29152413Y-81656677D01*
X29144231Y-81675483D01*
X29137763Y-81694001D01*
X29136293Y-81698686D01*
X29130202Y-81718630D01*
X29124860Y-81738481D01*
X29120662Y-81755839D01*
X29116158Y-81775760D01*
X29112418Y-81796445D01*
X29109442Y-81817892D01*
X29108938Y-81822273D01*
X29106813Y-81842212D01*
X29105383Y-81862459D01*
X29104649Y-81883015D01*
X29104542Y-81894569D01*
X29104542Y-81986405D01*
X29732734Y-81986405D01*
X29753605Y-81986202D01*
X29773473Y-81985594D01*
X29795993Y-81984328D01*
X29817070Y-81982479D01*
X29836705Y-81980047D01*
X29848994Y-81978100D01*
X29869026Y-81974117D01*
X29889687Y-81968705D01*
X29910085Y-81961522D01*
X29925686Y-81954165D01*
X29943595Y-81942725D01*
X29958788Y-81928666D01*
X29967207Y-81917040D01*
X29975430Y-81898851D01*
X29979461Y-81879211D01*
X29979908Y-81869656D01*
X29979102Y-81849173D01*
X29976683Y-81828206D01*
X29975023Y-81818365D01*
X29970972Y-81799029D01*
X29966087Y-81779947D01*
X29960057Y-81759435D01*
X29959392Y-81757305D01*
X29952376Y-81737139D01*
X29944973Y-81718111D01*
X29936470Y-81698045D01*
X29928128Y-81679636D01*
X29918829Y-81659937D01*
X29910002Y-81641974D01*
X29900384Y-81623015D01*
X29889977Y-81603059D01*
X29880701Y-81585669D01*
X29876837Y-81578519D01*
X29976977Y-81517947D01*
G37*
G36*
X30198750Y-81407061D02*
G01*
X30099098Y-81407061D01*
X30094168Y-81384506D01*
X30089146Y-81363494D01*
X30084032Y-81344023D01*
X30077511Y-81321853D01*
X30070846Y-81302091D01*
X30062660Y-81281558D01*
X30057089Y-81269796D01*
X30047421Y-81252666D01*
X30035473Y-81236823D01*
X30017962Y-81226004D01*
X30015567Y-81225832D01*
X29312636Y-81225832D01*
X29291463Y-81225868D01*
X29271602Y-81225975D01*
X29249500Y-81226199D01*
X29229287Y-81226525D01*
X29208092Y-81227036D01*
X29199796Y-81227298D01*
X29179280Y-81228916D01*
X29159118Y-81232853D01*
X29140342Y-81239856D01*
X29132385Y-81244395D01*
X29117488Y-81257681D01*
X29106650Y-81274168D01*
X29099098Y-81292595D01*
X29097703Y-81297151D01*
X29092574Y-81317942D01*
X29088486Y-81339791D01*
X29085281Y-81361235D01*
X29082819Y-81381020D01*
X29080549Y-81402546D01*
X29080117Y-81407061D01*
X28984374Y-81407061D01*
X28981196Y-81385007D01*
X28977888Y-81363177D01*
X28974452Y-81341570D01*
X28970887Y-81320186D01*
X28967194Y-81299026D01*
X28963371Y-81278089D01*
X28959420Y-81257375D01*
X28955340Y-81236884D01*
X28951131Y-81216617D01*
X28946793Y-81196573D01*
X28943830Y-81183334D01*
X28939252Y-81163570D01*
X28934493Y-81144030D01*
X28929554Y-81124713D01*
X28924435Y-81105619D01*
X28919136Y-81086748D01*
X28911790Y-81061935D01*
X28904123Y-81037518D01*
X28896135Y-81013498D01*
X28887827Y-80989876D01*
X28885700Y-80984032D01*
X28885700Y-80896104D01*
X30015567Y-80896104D01*
X30033641Y-80885846D01*
X30046922Y-80869016D01*
X30055623Y-80855072D01*
X30064445Y-80837423D01*
X30072957Y-80815619D01*
X30079814Y-80794274D01*
X30085146Y-80775120D01*
X30090340Y-80754119D01*
X30095396Y-80731271D01*
X30099098Y-80712922D01*
X30198750Y-80712922D01*
X30198750Y-81407061D01*
G37*
G36*
X28480257Y-80843837D02*
G01*
X28501207Y-80844701D01*
X28521316Y-80847296D01*
X28540584Y-80851620D01*
X28561573Y-80858680D01*
X28569161Y-80861910D01*
X28588487Y-80871528D01*
X28606408Y-80882793D01*
X28622925Y-80895708D01*
X28638038Y-80910271D01*
X28651624Y-80926360D01*
X28663561Y-80943854D01*
X28673850Y-80962752D01*
X28682490Y-80983055D01*
X28688581Y-81001785D01*
X28693176Y-81021216D01*
X28696274Y-81041348D01*
X28697877Y-81062182D01*
X28698121Y-81074402D01*
X28697387Y-81095761D01*
X28695185Y-81116425D01*
X28691514Y-81136393D01*
X28688840Y-81147186D01*
X28681990Y-81167699D01*
X28673041Y-81186494D01*
X28661993Y-81203572D01*
X28659531Y-81206781D01*
X28646107Y-81221655D01*
X28630871Y-81234526D01*
X28613821Y-81245393D01*
X28610194Y-81247326D01*
X28590683Y-81255311D01*
X28571084Y-81259970D01*
X28549553Y-81262232D01*
X28539364Y-81262469D01*
X28518413Y-81261627D01*
X28498304Y-81259103D01*
X28479037Y-81254895D01*
X28458047Y-81248026D01*
X28450459Y-81244883D01*
X28431195Y-81235052D01*
X28413456Y-81223634D01*
X28397245Y-81210628D01*
X28382560Y-81196035D01*
X28369187Y-81179945D01*
X28357403Y-81162451D01*
X28347206Y-81143553D01*
X28338596Y-81123250D01*
X28332505Y-81104591D01*
X28327910Y-81085370D01*
X28324812Y-81065588D01*
X28323209Y-81045245D01*
X28322964Y-81033369D01*
X28323699Y-81012718D01*
X28325901Y-80992531D01*
X28329572Y-80972807D01*
X28332246Y-80962050D01*
X28338278Y-80943237D01*
X28346884Y-80923964D01*
X28357493Y-80906409D01*
X28361066Y-80901478D01*
X28373975Y-80886299D01*
X28388887Y-80873123D01*
X28405803Y-80861951D01*
X28409426Y-80859957D01*
X28428937Y-80851456D01*
X28448536Y-80846497D01*
X28470067Y-80844088D01*
X28480257Y-80843837D01*
G37*
G36*
X30198750Y-79742301D02*
G01*
X30099098Y-79742301D01*
X30092733Y-79718533D01*
X30086581Y-79696567D01*
X30080643Y-79676402D01*
X30073521Y-79653728D01*
X30066732Y-79633869D01*
X30059027Y-79613753D01*
X30054158Y-79602594D01*
X30044419Y-79584429D01*
X30032330Y-79569021D01*
X30015567Y-79561073D01*
X29395191Y-79561073D01*
X29372443Y-79561264D01*
X29350912Y-79561836D01*
X29330597Y-79562790D01*
X29307826Y-79564439D01*
X29286805Y-79566637D01*
X29270627Y-79568889D01*
X29249596Y-79572539D01*
X29230529Y-79577077D01*
X29211142Y-79583351D01*
X29192397Y-79591796D01*
X29190515Y-79592825D01*
X29173351Y-79604045D01*
X29158548Y-79619031D01*
X29148017Y-79636788D01*
X29141064Y-79657211D01*
X29137248Y-79678583D01*
X29135852Y-79700101D01*
X29135805Y-79705176D01*
X29136663Y-79726319D01*
X29138904Y-79745999D01*
X29142537Y-79766298D01*
X29144597Y-79775518D01*
X29149788Y-79794569D01*
X29156565Y-79814597D01*
X29163798Y-79832923D01*
X29172246Y-79851997D01*
X29174883Y-79857584D01*
X29184844Y-79877499D01*
X29194610Y-79895314D01*
X29205510Y-79913815D01*
X29217543Y-79933003D01*
X29228436Y-79949518D01*
X29233013Y-79956258D01*
X29244939Y-79973489D01*
X29257819Y-79991292D01*
X29271653Y-80009667D01*
X29286441Y-80028615D01*
X29298959Y-80044185D01*
X29312087Y-80060122D01*
X29325826Y-80076425D01*
X30015567Y-80076425D01*
X30033800Y-80067450D01*
X30047166Y-80050047D01*
X30056693Y-80032416D01*
X30058066Y-80029531D01*
X30066206Y-80010468D01*
X30074140Y-79988452D01*
X30080594Y-79967849D01*
X30086905Y-79945195D01*
X30091851Y-79925594D01*
X30096706Y-79904681D01*
X30099098Y-79893732D01*
X30198750Y-79893732D01*
X30198750Y-80587382D01*
X30099098Y-80587382D01*
X30093313Y-80565384D01*
X30087680Y-80544822D01*
X30082200Y-80525695D01*
X30075564Y-80503804D01*
X30069167Y-80484155D01*
X30061806Y-80463535D01*
X30057089Y-80451583D01*
X30048757Y-80433881D01*
X30037427Y-80417511D01*
X30019834Y-80406553D01*
X30015567Y-80406153D01*
X29256461Y-80406153D01*
X29234218Y-80406247D01*
X29214079Y-80406527D01*
X29193639Y-80407077D01*
X29173928Y-80407987D01*
X29171953Y-80408107D01*
X29151797Y-80411182D01*
X29133628Y-80418487D01*
X29122616Y-80426670D01*
X29110434Y-80442011D01*
X29101681Y-80461143D01*
X29096237Y-80480403D01*
X29092116Y-80501011D01*
X29088559Y-80522399D01*
X29085548Y-80543225D01*
X29082572Y-80566351D01*
X29080117Y-80587382D01*
X28984374Y-80587382D01*
X28982165Y-80567000D01*
X28979814Y-80547072D01*
X28977319Y-80527597D01*
X28974136Y-80504825D01*
X28970747Y-80482706D01*
X28967766Y-80464772D01*
X28964050Y-80443511D01*
X28960232Y-80422594D01*
X28956311Y-80402020D01*
X28952287Y-80381790D01*
X28948159Y-80361903D01*
X28946761Y-80355351D01*
X28942244Y-80335853D01*
X28937487Y-80316562D01*
X28932490Y-80297477D01*
X28927252Y-80278598D01*
X28920837Y-80256832D01*
X28919894Y-80253746D01*
X28914078Y-80235078D01*
X28907987Y-80216445D01*
X28901622Y-80197847D01*
X28894981Y-80179282D01*
X28888066Y-80160752D01*
X28885700Y-80154583D01*
X28943341Y-80096942D01*
X29140201Y-80081799D01*
X29123409Y-80061794D01*
X29107228Y-80041957D01*
X29091658Y-80022288D01*
X29076698Y-80002786D01*
X29062349Y-79983453D01*
X29048610Y-79964287D01*
X29035482Y-79945290D01*
X29022964Y-79926460D01*
X29011058Y-79907799D01*
X28999761Y-79889305D01*
X28989076Y-79870979D01*
X28979001Y-79852821D01*
X28969536Y-79834831D01*
X28960683Y-79817009D01*
X28948547Y-79790591D01*
X28944807Y-79781869D01*
X28934244Y-79755961D01*
X28924720Y-79730629D01*
X28916235Y-79705872D01*
X28908789Y-79681691D01*
X28902381Y-79658085D01*
X28897013Y-79635054D01*
X28892684Y-79612598D01*
X28889394Y-79590718D01*
X28887143Y-79569413D01*
X28885931Y-79548683D01*
X28885700Y-79535183D01*
X28886353Y-79513173D01*
X28888310Y-79491472D01*
X28891573Y-79470079D01*
X28896141Y-79448996D01*
X28902015Y-79428222D01*
X28904262Y-79421366D01*
X28912030Y-79401130D01*
X28921413Y-79381822D01*
X28932409Y-79363441D01*
X28945020Y-79345987D01*
X28959246Y-79329460D01*
X28964346Y-79324158D01*
X28980827Y-79308988D01*
X28999128Y-79294986D01*
X29015769Y-79284210D01*
X29033675Y-79274244D01*
X29052845Y-79265090D01*
X29073278Y-79256746D01*
X29094895Y-79249429D01*
X29117920Y-79243351D01*
X29137352Y-79239382D01*
X29157685Y-79236207D01*
X29178919Y-79233826D01*
X29201054Y-79232238D01*
X29224089Y-79231444D01*
X29235944Y-79231345D01*
X30015567Y-79231345D01*
X30033550Y-79223552D01*
X30034130Y-79223041D01*
X30046091Y-79206882D01*
X30052692Y-79194220D01*
X30060636Y-79175052D01*
X30067988Y-79154928D01*
X30073697Y-79138044D01*
X30079681Y-79119085D01*
X30085909Y-79097867D01*
X30091559Y-79077447D01*
X30097396Y-79055298D01*
X30099098Y-79048652D01*
X30198750Y-79048652D01*
X30198750Y-79742301D01*
G37*
G36*
X28955393Y-77581716D02*
G01*
X28972650Y-77588568D01*
X28990789Y-77596542D01*
X29009302Y-77605077D01*
X29014660Y-77607619D01*
X29033467Y-77616875D01*
X29050930Y-77625973D01*
X29057647Y-77629601D01*
X29075185Y-77639952D01*
X29092108Y-77651251D01*
X29095260Y-77653536D01*
X29098753Y-77674123D01*
X29101966Y-77694850D01*
X29104897Y-77715717D01*
X29107549Y-77736724D01*
X29108938Y-77748791D01*
X29111172Y-77770202D01*
X29113172Y-77792549D01*
X29114701Y-77812447D01*
X29116057Y-77833032D01*
X29117242Y-77854304D01*
X29135148Y-77843960D01*
X29153329Y-77834543D01*
X29171785Y-77826054D01*
X29190515Y-77818492D01*
X29209520Y-77811857D01*
X29215916Y-77809852D01*
X29235139Y-77804374D01*
X29254705Y-77800029D01*
X29274615Y-77796817D01*
X29294868Y-77794739D01*
X29315464Y-77793795D01*
X29322406Y-77793732D01*
X29348258Y-77794465D01*
X29373545Y-77796663D01*
X29398266Y-77800326D01*
X29422424Y-77805455D01*
X29446016Y-77812050D01*
X29469043Y-77820110D01*
X29491506Y-77829636D01*
X29513404Y-77840626D01*
X29534523Y-77852839D01*
X29554895Y-77866028D01*
X29574518Y-77880194D01*
X29593394Y-77895337D01*
X29611521Y-77911457D01*
X29628900Y-77928554D01*
X29645532Y-77946628D01*
X29661415Y-77965679D01*
X29676383Y-77985607D01*
X29690511Y-78006315D01*
X29703799Y-78027800D01*
X29716248Y-78050065D01*
X29727857Y-78073107D01*
X29736013Y-78090900D01*
X29743696Y-78109131D01*
X29750908Y-78127800D01*
X29757647Y-78146907D01*
X29763845Y-78166331D01*
X29769434Y-78185953D01*
X29774412Y-78205773D01*
X29778782Y-78225790D01*
X29782541Y-78246004D01*
X29785691Y-78266416D01*
X29788231Y-78287026D01*
X29790162Y-78307833D01*
X29791483Y-78328837D01*
X29792194Y-78350039D01*
X29792329Y-78364283D01*
X29792329Y-78377961D01*
X29807001Y-78393376D01*
X29823441Y-78409450D01*
X29838611Y-78422880D01*
X29854703Y-78435205D01*
X29870976Y-78444883D01*
X29888922Y-78452949D01*
X29907955Y-78458994D01*
X29909077Y-78459049D01*
X29928159Y-78453981D01*
X29933502Y-78450745D01*
X29945958Y-78435580D01*
X29954751Y-78417239D01*
X29956949Y-78411666D01*
X29963621Y-78391608D01*
X29968917Y-78372587D01*
X29974307Y-78350575D01*
X29979001Y-78329326D01*
X29981373Y-78317877D01*
X29985237Y-78297252D01*
X29989197Y-78274457D01*
X29992433Y-78254658D01*
X29995730Y-78233470D01*
X29999089Y-78210893D01*
X30002508Y-78186927D01*
X30005988Y-78161571D01*
X30007752Y-78148372D01*
X30010352Y-78128499D01*
X30013026Y-78109057D01*
X30017172Y-78080702D01*
X30021481Y-78053318D01*
X30025953Y-78026904D01*
X30030588Y-78001460D01*
X30035387Y-77976987D01*
X30040348Y-77953484D01*
X30045473Y-77930951D01*
X30050761Y-77909388D01*
X30056212Y-77888796D01*
X30058066Y-77882148D01*
X30063760Y-77862655D01*
X30069669Y-77843926D01*
X30077882Y-77820143D01*
X30086476Y-77797718D01*
X30095452Y-77776652D01*
X30104810Y-77756945D01*
X30114549Y-77738596D01*
X30124669Y-77721606D01*
X30129873Y-77713620D01*
X30143158Y-77695011D01*
X30157064Y-77678262D01*
X30171590Y-77663374D01*
X30186736Y-77650346D01*
X30205730Y-77637168D01*
X30225616Y-77626670D01*
X30246430Y-77618203D01*
X30268206Y-77611489D01*
X30290944Y-77606525D01*
X30310626Y-77603728D01*
X30330976Y-77602146D01*
X30347738Y-77601757D01*
X30368181Y-77602484D01*
X30388601Y-77604667D01*
X30408996Y-77608304D01*
X30429368Y-77613397D01*
X30449716Y-77619944D01*
X30470040Y-77627946D01*
X30478163Y-77631555D01*
X30498487Y-77641274D01*
X30518549Y-77652115D01*
X30538349Y-77664077D01*
X30557886Y-77677159D01*
X30577160Y-77691363D01*
X30596173Y-77706688D01*
X30603704Y-77713132D01*
X30618702Y-77726481D01*
X30633410Y-77740395D01*
X30647828Y-77754874D01*
X30661956Y-77769918D01*
X30675794Y-77785527D01*
X30689342Y-77801700D01*
X30702600Y-77818439D01*
X30715567Y-77835742D01*
X30728299Y-77853388D01*
X30740602Y-77871401D01*
X30752479Y-77889780D01*
X30763927Y-77908526D01*
X30774949Y-77927638D01*
X30785543Y-77947116D01*
X30795710Y-77966961D01*
X30805449Y-77987172D01*
X30814715Y-78007681D01*
X30823462Y-78028419D01*
X30831690Y-78049385D01*
X30839398Y-78070581D01*
X30846588Y-78092006D01*
X30853259Y-78113659D01*
X30859411Y-78135542D01*
X30865044Y-78157654D01*
X30870081Y-78179750D01*
X30874447Y-78201831D01*
X30878142Y-78223897D01*
X30881164Y-78245947D01*
X30883515Y-78267983D01*
X30885194Y-78290003D01*
X30886202Y-78312008D01*
X30886537Y-78333997D01*
X30886311Y-78356439D01*
X30885631Y-78379191D01*
X30884498Y-78402254D01*
X30882912Y-78425626D01*
X30880873Y-78449309D01*
X30878380Y-78473301D01*
X30877256Y-78482985D01*
X30874246Y-78507197D01*
X30870711Y-78531290D01*
X30866652Y-78555263D01*
X30862067Y-78579118D01*
X30856958Y-78602853D01*
X30851324Y-78626468D01*
X30848924Y-78635881D01*
X30842708Y-78659058D01*
X30835968Y-78681877D01*
X30828702Y-78704338D01*
X30820912Y-78726442D01*
X30812598Y-78748188D01*
X30803758Y-78769576D01*
X30800075Y-78778031D01*
X30790606Y-78798550D01*
X30780517Y-78818283D01*
X30769807Y-78837228D01*
X30758478Y-78855387D01*
X30746528Y-78872758D01*
X30733958Y-78889342D01*
X30728756Y-78895756D01*
X30715342Y-78911130D01*
X30701355Y-78925504D01*
X30686796Y-78938875D01*
X30671665Y-78951244D01*
X30652751Y-78964766D01*
X30633013Y-78976844D01*
X30612434Y-78987137D01*
X30590996Y-78995300D01*
X30568699Y-79001333D01*
X30545544Y-79005237D01*
X30525592Y-79006864D01*
X30513334Y-79007130D01*
X30491772Y-79005747D01*
X30472040Y-79002136D01*
X30451999Y-78996284D01*
X30442992Y-78992964D01*
X30424857Y-78984141D01*
X30406112Y-78972326D01*
X30389208Y-78959533D01*
X30374348Y-78946745D01*
X30366789Y-78939719D01*
X30351327Y-78924269D01*
X30338049Y-78909898D01*
X30324412Y-78894168D01*
X30310419Y-78877078D01*
X30296067Y-78858629D01*
X30284328Y-78842890D01*
X30278373Y-78834695D01*
X30266367Y-78817468D01*
X30254040Y-78799005D01*
X30241393Y-78779305D01*
X30228425Y-78758369D01*
X30215137Y-78736196D01*
X30204960Y-78718755D01*
X30194603Y-78700619D01*
X30184066Y-78681787D01*
X30173348Y-78662259D01*
X30165254Y-78681188D01*
X30152984Y-78707292D01*
X30140559Y-78730647D01*
X30127979Y-78751255D01*
X30115245Y-78769116D01*
X30102357Y-78784228D01*
X30084931Y-78800104D01*
X30067231Y-78811095D01*
X30044720Y-78817964D01*
X30035595Y-78818575D01*
X30015159Y-78814556D01*
X29996170Y-78806656D01*
X29994562Y-78805874D01*
X29977313Y-78796057D01*
X29960483Y-78784529D01*
X29944485Y-78772141D01*
X29933990Y-78763376D01*
X29918466Y-78749475D01*
X29902241Y-78733844D01*
X29887775Y-78719069D01*
X29872794Y-78703023D01*
X29857298Y-78685707D01*
X29844027Y-78670105D01*
X29830469Y-78653526D01*
X29816626Y-78635968D01*
X29802496Y-78617433D01*
X29788080Y-78597920D01*
X29776341Y-78581605D01*
X29767417Y-78568959D01*
X29762036Y-78587926D01*
X29754601Y-78611055D01*
X29746379Y-78633540D01*
X29737370Y-78655381D01*
X29727575Y-78676578D01*
X29716991Y-78697131D01*
X29710264Y-78709154D01*
X29698340Y-78728405D01*
X29685773Y-78746773D01*
X29672561Y-78764259D01*
X29658706Y-78780862D01*
X29644206Y-78796583D01*
X29629063Y-78811421D01*
X29622825Y-78817109D01*
X29606663Y-78830524D01*
X29589928Y-78842984D01*
X29572622Y-78854490D01*
X29554742Y-78865042D01*
X29536290Y-78874640D01*
X29517266Y-78883284D01*
X29509496Y-78886474D01*
X29489578Y-78893511D01*
X29469206Y-78899354D01*
X29448381Y-78904005D01*
X29427102Y-78907464D01*
X29405371Y-78909730D01*
X29383186Y-78910803D01*
X29374186Y-78910899D01*
X29349433Y-78910128D01*
X29325001Y-78907815D01*
X29300890Y-78903961D01*
X29277099Y-78898564D01*
X29253629Y-78891626D01*
X29230479Y-78883147D01*
X29207650Y-78873125D01*
X29185142Y-78861562D01*
X29163160Y-78848601D01*
X29141911Y-78834634D01*
X29121394Y-78819659D01*
X29101611Y-78803676D01*
X29082560Y-78786686D01*
X29064241Y-78768688D01*
X29046656Y-78749683D01*
X29033948Y-78734768D01*
X29029803Y-78729670D01*
X29017592Y-78713960D01*
X29005869Y-78697785D01*
X28994637Y-78681147D01*
X28983893Y-78664045D01*
X28973639Y-78646480D01*
X28963875Y-78628451D01*
X28954600Y-78609958D01*
X28945814Y-78591002D01*
X28937518Y-78571581D01*
X28929711Y-78551698D01*
X28924779Y-78538184D01*
X28917795Y-78517577D01*
X28911498Y-78496791D01*
X28905888Y-78475823D01*
X28900965Y-78454676D01*
X28896729Y-78433348D01*
X28893180Y-78411840D01*
X28890837Y-78394081D01*
X29010752Y-78394081D01*
X29012066Y-78413667D01*
X29016007Y-78433408D01*
X29022576Y-78453303D01*
X29027361Y-78464423D01*
X29036734Y-78481825D01*
X29048244Y-78498372D01*
X29061891Y-78514065D01*
X29077675Y-78528903D01*
X29093072Y-78541021D01*
X29110199Y-78552157D01*
X29129056Y-78562312D01*
X29149643Y-78571485D01*
X29162183Y-78576286D01*
X29181852Y-78582594D01*
X29202758Y-78587597D01*
X29224900Y-78591295D01*
X29248278Y-78593688D01*
X29268705Y-78594685D01*
X29281373Y-78594848D01*
X29303916Y-78594443D01*
X29326053Y-78593226D01*
X29347784Y-78591199D01*
X29369110Y-78588361D01*
X29390030Y-78584711D01*
X29410545Y-78580251D01*
X29418638Y-78578240D01*
X29438394Y-78572608D01*
X29457364Y-78566095D01*
X29475546Y-78558698D01*
X29496326Y-78548657D01*
X29515972Y-78537346D01*
X29531478Y-78526949D01*
X29548743Y-78513124D01*
X29564634Y-78498029D01*
X29566279Y-78496174D01*
X30234897Y-78496174D01*
X30248398Y-78515222D01*
X30261421Y-78532982D01*
X30273967Y-78549455D01*
X30288392Y-78567521D01*
X30302131Y-78583732D01*
X30313055Y-78595825D01*
X30327735Y-78610775D01*
X30343824Y-78625743D01*
X30359181Y-78638451D01*
X30375581Y-78650047D01*
X30392716Y-78659798D01*
X30411767Y-78668224D01*
X30426384Y-78672518D01*
X30446005Y-78675857D01*
X30465991Y-78677360D01*
X30469859Y-78677402D01*
X30489547Y-78675790D01*
X30508862Y-78670951D01*
X30527802Y-78662887D01*
X30546368Y-78651597D01*
X30556810Y-78643697D01*
X30572185Y-78630164D01*
X30586806Y-78614846D01*
X30600670Y-78597741D01*
X30613779Y-78578850D01*
X30624126Y-78561744D01*
X30630082Y-78550885D01*
X30639683Y-78531901D01*
X30648639Y-78511892D01*
X30656951Y-78490857D01*
X30664620Y-78468796D01*
X30671644Y-78445710D01*
X30676800Y-78426503D01*
X30680396Y-78411666D01*
X30684747Y-78391318D01*
X30688517Y-78370572D01*
X30691708Y-78349430D01*
X30694318Y-78327891D01*
X30696349Y-78305955D01*
X30697799Y-78283622D01*
X30698669Y-78260892D01*
X30698959Y-78237765D01*
X30698646Y-78217837D01*
X30697375Y-78193892D01*
X30695125Y-78171020D01*
X30691898Y-78149222D01*
X30687693Y-78128497D01*
X30682510Y-78108846D01*
X30678931Y-78097570D01*
X30671071Y-78076109D01*
X30662147Y-78056056D01*
X30652158Y-78037412D01*
X30641104Y-78020175D01*
X30628985Y-78004347D01*
X30624709Y-77999384D01*
X30609282Y-77983246D01*
X30592919Y-77969024D01*
X30575622Y-77956719D01*
X30557390Y-77946330D01*
X30546551Y-77941255D01*
X30527130Y-77933641D01*
X30507335Y-77927897D01*
X30487166Y-77924024D01*
X30466623Y-77922020D01*
X30454716Y-77921715D01*
X30434932Y-77923501D01*
X30415149Y-77928859D01*
X30401960Y-77934416D01*
X30384449Y-77945755D01*
X30369031Y-77961173D01*
X30357040Y-77977011D01*
X30352622Y-77983753D01*
X30342718Y-78001444D01*
X30333095Y-78022034D01*
X30325069Y-78041989D01*
X30317249Y-78064074D01*
X30310890Y-78084105D01*
X30309636Y-78088289D01*
X30303532Y-78110216D01*
X30298872Y-78129217D01*
X30294411Y-78149516D01*
X30290148Y-78171112D01*
X30286084Y-78194006D01*
X30282218Y-78218198D01*
X30278551Y-78243687D01*
X30275930Y-78263655D01*
X30273264Y-78284072D01*
X30270454Y-78304108D01*
X30267501Y-78323762D01*
X30263769Y-78346843D01*
X30259830Y-78369374D01*
X30256391Y-78387730D01*
X30252361Y-78409106D01*
X30248331Y-78430000D01*
X30244301Y-78450413D01*
X30240271Y-78470346D01*
X30236241Y-78489797D01*
X30234897Y-78496174D01*
X29566279Y-78496174D01*
X29579151Y-78481663D01*
X29592295Y-78464026D01*
X29604064Y-78445118D01*
X29607682Y-78438533D01*
X29617310Y-78417662D01*
X29623812Y-78399167D01*
X29628931Y-78379670D01*
X29632666Y-78359172D01*
X29635018Y-78337672D01*
X29635986Y-78315170D01*
X29636014Y-78310550D01*
X29634976Y-78290766D01*
X29631862Y-78271471D01*
X29625877Y-78250348D01*
X29619405Y-78234346D01*
X29610063Y-78216608D01*
X29598645Y-78200030D01*
X29585150Y-78184612D01*
X29569580Y-78170354D01*
X29551689Y-78157348D01*
X29534332Y-78147070D01*
X29515385Y-78137820D01*
X29494848Y-78129599D01*
X29485560Y-78126391D01*
X29466057Y-78120746D01*
X29445283Y-78116270D01*
X29423238Y-78112961D01*
X29399923Y-78110820D01*
X29379522Y-78109928D01*
X29366858Y-78109782D01*
X29343894Y-78110235D01*
X29321406Y-78111595D01*
X29299396Y-78113861D01*
X29277862Y-78117033D01*
X29256806Y-78121112D01*
X29236227Y-78126097D01*
X29228128Y-78128345D01*
X29208384Y-78134563D01*
X29189450Y-78141616D01*
X29171328Y-78149504D01*
X29150651Y-78160071D01*
X29131142Y-78171840D01*
X29115777Y-78182566D01*
X29098346Y-78196557D01*
X29082323Y-78211784D01*
X29067709Y-78228248D01*
X29054502Y-78245947D01*
X29042704Y-78264884D01*
X29039084Y-78271471D01*
X29029456Y-78291856D01*
X29021820Y-78313442D01*
X29016175Y-78336231D01*
X29012993Y-78356141D01*
X29011195Y-78376885D01*
X29010752Y-78394081D01*
X28890837Y-78394081D01*
X28890318Y-78390151D01*
X28888142Y-78368283D01*
X28886654Y-78346233D01*
X28885853Y-78324004D01*
X28885700Y-78309084D01*
X28886112Y-78285584D01*
X28887349Y-78262464D01*
X28889409Y-78239727D01*
X28892295Y-78217371D01*
X28896004Y-78195397D01*
X28900538Y-78173804D01*
X28905896Y-78152593D01*
X28912078Y-78131764D01*
X28918833Y-78111385D01*
X28926153Y-78091525D01*
X28934037Y-78072184D01*
X28942486Y-78053362D01*
X28951501Y-78035059D01*
X28961079Y-78017275D01*
X28971223Y-78000010D01*
X28981932Y-77983264D01*
X28978959Y-77961114D01*
X28975721Y-77939358D01*
X28972216Y-77917997D01*
X28968445Y-77897031D01*
X28964408Y-77876461D01*
X28960104Y-77856285D01*
X28955535Y-77836504D01*
X28950699Y-77817118D01*
X28945597Y-77798127D01*
X28938381Y-77773421D01*
X28936502Y-77767354D01*
X28929084Y-77743693D01*
X28921970Y-77721314D01*
X28915162Y-77700217D01*
X28908659Y-77680403D01*
X28902461Y-77661871D01*
X28895143Y-77640510D01*
X28888303Y-77621151D01*
X28885700Y-77613969D01*
X28936502Y-77575379D01*
X28955393Y-77581716D01*
G37*
G36*
X29976977Y-76568610D02*
G01*
X29993128Y-76591227D01*
X30008729Y-76613405D01*
X30023780Y-76635145D01*
X30038282Y-76656446D01*
X30052234Y-76677307D01*
X30065637Y-76697730D01*
X30078490Y-76717714D01*
X30090794Y-76737259D01*
X30102548Y-76756366D01*
X30113753Y-76775033D01*
X30124408Y-76793262D01*
X30134514Y-76811051D01*
X30144070Y-76828402D01*
X30157373Y-76853605D01*
X30169440Y-76877821D01*
X30180265Y-76901071D01*
X30190025Y-76923376D01*
X30198721Y-76944737D01*
X30206352Y-76965153D01*
X30212917Y-76984625D01*
X30220016Y-77009118D01*
X30225221Y-77031932D01*
X30228534Y-77053066D01*
X30230013Y-77077123D01*
X30229223Y-77098916D01*
X30226853Y-77120331D01*
X30222903Y-77141369D01*
X30217373Y-77162028D01*
X30210263Y-77182310D01*
X30207542Y-77188987D01*
X30198458Y-77208289D01*
X30187690Y-77226630D01*
X30175239Y-77244010D01*
X30161106Y-77260428D01*
X30145289Y-77275884D01*
X30139643Y-77280822D01*
X30121599Y-77294927D01*
X30105304Y-77305841D01*
X30087863Y-77315993D01*
X30069278Y-77325381D01*
X30049548Y-77334006D01*
X30028673Y-77341867D01*
X30024360Y-77343348D01*
X30002075Y-77350103D01*
X29978574Y-77355713D01*
X29958897Y-77359376D01*
X29938442Y-77362307D01*
X29917208Y-77364506D01*
X29895196Y-77365971D01*
X29872405Y-77366704D01*
X29860717Y-77366795D01*
X29104542Y-77366795D01*
X29104542Y-77532880D01*
X29050320Y-77572936D01*
X28916963Y-77465958D01*
X28916963Y-77366795D01*
X28624849Y-77366795D01*
X28416754Y-77089335D01*
X28462671Y-77037068D01*
X28916963Y-77037068D01*
X28916963Y-76617947D01*
X28971185Y-76568610D01*
X28988937Y-76577756D01*
X29007266Y-76588403D01*
X29024430Y-76599384D01*
X29041431Y-76611081D01*
X29058242Y-76622969D01*
X29074862Y-76635048D01*
X29078163Y-76637486D01*
X29093982Y-76649345D01*
X29109840Y-76662280D01*
X29124081Y-76675100D01*
X29137947Y-76689375D01*
X29150587Y-76704732D01*
X29152413Y-76707340D01*
X29144231Y-76726146D01*
X29137763Y-76744664D01*
X29136293Y-76749349D01*
X29130202Y-76769293D01*
X29124860Y-76789144D01*
X29120662Y-76806502D01*
X29116158Y-76826423D01*
X29112418Y-76847108D01*
X29109442Y-76868555D01*
X29108938Y-76872936D01*
X29106813Y-76892875D01*
X29105383Y-76913122D01*
X29104649Y-76933678D01*
X29104542Y-76945232D01*
X29104542Y-77037068D01*
X29732734Y-77037068D01*
X29753605Y-77036865D01*
X29773473Y-77036257D01*
X29795993Y-77034991D01*
X29817070Y-77033142D01*
X29836705Y-77030710D01*
X29848994Y-77028763D01*
X29869026Y-77024780D01*
X29889687Y-77019368D01*
X29910085Y-77012185D01*
X29925686Y-77004827D01*
X29943595Y-76993388D01*
X29958788Y-76979329D01*
X29967207Y-76967703D01*
X29975430Y-76949514D01*
X29979461Y-76929874D01*
X29979908Y-76920319D01*
X29979102Y-76899836D01*
X29976683Y-76878869D01*
X29975023Y-76869028D01*
X29970972Y-76849692D01*
X29966087Y-76830610D01*
X29960057Y-76810098D01*
X29959392Y-76807968D01*
X29952376Y-76787802D01*
X29944973Y-76768774D01*
X29936470Y-76748708D01*
X29928128Y-76730298D01*
X29918829Y-76710600D01*
X29910002Y-76692637D01*
X29900384Y-76673678D01*
X29889977Y-76653722D01*
X29880701Y-76636332D01*
X29876837Y-76629182D01*
X29976977Y-76568610D01*
G37*
G36*
X29553269Y-75156787D02*
G01*
X29575900Y-75157955D01*
X29598393Y-75159901D01*
X29620749Y-75162626D01*
X29642967Y-75166129D01*
X29665048Y-75170411D01*
X29686992Y-75175471D01*
X29708798Y-75181310D01*
X29730276Y-75187737D01*
X29751480Y-75194805D01*
X29772408Y-75202514D01*
X29793062Y-75210864D01*
X29813441Y-75219855D01*
X29833545Y-75229487D01*
X29853375Y-75239761D01*
X29872930Y-75250675D01*
X29892049Y-75262063D01*
X29910818Y-75274001D01*
X29929235Y-75286487D01*
X29947301Y-75299524D01*
X29965017Y-75313110D01*
X29982381Y-75327245D01*
X29999394Y-75341931D01*
X30016056Y-75357165D01*
X30032260Y-75372766D01*
X30047899Y-75388795D01*
X30062973Y-75405251D01*
X30077483Y-75422134D01*
X30091428Y-75439445D01*
X30104808Y-75457183D01*
X30117623Y-75475348D01*
X30129873Y-75493941D01*
X30141391Y-75512801D01*
X30152252Y-75532013D01*
X30162457Y-75551575D01*
X30172005Y-75571488D01*
X30180897Y-75591753D01*
X30189132Y-75612368D01*
X30196712Y-75633335D01*
X30203634Y-75654653D01*
X30209817Y-75676108D01*
X30215175Y-75697731D01*
X30219709Y-75719522D01*
X30223418Y-75741481D01*
X30226303Y-75763608D01*
X30228364Y-75785903D01*
X30229600Y-75808366D01*
X30230013Y-75830996D01*
X30229583Y-75857326D01*
X30228295Y-75883192D01*
X30226149Y-75908594D01*
X30223143Y-75933533D01*
X30219279Y-75958007D01*
X30214557Y-75982019D01*
X30208975Y-76005566D01*
X30202535Y-76028650D01*
X30195237Y-76051270D01*
X30187079Y-76073426D01*
X30181164Y-76087940D01*
X30171683Y-76109255D01*
X30161558Y-76129969D01*
X30150789Y-76150081D01*
X30139376Y-76169593D01*
X30127318Y-76188504D01*
X30114617Y-76206814D01*
X30101272Y-76224522D01*
X30087283Y-76241630D01*
X30072650Y-76258136D01*
X30057373Y-76274041D01*
X30046830Y-76284311D01*
X30030514Y-76299197D01*
X30013623Y-76313448D01*
X29996156Y-76327064D01*
X29978114Y-76340044D01*
X29959497Y-76352389D01*
X29940304Y-76364098D01*
X29920536Y-76375172D01*
X29900193Y-76385611D01*
X29879275Y-76395414D01*
X29857781Y-76404582D01*
X29843132Y-76410340D01*
X29820787Y-76418284D01*
X29798081Y-76425447D01*
X29775014Y-76431828D01*
X29751587Y-76437428D01*
X29727799Y-76442247D01*
X29703650Y-76446284D01*
X29679141Y-76449540D01*
X29654271Y-76452014D01*
X29629041Y-76453707D01*
X29603450Y-76454619D01*
X29586188Y-76454793D01*
X29561074Y-76454355D01*
X29536105Y-76453041D01*
X29511283Y-76450851D01*
X29486606Y-76447786D01*
X29462075Y-76443845D01*
X29437691Y-76439027D01*
X29413452Y-76433334D01*
X29389359Y-76426766D01*
X29365412Y-76419321D01*
X29341612Y-76411001D01*
X29325826Y-76404967D01*
X29302357Y-76395185D01*
X29279395Y-76384708D01*
X29256939Y-76373536D01*
X29234990Y-76361667D01*
X29213548Y-76349104D01*
X29192612Y-76335844D01*
X29172183Y-76321890D01*
X29152260Y-76307239D01*
X29132845Y-76291894D01*
X29113935Y-76275852D01*
X29101611Y-76264772D01*
X29083632Y-76247531D01*
X29066331Y-76229698D01*
X29049709Y-76211272D01*
X29033765Y-76192254D01*
X29018499Y-76172644D01*
X29003912Y-76152441D01*
X28990003Y-76131645D01*
X28976772Y-76110257D01*
X28964220Y-76088277D01*
X28952346Y-76065704D01*
X28944807Y-76050326D01*
X28934244Y-76026760D01*
X28924720Y-76002773D01*
X28916235Y-75978366D01*
X28908789Y-75953538D01*
X28902381Y-75928288D01*
X28897013Y-75902619D01*
X28892684Y-75876528D01*
X28889394Y-75850017D01*
X28887143Y-75823085D01*
X28886888Y-75817319D01*
X29073278Y-75817319D01*
X29073859Y-75838232D01*
X29075599Y-75858229D01*
X29079406Y-75881938D01*
X29085025Y-75904216D01*
X29092457Y-75925062D01*
X29101702Y-75944478D01*
X29110403Y-75958980D01*
X29122709Y-75975974D01*
X29136421Y-75991847D01*
X29151541Y-76006600D01*
X29168068Y-76020231D01*
X29186002Y-76032741D01*
X29205343Y-76044131D01*
X29213474Y-76048372D01*
X29234525Y-76058264D01*
X29256770Y-76067177D01*
X29275424Y-76073604D01*
X29294841Y-76079405D01*
X29315022Y-76084580D01*
X29335965Y-76089129D01*
X29357673Y-76093052D01*
X29368812Y-76094779D01*
X29391504Y-76097755D01*
X29414638Y-76100335D01*
X29438215Y-76102518D01*
X29462235Y-76104304D01*
X29486698Y-76105693D01*
X29511603Y-76106685D01*
X29536951Y-76107281D01*
X29562741Y-76107479D01*
X29582592Y-76107256D01*
X29602211Y-76106586D01*
X29628009Y-76104999D01*
X29653395Y-76102617D01*
X29678369Y-76099442D01*
X29702931Y-76095473D01*
X29727080Y-76090710D01*
X29750818Y-76085154D01*
X29762532Y-76082078D01*
X29785483Y-76075453D01*
X29807686Y-76068278D01*
X29829141Y-76060554D01*
X29849849Y-76052280D01*
X29869808Y-76043457D01*
X29889019Y-76034084D01*
X29907482Y-76024162D01*
X29925198Y-76013690D01*
X29941966Y-76002607D01*
X29957834Y-75991098D01*
X29976403Y-75976109D01*
X29993565Y-75960453D01*
X30009319Y-75944128D01*
X30023666Y-75927136D01*
X30034130Y-75913062D01*
X30045529Y-75895059D01*
X30054995Y-75876769D01*
X30062530Y-75858193D01*
X30068133Y-75839331D01*
X30072306Y-75816319D01*
X30073697Y-75792894D01*
X30073216Y-75772691D01*
X30071263Y-75748660D01*
X30067807Y-75725989D01*
X30062848Y-75704677D01*
X30056386Y-75684725D01*
X30048422Y-75666133D01*
X30042923Y-75655630D01*
X30032461Y-75638893D01*
X30020616Y-75623182D01*
X30007388Y-75608496D01*
X29992776Y-75594836D01*
X29976781Y-75582202D01*
X29959403Y-75570593D01*
X29952064Y-75566237D01*
X29932785Y-75555900D01*
X29912193Y-75546564D01*
X29890290Y-75538230D01*
X29867075Y-75530898D01*
X29847559Y-75525754D01*
X29827203Y-75521251D01*
X29806007Y-75517389D01*
X29783987Y-75513954D01*
X29761158Y-75510977D01*
X29737520Y-75508458D01*
X29713073Y-75506398D01*
X29687816Y-75504795D01*
X29661751Y-75503650D01*
X29641671Y-75503092D01*
X29621136Y-75502791D01*
X29607193Y-75502734D01*
X29587312Y-75502936D01*
X29567603Y-75503541D01*
X29548066Y-75504550D01*
X29522283Y-75506523D01*
X29496805Y-75509214D01*
X29471633Y-75512621D01*
X29446766Y-75516747D01*
X29422204Y-75521590D01*
X29403983Y-75525693D01*
X29380162Y-75531608D01*
X29357058Y-75538119D01*
X29334672Y-75545225D01*
X29313003Y-75552926D01*
X29292051Y-75561222D01*
X29271817Y-75570114D01*
X29252301Y-75579602D01*
X29233502Y-75589684D01*
X29215542Y-75600217D01*
X29198545Y-75611300D01*
X29182508Y-75622932D01*
X29163816Y-75638245D01*
X29146626Y-75654416D01*
X29130938Y-75671447D01*
X29116754Y-75689335D01*
X29104229Y-75707787D01*
X29093827Y-75726811D01*
X29085548Y-75746408D01*
X29079392Y-75766577D01*
X29075359Y-75787319D01*
X29073448Y-75808633D01*
X29073278Y-75817319D01*
X28886888Y-75817319D01*
X28885931Y-75795732D01*
X28885700Y-75777263D01*
X28886129Y-75751204D01*
X28887417Y-75725600D01*
X28889564Y-75700451D01*
X28892569Y-75675757D01*
X28896433Y-75651518D01*
X28901156Y-75627735D01*
X28906737Y-75604406D01*
X28913177Y-75581533D01*
X28920476Y-75559114D01*
X28928633Y-75537151D01*
X28934549Y-75522762D01*
X28944038Y-75501530D01*
X28954189Y-75480882D01*
X28965001Y-75460818D01*
X28976474Y-75441337D01*
X28988609Y-75422441D01*
X29001404Y-75404129D01*
X29014861Y-75386400D01*
X29028979Y-75369255D01*
X29043758Y-75352694D01*
X29059198Y-75336717D01*
X29069859Y-75326391D01*
X29086262Y-75311338D01*
X29103233Y-75296956D01*
X29120769Y-75283243D01*
X29138873Y-75270199D01*
X29157543Y-75257826D01*
X29176780Y-75246122D01*
X29196584Y-75235089D01*
X29216954Y-75224725D01*
X29237891Y-75215030D01*
X29259395Y-75206006D01*
X29274046Y-75200361D01*
X29296387Y-75192504D01*
X29319080Y-75185420D01*
X29342125Y-75179109D01*
X29365523Y-75173571D01*
X29389272Y-75168805D01*
X29413373Y-75164813D01*
X29437827Y-75161593D01*
X29462632Y-75159145D01*
X29487790Y-75157471D01*
X29513299Y-75156569D01*
X29530501Y-75156398D01*
X29553269Y-75156787D01*
G37*
G36*
X30198750Y-74163795D02*
G01*
X30099098Y-74163795D01*
X30092733Y-74140027D01*
X30086581Y-74118060D01*
X30080643Y-74097895D01*
X30073521Y-74075221D01*
X30066732Y-74055362D01*
X30059027Y-74035247D01*
X30054158Y-74024088D01*
X30044419Y-74005922D01*
X30032330Y-73990514D01*
X30015567Y-73982566D01*
X29395191Y-73982566D01*
X29372443Y-73982757D01*
X29350912Y-73983330D01*
X29330597Y-73984284D01*
X29307826Y-73985932D01*
X29286805Y-73988131D01*
X29270627Y-73990382D01*
X29249596Y-73994032D01*
X29230529Y-73998570D01*
X29211142Y-74004844D01*
X29192397Y-74013289D01*
X29190515Y-74014318D01*
X29173351Y-74025538D01*
X29158548Y-74040525D01*
X29148017Y-74058282D01*
X29141064Y-74078705D01*
X29137248Y-74100076D01*
X29135852Y-74121594D01*
X29135805Y-74126670D01*
X29136663Y-74147812D01*
X29138904Y-74167493D01*
X29142537Y-74187792D01*
X29144597Y-74197012D01*
X29149788Y-74216063D01*
X29156565Y-74236091D01*
X29163798Y-74254416D01*
X29172246Y-74273490D01*
X29174883Y-74279077D01*
X29184844Y-74298993D01*
X29194610Y-74316807D01*
X29205510Y-74335308D01*
X29217543Y-74354497D01*
X29228436Y-74371012D01*
X29233013Y-74377751D01*
X29244939Y-74394982D01*
X29257819Y-74412785D01*
X29271653Y-74431160D01*
X29286441Y-74450108D01*
X29298959Y-74465679D01*
X29312087Y-74481616D01*
X29325826Y-74497919D01*
X30015567Y-74497919D01*
X30033800Y-74488943D01*
X30047166Y-74471541D01*
X30056693Y-74453909D01*
X30058066Y-74451024D01*
X30066206Y-74431962D01*
X30074140Y-74409946D01*
X30080594Y-74389342D01*
X30086905Y-74366688D01*
X30091851Y-74347087D01*
X30096706Y-74326174D01*
X30099098Y-74315225D01*
X30198750Y-74315225D01*
X30198750Y-75008875D01*
X30099098Y-75008875D01*
X30093313Y-74986878D01*
X30087680Y-74966316D01*
X30082200Y-74947188D01*
X30075564Y-74925297D01*
X30069167Y-74905648D01*
X30061806Y-74885029D01*
X30057089Y-74873076D01*
X30048757Y-74855374D01*
X30037427Y-74839004D01*
X30019834Y-74828046D01*
X30015567Y-74827647D01*
X29256461Y-74827647D01*
X29234218Y-74827740D01*
X29214079Y-74828021D01*
X29193639Y-74828570D01*
X29173928Y-74829480D01*
X29171953Y-74829601D01*
X29151797Y-74832676D01*
X29133628Y-74839980D01*
X29122616Y-74848163D01*
X29110434Y-74863505D01*
X29101681Y-74882637D01*
X29096237Y-74901897D01*
X29092116Y-74922505D01*
X29088559Y-74943892D01*
X29085548Y-74964718D01*
X29082572Y-74987845D01*
X29080117Y-75008875D01*
X28984374Y-75008875D01*
X28982165Y-74988494D01*
X28979814Y-74968565D01*
X28977319Y-74949090D01*
X28974136Y-74926318D01*
X28970747Y-74904199D01*
X28967766Y-74886265D01*
X28964050Y-74865004D01*
X28960232Y-74844087D01*
X28956311Y-74823514D01*
X28952287Y-74803283D01*
X28948159Y-74783397D01*
X28946761Y-74776844D01*
X28942244Y-74757347D01*
X28937487Y-74738055D01*
X28932490Y-74718970D01*
X28927252Y-74700091D01*
X28920837Y-74678326D01*
X28919894Y-74675239D01*
X28914078Y-74656572D01*
X28907987Y-74637939D01*
X28901622Y-74619340D01*
X28894981Y-74600776D01*
X28888066Y-74582246D01*
X28885700Y-74576077D01*
X28943341Y-74518435D01*
X29140201Y-74503292D01*
X29123409Y-74483287D01*
X29107228Y-74463450D01*
X29091658Y-74443781D01*
X29076698Y-74424280D01*
X29062349Y-74404946D01*
X29048610Y-74385781D01*
X29035482Y-74366783D01*
X29022964Y-74347954D01*
X29011058Y-74329292D01*
X28999761Y-74310798D01*
X28989076Y-74292472D01*
X28979001Y-74274315D01*
X28969536Y-74256325D01*
X28960683Y-74238502D01*
X28948547Y-74212084D01*
X28944807Y-74203362D01*
X28934244Y-74177455D01*
X28924720Y-74152123D01*
X28916235Y-74127366D01*
X28908789Y-74103184D01*
X28902381Y-74079578D01*
X28897013Y-74056547D01*
X28892684Y-74034092D01*
X28889394Y-74012211D01*
X28887143Y-73990906D01*
X28885931Y-73970177D01*
X28885700Y-73956677D01*
X28886353Y-73934666D01*
X28888310Y-73912965D01*
X28891573Y-73891573D01*
X28896141Y-73870490D01*
X28902015Y-73849716D01*
X28904262Y-73842860D01*
X28912030Y-73822624D01*
X28921413Y-73803315D01*
X28932409Y-73784934D01*
X28945020Y-73767480D01*
X28959246Y-73750954D01*
X28964346Y-73745651D01*
X28980827Y-73730481D01*
X28999128Y-73716479D01*
X29015769Y-73705703D01*
X29033675Y-73695738D01*
X29052845Y-73686583D01*
X29073278Y-73678240D01*
X29094895Y-73670922D01*
X29117920Y-73664845D01*
X29137352Y-73660876D01*
X29157685Y-73657701D01*
X29178919Y-73655319D01*
X29201054Y-73653732D01*
X29224089Y-73652938D01*
X29235944Y-73652839D01*
X30015567Y-73652839D01*
X30033550Y-73645045D01*
X30034130Y-73644534D01*
X30046091Y-73628376D01*
X30052692Y-73615714D01*
X30060636Y-73596545D01*
X30067988Y-73576421D01*
X30073697Y-73559538D01*
X30079681Y-73540578D01*
X30085909Y-73519360D01*
X30091559Y-73498940D01*
X30097396Y-73476791D01*
X30099098Y-73470145D01*
X30198750Y-73470145D01*
X30198750Y-74163795D01*
G37*
D11*
G36*
X32592591Y-75537769D02*
G01*
X32586865Y-75548399D01*
X32580982Y-75558858D01*
X32574943Y-75569145D01*
X32568747Y-75579260D01*
X32562395Y-75589203D01*
X32555886Y-75598975D01*
X32549221Y-75608575D01*
X32542399Y-75618003D01*
X32535421Y-75627259D01*
X32528287Y-75636344D01*
X32520995Y-75645257D01*
X32513548Y-75653998D01*
X32505944Y-75662568D01*
X32498184Y-75670965D01*
X32490267Y-75679191D01*
X32482193Y-75687246D01*
X32473976Y-75695102D01*
X32465627Y-75702793D01*
X32457146Y-75710321D01*
X32448534Y-75717684D01*
X32439790Y-75724884D01*
X32430914Y-75731919D01*
X32421906Y-75738790D01*
X32412767Y-75745498D01*
X32403497Y-75752041D01*
X32394094Y-75758420D01*
X32384560Y-75764634D01*
X32374894Y-75770685D01*
X32365097Y-75776572D01*
X32355168Y-75782294D01*
X32345107Y-75787853D01*
X32334915Y-75793247D01*
X32324569Y-75798475D01*
X32314108Y-75803536D01*
X32303533Y-75808428D01*
X32292844Y-75813153D01*
X32282040Y-75817710D01*
X32271122Y-75822098D01*
X32260089Y-75826319D01*
X32248941Y-75830372D01*
X32237680Y-75834257D01*
X32226303Y-75837974D01*
X32214812Y-75841523D01*
X32203207Y-75844904D01*
X32191487Y-75848118D01*
X32179653Y-75851163D01*
X32167704Y-75854041D01*
X32155641Y-75856750D01*
X32143444Y-75859294D01*
X32131155Y-75861673D01*
X32118775Y-75863889D01*
X32106304Y-75865940D01*
X32093740Y-75867827D01*
X32081086Y-75869550D01*
X32068339Y-75871109D01*
X32055501Y-75872504D01*
X32042571Y-75873735D01*
X32029550Y-75874801D01*
X32016437Y-75875704D01*
X32003233Y-75876442D01*
X31989937Y-75877017D01*
X31976550Y-75877427D01*
X31963070Y-75877673D01*
X31949500Y-75877755D01*
X31935469Y-75877663D01*
X31921526Y-75877385D01*
X31907671Y-75876922D01*
X31893904Y-75876274D01*
X31880224Y-75875442D01*
X31866633Y-75874424D01*
X31853129Y-75873220D01*
X31839713Y-75871832D01*
X31826384Y-75870259D01*
X31813143Y-75868501D01*
X31799991Y-75866557D01*
X31786926Y-75864429D01*
X31773948Y-75862115D01*
X31761059Y-75859616D01*
X31748257Y-75856932D01*
X31735543Y-75854064D01*
X31722905Y-75851023D01*
X31710394Y-75847824D01*
X31698008Y-75844467D01*
X31685748Y-75840951D01*
X31673614Y-75837277D01*
X31661606Y-75833444D01*
X31649724Y-75829453D01*
X31637968Y-75825304D01*
X31626338Y-75820996D01*
X31614834Y-75816530D01*
X31603455Y-75811906D01*
X31592203Y-75807123D01*
X31581077Y-75802182D01*
X31570076Y-75797082D01*
X31559202Y-75791825D01*
X31548453Y-75786408D01*
X31537805Y-75780837D01*
X31527295Y-75775116D01*
X31516923Y-75769244D01*
X31506687Y-75763221D01*
X31496589Y-75757047D01*
X31486629Y-75750722D01*
X31476806Y-75744247D01*
X31467120Y-75737621D01*
X31457572Y-75730844D01*
X31448161Y-75723916D01*
X31438887Y-75716838D01*
X31429751Y-75709609D01*
X31420752Y-75702229D01*
X31411891Y-75694699D01*
X31403167Y-75687018D01*
X31394580Y-75679186D01*
X31386116Y-75671220D01*
X31377823Y-75663138D01*
X31369699Y-75654940D01*
X31361745Y-75646625D01*
X31353960Y-75638194D01*
X31346346Y-75629646D01*
X31338901Y-75620982D01*
X31331626Y-75612202D01*
X31324521Y-75603305D01*
X31317586Y-75594292D01*
X31310821Y-75585163D01*
X31304225Y-75575917D01*
X31297800Y-75566554D01*
X31291544Y-75557076D01*
X31285458Y-75547481D01*
X31279542Y-75537769D01*
X31331077Y-75500644D01*
X31338916Y-75508339D01*
X31347048Y-75515943D01*
X31355471Y-75523457D01*
X31364187Y-75530881D01*
X31373194Y-75538214D01*
X31382494Y-75545458D01*
X31392085Y-75552611D01*
X31401968Y-75559675D01*
X31412143Y-75566648D01*
X31422611Y-75573531D01*
X31429751Y-75578069D01*
X31440707Y-75584722D01*
X31451959Y-75591215D01*
X31463507Y-75597550D01*
X31475352Y-75603726D01*
X31487493Y-75609743D01*
X31499930Y-75615601D01*
X31512663Y-75621301D01*
X31525693Y-75626841D01*
X31539018Y-75632223D01*
X31552640Y-75637446D01*
X31561886Y-75640840D01*
X31571238Y-75644125D01*
X31580731Y-75647327D01*
X31590365Y-75650445D01*
X31600141Y-75653479D01*
X31610057Y-75656429D01*
X31620115Y-75659295D01*
X31630314Y-75662077D01*
X31640655Y-75664775D01*
X31651136Y-75667390D01*
X31661759Y-75669920D01*
X31672523Y-75672366D01*
X31683428Y-75674728D01*
X31694474Y-75677007D01*
X31705661Y-75679201D01*
X31716990Y-75681311D01*
X31728460Y-75683338D01*
X31740039Y-75685260D01*
X31751755Y-75687059D01*
X31763608Y-75688733D01*
X31775599Y-75690283D01*
X31787727Y-75691710D01*
X31799993Y-75693012D01*
X31812395Y-75694190D01*
X31824936Y-75695245D01*
X31837614Y-75696175D01*
X31850429Y-75696981D01*
X31863381Y-75697663D01*
X31876471Y-75698221D01*
X31889698Y-75698655D01*
X31903063Y-75698966D01*
X31916565Y-75699152D01*
X31930204Y-75699214D01*
X31942683Y-75699164D01*
X31955083Y-75699015D01*
X31967405Y-75698767D01*
X31979648Y-75698420D01*
X31991814Y-75697973D01*
X32003901Y-75697428D01*
X32015910Y-75696783D01*
X32027841Y-75696038D01*
X32039693Y-75695195D01*
X32051467Y-75694252D01*
X32063163Y-75693211D01*
X32074781Y-75692070D01*
X32086321Y-75690829D01*
X32097782Y-75689490D01*
X32109165Y-75688051D01*
X32120470Y-75686513D01*
X32131688Y-75684877D01*
X32142810Y-75683143D01*
X32153837Y-75681312D01*
X32164769Y-75679384D01*
X32175606Y-75677359D01*
X32186347Y-75675236D01*
X32196992Y-75673016D01*
X32207542Y-75670698D01*
X32217997Y-75668283D01*
X32228356Y-75665771D01*
X32238620Y-75663162D01*
X32248789Y-75660455D01*
X32258862Y-75657651D01*
X32268840Y-75654750D01*
X32278722Y-75651751D01*
X32288509Y-75648655D01*
X32298193Y-75645464D01*
X32307766Y-75642179D01*
X32317228Y-75638801D01*
X32326580Y-75635329D01*
X32335821Y-75631763D01*
X32344952Y-75628105D01*
X32358440Y-75622441D01*
X32371679Y-75616567D01*
X32384669Y-75610483D01*
X32397411Y-75604188D01*
X32409903Y-75597683D01*
X32422146Y-75590967D01*
X32430170Y-75586373D01*
X32441976Y-75579312D01*
X32453491Y-75572048D01*
X32464714Y-75564583D01*
X32475645Y-75556915D01*
X32486283Y-75549046D01*
X32496630Y-75540976D01*
X32506685Y-75532703D01*
X32516448Y-75524229D01*
X32525919Y-75515553D01*
X32535099Y-75506675D01*
X32541056Y-75500644D01*
X32592591Y-75537769D01*
G37*
G36*
X32262863Y-74980895D02*
G01*
X32270939Y-74992204D01*
X32278739Y-75003293D01*
X32286265Y-75014163D01*
X32293516Y-75024813D01*
X32300492Y-75035244D01*
X32307193Y-75045456D01*
X32313620Y-75055448D01*
X32319772Y-75065220D01*
X32325649Y-75074773D01*
X32331251Y-75084107D01*
X32336579Y-75093221D01*
X32341632Y-75102116D01*
X32346410Y-75110792D01*
X32353061Y-75123393D01*
X32359095Y-75135501D01*
X32364507Y-75147126D01*
X32369387Y-75158279D01*
X32373735Y-75168959D01*
X32377551Y-75179167D01*
X32380833Y-75188903D01*
X32384383Y-75201149D01*
X32386985Y-75212556D01*
X32388642Y-75223124D01*
X32389381Y-75235152D01*
X32388986Y-75246049D01*
X32387801Y-75256756D01*
X32385826Y-75267275D01*
X32383061Y-75277605D01*
X32379506Y-75287746D01*
X32378146Y-75291084D01*
X32373604Y-75300735D01*
X32368220Y-75309906D01*
X32361994Y-75318595D01*
X32354928Y-75326804D01*
X32347019Y-75334532D01*
X32344196Y-75337001D01*
X32335174Y-75344054D01*
X32327027Y-75349511D01*
X32318306Y-75354587D01*
X32309014Y-75359281D01*
X32299149Y-75363593D01*
X32288711Y-75367524D01*
X32286555Y-75368265D01*
X32275412Y-75371642D01*
X32263662Y-75374447D01*
X32253823Y-75376279D01*
X32243596Y-75377744D01*
X32232979Y-75378843D01*
X32221973Y-75379576D01*
X32210577Y-75379942D01*
X32204733Y-75379988D01*
X31826646Y-75379988D01*
X31826646Y-75463031D01*
X31799535Y-75483059D01*
X31732856Y-75429570D01*
X31732856Y-75379988D01*
X31586799Y-75379988D01*
X31482752Y-75241258D01*
X31505710Y-75215124D01*
X31732856Y-75215124D01*
X31732856Y-75005564D01*
X31759967Y-74980895D01*
X31768843Y-74985469D01*
X31778008Y-74990792D01*
X31786590Y-74996283D01*
X31795090Y-75002131D01*
X31803496Y-75008075D01*
X31811806Y-75014114D01*
X31813456Y-75015334D01*
X31821366Y-75021263D01*
X31829295Y-75027731D01*
X31836415Y-75034140D01*
X31843348Y-75041278D01*
X31849668Y-75048957D01*
X31850581Y-75050260D01*
X31846490Y-75059664D01*
X31843256Y-75068923D01*
X31842521Y-75071265D01*
X31839476Y-75081237D01*
X31836805Y-75091163D01*
X31834706Y-75099842D01*
X31832454Y-75109802D01*
X31830584Y-75120144D01*
X31829096Y-75130868D01*
X31828844Y-75133059D01*
X31827781Y-75143028D01*
X31827066Y-75153151D01*
X31826699Y-75163430D01*
X31826646Y-75169207D01*
X31826646Y-75215124D01*
X32140742Y-75215124D01*
X32151177Y-75215023D01*
X32161111Y-75214719D01*
X32172371Y-75214086D01*
X32182910Y-75213162D01*
X32192727Y-75211945D01*
X32198872Y-75210972D01*
X32208888Y-75208980D01*
X32219218Y-75206275D01*
X32229417Y-75202683D01*
X32237218Y-75199004D01*
X32246172Y-75193285D01*
X32253769Y-75186255D01*
X32257978Y-75180442D01*
X32262090Y-75171347D01*
X32264105Y-75161527D01*
X32264329Y-75156750D01*
X32263926Y-75146509D01*
X32262716Y-75136025D01*
X32261886Y-75131105D01*
X32259861Y-75121436D01*
X32257418Y-75111896D01*
X32254403Y-75101639D01*
X32254071Y-75100574D01*
X32250563Y-75090492D01*
X32246861Y-75080977D01*
X32242610Y-75070944D01*
X32238439Y-75061740D01*
X32233789Y-75051891D01*
X32229376Y-75042909D01*
X32224567Y-75033429D01*
X32219363Y-75023452D01*
X32214725Y-75014756D01*
X32212793Y-75011182D01*
X32262863Y-74980895D01*
G37*
G36*
X32373750Y-74513170D02*
G01*
X32323924Y-74513170D01*
X32320741Y-74501286D01*
X32317665Y-74490303D01*
X32314696Y-74480220D01*
X32311135Y-74468884D01*
X32307741Y-74458954D01*
X32303888Y-74448896D01*
X32301454Y-74443317D01*
X32296584Y-74434234D01*
X32290540Y-74426530D01*
X32282158Y-74422556D01*
X31982228Y-74422556D01*
X31972077Y-74422629D01*
X31960032Y-74422923D01*
X31948702Y-74423444D01*
X31938088Y-74424192D01*
X31928189Y-74425167D01*
X31917256Y-74426635D01*
X31913840Y-74427197D01*
X31904077Y-74429017D01*
X31893707Y-74431575D01*
X31883201Y-74435071D01*
X31874130Y-74439177D01*
X31871098Y-74440874D01*
X31862921Y-74446540D01*
X31855603Y-74453876D01*
X31850146Y-74462310D01*
X31848872Y-74465055D01*
X31845394Y-74474786D01*
X31843365Y-74484523D01*
X31842380Y-74495188D01*
X31842277Y-74500225D01*
X31842663Y-74510217D01*
X31843819Y-74520284D01*
X31845746Y-74530428D01*
X31848444Y-74540648D01*
X31851913Y-74550944D01*
X31856153Y-74561317D01*
X31861164Y-74571766D01*
X31866946Y-74582291D01*
X31873387Y-74593064D01*
X31878660Y-74601420D01*
X31884310Y-74610012D01*
X31890338Y-74618839D01*
X31896743Y-74627903D01*
X31903527Y-74637203D01*
X31910688Y-74646740D01*
X31918227Y-74656512D01*
X31926144Y-74666521D01*
X31934439Y-74676765D01*
X31937288Y-74680232D01*
X32282158Y-74680232D01*
X32291275Y-74675744D01*
X32297958Y-74667043D01*
X32302721Y-74658228D01*
X32303408Y-74656785D01*
X32307478Y-74647254D01*
X32311445Y-74636246D01*
X32314672Y-74625944D01*
X32317827Y-74614617D01*
X32320300Y-74604817D01*
X32322728Y-74594360D01*
X32323924Y-74588886D01*
X32373750Y-74588886D01*
X32373750Y-74935710D01*
X32323680Y-74935710D01*
X32320787Y-74924712D01*
X32317971Y-74914431D01*
X32315230Y-74904867D01*
X32311913Y-74893922D01*
X32308714Y-74884097D01*
X32305033Y-74873787D01*
X32302675Y-74867811D01*
X32298509Y-74858960D01*
X32292844Y-74850775D01*
X32284047Y-74845296D01*
X32281914Y-74845096D01*
X31504245Y-74845096D01*
X31493884Y-74845156D01*
X31482924Y-74845379D01*
X31471888Y-74845833D01*
X31461369Y-74846599D01*
X31459304Y-74846806D01*
X31449088Y-74848790D01*
X31439917Y-74852797D01*
X31434392Y-74857064D01*
X31428369Y-74864884D01*
X31424177Y-74874526D01*
X31421691Y-74884175D01*
X31419722Y-74894357D01*
X31417974Y-74904744D01*
X31416457Y-74914744D01*
X31414922Y-74925758D01*
X31413631Y-74935710D01*
X31365759Y-74935710D01*
X31364010Y-74923918D01*
X31362272Y-74912507D01*
X31360546Y-74901478D01*
X31358833Y-74890831D01*
X31357131Y-74880565D01*
X31355441Y-74870681D01*
X31354768Y-74866834D01*
X31352636Y-74855465D01*
X31350452Y-74844440D01*
X31348217Y-74833758D01*
X31345930Y-74823420D01*
X31343591Y-74813425D01*
X31342800Y-74810170D01*
X31340293Y-74800447D01*
X31337717Y-74790878D01*
X31335072Y-74781464D01*
X31331900Y-74770677D01*
X31328634Y-74760100D01*
X31325193Y-74749463D01*
X31321495Y-74738709D01*
X31318120Y-74729398D01*
X31314557Y-74720001D01*
X31310805Y-74710519D01*
X31339137Y-74680232D01*
X31839590Y-74680232D01*
X31831640Y-74670409D01*
X31823970Y-74660662D01*
X31816581Y-74650992D01*
X31809472Y-74641398D01*
X31802644Y-74631880D01*
X31796096Y-74622438D01*
X31789829Y-74613073D01*
X31783842Y-74603784D01*
X31778136Y-74594572D01*
X31772710Y-74585436D01*
X31767565Y-74576376D01*
X31762700Y-74567392D01*
X31758115Y-74558485D01*
X31753812Y-74549654D01*
X31747882Y-74536551D01*
X31746045Y-74532221D01*
X31740895Y-74519399D01*
X31736251Y-74506851D01*
X31732114Y-74494577D01*
X31728483Y-74482579D01*
X31725359Y-74470855D01*
X31722741Y-74459406D01*
X31720630Y-74448232D01*
X31719026Y-74437333D01*
X31717928Y-74426708D01*
X31717337Y-74416359D01*
X31717225Y-74409611D01*
X31717551Y-74398606D01*
X31718530Y-74387755D01*
X31720161Y-74377059D01*
X31722445Y-74366518D01*
X31725382Y-74356131D01*
X31726506Y-74352703D01*
X31730390Y-74342585D01*
X31735081Y-74332931D01*
X31740579Y-74323740D01*
X31746885Y-74315013D01*
X31753998Y-74306750D01*
X31756548Y-74304098D01*
X31764788Y-74296514D01*
X31773939Y-74289513D01*
X31782259Y-74284124D01*
X31791212Y-74279142D01*
X31800797Y-74274565D01*
X31811014Y-74270393D01*
X31821822Y-74266734D01*
X31833335Y-74263695D01*
X31843051Y-74261711D01*
X31853217Y-74260123D01*
X31863834Y-74258933D01*
X31874902Y-74258139D01*
X31886419Y-74257742D01*
X31892347Y-74257692D01*
X32282158Y-74257692D01*
X32291150Y-74253796D01*
X32291440Y-74253540D01*
X32297420Y-74245461D01*
X32300721Y-74239130D01*
X32304693Y-74229545D01*
X32308369Y-74219484D01*
X32311223Y-74211042D01*
X32314215Y-74201562D01*
X32317329Y-74190953D01*
X32320154Y-74180743D01*
X32323073Y-74169669D01*
X32323924Y-74166346D01*
X32373750Y-74166346D01*
X32373750Y-74513170D01*
G37*
G36*
X31997738Y-73527345D02*
G01*
X32003933Y-73535516D01*
X32005431Y-73537664D01*
X32010886Y-73545955D01*
X32016167Y-73554708D01*
X32020819Y-73563066D01*
X32025798Y-73572527D01*
X32030663Y-73582103D01*
X32034985Y-73590909D01*
X32039201Y-73600273D01*
X32043076Y-73609633D01*
X32045487Y-73616066D01*
X32045487Y-73940909D01*
X32058123Y-73940379D01*
X32070507Y-73939520D01*
X32082639Y-73938333D01*
X32094519Y-73936818D01*
X32106147Y-73934975D01*
X32117523Y-73932804D01*
X32128648Y-73930304D01*
X32139521Y-73927476D01*
X32150084Y-73924328D01*
X32160281Y-73920866D01*
X32170112Y-73917092D01*
X32179576Y-73913005D01*
X32188674Y-73908604D01*
X32197406Y-73903891D01*
X32207806Y-73897560D01*
X32213770Y-73893526D01*
X32223206Y-73886430D01*
X32231974Y-73878881D01*
X32240074Y-73870879D01*
X32247506Y-73862423D01*
X32254271Y-73853515D01*
X32260367Y-73844153D01*
X32262619Y-73840281D01*
X32267615Y-73830285D01*
X32271764Y-73819836D01*
X32275066Y-73808933D01*
X32277522Y-73797577D01*
X32279130Y-73785768D01*
X32279808Y-73775994D01*
X32279960Y-73768474D01*
X32279808Y-73757804D01*
X32279350Y-73747286D01*
X32278586Y-73736921D01*
X32277518Y-73726708D01*
X32275900Y-73716359D01*
X32273488Y-73705581D01*
X32270726Y-73695801D01*
X32267357Y-73685693D01*
X32266283Y-73682745D01*
X32262645Y-73673654D01*
X32258509Y-73664152D01*
X32253875Y-73654237D01*
X32248743Y-73643910D01*
X32244086Y-73634989D01*
X32241126Y-73629500D01*
X32235796Y-73619996D01*
X32229882Y-73609956D01*
X32224730Y-73601537D01*
X32219204Y-73592775D01*
X32213304Y-73583669D01*
X32207030Y-73574220D01*
X32200382Y-73564427D01*
X32196918Y-73559402D01*
X32202995Y-73551687D01*
X32205222Y-73549632D01*
X32212903Y-73542930D01*
X32218655Y-73538641D01*
X32226722Y-73532777D01*
X32231844Y-73529360D01*
X32240304Y-73524041D01*
X32240881Y-73523743D01*
X32249644Y-73532543D01*
X32258072Y-73541176D01*
X32266165Y-73549642D01*
X32273923Y-73557940D01*
X32281346Y-73566071D01*
X32288434Y-73574035D01*
X32295188Y-73581831D01*
X32301606Y-73589459D01*
X32309643Y-73599370D01*
X32317085Y-73608983D01*
X32324035Y-73618398D01*
X32330595Y-73627714D01*
X32336766Y-73636930D01*
X32342547Y-73646047D01*
X32347940Y-73655065D01*
X32352943Y-73663984D01*
X32357557Y-73672803D01*
X32361782Y-73681523D01*
X32366498Y-73692356D01*
X32370726Y-73703176D01*
X32374465Y-73713985D01*
X32377715Y-73724781D01*
X32380475Y-73735566D01*
X32382747Y-73746338D01*
X32383519Y-73750644D01*
X32385208Y-73761503D01*
X32386610Y-73772707D01*
X32387727Y-73784257D01*
X32388557Y-73796153D01*
X32389015Y-73805919D01*
X32389289Y-73815907D01*
X32389381Y-73826115D01*
X32389179Y-73837002D01*
X32388574Y-73847774D01*
X32387565Y-73858429D01*
X32386152Y-73868968D01*
X32384336Y-73879392D01*
X32382117Y-73889699D01*
X32379494Y-73899891D01*
X32376467Y-73909967D01*
X32373036Y-73919927D01*
X32369202Y-73929771D01*
X32366422Y-73936269D01*
X32361906Y-73945864D01*
X32357060Y-73955231D01*
X32351883Y-73964371D01*
X32346375Y-73973283D01*
X32340537Y-73981968D01*
X32334368Y-73990425D01*
X32327869Y-73998654D01*
X32321039Y-74006656D01*
X32313878Y-74014431D01*
X32306387Y-74021978D01*
X32301209Y-74026883D01*
X32293141Y-74034023D01*
X32284780Y-74040879D01*
X32276128Y-74047452D01*
X32267183Y-74053742D01*
X32257947Y-74059748D01*
X32248419Y-74065471D01*
X32238598Y-74070911D01*
X32228486Y-74076067D01*
X32218082Y-74080940D01*
X32207386Y-74085530D01*
X32200093Y-74088432D01*
X32188897Y-74092491D01*
X32177473Y-74096151D01*
X32165821Y-74099412D01*
X32153942Y-74102274D01*
X32141836Y-74104736D01*
X32129502Y-74106799D01*
X32116940Y-74108463D01*
X32104151Y-74109727D01*
X32091135Y-74110592D01*
X32077890Y-74111058D01*
X32068934Y-74111147D01*
X32057472Y-74111008D01*
X32046166Y-74110593D01*
X32035017Y-74109902D01*
X32024024Y-74108933D01*
X32013188Y-74107688D01*
X32002508Y-74106166D01*
X31991985Y-74104368D01*
X31981618Y-74102293D01*
X31971407Y-74099941D01*
X31961353Y-74097313D01*
X31951456Y-74094407D01*
X31941714Y-74091226D01*
X31932130Y-74087767D01*
X31922702Y-74084032D01*
X31913430Y-74080020D01*
X31904315Y-74075731D01*
X31895361Y-74071167D01*
X31886573Y-74066328D01*
X31877951Y-74061214D01*
X31869495Y-74055826D01*
X31861205Y-74050162D01*
X31853081Y-74044224D01*
X31845123Y-74038011D01*
X31837331Y-74031523D01*
X31829705Y-74024761D01*
X31822245Y-74017724D01*
X31814951Y-74010412D01*
X31807824Y-74002825D01*
X31800862Y-73994963D01*
X31794066Y-73986827D01*
X31787436Y-73978416D01*
X31780972Y-73969730D01*
X31775367Y-73961719D01*
X31769879Y-73953288D01*
X31764508Y-73944435D01*
X31759254Y-73935162D01*
X31756304Y-73929674D01*
X31751243Y-73919750D01*
X31746533Y-73909639D01*
X31742174Y-73899340D01*
X31738165Y-73888855D01*
X31736031Y-73882780D01*
X31732455Y-73872024D01*
X31729206Y-73861128D01*
X31726682Y-73851677D01*
X31724397Y-73842123D01*
X31722354Y-73832466D01*
X31720611Y-73822665D01*
X31719228Y-73812865D01*
X31718394Y-73804866D01*
X31795382Y-73804866D01*
X31795698Y-73814726D01*
X31796912Y-73825992D01*
X31799036Y-73836640D01*
X31802070Y-73846669D01*
X31806014Y-73856080D01*
X31808327Y-73860553D01*
X31813594Y-73869006D01*
X31819685Y-73876960D01*
X31826600Y-73884416D01*
X31834339Y-73891374D01*
X31842903Y-73897834D01*
X31845941Y-73899877D01*
X31855460Y-73905681D01*
X31865701Y-73911005D01*
X31874787Y-73915074D01*
X31884373Y-73918809D01*
X31894460Y-73922210D01*
X31905047Y-73925278D01*
X31916094Y-73928053D01*
X31927559Y-73930578D01*
X31939441Y-73932852D01*
X31949247Y-73934491D01*
X31959320Y-73935970D01*
X31969660Y-73937288D01*
X31980267Y-73938447D01*
X31982961Y-73938711D01*
X31982961Y-73710100D01*
X31982205Y-73699704D01*
X31978548Y-73690151D01*
X31977588Y-73689095D01*
X31968451Y-73684948D01*
X31958008Y-73683971D01*
X31957071Y-73683966D01*
X31947280Y-73684235D01*
X31936929Y-73685041D01*
X31926016Y-73686385D01*
X31916216Y-73687965D01*
X31907734Y-73689583D01*
X31897396Y-73691908D01*
X31887264Y-73694850D01*
X31877337Y-73698411D01*
X31867617Y-73702589D01*
X31858103Y-73707386D01*
X31854978Y-73709123D01*
X31845902Y-73714678D01*
X31837358Y-73720904D01*
X31829347Y-73727799D01*
X31821868Y-73735364D01*
X31814921Y-73743598D01*
X31812724Y-73746492D01*
X31806830Y-73755614D01*
X31802156Y-73765577D01*
X31798702Y-73776382D01*
X31796754Y-73786029D01*
X31795653Y-73796260D01*
X31795382Y-73804866D01*
X31718394Y-73804866D01*
X31718206Y-73803065D01*
X31717545Y-73793265D01*
X31717245Y-73783464D01*
X31717225Y-73780198D01*
X31717424Y-73767719D01*
X31718023Y-73755562D01*
X31719021Y-73743728D01*
X31720419Y-73732215D01*
X31722216Y-73721025D01*
X31724412Y-73710156D01*
X31727007Y-73699610D01*
X31730002Y-73689385D01*
X31733396Y-73679482D01*
X31737189Y-73669902D01*
X31739939Y-73663694D01*
X31744329Y-73654641D01*
X31748981Y-73645894D01*
X31755591Y-73634704D01*
X31762666Y-73624057D01*
X31770207Y-73613951D01*
X31778214Y-73604388D01*
X31786686Y-73595366D01*
X31795624Y-73586886D01*
X31800267Y-73582849D01*
X31809858Y-73575110D01*
X31819822Y-73567889D01*
X31830160Y-73561188D01*
X31840873Y-73555006D01*
X31851959Y-73549342D01*
X31863419Y-73544198D01*
X31875254Y-73539573D01*
X31887462Y-73535466D01*
X31899869Y-73531803D01*
X31912421Y-73528627D01*
X31925117Y-73525941D01*
X31937959Y-73523743D01*
X31947686Y-73522415D01*
X31957494Y-73521361D01*
X31967384Y-73520583D01*
X31977355Y-73520079D01*
X31987408Y-73519850D01*
X31990777Y-73519835D01*
X31997738Y-73527345D01*
G37*
G36*
X31563596Y-72218753D02*
G01*
X31565790Y-72230103D01*
X31567977Y-72240826D01*
X31570156Y-72250924D01*
X31572869Y-72262667D01*
X31575571Y-72273431D01*
X31578260Y-72283217D01*
X31580937Y-72292026D01*
X31584429Y-72301231D01*
X31589458Y-72310233D01*
X31596465Y-72318232D01*
X31604815Y-72323789D01*
X31608292Y-72325243D01*
X32313422Y-72583408D01*
X32322471Y-72587873D01*
X32330996Y-72594246D01*
X32338219Y-72601613D01*
X32340532Y-72604412D01*
X32346501Y-72612381D01*
X32352195Y-72620899D01*
X32357614Y-72629966D01*
X32362759Y-72639583D01*
X32367430Y-72649445D01*
X32371673Y-72659489D01*
X32375490Y-72669717D01*
X32378879Y-72680128D01*
X32381916Y-72690249D01*
X32384679Y-72699850D01*
X32387459Y-72710032D01*
X32389381Y-72717497D01*
X31608292Y-73030128D01*
X31598942Y-73035312D01*
X31591538Y-73041704D01*
X31584989Y-73049776D01*
X31579960Y-73058216D01*
X31575421Y-73068279D01*
X31571957Y-73078634D01*
X31569373Y-73088484D01*
X31567063Y-73099442D01*
X31565027Y-73111510D01*
X31563596Y-73121963D01*
X31514015Y-73121963D01*
X31514015Y-72771719D01*
X31563596Y-72771719D01*
X31564382Y-72781697D01*
X31565598Y-72793985D01*
X31567004Y-72805113D01*
X31568601Y-72815081D01*
X31570866Y-72825910D01*
X31573977Y-72836512D01*
X31577518Y-72844503D01*
X31583805Y-72852523D01*
X31592650Y-72856721D01*
X31603450Y-72855958D01*
X31607071Y-72854761D01*
X32174936Y-72631523D01*
X31608292Y-72427581D01*
X31598549Y-72425602D01*
X31591440Y-72426604D01*
X31583559Y-72432710D01*
X31579472Y-72439304D01*
X31575546Y-72449010D01*
X31572602Y-72459363D01*
X31570679Y-72468125D01*
X31568862Y-72478002D01*
X31567076Y-72489069D01*
X31565539Y-72499729D01*
X31564239Y-72509593D01*
X31563596Y-72514775D01*
X31514015Y-72514775D01*
X31514015Y-72218753D01*
X31563596Y-72218753D01*
G37*
G36*
X32073541Y-71549023D02*
G01*
X32081498Y-71555019D01*
X32089386Y-71561411D01*
X32097206Y-71568197D01*
X32104956Y-71575378D01*
X32107525Y-71577860D01*
X32114818Y-71585216D01*
X32122545Y-71593407D01*
X32129430Y-71601177D01*
X32136269Y-71609543D01*
X32139276Y-71613519D01*
X32139276Y-71651377D01*
X32279960Y-71651377D01*
X32289340Y-71647967D01*
X32290218Y-71647225D01*
X32296096Y-71639363D01*
X32299988Y-71632082D01*
X32303904Y-71622774D01*
X32307272Y-71613390D01*
X32310384Y-71603681D01*
X32310735Y-71602528D01*
X32313589Y-71592652D01*
X32316162Y-71583033D01*
X32318805Y-71572503D01*
X32321127Y-71562751D01*
X32322703Y-71555878D01*
X32373750Y-71555878D01*
X32373750Y-71953505D01*
X32322703Y-71953505D01*
X32320768Y-71942648D01*
X32318871Y-71932302D01*
X32317013Y-71922467D01*
X32314743Y-71910893D01*
X32312533Y-71900118D01*
X32310383Y-71890142D01*
X32308292Y-71880965D01*
X32305845Y-71870787D01*
X32303055Y-71860041D01*
X32300335Y-71850511D01*
X32297313Y-71841108D01*
X32295836Y-71837001D01*
X32291696Y-71827270D01*
X32286593Y-71818308D01*
X32284112Y-71815264D01*
X32275659Y-71809866D01*
X32272144Y-71809402D01*
X32139276Y-71809402D01*
X32139276Y-72134978D01*
X32111188Y-72163066D01*
X31567504Y-71832605D01*
X31564365Y-71823130D01*
X31560995Y-71813113D01*
X31559730Y-71809402D01*
X31696953Y-71809402D01*
X32045487Y-72028488D01*
X32045487Y-71809402D01*
X31696953Y-71809402D01*
X31559730Y-71809402D01*
X31557805Y-71803756D01*
X31555292Y-71796457D01*
X31551857Y-71786413D01*
X31548392Y-71776307D01*
X31544896Y-71766141D01*
X31541370Y-71755913D01*
X31537721Y-71745639D01*
X31534104Y-71735580D01*
X31530516Y-71725734D01*
X31526960Y-71716101D01*
X31523403Y-71706713D01*
X31519657Y-71696772D01*
X31516181Y-71687488D01*
X31514015Y-71681663D01*
X31543080Y-71651377D01*
X32045487Y-71651377D01*
X32045487Y-71561496D01*
X32065515Y-71543422D01*
X32073541Y-71549023D01*
G37*
G36*
X32373750Y-71463066D02*
G01*
X32323924Y-71463066D01*
X32322291Y-71450987D01*
X32320443Y-71439786D01*
X32318383Y-71429463D01*
X32315506Y-71417794D01*
X32312296Y-71407496D01*
X32308002Y-71396948D01*
X32304873Y-71391014D01*
X32299373Y-71382449D01*
X32292783Y-71374528D01*
X32284219Y-71369225D01*
X32282403Y-71369032D01*
X31613666Y-71369032D01*
X31606131Y-71377454D01*
X31599189Y-71385956D01*
X31592839Y-71394541D01*
X31587081Y-71403207D01*
X31581917Y-71411955D01*
X31577344Y-71420784D01*
X31572169Y-71432683D01*
X31568048Y-71444727D01*
X31564979Y-71456917D01*
X31563840Y-71463066D01*
X31514015Y-71463066D01*
X31514015Y-71271335D01*
X31514497Y-71261470D01*
X31515724Y-71254482D01*
X31519807Y-71245299D01*
X31522807Y-71241049D01*
X31529964Y-71233507D01*
X31538032Y-71226882D01*
X31538683Y-71226394D01*
X31546769Y-71220276D01*
X31554673Y-71214411D01*
X31562672Y-71208549D01*
X31567015Y-71205389D01*
X32142452Y-70785048D01*
X31605606Y-70785048D01*
X31596533Y-70789126D01*
X31595836Y-70789688D01*
X31588961Y-70797148D01*
X31584357Y-70804831D01*
X31580029Y-70813807D01*
X31576527Y-70822966D01*
X31573458Y-70832515D01*
X31573121Y-70833652D01*
X31570511Y-70843269D01*
X31568053Y-70854046D01*
X31566028Y-70864428D01*
X31564120Y-70875698D01*
X31563596Y-70879081D01*
X31514015Y-70879081D01*
X31514015Y-70587211D01*
X31563596Y-70587211D01*
X31565401Y-70599186D01*
X31567397Y-70610322D01*
X31569584Y-70620619D01*
X31572585Y-70632308D01*
X31575885Y-70642686D01*
X31580239Y-70653408D01*
X31583380Y-70659507D01*
X31588784Y-70668262D01*
X31595286Y-70676359D01*
X31603792Y-70681780D01*
X31605606Y-70681977D01*
X32389381Y-70681977D01*
X32388245Y-70694112D01*
X32386851Y-70705788D01*
X32385199Y-70717004D01*
X32383290Y-70727761D01*
X32381124Y-70738059D01*
X32378699Y-70747897D01*
X32375066Y-70760300D01*
X32370975Y-70771886D01*
X32366426Y-70782656D01*
X32363980Y-70787734D01*
X32358893Y-70797355D01*
X32353645Y-70806312D01*
X32348238Y-70814605D01*
X32341253Y-70824037D01*
X32334017Y-70832432D01*
X32326531Y-70839789D01*
X32318795Y-70846108D01*
X31744824Y-71265962D01*
X32282158Y-71265962D01*
X32291088Y-71261950D01*
X32292172Y-71261077D01*
X32298569Y-71253572D01*
X32303652Y-71244957D01*
X32308014Y-71235603D01*
X32311596Y-71226391D01*
X32314780Y-71217000D01*
X32315131Y-71215892D01*
X32317696Y-71206321D01*
X32320016Y-71195681D01*
X32321846Y-71185494D01*
X32323489Y-71174490D01*
X32323924Y-71171195D01*
X32373750Y-71171195D01*
X32373750Y-71463066D01*
G37*
G36*
X31921900Y-70168579D02*
G01*
X31935932Y-70168671D01*
X31949877Y-70168949D01*
X31963737Y-70169411D01*
X31977511Y-70170059D01*
X31991199Y-70170892D01*
X32004802Y-70171910D01*
X32018318Y-70173113D01*
X32031748Y-70174501D01*
X32045093Y-70176075D01*
X32058352Y-70177833D01*
X32071525Y-70179777D01*
X32084612Y-70181905D01*
X32097613Y-70184219D01*
X32110528Y-70186717D01*
X32123358Y-70189401D01*
X32136101Y-70192270D01*
X32148711Y-70195311D01*
X32161201Y-70198510D01*
X32173571Y-70201867D01*
X32185820Y-70205383D01*
X32197949Y-70209057D01*
X32209958Y-70212890D01*
X32221847Y-70216880D01*
X32233615Y-70221030D01*
X32245263Y-70225337D01*
X32256792Y-70229803D01*
X32268199Y-70234428D01*
X32279487Y-70239211D01*
X32290654Y-70244152D01*
X32301702Y-70249251D01*
X32312629Y-70254509D01*
X32323435Y-70259925D01*
X32334113Y-70265496D01*
X32344650Y-70271218D01*
X32355049Y-70277090D01*
X32365308Y-70283113D01*
X32375428Y-70289287D01*
X32385408Y-70295612D01*
X32395250Y-70302087D01*
X32404952Y-70308713D01*
X32414514Y-70315490D01*
X32423938Y-70322417D01*
X32433222Y-70329495D01*
X32442366Y-70336725D01*
X32451372Y-70344104D01*
X32460238Y-70351635D01*
X32468965Y-70359316D01*
X32477553Y-70367148D01*
X32486016Y-70375085D01*
X32494310Y-70383142D01*
X32502434Y-70391319D01*
X32510388Y-70399617D01*
X32518172Y-70408035D01*
X32525787Y-70416573D01*
X32533231Y-70425231D01*
X32540506Y-70434009D01*
X32547611Y-70442908D01*
X32554546Y-70451927D01*
X32561312Y-70461066D01*
X32567907Y-70470325D01*
X32574333Y-70479705D01*
X32580589Y-70489205D01*
X32586675Y-70498824D01*
X32592591Y-70508565D01*
X32541056Y-70545690D01*
X32533216Y-70537997D01*
X32525085Y-70530400D01*
X32516661Y-70522896D01*
X32507946Y-70515487D01*
X32498938Y-70508173D01*
X32489639Y-70500953D01*
X32480048Y-70493828D01*
X32470164Y-70486796D01*
X32459989Y-70479860D01*
X32449522Y-70473018D01*
X32442382Y-70468509D01*
X32431424Y-70461813D01*
X32420165Y-70455280D01*
X32408606Y-70448910D01*
X32396746Y-70442703D01*
X32384586Y-70436659D01*
X32372126Y-70430779D01*
X32359364Y-70425062D01*
X32346303Y-70419508D01*
X32332940Y-70414117D01*
X32319278Y-70408889D01*
X32310002Y-70405494D01*
X32300593Y-70402180D01*
X32291050Y-70398953D01*
X32281374Y-70395814D01*
X32271564Y-70392763D01*
X32261621Y-70389800D01*
X32251544Y-70386924D01*
X32241334Y-70384136D01*
X32230990Y-70381436D01*
X32220512Y-70378824D01*
X32209901Y-70376299D01*
X32199156Y-70373863D01*
X32188278Y-70371514D01*
X32177266Y-70369253D01*
X32166120Y-70367079D01*
X32154841Y-70364994D01*
X32143428Y-70362996D01*
X32131877Y-70361073D01*
X32120180Y-70359275D01*
X32108338Y-70357601D01*
X32096351Y-70356050D01*
X32084219Y-70354624D01*
X32071942Y-70353322D01*
X32059520Y-70352143D01*
X32046953Y-70351089D01*
X32034240Y-70350159D01*
X32021383Y-70349353D01*
X32008381Y-70348670D01*
X31995234Y-70348112D01*
X31981942Y-70347678D01*
X31968505Y-70347368D01*
X31954923Y-70347182D01*
X31941195Y-70347120D01*
X31928805Y-70347170D01*
X31916485Y-70347319D01*
X31904236Y-70347567D01*
X31892057Y-70347914D01*
X31879949Y-70348360D01*
X31867911Y-70348906D01*
X31855944Y-70349551D01*
X31844048Y-70350295D01*
X31832222Y-70351139D01*
X31820467Y-70352081D01*
X31808782Y-70353123D01*
X31797168Y-70354264D01*
X31785625Y-70355504D01*
X31774152Y-70356844D01*
X31762750Y-70358283D01*
X31751419Y-70359821D01*
X31740143Y-70361457D01*
X31728967Y-70363191D01*
X31717894Y-70365021D01*
X31706921Y-70366950D01*
X31696049Y-70368975D01*
X31685279Y-70371098D01*
X31674609Y-70373318D01*
X31664041Y-70375635D01*
X31653574Y-70378050D01*
X31643208Y-70380562D01*
X31632943Y-70383172D01*
X31622779Y-70385878D01*
X31612716Y-70388682D01*
X31602755Y-70391584D01*
X31592895Y-70394582D01*
X31583135Y-70397678D01*
X31573452Y-70400840D01*
X31563878Y-70404097D01*
X31554416Y-70407450D01*
X31545064Y-70410898D01*
X31535823Y-70414441D01*
X31526692Y-70418080D01*
X31513204Y-70423717D01*
X31499965Y-70429569D01*
X31486975Y-70435636D01*
X31474234Y-70441917D01*
X31461741Y-70448413D01*
X31449498Y-70455123D01*
X31441475Y-70459716D01*
X31429631Y-70466780D01*
X31418096Y-70474050D01*
X31406870Y-70481526D01*
X31395954Y-70489208D01*
X31385346Y-70497097D01*
X31375048Y-70505191D01*
X31365059Y-70513491D01*
X31355379Y-70521998D01*
X31346008Y-70530711D01*
X31336946Y-70539629D01*
X31331077Y-70545690D01*
X31279542Y-70508565D01*
X31285268Y-70497993D01*
X31291151Y-70487590D01*
X31297190Y-70477355D01*
X31303386Y-70467288D01*
X31309738Y-70457388D01*
X31316247Y-70447657D01*
X31322912Y-70438093D01*
X31329733Y-70428697D01*
X31336712Y-70419469D01*
X31343846Y-70410410D01*
X31351137Y-70401518D01*
X31358585Y-70392794D01*
X31366189Y-70384237D01*
X31373949Y-70375849D01*
X31381866Y-70367629D01*
X31389939Y-70359576D01*
X31398157Y-70351661D01*
X31406506Y-70343914D01*
X31414987Y-70336335D01*
X31423599Y-70328924D01*
X31432343Y-70321681D01*
X31441219Y-70314605D01*
X31450226Y-70307698D01*
X31459365Y-70300958D01*
X31468636Y-70294387D01*
X31478038Y-70287983D01*
X31487573Y-70281747D01*
X31497238Y-70275679D01*
X31507036Y-70269779D01*
X31516965Y-70264047D01*
X31527025Y-70258483D01*
X31537218Y-70253087D01*
X31547505Y-70247858D01*
X31557910Y-70242798D01*
X31568433Y-70237905D01*
X31579075Y-70233181D01*
X31589835Y-70228624D01*
X31600713Y-70224235D01*
X31611710Y-70220015D01*
X31622825Y-70215962D01*
X31634058Y-70212077D01*
X31645410Y-70208360D01*
X31656880Y-70204810D01*
X31668468Y-70201429D01*
X31680174Y-70198216D01*
X31691999Y-70195171D01*
X31703942Y-70192293D01*
X31716004Y-70189583D01*
X31728171Y-70187040D01*
X31740432Y-70184660D01*
X31752786Y-70182445D01*
X31765234Y-70180394D01*
X31777775Y-70178507D01*
X31790410Y-70176784D01*
X31803138Y-70175225D01*
X31815960Y-70173830D01*
X31828875Y-70172599D01*
X31841884Y-70171532D01*
X31854986Y-70170630D01*
X31868182Y-70169891D01*
X31881471Y-70169317D01*
X31894854Y-70168907D01*
X31908330Y-70168661D01*
X31921900Y-70168579D01*
G37*
G36*
X137741620Y-102344024D02*
G01*
X137712153Y-102373491D01*
X137682687Y-102344024D01*
X137712153Y-102314558D01*
X137741620Y-102344024D01*
G37*
G36*
X140550746Y-100860884D02*
G01*
X140542656Y-100895920D01*
X140511457Y-100900173D01*
X140462949Y-100878610D01*
X140472169Y-100860884D01*
X140542108Y-100853831D01*
X140550746Y-100860884D01*
G37*
G36*
X137437850Y-101513339D02*
G01*
X137501117Y-101572678D01*
X137488139Y-101606792D01*
X137479900Y-101607365D01*
X137430054Y-101565507D01*
X137411862Y-101539327D01*
X137404916Y-101499000D01*
X137437850Y-101513339D01*
G37*
G36*
X138151750Y-103005598D02*
G01*
X138154149Y-103021751D01*
X138134042Y-103079151D01*
X138128160Y-103080683D01*
X138077845Y-103039387D01*
X138065750Y-103021751D01*
X138070422Y-102967445D01*
X138091738Y-102962818D01*
X138151750Y-103005598D01*
G37*
G36*
X138625610Y-103522679D02*
G01*
X138681831Y-103575636D01*
X138684543Y-103585089D01*
X138638947Y-103610402D01*
X138625610Y-103611078D01*
X138568942Y-103565773D01*
X138566678Y-103548667D01*
X138602782Y-103513470D01*
X138625610Y-103522679D01*
G37*
G36*
X139080350Y-98439732D02*
G01*
X139090215Y-98630091D01*
X139080350Y-98763862D01*
X139067503Y-98800423D01*
X139058616Y-98733493D01*
X139055799Y-98601797D01*
X139059454Y-98456304D01*
X139068967Y-98401775D01*
X139080350Y-98439732D01*
G37*
G36*
X139273870Y-103994140D02*
G01*
X139330091Y-104047098D01*
X139332803Y-104056551D01*
X139287207Y-104081864D01*
X139273870Y-104082539D01*
X139217202Y-104037235D01*
X139214938Y-104020129D01*
X139251042Y-103984932D01*
X139273870Y-103994140D01*
G37*
G36*
X138609212Y-98468844D02*
G01*
X138609388Y-98470254D01*
X138619012Y-98662443D01*
X138608787Y-98823850D01*
X138596507Y-98856402D01*
X138587933Y-98786282D01*
X138584939Y-98631263D01*
X138588481Y-98480026D01*
X138597198Y-98421767D01*
X138609212Y-98468844D01*
G37*
G36*
X139607523Y-98762124D02*
G01*
X139611464Y-98793328D01*
X139621000Y-99014617D01*
X139611464Y-99235324D01*
X139600923Y-99287157D01*
X139592902Y-99233430D01*
X139588686Y-99086441D01*
X139588347Y-99014326D01*
X139590907Y-98837253D01*
X139597728Y-98749086D01*
X139607523Y-98762124D01*
G37*
G36*
X141657542Y-101401101D02*
G01*
X141587124Y-101675138D01*
X141458677Y-101989383D01*
X141294752Y-102298024D01*
X141117899Y-102555249D01*
X141053314Y-102628620D01*
X140893681Y-102784160D01*
X140777104Y-102880300D01*
X140714080Y-102913731D01*
X140715106Y-102881145D01*
X140790679Y-102779233D01*
X140874828Y-102684877D01*
X141181922Y-102284622D01*
X141447948Y-101786138D01*
X141581229Y-101460034D01*
X141691013Y-101165370D01*
X141657542Y-101401101D01*
G37*
G36*
X142166567Y-102334202D02*
G01*
X142240150Y-102334202D01*
X142248240Y-102369238D01*
X142279439Y-102373491D01*
X142327947Y-102351928D01*
X142318727Y-102334202D01*
X142248788Y-102327149D01*
X142240150Y-102334202D01*
X142166567Y-102334202D01*
X142161573Y-102314558D01*
X142203245Y-102216063D01*
X142279439Y-102196693D01*
X142377933Y-102238364D01*
X142397304Y-102314558D01*
X142355632Y-102413053D01*
X142279439Y-102432423D01*
X142180944Y-102390752D01*
X142166567Y-102334202D01*
G37*
G36*
X140629323Y-104023607D02*
G01*
X140717722Y-104023607D01*
X140722394Y-104077912D01*
X140743710Y-104082539D01*
X140803723Y-104039760D01*
X140806121Y-104023607D01*
X140786014Y-103966206D01*
X140780133Y-103964674D01*
X140729818Y-104005970D01*
X140717722Y-104023607D01*
X140629323Y-104023607D01*
X140670994Y-103925112D01*
X140747188Y-103905741D01*
X140845683Y-103947413D01*
X140865054Y-104023607D01*
X140823382Y-104122101D01*
X140747188Y-104141472D01*
X140648693Y-104099800D01*
X140629323Y-104023607D01*
G37*
G36*
X140327056Y-97110871D02*
G01*
X140464300Y-97152500D01*
X140662345Y-97218048D01*
X140761921Y-97252329D01*
X141004614Y-97330376D01*
X141223902Y-97389597D01*
X141382266Y-97420203D01*
X141413659Y-97422354D01*
X141522791Y-97440154D01*
X141542780Y-97482075D01*
X141450223Y-97530448D01*
X141263465Y-97523193D01*
X140980005Y-97460743D01*
X140822314Y-97406307D01*
X140640459Y-97326787D01*
X140467076Y-97238854D01*
X140334800Y-97159179D01*
X140276267Y-97104435D01*
X140275726Y-97100979D01*
X140327056Y-97110871D01*
G37*
G36*
X141242705Y-103552145D02*
G01*
X141365982Y-103552145D01*
X141370654Y-103606451D01*
X141391970Y-103611078D01*
X141451982Y-103568298D01*
X141454381Y-103552145D01*
X141434274Y-103494744D01*
X141428392Y-103493212D01*
X141378077Y-103534509D01*
X141365982Y-103552145D01*
X141242705Y-103552145D01*
X141239146Y-103513378D01*
X141321181Y-103446520D01*
X141398926Y-103434280D01*
X141494943Y-103477636D01*
X141513313Y-103552145D01*
X141467941Y-103641493D01*
X141368333Y-103673825D01*
X141269257Y-103636972D01*
X141248116Y-103611078D01*
X141242705Y-103552145D01*
G37*
G36*
X141794166Y-102025817D02*
G01*
X141741461Y-102160975D01*
X141660580Y-102338765D01*
X141499896Y-102597934D01*
X141266229Y-102874995D01*
X140992774Y-103136676D01*
X140712728Y-103349701D01*
X140567762Y-103434150D01*
X140424875Y-103503393D01*
X140342897Y-103537441D01*
X140334659Y-103535490D01*
X140393376Y-103487778D01*
X140521475Y-103390293D01*
X140693084Y-103262678D01*
X140722259Y-103241210D01*
X141190854Y-102827217D01*
X141569927Y-102337780D01*
X141655033Y-102196606D01*
X141750767Y-102038874D01*
X141797206Y-101983531D01*
X141794166Y-102025817D01*
G37*
G36*
X142417323Y-101548433D02*
G01*
X142515170Y-101548433D01*
X142535277Y-101605833D01*
X142541158Y-101607365D01*
X142591473Y-101566069D01*
X142603569Y-101548433D01*
X142598896Y-101494127D01*
X142577580Y-101489500D01*
X142517568Y-101532280D01*
X142515170Y-101548433D01*
X142417323Y-101548433D01*
X142420677Y-101468731D01*
X142495920Y-101414622D01*
X142597694Y-101434140D01*
X142625275Y-101456510D01*
X142674475Y-101552013D01*
X142665996Y-101601710D01*
X142573841Y-101662617D01*
X142467823Y-101638029D01*
X142416333Y-101571951D01*
X142417323Y-101548433D01*
G37*
G36*
X141770331Y-103021751D02*
G01*
X141866910Y-103021751D01*
X141887017Y-103079151D01*
X141892898Y-103080683D01*
X141943213Y-103039387D01*
X141955309Y-103021751D01*
X141950636Y-102967445D01*
X141929320Y-102962818D01*
X141869308Y-103005598D01*
X141866910Y-103021751D01*
X141770331Y-103021751D01*
X141769828Y-102936454D01*
X141796190Y-102892099D01*
X141896493Y-102854279D01*
X141993201Y-102894112D01*
X142034804Y-102986753D01*
X142032653Y-103006162D01*
X141971832Y-103100169D01*
X141871963Y-103127521D01*
X141785116Y-103079191D01*
X141770507Y-103051611D01*
X141770331Y-103021751D01*
G37*
G36*
X140557073Y-95800144D02*
G01*
X140711288Y-95862133D01*
X140887207Y-95941560D01*
X141057012Y-96026496D01*
X141192885Y-96105007D01*
X141195409Y-96106655D01*
X141358567Y-96253196D01*
X141517222Y-96462075D01*
X141654412Y-96701200D01*
X141753177Y-96938479D01*
X141796552Y-97141822D01*
X141789760Y-97231135D01*
X141767338Y-97303200D01*
X141757979Y-97260036D01*
X141755881Y-97229652D01*
X141694969Y-97005970D01*
X141551990Y-96749766D01*
X141347724Y-96486088D01*
X141102956Y-96239982D01*
X140838466Y-96036494D01*
X140698113Y-95954854D01*
X140546422Y-95869324D01*
X140443616Y-95796372D01*
X140425029Y-95776215D01*
X140452381Y-95767528D01*
X140557073Y-95800144D01*
G37*
G36*
X141346854Y-98631263D02*
G01*
X141413709Y-98631263D01*
X141416784Y-98787816D01*
X141425419Y-98856676D01*
X141437557Y-98823850D01*
X141447813Y-98644659D01*
X141438158Y-98470254D01*
X141426112Y-98421674D01*
X141417339Y-98478595D01*
X141413714Y-98628662D01*
X141413709Y-98631263D01*
X141346854Y-98631263D01*
X141347014Y-98615314D01*
X141348598Y-98567761D01*
X141360991Y-98330904D01*
X141380717Y-98187445D01*
X141414264Y-98112919D01*
X141468125Y-98082861D01*
X141477795Y-98080782D01*
X141530963Y-98078521D01*
X141561582Y-98111320D01*
X141573188Y-98200928D01*
X141569317Y-98369100D01*
X141557632Y-98571953D01*
X141531282Y-98850409D01*
X141493863Y-99052161D01*
X141449211Y-99166243D01*
X141401160Y-99181684D01*
X141365263Y-99122104D01*
X141351169Y-99023420D01*
X141344730Y-98842631D01*
X141346854Y-98631263D01*
G37*
G36*
X140824186Y-98953341D02*
G01*
X140898423Y-98953341D01*
X140901011Y-99072640D01*
X140915503Y-99093340D01*
X140923755Y-99073259D01*
X140951007Y-98932890D01*
X140970773Y-98728157D01*
X140977045Y-98577242D01*
X140977141Y-98367391D01*
X140969560Y-98270687D01*
X140956037Y-98282786D01*
X140938306Y-98399345D01*
X140918103Y-98616020D01*
X140908388Y-98749129D01*
X140898423Y-98953341D01*
X140824186Y-98953341D01*
X140824651Y-98932933D01*
X140837054Y-98686764D01*
X140860543Y-98374412D01*
X140886453Y-98166726D01*
X140917133Y-98050505D01*
X140954931Y-98012550D01*
X140957041Y-98012470D01*
X141013495Y-98021182D01*
X141050167Y-98059716D01*
X141069363Y-98146667D01*
X141073390Y-98300630D01*
X141064553Y-98540201D01*
X141051593Y-98774886D01*
X141023802Y-99120967D01*
X140986989Y-99352311D01*
X140940210Y-99471766D01*
X140882519Y-99482183D01*
X140835389Y-99426534D01*
X140822782Y-99344416D01*
X140819223Y-99171108D01*
X140824186Y-98953341D01*
G37*
G36*
X140328432Y-99312073D02*
G01*
X140397796Y-99312073D01*
X140404972Y-99409249D01*
X140414974Y-99421944D01*
X140427066Y-99356217D01*
X140441991Y-99199816D01*
X140457412Y-98979818D01*
X140465465Y-98837528D01*
X140473608Y-98620633D01*
X140472532Y-98478641D01*
X140462829Y-98427321D01*
X140451055Y-98454465D01*
X140432323Y-98573531D01*
X140416489Y-98749430D01*
X140404696Y-98951557D01*
X140398084Y-99149307D01*
X140397796Y-99312073D01*
X140328432Y-99312073D01*
X140331652Y-99184461D01*
X140341816Y-98910126D01*
X140354832Y-98642346D01*
X140369692Y-98412176D01*
X140372425Y-98377864D01*
X140395575Y-98152276D01*
X140423072Y-98023246D01*
X140461662Y-97969489D01*
X140503024Y-97965969D01*
X140550798Y-97993417D01*
X140577536Y-98068351D01*
X140587052Y-98214067D01*
X140583163Y-98453864D01*
X140583124Y-98455099D01*
X140563368Y-98936594D01*
X140537933Y-99305077D01*
X140506220Y-99565294D01*
X140467632Y-99721989D01*
X140421572Y-99779907D01*
X140416134Y-99780451D01*
X140338090Y-99754321D01*
X140328349Y-99736252D01*
X140323911Y-99628579D01*
X140325348Y-99434298D01*
X140328432Y-99312073D01*
G37*
G36*
X136678872Y-92764729D02*
G01*
X136829850Y-92764729D01*
X136860835Y-92775946D01*
X136972598Y-92750784D01*
X137012598Y-92737992D01*
X138802409Y-92737992D01*
X138831875Y-92767458D01*
X138861341Y-92737992D01*
X138831875Y-92708526D01*
X138802409Y-92737992D01*
X137012598Y-92737992D01*
X137049693Y-92726129D01*
X137253846Y-92675668D01*
X137505109Y-92639984D01*
X137652760Y-92630232D01*
X137917309Y-92631979D01*
X138215734Y-92647330D01*
X138389880Y-92662994D01*
X138584662Y-92681921D01*
X138673324Y-92681848D01*
X138666215Y-92661864D01*
X138625610Y-92642220D01*
X138420112Y-92586434D01*
X138139378Y-92552876D01*
X137824056Y-92542249D01*
X137514796Y-92555252D01*
X137252243Y-92592588D01*
X137161820Y-92616962D01*
X136987647Y-92681255D01*
X136864872Y-92738580D01*
X136829850Y-92764729D01*
X136678872Y-92764729D01*
X136892073Y-92628958D01*
X137047418Y-92543879D01*
X137105485Y-92497138D01*
X137076180Y-92478034D01*
X137034038Y-92475539D01*
X136872716Y-92490249D01*
X136688461Y-92529548D01*
X136684345Y-92530720D01*
X136522444Y-92568943D01*
X136464874Y-92562881D01*
X136508444Y-92516532D01*
X136649961Y-92433893D01*
X136834096Y-92343146D01*
X137272560Y-92192472D01*
X137711194Y-92145738D01*
X138129792Y-92203771D01*
X138345680Y-92281327D01*
X138526137Y-92349531D01*
X138611231Y-92350270D01*
X138606813Y-92325463D01*
X139069067Y-92325463D01*
X139312569Y-92620126D01*
X139522238Y-92908088D01*
X139706087Y-93223682D01*
X139840979Y-93524502D01*
X139887101Y-93673136D01*
X139924783Y-93782099D01*
X139959210Y-93810762D01*
X139959917Y-93810105D01*
X139962335Y-93740618D01*
X139934997Y-93594892D01*
X139899759Y-93460869D01*
X139725268Y-93044916D01*
X139466797Y-92679619D01*
X139274601Y-92494281D01*
X139069067Y-92325463D01*
X138606813Y-92325463D01*
X138599600Y-92284958D01*
X138489888Y-92155009D01*
X138478289Y-92143317D01*
X138330967Y-91995996D01*
X138551955Y-92035599D01*
X138953716Y-92158841D01*
X139317029Y-92368186D01*
X139621330Y-92645711D01*
X139846055Y-92973495D01*
X139954160Y-93257621D01*
X139997439Y-93372823D01*
X140039168Y-93415718D01*
X140123061Y-93365201D01*
X140200267Y-93242249D01*
X140230725Y-93150521D01*
X140255926Y-93100501D01*
X140298664Y-93137042D01*
X140370356Y-93271181D01*
X140383104Y-93297853D01*
X140475130Y-93581594D01*
X140508944Y-93892458D01*
X140480716Y-94178112D01*
X140453983Y-94266406D01*
X140422736Y-94383562D01*
X140456070Y-94407814D01*
X140557826Y-94339589D01*
X140620228Y-94284976D01*
X140714445Y-94205480D01*
X140741885Y-94206259D01*
X140727159Y-94260329D01*
X140693513Y-94395356D01*
X140688255Y-94451691D01*
X140651075Y-94541003D01*
X140556273Y-94676069D01*
X140487019Y-94757845D01*
X140368391Y-94901942D01*
X140324650Y-95000589D01*
X140342392Y-95086415D01*
X140347736Y-95096878D01*
X140525940Y-95338595D01*
X140792780Y-95548638D01*
X140982919Y-95656034D01*
X141381128Y-95922400D01*
X141715242Y-96272361D01*
X141955943Y-96670232D01*
X142049506Y-96936940D01*
X142124412Y-97267565D01*
X142175973Y-97623982D01*
X142199501Y-97968069D01*
X142190310Y-98261704D01*
X142167966Y-98394558D01*
X142110561Y-98566944D01*
X142010897Y-98812767D01*
X141882918Y-99101859D01*
X141740566Y-99404051D01*
X141597783Y-99689176D01*
X141468512Y-99927066D01*
X141428742Y-99994070D01*
X141279702Y-100237155D01*
X141449806Y-100471976D01*
X141647427Y-100692960D01*
X141898353Y-100871093D01*
X142228131Y-101022465D01*
X142442018Y-101096828D01*
X142658145Y-101175526D01*
X142793212Y-101260813D01*
X142857263Y-101376756D01*
X142860339Y-101547423D01*
X142812484Y-101796885D01*
X142783542Y-101915325D01*
X142570209Y-102527059D01*
X142250176Y-103090831D01*
X141825538Y-103604020D01*
X141298389Y-104064006D01*
X140803531Y-104392362D01*
X140560598Y-104530688D01*
X140341363Y-104647148D01*
X140173668Y-104727420D01*
X140097706Y-104755438D01*
X139973359Y-104750784D01*
X139786513Y-104688071D01*
X139597377Y-104597890D01*
X139996993Y-104597890D01*
X140031378Y-104611142D01*
X140119616Y-104585878D01*
X140278655Y-104517559D01*
X140476183Y-104420226D01*
X140502839Y-104406260D01*
X141090871Y-104048216D01*
X141600168Y-103639564D01*
X142019038Y-103191537D01*
X142335788Y-102715369D01*
X142404012Y-102579755D01*
X142513918Y-102319939D01*
X142608288Y-102050431D01*
X142681823Y-101793425D01*
X142729224Y-101571114D01*
X142745193Y-101405692D01*
X142724432Y-101319352D01*
X142706701Y-101311897D01*
X142619030Y-101297336D01*
X142538246Y-101277739D01*
X142470079Y-101271782D01*
X142419844Y-101312566D01*
X142373959Y-101422318D01*
X142318840Y-101623262D01*
X142313044Y-101646256D01*
X142104719Y-102241042D01*
X141794350Y-102778683D01*
X141385106Y-103255161D01*
X140880159Y-103666455D01*
X140566143Y-103861538D01*
X140346218Y-103984782D01*
X140162878Y-104086219D01*
X140041800Y-104151709D01*
X140010529Y-104167515D01*
X140003773Y-104213040D01*
X140054729Y-104258845D01*
X140139799Y-104348716D01*
X140157861Y-104406669D01*
X140112102Y-104501817D01*
X140054729Y-104549281D01*
X139996993Y-104597890D01*
X139597377Y-104597890D01*
X139522099Y-104561997D01*
X139469251Y-104534357D01*
X139265054Y-104410731D01*
X139813463Y-104410731D01*
X139824056Y-104461641D01*
X139871247Y-104546588D01*
X139898650Y-104519037D01*
X139900555Y-104436136D01*
X139981063Y-104436136D01*
X140001170Y-104493536D01*
X140007051Y-104495068D01*
X140057366Y-104453772D01*
X140069462Y-104436136D01*
X140064789Y-104381830D01*
X140043474Y-104377203D01*
X139983461Y-104419983D01*
X139981063Y-104436136D01*
X139900555Y-104436136D01*
X139901163Y-104409676D01*
X139878166Y-104317907D01*
X139840639Y-104317316D01*
X139813463Y-104410731D01*
X139265054Y-104410731D01*
X138832755Y-104149006D01*
X138677791Y-104023607D01*
X139156005Y-104023607D01*
X139197677Y-104122101D01*
X139273870Y-104141472D01*
X139372365Y-104099800D01*
X139391736Y-104023607D01*
X139350064Y-103925112D01*
X139273870Y-103905741D01*
X139175376Y-103947413D01*
X139156005Y-104023607D01*
X138677791Y-104023607D01*
X138422895Y-103817342D01*
X139686399Y-103817342D01*
X139715866Y-103846809D01*
X139745332Y-103817342D01*
X139715866Y-103787876D01*
X139686399Y-103817342D01*
X138422895Y-103817342D01*
X138302543Y-103719952D01*
X138151832Y-103552145D01*
X138507745Y-103552145D01*
X138534663Y-103646656D01*
X138634791Y-103660135D01*
X138640344Y-103659376D01*
X138744015Y-103611209D01*
X138772942Y-103552145D01*
X138722777Y-103475906D01*
X138640344Y-103444914D01*
X138536911Y-103455816D01*
X138507776Y-103546870D01*
X138507745Y-103552145D01*
X138151832Y-103552145D01*
X137873638Y-103242395D01*
X137717022Y-102992401D01*
X137986677Y-102992401D01*
X138026511Y-103089109D01*
X138119151Y-103130712D01*
X138138561Y-103128562D01*
X138236915Y-103060603D01*
X138260960Y-103006162D01*
X138234000Y-102906954D01*
X138143090Y-102856286D01*
X138039742Y-102879006D01*
X138024497Y-102892099D01*
X137986677Y-102992401D01*
X137717022Y-102992401D01*
X137541062Y-102711529D01*
X137504806Y-102638688D01*
X137386416Y-102362025D01*
X137383444Y-102353325D01*
X137585318Y-102353325D01*
X137667352Y-102420183D01*
X137745098Y-102432423D01*
X137841114Y-102389067D01*
X137859485Y-102314558D01*
X137814112Y-102225210D01*
X137714505Y-102192878D01*
X137615429Y-102229731D01*
X137594288Y-102255625D01*
X137585318Y-102353325D01*
X137383444Y-102353325D01*
X137285377Y-102066224D01*
X137208794Y-101779701D01*
X137167597Y-101552013D01*
X137346584Y-101552013D01*
X137355062Y-101601710D01*
X137447217Y-101662617D01*
X137553236Y-101638029D01*
X137604725Y-101571951D01*
X137603967Y-101553940D01*
X137804858Y-101553940D01*
X137824979Y-101686154D01*
X137884421Y-101888121D01*
X137970057Y-102124043D01*
X138068760Y-102358121D01*
X138167403Y-102554555D01*
X138179293Y-102575046D01*
X138371037Y-102836784D01*
X138638810Y-103117923D01*
X138951632Y-103388449D01*
X139213594Y-103577116D01*
X139375325Y-103675957D01*
X139510206Y-103747129D01*
X139601449Y-103784744D01*
X139632267Y-103782914D01*
X139585872Y-103735754D01*
X139511674Y-103681652D01*
X139051658Y-103343021D01*
X138823826Y-103141546D01*
X139990516Y-103141546D01*
X139990948Y-103465426D01*
X139996543Y-103696908D01*
X140007923Y-103848692D01*
X140025712Y-103933479D01*
X140050533Y-103963971D01*
X140056020Y-103964674D01*
X140137595Y-103935244D01*
X140291802Y-103856356D01*
X140492016Y-103742110D01*
X140602320Y-103675355D01*
X141126405Y-103300713D01*
X141544433Y-102885695D01*
X141864075Y-102420893D01*
X142092998Y-101896897D01*
X142119674Y-101813630D01*
X142199085Y-101548614D01*
X142242109Y-101373064D01*
X142247954Y-101264084D01*
X142215827Y-101198776D01*
X142144933Y-101154245D01*
X142096099Y-101133194D01*
X141920203Y-101046531D01*
X141735090Y-100936207D01*
X141718899Y-100925373D01*
X141523822Y-100792991D01*
X141385969Y-100940814D01*
X141160344Y-101121168D01*
X140860328Y-101275812D01*
X140529256Y-101384833D01*
X140346442Y-101418534D01*
X140010529Y-101460458D01*
X139994624Y-102712566D01*
X139990516Y-103141546D01*
X138823826Y-103141546D01*
X138686072Y-103019728D01*
X138455207Y-102756553D01*
X139529804Y-102756553D01*
X139532043Y-102943022D01*
X139538363Y-103043176D01*
X139547608Y-103044151D01*
X139552439Y-103008575D01*
X139561978Y-102799357D01*
X139558259Y-102668154D01*
X139767618Y-102668154D01*
X139769179Y-102897433D01*
X139773444Y-103040169D01*
X139779791Y-103086429D01*
X139787596Y-103026282D01*
X139788883Y-103007017D01*
X139797344Y-102737241D01*
X139794239Y-102445413D01*
X139788883Y-102329291D01*
X139780909Y-102251947D01*
X139774298Y-102282535D01*
X139769673Y-102411120D01*
X139767657Y-102627772D01*
X139767618Y-102668154D01*
X139558259Y-102668154D01*
X139555492Y-102570545D01*
X139552828Y-102537113D01*
X139542794Y-102474589D01*
X139534949Y-102518954D01*
X139530442Y-102659238D01*
X139529804Y-102756553D01*
X138455207Y-102756553D01*
X138397298Y-102690540D01*
X138230986Y-102432423D01*
X139234751Y-102432423D01*
X139237311Y-102609497D01*
X139244131Y-102697663D01*
X139253927Y-102684625D01*
X139257868Y-102653421D01*
X139267404Y-102432133D01*
X139257868Y-102211426D01*
X139247327Y-102159592D01*
X139239306Y-102213319D01*
X139235090Y-102360309D01*
X139234751Y-102432423D01*
X138230986Y-102432423D01*
X138167715Y-102334226D01*
X137979705Y-101929553D01*
X137915154Y-101757719D01*
X137857258Y-101611992D01*
X137817000Y-101542601D01*
X137804858Y-101553940D01*
X137603967Y-101553940D01*
X137600382Y-101468731D01*
X137525138Y-101414622D01*
X137423364Y-101434140D01*
X137395783Y-101456510D01*
X137346584Y-101552013D01*
X137167597Y-101552013D01*
X137163772Y-101530873D01*
X137157415Y-101348156D01*
X137168943Y-101295381D01*
X137240640Y-101232094D01*
X137391311Y-101159829D01*
X137546200Y-101107113D01*
X137962167Y-100952259D01*
X137996291Y-100932072D01*
X138600328Y-100932072D01*
X138605897Y-100953566D01*
X138676132Y-101034207D01*
X138684543Y-101043494D01*
X138938197Y-101253360D01*
X139248011Y-101405740D01*
X139565845Y-101478285D01*
X139627467Y-101481265D01*
X139660259Y-101467838D01*
X139590722Y-101429586D01*
X139445302Y-101377741D01*
X139325824Y-101330033D01*
X139972915Y-101330033D01*
X140293027Y-101296994D01*
X140545308Y-101247170D01*
X140807715Y-101160101D01*
X140901161Y-101117900D01*
X141089250Y-101009136D01*
X141248829Y-100894085D01*
X141307049Y-100839641D01*
X141354716Y-100778028D01*
X141326644Y-100780794D01*
X141214762Y-100850566D01*
X141159717Y-100887627D01*
X140980195Y-100997847D01*
X140815436Y-101079785D01*
X140747188Y-101103737D01*
X140682247Y-101111694D01*
X140719281Y-101077134D01*
X140817035Y-101020466D01*
X140962882Y-100930689D01*
X141060926Y-100852600D01*
X141074755Y-100835678D01*
X141063254Y-100815101D01*
X140979515Y-100855900D01*
X140975442Y-100858457D01*
X140811108Y-100941419D01*
X140688255Y-100984312D01*
X140624966Y-100992268D01*
X140665410Y-100956213D01*
X140758103Y-100902600D01*
X140900943Y-100814832D01*
X140991497Y-100742729D01*
X141018764Y-100700909D01*
X140971743Y-100703989D01*
X140874467Y-100747973D01*
X140722722Y-100818872D01*
X140650819Y-100837737D01*
X140668310Y-100806226D01*
X140776654Y-100730995D01*
X140944066Y-100606054D01*
X141099773Y-100458882D01*
X141100784Y-100457763D01*
X141167738Y-100379131D01*
X141164598Y-100365509D01*
X141083258Y-100419868D01*
X140965809Y-100507224D01*
X140672327Y-100689884D01*
X140347893Y-100806592D01*
X140128395Y-100851990D01*
X140044306Y-100897097D01*
X140001729Y-101015436D01*
X139991722Y-101100860D01*
X139972915Y-101330033D01*
X139325824Y-101330033D01*
X139196732Y-101278486D01*
X138937591Y-101145460D01*
X138826508Y-101076637D01*
X138670256Y-100972253D01*
X138600328Y-100932072D01*
X137996291Y-100932072D01*
X138299422Y-100752746D01*
X138535214Y-100524967D01*
X138582139Y-100451813D01*
X138887774Y-100451813D01*
X138899659Y-100491611D01*
X139009101Y-100584641D01*
X139028568Y-100598694D01*
X139301713Y-100758737D01*
X139555783Y-100828144D01*
X139656933Y-100833562D01*
X139753500Y-100830122D01*
X139755779Y-100814461D01*
X139655885Y-100778073D01*
X139584612Y-100755513D01*
X139366326Y-100672362D01*
X139151429Y-100568452D01*
X139120456Y-100550796D01*
X139047798Y-100513166D01*
X139981063Y-100513166D01*
X139998667Y-100636582D01*
X140024322Y-100688057D01*
X140121148Y-100712001D01*
X140287917Y-100688159D01*
X140490943Y-100624902D01*
X140696539Y-100530598D01*
X140726885Y-100513500D01*
X140922643Y-100371810D01*
X141105671Y-100195818D01*
X141144258Y-100149561D01*
X141290068Y-99956639D01*
X141361323Y-99846415D01*
X141360441Y-99812326D01*
X141289843Y-99847813D01*
X141244024Y-99879031D01*
X140783760Y-100139824D01*
X140290460Y-100308723D01*
X140107002Y-100359794D01*
X140013288Y-100413223D01*
X139982224Y-100486914D01*
X139981063Y-100513166D01*
X139047798Y-100513166D01*
X138964391Y-100469969D01*
X138887774Y-100451813D01*
X138582139Y-100451813D01*
X138646455Y-100351546D01*
X138674820Y-100203858D01*
X138621271Y-100038996D01*
X138548921Y-99911879D01*
X138465504Y-99764498D01*
X138616283Y-99764498D01*
X138636804Y-99795758D01*
X138733114Y-99892713D01*
X138758648Y-99917116D01*
X139070982Y-100156486D01*
X139403140Y-100309133D01*
X139715866Y-100361957D01*
X139792727Y-100356176D01*
X139774975Y-100333118D01*
X139654730Y-100287268D01*
X139568534Y-100258843D01*
X139201517Y-100122308D01*
X138903002Y-99965605D01*
X138676875Y-99806155D01*
X138616283Y-99764498D01*
X138465504Y-99764498D01*
X138422227Y-99688037D01*
X138279017Y-99406265D01*
X138135018Y-99100770D01*
X138005955Y-98805758D01*
X137907555Y-98555435D01*
X137865237Y-98424741D01*
X137834430Y-98208466D01*
X138448095Y-98208466D01*
X138451121Y-98383372D01*
X138459361Y-98553997D01*
X138476726Y-98790945D01*
X138500100Y-98986549D01*
X138525229Y-99107667D01*
X138532641Y-99124796D01*
X138594117Y-99178784D01*
X138639700Y-99123400D01*
X138667359Y-98966318D01*
X138675062Y-98715212D01*
X138672343Y-98596969D01*
X138663357Y-98409423D01*
X138963548Y-98409423D01*
X138970455Y-98696102D01*
X138971243Y-98721122D01*
X138981934Y-98993061D01*
X138994730Y-99220890D01*
X139007954Y-99379256D01*
X139018920Y-99441588D01*
X139095407Y-99483956D01*
X139180440Y-99433740D01*
X139188730Y-99421583D01*
X139201007Y-99340019D01*
X139204306Y-99167170D01*
X139198717Y-98929264D01*
X139186196Y-98681760D01*
X139165806Y-98388574D01*
X139145641Y-98194762D01*
X139121792Y-98081907D01*
X139116199Y-98072957D01*
X139424208Y-98072957D01*
X139425438Y-98239618D01*
X139433708Y-98471743D01*
X139447417Y-98743353D01*
X139464964Y-99028470D01*
X139484751Y-99301116D01*
X139505175Y-99535313D01*
X139524638Y-99705082D01*
X139541540Y-99784446D01*
X139541689Y-99784693D01*
X139608903Y-99809997D01*
X139657390Y-99780072D01*
X139699103Y-99704248D01*
X139716577Y-99554247D01*
X139711747Y-99310645D01*
X139709026Y-99261549D01*
X139682566Y-98830281D01*
X139679863Y-98791934D01*
X139981063Y-98791934D01*
X139982478Y-99183757D01*
X139986450Y-99535365D01*
X139992566Y-99829913D01*
X140000416Y-100050557D01*
X140009588Y-100180452D01*
X140015653Y-100207926D01*
X140091057Y-100212973D01*
X140243555Y-100181733D01*
X140441622Y-100123673D01*
X140653732Y-100048264D01*
X140848358Y-99964976D01*
X140885398Y-99946688D01*
X141219036Y-99717418D01*
X141522844Y-99394537D01*
X141779533Y-99001629D01*
X141971816Y-98562281D01*
X142022412Y-98395532D01*
X142076038Y-98190072D01*
X142094635Y-98053307D01*
X142061764Y-97968343D01*
X141960986Y-97918286D01*
X141775865Y-97886239D01*
X141497555Y-97856108D01*
X141182544Y-97815447D01*
X140906434Y-97759133D01*
X140630723Y-97676143D01*
X140316910Y-97555451D01*
X140054729Y-97442973D01*
X140030452Y-97456376D01*
X140011796Y-97528045D01*
X139998152Y-97669115D01*
X139988912Y-97890724D01*
X139983468Y-98204007D01*
X139981212Y-98620101D01*
X139981063Y-98791934D01*
X139679863Y-98791934D01*
X139659504Y-98503163D01*
X139638056Y-98266593D01*
X139616440Y-98106968D01*
X139592871Y-98010687D01*
X139565566Y-97964148D01*
X139537517Y-97953537D01*
X139446818Y-97981476D01*
X139431617Y-97997737D01*
X139424208Y-98072957D01*
X139116199Y-98072957D01*
X139090348Y-98031590D01*
X139047399Y-98025393D01*
X139046861Y-98025499D01*
X139005049Y-98047017D01*
X138978674Y-98104859D01*
X138965564Y-98219001D01*
X138963548Y-98409423D01*
X138663357Y-98409423D01*
X138660587Y-98351603D01*
X138642355Y-98200388D01*
X138611762Y-98119609D01*
X138562919Y-98085555D01*
X138544250Y-98080984D01*
X138490699Y-98079344D01*
X138459968Y-98114480D01*
X138448095Y-98208466D01*
X137834430Y-98208466D01*
X137827169Y-98157488D01*
X137828653Y-97819347D01*
X137838909Y-97715621D01*
X138242548Y-97715621D01*
X138679756Y-97682698D01*
X138949844Y-97649222D01*
X139222500Y-97594413D01*
X139419941Y-97536419D01*
X139604958Y-97467251D01*
X139741260Y-97406136D01*
X139836426Y-97334805D01*
X139898036Y-97234992D01*
X139933668Y-97088429D01*
X139950903Y-96876849D01*
X139957319Y-96581984D01*
X139960071Y-96234623D01*
X139961451Y-95869595D01*
X139958466Y-95619780D01*
X139950976Y-95482600D01*
X139938838Y-95455479D01*
X139921911Y-95535839D01*
X139921700Y-95537296D01*
X139895886Y-95774301D01*
X139876563Y-96059535D01*
X139869026Y-96280463D01*
X139860182Y-96542863D01*
X139843034Y-96804337D01*
X139824720Y-96980222D01*
X139792658Y-97153868D01*
X139735375Y-97256733D01*
X139619218Y-97332984D01*
X139521632Y-97377994D01*
X139336660Y-97446262D01*
X139083817Y-97522173D01*
X138811068Y-97591598D01*
X138749784Y-97605332D01*
X138242548Y-97715621D01*
X137838909Y-97715621D01*
X137864915Y-97452609D01*
X138097669Y-97452609D01*
X138154504Y-97231371D01*
X138217002Y-97043754D01*
X138309647Y-96823936D01*
X138355107Y-96730443D01*
X138630951Y-96317319D01*
X139005222Y-95963963D01*
X139008673Y-95961322D01*
X139185471Y-95826248D01*
X138994735Y-95918605D01*
X138664118Y-96138696D01*
X138395832Y-96437003D01*
X138208107Y-96787291D01*
X138119172Y-97163325D01*
X138117765Y-97180707D01*
X138097669Y-97452609D01*
X137864915Y-97452609D01*
X137865292Y-97448792D01*
X137932688Y-97084299D01*
X138026443Y-96764345D01*
X138066185Y-96666618D01*
X138260677Y-96335247D01*
X138523729Y-96029279D01*
X138822866Y-95782287D01*
X139038323Y-95661586D01*
X139328693Y-95487019D01*
X139568666Y-95253885D01*
X139673347Y-95097121D01*
X139685702Y-95038392D01*
X140098928Y-95038392D01*
X140098928Y-96160983D01*
X140098928Y-97283573D01*
X140326287Y-97411356D01*
X140710447Y-97574907D01*
X141159288Y-97679197D01*
X141583008Y-97713928D01*
X141799960Y-97711077D01*
X141926608Y-97692806D01*
X141990181Y-97652550D01*
X142010801Y-97610782D01*
X142021339Y-97460246D01*
X141993114Y-97241590D01*
X141934622Y-96994670D01*
X141854358Y-96759343D01*
X141807144Y-96655384D01*
X141555959Y-96279895D01*
X141228179Y-95970132D01*
X140945594Y-95796067D01*
X140682482Y-95631172D01*
X140428960Y-95411063D01*
X140361539Y-95338595D01*
X140098928Y-95038392D01*
X139685702Y-95038392D01*
X139701905Y-94961369D01*
X139654781Y-94825942D01*
X139484064Y-94614603D01*
X139246937Y-94484311D01*
X138969064Y-94442531D01*
X138676109Y-94496728D01*
X138611611Y-94522526D01*
X138355376Y-94688175D01*
X138178560Y-94928105D01*
X138075075Y-95252219D01*
X138050111Y-95435646D01*
X138030698Y-95632514D01*
X138013601Y-95725854D01*
X137990820Y-95729554D01*
X137954355Y-95657499D01*
X137940627Y-95625695D01*
X137881427Y-95395414D01*
X137865079Y-95117333D01*
X137890788Y-94844770D01*
X137913760Y-94770398D01*
X138078892Y-94770398D01*
X138142022Y-94721702D01*
X138222622Y-94640906D01*
X138377284Y-94498607D01*
X138531811Y-94389649D01*
X138590004Y-94360976D01*
X138904611Y-94302371D01*
X139239171Y-94350150D01*
X139475011Y-94447325D01*
X139620274Y-94518004D01*
X139705521Y-94546396D01*
X139715521Y-94534882D01*
X139700167Y-94521736D01*
X140226101Y-94521736D01*
X140255501Y-94494572D01*
X140268605Y-94476507D01*
X140316834Y-94368997D01*
X140368669Y-94195080D01*
X140392026Y-94093444D01*
X140420601Y-93860555D01*
X140411606Y-93660218D01*
X140403154Y-93621983D01*
X140377222Y-93549546D01*
X140357740Y-93557874D01*
X140341023Y-93658965D01*
X140323391Y-93864817D01*
X140321758Y-93887180D01*
X140300585Y-94119436D01*
X140274810Y-94317347D01*
X140249713Y-94441008D01*
X140247700Y-94447041D01*
X140226101Y-94521736D01*
X139700167Y-94521736D01*
X139643811Y-94473485D01*
X139506196Y-94388641D01*
X139436566Y-94351447D01*
X139149620Y-94257163D01*
X138845332Y-94243521D01*
X138560523Y-94307230D01*
X138332013Y-94444995D01*
X138325815Y-94450805D01*
X138194306Y-94589342D01*
X138095136Y-94716917D01*
X138080194Y-94741704D01*
X138078892Y-94770398D01*
X137913760Y-94770398D01*
X137955382Y-94635645D01*
X138051279Y-94447041D01*
X137888936Y-94594372D01*
X137753439Y-94747354D01*
X137650283Y-94913482D01*
X137648014Y-94918502D01*
X137594552Y-95032639D01*
X137572800Y-95044145D01*
X137567637Y-94958553D01*
X137567491Y-94947969D01*
X137593749Y-94787919D01*
X137653584Y-94631835D01*
X137714522Y-94505751D01*
X137741542Y-94431566D01*
X137741620Y-94430031D01*
X137711297Y-94426397D01*
X137635681Y-94492678D01*
X137537799Y-94602749D01*
X137440678Y-94730480D01*
X137367347Y-94849744D01*
X137361877Y-94860896D01*
X137298862Y-95081514D01*
X137273756Y-95367057D01*
X137286803Y-95670764D01*
X137338246Y-95945876D01*
X137355943Y-96001348D01*
X137402639Y-96147708D01*
X137420733Y-96234351D01*
X137417360Y-96244488D01*
X137376647Y-96198177D01*
X137298041Y-96079141D01*
X137233925Y-95973062D01*
X137118948Y-95696934D01*
X137052792Y-95369522D01*
X137039447Y-95035541D01*
X137055765Y-94924451D01*
X137116576Y-94924451D01*
X137157465Y-94876765D01*
X137242330Y-94721875D01*
X137460632Y-94405117D01*
X137675764Y-94207769D01*
X137898444Y-94067380D01*
X138154913Y-93937519D01*
X138272014Y-93889428D01*
X138430376Y-93828104D01*
X138479325Y-93799520D01*
X138422010Y-93801465D01*
X138389880Y-93806735D01*
X138170506Y-93871643D01*
X137912813Y-93985451D01*
X137669740Y-94122469D01*
X137530119Y-94223946D01*
X137347895Y-94421992D01*
X137198257Y-94660226D01*
X137120572Y-94863164D01*
X137116576Y-94924451D01*
X137055765Y-94924451D01*
X137082900Y-94739712D01*
X137115525Y-94645686D01*
X137324616Y-94298452D01*
X137629499Y-93995445D01*
X137796199Y-93877273D01*
X137954081Y-93771245D01*
X138009142Y-93720278D01*
X137963405Y-93725579D01*
X137818892Y-93788356D01*
X137724539Y-93834495D01*
X137417708Y-94032631D01*
X137138163Y-94293857D01*
X136926900Y-94578821D01*
X136902252Y-94623839D01*
X136794211Y-94934406D01*
X136748829Y-95299988D01*
X136767839Y-95674705D01*
X136850102Y-96005245D01*
X136912263Y-96180798D01*
X136947452Y-96306472D01*
X136949825Y-96348735D01*
X136910214Y-96317336D01*
X136836023Y-96210128D01*
X136744798Y-96057015D01*
X136654083Y-95887902D01*
X136581422Y-95732694D01*
X136566598Y-95695524D01*
X136502369Y-95386422D01*
X136510254Y-95029176D01*
X136583519Y-94663253D01*
X136715430Y-94328118D01*
X136831564Y-94142679D01*
X136905431Y-94031972D01*
X136919605Y-93978381D01*
X136904074Y-93979034D01*
X136802479Y-94060095D01*
X136672081Y-94217533D01*
X136533771Y-94420851D01*
X136408442Y-94639550D01*
X136322769Y-94827586D01*
X136234633Y-95181414D01*
X136205047Y-95596394D01*
X136233228Y-96031835D01*
X136318389Y-96447048D01*
X136356268Y-96565383D01*
X136423980Y-96765131D01*
X136469830Y-96915783D01*
X136485173Y-96988611D01*
X136484350Y-96991008D01*
X136439714Y-96965812D01*
X136365434Y-96854960D01*
X136273406Y-96683096D01*
X136175525Y-96474865D01*
X136083688Y-96254914D01*
X136009789Y-96047888D01*
X135981061Y-95948302D01*
X135868992Y-95507829D01*
X135847649Y-95920358D01*
X135826306Y-96332887D01*
X135745979Y-95982063D01*
X135705556Y-95562059D01*
X135758631Y-95109476D01*
X135871395Y-94725948D01*
X136040980Y-94725948D01*
X136049873Y-94740374D01*
X136110342Y-94652370D01*
X136220151Y-94459165D01*
X136225673Y-94448961D01*
X136373671Y-94214859D01*
X136564459Y-93965164D01*
X136720280Y-93791999D01*
X137128693Y-93462073D01*
X137420121Y-93312225D01*
X138183615Y-93312225D01*
X138517212Y-93361195D01*
X138959243Y-93473471D01*
X139338766Y-93666796D01*
X139570414Y-93859653D01*
X139710655Y-93999649D01*
X139779950Y-94054673D01*
X139785186Y-94028262D01*
X139747804Y-93950732D01*
X139578404Y-93740596D01*
X139324332Y-93554973D01*
X139018505Y-93410280D01*
X138693837Y-93322930D01*
X138453047Y-93305039D01*
X138183615Y-93312225D01*
X137420121Y-93312225D01*
X137597641Y-93220947D01*
X138099913Y-93082046D01*
X138183615Y-93069945D01*
X138392075Y-93043081D01*
X138490281Y-93026966D01*
X138484976Y-93018087D01*
X138382906Y-93012931D01*
X138297444Y-93010644D01*
X137830710Y-93056186D01*
X137381283Y-93209741D01*
X136964085Y-93461481D01*
X136594036Y-93801577D01*
X136286056Y-94220202D01*
X136186866Y-94400882D01*
X136085899Y-94611861D01*
X136040980Y-94725948D01*
X135871395Y-94725948D01*
X135894602Y-94647018D01*
X136102869Y-94197386D01*
X136372831Y-93783282D01*
X136693889Y-93427410D01*
X137055440Y-93152472D01*
X137071738Y-93142808D01*
X137218337Y-93053085D01*
X137311538Y-92988718D01*
X137329091Y-92970737D01*
X137279877Y-92975070D01*
X137156236Y-93011190D01*
X137096325Y-93031609D01*
X136687640Y-93218201D01*
X136358096Y-93467952D01*
X136095488Y-93794591D01*
X135887611Y-94211849D01*
X135785730Y-94505973D01*
X135678120Y-94859570D01*
X135699193Y-94447041D01*
X135779404Y-93987938D01*
X135963389Y-93550024D01*
X136237056Y-93154777D01*
X136586312Y-92823673D01*
X136678872Y-92764729D01*
G37*
G36*
X188922500Y-99183750D02*
G01*
X189064983Y-99326250D01*
X188871233Y-99326250D01*
X188677483Y-99326250D01*
X188535000Y-99183750D01*
X188392516Y-99041250D01*
X188586266Y-99041250D01*
X188780016Y-99041250D01*
X188922500Y-99183750D01*
G37*
G36*
X188430629Y-99324379D02*
G01*
X188461986Y-99355748D01*
X188492369Y-99386166D01*
X188521592Y-99415444D01*
X188549467Y-99443394D01*
X188575807Y-99469828D01*
X188600424Y-99494556D01*
X188623133Y-99517390D01*
X188643744Y-99538143D01*
X188662071Y-99556624D01*
X188677927Y-99572647D01*
X188691125Y-99586023D01*
X188701477Y-99596562D01*
X188708797Y-99604077D01*
X188712896Y-99608380D01*
X188713750Y-99609379D01*
X188711313Y-99609676D01*
X188704259Y-99609959D01*
X188692969Y-99610223D01*
X188677825Y-99610465D01*
X188659209Y-99610682D01*
X188637503Y-99610869D01*
X188613090Y-99611023D01*
X188586351Y-99611140D01*
X188557668Y-99611217D01*
X188527424Y-99611249D01*
X188521870Y-99611250D01*
X188329991Y-99611250D01*
X188045000Y-99326250D01*
X187760008Y-99041250D01*
X187953758Y-99041250D01*
X188147508Y-99041250D01*
X188430629Y-99324379D01*
G37*
G36*
X188751149Y-97999899D02*
G01*
X188773326Y-98022105D01*
X188794429Y-98043285D01*
X188814197Y-98063177D01*
X188832370Y-98081514D01*
X188848688Y-98098034D01*
X188862890Y-98112472D01*
X188874716Y-98124563D01*
X188883906Y-98134042D01*
X188890198Y-98140646D01*
X188893333Y-98144110D01*
X188893641Y-98144578D01*
X188891322Y-98146381D01*
X188885777Y-98150590D01*
X188877783Y-98156620D01*
X188868117Y-98163882D01*
X188865871Y-98165566D01*
X188803252Y-98209427D01*
X188737374Y-98249629D01*
X188668559Y-98286005D01*
X188597130Y-98318387D01*
X188523408Y-98346604D01*
X188513313Y-98350080D01*
X188493972Y-98356422D01*
X188472121Y-98363203D01*
X188449082Y-98370041D01*
X188426180Y-98376555D01*
X188404740Y-98382366D01*
X188386084Y-98387090D01*
X188378750Y-98388806D01*
X188370820Y-98390719D01*
X188364912Y-98392372D01*
X188362869Y-98393134D01*
X188364402Y-98394126D01*
X188370025Y-98396059D01*
X188378968Y-98398701D01*
X188390463Y-98401819D01*
X188397869Y-98403723D01*
X188476098Y-98425636D01*
X188550988Y-98451129D01*
X188622837Y-98480353D01*
X188691945Y-98513458D01*
X188758612Y-98550596D01*
X188823135Y-98591915D01*
X188885814Y-98637568D01*
X188925000Y-98669046D01*
X188935334Y-98677993D01*
X188947538Y-98689117D01*
X188961189Y-98701985D01*
X188975865Y-98716163D01*
X188991146Y-98731219D01*
X189006608Y-98746718D01*
X189021831Y-98762229D01*
X189036393Y-98777316D01*
X189049871Y-98791547D01*
X189061844Y-98804490D01*
X189071890Y-98815709D01*
X189079587Y-98824773D01*
X189084515Y-98831247D01*
X189086250Y-98834699D01*
X189083782Y-98834826D01*
X189076511Y-98834951D01*
X189064631Y-98835073D01*
X189048340Y-98835191D01*
X189027832Y-98835305D01*
X189003304Y-98835415D01*
X188974951Y-98835520D01*
X188942971Y-98835619D01*
X188907558Y-98835713D01*
X188868908Y-98835801D01*
X188827218Y-98835882D01*
X188782684Y-98835956D01*
X188735501Y-98836023D01*
X188685865Y-98836082D01*
X188633973Y-98836133D01*
X188580020Y-98836175D01*
X188524202Y-98836208D01*
X188466716Y-98836232D01*
X188407756Y-98836246D01*
X188356870Y-98836250D01*
X187627490Y-98836249D01*
X187382500Y-99081250D01*
X187137509Y-99326250D01*
X187382500Y-99571250D01*
X187627490Y-99816250D01*
X188607492Y-99816250D01*
X189587495Y-99816250D01*
X189097500Y-100306250D01*
X188607504Y-100796250D01*
X187993750Y-100796250D01*
X187379995Y-100796250D01*
X186890622Y-100306872D01*
X186401250Y-99817495D01*
X186401249Y-99326245D01*
X186401249Y-98834995D01*
X186890627Y-98345622D01*
X187380004Y-97856250D01*
X187993760Y-97856250D01*
X188607516Y-97856250D01*
X188751149Y-97999899D01*
G37*
G36*
X189479340Y-97600386D02*
G01*
X189480863Y-97603752D01*
X189483019Y-97610758D01*
X189486017Y-97621920D01*
X189487477Y-97627581D01*
X189507986Y-97697685D01*
X189533077Y-97765859D01*
X189562667Y-97831939D01*
X189596673Y-97895764D01*
X189635015Y-97957171D01*
X189677607Y-98015997D01*
X189696752Y-98039905D01*
X189720185Y-98066937D01*
X189746893Y-98095344D01*
X189775781Y-98124067D01*
X189805756Y-98152048D01*
X189835725Y-98178228D01*
X189860000Y-98197978D01*
X189912417Y-98236150D01*
X189968336Y-98271460D01*
X190026977Y-98303524D01*
X190087562Y-98331960D01*
X190149308Y-98356385D01*
X190211438Y-98376417D01*
X190238843Y-98383778D01*
X190250927Y-98386842D01*
X190261445Y-98389549D01*
X190269342Y-98391625D01*
X190273558Y-98392795D01*
X190273750Y-98392856D01*
X190272781Y-98393852D01*
X190267677Y-98395802D01*
X190259156Y-98398474D01*
X190247939Y-98401637D01*
X190240000Y-98403729D01*
X190171242Y-98423940D01*
X190104538Y-98448620D01*
X190040064Y-98477607D01*
X189977995Y-98510734D01*
X189918507Y-98547839D01*
X189861778Y-98588756D01*
X189807983Y-98633322D01*
X189757298Y-98681371D01*
X189709900Y-98732740D01*
X189665965Y-98787264D01*
X189625669Y-98844779D01*
X189589188Y-98905121D01*
X189556698Y-98968124D01*
X189528377Y-99033626D01*
X189509832Y-99084724D01*
X189504399Y-99101544D01*
X189498755Y-99119947D01*
X189493458Y-99138065D01*
X189489060Y-99154028D01*
X189487774Y-99159008D01*
X189484412Y-99172275D01*
X189482022Y-99181220D01*
X189480355Y-99186372D01*
X189479165Y-99188258D01*
X189478202Y-99187407D01*
X189477218Y-99184346D01*
X189476732Y-99182500D01*
X189470850Y-99160055D01*
X189465906Y-99141551D01*
X189461637Y-99126074D01*
X189457782Y-99112713D01*
X189454079Y-99100553D01*
X189450264Y-99088682D01*
X189446947Y-99078750D01*
X189421809Y-99012192D01*
X189392237Y-98947761D01*
X189358411Y-98885661D01*
X189320514Y-98826096D01*
X189278727Y-98769272D01*
X189233231Y-98715392D01*
X189184208Y-98664661D01*
X189131839Y-98617282D01*
X189076305Y-98573462D01*
X189017788Y-98533404D01*
X188956469Y-98497312D01*
X188910000Y-98473568D01*
X188866396Y-98453953D01*
X188820959Y-98435919D01*
X188775215Y-98420016D01*
X188730690Y-98406790D01*
X188708118Y-98401056D01*
X188698127Y-98398493D01*
X188690504Y-98396172D01*
X188686181Y-98394400D01*
X188685618Y-98393648D01*
X188688621Y-98392467D01*
X188695522Y-98390370D01*
X188705363Y-98387631D01*
X188717184Y-98384523D01*
X188720000Y-98383806D01*
X188786801Y-98364337D01*
X188852208Y-98340187D01*
X188915944Y-98311548D01*
X188977733Y-98278612D01*
X189037297Y-98241572D01*
X189094361Y-98200620D01*
X189148647Y-98155949D01*
X189199878Y-98107750D01*
X189247779Y-98056217D01*
X189292072Y-98001540D01*
X189314514Y-97970601D01*
X189353302Y-97910720D01*
X189387765Y-97848573D01*
X189417973Y-97784001D01*
X189443996Y-97716845D01*
X189465905Y-97646947D01*
X189477367Y-97602526D01*
X189478244Y-97600149D01*
X189479340Y-97600386D01*
G37*
M02*
