M48
; DRILL file {KiCad (7.0.0)} date Fri Oct 27 13:43:11 2023
; FORMAT={-:-/ absolute / inch / decimal}
; #@! TF.CreationDate,2023-10-27T13:43:11+02:00
; #@! TF.GenerationSoftware,Kicad,Pcbnew,(7.0.0)
; #@! TF.FileFunction,NonPlated,1,2,NPTH
FMAT,2
INCH
; #@! TA.AperFunction,NonPlated,NPTH,ComponentDrill
T1C0.0197
%
G90
G05
T1
X1.0625Y-1.218
X1.0625Y-1.246
X1.0625Y-1.2751
X1.0625Y-1.3043
X1.0625Y-1.3334
X1.0625Y-1.3625
X1.0625Y-1.3625
X1.0625Y-1.3917
X1.0625Y-1.4197
X1.0625Y-1.4507
X1.0625Y-1.4817
X1.0625Y-4.0106
X1.0625Y-4.0397
X1.0625Y-4.0688
X1.0625Y-4.098
X1.0625Y-4.1271
X1.0625Y-4.1271
X1.0625Y-4.1562
X1.0625Y-4.1842
X1.0625Y-4.2153
X1.0625Y-4.2463
X10.625Y-1.257
X10.625Y-1.285
X10.625Y-1.3141
X10.625Y-1.3432
X10.625Y-1.3724
X10.625Y-1.4015
X10.625Y-1.4015
X10.625Y-1.4306
X10.625Y-1.4586
X10.625Y-1.4897
X10.625Y-3.9981
X10.625Y-4.0273
X10.625Y-4.0564
X10.625Y-4.0855
X10.625Y-4.1147
X10.625Y-4.1147
X10.625Y-4.1438
X10.625Y-4.1718
X10.625Y-4.2028
X10.625Y-4.2338
T0
M30
